/* XPM */
const char *insert_cg_xpm[]={
"12 12 8 1",
". c None",
"f c None",
"d c #953803",
"e c #c56e01",
"# c #d99119",
"a c #ecc16c",
"b c #fbfbfb",
"c c #ffffc0",
".########...",
"#ab#accca#..",
"#bb#accca#..",
"####acdca#..",
"#aaaadeca#..",
"#cccdeeddddd",
"#ccdeeeeeeed",
"#cccdeeddddd",
"#ccccdeca#ff",
"#cccccdca#ff",
"#ccccccca#ff",
".#########ff"};
