/* XPM */
const char *library_xpm[] = {
/* columns rows colors chars-per-pixel */
"33 33 256 2",
"   c #490D00",
".  c #4A1506",
"X  c #4F1D10",
"o  c #581403",
"O  c #56230C",
"+  c #572517",
"@  c #572D20",
"#  c #593020",
"$  c #681D08",
"%  c #751D03",
"&  c #67230A",
"*  c #622B1A",
"=  c #69321F",
"-  c #782609",
";  c #792B14",
":  c #773416",
">  c #603B30",
",  c #763324",
"<  c #6A4133",
"1  c #764820",
"2  c #7F513F",
"3  c #7A5132",
"4  c #7F5D50",
"5  c #79584A",
"6  c #801A08",
"7  c #892C0A",
"8  c #872505",
"9  c #812D10",
"0  c #8A320B",
"q  c #893917",
"w  c #912D09",
"e  c #952B06",
"r  c #93300C",
"t  c #99360A",
"y  c #933A15",
"u  c #9B3A13",
"i  c #993510",
"p  c #A43B0B",
"a  c #A4390A",
"s  c #A43C13",
"d  c #9D431B",
"f  c #99441A",
"g  c #8D4224",
"h  c #964C25",
"j  c #924D3C",
"k  c #955526",
"l  c #90562D",
"z  c #A9420C",
"x  c #A64718",
"c  c #B2440F",
"v  c #B64B16",
"b  c #BA531B",
"n  c #A34D22",
"m  c #A75628",
"M  c #A65A34",
"N  c #BB5922",
"B  c #B65928",
"V  c #AB602E",
"C  c #A7673A",
"Z  c #AE7035",
"A  c #BE672A",
"S  c #B46432",
"D  c #BB6C3B",
"F  c #B46A39",
"G  c #BD742D",
"H  c #B97234",
"J  c #9A5A46",
"K  c #896958",
"L  c #817A54",
"P  c #986753",
"I  c #947F6D",
"U  c #8A7664",
"Y  c #AC5F46",
"T  c #A8644C",
"R  c #A57540",
"E  c #B76A47",
"W  c #B77245",
"Q  c #BB7A54",
"!  c #B86E54",
"~  c #B27B68",
"^  c #C05B27",
"/  c #C56128",
"(  c #C76934",
")  c #C97233",
"_  c #C6783A",
"`  c #DC6F2D",
"'  c #DC6D33",
"]  c #DE7232",
"[  c #EF7839",
"{  c #CE7441",
"}  c #C87944",
"|  c #D27B42",
" . c #E57B43",
".. c #88825D",
"X. c #93815A",
"o. c #8B8562",
"O. c #948D6A",
"+. c #978D74",
"@. c #96906E",
"#. c #98916D",
"$. c #959074",
"%. c #99957C",
"&. c #9F9979",
"*. c #9B9576",
"=. c #BE844B",
"-. c #BB8359",
";. c #BF9451",
":. c #B39146",
">. c #AA8371",
",. c #A29D7D",
"<. c #B78469",
"1. c #BF8D7A",
"2. c #B99E7C",
"3. c #BAA47F",
"4. c #CE843A",
"5. c #D6853D",
"6. c #E18B3E",
"7. c #FB883E",
"8. c #C68647",
"9. c #C68655",
"0. c #CF9148",
"q. c #D48949",
"w. c #D58956",
"e. c #D89648",
"r. c #D89957",
"t. c #C78D67",
"y. c #C99666",
"u. c #C69C74",
"i. c #D48F63",
"p. c #D89668",
"a. c #D49F76",
"s. c #C2AC4C",
"d. c #C1A25C",
"f. c #DBA456",
"g. c #D5BC5C",
"h. c #C6A37B",
"j. c #D9A567",
"k. c #D6A679",
"l. c #DBB37F",
"z. c #E78A4B",
"x. c #E69248",
"c. c #E89D58",
"v. c #F69449",
"b. c #F99953",
"n. c #ED8C51",
"m. c #E19162",
"M. c #E49F77",
"N. c #E0A559",
"B. c #F8A959",
"V. c #E3B75B",
"C. c #E4A965",
"Z. c #E5AB79",
"A. c #E4B26B",
"S. c #E6B778",
"D. c #FBB866",
"F. c #F5B271",
"G. c #F8AA69",
"H. c #DCC66F",
"J. c #D4D363",
"K. c #E0D763",
"L. c #E6D676",
"P. c #F2D16E",
"I. c #FDD578",
"U. c #EBC76F",
"Y. c #F2E377",
"T. c #9A9681",
"R. c #9D9983",
"E. c #A19C86",
"W. c #A29D89",
"Q. c #BD9C87",
"!. c #A5A28C",
"~. c #ABA58D",
"^. c #A9A593",
"/. c #AEAA99",
"(. c #A9A694",
"). c #B5AB8B",
"_. c #B3AD91",
"`. c #B1AD9A",
"'. c #BBA490",
"]. c #B6B195",
"[. c #B9B499",
"{. c #B9B49A",
"}. c #B1AFA1",
"|. c #B4B2A3",
" X c #B9B5A3",
".X c #B9B6A9",
"XX c #BDB9A4",
"oX c #BCB9AB",
"OX c #B7B5A8",
"+X c #BFBDB1",
"@X c #C29E87",
"#X c #C8A685",
"$X c #CCB489",
"%X c #CDB69A",
"&X c #D0AB81",
"*X c #D0AB9E",
"=X c #DCBD8D",
"-X c #D3BC94",
";X c #D1BC9D",
":X c #D6B497",
">X c #C7A791",
",X c #C1BDA4",
"<X c #C0BDAC",
"1X c #CCBDAC",
"2X c #C1BEB1",
"3X c #D2BBA9",
"4X c #E6BA86",
"5X c #DAC396",
"6X c #C5C0A5",
"7X c #C4C1AD",
"8X c #C9C5AD",
"9X c #C3C0B2",
"0X c #C9C5B2",
"qX c #C8C6BC",
"wX c #CCC9B5",
"eX c #CDCABB",
"rX c #C5C4BA",
"tX c #D4C4A2",
"yX c #D0CDBB",
"uX c #D4C8B5",
"iX c #DDD9BD",
"pX c #D9D4BA",
"aX c #F8CB82",
"sX c #FDD784",
"dX c #F0D09E",
"fX c #EBC48C",
"gX c #E1CCBA",
"hX c #E5D2BB",
"jX c #FEE282",
"kX c #FEEB87",
"lX c #FFEA97",
"zX c #FCF183",
"xX c #FFFF92",
"cX c #FFFC9C",
"vX c #F8F093",
"bX c #CCCAC1",
"nX c #D0CEC6",
"mX c #D5D2C1",
"MX c #D5D3CC",
"NX c #DAD3C3",
"BX c #D9D7CA",
"VX c #DEDACA",
"CX c #DFDBC7",
"ZX c #D7D6D0",
"AX c #D8D7D0",
"SX c #DAD9D2",
"DX c #DFDFD9",
"FX c #E1DDCD",
"GX c #E3D8C5",
"HX c #E2DED5",
"JX c #EBE8D8",
"KX c #E5E3D7",
"LX c #F0E8DF",
"PX c #E6E2CD",
"IX c #EDECE0",
"UX c #F3F0E6",
/* pixels */
"JXJXJXJXJXwX,...4 #.#.O.O.O.#.O.O.O.O.#.@.@.O.4 &.6XJXJXJXJXJXJXJX",
"JXJXJX8X,.X.).5XtX3XtX5X;X6XpXNXiXiXiXiXhXhXpXpX[.&.O.[.JXJXJXJXJX",
"JXJX]...#X-Xh.y.t.9.t.-.-.-.<.>X3XGXFXPXHXFXGXpXwX8X[.O._.JXJXJXJX",
"JX[.O.tX-X&Xk.p.i.} } W W W Z M M <.*XuXHXIXUXIXPXpX6X[.O._.JXJXJX",
"8X..tXtX5X4Xa.p.w.{ B B N A B m m x f M Q 1.3XGXJXDXyX,X[.o.].IXJX",
"&.%X-X5XdXfXS.m.w.q.( / b v x x x x f y 7 0 M Y #XVXBX0XXX/...CXJX",
"#.tX2.a.l.S.U.Z.C.r.q.) b b v c z z u t 0 8 w e T NXBXeX<X|.%.].JX",
"].h.t.Q W 9.r.A.A.C.r.q._ ( b c z t 0 t N ( | m.hXPXBXyX7XOX(...JX",
"-Xu.w.D m m D 8.p.A.A.r.D x f f d S w.C.F.G.n.M.PXFXNXyX2X.X}.o.yX",
"-Xh.i.( v c s B D r.f.M 9 M =.j.fXsXI.D.b.n.z.m.gXVXMXeX2X+X}.+.,X",
"5X=Xl.q.^ c p t x B M & R vXcXlXlXsXD.B.b. .| j <.NXNXyX2X2XOX%.[.",
"$X5X4Xj.q.) b c a t 0 : L.cXkXkXsXI.G.w.E m u e ! NXNXyX2X2X.XT._.",
"3.a.l.Z.j.e.| / v a e : d.zXY.L.j.F m y e t c ^ 3XGXmXeX2X9XoXR._.",
"u.<.Q } r.N.f.q.] ^ p - : C C h 7 7 w t N _ c.Z.hXFXmXqX<X9X.XR._.",
"#Xt.E M S } e.f.f.q.) b r - % 8 w n ) N.G.G.n.i.hXGXmXwX<X2X.XR._.",
"$Xk.9.B u h M _ e.f.e.5.x 8 x F r.I.sXD.v.[  .m.@XuXmXwX<X2X.XR._.",
"$Xl.p.} N i i h V _ e._ ; k L.kXlXsXU.7.7.v.{ M g ~ yXwXoX<X.XT._.",
"2.h.j.r._ N s w y x F h & g.xXzXI.I.D.B.} n y 7 % ! yX<X.XoX|.R._.",
"2.~ Q 8.q.e.) b s u x q : L.xXY.P.f.H y 7 8 w 7 M *XqX<X XoX|.R._.",
",X2.T m m _ 0.4.A v s 0 & R H.;.k - - 8 e s B { :XuX2XXX`..X|.%._.",
",XpXuXJ q q m _ 4.) A x - & & $ % 8 t x ) c.n.{ %X8XXX|./..X}.%._.",
",XyXNXuX~ ; - q m H ) ) b ; & - y m e.B.v.` ^ ( #XXX X`.(..X|.R._.",
"{.0XmXmXpXQ.j - - q m G G 9 & Z H.P.V.6.` ] ' B l K `.(./..X|.%.[.",
"`.XXwXwXwXyX8X>.; $ & g : . k Y.P.V.6.6.x.) f : * 5 (.R.|.oXoX+.,X",
"^.`.<X<X8X8X8X8X'.P & o   X s.K.g.V.e.8.h & = < I W.W.W.2X+X2XL JX",
"%./.|..X XXX XXXXXXX>.,   . :.J.g.:.l & * 2 +.E.~.E.R.}.qXqXOX+.JX",
"L (./.|././.`.`.`.`.`.~.2 X O 3 1 O + 4 %.E.!.!.E.T.^.bXnXMX+.XXJX",
").$.(./.`.^.~.!.~.!.~.^.W.K # # + 5 U E.W.E.R.R.%.(.bXSXMXoXO.JXJX",
"CX*.R.|..X|.^.W.R.W.R.R.R.R.R.R.R.R.R.R.R.T.T.R.oXMXDXDXqX..,XJXJX",
"JX8X*.W.oXrXqX9XoX|.|./.}././././././.`.|.+XqXSXDXKXDX9Xo.[.JXJXJX",
"JXJX0X,.$..XbXMXMXMXMXSXSXSXMXSXSXSXSXSXSXSXDXDXDXSX^.O.{.JXJXJXJX",
"JXJXJXJX].o.$.(.oXbXMXMXMXSXSXSXMXMXSXSXMXSX9X.X!.L ).NXLXJXJXJXJX",
"JXJXJXJXJXJX,X,.O...L L L L L L L L L L L L O.*.[.PXJXJXJXJXJXJXJX"
};
