/* XPM */
const char *nogrid_xpm[] = {
/* columns rows colors chars-per-pixel */
"33 33 256 2",
"   c #6B2714",
".  c #7A2A15",
"X  c #742916",
"o  c #7D341B",
"O  c #7F481E",
"+  c #7B4125",
"@  c #873519",
"#  c #99371A",
"$  c #822C17",
"%  c #883B23",
"&  c #A43E1D",
"*  c #86471B",
"=  c #894529",
"-  c #874736",
";  c #8A5535",
":  c #95452B",
">  c #965424",
",  c #945836",
"<  c #9C6924",
"1  c #9B6725",
"2  c #97633B",
"3  c #9F7735",
"4  c #AB431D",
"5  c #A6411E",
"6  c #B1461D",
"7  c #AA4824",
"8  c #A84725",
"9  c #A14D30",
"0  c #AF502B",
"q  c #A4553B",
"w  c #B24B23",
"e  c #B64E25",
"r  c #B2512A",
"t  c #BA592A",
"y  c #B85426",
"u  c #B55833",
"i  c #A26922",
"p  c #A36A2C",
"a  c #A0653E",
"s  c #AC752A",
"d  c #A5722B",
"f  c #A77835",
"g  c #BC6B2A",
"h  c #BA6A36",
"j  c #B07A2B",
"k  c #975642",
"l  c #817A54",
"z  c #9B6446",
"x  c #9E7848",
"c  c #9F7153",
"v  c #A75D42",
"b  c #AE6649",
"n  c #AA6246",
"m  c #A8775B",
"M  c #B2694B",
"N  c #B67153",
"B  c #A57663",
"V  c #C35927",
"C  c #CC622A",
"Z  c #CD6D2D",
"A  c #C3662A",
"S  c #CC6E30",
"D  c #C06331",
"F  c #C5742B",
"G  c #C97836",
"H  c #D36F2C",
"J  c #DB7727",
"K  c #D37332",
"L  c #D37936",
"P  c #C56D46",
"I  c #CD7846",
"U  c #DC7A40",
"Y  c #BB842F",
"T  c #B78738",
"R  c #A68438",
"E  c #88825D",
"W  c #9C8242",
"Q  c #8B8461",
"!  c #8E8868",
"~  c #948D6A",
"^  c #928D71",
"/  c #96906E",
"(  c #99926F",
")  c #959074",
"_  c #99957C",
"`  c #9E9877",
"'  c #9F9979",
"]  c #999475",
"[  c #A7874B",
"{  c #B58E48",
"}  c #B99246",
"|  c #AC8B61",
" . c #AF8C75",
".. c #AF9C6D",
"X. c #A29D7D",
"o. c #BB9D7D",
"O. c #B9926B",
"+. c #BFA05E",
"@. c #CC853B",
"#. c #C6993C",
"$. c #D68A2E",
"%. c #D9853A",
"&. c #DC982C",
"*. c #DA9333",
"=. c #DB9B33",
"-. c #DD9D3A",
";. c #D69137",
":. c #CB892E",
">. c #DBA639",
",. c #E28736",
"<. c #E49D37",
"1. c #EB9528",
"2. c #E1A535",
"3. c #E4A23D",
"4. c #E4AA33",
"5. c #E6AD3C",
"6. c #E8AE35",
"7. c #E6B13A",
"8. c #E8B335",
"9. c #E8B83E",
"0. c #CE8844",
"q. c #C49A45",
"w. c #DB8A46",
"e. c #DA8A51",
"r. c #DB9041",
"t. c #D0924D",
"y. c #C28062",
"u. c #D89467",
"i. c #CFA246",
"p. c #CDA85F",
"a. c #D2A945",
"s. c #D4AA5B",
"d. c #DFBE4B",
"f. c #D0B45A",
"g. c #C8A361",
"h. c #C2A27C",
"j. c #D9A764",
"k. c #DDBA6B",
"l. c #DCB865",
"z. c #DDB970",
"x. c #E28F43",
"c. c #E08F54",
"v. c #E19B49",
"b. c #E29B54",
"n. c #E2996B",
"m. c #E4AC43",
"M. c #E9AC45",
"N. c #E6A947",
"B. c #E5A357",
"V. c #E7B441",
"C. c #E9B443",
"Z. c #EABC4A",
"A. c #E8B847",
"S. c #E9B855",
"D. c #F2B45F",
"F. c #E6A762",
"G. c #E9BE68",
"H. c #E9B77A",
"J. c #F0BA6B",
"K. c #EBAC77",
"L. c #F6CC32",
"P. c #F5C93B",
"I. c #F6CA37",
"U. c #F8D33B",
"Y. c #F9D83E",
"T. c #D9C774",
"R. c #ECC549",
"E. c #EBC35D",
"W. c #F5CC45",
"Q. c #F4C24D",
"!. c #F7D243",
"~. c #F6D65C",
"^. c #F3C157",
"/. c #E5C569",
"(. c #E2C372",
"). c #E8C577",
"_. c #E1D176",
"`. c #F2DA61",
"'. c #F2D476",
"]. c #F3CB6B",
"[. c #F9E369",
"{. c #F9E577",
"}. c #9C9880",
"|. c #AD8C80",
" X c #A19D88",
".X c #AAA68C",
"XX c #A9A593",
"oX c #AEAA9A",
"OX c #ABA895",
"+X c #B4A88D",
"@X c #B3AD91",
"#X c #B1AE9E",
"$X c #BDA59A",
"%X c #B6B195",
"&X c #BAB599",
"*X c #B8B49B",
"=X c #B1AFA1",
"-X c #B4B2A4",
";X c #B8B4A4",
":X c #B9B6AA",
">X c #BCB9AC",
",X c #BBB8A4",
"<X c #BFBDB0",
"1X c #C4B89D",
"2X c #D5B98D",
"3X c #D3B899",
"4X c #C1BDA3",
"5X c #C8B7A7",
"6X c #C1BEB2",
"7X c #E9AE83",
"8X c #EDB98E",
"9X c #EBB287",
"0X c #F1BC97",
"qX c #E6BD9A",
"wX c #EEBAA3",
"eX c #EFBFA8",
"rX c #F3BDA4",
"tX c #C5C0A5",
"yX c #CAC6AD",
"uX c #CFCBAF",
"iX c #C3C1B4",
"pX c #C8C6B9",
"aX c #D2CDB3",
"sX c #D2CBBA",
"dX c #D5D1B6",
"fX c #DAD5BB",
"gX c #DDD9BD",
"hX c #F0C584",
"jX c #F5C09E",
"kX c #F2D984",
"lX c #E7CE8E",
"zX c #E2C3A5",
"xX c #F1C5AC",
"cX c #F2CFB0",
"vX c #EDE19A",
"bX c #F5E584",
"nX c #FBEE97",
"mX c #CBC9C0",
"MX c #D8CEC2",
"NX c #D4D3CC",
"BX c #DBD6CE",
"VX c #DAD7C4",
"CX c #D7D6D0",
"ZX c #D8D7D0",
"AX c #DAD9D2",
"SX c #DFDFD9",
"DX c #E0DCC3",
"FX c #E1DECB",
"GX c #E0DFDA",
"HX c #E5E1CC",
"JX c #E6E3D1",
"KX c #E8E5D2",
"LX c #ECE9D8",
"PX c #E4E3DA",
"IX c #F0EDE1",
"UX c #F2F0E5",
/* pixels */
"LXLXLXLXLXaX XE l ~ ~ ~ ~ ~ ~ ~ ~ ~ ~ ~ ~ ~ ~ l X.1XLXLXLXLXLXLXLX",
"LXLXLXuX' ( 1XdXDXgXgXgXgXgXgXfXgXgXgXgXgXgXfXdX&X` ~ &XLXLXLXKXLX",
"LXLX%XQ tXDXgXgXDXFXKXKXKXKXKXKXKXKXKXKXKXHXFXMXaXyX&X~ +XLXLXLXLX",
"LX%X~ dXgXzXqXeXrXrXrXrXrXrXwXrXrXrXeXxXxXxXxXcXzX3X1X&X) +XLXLXLX",
"uXQ dXgXqXH.J.J.x.x.N.v.<.3.v.3.3.<.3.5.3.M.,.M./.(.g.o.*X! %XLXLX",
"X.1XgXHXH.].].~.L ,.bXW.W.W.U.W.W.U.U.U.Y.!.J 4.bXkXT.g.o.oXQ VXLX",
"~ fXgXjXD.^.Z.W.Z ,.{.P.W.P.P.P.I.I.U.I.L.L.J 1.`.].d.f.O.-X_ @XLX",
"1XdXLXjX].'.'.[.w.,.nX~.`.{.{.{.{.{.[.[.[.[.,.M.bXvX_.T.O.:XOXQ LX",
"aXgXUX9Xc.B.F.B.e.x.B.x.v.v.b.B.B.B.v.b.v.v.w.c.j.lX2X3Xh.>X=XQ sX",
"dXgXUXn.L H Z Z Z U e.K Z Z H S Z S Z Z Z C C L G G F h b >X-X^ tX",
"dXHXUX8XC.C.C.9.C S e.F.N.3.-.<.-.-.=.3.S A S *.G G h f n >X:X_ %X",
"dXKXIX0XC.R.9.R.V H I I H.'.Z.Z.Z.A.R.G t %.V %.R.d.>.} v <X:X}.@X",
"dXKXIX8XM.A.C.C.t S /.V I hXkXA.9.R.G r r.#.t %./.(.a.q.n iX>X}.@X",
"dXKXIX8Xm.A.V.C.t V '.N.t P hXkXZ.D r r.Z.0.r L _.(.i.q.z iX:X}.@X",
"aXKXIX9Xm.C.M.C.y V kXS.m.y u ).u.h r.Z.A.@.0 L /.(.i.q.z <X:X}.@X",
"dXKXIXK.3.5.5.9.r V kXS.m.a.r r 0 ;./.N.V.G 7 G (.z.q.{ k <X>X}.@X",
"aXGXLX7X3.6.6.9.w V kXS.7.9.g 6 7 3.E.S.S.G 8 S /.k.#.} , <X:X}.@X",
"aXGXLXK.<.6.6.8.6 V '.A.7.g 6 C 7 w G.).N.0.8 F /.k.#.T , <X-X}.@X",
"uXFXLXK.<.4.4.8.4 V '.A.F 5 C 7.-.8 r ).].G u G l.l.T T - :X-X}.@X",
"yXDXFXK.&.4.4.4.& V ].@.5 V 8.>.>.*.5 r /.G # S k.p.Y f - :X=X}.@X",
"5XVXHXu.$.&.2.4.& V w.4 e >.=.=.&.=.:.# 5 g # y s.g.Y d - :X=X}.@X",
"1XsXVXu.$.$.&.>.# & 0 w =.-.*.*.*.$.*.F # # # e q.q.Y f - :X=X}.@X",
"*XyXMXu.s.G.k.G.9 9 P s.H.z.).H.H.k.z.k.g.q 8 y q.p.{ [ B :X-X_ &X",
"#X,XpXO.b b b q : : q v N N N N N M b n v : o $ o = % = B :X<X^ 4X",
".X%X6XM = @ @ @ . @ % $ . . . . . . . X X X . @ o = . + |.<XiXl LX",
"}.OX;Xm , > > >   @ { j j j s j j j j s s *   @ R [ 1 | $XpX:X^ LX",
"l XXOX .a f d d   . { f i i i i i i < < i *   @ 3 x [ 1X5XNX^ ,XLX",
"+X_ XXoXm 2 3 f + o [ f < < < < < < < 1 1 O   * W ..5XsXCX>X( LXLX",
"VX` }.oX>X .c z ; ; c 2 , , , , > , 2 2 , ; + c +XMXBXSXpXQ 4XLXLX",
"LXyX_ XX>XpXpXiX>X-X#XoXOXoXoXoXOXoXoXoX-X<XmXAXGXPXGXiXQ %XLXLXLX",
"LXLXuX' ) :XmXNXNXNXNXAXZXZXZXZXZXZXZXZXAXAXGXGXGXAXXX! ,XLXLXLXLX",
"LXLXLXLX#XQ ) OX>XsXNXNXNXZXZXZXZXZXZXZXBXBXpX,X Xl +XVXLXLXLXLXLX",
"LXLXLXLXLXLX4X X/ E l l l l l l l l l l l l ~ ` %XHXLXLXLXLXLXLXLX"
};
