/* XPM */
const char *removefill_xpm[] = {
/* columns rows colors chars-per-pixel */
"33 33 257 2",
"   c #1B0C00",
".  c #3F1D04",
"X  c #392813",
"o  c #3F3603",
"O  c #282620",
"+  c #0B7938",
"@  c #187F3A",
"#  c #386D1C",
"$  c #217A3C",
"%  c #057B48",
"&  c #027A58",
"*  c #16795C",
"=  c #046A6B",
"-  c #087867",
";  c #13677B",
":  c #187178",
">  c #036879",
",  c #3C4D57",
"<  c #2A5766",
"1  c #2B5871",
"2  c #335163",
"3  c #36706F",
"4  c #2D6D6E",
"5  c #2D7951",
"6  c #433703",
"7  c #4D2A07",
"8  c #64360B",
"9  c #7B3C08",
"0  c #42403E",
"q  c #5F4C32",
"w  c #547619",
"e  c #4F7921",
"r  c #557F3C",
"t  c #754011",
"y  c #7D5003",
"u  c #6C5F3E",
"i  c #775229",
"p  c #717620",
"a  c #6C7433",
"s  c #414D52",
"d  c #5F5F5D",
"f  c #5A584F",
"g  c #485A6A",
"h  c #567A46",
"j  c #497866",
"k  c #605F57",
"l  c #68615A",
"z  c #746744",
"x  c #6B6C55",
"c  c #616769",
"v  c #086883",
"b  c #087494",
"n  c #087A9A",
"m  c #077190",
"M  c #196B82",
"N  c #167B93",
"B  c #09718E",
"V  c #097FA0",
"C  c #296F83",
"Z  c #009615",
"A  c #0B8739",
"S  c #009720",
"D  c #0D922D",
"F  c #11A332",
"G  c #3D8C3B",
"H  c #048A5C",
"J  c #0F944D",
"K  c #1E8774",
"L  c #0E816B",
"P  c #1AA863",
"I  c #2D9870",
"U  c #2BA770",
"Y  c #47905D",
"T  c #438E7E",
"R  c #5B8667",
"E  c #54BE75",
"W  c #0A84A5",
"Q  c #31838F",
"!  c #2E8591",
"~  c #3A90A6",
"^  c #40899A",
"/  c #7C8689",
"(  c #619EAB",
")  c #72B781",
"_  c #69A1AC",
"`  c #71ACBA",
"'  c #6EA8B4",
"]  c #883A08",
"[  c #8A430E",
"{  c #974B0E",
"}  c #985507",
"|  c #945116",
" . c #854E21",
".. c #895E27",
"X. c #985F2D",
"o. c #976814",
"O. c #8A6A37",
"+. c #956326",
"@. c #9E7139",
"#. c #A95A14",
"$. c #AE5D0C",
"%. c #A86919",
"&. c #AF731D",
"*. c #B96A17",
"=. c #B8761C",
"-. c #B9660D",
";. c #A36625",
":. c #AB7F3F",
">. c #B87926",
",. c #B17430",
"<. c #8A754D",
"1. c #817A54",
"2. c #877B58",
"3. c #9E6A41",
"4. c #9D7F5D",
"5. c #8E6E4A",
"6. c #847562",
"7. c #927D6D",
"8. c #A4774A",
"9. c #BD7E4A",
"0. c #C46706",
"q. c #C17000",
"w. c #C87919",
"e. c #D17B03",
"r. c #C16E21",
"t. c #C77A37",
"y. c #C47126",
"u. c #8D8A2E",
"i. c #BE881E",
"p. c #AD9031",
"a. c #AE8C2B",
"s. c #87815C",
"d. c #9B8C4E",
"f. c #8B8462",
"g. c #8F8A6E",
"h. c #938D6A",
"j. c #938567",
"k. c #988974",
"l. c #96906E",
"z. c #98916E",
"x. c #999477",
"c. c #AA885A",
"v. c #B6895B",
"b. c #A68A67",
"n. c #AD8D71",
"m. c #AB926A",
"M. c #A69A79",
"N. c #B99669",
"B. c #B5976D",
"V. c #BAA277",
"C. c #C8841F",
"Z. c #D88917",
"A. c #C98926",
"S. c #C98A37",
"D. c #CA922A",
"F. c #CA9138",
"G. c #D48825",
"H. c #D89528",
"J. c #D99839",
"K. c #D28B34",
"L. c #D2A23E",
"P. c #E19B17",
"I. c #E6A937",
"U. c #EAAF27",
"Y. c #C88945",
"T. c #C88B52",
"R. c #D59450",
"E. c #C59867",
"W. c #D39C67",
"Q. c #CEA75C",
"!. c #DFA94F",
"~. c #D7A45A",
"^. c #C6A44C",
"/. c #C5A576",
"(. c #D4B87B",
"). c #D1B16A",
"_. c #E09F4E",
"`. c #E19D53",
"'. c #E1A747",
"]. c #EDBC58",
"[. c #E8B34C",
"{. c #EAB866",
"}. c #EEC054",
"|. c #F3CC77",
" X c #EFC967",
".X c #838A88",
"XX c #8E9289",
"oX c #9C9883",
"OX c #9B9784",
"+X c #92A684",
"@X c #A19C86",
"#X c #A19E8A",
"$X c #A8A48C",
"%X c #AAA693",
"&X c #ADAA9A",
"*X c #AAA794",
"=X c #B0AA8D",
"-X c #B2AC9B",
";X c #B2AC96",
":X c #B8B39C",
">X c #B7B29A",
",X c #B4AEA2",
"<X c #B5B2A2",
"1X c #BDBBAB",
"2X c #B9B6A6",
"3X c #BCBAB1",
"4X c #A1DAB3",
"5X c #CBB588",
"6X c #C0BB9E",
"7X c #D7B78B",
"8X c #D1BE95",
"9X c #D7AD80",
"0X c #C1BDAB",
"qX c #C2BDA3",
"wX c #C1BEB2",
"eX c #ECBE87",
"rX c #D7C59B",
"tX c #C6C3AC",
"yX c #C3C0B5",
"uX c #C5C3B9",
"iX c #C9C7BE",
"pX c #CCC9BB",
"aX c #CAC7B4",
"sX c #DAC9AA",
"dX c #D1CCB9",
"fX c #DDD8BD",
"gX c #D8D3BB",
"hX c #F1CE9C",
"jX c #F0D496",
"kX c #E9CCA7",
"lX c #EBDABB",
"zX c #F3D7A9",
"xX c #FAE5BD",
"cX c #CCCAC1",
"vX c #D0CEC5",
"bX c #D6D3C3",
"nX c #D4D3CB",
"mX c #D8D5C5",
"MX c #DDDAC9",
"NX c #DCD9C4",
"BX c #DBDAD3",
"VX c #E2DDC8",
"CX c #E0DED5",
"ZX c #E6E1CD",
"AX c #E6E2D3",
"SX c #EAE6D3",
"DX c #EEEBDD",
"FX c #E5E3D9",
"GX c #F7E7C9",
"HX c #F0EADB",
"JX c #FCF0CE",
"KX c #EDEBE0",
"LX c #F0EDE0",
"PX c #F2F0E5",
"IX c #F4F2E8",
"UX c gray100",
"YX c None",
/* pixels */
"YXYXYXYXYXYXo M.s.1.h.h.h.h.h.h.h.h.h.h.j.h.h.f.1.x.4XYXYXYXYXYXYX",
"YXYXYXYX6 z.x.:XgXfXfXfXfXfXfXsXfXfXfXfXgXgXsXtXtX=Xl.h.6XYXYXYXYX",
"YXYXYX>Xs.tXfXfXfXZXZXSXZXZXhXrXlXSXZXSXCXCXVXgXtX:X:X$Xj.=XYXYXYX",
"YXYX>Xh.rXfXfXHXIXIXIXIXPXPXGXjX{.jXPXPXIXLXKXFXVXdXtX-X*Xj.@XYXYX",
"YXo s.5XsXZXPXIXPXIXPXPXPXPXPXHXhX'.`.GXIXLXKXCXCXmXwXqX-X*Xf.;XYX",
"YX6 V.8XZXIXPXPXLXPXLXLXDXPXDXPXLXlXJ.H.eXHXHXHXVXMXvXwX<X&X%Xs.o ",
"6 z rXrXxXJXJXDXHXHXPXDXDXDXPXDXLXLXVX`.w.`.HXCXCXmXpX4X2X&X&Xx.;X",
"M.V./.).].}.}. XjXSXHXHXPXDXDXDXLXKXLXHXzXw.G.GXBXmXcX3X,X,X2X*Xf.",
"s.5XN.Q.Q.~.!.!.'.[. XJXHXHXDXDXDXLXHXLXHXkXG.w.MXbXbXwX6X&XwX,Xg.",
"z rXm.v.Y.S.K.J.L.I.I.U. XJXDXDXLXLXLXHXHXHX(.w.9XbXwX0X6X&XwXwXx.",
"z.5Xb.8.X.;.&.>.A.D.H.H.P.U.jXLXDXDXHXHXHXHX9Xr.kXmXwX0X,X&XwXwXx.",
"z.(.m.6.z i ..o.%.&.=.i.w.Z.P.I.xXDXHXHXLXVX*.y.gXvXvX0X,X&XwXuXx.",
"z.(.).+XQ : 4 4 j x O.%.#.$.0.e.P.zXHXHXSXY.#.W.VXbXdX0X,X&XwXuX@X",
"l.).Q.^.d.: = = - K I Q R a o.$.0.e.jXSXlX{ | qXbXVXwX0X,X%XwXuX@X",
"l./.Q.L.D.a.r = = - L L K K I Y p } q.zX-.] n.VXVXvXwXwX,X%XwXiX@X",
"l./.v.Y.D.D.a.u.5 - - & H H H I U U a } ]  .pXCXVXdXwX0X,X%XwXuX#X",
"h./.v.3.>.A.A.S.p.u.* * & % + @ J J U # 7 f.AXVXMXdXaX2X-X%X3XuX@X",
"k./.n.3. .| *.S.F.F.p.u.r $ + + + + D P I vXAXMXnXdXtX2X-X%X4XuX@X",
"h./.v.9.X.] ] #.,.F.F.D.A.i.u.p e w # D F ) AXMXNXpXtX<X%X%XwXwX@X",
"h.V.E.T.t.#.#.{ [ | >.A.A.A.A.=.%.} } [ G D 4XNXdXaX1X>X%X%XwXwX#X",
"h.V.E.W.T.y.y.*.#.[ 9 +.;.y.i.&.-.} 9 X f Z E gXdX0X,X&X%X#XwXwXoX",
"h.V.E.W.R.K.G.w.=.-.{ 9 8 8 8 8 7 . X O k E D gXwXqX>X%X@X@XwXiX$X",
"j.V.E.W.R.K.A.C.y.*.%.u j N W W W N 3 h &XdXZ wXqX6X&X$X@X%XcXcXx.",
"1.=XB.E.T.S.A.>.=...4 V V V V n W W n n 4 5.F 0X,X-X#X@XOX,XcXvXl.",
"2.V.B.N.T.S.>.=.%.4 n n n n n n n n b b m < ) :X;X#X@XOXOXwXnXnX1.",
"$Xd.m.B.v.,.,.%.#.m m m ~ ` ` ` ' ` ! N v v >X&X$X#XOXOX&XnXBXwXh.",
"6 1.M.m.c.p.,.+.#.< v v N ( ( ( ( ' ^ ; M < OX$X@XOXOX%XnXBXBXk.6X",
"YX=X5.n.b.8.:.+.X.q 1 C ; M M M M ; ; : < , XXOX@Xx.%XcXCXCX0Xk.YX",
"YXo M.j.j.4.3.O. .i 0 s 2 1 1 1 1 1 , , g g.OXOX$X3XnXBXFXvXf.o YX",
"YXYXo x.2.k.OX7.7.6.l k d d c / .X/ / XX&X,X3X3XvXBXBXFXcX6.>XYXYX",
"YXYXYXo O.<.@X-X-X,X,X,X,X,X3XuXcXwXcXcXcXcXvXnXnXBXnX*Xh.:XYXYXYX",
"YXYXYX    ;X2.7.#X,XwXwXcXcXcXuXcXcXwXcXiXcXcX3X2XoX1.=Xo YXYXYXYX",
"YXYXYXYXYXYXYXqXM.h.s.x 2.2.1.1.1.1.1.1.1.1.1.z.x.>X6 YXYXYXYXYXYX"
};
