/* XPM */
const char *undo_xpm[] = {
/* columns rows colors chars-per-pixel */
"33 33 257 2",
"   c #3F0E00",
".  c #3F3603",
"X  c #410E00",
"o  c #4B1600",
"O  c #4C1800",
"+  c #491E09",
"@  c #531B00",
"#  c #5B1C00",
"$  c #571600",
"%  c #4D2404",
"&  c #482B18",
"*  c #4F3114",
"=  c #572000",
"-  c #5C2200",
";  c #5B2804",
":  c #5B2C18",
">  c #5A331C",
",  c #573824",
"<  c #641D00",
"1  c #652300",
"2  c #65290A",
"3  c #6A2900",
"4  c #682901",
"5  c #6E3502",
"6  c #6F3A05",
"7  c #603004",
"8  c #752D00",
"9  c #7B2900",
"0  c #743500",
"q  c #7C3401",
"w  c #7F3809",
"e  c #78350B",
"r  c #773A16",
"t  c #763920",
"y  c #77420A",
"u  c #7F401B",
"i  c #68452A",
"p  c #644439",
"a  c #755E54",
"s  c #675A4C",
"d  c #7B6C45",
"f  c #833503",
"g  c #833A00",
"h  c #8C3A04",
"j  c #943D00",
"k  c #863B1A",
"l  c #A23E00",
"z  c #8C4200",
"x  c #894208",
"c  c #864618",
"v  c #944402",
"b  c #96490C",
"n  c #994402",
"m  c #9C4B01",
"M  c #964709",
"N  c #944F1C",
"B  c #9C5402",
"V  c #995C19",
"C  c #975614",
"Z  c #8A4B21",
"A  c #884732",
"S  c #8D5225",
"D  c #8D5728",
"F  c #935B22",
"G  c #9A611C",
"H  c #84693D",
"J  c #9A713F",
"K  c #98662D",
"L  c #A34B00",
"P  c #AA4C02",
"I  c #A44300",
"U  c #AA5401",
"Y  c #AC5A02",
"T  c #A55507",
"R  c #A55915",
"E  c #B15C07",
"W  c #A16419",
"Q  c #AB6A1E",
"!  c #A76417",
"~  c #B36304",
"^  c #B3640A",
"/  c #B86404",
"(  c #B96909",
")  c #B06915",
"_  c #B76815",
"`  c #BC730D",
"'  c #BA7619",
"]  c #AC6B20",
"[  c #A86A31",
"{  c #AC783F",
"}  c #B36C22",
"|  c #B06423",
" . c #BD7B22",
".. c #B97527",
"X. c #8E5E4B",
"o. c #817A54",
"O. c #897954",
"+. c #9D6C4B",
"@. c #9C7049",
"#. c #8B7C6D",
"$. c #997B66",
"%. c #957770",
"&. c #A06D4B",
"*. c #A4794F",
"=. c #A6754A",
"-. c #A47C55",
";. c #C06C06",
":. c #C17305",
">. c #C3740C",
",. c #CC7103",
"<. c #C97B0B",
"1. c #C87B09",
"2. c #C47C12",
"3. c #C3751B",
"4. c #C27C2C",
"5. c #CA7D21",
"6. c #89825D",
"7. c #87815C",
"8. c #8B8462",
"9. c #938D6A",
"0. c #98886A",
"q. c #968B73",
"w. c #96906E",
"e. c #98916E",
"r. c #969175",
"t. c #9B9574",
"y. c #99947D",
"u. c #9E9877",
"i. c #9B967B",
"p. c #AB835F",
"a. c #B2804D",
"s. c #A48C64",
"d. c #AA8A70",
"f. c #AC936E",
"g. c #A49173",
"h. c #A29C7D",
"j. c #A2947A",
"k. c #B78F61",
"l. c #B69C7A",
"z. c #BFA47E",
"x. c #C68115",
"c. c #CA841A",
"v. c #CC8819",
"b. c #D5860D",
"n. c #D88A17",
"m. c #D9931D",
"M. c #C68524",
"N. c #CB8B28",
"B. c #CC8B32",
"V. c #C88633",
"C. c #CD912B",
"Z. c #D88D28",
"A. c #D28D33",
"S. c #D18F38",
"D. c #D19025",
"F. c #D3952C",
"G. c #D89629",
"H. c #D39334",
"J. c #D69C39",
"K. c #D99737",
"L. c #CD9558",
"P. c #D38D45",
"I. c #CDA576",
"U. c #DCA364",
"Y. c #E09D44",
"T. c #E9B043",
"R. c #E8AC66",
"E. c #9F8C83",
"W. c #9C9582",
"Q. c #9C9983",
"!. c #A19C85",
"~. c #A39D8A",
"^. c #A9968B",
"/. c #AB9B92",
"(. c #A4A18D",
"). c #ACA78A",
"_. c #AEA98C",
"`. c #A9A593",
"'. c #ACA996",
"]. c #ACA99A",
"[. c #A6A393",
"{. c #B3A78A",
"}. c #B2AD9A",
"|. c #B4AA94",
" X c #B6B195",
".X c #B4B09C",
"XX c #B8B398",
"oX c #BDB89E",
"OX c #B3ADA1",
"+X c #B5B2A2",
"@X c #B7B4A9",
"#X c #B9B4A4",
"$X c #B9B6A9",
"%X c #BDBBAC",
"&X c #BCB8A5",
"*X c #BDBBB2",
"=X c #C6AE92",
"-X c #C6B29B",
";X c #C2BB9E",
":X c #CEBF9F",
">X c #C2BCA3",
",X c #C1BDAB",
"<X c #C8B9A5",
"1X c #C5B5A2",
"2X c #C1BEB2",
"3X c #C8BEB0",
"4X c #E6BC86",
"5X c #C5C0A3",
"6X c #CAC6AD",
"7X c #C6C2AF",
"8X c #C3C0B5",
"9X c #C5C3B9",
"0X c #CAC4B3",
"qX c #C9C6BC",
"wX c #CBC8B6",
"eX c #CCC9BB",
"rX c #D6C8AA",
"tX c #D3CCB3",
"yX c #D6D1B5",
"uX c #D4D0BB",
"iX c #DAD5BA",
"pX c #DDD8BD",
"aX c #D9D5B7",
"sX c #E0C68F",
"dX c #E7C093",
"fX c #E3CCAC",
"gX c #ECD4A8",
"hX c #EAD9BC",
"jX c #CCCAC2",
"kX c #D0CEC4",
"lX c #D1CFC8",
"zX c #D6D3C3",
"xX c #D4D3CA",
"cX c #D9D5C5",
"vX c #DBD6CB",
"bX c #DCD9C4",
"nX c #DEDBC9",
"mX c #DCDAD3",
"MX c #DBDAD4",
"NX c #E1DBC4",
"BX c #E1DDCC",
"VX c #E0DED3",
"CX c #E0DFDA",
"ZX c #E5E2CD",
"AX c #E9E0C9",
"SX c #E6E3D2",
"DX c #E4E2DA",
"FX c #E9E5D3",
"GX c #EBE8D6",
"HX c #EDEADC",
"JX c #F3E8C7",
"KX c #F0EEDF",
"LX c #EDEBE0",
"PX c #F1EEE2",
"IX c #F2F0E4",
"UX c gray100",
"YX c None",
/* pixels */
"YXYXYXYXYXYX. h.O.o.e.9.9.9.9.9.9.9.9.9.9.9.9.9.o.t.;XYXYXYXYXYXYX",
"YXYXYXYX. u.t.;XiXbXpXpXpXpXpXpXpXpXpXiXiXyX6X6X>X).r.9.oXYXYXYXYX",
"YXYXYX X6.5XpXpXNXNXBXFXFXFXGXFXGXGXFXFXSXBXBXiX6XoXXX).8._.YXYXYX",
"YXYXXX9.iXpXbXGXIXPXPXLXVXvXxXqX2X1X=XI.dXPXHXCXnXkX,X}.'.9._.YXYX",
"YX. 8.aXaXpXVXcX2XOX/.E.$.+.[ Q 3.c.n.m.T.GXHXGXVXxXeX$X].'.8..XYX",
"YX% 5XtX|.^.%.X.Z x h b M m E ^ ( 2.<.K.gXKXKXCXBXzXeX2X+X].[.7.. ",
". d bX6X%.A k k v v j n n L Y E ` >.P.4XKXHXHXFXnXzXeX2X+XOX].r. X",
"h.oXpXGXE.r w h n v m U U U Y ( >.,.U.LXKXHXHXVXBXzXeX*X@XOX@X].8.",
"7.pXpXKX^.r f h j v L P L E ^ ^ ` b.Y.4XJXHXHXGXBXzXeX7X+X].*X@X8.",
"d NXnXPX].e f j n I P P L Y Y ` 1.b.b.n.Y.HXGXFXBXxXwX7X+X'.*X*Xr.",
"w.pXZXKX0X2 q z j j j P U U / :.` >.b.n.<.Z.hXVXBXzXeX%X+X].8X8Xi.",
"w.pXFXIXvX: 8 f j j j L T Y ( :.:.<.n.Z.Z.n.A.fXnXzXeX7X+X'.8X9XQ.",
"w.pXFXIXFXp < 0 q v v z z B Y ( <.1.v.C.G.Z.,.P.rXuXwX7X+X'.8X9X!.",
"w.pXFXIXHXa @ 0 g j q 2 7 y B ~ >.x.v.C.G.K.Z.,.L.tXwX%X+X`.8X9X!.",
"w.aXFXKXKX#.O 8 g h w i & % 6 B ~ ' v.D.H.J.A.5.3.I.wX%XOX].8X9X!.",
"w.aXFXIXHX~.X 9 j P -.tX#., % y Y ^ x.m.F.J.K.A.3.3.wX%X].`.8X9X!.",
"e.aXFXKXGX#XX < P L.GXGXcXW.* ; x ~ ` v.C.F.J.H.M.^ 1X$X}.`.8X9X!.",
"e.aXFXKXHX0X2 j U.AXGXGXGXcXs % 6 Y ` x.N.H.J.S.4._ I.#X}.[.*X9X!.",
"e.aXFXKXHXGX{ R.hXGXGXGXGXGX/.& 4 B ( x.N.C.S.B.4._ k.#X'.(.2X9X!.",
"9.aXBXKXGXGX5XJXFXFXGXFXGXFX{.i = z ~ x.C.H.B.V.4.| -.XX`.(.2X9X!.",
"9.tXAXGXGXFXFXFXFXFXFXFXFXFXl.6 1 z E c.C.S.B.V...| =.'.(.Q.9X9X!.",
"9.tXpXGXFXFXBXFXSXSXSXSXBXNX@.# 4 v ^ 3.N.B.V.4.} R =._.(.Q.9XqX!.",
"w.6XuXGXBXBXBXBXBXBXBXBXBXs.r # 9 m ^ ' M.M.....Q I p.(.Q.[.jXjXQ.",
"d >X6XvXnXcXpXbXbXbXpXtXf.D # - f T ) '  . ...] R M j.Q.Q.OXjXjXi.",
"8.oX5XzXuXuXuXuXuXuX>Xt.y $ @ 4 h T Q ' } } ! ) b N j.W.W.9XxXxXd ",
").(.XX7XwXwX6X0X6X>XO.c $ O 1 9 M R ! Q ] Q ! C h @.y.y.].xXMX*X9.",
". 7. X.X%X%X%X&X Xd 5 o o = 3 h b C C W W W C k D 0.W.[.xXMXMXr.&X",
"YX_.r.'..X.XXX(.X.: + % ; 2 e c C C V G G V c Z 0.W.].lXMXDX%Xr.YX",
"YX. u.!.'.'.].Q.K > > r r u c D F F F F S c S 0.(.*XxXCXLXjX8.. YX",
"YXYX. t.W.'.@X$Xf.$.-.=.+.&.&.&.-.*.a.-.-.d.|.2XjXMXMXCX9X8.XXYXYX",
"YXYXYX. i.9.'.$X#X;X-X-X1X-X-X1X1X<X,X,X2XqXjXxXxXMXxX`.9.oXYXYXYX",
"YXYXYXYX.  X6.q.(.}.,X8X8X0X0X0XqXqXqXqXqXeXjX%X#X(.o.).. YXYXYXYX",
"YXYXYXYXYXYXYX>Xh.w.6.d 7.o.d 7.7.d 7.7.d 7.o.r.i. X. YXYXYXYXYXYX"
};
