/* XPM */
const char *written_pic_xpm[]={
"20 20 29 1",
"# c None",
". c None",
"d c #303030",
"a c #953803",
"g c #a8dcff",
"j c #c56e01",
"t c #d94f00",
"o c #da4f00",
"x c #da5000",
"k c #da5100",
"u c #db5200",
"i c #dc9c25",
"c c #e66c01",
"l c #e76c00",
"p c #e86c00",
"v c #e86d00",
"m c #e96d00",
"h c #ecc16c",
"s c #f28a0b",
"q c #f28b0c",
"A c #f29015",
"n c #f38c0c",
"r c #f48c0a",
"y c #f48c0b",
"e c #ff0000",
"b c #ffc0c0",
"f c #ffc0ff",
"z c #ffffc0",
"w c #ffffff",
"....................",
"..............#...#.",
".............#abcd#.",
".............dceeed.",
"............ddaeeed.",
"...........dfgdacad.",
"..........dhdfgdad#.",
".........dhijdfgd##.",
"........dhijkldd#...",
".......dhijjmnd#....",
"......dhijopqd#.....",
".....dhijkprd.......",
"...#dhijkmsd#.......",
"...dhijtlnd.........",
"..ddijuvrd..........",
"..dwdxmyd...........",
"..dzwdAd#...........",
"..ddddd.............",
"......#.............",
"...................."};
