/* XPM */
static char * close_xpm[] = {
"33 33 832 2",
"  	c None",
". 	c #BF6907",
"+ 	c #A76C1D",
"@ 	c #8B5609",
"# 	c #835106",
"$ 	c #966A25",
"% 	c #966925",
"& 	c #966825",
"* 	c #956825",
"= 	c #946824",
"- 	c #946724",
"; 	c #946624",
"> 	c #936523",
", 	c #926423",
"' 	c #906323",
") 	c #815210",
"! 	c #9E7135",
"~ 	c #C2A479",
"{ 	c #A07330",
"] 	c #99712E",
"^ 	c #C0A469",
"/ 	c #D9C28A",
"( 	c #DDC287",
"_ 	c #DCBF80",
": 	c #DCBB7B",
"< 	c #DCBA79",
"[ 	c #DBBA77",
"} 	c #DBB877",
"| 	c #D9B777",
"1 	c #D8B476",
"2 	c #D6B375",
"3 	c #D2B176",
"4 	c #CFAF77",
"5 	c #C7AD77",
"6 	c #C1AB7B",
"7 	c #A98F61",
"8 	c #936D3B",
"9 	c #8B581E",
"0 	c #BA9F7A",
"a 	c #B7AE8D",
"b 	c #8C6829",
"c 	c #C7AD75",
"d 	c #E0C78A",
"e 	c #DEBD77",
"f 	c #DEB669",
"g 	c #E2B362",
"h 	c #E5B35F",
"i 	c #E7B25C",
"j 	c #E8B15B",
"k 	c #E8B05B",
"l 	c #E7AF5A",
"m 	c #E7AE5A",
"n 	c #E7AC5A",
"o 	c #E6AB5A",
"p 	c #E4A95A",
"q 	c #DFA75A",
"r 	c #DAA45A",
"s 	c #D19F5B",
"t 	c #C69A5B",
"u 	c #BA975F",
"v 	c #B39868",
"w 	c #A7946B",
"x 	c #886332",
"y 	c #AE9772",
"z 	c #B8B396",
"A 	c #967F4C",
"B 	c #D8C591",
"C 	c #DFC07B",
"D 	c #E0B566",
"E 	c #EBB55C",
"F 	c #F4B654",
"G 	c #F5B04A",
"H 	c #F4AD42",
"I 	c #F3AA3F",
"J 	c #F3A83D",
"K 	c #F2A63B",
"L 	c #F2A53B",
"M 	c #F2A43A",
"N 	c #F2A33A",
"O 	c #F0A23A",
"P 	c #F0A13A",
"Q 	c #EFA13B",
"R 	c #EE9F3C",
"S 	c #EC9D3D",
"T 	c #E89B3E",
"U 	c #E19941",
"V 	c #DA9748",
"W 	c #CC944E",
"X 	c #BD8F55",
"Y 	c #B08F5E",
"Z 	c #AA9670",
"` 	c #8D6E42",
" .	c #ADA180",
"..	c #8C7F56",
"+.	c #D7C496",
"@.	c #DFBF79",
"#.	c #E5B560",
"$.	c #F4B653",
"%.	c #F5AD3F",
"&.	c #F4A52F",
"*.	c #F39F27",
"=.	c #F29C22",
"-.	c #F1991E",
";.	c #F1971D",
">.	c #EF951D",
",.	c #EF931C",
"'.	c #EE921C",
").	c #ED901C",
"!.	c #ED8F1C",
"~.	c #EC8F1C",
"{.	c #ED8E1D",
"].	c #E98B1E",
"^.	c #E58A1F",
"/.	c #E18822",
"(.	c #DA8629",
"_.	c #D08531",
":.	c #C5853E",
"<.	c #B8864B",
"[.	c #AC8B5B",
"}.	c #A79573",
"|.	c #876C40",
"1.	c #B4AC8E",
"2.	c #C7B993",
"3.	c #DFC185",
"4.	c #F6B44D",
"5.	c #F5A733",
"6.	c #F39E21",
"7.	c #F69916",
"8.	c #EE910F",
"9.	c #E7890C",
"0.	c #E1850A",
"a.	c #DF8109",
"b.	c #DE7F08",
"c.	c #DE7E08",
"d.	c #DD7D08",
"e.	c #DD7B08",
"f.	c #DC7A08",
"g.	c #DC7908",
"h.	c #DB7908",
"i.	c #DB7708",
"j.	c #D97509",
"k.	c #DA760B",
"l.	c #D8770D",
"m.	c #DA7911",
"n.	c #D17618",
"o.	c #C57725",
"p.	c #BB7B35",
"q.	c #AF8047",
"r.	c #AB8A5E",
"s.	c #A39274",
"t.	c #86693B",
"u.	c #7A6F43",
"v.	c #E0CFA4",
"w.	c #E0B76C",
"x.	c #F4B753",
"y.	c #F5A732",
"z.	c #F39A1A",
"A.	c #F7950E",
"B.	c #D17B06",
"C.	c #5E3203",
"D.	c #391E01",
"E.	c #282522",
"F.	c #1F252C",
"G.	c #1D252C",
"H.	c #1F282C",
"I.	c #332111",
"J.	c #391803",
"K.	c #844205",
"L.	c #D16F0A",
"M.	c #C56D12",
"N.	c #BA6F21",
"O.	c #B07435",
"P.	c #AD8252",
"Q.	c #AC9372",
"R.	c #91734C",
"S.	c #B0926C",
"T.	c #A29167",
"U.	c #C3B792",
"V.	c #DFC189",
"W.	c #ECB75E",
"X.	c #F6AC3E",
"Y.	c #F49D20",
"Z.	c #F4940E",
"`.	c #DD8205",
" +	c #36220A",
".+	c #6E767E",
"++	c #B0B2B5",
"@+	c #CFCFCF",
"#+	c #D7D7D7",
"$+	c #BDBFBE",
"%+	c #A3A5A8",
"&+	c #232D37",
"*+	c #884004",
"=+	c #C66608",
"-+	c #BA6513",
";+	c #AF6A26",
">+	c #AC7945",
",+	c #B39673",
"'+	c #A79577",
")+	c #844E14",
"!+	c #86703B",
"~+	c #DCCB9F",
"{+	c #DFB66E",
"]+	c #F5B654",
"^+	c #F5A52F",
"/+	c #F39615",
"(+	c #F99206",
"_+	c #824A02",
":+	c #616161",
"<+	c #5C5C5C",
"[+	c #595959",
"}+	c #A1A2A3",
"|+	c #1F100B",
"1+	c #C05E04",
"2+	c #B9600C",
"3+	c #AE631D",
"4+	c #A76C33",
"5+	c #B99977",
"6+	c #B6A48A",
"7+	c #855722",
"8+	c #826427",
"9+	c #DEC58E",
"0+	c #E3B263",
"a+	c #F6AF49",
"b+	c #F49E26",
"c+	c #F3910F",
"d+	c #FF9103",
"e+	c #331D00",
"f+	c #5A5A5A",
"g+	c #7C3E3A",
"h+	c #932A24",
"i+	c #9B231A",
"j+	c #A7190F",
"k+	c #DCDBDA",
"l+	c #27292B",
"m+	c #9A4802",
"n+	c #BA5C09",
"o+	c #AE5E16",
"p+	c #A6652A",
"q+	c #BC9A79",
"r+	c #BCA88F",
"s+	c #8F6637",
"t+	c #997838",
"u+	c #DFBF81",
"v+	c #E8B25F",
"w+	c #F6AA41",
"x+	c #F49A21",
"y+	c #F28E0C",
"z+	c #FF8E01",
"A+	c #321D00",
"B+	c #E78377",
"C+	c #F49889",
"D+	c #F49587",
"E+	c #F49384",
"F+	c #F39181",
"G+	c #F3907E",
"H+	c #F38E7B",
"I+	c #F38D79",
"J+	c #F38A76",
"K+	c #F38973",
"L+	c #F28771",
"M+	c #E3735F",
"N+	c #E2E2E0",
"O+	c #2C2E2F",
"P+	c #974400",
"Q+	c #BA5806",
"R+	c #AC5913",
"S+	c #A56125",
"T+	c #BE9B7B",
"U+	c #BFAB92",
"V+	c #967247",
"W+	c #99732D",
"X+	c #DEBB7B",
"Y+	c #EAB15C",
"Z+	c #F5A73E",
"`+	c #F4971E",
" @	c #F28B09",
".@	c #FF8C00",
"+@	c #301B00",
"@@	c #5B5B5B",
"#@	c #9C231A",
"$@	c #F5A08F",
"%@	c #F28D77",
"&@	c #EE7B5D",
"*@	c #ED7A5C",
"=@	c #EC795B",
"-@	c #EA7759",
";@	c #E87658",
">@	c #E77456",
",@	c #E67354",
"'@	c #E47153",
")@	c #EA7F64",
"!@	c #F28D74",
"~@	c #A9382C",
"{@	c #E1E1DF",
"]@	c #2A2C2C",
"^@	c #964200",
"/@	c #BA5605",
"(@	c #AC5711",
"_@	c #A45E23",
":@	c #BF9A7A",
"<@	c #C1AC93",
"[@	c #9B7B53",
"}@	c #9A7129",
"|@	c #DEBA77",
"1@	c #EBB05C",
"2@	c #F5A43B",
"3@	c #F3941D",
"4@	c #F28708",
"5@	c #FF8A00",
"6@	c #2E1900",
"7@	c #606060",
"8@	c #F5A492",
"9@	c #EF8666",
"0@	c #EE8362",
"a@	c #F8D7CD",
"b@	c #EE9278",
"c@	c #E87752",
"d@	c #E67551",
"e@	c #E98F75",
"f@	c #F6D5CB",
"g@	c #E37A5C",
"h@	c #E17554",
"i@	c #F29478",
"j@	c #BA3C2D",
"k@	c #292A2B",
"l@	c #943F00",
"m@	c #BA5304",
"n@	c #AB5510",
"o@	c #A45C21",
"p@	c #BE9A7A",
"q@	c #C2AC94",
"r@	c #9C7C55",
"s@	c #9A7028",
"t@	c #DDB977",
"u@	c #EBAD5A",
"v@	c #F5A23A",
"w@	c #F3921C",
"x@	c #F18608",
"y@	c #FF8800",
"z@	c #2B1800",
"A@	c #676767",
"B@	c #F4A491",
"C@	c #EE8566",
"D@	c #F9D7CE",
"E@	c #FFFFFF",
"F@	c #FDF7F5",
"G@	c #EC9277",
"H@	c #EA9177",
"I@	c #F5D5CC",
"J@	c #DE714F",
"K@	c #F29376",
"L@	c #BA3B2B",
"M@	c #E0E0DE",
"N@	c #262828",
"O@	c #933D00",
"P@	c #B95104",
"Q@	c #AB520F",
"R@	c #A45920",
"S@	c #BE987A",
"T@	c #C3AC95",
"U@	c #9D7C56",
"V@	c #DDB776",
"W@	c #ECAD5A",
"X@	c #F4A03A",
"Y@	c #F38F1B",
"Z@	c #F08308",
"`@	c #FF8500",
" #	c #291600",
".#	c #6D6D6D",
"+#	c #F4A38E",
"@#	c #ED8464",
"##	c #EE9479",
"$#	c #E68E75",
"%#	c #F29174",
"&#	c #242626",
"*#	c #913B00",
"=#	c #B84E04",
"-#	c #AA500F",
";#	c #A25720",
">#	c #BF987A",
",#	c #C2AC95",
"'#	c #DDB676",
")#	c #ECAB5A",
"!#	c #F49E3A",
"~#	c #F38D1B",
"{#	c #F08008",
"]#	c #FF8300",
"^#	c #271500",
"/#	c #747474",
"(#	c #F39786",
"_#	c #E76650",
":#	c #E35940",
"<#	c #E77867",
"[#	c #FDF4F3",
"}#	c #DF7363",
"|#	c #D7503B",
"1#	c #D54F39",
"2#	c #EF8369",
"3#	c #BA392A",
"4#	c #E0DFDD",
"5#	c #222424",
"6#	c #8F3800",
"7#	c #B74D04",
"8#	c #A84E0F",
"9#	c #A15620",
"0#	c #BD977A",
"a#	c #C2AB95",
"b#	c #DCB576",
"c#	c #EBAA5A",
"d#	c #F49D3A",
"e#	c #F28B1B",
"f#	c #F07E08",
"g#	c #FF8100",
"h#	c #241300",
"i#	c #7A7A7A",
"j#	c #F0877A",
"k#	c #E35B49",
"l#	c #DE4C38",
"m#	c #E47163",
"n#	c #DD6D60",
"o#	c #D34333",
"p#	c #D14231",
"q#	c #EC715C",
"r#	c #B93527",
"s#	c #DEDDDB",
"t#	c #1F2121",
"u#	c #8D3600",
"v#	c #B54A04",
"w#	c #A84C0F",
"x#	c #A0531F",
"y#	c #BD967A",
"z#	c #C2AA95",
"A#	c #997028",
"B#	c #DBB475",
"C#	c #EAA95A",
"D#	c #F39B3A",
"E#	c #F1881B",
"F#	c #EF7B08",
"G#	c #FF7E00",
"H#	c #221100",
"I#	c #818181",
"J#	c #EF8176",
"K#	c #E15948",
"L#	c #E37062",
"M#	c #FCF4F3",
"N#	c #DB6B5F",
"O#	c #D04131",
"P#	c #EB6A56",
"Q#	c #B82F22",
"R#	c #DBDBD9",
"S#	c #1D1F1F",
"T#	c #8A3300",
"U#	c #B24704",
"V#	c #A5490F",
"W#	c #9E521F",
"X#	c #BD9579",
"Y#	c #C1A994",
"Z#	c #997027",
"`#	c #DBB375",
" $	c #E9A65A",
".$	c #F3993A",
"+$	c #F1871B",
"@$	c #EF7908",
"#$	c #FF7C00",
"$$	c #211100",
"%$	c #898989",
"&$	c #EF7F73",
"*$	c #DF5746",
"=$	c #F3CAC5",
"-$	c #DE6E60",
";$	c #F0C8C4",
">$	c #CF4030",
",$	c #EB6852",
"'$	c #B82E20",
")$	c #DAD9D7",
"!$	c #1C1E1E",
"~$	c #863100",
"{$	c #AF4504",
"]$	c #A3460E",
"^$	c #9C4F1F",
"/$	c #BC957B",
"($	c #C1A995",
"_$	c #996F27",
":$	c #D9B174",
"<$	c #E8A559",
"[$	c #F1963A",
"}$	c #F0841C",
"|$	c #EE7708",
"1$	c #FF7900",
"2$	c #201000",
"3$	c #909090",
"4$	c #EF7D70",
"5$	c #DD5443",
"6$	c #DA5443",
"7$	c #D54634",
"8$	c #D44533",
"9$	c #D24E40",
"0$	c #D14534",
"a$	c #EA664F",
"b$	c #B82D20",
"c$	c #D5D5D2",
"d$	c #1B1C1D",
"e$	c #822E00",
"f$	c #AC4204",
"g$	c #9F450F",
"h$	c #9A4E1F",
"i$	c #BD977D",
"j$	c #C1AA96",
"k$	c #9D7D56",
"l$	c #986E26",
"m$	c #D6AE74",
"n$	c #E6A25A",
"o$	c #F0943B",
"p$	c #EF821D",
"q$	c #EE7408",
"r$	c #FF7600",
"s$	c #1D0F00",
"t$	c #969696",
"u$	c #A42E26",
"v$	c #EE7B6D",
"w$	c #E56657",
"x$	c #DA4F3E",
"y$	c #D54534",
"z$	c #D24231",
"A$	c #D14131",
"B$	c #D34736",
"C$	c #DF5743",
"D$	c #EA634C",
"E$	c #AE3A30",
"F$	c #D3D3CF",
"G$	c #1A1B1B",
"H$	c #7B2B00",
"I$	c #A73F04",
"J$	c #9C430F",
"K$	c #974C1F",
"L$	c #BD9982",
"M$	c #C2AB99",
"N$	c #9D7D57",
"O$	c #976E29",
"P$	c #D2AD75",
"Q$	c #E19F5A",
"R$	c #EC923D",
"S$	c #EB801D",
"T$	c #EA710A",
"U$	c #FC7300",
"V$	c #1F0F00",
"W$	c #9D9D9D",
"X$	c #A4423D",
"Y$	c #E1695B",
"Z$	c #EE7768",
"`$	c #EE7565",
" %	c #ED7362",
".%	c #ED715F",
"+%	c #EC6E5C",
"@%	c #EC6C59",
"#%	c #DD543F",
"$%	c #C2C1BD",
"%%	c #0E1214",
"&%	c #802D00",
"*%	c #A23B04",
"=%	c #994110",
"-%	c #975026",
";%	c #C1A08C",
">%	c #C4AF9E",
",%	c #9E7E58",
"'%	c #957232",
")%	c #CDAB76",
"!%	c #DA9B5C",
"~%	c #E78F40",
"{%	c #E77D21",
"]%	c #E56E0D",
"^%	c #EE6B02",
"/%	c #682E00",
"(%	c #9B9B9B",
"_%	c #A46F6B",
":%	c #A5453F",
"<%	c #A63028",
"[%	c #5F6160",
"}%	c #140602",
"|%	c #9C3601",
"1%	c #9A3905",
"2%	c #943F11",
"3%	c #9E5E3A",
"4%	c #C6AA97",
"5%	c #C8B6A7",
"6%	c #99764D",
"7%	c #82672D",
"8%	c #C6AA7B",
"9%	c #CE985C",
"0%	c #E08E45",
"a%	c #E07B26",
"b%	c #DE6B0F",
"c%	c #DE6404",
"d%	c #D55C00",
"e%	c #767676",
"f%	c #A0A0A0",
"g%	c #A6A6A6",
"h%	c #050505",
"i%	c #722700",
"j%	c #9F3702",
"k%	c #953908",
"l%	c #914015",
"m%	c #AB795C",
"n%	c #CAB2A2",
"o%	c #CDBEB1",
"p%	c #91683B",
"q%	c #8B7D51",
"r%	c #BAA77E",
"s%	c #C4955F",
"t%	c #D78D4D",
"u%	c #D87A2D",
"v%	c #D66A16",
"w%	c #D66007",
"x%	c #DA5E03",
"y%	c #CD5600",
"z%	c #522300",
"A%	c #150900",
"B%	c #130800",
"C%	c #120700",
"D%	c #110700",
"E%	c #160900",
"F%	c #742900",
"G%	c #A83801",
"H%	c #973504",
"I%	c #91390C",
"J%	c #91471E",
"K%	c #C29F8C",
"L%	c #D0BCAF",
"M%	c #D2C7BC",
"N%	c #7A4002",
"O%	c #ACA586",
"P%	c #A49B7B",
"Q%	c #B9996C",
"R%	c #C88C54",
"S%	c #CF7C39",
"T%	c #CE6A1E",
"U%	c #CD5E0E",
"V%	c #CC5806",
"W%	c #CC5503",
"X%	c #D65601",
"Y%	c #BB4B00",
"Z%	c #AF4600",
"`%	c #B14500",
" &	c #AF4400",
".&	c #AF4300",
"+&	c #AD4200",
"@&	c #AC4000",
"#&	c #A93F00",
"$&	c #A83D00",
"%&	c #A53C00",
"&&	c #A23900",
"*&	c #9B3600",
"=&	c #953300",
"-&	c #9F3600",
";&	c #A53601",
">&	c #953303",
",&	c #913509",
"'&	c #8E3C13",
")&	c #A97458",
"!&	c #D3BDAF",
"~&	c #D7C9BF",
"{&	c #C0AF9A",
"]&	c #8B4405",
"^&	c #847D57",
"/&	c #B3A486",
"(&	c #B3885C",
"_&	c #C07F47",
":&	c #C26E2E",
"<&	c #C1601A",
"[&	c #C1570E",
"}&	c #C15207",
"|&	c #BF4E04",
"1&	c #C24D02",
"2&	c #C24C01",
"3&	c #C24A00",
"4&	c #C14700",
"5&	c #C04700",
"6&	c #BD4600",
"7&	c #BD4400",
"8&	c #BA4200",
"9&	c #B84000",
"0&	c #B43F00",
"a&	c #B13C00",
"b&	c #AA3A01",
"c&	c #A53701",
"d&	c #9E3603",
"e&	c #963505",
"f&	c #8E3A11",
"g&	c #9E6140",
"h&	c #CEB4A6",
"i&	c #DBCDC3",
"j&	c #DBD2C9",
"k&	c #936C3F",
"l&	c #B6723B",
"m&	c #B0AA8D",
"n&	c #9B9072",
"o&	c #A78D6C",
"p&	c #A97D56",
"q&	c #B47340",
"r&	c #B5662B",
"s&	c #B55B1D",
"t&	c #B55514",
"u&	c #B24F0F",
"v&	c #B34C0B",
"w&	c #B24A0A",
"x&	c #B14809",
"y&	c #AF4608",
"z&	c #AF4508",
"A&	c #AD4408",
"B&	c #AC4208",
"C&	c #A94108",
"D&	c #A83F08",
"E&	c #A53E08",
"F&	c #A23C08",
"G&	c #9C3A09",
"H&	c #9A3A0A",
"I&	c #943A0C",
"J&	c #913A0F",
"K&	c #8E3D15",
"L&	c #A3694B",
"M&	c #CCB1A2",
"N&	c #DFD1C8",
"O&	c #E0D6CE",
"P&	c #BEAC97",
"Q&	c #936B39",
"R&	c #9C9676",
"S&	c #A09275",
"T&	c #A58D6F",
"U&	c #A7815C",
"V&	c #AC7447",
"W&	c #AB6633",
"X&	c #AC5D27",
"Y&	c #AA5620",
"Z&	c #A9521C",
"`&	c #A95019",
" *	c #A84D18",
".*	c #A64D17",
"+*	c #A64B17",
"@*	c #A54B17",
"#*	c #A44917",
"$*	c #A14816",
"%*	c #A04716",
"&*	c #9C4616",
"**	c #9B4417",
"=*	c #964217",
"-*	c #944218",
";*	c #91451C",
">*	c #9C5938",
",*	c #B88E77",
"'*	c #D4BDB0",
")*	c #DFD1C9",
"!*	c #E1D9D1",
"~*	c #CCC2B3",
"{*	c #8A6F41",
"]*	c #9C9782",
"^*	c #ABA899",
"/*	c #B6A994",
"(*	c #B99B7C",
"_*	c #B98F6D",
":*	c #B58361",
"<*	c #B27B55",
"[*	c #B1764F",
"}*	c #AE724B",
"|*	c #AD6F4A",
"1*	c #AC6F4A",
"2*	c #AC6F49",
"3*	c #AC6D49",
"4*	c #AA6B48",
"5*	c #A96C4A",
"6*	c #A86D4B",
"7*	c #AB7253",
"8*	c #AE7A5F",
"9*	c #B4866E",
"0*	c #C09D89",
"a*	c #D7C5BA",
"b*	c #DDD1C8",
"c*	c #DFD8D0",
"d*	c #C6BEAE",
"e*	c #8B7E57",
"f*	c #B8B398",
"g*	c #A19C7C",
"h*	c #918B6F",
"i*	c #AAA898",
"j*	c #B9B5A7",
"k*	c #C1B39F",
"l*	c #C6AF99",
"m*	c #C9AD97",
"n*	c #CAAF98",
"o*	c #CBAF99",
"p*	c #CBB09B",
"q*	c #CCB19C",
"r*	c #CCB09C",
"s*	c #CCB09B",
"t*	c #CAB09C",
"u*	c #CCB19F",
"v*	c #CCB4A3",
"w*	c #CEB8A8",
"x*	c #D1BEAF",
"y*	c #D6C7BB",
"z*	c #DBD2C8",
"A*	c #D6D1C7",
"B*	c #AAA28A",
"C*	c #918967",
"D*	c #BDB89E",
"E*	c #B6B195",
"F*	c #8A835F",
"G*	c #928D71",
"H*	c #A5A08C",
"I*	c #B2AC98",
"J*	c #C0B5A2",
"K*	c #C8BBA9",
"L*	c #CABBA9",
"M*	c #CBBCAA",
"N*	c #CCBCAB",
"O*	c #CBBCAB",
"P*	c #CCBEAD",
"Q*	c #CDC0B0",
"R*	c #CDC1B1",
"S*	c #C1B198",
"T*	c #B9AC93",
"U*	c #A2987B",
"V*	c #847C55",
"W*	c #AFA98C",
"X*	c #C2BDA4",
"Y*	c #A39D7D",
"Z*	c #96906E",
"`*	c #89825D",
" =	c #817A54",
".=	c #827B56",
"+=	c #9E9877",
"@=	c #B7B296",
"            . + @ # $ $ % % % % & * = - ; > , ' ) ! ~             ",
"          { ] ^ / ( _ : < [ [ [ } | | 1 2 3 4 5 6 7 8 9 0         ",
"      a b c d e f g h i j k l l m n n o p q r s t u v w x y       ",
"    z A B C D E F G H I J K L M N O P Q R S T U V W X Y Z `  .    ",
"    ..+.@.#.$.%.&.*.=.-.;.>.,.'.'.).!.~.{.].^./.(._.:.<.[.}.|.1.  ",
"    2.3.#.4.5.6.7.8.9.0.a.b.c.d.e.f.g.h.i.j.k.l.m.n.o.p.q.r.s.t.  ",
"  u.v.w.x.y.z.A.B.C.D.E.F.G.G.G.G.G.G.G.G.H.I.J.K.L.M.N.O.P.Q.R.S.",
"T.U.V.W.X.Y.Z.`. +.+++@+#+#+#+#+#+#+#+#+#+#+$+%+&+*+=+-+;+>+,+'+)+",
"!+~+{+]+^+/+(+_+:+<+[+[+[+[+[+[+[+[+[+[+[+[+<+:+}+|+1+2+3+4+5+6+7+",
"8+9+0+a+b+c+d+e+f+g+h+i+j+j+j+j+j+j+j+j+i+h+g+f+k+l+m+n+o+p+q+r+s+",
"t+u+v+w+x+y+z+A+f+h+B+C+D+E+F+G+H+I+J+K+L+M+h+f+N+O+P+Q+R+S+T+U+V+",
"W+X+Y+Z+`+ @.@+@@@#@$@%@&@*@=@-@;@>@,@'@)@!@~@@@{@]@^@/@(@_@:@<@[@",
"}@|@1@2@3@4@5@6@7@j+8@9@0@a@b@c@d@e@f@g@h@i@j@7@{@k@l@m@n@o@p@q@r@",
"s@t@u@v@w@x@y@z@A@j+B@C@D@E@F@G@H@F@E@I@J@K@L@A@M@N@O@P@Q@R@S@T@U@",
"s@V@W@X@Y@Z@`@ #.#j++#@###F@E@F@F@E@F@$#J@%#L@.#M@&#*#=#-#;#>#,#U@",
"s@'#)#!#~#{#]#^#/#j+(#_#:#<#[#E@E@[#}#|#1#2#3#/#4#5#6#7#8#9#0#a#U@",
"s@b#c#d#e#f#g#h#i#j+j#k#l#m#[#E@E@[#n#o#p#q#r#i#s#t#u#v#w#x#y#z#U@",
"A#B#C#D#E#F#G#H#I#j+J#K#L#[#E@[#[#E@M#N#O#P#Q#I#R#S#T#U#V#W#X#Y#U@",
"Z#`# $.$+$@$#$$$%$j+&$*$=$E@[#-$n#M#E@;$>$,$'$%$)$!$~${$]$^$/$($U@",
"_$:$<$[$}$|$1$2$3$j+4$5$6$=$n#7$8$N#;$9$0$a$b$3$c$d$e$f$g$h$i$j$k$",
"l$m$n$o$p$q$r$s$t$u$v$w$x$y$8$o#z$A$>$B$C$D$E$t$F$G$H$I$J$K$L$M$N$",
"O$P$Q$R$S$T$U$V$W$X$Y$Z$`$ %.%+%@%P#,$a$D$#%X$W$$%%%&%*%=%-%;%>%,%",
"'%)%!%~%{%]%^%/%(%_%:%<%j+j+j+j+j+j+j+j+<%:%_%(%[%}%|%1%2%3%4%5%6%",
"7%8%9%0%a%b%c%d%e%f%g%g%g%g%g%g%g%g%g%g%g%g%f%e%h%i%j%k%l%m%n%o%p%",
"q%r%s%t%u%v%w%x%y%z%A%B%B%B%B%B%B%B%B%B%C%C%D%E%F%G%H%I%J%K%L%M%N%",
"O%P%Q%R%S%T%U%V%W%X%Y%Z%`% &.&+&@&#&$&%&&&*&=&-&;&>&,&'&)&!&~&{&]&",
"  ^&/&(&_&:&<&[&}&|&1&2&3&4&5&6&7&8&9&0&a&b&c&d&e&,&f&g&h&i&j&k&l&",
"  m&n&o&p&q&r&s&t&u&v&w&x&y&z&A&B&C&D&E&F&G&H&I&J&K&L&M&N&O&P&Q&  ",
"    R&S&T&U&V&W&X&Y&Z&`& *.*+*@*#*$*%*&***=*-*;*>*,*'*)*!*~*{*    ",
"      R&]*^*/*(*_*:*<*[*}*|*1*2*3*4*5*6*7*8*9*0*h&a*b*c*d*e*f*    ",
"        g*h*i*j*k*l*m*n*o*p*q*q*r*s*r*t*u*v*w*x*y*z*A*B*C*D*      ",
"          E*F*G*H*I*J*K*L*M*N*N*N*M*M*O*P*Q*R*S*T*U*V*W*          ",
"              X*Y*Z*`* = = = = = = = = = = =.=Z*+=@=              "};
