/* XPM */
static char *spin[]={
"16 16 3 1",
". c None",
"# c #000000",
"a c #303030",
"................",
"................",
"................",
"......###.......",
".....#...#......",
"....#..a..#.....",
"...#...a...#....",
"...#.aaaaa.#....",
"...#...a...#....",
"....#..a..#.....",
".....#...#......",
"......###.......",
"................",
"................",
"................",
"................"};
