/* XPM */
const char *cdropper_xpm[]={
"16 15 5 1",
"a c None",
". c None",
"b c #000000",
"c c #303030",
"# c #ffffff",
".........#####a.",
".......##bbbbb#a",
"......#bbbbb#bb#",
"......#bbbb###b#",
"......#bbbbb##c#",
"......#bbbb###b#",
".....#b#bbbb##b#",
"....#b###bbbbbb#",
"...#b####bbbb##.",
"..#b####b#####..",
".#bbbbbb#...aa..",
"#bbbbbb#........",
"#bbbbb#.........",
"#bbbb#..........",
"#####..........."};
