/* XPM */
const char *cnodes_xpm[]={
"16 22 4 1",
". c None",
"a c #000000",
"b c #303030",
"# c #ffffff",
"................",
".#..............",
"#a#.............",
"#aa#............",
"#aaa#...........",
"#aaaa#..........",
"#aaaaa#.........",
"#aaaaaa#........",
"#aaaaaaa#.......",
"#aaaaaaaa#......",
"#aaaaaaaaa#.....",
"#aaaaaaaaaa#....",
"#aaaaaaaaaaa#...",
"#aaaaaaaaaaaa#..",
"#aaaaa#######...",
"#aaab#..........",
"#aab#...........",
"#ab#............",
"#a#.............",
".#..............",
"................",
"................"};
