/* XPM */
const char *cpencil_xpm[]={
"16 17 3 1",
". c None",
"a c #000000",
"# c #ffffff",
"..........###...",
"........##aaa##.",
".......#aaaaaaa#",
"......#aaaaaaaa#",
".....#aaaaaaaaa#",
"....#aaaaaaaaaa#",
"...#aaaaaaaaaa#.",
"...#aaaaaaaaa#..",
"..#a###aaaaa#...",
"..#a####aaaa#...",
".#a######aa#....",
".#a#####aa#.....",
".#a####a##......",
"#aaaaaa#........",
"#aaaa##.........",
"#aa##...........",
"###............."};
