<?xml version="1.0" encoding="UTF-8" standalone="no"?>
<!-- Created with Inkscape (http://www.inkscape.org/) -->
<svg
   xmlns:dc="http://purl.org/dc/elements/1.1/"
   xmlns:cc="http://creativecommons.org/ns#"
   xmlns:rdf="http://www.w3.org/1999/02/22-rdf-syntax-ns#"
   xmlns:svg="http://www.w3.org/2000/svg"
   xmlns="http://www.w3.org/2000/svg"
   xmlns:sodipodi="http://sodipodi.sourceforge.net/DTD/sodipodi-0.dtd"
   xmlns:inkscape="http://www.inkscape.org/namespaces/inkscape"
   width="1052.3622"
   height="744.09448"
   id="svg2"
   sodipodi:version="0.32"
   inkscape:version="0.46"
   sodipodi:docname="splash.svg"
   inkscape:output_extension="org.inkscape.output.svg.inkscape"
   inkscape:export-filename="/home/xtingray/tmp/lizardo.png"
   inkscape:export-xdpi="3.1629133"
   inkscape:export-ydpi="3.1629133"
   version="1.0">
  <defs
     id="defs4">
    <inkscape:perspective
       sodipodi:type="inkscape:persp3d"
       inkscape:vp_x="0 : 526.18109 : 1"
       inkscape:vp_y="0 : 1000 : 0"
       inkscape:vp_z="744.09448 : 526.18109 : 1"
       inkscape:persp3d-origin="372.04724 : 350.78739 : 1"
       id="perspective10" />
    <inkscape:perspective
       id="perspective2447"
       inkscape:persp3d-origin="372.04724 : 350.78739 : 1"
       inkscape:vp_z="744.09448 : 526.18109 : 1"
       inkscape:vp_y="0 : 1000 : 0"
       inkscape:vp_x="0 : 526.18109 : 1"
       sodipodi:type="inkscape:persp3d" />
    <inkscape:perspective
       id="perspective2558"
       inkscape:persp3d-origin="372.04724 : 350.78739 : 1"
       inkscape:vp_z="744.09448 : 526.18109 : 1"
       inkscape:vp_y="0 : 1000 : 0"
       inkscape:vp_x="0 : 526.18109 : 1"
       sodipodi:type="inkscape:persp3d" />
    <filter
       inkscape:collect="always"
       id="filter3990">
      <feGaussianBlur
         inkscape:collect="always"
         stdDeviation="0.31721997"
         id="feGaussianBlur3992" />
    </filter>
  </defs>
  <sodipodi:namedview
     id="base"
     pagecolor="#ffffff"
     bordercolor="#666666"
     borderopacity="1.0"
     gridtolerance="10000"
     guidetolerance="10"
     objecttolerance="10"
     inkscape:pageopacity="0.0"
     inkscape:pageshadow="2"
     inkscape:zoom="0.24748738"
     inkscape:cx="486.09174"
     inkscape:cy="333.44687"
     inkscape:document-units="px"
     inkscape:current-layer="layer1"
     showgrid="false"
     inkscape:window-width="1440"
     inkscape:window-height="825"
     inkscape:window-x="0"
     inkscape:window-y="25"
     showguides="true"
     inkscape:guide-bbox="true" />
  <metadata
     id="metadata7">
    <rdf:RDF>
      <cc:Work
         rdf:about="">
        <dc:format>image/svg+xml</dc:format>
        <dc:type
           rdf:resource="http://purl.org/dc/dcmitype/StillImage" />
      </cc:Work>
    </rdf:RDF>
  </metadata>
  <g
     inkscape:label="Layer 1"
     inkscape:groupmode="layer"
     id="layer1">
    <g
       id="g4087"
       transform="matrix(1.9786302,0,0,1.9820938,3005.9445,-368.21009)"
       inkscape:export-filename="/home/xtingray/ktoon/sources/ktoon/src/themes/default/images/splash5.png"
       inkscape:export-xdpi="487.43658"
       inkscape:export-ydpi="487.43658">
      <rect
         y="239.24655"
         x="-1433.5094"
         height="286.54141"
         width="367.30286"
         id="rect3500"
         style="fill:#ffffff;fill-opacity:1;stroke:#bebebe;stroke-width:1.97425592;stroke-linecap:round;stroke-linejoin:round;stroke-miterlimit:4;stroke-dasharray:none;stroke-opacity:1" />
      <path
         sodipodi:nodetypes="ccccc"
         id="rect3700"
         d="M -1432.7151,240.21934 L -1067.0009,240.21934 L -1067.0009,423.79076 C -1083.2487,357.86948 -1268.5789,322.75446 -1432.7151,423.79076 L -1432.7151,240.21934 z"
         style="fill:#00c1ff;fill-opacity:1;stroke:none;stroke-width:2;stroke-linecap:round;stroke-linejoin:round;stroke-miterlimit:4;stroke-opacity:1" />
    </g>
    <path
       style="fill:#000000;fill-rule:evenodd;stroke:none;stroke-width:1px;stroke-linecap:butt;stroke-linejoin:miter;stroke-opacity:1;fill-opacity:0.15686275"
       d="M 894.99515,202.65272 L 894.99515,368.31774 L 661.64991,467.31269 L 555.5839,481.45482 L 605.08137,431.95735 L 584.87832,427.91674 L 489.92398,470.34314 L 383.85796,482.46498 L 894.99515,202.65272 z"
       id="path4288"
       sodipodi:nodetypes="ccccccccc" />
    <text
       xml:space="preserve"
       style="font-size:17.53542519px;font-style:normal;font-variant:normal;font-weight:normal;font-stretch:normal;text-align:start;line-height:125%;writing-mode:lr-tb;text-anchor:start;fill:#000000;fill-opacity:1;stroke:none;stroke-width:1px;stroke-linecap:butt;stroke-linejoin:miter;stroke-opacity:1;font-family:'A.C.M.E. Secret Agent';-inkscape-font-specification:'A.C.M.E. Secret Agent'"
       x="-1165.5925"
       y="500.68698"
       id="text3811"
       sodipodi:linespacing="125%"><tspan
         sodipodi:role="line"
         id="tspan3813"
         x="-1165.5925"
         y="500.68698" /></text>
    <g
       id="g3502"
       transform="matrix(1.9786302,0,0,1.9786302,2288.6646,-416.73151)">
      <path
         sodipodi:nodetypes="ccccccccccccccccccccccccccccccccccscccccccccccccccccccccccccccccccccsccccccccc"
         id="path3371"
         d="M -839.51271,355.32647 C -837.64334,355.72588 -837.23708,358.30443 -836.61901,361.49347 C -833.88576,360.47731 -829.23479,358.0598 -826.52816,353.56312 C -826.05924,353.91485 -825.29694,354.67377 -825.3683,354.29186 C -824.88022,348.5021 -824.38665,341.82014 -822.04656,338.63413 C -821.3226,343.15585 -820.49257,348.06557 -818.9586,349.9194 C -815.4362,347.16817 -802.98734,338.74075 -798.70484,339.12844 C -799.76801,341.75385 -806.26254,349.71344 -808.67715,351.14304 C -805.30134,349.40246 -796.17288,346.40553 -791.97566,345.94746 C -793.27802,348.2636 -799.88438,354.8922 -802.90831,357.65631 C -797.79827,357.48701 -792.64195,357.22458 -789.48702,357.98833 C -790.3081,359.62238 -806.13135,367.75641 -813.04909,369.931 C -812.75638,371.11104 -812.6334,371.80166 -812.64159,372.34823 C -820.04191,375.72622 -828.50247,378.21429 -831.45816,378.87043 C -830.07798,383.23207 -827.56231,390.68925 -825.34894,398.72908 C -822.31533,402.25171 -796.70028,416.95325 -794.32388,420.0646 C -800.18188,423.37138 -813.90627,425.19856 -823.7144,426.11921 C -822.39168,430.72592 -820.96267,443.63121 -821.71667,446.90279 C -828.07308,454.19187 -866.57604,456.23837 -875.77394,454.81188 C -868.93478,449.40721 -852.30854,432.94614 -851.34207,428.33235 C -860.32106,428.69128 -907.83438,428.71429 -910.55042,428.80348 C -909.23139,433.76001 -908.47221,445.49387 -909.67047,448.71302 C -912.36053,454.29422 -947.96327,457.9496 -964.04643,455.82442 C -959.4697,453.39432 -941.5497,435.4121 -937.75292,426.96811 C -939.25161,426.94137 -940.83182,426.93811 -941.01266,426.17415 C -939.71412,421.97558 -935.08533,400.94693 -932.10984,386.08361 C -935.27509,386.88438 -954.36741,387.93024 -956.4934,387.96006 C -956.60186,387.45273 -956.64345,386.49765 -956.60592,385.13465 C -960.66097,385.41664 -980.68366,385.4257 -983.21945,383.49735 C -983.06968,381.50544 -973.95494,379.77022 -970.24507,377.57316 C -974.44889,376.55054 -983.3263,373.11102 -985.2023,371.28487 C -983.31207,369.43941 -972.816,369.36673 -967.87515,369.7109 C -972.42094,368.05253 -979.30596,364.56388 -982.4144,361.84066 C -980.42707,360.8102 -964.75758,362.89831 -958.81688,364.46378 C -958.6904,361.97836 -959.52152,357.97743 -960.04987,354.53405 C -960.15013,353.88066 -960.23949,353.24734 -960.30933,352.64826 C -958.6696,353.00435 -953.69838,361.47693 -951.54563,364.99562 C -950.88729,365.87711 -950.67395,365.05723 -950.28681,364.84918 C -946.63402,368.74966 -930.60037,369.73494 -929.00829,368.75944 C -928.48507,365.92824 -927.95875,363.34823 -927.26116,360.14261 C -935.13723,357.44636 -944.65486,351.27685 -954.63914,352.36297 C -952.35091,348.79044 -946.21873,346.35098 -942.84615,345.96602 C -942.84615,347.31061 -942.84615,348.65518 -942.84615,349.99976 C -941.50157,349.99976 -941.02508,350.06176 -939.6805,350.06176 C -939.6805,347.72336 -939.76841,346.17613 -939.76841,343.83773 C -938.60545,343.24029 -933.06095,342.31245 -931.24031,342.45817 C -931.21151,343.29209 -931.10011,343.85878 -931.05316,344.75599 C -924.46181,344.41985 -907.5656,346.17063 -898.73817,346.71139 C -898.70893,348.36287 -898.67969,349.79515 -898.69431,351.49049 C -897.52511,351.49048 -895.6544,351.53432 -894.22213,351.53432 C -894.13444,350.39436 -894.17828,348.37749 -894.22213,346.18524 C -887.99615,343.34995 -882.03324,334.28866 -885.01469,323.95587 C -887.39209,327.48829 -894.31068,331.33019 -897.16285,331.74962 C -897.00209,333.1819 -896.96975,335.32632 -897.11589,336.2763 C -898.34356,337.10935 -900.88656,337.72318 -902.37728,337.72318 C -903.12265,336.94858 -904.17536,335.47204 -904.92072,334.34668 C -915.27295,340.60867 -937.95918,341.21653 -948.56239,339.7963 C -948.62794,338.50846 -948.54868,336.86938 -948.49022,334.58945 C -949.57877,334.55135 -950.3412,334.51325 -952.32884,334.47516 C -952.34657,337.75245 -952.36431,340.5027 -952.44404,343.43898 C -954.8409,343.49743 -957.81188,343.27687 -960.20874,343.33533 C -960.27784,342.35214 -960.22292,341.15195 -960.26103,339.88974 C -964.78544,340.15195 -971.26303,340.35215 -976.4075,340.1183 C -976.45027,331.68246 -967.96486,313.64929 -959.14914,305.68431 C -958.96211,300.16629 -952.25821,296.00266 -948.38138,296.28281 C -937.1514,288.21513 -927.74005,285.14213 -925.6445,284.46657 C -925.17142,275.29463 -914.31305,276.15658 -916.18843,282.47857 C -908.66301,281.79296 -900.15796,282.69823 -895.84439,283.35547 C -895.08269,279.28895 -886.45599,273.67969 -883.44283,278.20659 C -881.97614,280.41013 -886.5324,283.56674 -890.05686,284.7585 C -880.8202,286.36616 -871.8466,292.35829 -867.25749,296.59663 C -864.97968,295.58634 -856.62131,293.3567 -854.13797,297.96773 C -853.63622,298.99004 -851.699,302.97642 -858.30528,301.4731 C -860.52796,300.78983 -862.23837,300.77528 -862.80524,301.20643 C -854.32856,310.85231 -851.57563,320.2729 -847.57113,329.48033 C -843.44027,328.74024 -832.67313,330.46323 -834.54423,336.05895 C -835.14382,338.14706 -843.66249,335.73071 -846.04537,334.08405 C -844.35113,341.66904 -841.31794,349.66398 -839.51271,355.32647 z"
         style="fill:#000000;fill-opacity:1;fill-rule:evenodd;stroke:#000000;stroke-width:0.6944682px;stroke-linecap:butt;stroke-linejoin:miter;stroke-opacity:1" />
      <path
         sodipodi:nodetypes="cccccccccccccccccccccccccczccc"
         id="path3373"
         d="M -842.00954,354.83847 C -853.34563,355.6528 -910.83286,359.57217 -926.53798,358.90751 C -931.57967,356.96596 -940.73356,351.62837 -951.43248,350.90406 C -949.37553,349.09539 -945.55979,347.6037 -944.17652,347.29548 C -944.17652,348.58858 -944.00115,349.70629 -944.00115,350.99939 C -942.70804,350.99939 -939.79448,351.14672 -938.50138,351.14672 C -938.50138,348.89785 -938.50138,347.26434 -938.50138,345.01547 C -937.38294,344.44091 -934.68144,343.54859 -932.93051,343.68873 C -932.90282,344.49072 -932.96792,345.44431 -932.92275,346.30716 C -926.58379,345.9839 -909.19454,347.75533 -900.70509,348.27537 C -900.67698,349.86363 -900.56117,350.53955 -900.57522,352.16998 C -899.45079,352.16997 -894.14411,352.38751 -892.76669,352.38751 C -892.68235,351.29119 -892.89988,349.43925 -892.94207,347.33093 C -886.95447,344.60419 -879.55377,332.46995 -884.43793,321.12975 C -886.7243,324.52692 -896.53482,330.32628 -899.27778,330.72965 C -899.12318,332.10708 -898.39055,333.99402 -898.5311,334.90762 C -899.71176,335.70878 -900.66667,335.4222 -902.10032,335.4222 C -902.81715,334.67726 -903.66047,333.42634 -904.37729,332.34407 C -914.33314,338.36631 -937.11534,340.00315 -947.31256,338.63731 C -947.3756,337.39878 -947.46846,335.65337 -947.41224,333.46073 C -948.45911,333.4241 -951.27181,333.56327 -953.18335,333.52664 C -953.2004,336.67845 -953.21746,339.3234 -953.29413,342.14724 C -954.98388,342.20346 -957.25605,342.07925 -958.68208,341.87175 C -958.74853,340.92622 -958.69572,339.77197 -958.73236,338.5581 C -963.08354,338.81026 -968.9301,338.87878 -973.87761,338.6539 C -969.1174,315.12256 -950.15257,292.31765 -924.64591,285.29609 C -913.50907,283.38899 -909.00265,283.24021 -897.72052,284.15748 C -886.08912,285.10315 -879.92583,287.83085 -868.58958,297.2725 C -862.4012,303.85992 -858.16334,307.23988 -848.86906,329.53934 C -847.20488,334.04292 -845.31777,340.16511 -842.00954,354.83847 z"
         style="fill:#99d420;fill-opacity:1;fill-rule:evenodd;stroke:none;stroke-width:2;stroke-linecap:butt;stroke-linejoin:miter;stroke-miterlimit:4;stroke-dasharray:none;stroke-opacity:0.63203466" />
      <path
         transform="matrix(0.6570737,0,0,0.6570737,-1147.1642,152.18032)"
         d="M 316.55655,235.40131 A 16.414978,16.414978 0 1 1 283.72659,235.40131 A 16.414978,16.414978 0 1 1 316.55655,235.40131 z"
         sodipodi:ry="16.414978"
         sodipodi:rx="16.414978"
         sodipodi:cy="235.40131"
         sodipodi:cx="300.14157"
         id="path3375"
         style="fill:#000000;fill-opacity:1;stroke:none;stroke-width:2;stroke-linecap:round;stroke-linejoin:round;stroke-miterlimit:4;stroke-dasharray:none;stroke-opacity:1"
         sodipodi:type="arc" />
      <path
         transform="matrix(0.8308345,0,0,0.8308345,-1167.2412,112.65102)"
         d="M 316.55655,235.40131 A 16.414978,16.414978 0 1 1 283.72659,235.40131 A 16.414978,16.414978 0 1 1 316.55655,235.40131 z"
         sodipodi:ry="16.414978"
         sodipodi:rx="16.414978"
         sodipodi:cy="235.40131"
         sodipodi:cx="300.14157"
         id="path3377"
         style="fill:#000000;fill-opacity:1;stroke:none;stroke-width:2;stroke-linecap:round;stroke-linejoin:round;stroke-miterlimit:4;stroke-dasharray:none;stroke-opacity:1"
         sodipodi:type="arc" />
      <path
         transform="matrix(0.3605471,0,0,0.3605471,-1059.8507,220.28801)"
         d="M 316.55655,235.40131 A 16.414978,16.414978 0 1 1 283.72659,235.40131 A 16.414978,16.414978 0 1 1 316.55655,235.40131 z"
         sodipodi:ry="16.414978"
         sodipodi:rx="16.414978"
         sodipodi:cy="235.40131"
         sodipodi:cx="300.14157"
         id="path3379"
         style="fill:#ffffff;fill-opacity:1;stroke:none;stroke-width:2;stroke-linecap:round;stroke-linejoin:round;stroke-miterlimit:4;stroke-dasharray:none;stroke-opacity:1"
         sodipodi:type="arc" />
      <path
         transform="matrix(0.1886749,0,0,0.1886749,-1002.0641,266.20347)"
         d="M 316.55655,235.40131 A 16.414978,16.414978 0 1 1 283.72659,235.40131 A 16.414978,16.414978 0 1 1 316.55655,235.40131 z"
         sodipodi:ry="16.414978"
         sodipodi:rx="16.414978"
         sodipodi:cy="235.40131"
         sodipodi:cx="300.14157"
         id="path3381"
         style="fill:#ffffff;fill-opacity:1;stroke:none;stroke-width:2;stroke-linecap:round;stroke-linejoin:round;stroke-miterlimit:4;stroke-dasharray:none;stroke-opacity:1"
         sodipodi:type="arc" />
      <path
         transform="matrix(0.4834145,0,0,0.4834145,-1065.7534,191.21846)"
         d="M 316.55655,235.40131 A 16.414978,16.414978 0 1 1 283.72659,235.40131 A 16.414978,16.414978 0 1 1 316.55655,235.40131 z"
         sodipodi:ry="16.414978"
         sodipodi:rx="16.414978"
         sodipodi:cy="235.40131"
         sodipodi:cx="300.14157"
         id="path3383"
         style="fill:#ffffff;fill-opacity:1;stroke:none;stroke-width:2;stroke-linecap:round;stroke-linejoin:round;stroke-miterlimit:4;stroke-dasharray:none;stroke-opacity:1"
         sodipodi:type="arc" />
      <path
         transform="matrix(0.2590479,0,0,0.2590479,-989.90574,251.48829)"
         d="M 316.55655,235.40131 A 16.414978,16.414978 0 1 1 283.72659,235.40131 A 16.414978,16.414978 0 1 1 316.55655,235.40131 z"
         sodipodi:ry="16.414978"
         sodipodi:rx="16.414978"
         sodipodi:cy="235.40131"
         sodipodi:cx="300.14157"
         id="path3385"
         style="fill:#ffffff;fill-opacity:1;stroke:none;stroke-width:2;stroke-linecap:round;stroke-linejoin:round;stroke-miterlimit:4;stroke-dasharray:none;stroke-opacity:1"
         sodipodi:type="arc" />
      <path
         sodipodi:nodetypes="ccccc"
         id="path3387"
         d="M -939.07925,305.19227 C -938.86987,306.45577 -938.82797,307.67579 -938.83123,308.60261 C -937.64121,308.97057 -932.81834,308.95419 -931.94856,308.60261 C -932.03123,307.67251 -931.86588,305.99836 -931.51451,305.06826 C -933.41603,304.73756 -936.49567,304.65488 -939.07925,305.19227 z"
         style="fill:#000000;fill-opacity:1;fill-rule:evenodd;stroke:#000000;stroke-width:0.6944682px;stroke-linecap:butt;stroke-linejoin:miter;stroke-opacity:1" />
      <path
         sodipodi:nodetypes="ccczc"
         id="path3389"
         d="M -917.93518,282.74607 C -919.23731,282.79774 -922.55464,283.50047 -924.72485,283.95519 C -924.56983,281.95033 -923.42272,280.22449 -921.31451,279.14972 C -919.444,278.44698 -917.96618,278.90169 -917.65615,279.83178 C -917.34613,280.76187 -917.18077,281.98133 -917.93518,282.74607 z"
         style="fill:#fcc707;fill-opacity:1;fill-rule:evenodd;stroke:none;stroke-width:1px;stroke-linecap:butt;stroke-linejoin:miter;stroke-opacity:1" />
      <path
         sodipodi:nodetypes="ccczc"
         id="path3391"
         d="M -891.43397,284.23481 C -892.61208,284.22448 -893.94522,283.93512 -894.99932,283.89378 C -894.34825,280.46278 -890.7829,278.24089 -888.7987,277.78618 C -886.80418,277.39347 -884.52029,277.29013 -884.95433,279.83239 C -885.39706,282.42555 -890.18351,284.02812 -891.43397,284.23481 z"
         style="fill:#fcc707;fill-opacity:1;fill-rule:evenodd;stroke:none;stroke-width:1px;stroke-linecap:butt;stroke-linejoin:miter;stroke-opacity:1" />
      <path
         sodipodi:nodetypes="ccccc"
         id="path3393"
         d="M -863.24915,300.44971 C -864.32324,299.96559 -865.20757,297.89212 -866.15568,297.42958 C -863.58065,295.87294 -860.11723,296.02543 -858.19522,296.44245 C -856.21152,296.88663 -853.64761,299.0608 -855.45726,300.43413 C -857.30186,301.48916 -861.31988,299.53669 -863.24915,300.44971 z"
         style="fill:#fcc707;fill-opacity:1;fill-rule:evenodd;stroke:none;stroke-width:1px;stroke-linecap:butt;stroke-linejoin:miter;stroke-opacity:1" />
      <path
         sodipodi:nodetypes="cczcc"
         id="path3395"
         d="M -846.44571,333.04612 C -846.64291,332.34277 -847.08879,330.92698 -847.24769,330.11368 C -844.20213,329.63567 -840.39365,330.51619 -837.84035,331.58187 C -835.28705,332.64755 -833.20504,336.74322 -837.86461,336.01198 C -839.66538,335.88321 -844.95489,334.23765 -846.44571,333.04612 z"
         style="fill:#fcc707;fill-opacity:1;fill-rule:evenodd;stroke:none;stroke-width:1px;stroke-linecap:butt;stroke-linejoin:miter;stroke-opacity:1" />
      <path
         sodipodi:nodetypes="ccccczccc"
         id="path3397"
         d="M -884.11587,321.23748 C -883.13667,320.15598 -881.93824,318.5264 -881.24403,317.09414 C -880.40922,315.35635 -882.31637,314.55664 -883.91858,315.18688 C -883.18779,314.37119 -881.78968,313.2847 -880.12066,313.68488 C -877.76582,314.20185 -877.53306,316.55932 -878.30641,319.00139 C -878.72295,318.25603 -879.27715,316.73801 -880.41097,318.08065 C -881.54278,319.42088 -881.70884,319.78024 -882.43316,321.11788 C -880.62066,327.01778 -882.69843,336.2045 -886.83361,341.05539 C -882.39628,334.64836 -882.63106,329.12071 -884.11587,321.23748 z"
         style="fill:#000000;fill-opacity:1;fill-rule:evenodd;stroke:#000000;stroke-width:0.6944682px;stroke-linecap:butt;stroke-linejoin:miter;stroke-opacity:1" />
      <path
         sodipodi:nodetypes="czcc"
         id="path3399"
         d="M -873.52732,303.61182 C -874.90114,304.98563 -875.16419,306.47635 -873.7027,307.73325 C -872.24121,308.99014 -874.14116,311.37237 -876.46493,309.39935 C -878.87643,306.54652 -877.32723,303.83101 -873.52732,303.61182 z"
         style="fill:#000000;fill-opacity:1;fill-rule:evenodd;stroke:none;stroke-width:1px;stroke-linecap:butt;stroke-linejoin:miter;stroke-opacity:1" />
      <path
         sodipodi:nodetypes="cccccccc"
         id="path3401"
         d="M -872.82575,308.69562 C -872.59839,309.5637 -872.71207,310.74182 -872.98077,311.23787 C -873.7666,312.59697 -875.95103,312.13335 -876.88715,310.12176 C -877.37287,309.46037 -878.1066,310.1941 -877.81725,311.20686 C -877.40387,312.26097 -876.9595,312.602 -876.20508,313.31507 C -875.368,313.86279 -874.03488,314.22449 -873.01177,313.50109 C -872.30903,312.86036 -871.88532,312.34364 -871.74064,311.6099 C -871.60732,310.15579 -871.79658,308.84891 -872.82575,308.69562 z"
         style="fill:#ffffff;fill-opacity:1;fill-rule:evenodd;stroke:none;stroke-width:1px;stroke-linecap:butt;stroke-linejoin:miter;stroke-opacity:1" />
      <path
         sodipodi:nodetypes="ccc"
         id="path3404"
         d="M -904.08723,283.8816 C -865.73754,295.22282 -854.98812,312.78248 -844.12865,345.72863 C -852.77172,307.40724 -871.13042,283.41512 -904.08723,283.8816 z"
         style="fill:#ffffff;fill-opacity:1;fill-rule:evenodd;stroke:none;stroke-width:1px;stroke-linecap:butt;stroke-linejoin:miter;stroke-opacity:1" />
      <path
         sodipodi:nodetypes="ccccccccccccccccccccc"
         id="path3406"
         d="M -919.76476,361.07824 C -895.64914,360.81452 -862.47917,359.23221 -840.38539,357.6499 C -839.85795,358.67547 -839.0668,360.84382 -838.80308,362.13312 C -840.91283,363.62752 -844.25326,364.77031 -847.76952,366.17681 C -848.85369,366.49913 -848.9709,367.4368 -848.38486,368.37446 C -840.18028,365.32705 -830.6571,359.90616 -825.52923,356.50712 C -819.84462,361.75219 -816.7972,366.20611 -814.80466,371.36328 C -822.80413,374.4107 -832.91335,377.80974 -842.49514,379.80228 C -842.61235,380.38833 -841.76259,381.50181 -841.61608,381.91203 C -838.68587,380.85716 -835.14031,380.76925 -832.2101,379.71437 C -828.20262,394.55243 -824.10722,408.68725 -822.4525,423.66752 C -857.64432,426.48052 -897.5415,427.06312 -930.12522,425.28 C -929.16805,419.2065 -928.27304,413.44378 -926.63212,406.99732 C -924.41411,406.92805 -919.0153,406.742 -916.33642,406.24387 C -916.33642,403.66529 -916.24851,401.63234 -916.24851,399.05376 C -919.53035,399.05376 -923.46523,399.0431 -925.47242,398.86728 C -924.67329,392.64285 -923.50122,385.9833 -922.32913,378.95079 C -919.90858,378.76519 -914.82198,378.33405 -912.77309,378.03791 C -912.84635,375.89886 -912.75887,373.10988 -912.87608,370.17967 C -915.80629,370.06246 -918.36354,370.25605 -921.29375,370.13884 C -920.88266,367.94431 -920.05779,363.89124 -919.76476,361.07824 z"
         style="fill:#ffffff;fill-opacity:1;fill-rule:evenodd;stroke:none;stroke-width:1px;stroke-linecap:butt;stroke-linejoin:miter;stroke-opacity:0.63203466" />
      <path
         sodipodi:nodetypes="ccccc"
         id="path3408"
         d="M -925.8143,361.52311 C -924.7257,361.51955 -922.8912,361.516 -921.67828,361.54352 C -924.40338,382.49452 -927.46502,403.7554 -931.94825,424.97011 C -934.1752,424.8529 -936.12244,424.95325 -938.3494,424.83604 C -934.04199,403.94365 -928.53939,382.50341 -925.8143,361.52311 z"
         style="fill:#ffffff;fill-opacity:1;fill-rule:evenodd;stroke:none;stroke-width:1px;stroke-linecap:butt;stroke-linejoin:miter;stroke-opacity:0.5974026" />
      <path
         sodipodi:nodetypes="ccccccccccccccc"
         id="path3410"
         d="M -951.85056,366.44052 C -953.55094,363.4473 -956.24716,357.87279 -959.42558,354.4884 C -958.86884,356.94977 -957.93473,361.71804 -957.68878,363.80646 C -956.86833,364.3925 -955.13239,364.7117 -954.31193,365.29775 C -954.31193,365.59076 -954.31193,365.88379 -954.31193,366.17681 C -961.3941,365.12904 -971.08695,363.33537 -979.16367,362.84703 C -975.14928,365.22051 -969.58091,367.90477 -965.56653,370.27824 C -970.04351,370.28266 -976.88252,370.16275 -982.35404,371.09956 C -980.10058,372.8328 -969.9529,376.05786 -967.7616,377.60463 C -969.61819,378.84328 -974.3341,380.89002 -978.92569,382.43947 C -973.27049,383.58139 -964.5695,383.72876 -956.17929,383.93829 C -956.25212,381.82413 -956.3871,379.21268 -955.71402,376.60124 C -955.71402,376.60124 -963.98163,375.23116 -962.75093,375.23116 C -961.52024,375.23116 -954.48775,374.35209 -954.48775,374.35209 C -954.16811,371.83922 -952.54314,367.83453 -951.85056,366.44052 z"
         style="fill:#99d420;fill-opacity:1;fill-rule:evenodd;stroke:none;stroke-width:1px;stroke-linecap:butt;stroke-linejoin:miter;stroke-opacity:1" />
      <path
         sodipodi:nodetypes="ccccccccccccccc"
         id="path3412"
         d="M -824.47435,355.27643 C -824.64133,351.11198 -823.81376,345.26922 -822.55108,342.65875 C -822.31666,345.00292 -821.64713,347.65788 -820.9776,349.93989 C -821.38783,350.76035 -822.35749,351.70513 -822.89204,352.46343 C -822.59902,352.93226 -822.306,353.40109 -822.01298,353.86993 C -814.85971,347.54057 -807.83076,344.07053 -800.73965,341.03561 C -800.73965,341.03561 -809.88008,351.32323 -810.23353,352.81505 C -808.2871,351.19892 -794.79219,347.39502 -794.79219,347.39502 C -797.15835,350.37408 -802.32169,354.87259 -806.01403,358.44106 C -801.04862,358.489 -795.89673,358.84773 -793.35552,359.1443 C -799.52847,362.49541 -806.19868,365.66003 -813.92559,368.63818 C -813.92559,368.63818 -817.49151,363.09567 -817.19321,362.43325 C -815.34093,360.77628 -811.28841,358.61687 -811.28841,358.61687 C -813.80483,358.63281 -816.63205,359.45683 -819.02416,360.90243 C -820.2193,359.08926 -822.22251,357.21392 -824.47435,355.27643 z"
         style="fill:#99d420;fill-opacity:1;fill-rule:evenodd;stroke:none;stroke-width:1px;stroke-linecap:butt;stroke-linejoin:miter;stroke-opacity:1" />
      <path
         sodipodi:nodetypes="ccccc"
         id="path3414"
         d="M -921.53604,371.74998 L -922.34228,377.04417 L -914.09203,376.67122 L -914.34067,371.57417 L -921.53604,371.74998 z"
         style="fill:#fcc707;fill-opacity:1;fill-rule:evenodd;stroke:none;stroke-width:1px;stroke-linecap:butt;stroke-linejoin:miter;stroke-opacity:1" />
      <path
         sodipodi:nodetypes="ccccc"
         id="path3416"
         d="M -925.46715,400.66464 L -917.88374,400.66464 L -917.9459,404.64282 L -926.27964,405.20225 L -925.46715,400.66464 z"
         style="fill:#fcc707;fill-opacity:1;fill-rule:evenodd;stroke:none;stroke-width:1px;stroke-linecap:butt;stroke-linejoin:miter;stroke-opacity:1" />
      <path
         sodipodi:nodetypes="cccc"
         id="path3418"
         d="M -823.83697,402.77805 C -822.83115,408.94455 -821.12208,415.81431 -819.76463,422.33243 C -813.22726,422.21989 -801.3276,420.78876 -799.09764,418.56647 C -804.88271,413.47947 -814.79937,407.77714 -823.83697,402.77805 z"
         style="fill:#99d420;fill-opacity:1;fill-rule:evenodd;stroke:none;stroke-width:1px;stroke-linecap:butt;stroke-linejoin:miter;stroke-opacity:1" />
      <path
         sodipodi:nodetypes="cccccccccccc"
         id="path3420"
         d="M -849.02208,428.30595 C -842.9017,427.99958 -832.12227,427.86901 -825.65025,426.85939 C -824.12827,432.50764 -823.22163,439.82611 -823.36986,446.70506 C -825.41591,448.41212 -827.58614,449.3643 -829.78916,449.47022 C -830.47978,447.21741 -833.45595,443.38229 -835.37724,443.76667 C -836.55572,444.44478 -839.01884,447.32574 -840.10134,450.97712 C -841.74383,452.09477 -844.00167,452.15753 -845.20463,451.86868 C -846.05597,449.82688 -848.40172,444.62044 -851.53862,444.51258 C -854.14808,446.61715 -857.02126,450.47985 -857.52097,453.46349 C -858.51724,453.46315 -860.35316,453.54101 -861.9361,453.31785 C -861.62211,450.81137 -862.71462,447.68955 -864.94991,446.76539 C -858.32204,441.4034 -851.86998,432.87678 -849.02208,428.30595 z"
         style="fill:#99d420;fill-opacity:1;fill-rule:evenodd;stroke:#000000;stroke-width:0.69618225px;stroke-linecap:butt;stroke-linejoin:miter;stroke-opacity:1" />
      <path
         sodipodi:nodetypes="ccccc"
         id="path3422"
         d="M -949.82871,368.02284 C -953.02264,372.44746 -955.33751,378.89392 -954.75147,386.48316 C -947.95338,385.77991 -939.13345,384.81294 -931.72002,384.10969 C -931.4563,379.89019 -930.40143,374.70372 -929.52236,370.13259 C -935.85161,370.45491 -944.81805,369.19492 -949.82871,368.02284 z"
         style="fill:#ffffff;fill-opacity:1;fill-rule:evenodd;stroke:none;stroke-width:1px;stroke-linecap:butt;stroke-linejoin:miter;stroke-opacity:1" />
      <path
         sodipodi:nodetypes="cccccccccccc"
         id="path3424"
         d="M -935.88686,427.45292 C -930.11809,428.0256 -918.28378,428.59829 -912.33921,428.64354 C -911.16885,434.11598 -909.98159,442.89245 -910.76207,447.08271 C -912.80811,448.78977 -915.47562,449.61763 -917.18137,449.84787 C -917.87198,447.59506 -921.15895,443.20051 -922.70728,443.83352 C -923.88576,444.26299 -926.41105,447.70339 -927.49354,451.35477 C -928.63876,451.91299 -931.14524,452.22439 -932.59684,452.24633 C -933.44818,450.20453 -936.16687,444.6873 -938.55787,445.13886 C -941.22949,446.06241 -944.04051,450.67103 -944.54023,453.65466 C -946.09593,453.90296 -947.74537,453.91866 -949.3283,453.6955 C -949.01431,451.18902 -950.10682,448.0672 -952.34211,447.14304 C -945.71425,441.78105 -938.73476,432.02374 -935.88686,427.45292 z"
         style="fill:#99d420;fill-opacity:1;fill-rule:evenodd;stroke:none;stroke-width:1px;stroke-linecap:butt;stroke-linejoin:miter;stroke-opacity:1" />
      <path
         sodipodi:nodetypes="cccc"
         id="path3426"
         d="M -819.19997,405.29511 C -813.48607,410.24717 -807.89647,415.04382 -802.18257,419.99588 C -801.0922,419.64426 -799.01702,419.03423 -798.45409,418.56896 C -803.55265,414.40806 -811.28841,409.80763 -819.19997,405.29511 z"
         style="fill:#ffffff;fill-opacity:1;fill-rule:evenodd;stroke:none;stroke-width:1px;stroke-linecap:butt;stroke-linejoin:miter;stroke-opacity:1" />
      <path
         sodipodi:nodetypes="cccc"
         id="path3428"
         d="M -953.09689,448.15422 C -951.34608,448.67222 -950.15469,451.3347 -950.48621,453.87286 C -952.86897,453.9143 -957.14759,454.01789 -960.12087,453.99718 C -957.62414,451.977 -955.56253,450.11223 -953.09689,448.15422 z"
         style="fill:#fcc707;fill-opacity:1;fill-rule:evenodd;stroke:none;stroke-width:1px;stroke-linecap:butt;stroke-linejoin:miter;stroke-opacity:1" />
      <path
         sodipodi:nodetypes="cccc"
         id="path3430"
         d="M -938.50754,446.76496 C -936.493,446.31598 -934.51046,450.38496 -933.52338,452.48359 C -935.3787,453.22828 -940.36058,453.6835 -943.33385,453.66279 C -943.1227,451.64261 -941.3248,447.49228 -938.50754,446.76496 z"
         style="fill:#fcc707;fill-opacity:1;fill-rule:evenodd;stroke:none;stroke-width:1px;stroke-linecap:butt;stroke-linejoin:miter;stroke-opacity:1" />
      <path
         sodipodi:nodetypes="cccc"
         id="path3432"
         d="M -922.40987,444.80835 C -921.01693,444.67017 -918.97224,447.99324 -917.98515,450.09187 C -920.64855,450.71224 -924.20076,451.4161 -926.42813,451.39538 C -926.21697,449.37521 -923.79748,445.53567 -922.40987,444.80835 z"
         style="fill:#fcc707;fill-opacity:1;fill-rule:evenodd;stroke:none;stroke-width:1px;stroke-linecap:butt;stroke-linejoin:miter;stroke-opacity:1" />
      <path
         sodipodi:nodetypes="cccc"
         id="path3434"
         d="M -865.29375,447.59343 C -863.54294,448.11143 -862.35155,450.77391 -862.68307,453.31207 C -865.06583,453.35351 -869.34445,453.45711 -872.31773,453.43639 C -869.821,451.41621 -867.75939,449.55145 -865.29375,447.59343 z"
         style="fill:#fcc707;fill-opacity:1;fill-rule:evenodd;stroke:none;stroke-width:1px;stroke-linecap:butt;stroke-linejoin:miter;stroke-opacity:1" />
      <path
         sodipodi:nodetypes="cccc"
         id="path3436"
         d="M -851.27345,445.22564 C -849.21496,444.99643 -846.70499,449.19727 -845.80581,451.77938 C -846.82603,452.39221 -853.78579,452.97929 -856.75906,452.95858 C -856.54791,450.9384 -853.12375,446.17273 -851.27345,445.22564 z"
         style="fill:#fcc707;fill-opacity:1;fill-rule:evenodd;stroke:none;stroke-width:1px;stroke-linecap:butt;stroke-linejoin:miter;stroke-opacity:1" />
      <path
         sodipodi:nodetypes="cccc"
         id="path3438"
         d="M -835.16509,444.11057 C -833.36811,443.97239 -831.16802,447.10898 -830.18094,449.20761 C -833.15513,450.29418 -837.17354,450.84263 -839.49414,450.82192 C -839.28298,448.80174 -836.55269,444.83789 -835.16509,444.11057 z"
         style="fill:#fcc707;fill-opacity:1;fill-rule:evenodd;stroke:none;stroke-width:1px;stroke-linecap:butt;stroke-linejoin:miter;stroke-opacity:1" />
      <path
         sodipodi:nodetypes="cccc"
         id="path3440"
         d="M -945.04728,440.07354 C -941.67057,435.88815 -938.55758,431.61487 -935.97204,427.51739 C -934.7188,427.50482 -933.46557,427.62411 -932.52001,427.69945 C -934.1788,431.06983 -940.66102,436.87897 -945.04728,440.07354 z"
         style="fill:#fcffff;fill-opacity:0.74025975;fill-rule:evenodd;stroke:none;stroke-width:1px;stroke-linecap:butt;stroke-linejoin:miter;stroke-opacity:1" />
      <path
         sodipodi:nodetypes="cccc"
         id="path3442"
         d="M -858.20521,441.05759 C -854.64202,436.87221 -851.52904,432.7854 -848.94349,428.68792 C -848.24969,428.61319 -846.43702,428.42169 -845.49146,428.49703 C -846.7773,431.68093 -853.69464,438.3603 -858.20521,441.05759 z"
         style="fill:#fcffff;fill-opacity:0.70129873;fill-rule:evenodd;stroke:none;stroke-width:1px;stroke-linecap:butt;stroke-linejoin:miter;stroke-opacity:1" />
      <path
         sodipodi:nodetypes="cccc"
         id="path3444"
         d="M -973.70446,338.69953 C -972.41984,338.79685 -969.46824,338.85021 -968.29663,338.81631 C -968.5867,333.5535 -969.46636,328.40435 -967.51871,321.15245 C -971.12394,327.07829 -972.46128,333.14665 -973.70446,338.69953 z"
         style="fill:#fcffff;fill-opacity:0.64069268;fill-rule:evenodd;stroke:none;stroke-width:1px;stroke-linecap:butt;stroke-linejoin:miter;stroke-opacity:1" />
      <path
         sodipodi:nodetypes="cccc"
         id="path3446"
         d="M -893.04125,347.36487 C -882.53042,341.18379 -879.6406,327.2214 -882.22878,320.99298 C -881.37902,319.9088 -880.70507,319.00044 -879.76741,318.00417 C -875.87023,321.90134 -877.1647,343.92855 -893.04125,347.36487 z"
         style="fill:#fcffff;fill-opacity:0.72727272;fill-rule:evenodd;stroke:none;stroke-width:1px;stroke-linecap:butt;stroke-linejoin:miter;stroke-opacity:1" />
      <path
         sodipodi:nodetypes="cccc"
         id="path3448"
         d="M -820.97766,349.88063 C -821.20557,350.27431 -822.1794,351.53821 -822.78027,352.367 C -823.46402,349.17616 -823.21538,345.92317 -822.59379,342.79449 C -822.42803,344.84574 -821.70284,347.51859 -820.97766,349.88063 z"
         style="fill:#fcffff;fill-opacity:0.72727272;fill-rule:evenodd;stroke:none;stroke-width:1px;stroke-linecap:butt;stroke-linejoin:miter;stroke-opacity:1" />
      <path
         sodipodi:nodetypes="cccc"
         id="path3450"
         d="M -810.11258,352.55348 C -810.6513,351.2067 -810.4441,349.98423 -810.29906,349.44552 C -808.37213,346.6898 -805.45065,343.7476 -800.97519,341.17835 C -802.42557,343.22961 -808.72437,350.06711 -810.11258,352.55348 z"
         style="fill:#fcffff;fill-opacity:0.72727272;fill-rule:evenodd;stroke:none;stroke-width:1px;stroke-linecap:butt;stroke-linejoin:miter;stroke-opacity:1" />
      <path
         sodipodi:nodetypes="cccc"
         id="path3452"
         d="M -805.83675,358.41471 C -804.52943,355.48562 -800.80598,350.04365 -799.86979,349.15332 C -798.38238,348.33154 -795.85648,347.71885 -794.72146,347.34726 C -795.77627,348.73921 -803.17389,355.92835 -805.83675,358.41471 z"
         style="fill:#fcffff;fill-opacity:0.72727272;fill-rule:evenodd;stroke:none;stroke-width:1px;stroke-linecap:butt;stroke-linejoin:miter;stroke-opacity:1" />
      <path
         sodipodi:nodetypes="cccc"
         id="path3454"
         d="M -801.27321,363.18269 C -801.33537,361.79447 -800.71377,359.7225 -799.96787,358.58291 C -798.12382,358.60364 -794.8501,358.87299 -793.31684,359.01802 C -794.97442,360.19905 -798.55893,361.81519 -801.27321,363.18269 z"
         style="fill:#fcffff;fill-opacity:0.72727272;fill-rule:evenodd;stroke:none;stroke-width:1px;stroke-linecap:butt;stroke-linejoin:miter;stroke-opacity:1" />
      <path
         sodipodi:nodetypes="cccc"
         id="path3456"
         d="M -970.26693,383.31854 C -971.48296,382.26366 -972.21551,381.20879 -972.81621,380.10996 C -974.91131,380.85716 -976.78664,381.64832 -978.88174,382.39553 C -976.80129,382.92296 -972.52319,383.40644 -970.26693,383.31854 z"
         style="fill:#fcffff;fill-opacity:0.72727272;fill-rule:evenodd;stroke:none;stroke-width:1px;stroke-linecap:butt;stroke-linejoin:miter;stroke-opacity:1" />
      <path
         sodipodi:nodetypes="cccc"
         id="path3458"
         d="M -967.6732,377.54145 C -971.19555,375.30372 -974.46926,372.81735 -976.93491,370.4553 C -978.7168,370.68323 -980.4987,370.91114 -982.28059,371.13906 C -978.59249,373.27318 -972.41802,375.40732 -967.6732,377.54145 z"
         style="fill:#fcffff;fill-opacity:0.72727272;fill-rule:evenodd;stroke:none;stroke-width:1px;stroke-linecap:butt;stroke-linejoin:miter;stroke-opacity:1" />
      <path
         sodipodi:nodetypes="cccc"
         id="path3460"
         d="M -965.73975,370.17655 C -968.626,367.86168 -971.51226,365.54681 -974.39852,363.23195 C -976.01014,363.08544 -977.62175,362.93893 -979.23336,362.79242 C -975.70246,364.99008 -969.92995,367.89099 -965.73975,370.17655 z"
         style="fill:#fcffff;fill-opacity:0.81385277;fill-rule:evenodd;stroke:none;stroke-width:1px;stroke-linecap:butt;stroke-linejoin:miter;stroke-opacity:1" />
      <path
         sodipodi:nodetypes="cccc"
         id="path3462"
         d="M -954.66356,365.16589 C -955.82099,364.69705 -956.67075,364.31613 -957.82818,363.84729 C -958.10655,360.90244 -958.64864,357.38619 -959.45445,354.22156 C -957.49121,357.6792 -956.09937,361.53243 -954.66356,365.16589 z"
         style="fill:#fcffff;fill-opacity:0.81385277;fill-rule:evenodd;stroke:none;stroke-width:1px;stroke-linecap:butt;stroke-linejoin:miter;stroke-opacity:1" />
      <path
         sodipodi:nodetypes="cccc"
         id="path3464"
         d="M -946.57618,351.32065 C -935.03115,352.14111 -923.48613,355.51085 -916.95176,358.79268 C -919.35454,358.9392 -922.46056,359.17361 -926.53355,358.9685 C -931.72002,356.68293 -937.78555,353.69412 -946.57618,351.32065 z"
         style="fill:#fcffff;fill-opacity:0.81385277;fill-rule:evenodd;stroke:none;stroke-width:1px;stroke-linecap:butt;stroke-linejoin:miter;stroke-opacity:1" />
      <path
         transform="matrix(0.6961823,0,0,0.6961823,-786.41718,326.04531)"
         d="M -188.74999,-66.119957 A 3.2142856,1.5178571 0 1 1 -195.17856,-66.119957 A 3.2142856,1.5178571 0 1 1 -188.74999,-66.119957 z"
         sodipodi:ry="1.5178571"
         sodipodi:rx="3.2142856"
         sodipodi:cy="-66.119957"
         sodipodi:cx="-191.96428"
         id="path3466"
         style="fill:#fcffff;fill-opacity:0.81385277;stroke:none;stroke-width:2;stroke-linecap:round;stroke-linejoin:round;stroke-miterlimit:4;stroke-dasharray:none;stroke-opacity:1"
         sodipodi:type="arc" />
      <path
         transform="matrix(0.9622735,-0.3939243,0.4781685,0.7927392,-672.76543,256.25083)"
         d="M -188.74999,-66.119957 A 3.2142856,1.5178571 0 1 1 -195.17856,-66.119957 A 3.2142856,1.5178571 0 1 1 -188.74999,-66.119957 z"
         sodipodi:ry="1.5178571"
         sodipodi:rx="3.2142856"
         sodipodi:cy="-66.119957"
         sodipodi:cx="-191.96428"
         id="path3468"
         style="fill:#fcffff;fill-opacity:0.81385277;stroke:none;stroke-width:2;stroke-linecap:round;stroke-linejoin:round;stroke-miterlimit:4;stroke-dasharray:none;stroke-opacity:1"
         sodipodi:type="arc" />
      <path
         inkscape:transform-center-x="0.16567108"
         inkscape:transform-center-y="1.5632029"
         transform="matrix(0.9784964,0.4027439,-0.6061197,0.7626614,-710.55473,425.70861)"
         d="M -188.74999,-66.119957 A 3.2142856,1.5178571 0 1 1 -195.17856,-66.119957 A 3.2142856,1.5178571 0 1 1 -188.74999,-66.119957 z"
         sodipodi:ry="1.5178571"
         sodipodi:rx="3.2142856"
         sodipodi:cy="-66.119957"
         sodipodi:cx="-191.96428"
         id="path3470"
         style="fill:#fcffff;fill-opacity:0.81385277;stroke:none;stroke-width:2;stroke-linecap:round;stroke-linejoin:round;stroke-miterlimit:4;stroke-dasharray:none;stroke-opacity:1"
         sodipodi:type="arc" />
      <path
         sodipodi:nodetypes="ccccc"
         id="path3472"
         d="M -847.21633,330.04733 C -842.38235,329.62822 -837.68959,331.19011 -836.07798,332.86033 C -834.90198,335.81125 -839.44908,335.54861 -841.35236,332.06917 C -842.23142,331.45383 -844.68213,331.56748 -846.70397,332.00701 C -846.97836,331.33306 -847.12843,330.72128 -847.21633,330.04733 z"
         style="fill:#fcffff;fill-opacity:0.81385277;fill-rule:evenodd;stroke:none;stroke-width:1px;stroke-linecap:butt;stroke-linejoin:miter;stroke-opacity:1" />
      <path
         sodipodi:nodetypes="ccccc"
         id="path3474"
         d="M -959.96547,453.99718 C -957.81062,451.98737 -954.10179,448.98301 -953.2212,448.1853 C -952.49601,448.37178 -951.67759,448.96229 -951.57399,449.3974 C -953.14868,450.41267 -956.71247,452.60896 -957.7899,453.93502 C -958.47365,453.99718 -959.28172,453.93502 -959.96547,453.99718 z"
         style="fill:#fcffff;fill-opacity:0.70129873;fill-rule:evenodd;stroke:none;stroke-width:1px;stroke-linecap:butt;stroke-linejoin:miter;stroke-opacity:1" />
      <path
         sodipodi:nodetypes="ccccc"
         id="path3476"
         d="M -943.36898,453.67084 C -942.97226,450.60615 -940.79662,447.98579 -939.60835,447.14412 C -938.35573,446.31968 -937.49852,446.87782 -936.91144,447.26898 C -939.89263,447.62495 -941.91807,450.96402 -941.19341,453.60868 C -941.87716,453.67084 -942.68524,453.60868 -943.36898,453.67084 z"
         style="fill:#fcffff;fill-opacity:0.70129873;fill-rule:evenodd;stroke:none;stroke-width:1px;stroke-linecap:butt;stroke-linejoin:miter;stroke-opacity:1" />
      <path
         sodipodi:nodetypes="ccccc"
         id="path3478"
         d="M -926.41801,451.34551 C -925.88943,448.21489 -923.53797,445.71508 -922.52552,444.83323 C -922.08161,444.60529 -921.42844,445.0642 -920.9952,445.47734 C -922.7332,445.95763 -924.94512,448.55079 -924.22046,451.19545 C -924.84205,451.38193 -926.04129,451.4221 -926.41801,451.34551 z"
         style="fill:#fcffff;fill-opacity:0.70129873;fill-rule:evenodd;stroke:none;stroke-width:1px;stroke-linecap:butt;stroke-linejoin:miter;stroke-opacity:1" />
      <path
         sodipodi:nodetypes="cccccc"
         id="path3480"
         d="M -867.18797,453.39051 C -867.1835,452.99451 -867.61415,452.31878 -868.26235,452.14033 C -867.13911,451.20622 -865.14565,449.49511 -863.96027,448.561 C -864.14227,448.29195 -864.7594,447.83642 -865.2522,447.56737 C -866.9508,448.94543 -870.01691,451.50452 -872.24387,453.37985 C -871.54099,453.35232 -869.17439,453.44911 -867.18797,453.39051 z"
         style="fill:#fcffff;fill-opacity:0.70129873;fill-rule:evenodd;stroke:none;stroke-width:1px;stroke-linecap:butt;stroke-linejoin:miter;stroke-opacity:1" />
      <path
         sodipodi:nodetypes="ccccc"
         id="path3482"
         d="M -839.53652,450.85223 C -839.00793,447.72161 -836.34881,445.04598 -835.33635,444.16413 C -834.89245,443.93619 -834.28323,444.13138 -833.84998,444.54452 C -836.02752,444.98086 -837.66805,448.10145 -836.94339,450.74611 C -837.78474,450.93259 -839.15979,450.92881 -839.53652,450.85223 z"
         style="fill:#fcffff;fill-opacity:0.70129873;fill-rule:evenodd;stroke:none;stroke-width:1px;stroke-linecap:butt;stroke-linejoin:miter;stroke-opacity:1" />
      <path
         sodipodi:nodetypes="ccccc"
         id="path3484"
         d="M -856.8001,452.98832 C -856.13966,449.96758 -852.9531,446.3363 -851.76483,445.49463 C -850.51221,444.67019 -849.78686,445.71181 -849.19978,446.10297 C -852.04911,445.97546 -854.95361,449.6222 -854.53663,452.92615 C -855.22038,452.98832 -856.11636,452.92615 -856.8001,452.98832 z"
         style="fill:#fcffff;fill-opacity:0.70129873;fill-rule:evenodd;stroke:none;stroke-width:1px;stroke-linecap:butt;stroke-linejoin:miter;stroke-opacity:1" />
      <path
         sodipodi:nodetypes="ccccc"
         id="path3486"
         d="M -954.7441,386.36805 C -954.99274,383.75736 -954.97141,382.09232 -954.72278,379.85459 C -945.85474,380.06178 -939.18802,380.14466 -931.19021,380.10323 C -931.52172,382.05088 -931.34088,383.23754 -931.49659,384.13031 C -939.16288,384.71047 -947.07781,385.7879 -954.7441,386.36805 z"
         style="fill:#000000;fill-opacity:0.15584418;fill-rule:evenodd;stroke:none;stroke-width:1px;stroke-linecap:butt;stroke-linejoin:miter;stroke-opacity:1" />
      <path
         sodipodi:nodetypes="ccccccc"
         id="path3488"
         d="M -920.13508,364.67946 C -920.38371,362.06878 -920.28957,363.34471 -920.04093,361.10698 C -911.17289,361.31418 -847.81705,357.91615 -839.81924,357.87471 C -839.985,358.84854 -836.85255,360.50234 -838.67086,362.52156 C -839.58001,363.53117 -846.29798,366.56607 -848.22727,367.47044 C -848.75005,366.79248 -849.93434,365.74211 -851.20395,364.73462 C -858.87024,365.31477 -912.46879,364.09931 -920.13508,364.67946 z"
         style="fill:#000000;fill-opacity:0.15584418;fill-rule:evenodd;stroke:none;stroke-width:1px;stroke-linecap:butt;stroke-linejoin:miter;stroke-opacity:1" />
      <path
         sodipodi:nodetypes="cccccc"
         id="path3490"
         d="M -845.04441,376.97041 C -836.07296,373.84192 -823.5986,368.11716 -818.03092,365.40881 C -816.70486,367.12855 -815.31287,369.40394 -814.5205,371.79612 C -817.68748,373.70233 -826.10057,377.00196 -831.66032,378.60976 C -829.44811,386.63409 -824.66512,403.98282 -823.69701,413.91534 C -828.29924,403.67631 -841.84651,380.95284 -845.04441,376.97041 z"
         style="fill:#000000;fill-opacity:0.15584418;fill-rule:evenodd;stroke:none;stroke-width:1px;stroke-linecap:butt;stroke-linejoin:miter;stroke-opacity:1" />
      <path
         sodipodi:nodetypes="cccc"
         id="path3492"
         d="M -921.53797,371.74066 C -920.2662,371.70277 -918.99443,371.66489 -917.72266,371.62701 C -918.23283,372.87191 -918.68084,374.36545 -922.05033,374.61581 C -921.87954,373.65743 -921.70876,372.69904 -921.53797,371.74066 z"
         style="fill:#ffffff;fill-opacity:0.77489181;fill-rule:evenodd;stroke:none;stroke-width:1px;stroke-linecap:butt;stroke-linejoin:miter;stroke-opacity:1" />
      <path
         sodipodi:nodetypes="ccccc"
         id="path3494"
         d="M -925.52586,400.66182 C -924.88997,400.64288 -919.39726,400.64592 -917.88231,400.67092 C -917.86177,400.95966 -917.92914,401.46816 -917.9086,401.91073 C -918.85831,402.67215 -923.39396,403.44046 -926.03822,403.53699 C -925.86743,402.5786 -925.69664,401.62021 -925.52586,400.66182 z"
         style="fill:#ffffff;fill-opacity:0.77489181;fill-rule:evenodd;stroke:none;stroke-width:1px;stroke-linecap:butt;stroke-linejoin:miter;stroke-opacity:1" />
      <path
         sodipodi:nodetypes="cccc"
         id="path3496"
         d="M -928.22919,375.38514 L -921.50092,361.34342 L -925.88847,361.27059 L -928.22919,375.38514 z"
         style="fill:#000000;fill-opacity:0.11255409;fill-rule:evenodd;stroke:none;stroke-width:1px;stroke-linecap:butt;stroke-linejoin:miter;stroke-opacity:1" />
    </g>
    <text
       xml:space="preserve"
       style="font-size:29.82498932px;font-style:normal;font-variant:normal;font-weight:normal;font-stretch:normal;text-align:start;line-height:125%;writing-mode:lr-tb;text-anchor:start;fill:#000000;fill-opacity:1;stroke:none;stroke-width:1px;stroke-linecap:butt;stroke-linejoin:miter;stroke-opacity:1;font-family:'A.C.M.E. Secret Agent';-inkscape-font-specification:'A.C.M.E. Secret Agent'"
       x="369.36618"
       y="651.29498"
       id="text3803"
       sodipodi:linespacing="125%"><tspan
         sodipodi:role="line"
         id="tspan3805"
         x="369.36618"
         y="651.29498">Ver. 0.9a - phoenix </tspan></text>
    <g
       id="g3867"
       transform="matrix(1.9786302,0,0,1.9786302,3005.9443,-385.63875)">
      <g
         id="g3847">
        <path
           style="fill:#000000;fill-opacity:1;fill-rule:evenodd;stroke:#000000;stroke-width:1.06881714px;stroke-linecap:butt;stroke-linejoin:miter;stroke-opacity:1"
           d="M -1378.9892,502.31559 L -1363.0086,501.97675 L -1362.1919,486.99169 L -1351.5735,501.97675 L -1326.2531,502.69034 L -1354.8408,472.00662 L -1320.5355,448.45864 L -1347.2914,444.72505 L -1365.9956,469.07316 L -1357.0929,433.63929 L -1382.5946,437.80573 L -1378.9892,502.31559 z"
           id="path3567"
           sodipodi:nodetypes="cccccccccccc" />
        <path
           style="fill:#000000;fill-opacity:1;fill-rule:evenodd;stroke:#000000;stroke-width:1px;stroke-linecap:butt;stroke-linejoin:miter;stroke-opacity:1"
           d="M -1337.1835,456.05153 L -1329.1499,470.13455 L -1317.8068,467.92089 L -1322.8982,502.62011 L -1299.795,502.72475 L -1308.0804,467.83634 L -1296.6886,470.12187 L -1287.8795,456.05152 L -1337.1835,456.05153 z"
           id="path3569"
           sodipodi:nodetypes="ccccccccc" />
        <path
           style="fill:#000000;fill-opacity:1;fill-rule:evenodd;stroke:none;stroke-width:1px;stroke-linecap:butt;stroke-linejoin:miter;stroke-opacity:1"
           d="M -1215.985,502.79993 L -1221.8967,450.13876 L -1210.1655,447.46563 L -1191.1241,484.74489 L -1189.6153,445.21417 L -1166.2171,439.97782 L -1178.1278,503.22475 L -1194.5365,502.36253 L -1206.7695,467.1232 L -1200.0209,502.36253 L -1215.985,502.79993 z"
           id="path3575"
           sodipodi:nodetypes="ccccccccccc" />
        <g
           id="g3598"
           transform="translate(-17.714286,-11.231201)">
          <g
             transform="translate(-27.179386,-0.5050763)"
             id="g3591">
            <g
               id="g3581">
              <path
                 transform="matrix(0.7538739,0,0,0.88,-302.25853,58.239581)"
                 d="M -1206.6272,493.74783 A 28.031733,25.253813 0 1 1 -1262.6907,493.74783 A 28.031733,25.253813 0 1 1 -1206.6272,493.74783 z"
                 sodipodi:ry="25.253813"
                 sodipodi:rx="28.031733"
                 sodipodi:cy="493.74783"
                 sodipodi:cx="-1234.6589"
                 id="path3571"
                 style="fill:#000000;fill-opacity:1;stroke:none;stroke-width:2;stroke-linecap:round;stroke-linejoin:round;stroke-miterlimit:4;stroke-dasharray:none;stroke-opacity:1"
                 sodipodi:type="arc" />
              <path
                 transform="matrix(0,1,-1,0,-749.42349,1719.1479)"
                 d="M -1229.2857,483.61218 A 6.6071429,5.1785712 0 1 1 -1242.5,483.61218 A 6.6071429,5.1785712 0 1 1 -1229.2857,483.61218 z"
                 sodipodi:ry="5.1785712"
                 sodipodi:rx="6.6071429"
                 sodipodi:cy="483.61218"
                 sodipodi:cx="-1235.8928"
                 id="path3579"
                 style="fill:#ffffff;fill-opacity:1;stroke:none;stroke-width:2;stroke-linecap:round;stroke-linejoin:round;stroke-miterlimit:4;stroke-dasharray:none;stroke-opacity:1"
                 sodipodi:type="arc" />
            </g>
          </g>
          <g
             transform="translate(13.403134,-1.2989832)"
             id="g3585">
            <path
               sodipodi:type="arc"
               style="fill:#000000;fill-opacity:1;stroke:none;stroke-width:2;stroke-linecap:round;stroke-linejoin:round;stroke-miterlimit:4;stroke-dasharray:none;stroke-opacity:1"
               id="path3587"
               sodipodi:cx="-1234.6589"
               sodipodi:cy="493.74783"
               sodipodi:rx="28.031733"
               sodipodi:ry="25.253813"
               d="M -1206.6272,493.74783 A 28.031733,25.253813 0 1 1 -1262.6907,493.74783 A 28.031733,25.253813 0 1 1 -1206.6272,493.74783 z"
               transform="matrix(0.7538739,0,0,0.88,-302.25853,58.239581)" />
            <path
               sodipodi:type="arc"
               style="fill:#ffffff;fill-opacity:1;stroke:none;stroke-width:2;stroke-linecap:round;stroke-linejoin:round;stroke-miterlimit:4;stroke-dasharray:none;stroke-opacity:1"
               id="path3589"
               sodipodi:cx="-1235.8928"
               sodipodi:cy="483.61218"
               sodipodi:rx="6.6071429"
               sodipodi:ry="5.1785712"
               d="M -1229.2857,483.61218 A 6.6071429,5.1785712 0 1 1 -1242.5,483.61218 A 6.6071429,5.1785712 0 1 1 -1229.2857,483.61218 z"
               transform="matrix(0,1,-1,0,-749.42349,1719.1479)" />
          </g>
        </g>
        <path
           sodipodi:type="arc"
           style="fill:#000000;fill-opacity:1;stroke:none;stroke-width:2;stroke-linecap:round;stroke-linejoin:round;stroke-miterlimit:4;stroke-dasharray:none;stroke-opacity:1"
           id="path3815"
           sodipodi:cx="-1160.3572"
           sodipodi:cy="499.86218"
           sodipodi:rx="10.357142"
           sodipodi:ry="10.357142"
           d="M -1150,499.86218 A 10.357142,10.357142 0 1 1 -1170.7143,499.86218 A 10.357142,10.357142 0 1 1 -1150,499.86218 z"
           transform="matrix(0.3562646,0,0,0.3562646,-756.55878,321.45167)" />
        <g
           id="g3840"
           transform="matrix(0.3562646,0,0,0.3562646,-756.94049,324.65611)">
          <path
             sodipodi:nodetypes="ccccccccccc"
             id="path3828"
             d="M -1143.3566,500.79995 L -1149.2683,448.13878 L -1137.5371,445.46565 L -1118.4957,482.74491 L -1116.9869,443.21419 L -1093.5887,437.97784 L -1105.4994,501.22477 L -1121.9081,500.36255 L -1134.1411,465.12322 L -1127.3925,500.36255 L -1143.3566,500.79995 z"
             style="fill:#000000;fill-opacity:1;fill-rule:evenodd;stroke:none;stroke-width:1px;stroke-linecap:butt;stroke-linejoin:miter;stroke-opacity:1" />
          <path
             sodipodi:nodetypes="ccccccccc"
             id="path3830"
             d="M -1050.7902,455.82367 L -1053.0349,468.13457 L -1039.1856,465.92091 L -1044.277,500.62013 L -1021.1738,500.72477 L -1029.4592,465.83636 L -1014.194,467.41304 L -1009.9924,446.96304 L -1050.7902,455.82367 z"
             style="fill:#000000;fill-opacity:1;fill-rule:evenodd;stroke:#000000;stroke-width:1px;stroke-linecap:butt;stroke-linejoin:miter;stroke-opacity:1" />
          <g
             id="g3836">
            <path
               style="fill:#000000;fill-opacity:1;fill-rule:evenodd;stroke:#000000;stroke-width:1px;stroke-linecap:butt;stroke-linejoin:miter;stroke-opacity:1"
               d="M -1069.6429,487.54075 C -1066.1309,486.23123 -1061.369,485.10028 -1055.7143,483.07647 C -1060.2933,492.56249 -1074.8715,506.18198 -1088.5715,498.43362 C -1102.176,490.73931 -1103.1494,474.96023 -1090,460.21933 C -1076.8506,445.47844 -1065.8948,456.30697 -1056.0714,474.86219 C -1065,478.07647 -1078.3479,482.55345 -1087.2765,485.76773 C -1092.1736,496.70041 -1073.0646,500.41781 -1069.6429,487.54075 z"
               id="path3832"
               sodipodi:nodetypes="cczzccc" />
            <path
               style="fill:#ffffff;fill-opacity:1;fill-rule:evenodd;stroke:#000000;stroke-width:1px;stroke-linecap:butt;stroke-linejoin:miter;stroke-opacity:1"
               d="M -1084.6537,477.93471 C -1080.0939,476.48929 -1073.7812,474.13059 -1069.2214,472.68518 C -1073.4605,458.9705 -1083.4415,465.98958 -1084.6537,477.93471 z"
               id="path3834"
               sodipodi:nodetypes="ccc" />
          </g>
        </g>
      </g>
    </g>
    <path
       style="fill:#ffffff;fill-opacity:0.15686275;fill-rule:evenodd;stroke:none;stroke-width:1px;stroke-linecap:butt;stroke-linejoin:miter;stroke-opacity:1;filter:url(#filter3990)"
       d="M -1292.9214,491.72752 C -1294.7312,487.77109 -1285.9976,494.26343 -1277.5165,494.14242 C -1269.0355,494.02141 -1260.8069,487.28706 -1262.1117,490.71737 C -1265.5423,497.14501 -1271.396,500.59512 -1277.3164,500.83953 C -1283.2369,501.08394 -1289.224,498.12266 -1292.9214,491.72752 z"
       id="path3976"
       sodipodi:nodetypes="cscsc"
       transform="matrix(1.9786302,0,0,1.9786302,3005.9443,-385.63875)" />
    <path
       style="fill:#ffffff;fill-opacity:0.15686275;fill-rule:evenodd;stroke:none;stroke-width:1px;stroke-linecap:butt;stroke-linejoin:miter;stroke-opacity:1;filter:url(#filter3990)"
       d="M -1252.4961,491.64781 C -1254.3059,487.69138 -1245.5723,494.18372 -1237.0912,494.06271 C -1228.6102,493.9417 -1220.3816,487.20735 -1221.6864,490.63766 C -1225.117,497.0653 -1230.9707,500.51541 -1236.8911,500.75982 C -1242.8116,501.00423 -1248.7987,498.04295 -1252.4961,491.64781 z"
       id="path3994"
       sodipodi:nodetypes="cscsc"
       transform="matrix(1.9786302,0,0,1.9786302,3005.9443,-385.63875)" />
  </g>
</svg>
