/* XPM */
const char *dropper_xpm[] = {
/* columns rows colors chars-per-pixel */
"33 33 256 2",
"   c #3F170B",
".  c #3C200A",
"X  c #3B2417",
"o  c #196745",
"O  c #236945",
"+  c #4A1E07",
"@  c #462208",
"#  c #462C1B",
"$  c #43311E",
"%  c #522202",
"&  c #5A2A09",
"*  c #582806",
"=  c #582814",
"-  c #403021",
";  c #562E20",
":  c #652504",
">  c #6A3303",
",  c #7C2F00",
"<  c #723400",
"1  c #793900",
"2  c #703412",
"3  c #59493B",
"4  c #564636",
"5  c #7A4C17",
"6  c #65473B",
"7  c #724724",
"8  c #6F6637",
"9  c #7B6B29",
"0  c #5C5950",
"q  c #4D7868",
"w  c #625244",
"e  c #616058",
"r  c #726354",
"t  c #6B6960",
"y  c #716E64",
"u  c #7B776B",
"i  c #3D8C70",
"p  c #349F76",
"a  c #60803F",
"s  c #518A5D",
"d  c #5C926F",
"f  c #43A869",
"g  c #709A43",
"h  c #6C8F7B",
"j  c #65926E",
"k  c #61917D",
"l  c #729278",
"z  c #6BAD79",
"x  c #75A477",
"c  c #359C81",
"v  c #579981",
"b  c #5FA09C",
"n  c #49B585",
"m  c #609D80",
"M  c #70B391",
"N  c #64A787",
"B  c #70B6A7",
"V  c #78BDBF",
"C  c #4DC795",
"Z  c #842C01",
"A  c #833000",
"S  c #8A3603",
"D  c #8B3B01",
"F  c #894703",
"G  c #984601",
"H  c #8F5021",
"J  c #9B6407",
"K  c #9C6020",
"L  c #9E6935",
"P  c #A74601",
"I  c #A04D12",
"U  c #A45908",
"Y  c #B15002",
"T  c #BA5C05",
"R  c #AD6C07",
"E  c #A56219",
"W  c #B06204",
"Q  c #B46D12",
"!  c #A46332",
"~  c #AD762D",
"^  c #B86F33",
"/  c #B97537",
"(  c #B37632",
")  c #846B51",
"_  c #817A54",
"`  c #857E59",
"'  c #817362",
"]  c #857E71",
"[  c #927D66",
"{  c #CF6D04",
"}  c #C0691F",
"|  c #C0740B",
" . c #CF6F21",
".. c #C37C35",
"X. c #D17A2E",
"o. c #CB7B29",
"O. c #80953B",
"+. c #888837",
"@. c #8DA32D",
"#. c #A69436",
"$. c #88825D",
"%. c #8B8462",
"&. c #938D6A",
"*. c #90856B",
"=. c #948D75",
"-. c #96906E",
";. c #98916E",
":. c #969175",
">. c #9B9473",
",. c #99947D",
"<. c #9E9877",
"1. c #9F9979",
"2. c #97947E",
"3. c #80B25C",
"4. c #AC8146",
"5. c #B3824C",
"6. c #AB8753",
"7. c #A68E72",
"8. c #A29C7D",
"9. c #B6996A",
"0. c #A1A25C",
"q. c #A8A447",
"w. c #CE851D",
"e. c #CA9016",
"r. c #DE820C",
"t. c #D08017",
"y. c #D99000",
"u. c #CA8604",
"i. c #CB8628",
"p. c #C58136",
"a. c #C29535",
"s. c #DB8521",
"d. c #D08734",
"f. c #D59127",
"g. c #CBA42B",
"h. c #EE9826",
"j. c #E19438",
"k. c #EFAE2E",
"l. c #E9AE36",
"z. c #C98945",
"x. c #C99349",
"c. c #CE975B",
"v. c #D7994A",
"b. c #D79E59",
"n. c #C9A05E",
"m. c #DEA45F",
"M. c #CBA373",
"N. c #D4A265",
"B. c #D2A073",
"V. c #DBB273",
"C. c #E0A15E",
"Z. c #E6B14C",
"A. c #E8B05C",
"S. c #F2BE45",
"D. c #E5A868",
"F. c #E0A575",
"G. c #E6B46D",
"H. c #E5B778",
"J. c #EFC078",
"K. c #EBC468",
"L. c #9A9681",
"P. c #9C9983",
"I. c #909786",
"U. c #87AD8D",
"Y. c #83AB93",
"T. c #93BA9D",
"R. c #A19C86",
"E. c #A19E89",
"W. c #A5A18D",
"Q. c #A9A58D",
"!. c #AEA98C",
"~. c #A6A393",
"^. c #A9A592",
"/. c #A9A698",
"(. c #ACA995",
"). c #ADAA9A",
"_. c #B0AA8D",
"`. c #B1AC94",
"'. c #B1AD9A",
"]. c #B6B195",
"[. c #B4B09B",
"{. c #B8B39B",
"}. c #BDB89E",
"|. c #BEB397",
" X c #B5B1A1",
".X c #B7B4A9",
"XX c #B9B5A2",
"oX c #B9B7A9",
"OX c #BEBAA4",
"+X c #BDBBAB",
"@X c #BDBBB1",
"#X c #88CCB1",
"$X c #A0C3A1",
"%X c #C8A585",
"&X c #C3BB9D",
"*X c #D0AC89",
"=X c #DABD86",
"-X c #D4B091",
";X c #C1BCA4",
":X c #C0BCA9",
">X c #C0BEB3",
",X c #E4BA89",
"<X c #ECBF96",
"1X c #C5C1AC",
"2X c #C9C5AD",
"3X c #C5C0A3",
"4X c #C3C0B4",
"5X c #C5C3B9",
"6X c #C9C5B1",
"7X c #C9C7BD",
"8X c #CCC9B4",
"9X c #CBC9BD",
"0X c #D4C7AA",
"qX c #D1CCB4",
"wX c #D1CDBA",
"eX c #D6D2B6",
"rX c #D5D1BC",
"tX c #DAD5BA",
"yX c #DDD8BD",
"uX c #D9D5B7",
"iX c #EAC58F",
"pX c #E6D39D",
"aX c #F0C582",
"sX c #F3CB97",
"dX c #F5D695",
"fX c #EFCFAE",
"gX c #E8D4A9",
"hX c #E9D7BC",
"jX c #F6D6AF",
"kX c #F4D7B7",
"lX c #F0E1BA",
"zX c #CBCAC1",
"xX c #D0CEC6",
"cX c #D1CFC8",
"vX c #D5D2C0",
"bX c #D4D3CB",
"nX c #D9D5C2",
"mX c #DDD9C4",
"MX c #DDDAC9",
"NX c #DBDAD4",
"BX c #E1DBC3",
"VX c #E1DDCB",
"CX c #EDDDC4",
"ZX c #E0DFDA",
"AX c #E5E1CD",
"SX c #E6E2D1",
"DX c #E8E5D3",
"FX c #EBE8D6",
"GX c #EDEADA",
"HX c #E1E0DC",
"JX c #F0EDDF",
"KX c #F2EBD6",
"LX c #EFEDE0",
"PX c #F0EEE0",
"IX c #F2F0E5",
"UX c #F4F2E8",
/* pixels */
"FXFXFXFXGXFXqX8.` _ &.&.&.&.&.&.&.&.&.&.&.&.*.%._ 8.;XFXFXFXGXFXFX",
"FXFXFXFX8X8.>.&XtXyXmXyXyXyXyXyXyXyXyXtXtXeXqX2X&X!.>.&.}.FXGXFXFX",
"GXGXFX].$.3XyXyXmXBXSXDXDXDXDXDXDXDXDXDXSXVXnX0X&X|._._.%.`.FXGXFX",
"FXFX{.-.uXyXmXFXUXUXUXUXIXUXUXUXUXUXUXIXUXCX,Xb.N.n.9._.^.*.!.FXFX",
"FX2X$.uXyXAXIXUXIXIXIXIXUXPXUXPXIXIXIXIXCXC.F.,XV.x.4.6.~./.%.].DX",
"FX8.3XyXAXUXIXIXIXPXPXPXPXPXPXPXIXPXJXCXD.,XfX,Xc.5.( ! 7./.~.$.VX",
"8X>.yXBXIXIXPXPXPXPXPXPXJXJXJXPXGXIXhXD.<XkXG.i.../ K H [ /.).=.`.",
"8.&XyXFXIXIXIXGXLXPXGXGXJXJXPXKXlXgXv.D.sXA.t.p.p.E F 7 y /..X/.%.",
"` tXyXIXIXGXGXGXIXIXGXGXJXJXGXdXS.l.y.i.f.i.d.d.U D 2 4 u ).@X.X%.",
"_ yXBXIXIXPXIXGXGXGXGXIXGXJXJXH.k.K.Z.u.R ! ( W 1 & - t /.).@X@X=.",
"-.tXSXIXIXGXIXGXPXGXPXGXJXJXJXB.w.v.=Xx.Q U F < & $ e )..X).$XzX,.",
"-.hXSXUXIXGXGXLXJXPXGXGXGXGX*Xi.Q T ^ 5.~ R F % . 0 XX:X X).>X7XR.",
";.yXDXPXPXKXGXGXGXGXGXGXGX%Xx.H.C. .P I K H F * # ' >X:X X/.>X>XR.",
"-.tXDXIXIXGXGXGXJXGXGXFX%Xx.iXjXG.X.Y D S & * > + ] 8X:X X/.>X>XR.",
";.tXDXPXGXGXGXGXFXGXGX*Xv.aXsXH.c.Q Y P Z @ X # w /.wX:X X'.>XzXR.",
";.tXDXPXGXKXGXGXGXGX*Xf.Z.J.N.v. .T P Z = ; 2.~.+X7X>X:X'.'.>X>XR.",
";.uXDXPXGXGXFXFXFX-Xa.@.g.h.j.s.T P Z + 4 '.SXVXMXxX6XoX'./.>X5XR.",
";.uXDXJXGXGXFXFXhXx.O.C 3.e.r.{ Y Z % 3 XXDXSXVXnXwX6XXX'.~.>X5XR.",
";.uXSXJXGXFXFXFXpX#.M #Xn f g J Z @ w >XDXDXSXVXrXwX:XXX(.~.>X4XR.",
";.eXVXJXGXFXFXDXpXq.V B c p a 1 + 6 6XFXDXDXVXmXvX6X+X'.^.E.>X5XR.",
"&.qXVXKXFXDXDXDXgX0.b v s 9 , = w vXDXDXVXVXMXrX8X1XXX).W.E.>X5XR.",
"&.qXBXDXDXDXSXBXM.+.8 5 1 :   r wXSXVXVXVXVXrXwX6X:X'.^.E.E.5X5XR.",
"&.2XrXSXVXVXVX0X^ G , = ; # u mXVXVXVXVXnXrXwX6X:X{.(.W.P.~.zXzX8.",
"_ 3X6XMXBXnXmXqX) 6 6 ' [ R.rXmXnXnXtXrXwXqX6X:X{.'.^.P.P. XzXzX=.",
"$.{.;XrXvXwXrXN k rX;XrXrXrXrXrXeXeX8X6X2X1XOX X(.^.R.P.L.5XbXbX_ ",
"!.R.{.6X8X$Xz v i I.6X6X2X8X6X2X4X2X1X1XOXXX'._.W.W.P.,.).bXNX>X&.",
"tX` `.{.$Xz T.Y.o q OXOXOXOXOXOXOXXXXX{.'.(.^.W.R.P.2./.bXNXNX:.;X",
"FX_.,.(.;Xx U.j O h '.'.].'.].).'.(.(._.Q.Q.E.P.,.,.^.zXHXHX+X-.FX",
"FXVX<.R.).^.l j l W.^.^.^.^.Q.^.Q.Q.W.W.P.P.P.L.E.+XNXHXHXzX%.3XGX",
"FXFX:X<.R./..X:XoX.X[. X).'.).).).).).(.). X+X5XcXNXNXNX5X%.{.FXFX",
"GXFXFXqX8.&./.oX@X5X5XzX9X9XzX7XzX7X9XzXzXzXzXcXNXNXbX_.&.}.FXGXFX",
"GXFXFXFXFX].$.=.W.'.@X5X5X7X7X7X7X7X7X7XzXzXzX+X XP._ !.mXGXFXFXGX",
"FXGXFXFXGXFXGX;X8.;.$._ _ _ _ _ _ _ _ _ _ _ _ &.8.`.VXGXFXFXGXFXFX"
};
