/* XPM */
const char *light_table_xpm[] = {
/* columns rows colors chars-per-pixel */
"33 33 256 2",
"   c #2E0701",
".  c #3C0C00",
"X  c #4D1710",
"o  c #5D200D",
"O  c #50261B",
"+  c #6C1F09",
"@  c #60230C",
"#  c #773D1A",
"$  c #652F1A",
"%  c #663C2A",
"&  c #77401E",
"*  c #6C5935",
"=  c #7E5638",
"-  c #764D2F",
";  c #79653D",
":  c #754D43",
">  c #8D260C",
",  c #853015",
"<  c #9C381B",
"1  c #933D28",
"2  c #AF3D17",
"3  c #904117",
"4  c #864C1C",
"5  c #8D4A23",
"6  c #875925",
"7  c #895A37",
"8  c #974B20",
"9  c #975227",
"0  c #995A38",
"q  c #896327",
"w  c #8E6D33",
"e  c #82713E",
"r  c #936824",
"t  c #9A7629",
"y  c #9B7930",
"u  c #96633D",
"i  c #A5401B",
"p  c #AF4922",
"a  c #A74F32",
"s  c #A35C2C",
"d  c #A35D38",
"f  c #BA4A20",
"g  c #B75A25",
"h  c #B15F33",
"j  c #A26D23",
"k  c #A96839",
"l  c #A47A28",
"z  c #B16B2D",
"x  c #B86738",
"c  c #B7773A",
"v  c #855F45",
"b  c #846948",
"n  c #81734C",
"m  c #817A54",
"M  c #887D5B",
"N  c #996847",
"B  c #9F764F",
"V  c #896C56",
"C  c #8E6060",
"Z  c #9E7B65",
"A  c #977965",
"S  c #977F71",
"D  c #A36E43",
"F  c #A16053",
"G  c #AB7646",
"H  c #A37454",
"J  c #B47945",
"K  c #B37F5F",
"L  c #BC6649",
"P  c #A07D68",
"I  c #C04B21",
"U  c #CB622A",
"Y  c #C16A3A",
"T  c #C4732A",
"R  c #C57D39",
"E  c #C67847",
"W  c #C57A55",
"Q  c #C46D44",
"!  c #A9862D",
"~  c #AB8A36",
"^  c #B38625",
"/  c #B89021",
"(  c #B59536",
")  c #BDA03C",
"_  c #88815C",
"`  c #9E854F",
"'  c #8C8462",
"]  c #948D6B",
"[  c #958964",
"{  c #958973",
"}  c #99926E",
"|  c #9A957D",
" . c #9A9476",
".. c #AA8157",
"X. c #B99942",
"o. c #BF9456",
"O. c #BA8854",
"+. c #A58467",
"@. c #A78773",
"#. c #A49A7D",
"$. c #BB8A60",
"%. c #B08371",
"&. c #B99966",
"*. c #B6997A",
"=. c #BDA14A",
"-. c #BAA478",
";. c #C68332",
":. c #C39A25",
">. c #C99A36",
",. c #D29D2F",
"<. c #D59638",
"1. c #D0862E",
"2. c #DBAB3A",
"3. c #D7A835",
"4. c #CA8549",
"5. c #C98558",
"6. c #CB9849",
"7. c #D28F49",
"8. c #D79A45",
"9. c #D89E58",
"0. c #C79054",
"q. c #CA8666",
"w. c #CF8971",
"e. c #C39A65",
"r. c #CE9974",
"t. c #CDB351",
"y. c #DCA54A",
"u. c #DAAA48",
"i. c #DCA752",
"p. c #DBB747",
"a. c #D8BA57",
"s. c #C6A848",
"d. c #C7A767",
"f. c #CFAB7F",
"g. c #CBB478",
"h. c #D7A166",
"j. c #D5B86B",
"k. c #D5B978",
"l. c #CCB563",
"z. c #E1AD4E",
"x. c #E1AC56",
"c. c #E2B84A",
"v. c #E6BB58",
"b. c #E1BC6D",
"n. c #DCC65D",
"m. c #D2C16B",
"M. c #D8C677",
"N. c #E9C748",
"B. c #EAC759",
"V. c #ECD046",
"C. c #F4D85C",
"Z. c #EBCC63",
"A. c #E7C866",
"S. c #E2CD79",
"D. c #E8D468",
"F. c #EAD775",
"G. c #F0CF62",
"H. c #F2D767",
"J. c #F2DA73",
"K. c #F7E36D",
"L. c #F6E678",
"P. c #FDF278",
"I. c #9D9982",
"U. c #9E9381",
"Y. c #A59484",
"T. c #A29B85",
"R. c #A69D88",
"E. c #B59C8D",
"W. c #A6A28C",
"Q. c #ABA28B",
"!. c #AEA78A",
"~. c #AAA491",
"^. c #AEAA9A",
"/. c #ABA794",
"(. c #B4A789",
"). c #B3AD91",
"_. c #B1AD9A",
"`. c #BBA99E",
"'. c #B6B195",
"]. c #B9B499",
"[. c #B9B398",
"{. c #B9B28C",
"}. c #B1AFA1",
"|. c #BDB9A4",
" X c #BCB9AC",
".X c #B8B4A3",
"XX c #D19B80",
"oX c #C89A80",
"OX c #C5A887",
"+X c #C3A59C",
"@X c #C3B488",
"#X c #C6B99A",
"$X c #D8AC98",
"%X c #D1BE8A",
"&X c #D9B597",
"*X c #D4A880",
"=X c #C1BDA3",
"-X c #C5B7A5",
";X c #C5B8B3",
":X c #DCB7A5",
">X c #E1B48A",
",X c #CDC18C",
"<X c #D8C486",
"1X c #D9C994",
"2X c #D9D09D",
"3X c #CAC199",
"4X c #C9C5AD",
"5X c #C7C2A9",
"6X c #CDCAB5",
"7X c #C7C3B5",
"8X c #D6C6A9",
"9X c #D3CDB4",
"0X c #D1CDBA",
"qX c #D8C9B7",
"wX c #D5D1B6",
"eX c #DED9BD",
"rX c #D9D3BA",
"tX c #E0CF83",
"yX c #E9D88A",
"uX c #E6D695",
"iX c #F3DD88",
"pX c #E0C9A4",
"aX c #E4D5BA",
"sX c #EBDCA7",
"dX c #F7E780",
"fX c #F1E399",
"gX c #FFF885",
"hX c #FDF79A",
"jX c #EFE2AA",
"kX c #F5EBA6",
"lX c #FEFAA2",
"zX c #FFFAAB",
"xX c #CCC9C1",
"cX c #D3CBC4",
"vX c #D5D3CC",
"bX c #DDD9C4",
"nX c #D9D5C6",
"mX c #D7D6D0",
"MX c #D8D7D0",
"NX c #DAD9D1",
"BX c #E0DAC3",
"VX c #E2DCCB",
"CX c #E9D9C7",
"ZX c #E5DED5",
"AX c #E6E1CB",
"SX c #E5E2D1",
"DX c #EAE5D3",
"FX c #EBE8D6",
"GX c #ECE9D8",
"HX c #EDE5D8",
"JX c #FFFAC8",
"KX c #FFFBD9",
"LX c #F0EEE1",
"PX c #F2F0E5",
"IX c #F5F4E7",
"UX c #FFFEF4",
/* pixels */
"GXGXFXGXGX9XW._ m ] ] } ] ] ] M * ; ; e e b b * ; 5XFXGXGXGXGXFXGX",
"GXGXFX6X .} #XrXbXeXaXeXeXeXaX-X#X&X2X1X#X#X#X8X{.} [ ].FXGXGXGXGX",
"FXFX'._ 5XeXeXeXCXAXDXCXSXSX9XE.@X1XyX,XOXOX8X2X1X3X{.] ).GXFXGXGX",
"GX[.] wXeXbXFXPXIXIXIXIXIXLX;XP k.iXiXk.oXjXkXjX2X,X@X[.] !.GXGXGX",
"6X' wXaXAXPXIXPXIXIXLXIXLXGX+XH b.J.D.e.1XkXfXuX1X,X-.{.'.' '.FXGX",
"#.].eXVXPXPXPXLXLXLXLXLXLXGX+XL a.J.A.q.yXfXyX<XM.@Xg.-.!.!._ bXGX",
"} rXBXLXLXCX:X$X$X:XCXLXLXGX-XK i.H.Z.0.yXyXtX<Xk.j.g.-.*.Q.] '.GX",
"].rXHXHXw.Q Y x Y E 5.&XZXLX;XK 6.B.Z.E h.yXtXM.j.d.&.&.+.@.R._ GX",
"wXeXAXq.Q E 9.z.y.z.y.7.h.HXCXK J B.Z.6.x M.M.k.j.&.o...H Z W.' wX",
"wXBXr.E 4.8.z.G.J.K.J.B.8.>XHXE.0 u.B.6.d h O.e.d.o.k D B Z ~.] =X",
"qXaXW 5.9.x.J.L.hXzXhXgXG.x.GXqXN J a.6.0 x c J k s s G H Z /.| '.",
"wX$Xq.5.i.v.L.hXJXKXJXhXL.v.LXHX*.k 4.7.c S.j.0.~ c d.j...P Q.U.).",
"wX&X5.4.i.v.P.zXKXUXIXzXP.Z.GXLXpXc 7.4.R A.dXdXF.F.M.M.B [ Q.Y.).",
"wX:X5.4.y.v.P.hXJXKXJXlXP.v.GXGXCXJ u.7.x 4.J.L.L.F.F.M.N Z Q.I.).",
"wXVXW E y.z.H.gXlXzXhXgXH.i.CXGXAX$.<.v.h.E ;.,.t.N.a.m.N Z (.| ).",
"wXSXW Y 7.<.v.H.P.P.P.K.v.i.CXGXDXf.c c.D.S.0.k c >.a.a.u Z !.| ).",
"9XZXXXx R <.z.c.B.C.C.B.<.h.HXGXFX%Xx c.K.L.dXF.O.:.n.=.7 A !.| ).",
"9XZXLXL U T <.y.z.z.c.3.1.9.DXHXFXpXz 2.D.L.dXF.D :.t.o.u A !.| ).",
"4XAXGXHXL g z T T <.z.V.2.7.CXHXDXpXk <.B.H.L.L.0 :.s.s.7 A R.T.).",
"4XbXSXSXBX$Xq.x g T 2.N.3.T pXZXDXqXG ;.N.D.F.D.9 :.s.( 7 A R.| ).",
"5XnXSXAXAXAXSXAXq.Y T 1.T U a +XAXaXO.z c.B.D.D.9 / X.( 7 A R.I.).",
"].wXNXnXVXbXVXAXaX*Xs 3 4 U 2 F CXrX&.s 3.p.B.m.9 ^ ( ~ 7 { ~.I.).",
"].6XrXcXnXnXnXbXbX4X% . o i f 1 ;XrX*.9 >.s.a.t.9 ! ~ y v | /.| ].",
"_.|.6X6X6X0X0X0XrX-X:   X , f < C :XoX5 ^ ( ( ( 4 t l y A R._.{ =X",
"/._.7X5X X4X4X4X4X4XQ.O . o 2 > O -XE.7 j ( ~ t 3 q t w Y.~.;Xm GX",
"| /..X.X|.|.|..X|.|..XV . . + > : ].(.v 4 ! t r & q t [ ^..X_.{ FX",
"_ W.^.}.^._.^._._.'._.I.- O O F E./.R.7 # t r 6 & 6 ` -X;X7X' -XGX",
"!. ./.^.^./.W.W.~.W.~.~.U.S S R.W.R.#.b $ q 6 6 - M #X0XxX_.] FXGX",
"bX .W.}. X}./.W.I.I.I.I.R.I.I.I.T.T.U.b % - - N Y.6XnXvX;X_ 5XGXGX",
"GX5X .W. X7X7X7X X.X.X}.}.^._.^._.^.^.Y.S Y.`.qXnXNXNX7X_ ].GXGXFX",
"GXGX6X| ]  XxXvXvXvXmXmXmXmXmXNXmXmXmXmXcXcXvXNXZXNX/.] ].FXGXGXGX",
"GXGXGXGX^._ | /. XxXvXmXmXmXmXmXmXmXmXmXvXcX7X.XR.M !.nXGXGXGXFXGX",
"GXGXGXGXGXGX=X#.} _ m m m m m m m m m m m m ] } '.AXGXGXGXGXGXGXGX"
};
