/* XPM */
const char *new_xpm[] = {
/* columns rows colors chars-per-pixel */
"33 33 257 2",
"   c #1C1A18",
".  c #300E02",
"X  c #3A1508",
"o  c #271A11",
"O  c #3E220F",
"+  c #3F3603",
"@  c #312F29",
"#  c #2D2925",
"$  c #440F00",
"%  c #461703",
"&  c #501E0A",
"*  c #562009",
"=  c #4E2718",
"-  c #5F3920",
";  c #433524",
":  c #602F0B",
">  c #6A3608",
",  c #693814",
"<  c #782B0C",
"1  c #722C11",
"2  c #783517",
"3  c #632D18",
"4  c #603621",
"5  c #4B4023",
"6  c #474139",
"7  c #544736",
"8  c #6B4311",
"9  c #7B451D",
"0  c #7A4925",
"q  c #714934",
"w  c #74582A",
"e  c #664E36",
"r  c #756131",
"t  c #4E4A41",
"y  c #585449",
"u  c #745D4B",
"i  c #6C604A",
"p  c #6F6B51",
"a  c #716F66",
"s  c #842F0B",
"d  c #8A340A",
"f  c #843915",
"g  c #913B0B",
"h  c #864718",
"j  c #8E5A0F",
"k  c #8A521D",
"l  c #96420D",
"z  c #964914",
"x  c #905009",
"c  c #9B581B",
"v  c #864C21",
"b  c #835E3F",
"n  c #935924",
"m  c #9C691B",
"M  c #8E7132",
"N  c #93612F",
"B  c #9C6938",
"V  c #997730",
"C  c #9C7924",
"Z  c #A44B16",
"A  c #A45111",
"S  c #A95A14",
"D  c #A5651B",
"F  c #A57117",
"G  c #BB6919",
"H  c #B2671A",
"J  c #B57E14",
"K  c #AC6409",
"L  c #A66929",
"P  c #A57938",
"I  c #B76F21",
"U  c #B6782D",
"Y  c #895F4A",
"T  c #8A614B",
"R  c #866A55",
"E  c #817A54",
"W  c #8A7758",
"Q  c #966948",
"!  c #966F50",
"~  c #967454",
"^  c #8B7A69",
"/  c #937767",
"(  c #C06F1F",
")  c #C6751C",
"_  c #C47B27",
"`  c #C0793A",
"'  c #B88A1B",
"]  c #AB8327",
"[  c #B5892B",
"{  c #BD8B3B",
"}  c #88815D",
"|  c #9B8857",
" . c #8B8462",
".. c #8A8674",
"X. c #8C8976",
"o. c #8C8876",
"O. c #938D6A",
"+. c #928964",
"@. c #948975",
"#. c #96906E",
"$. c #98916E",
"%. c #969175",
"&. c #9B9578",
"*. c #A48349",
"=. c #A58B5E",
"-. c #AD935F",
";. c #B78946",
":. c #B8995A",
">. c #A88868",
",. c #AB9869",
"<. c #A39979",
"1. c #B29876",
"2. c #B59961",
"3. c #B8A779",
"4. c #B8A16B",
"5. c #C28716",
"6. c #C99616",
"7. c #D09D1C",
"8. c #CC8627",
"9. c #C8992A",
"0. c #C39231",
"q. c #D28624",
"w. c #D89937",
"e. c #D6A719",
"r. c #DCB71A",
"t. c #CDA434",
"y. c #DAB828",
"u. c #D5B039",
"i. c #E09E39",
"p. c #E4B416",
"a. c #E0A53E",
"s. c #E2B422",
"d. c #E5BA36",
"f. c #C89040",
"g. c #CC9E50",
"h. c #C7A456",
"j. c #CFB057",
"k. c #DAA146",
"l. c #D7AA57",
"z. c #D5B74B",
"x. c #DBB852",
"c. c #C4A865",
"v. c #D4AE65",
"b. c #D9B464",
"n. c #E3A747",
"m. c #E2AE56",
"M. c #E7BC40",
"N. c #E2B85D",
"B. c #E2BA65",
"V. c #EBC816",
"C. c #EDD009",
"Z. c #F2D30F",
"A. c #EFD011",
"S. c #E7C525",
"D. c #EFD524",
"F. c #EED335",
"G. c #EBD23A",
"H. c #DEC959",
"J. c #DDC968",
"K. c #E2C554",
"L. c #EAD149",
"P. c #E8CC4F",
"I. c #E5CF74",
"U. c #E9DD6F",
"Y. c #EADE71",
"T. c #F7E57D",
"R. c #999685",
"E. c #9D9984",
"W. c #999787",
"Q. c #A19C85",
"!. c #A29D8A",
"~. c #A49584",
"^. c #A5A18D",
"/. c #AAA48C",
"(. c #AEA98C",
"). c #A5A292",
"_. c #A9A593",
"`. c #ADA994",
"'. c #ADAA9B",
"]. c #A9A798",
"[. c #B0AA8D",
"{. c #B1AD95",
"}. c #B1AD9B",
"|. c #B6B195",
" X c #B4B19C",
".X c #B8B39B",
"XX c #BBB69A",
"oX c #B5AEA4",
"OX c #B5B2A2",
"+X c #BAB5A4",
"@X c #BCBBA6",
"#X c #BEBBAB",
"$X c #B7B4A9",
"%X c #BEBAB0",
"&X c #C3BD9B",
"*X c #C1BCA3",
"=X c #C1BCA9",
"-X c #C1BEB2",
";X c #CFC681",
":X c #D3CC9D",
">X c #D7CD92",
",X c #C3C0A3",
"<X c #C5C3AA",
"1X c #C9C4AC",
"2X c #CBCBA8",
"3X c #C9C8A5",
"4X c #C3C1B4",
"5X c #C5C3B9",
"6X c #C9C2B2",
"7X c #C9C6BD",
"8X c #CBC9BC",
"9X c #CDCAB7",
"0X c #D0CBAE",
"qX c #D0CCBA",
"wX c #D2CDB2",
"eX c #D3D3AC",
"rX c #DBDBAD",
"tX c #DAD5BA",
"yX c #DDDDB0",
"uX c #DDD8BD",
"iX c #D6D2B8",
"pX c #EDDC81",
"aX c #E3DC93",
"sX c #E6DBA9",
"dX c #F4D6A7",
"fX c #EBE282",
"gX c #EAE698",
"hX c #E5E4AB",
"jX c #E3E3B3",
"kX c #EBEBB4",
"lX c #EBEBBA",
"zX c #EEF0BD",
"xX c #FBF1BC",
"cX c #CCCBC2",
"vX c #D3CEC4",
"bX c #D4D2CA",
"nX c #D9D6C5",
"mX c #DDDBD3",
"MX c #D9D7D1",
"NX c #E1DCC4",
"BX c #E0DDD0",
"VX c #E1DFDA",
"CX c #E4E1CB",
"ZX c #E8E4CF",
"AX c #E5E3D4",
"SX c #E4E3DA",
"DX c #E8E5D3",
"FX c #EDEBDC",
"GX c #E9E7D6",
"HX c #F0EDDF",
"JX c #F0F3C9",
"KX c #EDEBE0",
"LX c #F0EEE0",
"PX c #F2F0E4",
"IX c #F4F2E8",
"UX c gray100",
"YX c None",
/* pixels */
"YXYXYXYXYXYX+ <.} E #.O.O.O.O.#.O.#.O.O.O.O.+.+.p <.*XYXYXYXYXYXYX",
"YXYXYXYX+ &.$.@XtXuXuXuXtXuXuXuXtXtXtXtXtXwX0X1X<X[.%.O.XXYXYXYXYX",
"YXYXYX|.} ,XNXuXNXNXZXDXDXGXDXGXDXGXDXDXAXCXnXqX1X@X|./. .[.YXYXYX",
"YXYX XO.tXuXNXGXPXIXPXPXPXIXIXPXPXIXIXPXIXPXLXSXBXqX#X X'.O.`.YXYX",
"YX+ } tXuXCXPXIXPXPXPXPXPXPXPXPXPXPXPXPXPXKXFXGXBXnX8X@X}.]. .{.YX",
"YX& 3XuXCXIXPXPXPXPXPXLXHXHXHXHXLXPXLXPXLXKXFXAXBXbX8X-XOX'.).} + ",
"+ p uXuXPXIXLXLXHXHXHXHXHXHXLXLXFXKXLXKXLXFXFXDXBXbX8X-X$X}.}.%.{.",
"<.&XuXGXPXLXLXLXLXHXHXHXPXT.D.A.V.V.S.M.d.P.N.x.z.j.h.:.,./.$X].} ",
"} yXnXPXPXLXHXHXHXFXHXHXxXZ.D.L.D.p.r.d.e.y.e.e.7.6.' ' ] *.|.$X .",
"E yXNXIXLXHXHXHXFXHXHXHXG.C.gXJXkXgXfXU.L.G.S.r.e.6.' m k *.|.%X%.",
"#.tXCXPXHXHXFXFXFXFXFXT.A.U.lXkXkXlXlXzXJXzXkXhXy.6.' > k B @X-X&.",
"#.uXZXIXHXFXFXFXFXFXxXC.L.jXjXjXjXjXkXkXkXkXkXaXr.' C 9 B W -X5XQ.",
"$.uXZXPXLXFXFXFXFXGXF.V.gXjXyXiXyXsXjXjXjXjXkXP.e.] 7 ~._._.-X5XQ.",
"#.tXZXLXLXFXFXFXGXT.s.J.sXrXrXeXrXyXyXjXjXjXaXe.6.e +X#XOX_.5X5XQ.",
"$.tXhXLXFXFXFXFXkXy.u.;XrXrXeXeXeXeXeXrXyXyXH.7.C R.9X#XOX].-X5XQ.",
"$.tXN.i.dXFXGXCXz.t.b.2XeXeX2XeXeXeXeXeXrX:Xe.' i 8X6X@X}._.-X5XQ.",
"$.uXl.` Z q.GXI.9.z.&X3X<X3X2X2X2XeXeX2XeXz.9.M OXqX4X@X}._.-X5XQ.",
"$.tXb.{ v < K e.9.3.XX@X@X@X.X@X,X2X3X2X;X7.[ i nXqX<X$X'._.-X5XQ.",
"$.iXB.n.[ h x 5.0.-.!.'.OX}.}.OX X,XXX,Xt.t.r ).iX9X<XOX].).-X5XQ.",
"#.iXb.i.i.q.I K D P =.<.).!.'.^.{.(.|.4.9.[ 7 nXqX9X@X}._.!.-X5XQ.",
"O.iXl.n.i.q.) ) S k N ~ @.@.~.~.^.^.Q.9.0.w OXtX9X<XOX'.^.Q.4X5XQ.",
"O.0Xb.N.n.w.q.) G L k v b W ~ ^ ^ X.P 5.] @ 8X9X1X#X X[.^.!.5X5XQ.",
"O.1Xv.m.n.w.) ) ) G H n 0 0 q u u p F ' 5 a 6X6X#XOX`.^.W.).7XcXQ.",
"E *Xv.l.k.w.q.) ) G G S c v , 4 e w K F   y }.#X.X{.^.!.E.OXcXcX&.",
"} XX4.j.k.k.8._ G G S S A A z , 3 8 j , o   a oX{._.Q.E.R.5XbXbXp ",
"(.Q.4.c.g.0.U H H H S A A l z l 2 * > X % 3 # 6 ^.Q.W.&.}.bXMX-XO.",
"& E 3.2.:.;.U H D c A l l g g g d < & . $ $ = o 6 ..&.).bXmXmX%..X",
"YX|.&.,.-.;.{ L L n z z l f d s s < 1 = % % $ & O ; o.cXVXVX#X%.YX",
"YX+ &.=.,.>.*.P B n h v h f f f f 2 2 1 3 = = = 4 @.-XbXVXcX .+ YX",
"YXYX+ &.| ,.1.1.>.>.~ ! Q ! ! T T T T T ! / / ~.-X7XvXbX$X .|.YXYX",
"YXYXYX& -.+._.*X=X=X=X-X6X6X6X6X6X6X6X6X-X-X-X-XbXMXbX_.} .XYXYXYX",
"YXYXYXYX+ {.W @.!.}.-X5X7XcX5XcX7X7X7XcX7XcXvX=X=X~.E (.+ YXYXYXYX",
"YXYXYXYXYXYXYX@X<.%.} E E E E E E E E E E E E #.&.|.+ YXYXYXYXYXYX"
};
