/* XPM */
const char *nodes_xpm[] = {
/* columns rows colors chars-per-pixel */
"33 33 257 2",
"   c #170806",
".  c #1D1816",
"X  c #2B0C02",
"o  c #240301",
"O  c #370E06",
"+  c #2F1910",
"@  c #3E3603",
"#  c #332F29",
"$  c #34302C",
"%  c #003C5D",
"&  c #1E3F5D",
"*  c #262574",
"=  c #04585D",
"-  c #184F72",
";  c #165B6F",
":  c #18587C",
">  c #0F6757",
",  c #007463",
"<  c #0D7F7E",
"1  c #28575F",
"2  c #345B6B",
"3  c #217554",
"4  c #4A1602",
"5  c #541B06",
"6  c #593419",
"7  c #592E06",
"8  c #483A31",
"9  c #772A05",
"0  c #7C3B10",
"q  c #46403B",
"w  c #544431",
"e  c #434A29",
"r  c #7E420E",
"t  c #6E663A",
"y  c #6D6539",
"u  c #70683C",
"i  c #744A2F",
"p  c #595147",
"a  c #565D7D",
"s  c #496473",
"d  c #61475B",
"f  c #766048",
"g  c #7E7565",
"h  c #00269B",
"j  c #003988",
"k  c #09389F",
"l  c #003AA2",
"z  c #005486",
"x  c #1B6993",
"c  c #1F73A0",
"v  c #204A9D",
"b  c #276B8D",
"n  c #2368A1",
"m  c #4656AA",
"M  c #507B91",
"N  c #4872B1",
"B  c #6C78BA",
"V  c #068B58",
"C  c #009469",
"Z  c #1A9A60",
"A  c #00A273",
"S  c #1EB371",
"D  c #19A565",
"F  c #248957",
"G  c #22BF79",
"H  c #39C257",
"J  c #25C173",
"K  c #458962",
"L  c #008F90",
"P  c #009DA5",
"I  c #208FA2",
"U  c #2D98AA",
"Y  c #27ABA8",
"T  c #3BB6B5",
"R  c #11B690",
"E  c #1DDA96",
"W  c #1ACFA1",
"Q  c #35D59F",
"!  c #25C49C",
"~  c #37D8A5",
"^  c #2EC6A4",
"/  c #4F99AE",
"(  c #4091B9",
")  c #7C8B86",
"_  c #7185BB",
"`  c #7DA7B0",
"'  c #6AB8B5",
"]  c #6F8EC4",
"[  c #71B0D5",
"{  c #5CE3B2",
"}  c #60D5BF",
"|  c #69E5B5",
" . c #7CE5C3",
".. c #873603",
"X. c #834304",
"o. c #8F530F",
"O. c #805115",
"+. c #954F1F",
"@. c #82593F",
"#. c #925D28",
"$. c #AB6B0F",
"%. c #B96106",
"&. c #BC6E22",
"*. c #AE783A",
"=. c #B14C10",
"-. c #827A6B",
";. c #987561",
":. c #927157",
">. c #D1780B",
",. c #D57F11",
"<. c #C46705",
"1. c #8B8565",
"2. c #8D8A73",
"3. c #8A8674",
"4. c #928C69",
"5. c #908A67",
"6. c #918C73",
"7. c #918C7A",
"8. c #95917C",
"9. c #99957D",
"0. c #9C9678",
"q. c #86926A",
"w. c #AB8F78",
"e. c #DB8D0F",
"r. c #DA8814",
"t. c #DD951C",
"y. c #D58622",
"u. c #DE9A22",
"i. c #DD9833",
"p. c #CF882C",
"a. c #DCA53C",
"s. c #E29C1A",
"d. c #E39B25",
"f. c #E29E38",
"g. c #E7A416",
"h. c #E6A628",
"j. c #E5A735",
"k. c #ECB534",
"l. c #D89845",
"z. c #DFA251",
"x. c #D0A268",
"c. c #E09F46",
"v. c #E4A941",
"b. c #E4A848",
"n. c #EAB74C",
"m. c #EAB85C",
"M. c #E4A956",
"N. c #E4AF60",
"B. c #E7B464",
"V. c #EABC68",
"C. c #EEC157",
"Z. c #ECC063",
"A. c #EEC575",
"S. c #969381",
"D. c #999582",
"F. c #9E9A84",
"G. c #9E9A88",
"H. c #9D9788",
"J. c #88968B",
"K. c #8486A0",
"L. c #90AD90",
"P. c #9DBDAA",
"I. c #97B2B0",
"U. c #A09B85",
"Y. c #A19D8A",
"T. c #B99982",
"R. c #A5A18C",
"E. c #A8A48F",
"W. c #A8A385",
"Q. c #A5A292",
"!. c #A9A594",
"~. c #ACA894",
"^. c #ADAA9A",
"/. c #B2AB95",
"(. c #B2AE99",
"). c #B6B29C",
"_. c #B8B49D",
"`. c #BEB99C",
"'. c #B2AFA0",
"]. c #B6B4A8",
"[. c #B9B5A2",
"{. c #B8B6AA",
"}. c #BDB9A4",
"|. c #BBB9AD",
" X c #B4B1A4",
".X c #BEBCB2",
"XX c #AABDB2",
"oX c #8499C4",
"OX c #81A0C9",
"+X c #98ABCF",
"@X c #A4B3CB",
"#X c #8FDBB5",
"$X c #97C2A7",
"%X c #ACD3AE",
"&X c #ADD0B7",
"*X c #B6D6B1",
"=X c #91C2DE",
"-X c #81E7C0",
";X c #96EDC8",
":X c #B5C0C2",
">X c #BFD3DD",
",X c #A1EED2",
"<X c #B3E8CB",
"1X c #C3BEA9",
"2X c #C1BCA0",
"3X c #C0BEB3",
"4X c #C5C1AC",
"5X c #CAC5A9",
"6X c #C5C3B3",
"7X c #C5C4BB",
"8X c #C9C5B2",
"9X c #C8C6BD",
"0X c #CCC8B4",
"qX c #CBCAB9",
"wX c #D2CEBA",
"eX c #D2CEB3",
"rX c #D5D1B6",
"tX c #DAD5BA",
"yX c #DDD8BD",
"uX c #D5D1BA",
"iX c #EAC486",
"pX c #F4D58A",
"aX c #EDDFBB",
"sX c #F7DFA4",
"dX c #F1DAB4",
"fX c #CACAC3",
"gX c #D1CEC0",
"hX c #D3D1C1",
"jX c #D9D6C2",
"kX c #DCD9C4",
"lX c #DCDAC9",
"zX c #D4D5C9",
"xX c #DCDBD5",
"cX c #D8DAD7",
"vX c #DDE5D8",
"bX c #C7EFD8",
"nX c #DDF3E3",
"mX c #C7F5E4",
"MX c #E0DDCA",
"NX c #E4DDC4",
"BX c #E2DFD3",
"VX c #E4E1CD",
"CX c #EEE4C4",
"ZX c #E5E2D1",
"AX c #E8E5D3",
"SX c #E9E6DA",
"DX c #EDEBDC",
"FX c #E5E6D9",
"GX c #F0EBDC",
"HX c #F9ECCB",
"JX c #EDECE1",
"KX c #E3E3E0",
"LX c #F0EEE1",
"PX c #F2F0E5",
"IX c #F3F2E8",
"UX c gray100",
"YX c None",
/* pixels */
"YXYXYX,XmXYX@ @ @ @ 4.4.4.4.4.4.4.4.4.4.4.5.5.1.7 @ @ YXYXYXYXYXYX",
"YXYXYXYX@ @ q.`.rXtXtXrXtXtXtXtXtXrXrXeX8X5X`.(.E.9.5.@ @ YXYXYXYX",
"YXYXYX@ 7 L.%X%X*XzXBXSXAXAXAXAXAXZXVXVXlXjXwX4X_.E.U.D.-.@ YXYXYX",
"=X[ e 4.*XI.` ' }  .,XnXIXPXIXIXIXIXPXPXJXFXxXhXqX%X~.U.9.1.@ YXYX",
"YX@ @ rXkXlX>X+XB U T ~ -XbXPXIXJXIXPXJXDXSXxXlXwX3X].Q.G.S.1.@ YX",
"YX@ 4XyXVXPXJXvXvX+X] N I ^ | IXJXPXPXGXDXDXZXlXwX3X X!.Y.Q.D.@ @ ",
"@ 0.aXjXIXIXJXJXJXJXcXcXoXm U W | nXGXGXDXDXZXlXfX6X].!.Y.^.^.2.@ ",
"@ `.yXSXIXJXJXJXJXJXJXJXxXSX] N Y Q <XLXFXSXvXlXhX7X].^.Y.Q.].!.@ ",
"@ yXyXPXPXLXDXLXDXDXGXLXDXFXxXcXB M H <XDXAXvXlXhX6X[.!.Y.G.|.{.1.",
"@ yXNXPXPXLXDXDXDXLXDXDXLXGXSXFXcXK.C ! { ~ #XlXhX6X{.!.Y.H..X.X4.",
"u aXVXPXLXGXDXDXGXDXDXGXDXDXDXDXSX@Xk Y | E R / gX6X[.~.G.S..X7X0.",
"u yXVXPXGXGXDXDXDXDXDXDXDXDXDXDXGXB j z P L j b hX8X[.~.G.S..XfX9.",
"u tXAXPXGXDXDXDXDXDXDXDXDXDXDXDXiX;.d % l h , J &X6X[.~.G.S..XfXU.",
"u tXVXPXGXDXDXDXDXDXDXSXDXdXN.i.i.,.+.w * v n A S $X[.!.G.S..X7XU.",
"u yXAXPXLXDXDXDXDXDXDXpXb.i.z.M.M.z.+.8 7XAXlXc A S [.!.G.S..X9XU.",
"u tXVXPXDXDXDXAXHXA.h.j.m.B.B.a.c.&.7 q 6XAXZXlXx C Z L.G.S.3X9XU.",
"u yXAXGXGXDXsXm.h.v.V.V.B.n.h.h.d.$.O p 9XAXMXlXfX: V Z J.8..X7XY.",
"t yXVXLXpXk.g.k.C.V.V.B.j.h.s.s.r.X.. -.wXAXMXjX8XI.; V F S.|.fXF.",
"t yXCXC.g.s.h.j.j.j.f.j.d.f.d.e.%.4 q H.MXZXlXjX8X1XM = V K .XfXF.",
"y tXaXa.y.y.p.t.t.d.f.j.s.s.r.>.9   p 0XAXMXlXwX3X2X^.- > 3 XX7XF.",
"y tXaXx.*.o...0 r 0 +.&.y.,.>.%.4   -.AXBXMXjXwX4X_.!.) 1 3 P.3XF.",
"y rXNXtXT.w.:.@.i 6 5 9 =.,.>...X $ 2XMXMXkXwX8X}.(.R.D.1 1 P.fXF.",
"y rXyXSXAXAXAXMXtX/.f 7 ..%.<.5   H.wXlXkXwX0X1X[.!.Y.9.7.a XXfX9.",
"@ 8XeXZXMXMXMXMXMXMXU.6 5 ....X . (.jXjXwX0X1X}.~.R.9.7.2.J.@XzX6.",
"@ `.5XkXlXlXyXjXjXjXuX-.O 4 5   7.rXwX0X5X4X`./.R.F.8.2.2..XfXzX@ ",
"7 W.`.8XwXwXwXqXwXwXwX1XO O X   [.0X4X4X}._.^.R.F.8.2.2.Q.zXcX|.@ ",
"@ @ (.`.4X8X8X4X1X1X1X1X-.o o $ ~.}.}.`.(.!.R.F.8.6.2.D.fXxXcX3.@ ",
"YX@ 9.~.).}.}.}.2X[.[.2X/.8 + D.E.(./.~.R.Y.D.9.6.2.G.9XxXcX].@ YX",
"YX@ @ F.~.^.^.~.^.!.!.!.T.K g R.E.R.R.F.D.D.7.2.S. XfXcXcX&X7 @ YX",
"YXYX@ @ 9.Q.Q.^.^.'./.^./.Q.!.~.!.!.!.!.Q.Q.^.{.7X9XzXlX.X7 @ YXYX",
"YXYXYX@ @ 5.G.Q.'.'.].1X3X3X|.|.|.{.].{.|.|.|..X7XfX:XR.@ @ YXYXYX",
"YXYXYXYX@ @ @ q.S.Y.^. X].].{.{.{.].].].].{.|.'.!.9.@ @ @ YXYXYXYX",
"YXYXYXYXYXYXYX@ @ @ @ @ @ @ @ @ @ @ @ @ @ @ @ @ @ @ @ YXYXYXYXYXYX"
};
