/* XPM */
const char *ntsc_xpm[] = {
/* columns rows colors chars-per-pixel */
"33 33 185 2",
"   c #310F0D",
".  c #32110F",
"X  c #361311",
"o  c #391514",
"O  c #391916",
"+  c #3B1D19",
"@  c #3B201D",
"#  c #3E2622",
"$  c #401715",
"%  c #431817",
"&  c #411D1B",
"*  c #4C1B1A",
"=  c #531D1C",
"-  c #42201C",
";  c #4A231F",
":  c #58201F",
">  c #442421",
",  c #462925",
"<  c #4B2522",
"1  c #4C2D28",
"2  c #552321",
"3  c #542825",
"4  c #532C28",
"5  c #5A2221",
"6  c #582A27",
"7  c #54342F",
"8  c #573D37",
"9  c #5D3834",
"0  c #642726",
"q  c #632B2A",
"w  c #62312E",
"e  c #663331",
"r  c #633C38",
"t  c #6A3432",
"y  c #6A3936",
"u  c #6B3C39",
"i  c #703534",
"p  c #743837",
"a  c #753C3A",
"s  c #783F3E",
"d  c #5D413B",
"f  c #64413D",
"g  c #71413E",
"h  c #79413E",
"j  c #654440",
"k  c #6E4642",
"l  c #6E4A44",
"z  c #764541",
"x  c #774A45",
"c  c #7A4442",
"v  c #7B4A46",
"b  c #7C4B49",
"n  c #7D504C",
"m  c #7E5754",
"M  c #76645C",
"N  c #7C6057",
"B  c #7F7061",
"V  c #824E4C",
"C  c #81514E",
"Z  c #855551",
"A  c #845A55",
"S  c #805F58",
"D  c #8D605C",
"F  c #817A54",
"G  c #806C65",
"H  c #807363",
"J  c #857B6A",
"K  c #8C786A",
"L  c #9A6A68",
"P  c #93726A",
"I  c #9A726D",
"U  c #997F76",
"Y  c #A17D76",
"T  c #A37C79",
"R  c #87815C",
"E  c #89825D",
"W  c #8B8461",
"Q  c #8E8868",
"!  c #948D6A",
"~  c #938474",
"^  c #96827A",
"/  c #928C73",
"(  c #968E7B",
")  c #998576",
"_  c #988778",
"`  c #9F8C7D",
"'  c #96906E",
"]  c #99926F",
"[  c #959074",
"{  c #96907B",
"}  c #9B9574",
"|  c #99957C",
" . c #9E9877",
".. c #9F9979",
"X. c #A4827A",
"o. c #A9857D",
"O. c #A29D7D",
"+. c #9D9982",
"@. c #A48A81",
"#. c #AC8381",
"$. c #AC8B83",
"%. c #A09683",
"&. c #A29E86",
"*. c #A29C89",
"=. c #AB9388",
"-. c #AA9D8C",
";. c #B1928D",
":. c #B59C94",
">. c #B89C94",
",. c #A5A18C",
"<. c #A8A38D",
"1. c #AEA98C",
"2. c #A9A593",
"3. c #ACA995",
"4. c #AEAA99",
"5. c #B0AA8D",
"6. c #B0A793",
"7. c #B2A498",
"8. c #B2AC92",
"9. c #B1AD9B",
"0. c #BDA59D",
"q. c #BCA89D",
"w. c #B6B195",
"e. c #B4B09A",
"r. c #B9B49A",
"t. c #BDB89E",
"y. c #B1AEA1",
"u. c #B4B2A3",
"i. c #B7B5A8",
"p. c #B9B5A3",
"a. c #B9B6A9",
"s. c #BDB9A4",
"d. c #BBB9AC",
"f. c #BFBDB1",
"g. c #C2BD9E",
"h. c #C7A9A4",
"j. c #C3B3A5",
"k. c #C1BCA4",
"l. c #C2BCAC",
"z. c #CBB4AE",
"x. c #C1BEB1",
"c. c #CBBDB0",
"v. c #C5C0A5",
"b. c #C4C1AD",
"n. c #C9C5AD",
"m. c #CFCBAF",
"M. c #C3C0B2",
"N. c #C5C4BA",
"B. c #CAC6B1",
"V. c #C8C6BC",
"C. c #CCC9B5",
"Z. c #CDCABB",
"A. c #D0C4B4",
"S. c #D2CDB4",
"D. c #D2CDBA",
"F. c #D5D1B6",
"G. c #D4D1BC",
"H. c #DAD5BB",
"J. c #DDD9BD",
"K. c #CBC9C0",
"L. c #D0CEC6",
"P. c #D5D2C1",
"I. c #D5D3CC",
"U. c #DAD4C3",
"Y. c #D8D7CF",
"T. c #DDD9C5",
"R. c #DDDAC9",
"E. c #D7D6D0",
"W. c #D8D7D0",
"Q. c #DAD9D2",
"!. c #DFDFD9",
"~. c #E0DBC3",
"^. c #E2DECB",
"/. c #E0DFD9",
"(. c #E4E0CD",
"). c #E6E3D1",
"_. c #E2E1DC",
"`. c #E8E5D3",
"'. c #EAE5D9",
"]. c #EBE8D6",
"[. c #EDEADA",
"{. c #EEECE0",
"}. c #F0EDE0",
"|. c #F2F0E4",
" X c #F4F2E8",
/* pixels */
"].].].].[.C.O.E F ! ! ' ! ! ! ! ! ! ! ] ! ! ! B  .g.].].].].[.].[.",
"].].].n.O.] g.H.~.J.J.J.J.J.J.J.J.J.J.J.J.J.H.F.t. .Q t.[.].].[.].",
"[.].r.W v.J.J.J.^.(.).`.`.`.`.`.`.`.`.`.).(.~.H.m.n.r.! 1.].].[.[.",
"].r.! F.J.~.]. X X X X X X X|. X|.|. X|. X X X[.(.F.v.t.} 1.[.].].",
"m.E S.J.~.h.;.$.#.T z.}. X}.|. X|.|.|.}.[.T L I Y =.D.v.r.Q w.[.].",
"O.g.J.^.0.D Z V c z c c [.}.}.}.}.}.}.}.A h v b V A ^ N.s.4.R R.].",
"' H.T.}.;.V V a h a s c ].}.[.}.}.}.}.}.I V v Z A z m Z.l.u.| w.].",
"g.F.'.[.#.c V [.|.[.[.}.[.}.}.}.}.[.}.[.}.}.[.[.U.u n Z.b.i.3.R ].",
"m.H.}.'.Y p C }.[.}.[.}.[.}.}.}.[.}.[.}.{.{.[.'.U.t g D.M.a.y.Q F.",
"F.~. X'.I i b }.}.[.}.[.}.[.[.[.}.[.}.[.}.[.{.[.U.q u K.M.d.u./ v.",
"F.^.}.'.X.t V }.[.}.[.}.[.}.}.[.[.}.[.}.}.[.[.'.^.a e Z.M.f.i.{ r.",
"F.`.}.'.:.s V [.[.[.[.[.[.[.>.p t T.[.}.[.[.[.]./.V u Z.M.M.d.| 8.",
"F.`.}.}.[.U.D.[.[.[.[.[.[.[.$.0 q T.[.[.[.[.[.].).j.7.C.l.M.i.+.8.",
"F.`.}.}.[.[.[.[.[.}.[.[.[.[.@.5 q A.[.[.[.[.[.].).R.U.Z.M.M.d.+.5.",
"S.`.}.}.[.[.[.[.[.[.[.[.[.[.@.5 q q.[.].[.[.'.`.).Y.P.C.d.M.a.+.w.",
"S.`.}.[.[.[.[.].].].z v l f < = 5 u f f r I '.`.).R.P.C.d.f.a.+.5.",
"F.).[.[.[.[.[.[.`.`.: : : : : 5 5 : 5 5 : 5 ).`.^.T.D.B.d.d.d.+.w.",
"m.).[.[.[.`.`.].].`.D t t q 0 : 5 q e y x x ^.(.R.U.Z.M.a.d.i.| 5.",
"m.^.[.[.`.`.[.].`.].].].].].Y = 5 o.j.c.U.(.).(.R.G.C.l.u.d.i.| w.",
"n.R.`.`.`.`.`.`.`.`.`.].`.`.o.= : j.].`.).).(.R.P.Z.M.s.e.d.u.| 5.",
"v.P.(.).R.Z =.(.`.`.(.`.).).$.= : s.(.(.(.(.R.P.l.9 m r.4.i.y.| 8.",
"g.Z.R.R.e : K ^.(.(.(.~.^.(.X.* = l.^.R.R.T.P.F.t.% - 9.3.i.i.+.8.",
"r.B.P.P.4 ; m T.T.T.T.T.T.T.o.* 2 A.T.T.G.G.C.B.7.$ - *.4.i.i.| r.",
"e.a.C.C.4 - l G.G.G.G.G.G.G.G.D.C.G.F.Z.C.B.n.s.-.o @ ,.y.d.d./ v.",
"2.e.l.b.4 > 9 B.B.B.B.B.B.A.n.C.n.n.n.n.b.s.s.e.-.o # +.x.f.x.F ].",
"..2.i.i.1 , 1 <.6.6.9.6.r.k.k.s.s.s.p.-.` ) ^ _ K o , y.K.V.a./ ].",
"R 2.3.u.8 # & O O o X X O %.8.9.9.8.3.@ . . X O O @ M Z.L.L./ k.[.",
"1.[ 2.4.^ d 1 > + + O O O ~ <.<.<.<.,.7 O O + + - H K.Q.Q.d.] ].].",
"R. .+.u.d.y.*.+.( { { { ~ +.+.+.+.+.+.H H J J ( 9.I._.Q.V.W v.].[.",
"].M...,.d.N.N.x.d.u.y.4.4.4.9.4.4.4.9.y.u.d.V.Q./._._.N.W w.].].].",
"[.].n.O.[ a.K.L.I.E.E.E.Q.Q.W.Q.Q.W.W.Q.Q.!.Q._._.W.<.! s.].].[.].",
"].[.].'.w.W { 4.d.V.I.E.E.E.W.W.E.E.E.W.E.E.B.d.*.F 1.T.].[.].].[.",
"].[.].].[.].k.O.] R F F F F F F F F F F F F !  .w.^.].[.].].[.].]."
};
