/* XPM */
const char *slicer_xpm[] = {
/* columns rows colors chars-per-pixel */
"33 33 257 2",
"   c #28150E",
".  c #2D1911",
"X  c #3C1A05",
"o  c #301B11",
"O  c #37281F",
"+  c #39241B",
"@  c #3F3603",
"#  c #4A1800",
"$  c #451E09",
"%  c #5C1600",
"&  c #582300",
"*  c #492D20",
"=  c #40342B",
"-  c #611A00",
";  c #7D1F00",
":  c #652000",
">  c #643E1E",
",  c #7A2C03",
"<  c #7B351C",
"1  c #4D433A",
"2  c #704014",
"3  c #785635",
"4  c #65564A",
"5  c #736356",
"6  c #6A6359",
"7  c #8E2800",
"8  c #853603",
"9  c #873803",
"0  c #9D2E03",
"q  c #9A3200",
"w  c #9B3C00",
"e  c #953A05",
"r  c #8D3D20",
"t  c #A62500",
"y  c #A33903",
"u  c #A63600",
"i  c #B23700",
"p  c #8D450F",
"a  c #80411D",
"s  c #9B4402",
"d  c #905029",
"f  c #9E6F26",
"g  c #A54800",
"h  c #AB4200",
"j  c #A94804",
"k  c #A14A1A",
"l  c #A85100",
"z  c #B64500",
"x  c #B84E01",
"c  c #B44F00",
"v  c #B35200",
"b  c #BC5300",
"n  c #BC5A00",
"m  c #B5520B",
"M  c #A75F2E",
"N  c #BE6005",
"B  c #BE6E1E",
"V  c #A1653F",
"C  c #B06122",
"Z  c #8A6043",
"A  c #817A54",
"S  c #857E59",
"D  c #9C6F5D",
"F  c #9D7156",
"G  c #AE7949",
"H  c #A47955",
"J  c #A87E68",
"K  c #C35D01",
"L  c #C85F00",
"P  c #C56401",
"I  c #CC6C04",
"U  c #C66908",
"Y  c #C66D14",
"T  c #CE7207",
"R  c #CD791A",
"E  c #D46D00",
"W  c #D06E08",
"Q  c #D3750B",
"!  c #D97401",
"~  c #D67705",
"^  c #D27A15",
"/  c #C27E35",
"(  c #C67B2B",
")  c #86805C",
"_  c #89825E",
"`  c #8B8562",
"'  c #938D6A",
"]  c #95876A",
"[  c #978C72",
"{  c #96906E",
"}  c #98916E",
"|  c #969174",
" . c #96927B",
".. c #9B9473",
"X. c #99947D",
"o. c #9E9877",
"O. c #9F9979",
"+. c #AB844F",
"@. c #AD8D5F",
"#. c #BB8040",
"$. c #B98E58",
"%. c #A78C6C",
"&. c #A28669",
"*. c #A19C7C",
"=. c #AE9D75",
"-. c #B49564",
";. c #B99E75",
":. c #CB8D1D",
">. c #DC820A",
",. c #DA8102",
"<. c #DA831A",
"1. c #DC8614",
"2. c #DE9717",
"3. c #DD912A",
"4. c #D99D31",
"5. c #DEA534",
"6. c #E08402",
"7. c #E38C00",
"8. c #E18A0B",
"9. c #E0840C",
"0. c #E18C1C",
"q. c #E18B14",
"w. c #E49400",
"e. c #E4960D",
"r. c #E89907",
"t. c #E1951D",
"y. c #E49714",
"u. c #E49422",
"i. c #E19429",
"p. c #E49923",
"a. c #E49B2B",
"s. c #E59A31",
"d. c #E39B3C",
"f. c #E9A607",
"g. c #E8A518",
"h. c #F1AC1A",
"j. c #EBAD2C",
"k. c #E7A527",
"l. c #E5A036",
"z. c #E6A33A",
"x. c #E8A23A",
"c. c #E9AA38",
"v. c #E9B121",
"b. c #EFB43E",
"n. c #C28D4F",
"m. c #D29142",
"M. c #D09A55",
"N. c #DFA741",
"B. c #D5AA58",
"V. c #DCBD5B",
"C. c #D3AE62",
"Z. c #DDB365",
"A. c #DBB369",
"S. c #D4B170",
"D. c #CBB674",
"F. c #E69D42",
"G. c #E6A140",
"H. c #E6A849",
"J. c #E8A848",
"K. c #E9A645",
"L. c #EAAB50",
"P. c #E0AD52",
"I. c #E8B349",
"U. c #ECB654",
"Y. c #E7BD67",
"T. c #E4BE72",
"R. c #E7C148",
"E. c #EDC06B",
"W. c #EEC478",
"Q. c #F2C669",
"!. c #F1C97B",
"~. c #9A9681",
"^. c #9D9983",
"/. c #A19C86",
"(. c #A29E89",
"). c #A89887",
"_. c #A49C91",
"`. c #B29A8C",
"'. c #A5A18D",
"]. c #A9A58D",
"[. c #AEA98C",
"{. c #A9A693",
"}. c #ADA994",
"|. c #ADAA9A",
" X c #A5A293",
".X c #B0AA8D",
"XX c #B1AD95",
"oX c #B1AD9B",
"OX c #BAB08F",
"+X c #B6B195",
"@X c #B4B09B",
"#X c #B8B39C",
"$X c #BDB89E",
"%X c #B1AEA2",
"&X c #B5B2A2",
"*X c #B9B6A1",
"=X c #B9B6AA",
"-X c #BDB9A5",
";X c #BDBAAA",
":X c #BEBDB2",
">X c #C4BA9D",
",X c #D3B987",
"<X c #C2BDA2",
"1X c #C1BDAB",
"2X c #C1BEB2",
"3X c #C5C0A3",
"4X c #C4C1AC",
"5X c #CAC5AC",
"6X c #C3C1B5",
"7X c #C6C4BA",
"8X c #C9C5B2",
"9X c #C8C6BC",
"0X c #CCC9B5",
"qX c #CCC9BB",
"wX c #DCCFAC",
"eX c #D3C8A7",
"rX c #D1CDBA",
"tX c #D2CDB2",
"yX c #D6D2B6",
"uX c #D5D1BD",
"iX c #DAD5BA",
"pX c #DDD8BD",
"aX c #D9D5B7",
"sX c #E4C282",
"dX c #E6C993",
"fX c #EFD293",
"gX c #F4D48C",
"hX c #F3D49A",
"jX c #E7D5B0",
"kX c #F5DBA4",
"lX c #F4DCAC",
"zX c #CCCBC2",
"xX c #D0CEC5",
"cX c #D1CFC8",
"vX c #D6D2C1",
"bX c #D4D3CB",
"nX c #D9D5C3",
"mX c #DDDAC4",
"MX c #DEDAC9",
"NX c #DBDAD4",
"BX c #E1DCC3",
"VX c #E2DEC9",
"CX c #E0DFDA",
"ZX c #E5E1CC",
"AX c #E8E4CF",
"SX c #E8E5D2",
"DX c #EAE8D6",
"FX c #EEEBDC",
"GX c #E3E1D6",
"HX c #F6E6C7",
"JX c #F0EDDF",
"KX c #EFEDE0",
"LX c #F0EEE0",
"PX c #F2F0E5",
"IX c #F4F2E8",
"UX c gray100",
"YX c None",
/* pixels */
"YXYXYXYXYXYX@ *.S A ' ' ' ' ' ' ' ' ' ' ' ' ' ` 5 *.<XYXYXYXYXYXYX",
"YXYXYXYX@ O...>XiXpXpXpXpXpXpXpXpXpXpXiXyXyX0X5X3X.X| ' #XYXYXYXYX",
"YXYXYX+X` 3XpXpXpXVXAXGXDXSXSXSXSXSXSXSXSXZXMXtXD.3X+X].` [.YXYXYX",
"YXYX+X' iXpXpXDXIXIXIXIXIXIXIXIXIXIXIXIXIXFXHXR.V.,X3X@X|.' ].YXYX",
"YX@ ` iXpXZXPXIXPXPXPXPXPXPXPXLXPXPXLXPXPXkXv.v.dXC.qX;XoX|.` +XYX",
"YXO.3XpXZXIXPXPXPXLXLXLXLXLXLXLXLXLXLXLXgXf.2.e.dXB.qX4X&X|. X) @ ",
"@ ..pXpXPXPXPXFXLXLXLXLXLXLXLXLXLXLXLX!.f.e.e.U.W.B.qX2X&X%X%X .+X",
"*.>XpXDXPXPXPXFXKXFXFXFXLXFXFXFXFXFXQ.f.t.y.w.j.A.C.qX:X=X%X=X|._ ",
"S pXpXPXPXJXFXPXFXFXJXJXFXLXFXFXFXU.g.u.i.y.7.Q.E.D.qX2X&XoX:X=X` ",
"5 BXBXIXPXJXFXFXFXFXFXFXFXLXFXLXI.y.a.a.a.q.y.hXB.,XqX1X&X|.2X2X| ",
"} pXAXPXJXJXFXFXFXFXFXFXLXFXHXj.t.d.x.a.q.7.!.lXc.eX0X1X&X|.7X7XO.",
"} pXAXPXFXJXFXFXFXFXFXFXFXLXg.p.K.J.x.t.6.r.kXhX4.uX0X1X&X|.2X7X/.",
"} pXAXPXJXJXFXFXFXFXFXFXkXy.u.K.I.x.a.u.6.r.kXI.Z.vX0X1X&X|.7X7X(.",
"} aXAXPXJXFXFXDXFXJXFXhXw.t.L.U.c.s.0.0.6.j.hXy.wXvX9X1X&X{.7X7X/.",
"} aXHXJXFXFXDXFXFXFX!.w.t.K.K.x.x.3.<.9.r.v.W.4.MXvX0X;X&X{.7X7X/.",
"} aXDXPXFXFXDXFXDXE.7.8.x.x.x.K.s.0.>.6.h.Y.c.sXMXvX8X;XoX{.6X7X/.",
"} iXSXLXFXFXFXi.>.,.6.8.u.F.G.z.0.1.! r.h.I.l.ZXmXrX8X-X@X{.6X9X/.",
"} iXSXJXFXFXH.T P N I ~ 1.u.u.1.! ! 9.j.5.:.jXMXmXqX6X*X|.{.6X7X/.",
"{ aXGXJXDXT.T n I P h g T >.! ! ! ! k.Q.Z.;.ZXMXnXqX4X&X|. X6X7X/.",
"{ yXVXFXFXi.n W Q W K x g l P E E 8.b.Y.+.ZXVXmXrX0X-X@X X(.6X7X/.",
"' tXBXJXHXQ U Q ^ Q T K b h e v E y.I.A.>XVXMXvX0X4X*XXX'.(.6X7X/.",
"' tXpXSXdXU W ^ Q Q T P b x h , w P f 3 VXMXvXrX8X-X@X{.(.(.7XzX(.",
"' 5XuXAXm.Y R U K K P P n c u 9 , 9 2 ).nXuXrX5X;X#X}.'.^. XzXzX*.",
"A <X5XM.( Y Y x z i z K v h 0 8 - & O ;XrXrX5X1X*XXX X(.^.%XzXzXo.",
"` OX-.$.:.B m u i t q l l u q % X . . 0X8X4X-X#X|.].^.^.^.6XbXbX5 ",
"[./.-.$.G B j y 0 e , l w 7 - X   1 4X3X-X*X@X}.'.'.^.X.%XbXNX6X' ",
"$ ) =.@.G M k e 9 9 s s ; #   o 4 #X$X#X@X}.].(.^.^.X. XxXCXNX .#X",
"YX[...%.H F d a > r e , $   O XX|.}.}.}.].'.'.^.X.X.}.xXCXCX2X' YX",
"YX@ ../.J F Z 3 d r < * O = ].{.].].].^.^.^.^.^.'.;XbXCXGXzX` @ YX",
"YXYX@ ..).] [ &.J D 5 4 6 |.|.|.|.|.|.|.|.%X=X6XxXbXNXCXqX` +XYXYX",
"YXYXYX@ *.[ _.`.`. X_. X7X9X9X9X9X9X9X9XzX9XzXxXbXNXbX{.' $XYXYXYX",
"YXYXYXYX@ +X` ] (.|.=X6X7X7X7X7X9X7X7X9X7X7XzX;X*X^.A ].@ YXYXYXYX",
"YXYXYXYXYXYXYX<XO.' S 5 ) ) 5 ) ) ) 5 A A A A @.o.OX@ YXYXYXYXYXYX"
};
