/* XPM */
const char *time_line_xpm[] = {
/* columns rows colors chars-per-pixel */
"33 33 256 2",
"   c #3E0101",
".  c #440000",
"X  c #4C0201",
"o  c #4F0905",
"O  c #5B0C09",
"+  c #570804",
"@  c #5C1008",
"#  c #660A06",
"$  c #67140C",
"%  c #6E1C12",
"&  c #7A110C",
"*  c #761C10",
"=  c #750B07",
"-  c #682111",
";  c #772C0E",
":  c #732914",
">  c #782615",
",  c #77331C",
"<  c #7B3E21",
"1  c #77432C",
"2  c #812E0E",
"3  c #802F1A",
"4  c #863617",
"5  c #953B18",
"6  c #863923",
"7  c #97431B",
"8  c #8D4427",
"9  c #8F5137",
"0  c #964727",
"q  c #994C31",
"w  c #9A5636",
"e  c #904D30",
"r  c #8A6B3E",
"t  c #9A6532",
"y  c #A4471C",
"u  c #A14F2B",
"i  c #A85526",
"p  c #A35835",
"a  c #B04F22",
"s  c #B25224",
"d  c #B55B2A",
"f  c #B75A2A",
"g  c #AE602C",
"h  c #A86538",
"j  c #BA622E",
"k  c #BA6734",
"l  c #BB743D",
"z  c #995B41",
"x  c #8D6B53",
"c  c #817A54",
"v  c #8C7C57",
"b  c #9C6944",
"n  c #9B6547",
"m  c #906750",
"M  c #9D754C",
"N  c #967459",
"B  c #9A7966",
"V  c #A76746",
"C  c #A06D52",
"Z  c #AC7844",
"A  c #A57356",
"S  c #B16D41",
"D  c #BA7749",
"F  c #C8692F",
"G  c #C36D38",
"H  c #C7753C",
"J  c #D17B3D",
"K  c #C77A45",
"L  c #C27752",
"P  c #89815C",
"I  c #8B8461",
"U  c #948D6A",
"Y  c #928D71",
"T  c #96906E",
"R  c #99926F",
"E  c #959075",
"W  c #99957B",
"Q  c #9E9877",
"!  c #9F9979",
"~  c #999475",
"^  c #AC884A",
"/  c #A48B5E",
"(  c #AD9857",
")  c #B88647",
"_  c #BC8756",
"`  c #B5964D",
"'  c #BF915A",
"]  c #A78369",
"[  c #AC8C74",
"{  c #A59C7D",
"}  c #B58F6A",
"|  c #B28D72",
" . c #BB9665",
".. c #B39879",
"X. c #B9A557",
"o. c #BBAB60",
"O. c #B6A07E",
"+. c #C88447",
"@. c #C78757",
"#. c #C3974B",
"$. c #CB9B55",
"%. c #D38A49",
"&. c #D78546",
"*. c #D38C56",
"=. c #D5934B",
"-. c #D59C51",
";. c #D49C5D",
":. c #D69654",
">. c #C59565",
",. c #D18D64",
"<. c #D59B61",
"1. c #D39571",
"2. c #CC8C6A",
"3. c #C7A854",
"4. c #C7B35C",
"5. c #D9A558",
"6. c #CDA06A",
"7. c #CABB60",
"8. c #DDAC6C",
"9. c #DBA664",
"0. c #DDB26B",
"q. c #DAB774",
"w. c #C6A97C",
"e. c #E08C4B",
"r. c #E39A52",
"t. c #EB9B44",
"y. c #ECAA5D",
"u. c #E7A257",
"i. c #F0AB4A",
"p. c #F4A85C",
"a. c #FDB859",
"s. c #E5AB63",
"d. c #E1AC71",
"f. c #EAB664",
"g. c #E9B767",
"h. c #EABB74",
"j. c #E2B97A",
"k. c #F5AC61",
"l. c #F6B564",
"z. c #D9C568",
"x. c #D1CF71",
"c. c #E9C268",
"v. c #E9C47B",
"b. c #EBCA79",
"n. c #E6D06C",
"m. c #E8D777",
"M. c #F4C875",
"N. c #FAD577",
"B. c #F3C76B",
"V. c #E9E27A",
"C. c #F7E57C",
"Z. c #F8F87F",
"A. c #9A9681",
"S. c #9C9882",
"D. c #A09D86",
"F. c #A19D89",
"G. c #A89A86",
"H. c #B09B84",
"J. c #AAA48E",
"K. c #A6A28B",
"L. c #AAA592",
"P. c #AEAA99",
"I. c #ACA894",
"U. c #B7A689",
"Y. c #B2AD91",
"T. c #B1AC9B",
"R. c #B8A993",
"E. c #B6B195",
"W. c #B9B49A",
"Q. c #B9B49A",
"!. c #B1AEA0",
"~. c #B4B1A4",
"^. c #B9B2A3",
"/. c #B9B6A9",
"(. c #BBB9AC",
"). c #BFBDB2",
"_. c #C5AA85",
"`. c #C2AD98",
"'. c #C7B388",
"]. c #C5B898",
"[. c #D9A582",
"{. c #DBAF94",
"}. c #D6BC8E",
"|. c #D8B093",
" X c #C2BDA4",
".X c #CFBFA0",
"XX c #C0BDB1",
"oX c #DEBBA0",
"OX c #E0B69C",
"+X c #E2BEA6",
"@X c #CEC494",
"#X c #D7C78C",
"$X c #DAD39E",
"%X c #D5D19A",
"&X c #DBD782",
"*X c #CAC6AE",
"=X c #C7C0A6",
"-X c #C8C6BC",
";X c #C7C4B7",
":X c #D0C9AD",
">X c #D2CEB6",
",X c #DAD6A2",
"<X c #D7D2A3",
"1X c #D6D1B6",
"2X c #D9D5BB",
"3X c #DDD9BD",
"4X c #EEC981",
"5X c #E9D385",
"6X c #EDD59E",
"7X c #F6D786",
"8X c #E5CAB7",
"9X c #E4D3BC",
"0X c #EBE987",
"qX c #E9E798",
"wX c #F6E683",
"eX c #FBE788",
"rX c #F5EC9A",
"tX c #FEEB92",
"yX c #F7E796",
"uX c #FEFA8D",
"iX c #FAF588",
"pX c #FFF493",
"aX c #FDF19D",
"sX c #FEFC9E",
"dX c #FDF997",
"fX c #EBE9AA",
"gX c #EEECB1",
"hX c #F0EEAE",
"jX c #F0EEB0",
"kX c #FCF5A0",
"lX c #FDFCA3",
"zX c #FDFCAA",
"xX c #F7F3A7",
"cX c #FCFCB2",
"vX c #FEFEBF",
"bX c #CCCAC1",
"nX c #D2CCC4",
"mX c #D4D0C7",
"MX c #D5D4CC",
"NX c #D8D5CD",
"BX c #DDD9C3",
"VX c #D7D6D0",
"CX c #D8D7D0",
"ZX c #DAD9D3",
"AX c #DFDFD9",
"SX c #E0DBC2",
"DX c #E7D6C4",
"FX c #E0DFD9",
"GX c #E4E1CB",
"HX c #E8E5D2",
"JX c #ECE9D8",
"KX c #E6E4D7",
"LX c #F0E5D8",
"PX c #F1EEE1",
"IX c #F2F0E5",
"UX c #F4F2E8",
/* pixels */
"JXJXJXJXJX>X{ P c R U U U U U U U U U R U U U c Q  XJXJXJXJXJXJXJX",
"JXJXJX*X{ R Q.2X3XSX3X3X3X3X3X3X3X3X3X3XBXBX2X1XW.Q U ].JXJXJXJXJX",
"JXJXE.P (.gXBX3XDXGXHXHXHXHXHXHXHXHXHXGXHXDXDXmX:X=XE.v M 1.OXJXJX",
"JXW.U 1X3XBXJXUXUXUXIXUXUXUXUXUXUXUXUXUXLXLXDX+X|.U...U.m t {.JXJX",
"*XI 1X3XGXUXUXIXIXIXIXPXPXPXPXLXLX8X+X{.2.@.L D D  .w.U.U.v Y.JXJX",
"{ ].3XGXIXIXIXIXIXIXPXDXDX+X[.1.L k k k K *.j.d.D >.6X}.'.Y.P BXJX",
"R 2XDXUXIXLXJX9X+X[.,.K L K G K ;.h.5XrXxXkX7X7X1.h $.@X'.E.Q Y.JX",
"W.1X9X8X{.1.@.K K %.<.d.h.4X*.K yXzXkX5X@.w > w h.*.u >._.E.I.P JX",
"].|.w.*.K :.8.j.5XrXaXaXkXaXv.K +.zXqXe $ - @ : h.4XD w  .`.T.I >X",
"}.}.6X[.K d.zXzXzXlXsXzXlXzXaXs.j 9.kXv.q.b.q > *.d.d.V n R.~.Y =X",
"<XgXJXsX;.G 5XzXlXlXrX6.D D d.eX*.f b.zXsXv.& X $ % D <.V | !.W W.",
",XjXcXzXyXH K 0XlXsX@.= 3 $ O D M.K k 7XaX5X@.D +.8 $ @.@.B J.! Y.",
",XgXcXxXzXb.G *.sXrX0 3 m.0.% @ :.l.f *.tXtXeXN.wX*.O w 6.H. XD.Y.",
",XgXcXxXsXdX9.j 9.lXS * m.sXD X p 7X:.a 5.tXh.@.9.p + p 6.]./.A.Y.",
",XjXcXq.' uXwX%.j m.5X_ 7XtXS X u N.h.K f M.:.$ $ $ 8 %.<.`./.D.Y.",
",XjXzXz O $.uXN.G G 5XsXpXb.* O H M.7Xl.f k h.5.H +.:.9.1.`.^.A.Y.",
"$XhXxXn + : c.iXy.f +.wXpX$.# > i.N.l.k.e.a &.N.M.f.s.<._ [ R.A.Y.",
"%XgXrX9 6 # : C.iX:.a -.tXK + , a.-.% 5 p.K a r.M.g.s.D w ] P.A.Y.",
"%XfXqXe Z Z   e eXN.G a g.0.# o : + @ F a.k.F i 5.s.l 8 n T.~.S.Y.",
"@XfXqXz.m.C., . l eXl.f f c.l     5 t.a.k.k.r.s j g 7 M I./.~.W Y.",
"O.qXqXiXZ.iX3.o # 5.C.r.y F c.g k a.a.l.k.k.p.H 7 4 C R.T./.!.S.Y.",
"..#XqX0X0XV.C.h . > f.N.J 7 J N.N.l.l.a.y.p.&.y 8 [ Q.T.I./.~.S.Y.",
"..} &XqXV.V.C.B.,   6 f.f.g 7 =.B.f.y.y.u.H 5 8 | Q.T.L.P./.~.W Q.",
"Y.] } x.V.n.n.n.3.+ X K a.=.7 y =.g.y.5.G 4 8 ..Q.T.L.F.~.(.(.Y =X",
"J.{ A  .x.x.7.c.c.g t -.5.t.F 2 0 -.5.g 2 8 H.E.P.J.K.S.).).).c JX",
"! J.] n 7.x.7.4.4.3.5.-.#.=.=.g 4 i i ; 9 J.I.L.J.S.A.!.bXbX/.Y JX",
"v L.K.N b o.4.X.X.#.#.#.+.+.+.H 7 ; : m G.J.K.F.S.A.L.bXnXmXY /.JX",
"I.E L.G.N M X.X.` ` ) ) ) l l t < , x K.K.S.S.S.A.I.bXZXCX(.R JXJX",
"BXW S.!.J.B ] ( ( ^ ^ ^ Z l w < 1 v S.A.S.W A.F.(.VXAXAX-XI =XJXJX",
"JX*X! K./. X].=X].E.U.O.O.] N B { I.P.~.~.(.-XZXAXFXAX;XP W.JXJXJX",
"JXJX*X{ E ^.XXMXMXMXMXVXVXmXnXMXCXCXCXCXZXZXAXAXFXZXJ.I Q.JXJXJXJX",
"JXJXJXLXE.P E T.(.-XMXVXVXVXCXCXCXCXCXCXCXVX;X(.F.c Y.BXJXJXJXJXJX",
"JXJXJXJXJXJX XD.T P c c c c c c c c c c c c U Q E.SXJXJXJXJXJXJXJX"
};
