/* XPM */
const char *ccircle_xpm[]={
"16 16 3 1",
". c None",
"a c #303030",
"# c #ffffff",
"....########....",
"...#aaaaaaaa#...",
"..#aa######aa#..",
".#aa#......#aa#.",
"#aa#........#aa#",
"#a#..........#a#",
"#a#..........#a#",
"#a#..........#a#",
"#a#..........#a#",
"#a#..........#a#",
"#a#..........#a#",
"#aa#........#aa#",
".#aa#......#aa#.",
"..#aa######aa#..",
"...#aaaaaaaa#...",
"....########...."};
