/* XPM */
const char *ccontour_xpm[]={
"16 16 3 1",
". c None",
"a c #000000",
"# c #ffffff",
".........#######",
"........#aaaaaa#",
".......#aa#aaaa#",
".......#a#aaaaa#",
".......#a#aa#aa#",
"......#a#a####a#",
"......#aa###aa#.",
"....##aaaaaa##..",
"..##aaaaa###....",
".#aaaaa##.......",
"#aaaaa#.........",
"#aaa##..........",
"#aa#............",
"#aa#............",
"#aa#............",
"###............."};
