/* XPM */
const char *folder_icon_xpm[]={
"32 32 14 1",
"# c None",
". c None",
"a c #000000",
"f c #303030",
"e c #585858",
"h c #a0a0a4",
"j c #b15306",
"i c #c0c0c0",
"l c #c56e01",
"k c #d99119",
"g c #dc9c25",
"c c #ecc16c",
"b c #ffffc0",
"d c #ffffff",
".######aaa######################",
".######abbaa####################",
".####aaacbbbaa##################",
".###aadeaacbbbaa################",
".##aaadddeaacbbbaa##aaf#########",
".#aagadddddeaabbbbaabbbaa#######",
".aaggadddddddhaacbbbbbbbbaa#####",
"aagggadddddddddhaacbcbcbbba#####",
"aaaagadddddidiiiihaacccccbba####",
"ajbaaaddddddidiiiiheaaccccba####",
"ajbbbaaddidididiiiiiheaacccbaa##",
"ajkcbbaaididiiiiiiiiihhaaacfaa##",
"ajjkcbbbaaiidiiiiiiiiihiheafba##",
".ajkkccbbbaaiiiiiiihihihfffbba##",
".#ajkccccbbbaaiiiiiihihfffccba##",
".#ajkkcccccbbbaaihihihffggccba##",
".##ajkkccccccbbbaahihffgggccba##",
".##ajjkkccccccbbbbaaffggggccba##",
".###ajkkkccccccbbbbbaalgggccba##",
".###aajkkkcccccccbbbballggccba##",
".####ajjjkkcccccccbbbaajjgccba##",
".#####aajjjkkkccccccbbajjggcba##",
".#######aajjjkkkcccccbaajjgcba##",
".#########aajjjkkkcccbbajjggba##",
".###########aajjkkkcccbfajlgga##",
".#############ajjjkkcccbaajlga##",
".###############ajjjkkcbbajlga##",
".#################aajjccbaajla##",
".###################ajjjcbajla##",
".#####################aajjfaja##",
".#######################aajaaa##",
".#########################aaa###"};
