/* XPM */
const char *grid12_xpm[] = {
/* columns rows colors chars-per-pixel */
"33 33 256 2",
"   c #6C2A11",
".  c #732713",
"X  c #73331C",
"o  c #6F3718",
"O  c #753C24",
"+  c #794828",
"@  c #7A4230",
"#  c #822300",
"$  c #8A2600",
"%  c #8C2C00",
"&  c #872800",
"*  c #842A13",
"=  c #892D16",
"-  c #873119",
";  c #933300",
":  c #993F09",
">  c #9B3616",
",  c #972F15",
"<  c #963F22",
"1  c #833824",
"2  c #A43715",
"3  c #8A4E1C",
"4  c #8E511F",
"5  c #994109",
"6  c #99451C",
"7  c #90511E",
"8  c #8A4B20",
"9  c #8F5020",
"0  c #885729",
"q  c #85503F",
"w  c #964626",
"e  c #994C31",
"r  c #925120",
"t  c #8B4937",
"y  c #81612F",
"u  c #956C2E",
"i  c #9C6C25",
"p  c #9C6D28",
"a  c #966C31",
"s  c #996A36",
"d  c #99702A",
"f  c #9B7738",
"g  c #A8461A",
"h  c #B34A1B",
"j  c #B8531D",
"k  c #A24709",
"l  c #A65527",
"z  c #B65A26",
"x  c #B65F32",
"c  c #A45B35",
"v  c #BB6616",
"b  c #A36E3C",
"n  c #A17226",
"m  c #AB742E",
"M  c #A47539",
"N  c #B96727",
"B  c #B96633",
"V  c #BD702B",
"C  c #B27C32",
"Z  c #866747",
"A  c #817A54",
"S  c #9A6F4B",
"D  c #9B7643",
"F  c #9F7C56",
"G  c #8F6B4F",
"H  c #9A7563",
"J  c #A87A44",
"K  c #A77F5B",
"L  c #BB794A",
"P  c #AF7550",
"I  c #A37C67",
"U  c #C15C26",
"Y  c #DD7D00",
"T  c #C26D15",
"R  c #C1622A",
"E  c #C56736",
"W  c #C77A28",
"Q  c #C47437",
"!  c #CE7F48",
"~  c #C97A45",
"^  c #BC883A",
"/  c #88825D",
"(  c #95825E",
")  c #9D8747",
"_  c #8B8562",
"`  c #948867",
"'  c #928D71",
"]  c #96906E",
"[  c #99926F",
"{  c #959074",
"}  c #9F9979",
"|  c #9A9578",
" . c #AB8446",
".. c #A7875B",
"X. c #AD955D",
"o. c #B68648",
"O. c #B78753",
"+. c #B89356",
"@. c #AB8A62",
"#. c #A78368",
"$. c #AB8A7F",
"%. c #AD9668",
"&. c #A89977",
"*. c #B69B61",
"=. c #B49572",
"-. c #BCA57D",
";. c #D78417",
":. c #CC832A",
">. c #CB8A32",
",. c #CA873C",
"<. c #CD9235",
"1. c #D18A2B",
"2. c #D28937",
"3. c #D49739",
"4. c #DCA339",
"5. c #E89009",
"6. c #E6A026",
"7. c #E0A43A",
"8. c #E9B33B",
"9. c #F5B520",
"0. c #C98745",
"q. c #C68B56",
"w. c #C79648",
"e. c #CB9D52",
"r. c #D1854A",
"t. c #D48649",
"y. c #D78B53",
"u. c #D19449",
"i. c #D79B47",
"p. c #D69758",
"a. c #C9986B",
"s. c #D89567",
"d. c #CCA658",
"f. c #DDA547",
"g. c #DAA657",
"h. c #DBB05C",
"j. c #C8AC63",
"k. c #CBA678",
"l. c #CEB069",
"z. c #C1B078",
"x. c #D4AB61",
"c. c #DCA664",
"v. c #D4AA7A",
"b. c #D7A876",
"n. c #D8B366",
"m. c #D9B17E",
"M. c #DAB875",
"N. c #E1AB4B",
"B. c #E8B846",
"V. c #E3B458",
"C. c #E4AE5A",
"Z. c #E0A97C",
"A. c #E5B968",
"S. c #E1BC7B",
"D. c #EBBE75",
"F. c #E6B974",
"G. c #E4A56D",
"H. c #EFC23F",
"J. c #DDC674",
"K. c #EEC345",
"L. c #ECC455",
"P. c #EBCA5E",
"I. c #ECC75A",
"U. c #F0C759",
"Y. c #F1C94C",
"T. c #EBC766",
"R. c #EAC17A",
"E. c #E9C876",
"W. c #EED069",
"Q. c #EED37D",
"!. c #F2CB66",
"~. c #F1CF78",
"^. c #F1D469",
"/. c #F2D478",
"(. c #9C9880",
"). c #A89784",
"_. c #B2998A",
"`. c #AAA68C",
"'. c #ACA896",
"]. c #B8A788",
"[. c #B3AD91",
"{. c #BEAB98",
"}. c #B6B195",
"|. c #B9B499",
" X c #BDB89E",
".X c #B1AFA1",
"XX c #B4B1A4",
"oX c #B9B6AA",
"OX c #BBB9AC",
"+X c #B9B6A4",
"@X c #BFBDB2",
"#X c #D49F86",
"$X c #C5A986",
"%X c #C8B78B",
"&X c #C8B998",
"*X c #DAAE81",
"=X c #DCB483",
"-X c #D9B888",
";X c #D1BA93",
":X c #D5BC99",
">X c #C1A99A",
",X c #C2BCA4",
"<X c #CCBCA3",
"1X c #C9BEB1",
"2X c #D2BFB7",
"3X c #E1BC8E",
"4X c #E3B885",
"5X c #E2BC95",
"6X c #D9C29D",
"7X c #D6C497",
"8X c #CAC6AD",
"9X c #C4C0A6",
"0X c #C8C4B7",
"qX c #D9C5A0",
"wX c #D6C8A4",
"eX c #D5CCBD",
"rX c #D8CBBE",
"tX c #D0CCB5",
"yX c #DED3A3",
"uX c #D8D2BF",
"iX c #EDCB83",
"pX c #ECCD8B",
"aX c #E5C987",
"sX c #E1C495",
"dX c #E3CE9A",
"fX c #E5C39B",
"gX c #EBD189",
"hX c #E3D19C",
"jX c #EBD696",
"kX c #F0CE83",
"lX c #F2D689",
"zX c #F4DC94",
"xX c #F2D899",
"cX c #E8D7A4",
"vX c #F3DAA2",
"bX c #F2DDB3",
"nX c #F5E293",
"mX c #F6E39B",
"MX c #F6E5A6",
"NX c #F6E5AA",
"BX c #F8E9A9",
"VX c #FAECB2",
"CX c #F7E7BB",
"ZX c #CBC9C0",
"AX c #D6CDC2",
"SX c #D5D3CC",
"DX c #DBD5C4",
"FX c #D7D6D0",
"GX c #D8D7D0",
"HX c #DCDBD5",
"JX c #DFDFD9",
"KX c #E1DDCB",
"LX c #E0DFD9",
"PX c #ECE9D8",
"IX c #E4E3DA",
"UX c #F6E9CA",
/* pixels */
"PXPXPXPXPXtX} / Z ( ( ( ( ( ( ( ( ( ( ` ( ` ( Z } ,XPXPXPXPXPXPXPX",
"PXPXPX8X} D -.wXyXfX6X6X6X:X:X6X6X6X6X6X6XwX7XwX].} _  XPXPXPXPXPX",
"PXPX}./ %XcX7X=XdXdXdXhXdXdXdXdXdXdXdXdXdX6X-X*X7X8X X] `.PXPXPXPX",
"PX|.] wXyXhXsX4XvXVXBXBXBXBXMXMXMXMXBXMXNXNX3X4X7X7X9X X[ [.PXPXPX",
"8X_ 6XcXcXMXaXG.xXmXzXzXzXzXzXzXzXzXzXzXnXxXZ.b.dXyX7X,X X_ }.PXPX",
"}  XyXcXVXBX4Xp.zXmXnXnXnXnXzXnXzXzXlXzXnXmXb.s.aXjX7X%X+X.X/ KXPX",
"[ wX3XvXxXpXF.p.F.D.D.D.D.R.R.D.D.D.D.F.R.D.g.y.c.M.v.z.-.XX| [.PX",
" X;X*XZ.s.y.y.y.y.r.r.r.t.t.t.r.r.t.0.r.t.! ~ ! r.~ ~ K ..oX'./ PX",
"wX;X=XM.x.p.~ ~ p.p.u.u.u.u.u.u.u.3.u.u.u.w.E ~ r.o.o.O...oX.X_ tX",
"wX6XjXlXQ.E.q.E E.W.W.W.W.P.I.P.P.^./.T.P.P.,.Q V.J.l.d.+.OXXX' 9X",
"qXsXiXR.E.A.~ E kX~.aXjXxX/.L.I./.NXCXCX~.I.,.Q F.jXl.d.+.#.oX| |.",
":XsXR.E.T.V.Q E lXlX; ; 3XBXI.!.cX; ; jXCXT.2.Q V.gXn.e.+.I oX(.[.",
":X7XD.D.A.V.Q E jX!.5.$ 5XVXU.g.; W T ; bXzX,.Q f.Q.x.w.O.I OX(.[.",
":X3XF.A.I.h.Q U lXU.9.$ fXVXU.f.% Y 6.% bXkXW N f.gXl.w. .I _.(.[.",
";X3XF.A.V.B.V U kX~.Y.% fXVXB.7.W 6.x % cXT.V z f.aXl.w.O.I _.(.[.",
";X=XA.C.V.N.V z kXE.B.% 5XVXB.8.8.z $ iXvXI.N j i.aXd.,.J H ).(.[.",
";X=XA.C.N.N.N j ~.T.B.$ 5XVXB.N.x $ A.vXE.N.N h 3.R.d.^ M H _.| [.",
";X=Xc.g.N.4.j j iXT.H.$ 5XVXK.3.$ u.vXpXV.N.N g 2.J.w.^ J H ).(.[.",
"$Xv.g.g.f.3.l h iXxXxX# #XUX/.2.& b.4X# jXpXx 2 2.M.w.^ s H $.} [.",
"$Xb.d.f.f.<.l g ~.xX. # # b.W.3.# # # $ xXpXl > Q n.o.C s H XX(.[.",
"$Xb.p.i.f.<.6 > iXg.T k 5 v 1.7.T 5 5 k c.A.g , V l.o.m s H XX(.[.",
"].a.p.u.3.>.6 , F.h.:.W 1.<.3.3.1.W W W >.>.> = V j.^ M J I XX(.[.",
"].$Xl.n.h.<.w , c.F.c.A.F.A.M.M.S.S.S.S.=XM.J e +.z.*.%.&.oXXX(.|.",
"[.$X$Xk.k.q.c < a.:X:X-Xm.m.m.m.v.v.v.k.k.a.c < l J b S &.OXOX' 9X",
"&.I G t 1 - - = w e e e - * = = = * * * . . . * * . X O $.1X0XA PX",
"` #.F S s t X X r 9 9 9 9 9 7 7 7 7 3 3 3 3   . 3 0 + H {.0XoX' PX",
"y &.%.@. .f X . b  .n d n n n n i i i i i i o X s ) ) <XZXSX' +XPX",
"[.{ &.&.%.D + X  .X.d p d p n i i i i i p p o X s &.<XFXGXoX] PXPX",
"GX| (..X[.=.Z @ J ..a a p u u p a s u u u u + q ].DXJXHX0X_ 9XPXPX",
"PX8X| `.OX,X>X_.>X[.%.@.#.@.@.@...@.@.@.=.].{.2XJXJXJX0X_ |.PXPXPX",
"PXPX8X} { OX0X0XeXAXrXrXAXrXrXrXrXrXrXAXAXDXJXJXJXFX`.`  XPXPXPXPX",
"PXPXPXPX}.H | '.OX0XSXFXFXGXGXGXGXGXGXGXGXSX0XOX).A [.DXPXPXPXPXPX",
"PXPXPXPXPXPX9X} [ / A A A A A A A A A A A A ] } }.KXPXPXPXPXPXPXPX"
};
