/* XPM */
const char *import_xpm[] = {
/* columns rows colors chars-per-pixel */
"33 33 257 2",
"   c #3F3603",
".  c #5F3C19",
"X  c #632E0B",
"o  c #6C320C",
"O  c #6D3F17",
"+  c #71360D",
"@  c #76390E",
"#  c #7C3D0F",
"$  c #753D10",
"%  c #7C3D10",
"&  c #69421B",
"*  c #774215",
"=  c #72481D",
"-  c #7B4111",
";  c #794C1E",
":  c #664725",
">  c #6B4A24",
",  c #6E4D28",
"<  c #724E25",
"1  c #755129",
"2  c #785127",
"3  c #795A35",
"4  c #776F45",
"5  c #823F11",
"6  c #844311",
"7  c #8A4613",
"8  c #8E4918",
"9  c #8F571E",
"0  c #924E1B",
"q  c #94521A",
"w  c #995414",
"e  c #9B591E",
"r  c #9B5917",
"t  c #815221",
"y  c #9C5725",
"u  c #9D5A27",
"i  c #94652F",
"p  c #9C6A30",
"a  c #A05D21",
"s  c #A05C29",
"d  c #A6641C",
"f  c #A9671F",
"g  c #A36325",
"h  c #A06028",
"j  c #A2692A",
"k  c #A96A21",
"l  c #AA6C2C",
"z  c #A56B24",
"x  c #A26C32",
"c  c #A57135",
"v  c #AC7638",
"b  c #AC7233",
"n  c #B2722E",
"m  c #B57533",
"M  c #B77836",
"N  c #B97B35",
"B  c #BA7D3A",
"V  c #B57C3C",
"C  c #846947",
"Z  c #817A54",
"A  c #857E59",
"S  c #8B7453",
"D  c #AF7B4D",
"F  c #B17C4B",
"G  c #C47D15",
"H  c #87815C",
"J  c #89825D",
"K  c #8B8462",
"L  c #8A8674",
"P  c #8C8976",
"I  c #8F8B79",
"U  c #908967",
"Y  c #938D6A",
"T  c #928D71",
"R  c #908C79",
"E  c #9F8E71",
"W  c #96906E",
"Q  c #98916E",
"!  c #969175",
"~  c #97947F",
"^  c #9B9574",
"/  c #99947D",
"(  c #9E9877",
")  c #9F9979",
"_  c #B78140",
"`  c #BB8345",
"'  c #BD8A49",
"]  c #B68151",
"[  c #BB8B52",
"{  c #B2975C",
"}  c #A2977D",
"|  c #A29C7D",
" . c #C78118",
".. c #CB8615",
"X. c #C9841A",
"o. c #CB881E",
"O. c #D58F13",
"+. c #D79013",
"@. c #D7971D",
"#. c #DA9514",
"$. c #CC8B21",
"%. c #D79721",
"&. c #D49A21",
"*. c #D69A2A",
"=. c #D89829",
"-. c #DBA31E",
";. c #E0A61E",
":. c #E1A921",
">. c #E6B934",
",. c #C18947",
"<. c #C2894B",
"1. c #C59655",
"2. c #C7A25F",
"3. c #C6A96D",
"4. c #C9A462",
"5. c #CCAA64",
"6. c #C4B674",
"7. c #C7B87A",
"8. c #CEBD7C",
"9. c #E2B84D",
"0. c #E3BB54",
"q. c #E6BC5A",
"w. c #E3B962",
"e. c #EDC41F",
"r. c #EFD31F",
"t. c #F0CD1F",
"y. c #F4DE1F",
"u. c #E6CB24",
"i. c #EFC925",
"p. c #EDCA2F",
"a. c #EAC532",
"s. c #EBC931",
"d. c #EEDB3E",
"f. c #F1D626",
"g. c #F1D72A",
"h. c #F2DD2B",
"j. c #F0D038",
"k. c #F4DE31",
"l. c #FDEB1E",
"z. c #F5E122",
"x. c #F6E429",
"c. c #FAE822",
"v. c #F3E130",
"b. c #F4E13E",
"n. c #F7E93B",
"m. c #F8E937",
"M. c #F8EB3F",
"N. c #D3C27E",
"B. c #EBC443",
"V. c #F7E840",
"C. c #F8E643",
"Z. c #979482",
"A. c #999683",
"S. c #9D9984",
"D. c #9C998A",
"F. c #A19C86",
"G. c #A19D8A",
"H. c #A5A18D",
"J. c #A9A48D",
"K. c #AEA98C",
"L. c #A5A292",
"P. c #A9A592",
"I. c #A9A798",
"U. c #ADA994",
"Y. c #ADAA9A",
"T. c #B0AA8D",
"R. c #B1AC95",
"E. c #B1AD9A",
"W. c #B6B195",
"Q. c #B4B09B",
"!. c #B8B39A",
"~. c #BDB89E",
"^. c #B1AEA0",
"/. c #B5B2A2",
"(. c #B7B4A9",
"). c #B9B5A2",
"_. c #B9B7A9",
"`. c #BEBBA5",
"'. c #BDBAAC",
"]. c #BDBBB1",
"[. c #C1BC9E",
"{. c #C1BDA3",
"}. c #C0BDAB",
"|. c #C0BEB2",
" X c #DAC581",
".X c #D9CC86",
"XX c #DACB8E",
"oX c #D0D086",
"OX c #D5D48B",
"+X c #DCD08A",
"@X c #D9D98E",
"#X c #D5D497",
"$X c #D7D69A",
"%X c #DAD492",
"&X c #DCDC92",
"*X c #DDDD9C",
"=X c #C5C0A3",
"-X c #C6C2AF",
";X c #CAC6AC",
":X c #C2C0B5",
">X c #C5C3B9",
",X c #CAC6B1",
"<X c #C9C7BD",
"1X c #CBC8B6",
"2X c #CBC9BC",
"3X c #D0CBAE",
"4X c #D2CDB2",
"5X c #D4CFBC",
"6X c #DDCDB1",
"7X c #DEDDA0",
"8X c #D6D2B6",
"9X c #D4D0BC",
"0X c #D9D4B7",
"qX c #DAD5BA",
"wX c #DDD8BD",
"eX c #E0D3BD",
"rX c #E8E58F",
"tX c #E1E196",
"yX c #E5E49C",
"uX c #E8E89C",
"iX c #E4E4A2",
"pX c #E6E6A8",
"aX c #EAE6A5",
"sX c #EBE6AA",
"dX c #EAEAA3",
"fX c #ECECAB",
"gX c #EFEFB1",
"hX c #F0F0B4",
"jX c #CCCAC1",
"kX c #D0CEC3",
"lX c #D5D3C4",
"zX c #D4D3CA",
"xX c #D8D5C5",
"cX c #DDD9C3",
"vX c #DEDBCA",
"bX c #D9D7D1",
"nX c #DCDBD3",
"mX c #E1D5C0",
"MX c #E1DCC4",
"NX c #E1DDCC",
"BX c #E0DDD0",
"VX c #E0DFDA",
"CX c #E4E1CC",
"ZX c #E8E4CF",
"AX c #E6E3D3",
"SX c #E3E2DA",
"DX c #E8E5D3",
"FX c #E8E6D8",
"GX c #EBE8D6",
"HX c #EDEADC",
"JX c #F0ECDE",
"KX c #ECEAE0",
"LX c #F0EEE1",
"PX c #F2F0E4",
"IX c #F4F2E8",
"UX c gray100",
"YX c None",
/* pixels */
"YXYXYXYXYXYX  | H 4 ^ W W Y W W Y W Y W Y Y U U 4 | {.YXYXYXYXYXYX",
"YXYXYXYX  ) ^ ~.qXwXcXwXqXqXwXqXqXqXqX8X8X8X3X;X=XU.! U ~.YXYXYXYX",
"YXYXYXW.J =XMXwXwXMXZXGXFXGXDXDXDXDXDXAXAXNXvX9X;X~.W.P.K K.YXYXYX",
"YXYXQ.Y qXwXwXGXIXIXIXIXIXIXIXIXIXIXIXIXPXPXHXSXBXkX}.E.I.Y P.YXYX",
"YX  J 0XwXCXPXLX<.q.IXLXLXIXLXLXPXPXPXPXLXHXHXSXBXxX2X_.Y.I.K W.YX",
"YX. =XwXCXIXPXHXV B.w.LXLXLXLXLXLXLXLXLXLXLXHXAXBXxX2X-X/.Y.L.H X ",
"  4 wXeXPXIXJX] l C.>.0.LXLXLXLXLXLXLXLXLXHXHXSXBXlX2X-X/.^.^.R R.",
") [.wXGXIXLXHXl d.V.b.>.0.HXHXLXHXLXHXLXHXHXHXAXNXzX2X|./.^.(.I.K ",
"A 0XwXPXPXJXD g j.V.M.k.>.9.LXHXB ' HXHXHXHXGXFXBXxX2X}./.Y.'.(.K ",
"Z wXMXIXLXHXg @.s.s.M.x.h.=.JX<.sX5.B ` HXHXGXAXBXlX2X-X/.Y.|.].T ",
"W qXCXIXLXD f :.:.a.s.m.x.g.=.hXhXhXhX1.N ` FXNXvXlX1X}./.I.:X:X/ ",
"W qXZXIXHXp d f f ;.p.s.m.x.%.gXs s gXgXgX' b [ BX9X1X-X/.I.:X>XF.",
"W wXZXPXLXwXwXeXe d f ;.i.x.f.u 0 x.$.gXgXfXgX_ l xX2X}./.I.:X>XF.",
"W qXZXPXLXHXHXHXeXeXy d f e.z.y u.z.o.gXfXfXfXpXv c p }./.I.:X>XF.",
"W wXZXPXHXHXGXHXHXHXm XXr d c.z.l.f.o.gXfXfXfXiX7X$Xp i Q.P.:X>XF.",
"Q qXZXPXHXHXGXHXGXB yXfXaX0 z r.f.l.X.fXfXfXfXiX7X#X{ * Q.P.:X>XF.",
"W wXDXLXJXJXGXHXN N.fXfXc 8 X.p.x.l.G fXfXfXdXiX$X7.q * Y.I.:X>XF.",
"W 0XZXJXHXGXDXM 5.fXdXp 7 G O.-.h.y. .pXfXpXiXyX&Xq % } Y.P.:X:XF.",
"W 0XZXJXGXGXm 4.dXdXfXq ..#.@.+.t.l. .dXdXuXiXtXj - S ).I.H.].>XF.",
"W 8XNXJXGX0 2.yXdXdXaXq w w w w r r G dXaXiXtXOX- 3 R.E.P.H.|.>XF.",
"W 3XNXHX6XDX7 7 m XXdX+X.X.X.XN.N.N.rXuXyXtX@X# < } ).U.H.H.|.:XF.",
"Y 3XMXGXFXDXAX6 6 6 6 3.yXuXuXuXyXyXyXtXtXtX- * C `.Q.U.H.D.>X>XF.",
"Y ;X8XCXvXvXqXNX< 9 6 5 - 8.tXtXtXtXtXtX&X# @ 3 {.!.U.H.D.L.<XjX/ ",
"Z =X;XvXcXcXxXcX9XcX< ; # # # N.@X@X@XOX@ @ , `./.R.H.G.S./.jXjX! ",
"K !.~.lX9X9X9X9X9X9X9X9X> = @ @ @ 6.oX+ O & `.R.R.J.F.S.~ <XzXzXZ ",
"K.F.!.,X1X1X,X,X,X,X,X,X,X,X: & o o o X & ~.W.U.J.F.S.~ E.zXbX|.Y ",
"  Z Q.E.`.}.`.`.`.`.`.`.`.`.`.).: . * X R.K.J.H.S.A./ L.zXnXnXT [.",
"YXT.( R.Q././.E.Q.E.E.Q.W.E.R.W.R.R.U.U.J.F.G.S.A.~ I.kXVXVX|.! YX",
"YX  ( F.Y.Y.Y.I.P.P.P.J.P.P.P.J.J.H.H.H.S.S.S.~ G.'.zXVXVXjXK X YX",
"YXYX  ^ A.Y.(.`._.).Q.^.Y.Y.Y.Y.U.Y.Y.Y.^./._.>XzXbXVXVX>XK R.YXYX",
"YXYXYX  } Y I._.|.:X>X<X2XjXjXjX2X2X<X2XjXjXjXzXzXnXbXP.U ~.YXYXYX",
"YXYXYXYX  R.K T H.^.].>X<X<X<X<X<X<X<X<X<X<X<X'._.S.Z K.  YXYXYXYX",
"YXYXYXYXYXYXYX~.| ! J Z Z Z Z Z Z Z Z Z Z Z Z W ( W.  YXYXYXYXYXYX"
};
