/* XPM */
const char *no_next_xpm[] = {
/* columns rows colors chars-per-pixel */
"33 33 256 2",
"   c black",
".  c #0D0400",
"X  c #140400",
"o  c #140B04",
"O  c #2B0A00",
"+  c #250500",
"@  c #261507",
"#  c #300C00",
"$  c #300500",
"%  c #420C00",
"&  c #461201",
"*  c #491100",
"=  c #5C1303",
"-  c #501502",
";  c #601503",
":  c #683D17",
">  c #71300F",
",  c #793F15",
"<  c #7E744E",
"1  c #803411",
"2  c #893907",
"3  c #A63C16",
"4  c #804115",
"5  c #934612",
"6  c #9F5134",
"7  c #A7431A",
"8  c #AE581D",
"9  c #B2470E",
"0  c #B54912",
"q  c #B95918",
"w  c #AD4E22",
"e  c #AB5724",
"r  c #A05436",
"t  c #BD5E23",
"y  c #AC642C",
"u  c #AF6B38",
"i  c #AF713E",
"p  c #B56C2C",
"a  c #BB6428",
"s  c #B56737",
"d  c #BD722C",
"f  c #B27C3C",
"g  c #BA7834",
"h  c #856C44",
"j  c #85764E",
"k  c #817A54",
"l  c #897750",
"z  c #A97647",
"x  c #AF7457",
"c  c #B77B43",
"v  c #B1795B",
"b  c #A96344",
"n  c #CE520C",
"m  c #C75D19",
"M  c #D04600",
"N  c #D15309",
"B  c #DA5F16",
"V  c #CF6119",
"C  c #D66319",
"Z  c #C86A26",
"A  c #CC722C",
"S  c #C8782D",
"D  c #C87A37",
"F  c #D66B24",
"G  c #D97629",
"H  c #D87D33",
"J  c #D37F38",
"K  c #E2671C",
"L  c #E87527",
"P  c #B8853B",
"I  c #8B825E",
"U  c #87815C",
"Y  c #8B8460",
"T  c #938D6A",
"R  c #918965",
"E  c #938E72",
"W  c #96906E",
"Q  c #99926F",
"!  c #959075",
"~  c #9B9474",
"^  c #9B967D",
"/  c #9D987C",
"(  c #999477",
")  c #AA8847",
"_  c #AB9448",
"`  c #A59352",
"'  c #AC925E",
"]  c #B38545",
"[  c #B78056",
"{  c #B69545",
"}  c #B19B50",
"|  c #A88A52",
" . c #A89965",
".. c #A29D7D",
"X. c #B78D72",
"o. c #B9916C",
"O. c #B79774",
"+. c #B78D69",
"@. c #ADA268",
"#. c #AFA77F",
"$. c #B9A57C",
"%. c #C68739",
"&. c #D58339",
"*. c #D68B3A",
"=. c #DB8B39",
"-. c #DA8134",
";. c #D4913E",
":. c #DB923F",
">. c #E48435",
",. c #E1913A",
"<. c #F18538",
"1. c #F08032",
"2. c #C39440",
"3. c #C69A46",
"4. c #DC8B47",
"5. c #DC8D52",
"6. c #DA9443",
"7. c #D39555",
"8. c #C1896B",
"9. c #C38D70",
"0. c #C69273",
"q. c #C7957A",
"w. c #CA9974",
"e. c #CC9C7A",
"r. c #C69976",
"t. c #D09F7B",
"y. c #C99769",
"u. c #D7A64C",
"i. c #CDA17A",
"p. c #C9A479",
"a. c #C8B17D",
"s. c #DFA76F",
"d. c #D2A37C",
"f. c #D2AA7D",
"g. c #D1B67C",
"h. c #E08D50",
"j. c #E19442",
"k. c #E59C5A",
"l. c #E5966A",
"z. c #E8AB55",
"x. c #EBB359",
"c. c #EDBA61",
"v. c #E4B576",
"b. c #EDC077",
"n. c #F6C968",
"m. c #FBD673",
"M. c #9A9580",
"N. c #9D9A84",
"B. c #A09C86",
"V. c #A19D89",
"C. c #A5A28C",
"Z. c #A9A38D",
"A. c #ADA688",
"S. c #A9A593",
"D. c #AEAA9A",
"F. c #AAA694",
"G. c #B5A285",
"H. c #B3A48B",
"J. c #B4AB8E",
"K. c #BBA282",
"L. c #B8A98B",
"P. c #B5AC80",
"I. c #B3AC91",
"U. c #B1AD9A",
"Y. c #B8AE96",
"T. c #B6B195",
"R. c #BAB499",
"E. c #B8B298",
"W. c #B1AFA1",
"Q. c #B4B2A3",
"!. c #BAB5A2",
"~. c #BDB9A4",
"^. c #BBB9AC",
"/. c #B9B6A9",
"(. c #CB9A83",
"). c #C2A284",
"_. c #C0AC8A",
"`. c #CAA084",
"'. c #CCA28A",
"]. c #C8AA85",
"[. c #CEA992",
"{. c #CAB68B",
"}. c #C1B089",
"|. c #C3B89A",
" X c #D5AA82",
".X c #D5AA85",
"XX c #D2A892",
"oX c #D0A590",
"OX c #DAB38A",
"+X c #DBBA8E",
"@X c #D5B787",
"#X c #D0B299",
"$X c #D1BE9E",
"%X c #DEBA92",
"&X c #D8B393",
"*X c #C1BDA3",
"=X c #C0BCAB",
"-X c #D2BEA0",
";X c #E1B985",
":X c #E3BC96",
">X c #DEC186",
",X c #DCC191",
"<X c #C5C0A5",
"1X c #CAC6AD",
"2X c #C8C3AB",
"3X c #C4C2B5",
"4X c #C8C6BB",
"5X c #CDCAB5",
"6X c #C7C5B9",
"7X c #D6C4A8",
"8X c #D3CDB3",
"9X c #D1CDB9",
"0X c #D5D1B6",
"qX c #DAD5BB",
"wX c #DED9BD",
"eX c #DCD0B2",
"rX c #E3C48B",
"tX c #E1C495",
"yX c #E3C49A",
"uX c #E5C99C",
"iX c #E9CD9C",
"pX c #E0CA96",
"aX c #F4D78E",
"sX c #F8DE9B",
"dX c #E8CBA2",
"fX c #E5CAA5",
"gX c #E3C9B4",
"hX c #E8D0A1",
"jX c #E8D4B8",
"kX c #F4DBA2",
"lX c #CCCAC1",
"zX c #D2CFC2",
"xX c #D5D2C1",
"cX c #D5D3CC",
"vX c #DEDAC4",
"bX c #DBD8C8",
"nX c #D7D6D0",
"mX c #D8D7D0",
"MX c #DAD9D2",
"NX c #DFDFD9",
"BX c #E0DBC2",
"VX c #E3DECB",
"CX c #ECDBC9",
"ZX c #E0DFD9",
"AX c #F1D9C3",
"SX c #E4E1CB",
"DX c #E5E2D1",
"FX c #E9E5D3",
"GX c #EBE8D6",
"HX c #ECE9D9",
"JX c #E2E1DC",
"KX c #F0EDDF",
"LX c #EFEDE0",
"PX c #F0EEE1",
"IX c #F2F1E5",
"UX c #F4F3E8",
/* pixels */
"GXGXGXGXHX5X#.k k W T W W R h h h h h h h h j < ( ~.GXGXGXGXGXGXGX",
"GXGXGX1X/ ~ ~.qXvXvXjXwXwX7X$X7X$X$X$X$X$X$X$X-XJ.~ T R.GXGXHXGXHX",
"GXHXT.Y <XwXwXwXVXCXFXFXSX#X#X#X#X#X#X#X[.{.'.K._.|.Y.Y A.GXGXHXGX",
"HXR.T 0XwXvXGXUXUXUXPXUXgX'.[.[.XX'.'.'.'.`.'.).).O.G.L.Y A.HXGXGX",
"1XR 0XwXSXUXUXIXPXPXPXFX'.(.(.q.q.q.q.q.q.e.e.(.`.).K.G.H.j I.GXHX",
"/ R.qXSXUXIXIXPXPXPXPXXX9.0.9.0.q.e.e.e.e.w.r.w.e.e.).G.H.A.j VXHX",
"Q qXwXUXIXIXPXPXPXPXfX8.8.9.9.0.w.e.w.w.w.w.w.w.r.O.r.K.K.H.T I.HX",
"R.qXFXUXPXKXKXKXPXHX(.9.0.9.w.e.t.t.d. Xt.t.d.s.i.p.p.K.K.H.S.k HX",
"0XqXIXIXPXHXPXKXKX&Xe.e.d.i. X.X XOXOXOXOXOX Xg.f.f.p.$.O.G.J.U 9X",
"0XBXIXPXPXPXKXHXeXt.t.d.i.d..XOXOX&X%X;X+X:X;XOX@Xf.a.}.L.L.F.T =X",
"0XSXIXPXKXHXHXjXd.e.d.OX&X%X%X:X:XyXyXyXtXyXtXtX,X+X{.{.L.|.Y.( R.",
"0XFXPXPXKXHXHXjX&XOXOX:X:X:XyXuXyXdXdXdXdXiXiXpX,X,X+X{._.R.R.^ I.",
"0XFXPXKXKXHXKXHXKXAXjXfXfXdXuXdXdXdXhXhXiXiXiXiX,X,X@X{.}.|.R.^ I.",
"0XDXKXKXKXHXHXHXHXGXHXHXAX5.5.s.;X;XrXtXrXrXrXrX>X@Xg.].a.Y.Y./ I.",
"0XDXPXKXHXHXHXGXGXHXHXHXl.M N K L L <.<.H H &.D &.D D 2.[ O.G.^ I.",
"0XDXKXKXHXHXHXKXHXHXHX:XN N B 9 5 2 2 2 m C C V V V q a u +.G.^ I.",
"9XDXPXHXjXFXHXHXGXGXjXF n B 5 @ o . . . @ 8 L Z V a a p i +.H.^ I.",
"8XDXHXHXv.iXFXGXGXCXh.C C 8 o             @ e G A S d p c o.H.M.I.",
"1XSXGXGXb.c.sXDXCXh.F G G , . X X X o . .   : >.S Z d g z O.I.M.I.",
"1XbXFXFXaXm.m.sXk.F G G H 4 $ $ # O O O O . : :.%.%.P P ) O.U.M.I.",
"<XxXSXDXsXn.n.n.x.j.H H -.a - % * * & & $ & p ;.%.P P ) ) O.U.N.I.",
"*X9XbXbXjXx.z.z.z.z.j.>.*.=.d , ; = = = > g 6.%.%.P P P | L.Q.N.I.",
"R.5XxXxXeXv.:.6.4.4.=.*.&.*.j.6.D p p g 3.u.6.3.P P P ) ' T.Q.^ R.",
"U.~.5X5X5X7X7.J S A A A Z A D *.u.u.u.u.u.3.3.{ { { ) ` $.!.^.E <X",
"F.U.3X<X3X2X|.y.D a t q 0 0 0 9 q d %.{ %.{ { { { _ _ ` R.=X6X< HX",
"/ F.!./.!.!.~.~.K.o.v s s w w 7 7 7 e e p P } } } _ ` #.1X5X/.W GX",
"k F.F.Q.D.U.U.U.U.U.U.O.X.v v x u 6 6 6 6 z ' @. .Q #.9XzXcX! *XGX",
"J.! F.D.U.Z.C.C.Z.Z.C.Z.S.V.S.Z.C.V.C.C.V.V.N.N.^ F.zXMXnX/.W GXHX",
"vX( N.Q.^.Q.S.N.V.V.N.N.N.N.N.N.N.N.N.N.N.M.^ V./.nXNXNX6XY <XGXGX",
"HX2X/ C.^.4X4X3X^.Q.Q.D.D.D.D.D.D.D.D.W.Q.^.4XnXNXNXNX6XY T.HXGXGX",
"HXGX1X/ ! ^.lXcXcXcXnXnXMXMXMXMXmXMXMXMXmXNXNXNXJXmXS.R ~.GXGXHXHX",
"GXHXHXGXU.Y ! F.^.lXcXnXnXmXmXnXnXnXnXnXnXcX6X~.B.U A.bXGXGXHXGXGX",
"HXGXHXGXHXGX~.#.T U < < U < U < U < k k k k E / T.SXHXGXGXHXGXGXHX"
};
