/* XPM */
const char *paste_xpm[] = {
/* columns rows colors chars-per-pixel */
"33 33 257 2",
"   c #1B1A18",
".  c #231D16",
"X  c #2A231A",
"o  c #31200D",
"O  c #3F3603",
"+  c #2D2D27",
"@  c #383126",
"#  c #3D3B34",
"$  c #4C2E0F",
"%  c #582504",
"&  c #593214",
"*  c #593A20",
"=  c #553E27",
"-  c #483B2D",
";  c #652B02",
":  c #6B3506",
">  c #732F05",
",  c #7C3B06",
"<  c #663E16",
"1  c #4B433A",
"2  c #444239",
"3  c #5B4E3F",
"4  c #784102",
"5  c #77570E",
"6  c #774E22",
"7  c #755829",
"8  c #6C4B27",
"9  c #515047",
"0  c #585249",
"q  c #5F5D51",
"w  c #676558",
"e  c #776F45",
"r  c #7D7751",
"t  c #756757",
"y  c #6E6C60",
"u  c #736D64",
"i  c #7C7868",
"p  c #7F7A72",
"a  c #873705",
"s  c #993A00",
"d  c #8C4404",
"f  c #8E571E",
"g  c #924305",
"h  c #9A4905",
"j  c #914613",
"k  c #95530E",
"l  c #945827",
"z  c #8C6739",
"x  c #976024",
"c  c #966C37",
"v  c #A54904",
"b  c #A85607",
"n  c #B24E02",
"m  c #B75704",
"M  c #A86204",
"N  c #A96417",
"B  c #A67101",
"V  c #B56607",
"C  c #BA6B12",
"Z  c #BA7713",
"A  c #A9742D",
"S  c #BA7723",
"D  c #A67734",
"F  c #817A54",
"G  c #8A7B5B",
"H  c #937850",
"J  c #917B66",
"K  c #C16B04",
"L  c #C77807",
"P  c #C17716",
"I  c #C57B23",
"U  c #BB820D",
"Y  c #BB8131",
"T  c #89845D",
"R  c #9D8143",
"E  c #8B8462",
"W  c #868375",
"Q  c #938D6A",
"!  c #908967",
"~  c #948B71",
"^  c #96906E",
"/  c #98916E",
"(  c #969175",
")  c #99947D",
"_  c #9E9877",
"`  c #9A9576",
"'  c #A59D5F",
"]  c #B08A49",
"[  c #BE8A53",
"{  c #BE9B50",
"}  c #A69560",
"|  c #A29C7D",
" . c #AD8A68",
".. c #A9A96C",
"X. c #A9A97F",
"o. c #B9AC6E",
"O. c #BFA973",
"+. c #BDB36E",
"@. c #BCBD7A",
"#. c #B4B473",
"$. c #BFC37E",
"%. c #CC8908",
"&. c #C8841C",
"*. c #D48C14",
"=. c #D99516",
"-. c #D49502",
";. c #CA8925",
":. c #CE8B33",
">. c #CC9223",
",. c #CF973B",
"<. c #D39627",
"1. c #D39D34",
"2. c #D39835",
"3. c #CCA619",
"4. c #DBA604",
"5. c #DEA11A",
"6. c #CFA620",
"7. c #DDA727",
"8. c #DAA737",
"9. c #E2AE00",
"0. c #E0AE1F",
"q. c #E6BA07",
"w. c #E5B519",
"e. c #E0A629",
"r. c #E1AD35",
"t. c #E5B326",
"y. c #E3B33C",
"u. c #E8BC31",
"i. c #E5B435",
"p. c #DAA741",
"a. c #C3A256",
"s. c #C0AF6B",
"d. c #D5AD60",
"f. c #D9B373",
"g. c #E5B643",
"h. c #E4B747",
"j. c #E6BE56",
"k. c #EBC31D",
"l. c #F4DE1C",
"z. c #ECC408",
"x. c #EAC637",
"c. c #EED024",
"v. c #C2C27E",
"b. c #DFC87D",
"n. c #EBC647",
"m. c #ECC855",
"M. c #F1D54A",
"N. c #F0D45B",
"B. c #ECCA67",
"V. c #E9D561",
"C. c #F2D968",
"Z. c #F3D978",
"A. c #F2E06F",
"S. c #F4E072",
"D. c #9A9684",
"F. c #9C9984",
"G. c #9B9885",
"H. c #A19C85",
"J. c #A19D8B",
"K. c #ABA887",
"L. c #A9A592",
"P. c #ADA999",
"I. c #A8A594",
"U. c #B0AA8D",
"Y. c #B1AD9B",
"T. c #B4AF93",
"R. c #BBBB8A",
"E. c #B6B195",
"W. c #B4B09B",
"Q. c #B8B398",
"!. c #BDBA9D",
"~. c #B0ADA2",
"^. c #B1AFA8",
"/. c #B5B2A2",
"(. c #B6B4AA",
"). c #BCBAAC",
"_. c #BAB7A6",
"`. c #BDBBB1",
"'. c #C4BA9E",
"]. c #C0BDAB",
"[. c #C1BCA3",
"{. c #C0BEB3",
"}. c #C8C786",
"|. c #C9CB93",
" X c #CED48D",
".X c #CED298",
"XX c #D8C986",
"oX c #D8CF96",
"OX c #D3D38C",
"+X c #D3D494",
"@X c #D3D39B",
"#X c #DCDC94",
"$X c #D9D899",
"%X c #C8C3A9",
"&X c #C3C0B5",
"*X c #C5C3B9",
"=X c #CAC6B4",
"-X c #C9C7BD",
";X c #CBC9BC",
":X c #CAC8B6",
">X c #D5C6AB",
",X c #D2CEB4",
"<X c #DCDCA0",
"1X c #D2D7A2",
"2X c #D6D2B6",
"3X c #DAD5BA",
"4X c #DDD8BD",
"5X c #D6D2BB",
"6X c #DFE096",
"7X c #E2CC8F",
"8X c #E4C491",
"9X c #ECDB80",
"0X c #E6DF96",
"qX c #F3DD99",
"wX c #E0DFA2",
"eX c #E5DEBF",
"rX c #F2DCA0",
"tX c #E3E39C",
"yX c #E8E89F",
"uX c #F7E884",
"iX c #E4E4A4",
"pX c #E4E7AB",
"aX c #EAEAA4",
"sX c #ECECAB",
"dX c #EAEDB0",
"fX c #E9F0A9",
"gX c #EDF2B3",
"hX c #F5E2A6",
"jX c #F6E9B4",
"kX c #FAF0AB",
"lX c #CCCAC2",
"zX c #D0CEC3",
"xX c #D5D3C2",
"cX c #D4D3CA",
"vX c #DDD9C3",
"bX c #DEDCC9",
"nX c #D8D5C5",
"mX c #DCDAD3",
"MX c #DBDAD4",
"NX c #E1DECC",
"BX c #E1DCC2",
"VX c #E0DED0",
"CX c #E0DFDA",
"ZX c #E4E0CC",
"AX c #EAE1C6",
"SX c #E4E3DA",
"DX c #E8E5D3",
"FX c #EDEADD",
"GX c #E7E5D4",
"HX c #FCF5CC",
"JX c #EDEBE0",
"KX c #F1EEE2",
"LX c #F3F1E5",
"PX c #F4F3E9",
"IX c #FEFEFE",
"UX c #F8F9F5",
"YX c None",
/* pixels */
"YXYXYXYXYXYXO | T r ^ ^ Q Q Q Q Q Q Q Q Q Q ! ! r _ !.YXYXYXYXYXYX",
"YXYXYXYXO _ ( '.5X3X3X4X4X3X4X3X4X4X4X3X2X2X,X%X[.U.( ! !.YXYXYXYX",
"YXYXYXE.T %XeX4XnXAXAXZXGXDXDXDXDXDXDXDXGXNXbX5X%X!.Q.L.E U.YXYXYX",
"YXYXQ.Q 2X4XvXDXrXj.h.h.f.jXkXuXuXHXPXLXLXLXJXSXVXzX].W.I.Q U.YXYX",
"YXO E 2X4XZXLXhXu.8.1.1.>.k.l.w.l 6.A.HXKXJXFXSXVXnX-X_.P.P.E W.YX",
"YXO %X4XZXLXLXn.w.5.8.8.>.*.9.z.%.j j 4.A.JXFXGXVXnX;X%X/.P.I.T O ",
"O e 4XvXKXLXqXq.t.t.p.8.;.&.S L 9.9.Z d %.uXzXNXmXnX;X{./.^.P.( E.",
"| '.eXDXLXKXn.w.u.h.h.p.,.;.I S b V -.4.z.c.'.*XmXnX;X{.(.P.(.I.E ",
"F 3X4XLXLXrXu.u.i.y.r.2.<.;.I P S N k M %.9.M z >XnX;X]./.Y.).(.E ",
"F 4XBXLXKXM.n.n.h.g.r.2.<.P P C V m v a g h d 4 h [ =X]./.P.{.`.~ ",
"/ 4XZXPXjXu.N.h.g.r.1.<.;.P b b h h h g d , s v g a  .)./.P.{.{.` ",
"/ 4XDXLXN.M.B.h.r.1.2.=.C n n S f.8X8X}.] 4 ; > a a k /./.P.{.*XH.",
"/ 3XDXjXM.C.B.y.e.e.=.L m P d.IXPXUXSXK.1XoX] ; % ; > P./.P.{.*XH.",
"/ 3XZXZ.N.C.j.r.5.=.L m n s.:XbXIXPX!.R.<XpXdXoXc % & L./.I.{.*XJ.",
"/ 3XjXM.9XB.g.r.=.L L n :.|.#.K.T.K.R.$XsXdXpXdXpX'.H 8 ~ I.*X*XJ.",
"/ 3XZ.C.Z.m.y.7.=.L K m '.#XoX.XR.}..XfXdXdXsXiX0X#X|.} 6 i ).*XF.",
"/ 3XV.A.N.y.e.e.*.V m Y dXgXsX#X$X@XwXdXgXsXsXiXwX@X|.o.z 9 ^.*XG.",
"/ 2XV.M.n.r.e.=.L m n b.gXsXsXsXsXsXdXfXsXpXiXiX$XoX|.D 3 9 ).{.K.",
"/ 3XqXx.0.5.=.L V v S gXsXsXfXfXsXsXsXsXaXaXiXiX$X@X+.l + y {.*XF.",
"^ 2XZXS.3.U %.K b s 9XsXaXsXkXaXaXsXaXaXaXaXiX#X+X.XA - + G.{.*XF.",
"Q ,XBXFXjX3.B B a S aXaXaXaXaXaXaXaXaXyXyXyX#X$X+Xs.6   w F.*X*XF.",
"Q ,XvXDXDXZXoX5 ; b.aXiXyXyXyXyXyXyXtXtXtXtX#XOX XD X + J.J.*X*XK.",
"Q %X2XGXNXNX4XJ A fXyXtXtXtXtXtXyXtXtXtX#X#XOX X+.<   i G.I.-XlX) ",
"r %X=XbXvXnX=XJ N d.6X6X6X6X6XtX0X#X#XOXOXOXv.}.c . # F.D./.lXlX( ",
"T Q.'.xXxX5X;XW 0 8 f a.+X6X#XOX#XOXOXOX}.v.$.o.$ X i D.D.*XcXcXr ",
"K.K.Q.%X:X=X=X_.J.y 2 = f { v. Xb.v.v.v.$.@.$.7 . # ( D.P.cXMX{.Q ",
"O F W.W.].].].].!.I.D.w 2 * f ] $.$.$.#.#.#.' o X t D.I.cXMXMX( !.",
"YXK.) Y.W./.W.E.W.W.L.J.W 0 2 * 6 R ..#.....7 . - W P.zXCXCX`.^ YX",
"YXO _ F.P.P.P.P.I.I.L.I.L.J.p q 1 1 8 c _ T @ # p ).cXCXCXlXE O YX",
"YXYX$ ` ) P./._._._.Y.Y.P.P.P.I.D.W u t G J p P.lXmXCXCX*XE W.YXYX",
"YXYXYXO _ ~ P.(.{.*X*X-X-X;X;XlX;X-X:X(.^.^.^.lXcXMXcXI.! !.YXYXYX",
"YXYXYXYXO E.T ~ J.Y.`.*X-X-X-X-X-X-X-X-XlX`.*X)./.K.F U.O YXYXYXYX",
"YXYXYXYXYXYXYX_.X.Q T r F F F F F r F F F r F Q _ E.$ YXYXYXYXYXYX"
};
