/* XPM */
const char *previous2_xpm[] = {
/* columns rows colors chars-per-pixel */
"33 33 256 2",
"   c #040100",
".  c #090100",
"X  c #090803",
"o  c #1D0400",
"O  c #280A00",
"+  c #2C1E0E",
"@  c #310800",
"#  c #2F210F",
"$  c #470B00",
"%  c #4D1200",
"&  c #563918",
"*  c #6E3D1B",
"=  c #713E06",
"-  c #6A2B0D",
";  c #783D43",
":  c #7C4146",
">  c #7B454B",
",  c #7C4E52",
"<  c #86370F",
"1  c #853C12",
"2  c #824B10",
"3  c #884109",
"4  c #865825",
"5  c #895926",
"6  c #955E2E",
"7  c #8B6937",
"8  c #95612D",
"9  c #9C6130",
"0  c #84662C",
"q  c #A4490C",
"w  c #AE4E29",
"e  c #A15828",
"r  c #A7672A",
"t  c #A57438",
"y  c #8A4F4A",
"u  c #8D5649",
"i  c #815456",
"p  c #925A45",
"a  c #90594B",
"s  c #935A51",
"d  c #8F6750",
"f  c #817A54",
"g  c #9A6247",
"h  c #9E6554",
"j  c #927241",
"k  c #9B7656",
"l  c #8A6062",
"z  c #936A6C",
"x  c #996F70",
"c  c #987070",
"v  c #A56B4A",
"b  c #A56040",
"n  c #AA744D",
"m  c #A67647",
"M  c #A17857",
"N  c #A87856",
"B  c #B1784F",
"V  c #B77447",
"C  c #B17B5A",
"Z  c #B57C52",
"A  c #A46D58",
"S  c #AD7960",
"D  c #CD601E",
"F  c #C8632B",
"G  c #CA7838",
"H  c #D56B29",
"J  c #D87A38",
"K  c #D26535",
"L  c #88825D",
"P  c #9E854A",
"I  c #9E8856",
"U  c #8B8461",
"Y  c #938D69",
"T  c #978660",
"R  c #928D71",
"E  c #96906E",
"W  c #99926F",
"Q  c #959075",
"!  c #99957C",
"~  c #9B9676",
"^  c #A6894C",
"/  c #A8885A",
"(  c #AD9358",
")  c #B58955",
"_  c #BA845A",
"`  c #B78658",
"'  c #B4945A",
"]  c #BD9C58",
"[  c #A98864",
"{  c #A58478",
"}  c #AC9163",
"|  c #A6997B",
" . c #B78E61",
".. c #BE8961",
"X. c #B88F78",
"o. c #BD9564",
"O. c #B79967",
"+. c #B89977",
"@. c #BEA069",
"#. c #BBA179",
"$. c #B7A27A",
"%. c #DC853E",
"&. c #E0853B",
"*. c #C58643",
"=. c #C28A5D",
"-. c #C29C54",
";. c #CC9A5D",
":. c #C3985A",
">. c #DD8943",
",. c #DA8848",
"<. c #DB8850",
"1. c #DC934B",
"2. c #DE965B",
"3. c #D89555",
"4. c #C28C60",
"5. c #CD9D69",
"6. c #C69766",
"7. c #C19E70",
"8. c #D49E6B",
"9. c #DE9762",
"0. c #D49D66",
"q. c #C4A05C",
"w. c #CCA458",
"e. c #D6A35D",
"r. c #DAA459",
"t. c #DCAE5C",
"y. c #D7A759",
"u. c #DCB45E",
"i. c #C6A568",
"p. c #CBAB79",
"a. c #C7A772",
"s. c #CEB07A",
"d. c #CDB076",
"f. c #D4A563",
"g. c #D4A46B",
"h. c #D5AC64",
"j. c #D8AB62",
"k. c #D9AB6B",
"l. c #D8A16F",
"z. c #D2AC7A",
"x. c #DAA473",
"c. c #D7A678",
"v. c #DCB163",
"b. c #DEB56A",
"n. c #D9BB6D",
"m. c #D1B377",
"M. c #E58C4A",
"N. c #E4984C",
"B. c #E69750",
"V. c #E19B64",
"C. c #E3A152",
"Z. c #E4AC5D",
"A. c #EBA656",
"S. c #E7B45E",
"D. c #F5B55F",
"F. c #E1A26E",
"G. c #E3B564",
"H. c #E0B669",
"J. c #E4BA62",
"K. c #E8B561",
"L. c #ECBA64",
"P. c #EABB68",
"I. c #E3BB6A",
"U. c #E3BD7B",
"Y. c #F1BD69",
"T. c #EAC063",
"R. c #E7C575",
"E. c #F2C46B",
"W. c #F8C96C",
"Q. c #F2C974",
"!. c #9A9681",
"~. c #9D9983",
"^. c #A09C86",
"/. c #A19D89",
"(. c #AB9885",
"). c #A5A28C",
"_. c #A8A38D",
"`. c #ADA386",
"'. c #AAA492",
"]. c #ADA994",
"[. c #AEAA9A",
"{. c #A7A492",
"}. c #B5A484",
"|. c #B2AC92",
" X c #B1AD9A",
".X c #B3A794",
"XX c #B6B195",
"oX c #B4B09B",
"OX c #BAB499",
"+X c #BAB49A",
"@X c #B1AFA1",
"#X c #BDB9A3",
"$X c #BBB9AB",
"%X c #B8B4A4",
"&X c #CAAB82",
"*X c #CDAF9A",
"=X c #C1B288",
"-X c #C4BD9E",
";X c #D4B183",
":X c #D3B68B",
">X c #D3BC93",
",X c #C0BCA4",
"<X c #EABA93",
"1X c #E5A887",
"2X c #E1B9A4",
"3X c #D6C39A",
"4X c #C5C0A5",
"5X c #CAC6AD",
"6X c #C7C3AD",
"7X c #C4C2B5",
"8X c #C8C6BC",
"9X c #CDCAB5",
"0X c #C8C6B9",
"qX c #DDCEAE",
"wX c #D3CDB3",
"eX c #D1CEB9",
"rX c #D5D1B6",
"tX c #DBD6BB",
"yX c #DDD9BD",
"uX c #E4C298",
"iX c #F0C187",
"pX c #FCDA82",
"aX c #F7D796",
"sX c #EBCEB0",
"dX c #E8D4A4",
"fX c #E7D7B6",
"gX c #F7DFAA",
"hX c #F2DDBE",
"jX c #E6CBA9",
"kX c #FDE4A5",
"lX c #CCCAC1",
"zX c #D0CEC6",
"xX c #D5D3CC",
"cX c #D9D5C2",
"vX c #DDD9C3",
"bX c #D9D6C6",
"nX c #D7D6D0",
"mX c #D8D7D0",
"MX c #DAD9D2",
"NX c #DFDFD9",
"BX c #E1DCC3",
"VX c #E1DDCA",
"CX c #EEDBC6",
"ZX c #E0DFD9",
"AX c #F0DEC4",
"SX c #E4E1CD",
"DX c #EBE2CB",
"FX c #E5E2D1",
"GX c #E9E6D4",
"HX c #EBE8D6",
"JX c #ECE9D9",
"KX c #E2E1DC",
"LX c #F2E5C7",
"PX c #F0EDDF",
"IX c #F0EDE1",
"UX c #F3F0E5",
/* pixels */
"JXJXJXJXJXwX^.L f Y Y 7 5 5 5 5 4 4 4 4 5 5 4 = 1 q D c.HXJXJXJXHX",
"JXHXJX5X~ W -XtXcXfXqX;X;X;X;X;X;X;X;X;X:X:X:X:X+.j 2 r uXJXHXJXHX",
"JXJXXXU 4XvXyXyXVXVXc.0.8.l.l.l.l.l.c.l.c.c.a.c.p.&X$.0 r jXHXJXHX",
"HXXXY rXyXfXHXUXIX<X2.2.B.V.V.V.V.V.V.V.9.V.V.x.c.a.#.}.j t fXJXHX",
"5XU rXfXdXLXUXJX<X1.,.,.M.M.B.M.M.M.1.B.3.B.3.2.9.0.a.+.}.7 ) HXHX",
"~ ,XtXVXgXaXLX<X>.%.J J J 6 6 6 9 G &.>.1.1.1.1.3.;.5.a.+.`.0 vXHX",
"W yXvXUXkXpXQ.>.%.%.%.G & X X X X # 6 M.1.N.1.1.1.3.;.6.+.`.T XXHX",
"OXtXGXUXaXQ.Y.B.N.N.B.6 . . .       + ` B.N.C.r.r.e.f.i.@.$.`.U HX",
"rXyXIXUX<XN.A.A.A.B.A.8 @ @ @ @ O o O m L.A.Z.Z.t.y.f.i.@.$.|.U rX",
"rXvXUXIXCXM.J &.N.A.A.*.- % % % $ $ * y.Y.P.P.J.G.j.h.h.@.$.XXR -X",
"rXSXUXIXPXsX<.F H C.K.S.3.e < < 1 9 r.P.Y.P.P.P.I.n.n.d.d.s.XXQ XX",
"rXSXUXIXJXJXCX1XK H A.Y.Y.Y.K.K.L.W.E.E.E.W.Q.Q.Q.R.n.n.$.XXOX~.|.",
"rXHXIXIXIXJXPXPX<Xw F Z.K.K.P.P.J.J.P.H.G.H.H.b.v.:.) / / | .X!.|.",
"rXFXIXJXJXJXJXJX*Xv 9 V Z s p p p p p v B B n v v g p p d W (.!.|.",
"rXFXIXIXIXJXJXfX6._ 4.=.h ; : ; y : ; a _ Z Z B B n v M M (..X~.|.",
"rXFXIXJXJXJXGXz.5.0.8.g._ u y s s s y N g.g.8.i.5.6.o. . .}..X~.|.",
"eXFXPXPXJXLXuXe.h.f.f.h.k.5.C N N S C l.n.k.k.g.f.i.:.o.} }.XX^.|.",
"9XFXJXJXJXfXt.t.t.t.v.v.j.H.H.b.H.H.H.G.v.v.v.h.y.w.:.] ' }..X! |.",
"5XSXHXHXDXdXR.U.I.I.S.T.T.T.P.T.T.T.T.J.S.J.v.t.y.w.-.' } +..X! |.",
"5XvXGXGXGXGXDXLXhXdXU.r.e.) ` ` ) ` ;.j.e.;.;.:.` / n M k | .X! |.",
"4XtXFXFXFXFXFXFXDXGX6.=.A y , i i i i S 6..._ ` N m k k k (._.~.XX",
",XeXbXbXvXvXVXVXSXp.6.5.[ l l x x x c X.c.7.7.o.' ) N T [ _..X! XX",
"+X0XbXeXcXcXvXvX3Xz.z.z.z.+.{ { { { +.;X:Xp.p.a.7.O.( } X..X%X! XX",
"oX,X8X9X9XeXrX3Xz.m.p.z.m.m.a.d.p.p.p.m.m.a.a.@.O.( / / `.OX#XR 4X",
"]. X7X,X6X6X4Xi.q.i.q.q.q.q.q.q.-.] -.q.] ] ' ( ^ ^ P I +X#X7Xf HX",
"! ].%X#X%X#X#X#X#X#X#X,X,X,X#X#X+X#X#X+XOXoX|._.).~.~.@X8X8X$XY JX",
"f {.].@X X X[. X X X XoXoX X XXXXX X].].'._.)./.~.!.{.lXzXxXR #XJX",
"|.Q {. X X{.).)._._._._._._.).).).).).)./.~.~.~.!.[.lXmXnX$XY JXHX",
"BX~ /.@X$X@X{./.~.~./././.~.~.~.~.~.~.~.~.!.!./.$XxXZXMX0XU ,XJXJX",
"JX5X~ ).$X8X8X7X$X%X@X[.[.[.[.[.[.[.[.@X%X$X8XMXZXKXZX7XU XXJXJXHX",
"JXJX9X~ Q $XlXzXxXmXmXmXMXMXmXmXmXMXMXMXMXMXNXZXKXMX_.Y +XJXJXJXJX",
"JXJXHXHX XU Q [.$X8XxXmXmXnXmXmXmXnXnXMXMXxX7X$X/.f |.vXJXHXJXHXJX",
"HXJXHXJXJXHX,X! W L f f f , L f f f f f f f W ~ XXSXJXJXJXJXHXJXHX"
};
