/* XPM */
const char *previous_xpm[] = {
/* columns rows colors chars-per-pixel */
"33 33 256 2",
"   c black",
".  c #0A0000",
"X  c #140400",
"o  c #190200",
"O  c #2B1C0D",
"+  c #380E00",
"@  c #370400",
"#  c #3A1000",
"$  c #31220F",
"%  c #4B0800",
"&  c #520A00",
"*  c #591D00",
"=  c #571500",
"-  c #463114",
";  c #503C1D",
":  c #5D312F",
">  c #6A0D00",
",  c #6D1100",
"<  c #762407",
"1  c #733614",
"2  c #62332C",
"3  c #693A3A",
"4  c #6F3F42",
"5  c #61421F",
"6  c #75470C",
"7  c #6E5732",
"8  c #704C29",
"9  c #7F4938",
"0  c #7D4A4A",
"q  c #7C4A47",
"w  c #BA3204",
"e  c #905717",
"r  c #835424",
"t  c #865B28",
"y  c #95592A",
"u  c #9C5D3A",
"i  c #9A4727",
"p  c #8E6B3E",
"a  c #9C613B",
"s  c #8A6428",
"d  c #A2421E",
"f  c #A24322",
"g  c #A6542E",
"h  c #A56938",
"j  c #B16934",
"k  c #BA763D",
"l  c #81514F",
"z  c #885956",
"x  c #985F45",
"c  c #8E6058",
"v  c #8D7340",
"b  c #817A54",
"n  c #9C6745",
"m  c #96675D",
"M  c #977543",
"N  c #967850",
"B  c #8F6560",
"V  c #926662",
"C  c #9C7062",
"Z  c #A66944",
"A  c #A96F51",
"S  c #AB7247",
"D  c #A47556",
"F  c #B57A41",
"G  c #B77C52",
"H  c #A97A66",
"J  c #C03B09",
"K  c #C44A18",
"L  c #CA5419",
"P  c #C47C3C",
"I  c #D16026",
"U  c #D8772B",
"Y  c #DC7E37",
"T  c #D46E45",
"R  c #D97D48",
"E  c #89815B",
"W  c #8B8461",
"Q  c #938C69",
"!  c #928D71",
"~  c #96906E",
"^  c #99926F",
"/  c #959075",
"(  c #99957B",
")  c #9B9676",
"_  c #A88C5B",
"`  c #AC905C",
"'  c #B4864A",
"]  c #BA8C50",
"[  c #B3925A",
"{  c #BC9256",
"}  c #A68E66",
"|  c #A59068",
" . c #AB9168",
".. c #A79A79",
"X. c #B48765",
"o. c #B99464",
"O. c #B89567",
"+. c #ADA27C",
"@. c #B7A479",
"#. c #B9A767",
"$. c #DC833B",
"%. c #DE8536",
"&. c #E78B3F",
"*. c #CF9148",
"=. c #C7995E",
"-. c #DC8A4A",
";. c #DD8743",
":. c #D0914A",
">. c #DD9059",
",. c #C68749",
"<. c #C28B63",
"1. c #C49363",
"2. c #C89362",
"3. c #C99B61",
"4. c #CD9C6D",
"5. c #C49A6A",
"6. c #C19F74",
"7. c #DD8A62",
"8. c #D59B6A",
"9. c #D49765",
"0. c #CFB25F",
"q. c #D3A056",
"w. c #CCA36F",
"e. c #C8A465",
"r. c #C2AC7D",
"t. c #CDA371",
"y. c #CBAE7E",
"u. c #C5A37B",
"i. c #C7B57B",
"p. c #D0A36F",
"a. c #D3A472",
"s. c #D3A872",
"d. c #D3AC7C",
"f. c #D9A775",
"g. c #D9B568",
"h. c #D1BB79",
"j. c #D9B676",
"k. c #E18B41",
"l. c #E58A41",
"z. c #E39849",
"x. c #E69958",
"c. c #E19D64",
"v. c #E7A557",
"b. c #EBB15C",
"n. c #E7A54E",
"m. c #EBAC60",
"M. c #E4A766",
"N. c #E9AC72",
"B. c #EBB264",
"V. c #E5B567",
"C. c #E4B874",
"Z. c #F2B765",
"A. c #C9C17C",
"S. c #D7C478",
"D. c #DFD17A",
"F. c #ECC369",
"G. c #E7C76A",
"H. c #E4C272",
"J. c #ECCD78",
"K. c #E7C976",
"L. c #EAD37B",
"P. c #F1C767",
"I. c #F5CD74",
"U. c #F2D379",
"Y. c #F8D37A",
"T. c #9A9681",
"R. c #9D9983",
"E. c #A09C86",
"W. c #A19D89",
"Q. c #B19B81",
"!. c #A5A28C",
"~. c #A8A38D",
"^. c #AFA88D",
"/. c #A9A592",
"(. c #ADA994",
"). c #AEAA9A",
"_. c #A7A492",
"`. c #B4A58A",
"'. c #B4AA8D",
"]. c #B9AE8C",
"[. c #BCA982",
"{. c #B3AD92",
"}. c #B2AD9B",
"|. c #B9AF97",
" X c #BDB38B",
".X c #B6B195",
"XX c #B4B09B",
"oX c #B9B499",
"OX c #BDB89E",
"+X c #B2AFA0",
"@X c #B9B5A2",
"#X c #BDB9A3",
"$X c #BBB9AC",
"%X c #B5B3A4",
"&X c #BFBDB2",
"*X c #C3BC97",
"=X c #D2AE81",
"-X c #D4B386",
";X c #D5B896",
":X c #C6AC85",
">X c #C0BCA4",
",X c #C0BDB1",
"<X c #E4B485",
"1X c #E9BA9C",
"2X c #C7C295",
"3X c #C5C0A5",
"4X c #C5C1AC",
"5X c #CAC5AD",
"6X c #CFCBAF",
"7X c #C4C2B5",
"8X c #CBC6B1",
"9X c #C8C6BC",
"0X c #CDCAB5",
"qX c #C6C5BB",
"wX c #DECAAE",
"eX c #D3CDB3",
"rX c #D6CDB8",
"tX c #D5D1B6",
"yX c #DBD5BA",
"uX c #DDD9BD",
"iX c #EFCB9B",
"pX c #F5CF9D",
"aX c #F9D384",
"sX c #F2D394",
"dX c #EEC2A3",
"fX c #EBDBBD",
"gX c #F0D5B8",
"hX c #FBE093",
"jX c #F6E0AC",
"kX c #F7E5B1",
"lX c #CCCAC1",
"zX c #D0CEC6",
"xX c #D5D3CC",
"cX c #D9D6C5",
"vX c #D7D6D0",
"bX c #D8D7D0",
"nX c #DAD9D2",
"mX c #DFDFD9",
"MX c #E1DBC2",
"NX c #E1DDCA",
"BX c #E8D9C6",
"VX c #E0DFD9",
"CX c #F4D8C1",
"ZX c #E4E1CC",
"AX c #EEE1CD",
"SX c #E5E2D1",
"DX c #E9E5D3",
"FX c #EBE8D6",
"GX c #ECE9D8",
"HX c #E2E1DC",
"JX c #F6E6C4",
"KX c #F5EBD4",
"LX c #EFEDE0",
"PX c #F0EDE1",
"IX c #F2F1E5",
"UX c #F4F3E9",
/* pixels */
"GXGXGXGXGXeX!.E 0 ) p r r r r r t r t t t t t 6 e ' fXFXGXGXFXGXGX",
"FXGXGX5X) ^ *XyXuXfX2Xj.d.y.=X=X=X-X-X=X-X;X;X2X#.S s [.FXGXGXFXGX",
"GXGX.XW 3XfXuXuXNXMX9.9.9.8.8.8.f.f.f.f.d.f.d.d.:X:X[.v ..GXGXFXFX",
"GX.XQ tXuXcXFXIXUXdX-.>.>.x.9.c.c.c.M.M.N.N.N.<Xj.=X@. XE +.FXGXGX",
"6XW tXuXZXIXUXIXIXx.Y -.l.z.z.x.x.x.v.p.v.M.M.g.N.j.y.@.[.E ].FXGX",
") OXyXNXIXIXIXIXgX%.$.$.l.l.P k T *.v.Z.m.v.v.V.g.j.j.r.[.'.E NXFX",
"^ uXyXJXIXIXLXLXM.U $.&.T 5 $ O O $ ; h M.B.B.B.M.g.j.i.[.{.) {.FX",
"oXyXfXsXKXLXLXgX%.$.k.k -               7 B.C.V.V.C.g.d.i.{.(.E FX",
"tXuXkXsXkXKXIXM.k.k.z.y . o X X X X . . . p I.C.C.C.g.h.i.].+XW eX",
"tXcXKXhXsXkXiXz.z.z.z.a @ # # # # # # # o 8 Y.H.H.H.H.h.i. X+X! 3X",
"yXZXKXaXaXaXZ.v.z.z.n.:.1 & * * * * * & % ' Y.F.K.S.S.h.i. X%X( .X",
"tXDXIXpXm.m.Z.m.v.n.v.b.*.g < , , , , < h K.J.L.L.K.S.h.i.2X@X( {.",
"tXDXLXKXB.$.Y Y &.$.z.v.Z.B.-.k j j k q.I.U.U.L.L.L.D.S.2X2XoX( {.",
"tXDXLXLXAX<XR I L L I I -.b.P.P.F.F.U.Y.U.U.L.U.L.D.D.S.A.2X#XR.{.",
"tXDXLXLXGXGXGXdX7.T K w d L U n.P.G.P.P.G.G.G.G.g.0.0.e.#.].OXR.{.",
"eXZXLXLXGXGXGXGXFXDXZ i d d d g h k k ' ' S h h a a u n N ..}.R.{.",
"eXSXLXLXGXGXGXGXGXgXx A A x r 3 2 : : 9 u u Z Z Z S Z D D Q.}.R.{.",
"eXSXGXGXGXGXGXDXBXH A G A l 4 4 9 3 2 3 A 2.1.1.1.1.o. . .`.}.T.{.",
"8XZXGXFXDXGXDXDX1XG G 4.C 0 l 4 0 0 0 0 m j.s.d.4.5.O.O.O.`.+XT.{.",
"5XcXDXDXDXDXDXBX<.4.4.f.<.l l l z z z z H d.s.w.w.5.O.O. .`.+X( {.",
"3XcXZXZXNXDXDX;X4.a.a.a.s.[ c c m m V C w.s.s.w.e.O.o. .| `.}.R.{.",
">XtXcXbXNXBXwX4.4.a.4.a.p.s.1.H X.} O.t.s.t.w.e.5.o.[ } | {.}.R.{.",
"OX8XcXrXcXrXu.1.1.1.1.1.=.=.e.=.2.3.e.e.e.3.=.{ [ [ _ _ ..|.%X( oX",
"}.#X9X0XrX>X:X6.:X6.{ ] ] ] ] [ ] ] ,.{ ] ] ' ` ` _ | | `.%X&X! 3X",
"/.XX7X4X4X4X5X8X8X8X8X8X8X8X6X8X8X5X5X4X4X>X#XXX^.~.!.R.&X&XqX0 FX",
"( (.@X@X%X#X#X#X>X>X#X>X>X>X>X>X#X>X#XOXXXXX(./.~.R.R.+X9X9X$X) GX",
"E _.(.+X}.(.).(.)..X).}.}.XX}.).(.(.(.(.(.!.!.E.R.T._.lXzXzX) >XGX",
"^.! _.+X}./._.~.~.~.~.!.~.!.!.~.~.~.!.!.E.E.R.T.T.).lXnXnX#X~ FXFX",
"NX) W.}.$X%X_.W.E.E.E.E.E.E.E.E.E.E.E.T.( R.( !.$XxXmXmXqXW 3XFXGX",
"FX5X) _.$XqXqX7X$X%X+X).).).).).).).).+X%X$X9XnXmXHXmX7XW oXFXGXFX",
"FXGX8X( / $XlXzXvXvXvXbXbXbXbXbXbXbXbXnXnXmXmXmXHXbX~.Q OXGXGXGXGX",
"GXFXGXGX{.W / ).$X9XxXxXvXbXbXbXbXbXbXbXbXbX7X$XE.b ^.cXGXFXGXFXGX",
"GXFXGXGXFXGX>X( ^ E b b b b b b b b b b b b ~ ) .XZXGXGXGXGXFXGXFX"
};
