/* XPM */
const char *tools_xpm[] = {
/* columns rows colors chars-per-pixel */
"33 33 256 2",
"   c #6B1E02",
".  c #721D00",
"X  c #7B1E00",
"o  c #742203",
"O  c #7A2401",
"+  c #7D2804",
"@  c #77290A",
"#  c #793618",
"$  c #672A12",
"%  c #7C4527",
"&  c #7D523E",
"*  c #832B04",
"=  c #882B03",
"-  c #832A09",
";  c #893208",
":  c #8E3410",
">  c #893E17",
",  c #913402",
"<  c #953B06",
"1  c #9A3D06",
"2  c #963908",
"3  c #993917",
"4  c #813D20",
"5  c #A03E05",
"6  c #A63E20",
"7  c #89411C",
"8  c #954209",
"9  c #9B450A",
"0  c #95471A",
"q  c #8A4929",
"w  c #81553B",
"e  c #924C24",
"r  c #935434",
"t  c #9D6139",
"y  c #A24206",
"u  c #A24608",
"i  c #A44B08",
"p  c #AA4C0A",
"a  c #A84506",
"s  c #A74917",
"d  c #AA530C",
"f  c #B34C06",
"g  c #B24D09",
"h  c #B4530A",
"j  c #BA550A",
"k  c #B9580A",
"l  c #B35716",
"z  c #AF4B25",
"x  c #AA4828",
"c  c #A35A2B",
"v  c #AC5035",
"b  c #B34F24",
"n  c #B75427",
"m  c #B15333",
"M  c #BC6017",
"N  c #BF6424",
"B  c #BA6236",
"V  c #BD7D21",
"C  c #817A54",
"Z  c #936A51",
"A  c #9C7555",
"S  c #997964",
"D  c #A47352",
"F  c #A87457",
"G  c #AC704F",
"H  c #C45306",
"J  c #C1520B",
"K  c #C55C0B",
"L  c #C95C04",
"P  c #C55D15",
"I  c #D05C07",
"U  c #C45F2E",
"Y  c #C2630E",
"T  c #CA660C",
"R  c #CA690E",
"E  c #C96713",
"W  c #D66D0E",
"Q  c #DA6C0D",
"!  c #D46D11",
"~  c #D37212",
"^  c #DC7514",
"/  c #DA741A",
"(  c #DD7A17",
")  c #C6692B",
"_  c #C76834",
"`  c #CA7527",
"'  c #CC7535",
"]  c #D86D29",
"[  c #D57328",
"{  c #D97625",
"}  c #DC7C32",
"|  c #E17817",
" . c #E0663A",
".. c #E07721",
"X. c #E17630",
"o. c #C7724F",
"O. c #CE7F5E",
"+. c #DA754C",
"@. c #DB7B5B",
"#. c #C27B65",
"$. c #E56D40",
"%. c #E47648",
"&. c #B28020",
"*. c #88825D",
"=. c #8B8461",
"-. c #8E8868",
";. c #948D6A",
":. c #958C72",
">. c #96906E",
",. c #99926F",
"<. c #959074",
"1. c #9B9474",
"2. c #99947B",
"3. c #9E9877",
"4. c #9F9979",
"5. c #A58A6A",
"6. c #A08F75",
"7. c #A5997D",
"8. c #B79579",
"9. c #DE802A",
"0. c #DA8537",
"q. c #E08A1E",
"w. c #E48939",
"e. c #E3982D",
"r. c #EDAB2B",
"t. c #F0AD34",
"y. c #F2B52C",
"u. c #D98B45",
"i. c #D48A58",
"p. c #DE9A42",
"a. c #DD945B",
"s. c #CD8E72",
"d. c #C79076",
"f. c #D08C73",
"g. c #DC9664",
"h. c #DD9A75",
"j. c #CC8466",
"k. c #D7A05F",
"l. c #C1A17A",
"z. c #E88848",
"x. c #EA8A52",
"c. c #E39241",
"v. c #EC9A54",
"b. c #F89F57",
"n. c #E99E7F",
"m. c #E6A24C",
"M. c #E9A85B",
"N. c #EFBE48",
"B. c #EBBD54",
"V. c #F4A558",
"C. c #EDAB6C",
"Z. c #EAA879",
"A. c #E8BB70",
"S. c #F3AB66",
"D. c #F0B461",
"F. c #F8BE74",
"G. c #E6B765",
"H. c #F4CC50",
"J. c #F4C843",
"K. c #F6C874",
"L. c #F0DD6F",
"P. c #F6D67B",
"I. c #9A9681",
"U. c #9D9983",
"Y. c #A19C85",
"T. c #A19D89",
"R. c #B59C83",
"E. c #A4A18B",
"W. c #A8A38D",
"Q. c #AEA98C",
"!. c #AAA693",
"~. c #ADA994",
"^. c #AEAA9A",
"/. c #A7A492",
"(. c #B0AA8D",
"). c #B2AD92",
"_. c #B1AE9A",
"`. c #BBA996",
"'. c #B6B195",
"]. c #B9B499",
"[. c #B8B49C",
"{. c #B8AFA1",
"}. c #B4B2A3",
"|. c #B9B5A3",
" X c #B9B6A9",
".X c #BDB9A4",
"XX c #BCB9AC",
"oX c #B7B5A8",
"OX c #BFBDB1",
"+X c #C2A285",
"@X c #C1BB9E",
"#X c #CFBE92",
"$X c #DEAC96",
"%X c #D2BC8C",
"&X c #D8A385",
"*X c #C1BCA5",
"=X c #C0BDAC",
"-X c #C1BEB1",
";X c #ECB28B",
":X c #E8BE86",
">X c #F2BB91",
",X c #C5C0A4",
"<X c #C4C1AC",
"1X c #C9C5AD",
"2X c #CFCBAF",
"3X c #C3C0B2",
"4X c #CAC6B2",
"5X c #C9C6BC",
"6X c #CDCABB",
"7X c #C9C6B5",
"8X c #D2CDB3",
"9X c #D1CEBB",
"0X c #D5D1B6",
"qX c #DAD5BB",
"wX c #DDD9BD",
"eX c #EDD580",
"rX c #EFD896",
"tX c #F5D090",
"yX c #F6C791",
"uX c #E8CBB3",
"iX c #F7D4A9",
"pX c #F2D7B6",
"aX c #E8CDB4",
"sX c #F6EE8C",
"dX c #F7E190",
"fX c #F7E9A0",
"gX c #CCCAC1",
"hX c #D0CEC6",
"jX c #D5D3CC",
"kX c #D9D6C5",
"lX c #D9D7CA",
"zX c #DEDAC5",
"xX c #D7D6D0",
"cX c #D8D7D0",
"vX c #DAD9D2",
"bX c #DFDFD9",
"nX c #E0DBC3",
"mX c #E1DECC",
"MX c #ECDAC2",
"NX c #E1DFD1",
"BX c #E0DFD9",
"VX c #E4E1CC",
"CX c #EEE1CB",
"ZX c #EFE0C5",
"AX c #E6E3D2",
"SX c #E8E5D3",
"DX c #ECE9D7",
"FX c #ECE9D9",
"GX c #E3E2DB",
"HX c #F1E6CD",
"JX c #F1ECDF",
"KX c #F4E9D5",
"LX c #EEECE0",
"PX c #F0EEE1",
"IX c #F2F1E5",
"UX c #F4F3E9",
/* pixels */
"DXDXDXDXDX8XY.*.C ;.;.;.;.;.;.;.;.;.;.;.>.;.;.C 6.*XDXDXDXFXFXFXFX",
"DXDXDX1X4.1.].qXzXwXwXwXwXwXwXwXwXwXwXwXwXwXqX0X].7.;.].DXFXFXDXDX",
"DXFX'.=.,XwXwXwXMXAXAXAXSXDXSXSXVXSXSXSXNXmXnX9X2X1X].;.Q.FXDXFXDX",
"DX[.;.0XwXzXDXUXUXUXPXNXpX;Xh.j.#.#.f.$XPXIXIXFXVX8X,X.X<.Q.FXSXFX",
"2X*.0XwXVXUXIXIXIXIXpXeXZ.a.u.' B m v x #.uXLXLXFXbX9X*X[.-.'.FXDX",
"4.@XqXVXIXIXIXIXIXrXG.A.M.z.X.] ] [ U n z n uXLXAXAXkX4X.X^.*.zXFX",
",.qXwXIXIXIXPXJXdXL.eXK.0.X.] ] { { ` ) l o.uXFXGXAXlX6XXX}.2.).DX",
"].qXSXIXIXPXJXHXP.sXrXc.[ { { | / / E P i.pXFXFXAXNXlXhX<X X!.=.DX",
"0XwXPXIXFXPXFXtXK.dXD.{ ] | | | Q I H a.CXPXFXFXAXbXkX9XOX X}.=.9X",
"0XzXIXPXJXJXHXyXK.K.w.[ { | | Q I K g.CXFXPXFXCX%X#XkX9X3XXX}.<.,X",
"qXVXIXPXPXJXiXF.K.M.{ [ { | Q I H i.MXPXPXFXMXk.V &.l.6X3XOXoX<.].",
"0XVXIXJXJXPXyXS.S.c.{ { { Q I J P w.g.g.aXMXa.) ` 9 e 9X3XOX XI.(.",
"0XAXPXPXFXFX>Xx.v.w./ / ( ! H J q.r.e.) o.i.U ) 0 + % 9X3X3X XU.'.",
"0XAXPXPXPXFX;X%.x.{ Q ^ | T 5 M y.J.N.[ x z z > * o 7 6XOX3X XU.(.",
"0XAXPXFXFXFX;X$.z.{ Q ^ ( h = M t.H.B.' 6 x > # * + 0 7XOXOX XU.'.",
"0XAXFXPXFXFX>X .%.} ~ W ~ k = p [ p.u.n 3 1 9 8 * + e 7X=X3X XU.(.",
"8XNXPXJXHXiXm.v.C.0.~ R ~ T 1 - 3 b z 3 : 9 s < + o r 4X X=XoXI.'.",
"8XmXJXKXyXV.V.P.G.` R R R R h 2 @ ; : ; 8 d i = X o G <X X=XoXI.(.",
"2XmXKXn.x.V.K.v./ R R R Y Y j h 9 8 2 8 d i , + o - `.=X}.XXoX2.(.",
"1XnX&X$.x.S.c.T L Y R R R k f f k l l d u , + X . q <X.X_. X{.I.).",
"*X&X@.%.x.0.K H j j Y Y k h y 1 9 i 9 8 , + o   o `..X}.^.oX}.2.).",
"@Xf.@.+._ j g f f h h f 5 , , , , = * + o o o @ F *X|.^.~. X}.I.).",
"].d.O.m s a a a p p y , = ; 2 * O O O   O @ q R..X|._.!.^. X}.2.].",
"].d.G c p a 5 y y 1 = X 3 `.+XF r r r r A 8.XX.X[.^./.T.}.XXXX<.=X",
"Q.5.D c s 9 1 , = * . > 8.7X4X4X4X1X1X1X<X.X|.[.^.W.E.U.OXOX5XC DX",
"1.5.D t 0 7 ; + o   > R.*X*X*X*X.X.X.X[.[.'.~./.E.Y.U._.gX5X X-.DX",
"C Y.A A r # # @   > 7._.[.'.^.^.^.).~.~.!.W.E.E.U.I./.gXhXhX<..XDX",
"(.2.Y.S Z % # $ % 6.W./.W.E.W.W.W.W.E.E.E.U.U.I.2.^.gXvXcX X>.FXDX",
"zX2.U.~.7.S & & :.T.T.U.T.U.U.U.U.U.U.U.I.I.I.E.XXjXbXbX5X=.,XFXDX",
"FX1X4.E.[._.@XXXXX}._._.^.^.^.^.^.^.^.}.}.XX5XcXbXGXbX3X=.].FXDXFX",
"FXDX4X4.<.}.gXhXjXjXxXxXvXvXcXvXcXcXvXvXvXbXbXBXGXcXW.;.[.SXDXDXDX",
"DXFXFXFX).S :.^. XgXjXxXxXcXcXcXxXxXxXxXcXcX3X XE.C (.kXFXFXDXFXDX",
"FXDXDXFXDXFX.X7.,.*.C C C C C C C C C C C C >.1.'.mXDXDXDXDXFXDXFX"
};
