/* XPM */
const char *export_xpm[] = {
/* columns rows colors chars-per-pixel */
"33 33 257 2",
"   c #3F3603",
".  c #5D3E1D",
"X  c #642E0B",
"o  c #67300B",
"O  c #6B320C",
"+  c #623211",
"@  c #643B1E",
"#  c #70360E",
"$  c #76390E",
"%  c #793D0F",
"&  c #793E11",
"*  c #5E4122",
"=  c #64401C",
"-  c #71471F",
";  c #7D4111",
":  c #654424",
">  c #624628",
",  c #694B29",
"<  c #6C502E",
"1  c #74542F",
"2  c #795F3D",
"3  c #776F45",
"4  c #7E6B55",
"5  c #8F4A16",
"6  c #8D4F1B",
"7  c #874819",
"8  c #914C16",
"9  c #924F19",
"0  c #93551B",
"q  c #975A18",
"w  c #804A22",
"e  c #8F5C33",
"r  c #985024",
"t  c #9B5A23",
"y  c #97601C",
"u  c #996119",
"i  c #9C632B",
"p  c #9F682E",
"a  c #99622A",
"s  c #996B3F",
"d  c #A05B1D",
"f  c #A16518",
"g  c #AC661C",
"h  c #B77618",
"j  c #AB6D2C",
"k  c #A46B2E",
"l  c #A36B33",
"z  c #AC7131",
"x  c #B57E2D",
"c  c #B27433",
"v  c #B67835",
"b  c #B77A39",
"n  c #80644E",
"m  c #8A6C51",
"M  c #817A54",
"N  c #857556",
"B  c #9B704F",
"V  c #A2744D",
"C  c #A87F5A",
"Z  c #AD7751",
"A  c #B67F48",
"S  c #B07E44",
"D  c #BC811B",
"F  c #BD8D2B",
"G  c #BC813E",
"H  c #BC8938",
"J  c #89825D",
"K  c #87815C",
"L  c #8B8462",
"P  c #8A8674",
"I  c #8C8976",
"U  c #8E8A78",
"Y  c #908967",
"T  c #938D6A",
"R  c #98876A",
"E  c #928D71",
"W  c #918D7A",
"Q  c #96906E",
"!  c #98916E",
"~  c #969175",
"^  c #97947F",
"/  c #9B9574",
"(  c #99947D",
")  c #9E9877",
"_  c #9F9979",
"`  c #BD8342",
"'  c #BB9459",
"]  c #B7965A",
"[  c #A69960",
"{  c #A29C7D",
"}  c #A9957A",
"|  c #B4A466",
" . c #B1B06E",
".. c #BDBC75",
"X. c #C58D1D",
"o. c #C78515",
"O. c #C6931C",
"+. c #D0891E",
"@. c #D49014",
"#. c #CF9720",
"$. c #C6992D",
"%. c #CFB82D",
"&. c #D3AA2E",
"*. c #DAA52C",
"=. c #D9AA38",
"-. c #D1B428",
";. c #DCB323",
":. c #E0A51F",
">. c #E5AE1D",
",. c #E7B41D",
"<. c #E0A820",
"1. c #E1B72F",
"2. c #E6BB24",
"3. c #E3BB2F",
"4. c #C39F5F",
"5. c #C69449",
"6. c #C19C7D",
"7. c #CEA15E",
"8. c #C7A35D",
"9. c #C3A869",
"0. c #CEB876",
"q. c #CCBD7C",
"w. c #D6AF73",
"e. c #D6BF79",
"r. c #E0AE47",
"t. c #E3B342",
"y. c #E5C62F",
"u. c #EDCB25",
"i. c #E9C426",
"p. c #EBD52C",
"a. c #E9DA3B",
"s. c #F1C725",
"d. c #F7D126",
"f. c #F3DD29",
"g. c #F1D22D",
"h. c #F5E121",
"j. c #F6E92C",
"k. c #FBE728",
"l. c #FAEA2A",
"z. c #F5E22E",
"x. c #F5E734",
"c. c #F7E930",
"v. c #FEF22C",
"b. c #C8C77E",
"n. c #C9C87F",
"m. c #C6C57C",
"M. c #D7C278",
"N. c #EAD34A",
"B. c #EAD878",
"V. c #F0E144",
"C. c #979482",
"Z. c #999683",
"A. c #9D9984",
"S. c #9C998A",
"D. c #A19C85",
"F. c #A19D8A",
"G. c #A99B81",
"H. c #A5A18D",
"J. c #A9A58C",
"K. c #AEA98C",
"L. c #A5A292",
"P. c #A9A692",
"I. c #A9A798",
"U. c #ADA995",
"Y. c #ADAA9A",
"T. c #B1A089",
"R. c #B0AA8D",
"E. c #B3AC95",
"W. c #B1AD9B",
"Q. c #B9AF9D",
"!. c #B6B195",
"~. c #B4B09C",
"^. c #B8B39B",
"/. c #BDB89E",
"(. c #B1AEA0",
"). c #B5B2A2",
"_. c #B7B4A9",
"`. c #B9B4A2",
"'. c #B9B7A9",
"]. c #BDB9A6",
"[. c #BDBAAB",
"{. c #BDBBB1",
"}. c #C2BB9D",
"|. c #DDBD8A",
" X c #C1BDA3",
".X c #C0BDAB",
"XX c #C0BEB3",
"oX c #CDCC81",
"OX c #D9CF8A",
"+X c #D7C687",
"@X c #D1D086",
"#X c #D4D48A",
"$X c #D9D98E",
"%X c #DCD38E",
"&X c #DED390",
"*X c #DCDC92",
"=X c #DFDF9A",
"-X c #C5C0A3",
";X c #C5C0AD",
":X c #CAC5AB",
">X c #C3C0B5",
",X c #C5C3B9",
"<X c #C9C6B4",
"1X c #C9C7BD",
"2X c #CAC8BE",
"3X c #CBC8B6",
"4X c #D0CBAE",
"5X c #D1CBB3",
"6X c #D2CFBE",
"7X c #D8CEBB",
"8X c #DBC9B5",
"9X c #D6D2B6",
"0X c #D4D1BC",
"qX c #D9D4B7",
"wX c #DAD5BA",
"eX c #DDD8BD",
"rX c #E3CA9F",
"tX c #E3DB94",
"yX c #E8DA89",
"uX c #E7D4B1",
"iX c #E2E296",
"pX c #E3E399",
"aX c #E8E89C",
"sX c #EAE297",
"dX c #E4E3A2",
"fX c #E8E5A2",
"gX c #EAEAA2",
"hX c #EDEDAB",
"jX c #CCCAC1",
"kX c #D0CEC3",
"lX c #D3D1C2",
"zX c #D4D3CA",
"xX c #D8D5C7",
"cX c #DEDAC1",
"vX c #DDDBC9",
"bX c #D9D7D1",
"nX c #DCDBD3",
"mX c #E1DCC4",
"MX c #E2DDC9",
"NX c #E8DECA",
"BX c #E0DED0",
"VX c #E0DFDA",
"CX c #E4E1CC",
"ZX c #E8E4CF",
"AX c #E5E3D3",
"SX c #E3E2DA",
"DX c #E8E5D3",
"FX c #E8E6D8",
"GX c #EBE8D6",
"HX c #EDEBDC",
"JX c #F0EDDF",
"KX c #EDEBE0",
"LX c #F0EEE1",
"PX c #F2F0E4",
"IX c #F4F2E8",
"UX c gray100",
"YX c None",
/* pixels */
"YXYXYXYXYXYX  { L M T T T T T T T T T T T T Y Y M )  XYXYXYXYXYXYX",
"YXYXYXYX  ) / /.lXuXeXeXeXeXeXeXeXeXwXwXqX9X4X:X XJ.~ T /.YXYXYXYX",
"YXYXYX!.L -XuXvXmXMXNXNXAXAXGXAXAXDXDXDXAXMXvX7X:X/.~.J.L K.YXYXYX",
"YXYX~.T qXeXcXGXIXIXIXIXIXIXIXIXIXIXIXIXIXKXKXFXnXlX X~.U.E U.YXYX",
"YX  L 9XeXCXPXIXIXIXPXIXLXPXPXPXIXPXPXPXLXLXHXSXBXxX2X].Y.I.L !.YX",
"YX  -XeXCXIXPXPXLXLXLXLXLXPXJXLXJXJXLXLXLXLXHXFXBXxX2XXX).Y.L.J   ",
"  3 eXcXPXPXPXJXJXJXLXJXJXJXJXJXJXJXGXuXrX|.w.7.5.H 9.XX_.(.Y.~ !.",
"{ /.eXGXPXPXJXJXJXKXLXJXJXJXJXJXJXJX+X3.1.3.y.y.p.%.B '.).(._.I.L ",
"K eXeXPXPXJXJXHXJXJXHXJXHXJXHXHXHX8XH p.v.c.x.N.a.-.B Q.~.Y.{._.L ",
"4 eXmXIXPXJXHXJXHXJXHXJXHXHXJXJXHXNXV r &.l.z.N.&.X.a Q.~.Y.{.{.E ",
"! eXZXPXPXJXHXHXHXHXHXHXHXHXHXHXGXGXNXx F v.$.*.O.$.q E.).Y.,XXX) ",
"! wXZXPXJXHXHXHXHXHXHXHXHXHXc 5.HXr.<.l.v.;.t d X.O.y T.~.I.,X,XA.",
"! wXZXPXJXJXHXHXHXHXGXHXHX$.hX=.+.u.l.l.2.q T.Z 6 D u } ~.Y.XX,XD.",
"! wXZXPXJXHXHXHXHXHXHXHXA hXB.*.s.h.c.d.h Z DX8XC 6 7 } ~.Y.XX,XD.",
"! wXZXPXHXHXHXGXGXHXHXG hXyX*.2.h.l.g.<.g k DXvX7X3X3X[.Q.I.,X,XD.",
"! wXZXPXJXGXGXHXHXGXH gXtX=.2.z.j.g.s.X.i j j AXMXlX<X[.W.I.XX,XF.",
"! wXDXLXHXHXGXGXGXb hXtX1.i.v.l.f.2.>.h S hXz z k 6X<X'.~.P.>X,XD.",
"! qXZXJXHXGXGXGXv gXgXe.h h O.k.u.,.o.8 ] gXgXdXk p ;X).Y.L.{.,XD.",
"Q qXCXJXHXGXGXv tXhXgXtX' ' 8 f q @.o.k gXgXpXpX] ; ;X~.U.H.XX,XD.",
"T qXNXHXHXDXc e.gXgXgXgXgXgX0.n.5 5 5 5 %XfX=X0.0 ; ].~.U.H.{.,XD.",
"T 9XMXHXGXb 4.gXgXgXgXgXgXgXgXgXyXsXl a OXpX%X9 & G.`.Y.H.F.>X,XF.",
"Q 4XcXAXA 4.pXaXsXgXaXaXaXaXaXaXpXpXaXpXpX*Xk % m  X~.P.F.S.,X,XD.",
"T :X9XB | tXiXiXiXiXsXiXiXpXiXiXsXiXiX*X*XoX$ 1 !.^.U.H.S.I.1X1XA.",
"M -X}.vXe 7 k q.iX$XiX$X*X*X*X$X$X$X$X#XoX# , R ^.Y.J.D.A.).jXjX/ ",
"J ^.].0X0X- 7 $ $ ] #X#X#X#X#X#X@X@X@XoX# O 2 ^.~.J.D.A.Z.,XzXzX4 ",
"T.H.^.;X;X3X, - # O O | oXn.b.b.oXoXm.o O < ~.U.J.S.A.C.Y.zXzXXXT ",
"  K !.^.[..X]. X: = + O o | q.......o X . U.J.H.S.A.( L.zXnXnX) `.",
"YXR./ Y.~.~.~.~.~.~.* = + + + [  .+ o . J.D.F.A.( ( U.jXnXSX[.~ YX",
"YX  / D.Y.Y.Y.U.I.P.P.L.> > @ @ . @ @ S.S.D.A.Z.H.{.zXSXKXjXL   YX",
"YXYXX ! A.I.).[.'.).Q.W.(.(.N 4 m 4 Y.Y.Y.).'.>XkXbXnXSX,XL ~.YXYX",
"YXYXYX  _ T I.'.{.,X,XjXjXjX2X2X2X2X2X2XjXjXjXzXzXnXzXU.T ^.YXYXYX",
"YXYXYXYX  !.L E H.Y.{.,X,XjX1X1X1X1X1X1X1XjX1X[.'.S.M K.  YXYXYXYX",
"YXYXYXYXYXYXYX].{ Q K M M M M M M M M M M M M T ) !.  YXYXYXYXYXYX"
};
