/* XPM */
const char *show_hide_all_layers_xpm[]={
"15 14 16 1",
". c None",
"e c #000000",
"b c #0d0d0d",
"g c #151616",
"c c #313131",
"f c #424242",
"a c #525252",
"d c #5f5f5f",
"j c #752702",
"k c #7f7f7f",
"# c #8c8c8c",
"m c #cccccc",
"n c #dddddd",
"h c #f0af1a",
"i c #fffbfb",
"l c #ffffff",
"...............",
"...............",
"..##abccad##...",
"######aceeaad#.",
".....####abeea#",
"...#dafgbf#aeea",
".#dffeggegca#ac",
"#df#hijjh#gcdk.",
"#a#lhjjjhl#ebd#",
".#allhhhlllaed#",
"..#dlllllaaad##",
"....#mnnnn#k#..",
"...............",
"..............."};
