<?xml version="1.0" encoding="UTF-8" standalone="no"?>
<!-- Created with Inkscape (http://www.inkscape.org/) -->
<svg
   xmlns:dc="http://purl.org/dc/elements/1.1/"
   xmlns:cc="http://creativecommons.org/ns#"
   xmlns:rdf="http://www.w3.org/1999/02/22-rdf-syntax-ns#"
   xmlns:svg="http://www.w3.org/2000/svg"
   xmlns="http://www.w3.org/2000/svg"
   xmlns:sodipodi="http://sodipodi.sourceforge.net/DTD/sodipodi-0.dtd"
   xmlns:inkscape="http://www.inkscape.org/namespaces/inkscape"
   width="1052.3622"
   height="744.09448"
   id="svg2494"
   sodipodi:version="0.32"
   inkscape:version="0.46"
   version="1.0"
   sodipodi:docname="icon.svg"
   inkscape:output_extension="org.inkscape.output.svg.inkscape">
  <defs
     id="defs2496">
    <inkscape:perspective
       sodipodi:type="inkscape:persp3d"
       inkscape:vp_x="0 : 526.18109 : 1"
       inkscape:vp_y="0 : 1000 : 0"
       inkscape:vp_z="744.09448 : 526.18109 : 1"
       inkscape:persp3d-origin="372.04724 : 350.78739 : 1"
       id="perspective2502" />
  </defs>
  <sodipodi:namedview
     id="base"
     pagecolor="#ffffff"
     bordercolor="#666666"
     borderopacity="1.0"
     gridtolerance="10000"
     guidetolerance="10"
     objecttolerance="10"
     inkscape:pageopacity="0.0"
     inkscape:pageshadow="2"
     inkscape:zoom="0.35"
     inkscape:cx="16.428571"
     inkscape:cy="520"
     inkscape:document-units="px"
     inkscape:current-layer="layer1"
     showgrid="false"
     inkscape:window-width="1440"
     inkscape:window-height="825"
     inkscape:window-x="0"
     inkscape:window-y="25" />
  <metadata
     id="metadata2499">
    <rdf:RDF>
      <cc:Work
         rdf:about="">
        <dc:format>image/svg+xml</dc:format>
        <dc:type
           rdf:resource="http://purl.org/dc/dcmitype/StillImage" />
      </cc:Work>
    </rdf:RDF>
  </metadata>
  <g
     inkscape:label="Layer 1"
     inkscape:groupmode="layer"
     id="layer1">
    <g
       id="g2525"
       transform="translate(30.482239,13.970764)"
       inkscape:export-filename="/home/xtingray/tmp/ktoon_24x24.png"
       inkscape:export-xdpi="2.98"
       inkscape:export-ydpi="2.98">
      <rect
         inkscape:export-ydpi="21.210325"
         inkscape:export-xdpi="21.210325"
         inkscape:export-filename="/home/xtingray/tmp/ktoon.png"
         y="-2.6051028"
         x="133.09906"
         height="721.36316"
         width="725.19958"
         id="rect3475"
         style="fill:none;fill-opacity:1;stroke:none;stroke-width:1.97411048;stroke-linecap:round;stroke-linejoin:round;stroke-miterlimit:4;stroke-dasharray:none;stroke-opacity:1" />
      <g
         transform="matrix(3.797956,0,0,3.797956,-1129.6384,1454.9069)"
         inkscape:export-ydpi="21.210325"
         inkscape:export-xdpi="21.210325"
         inkscape:export-filename="/home/xtingray/tmp/ktoon.png"
         id="g3301">
        <g
           id="g3281">
          <path
             inkscape:export-ydpi="20.351753"
             inkscape:export-xdpi="20.351753"
             inkscape:export-filename="/home/xtingray/tmp/ktoon.png"
             sodipodi:nodetypes="cccccccccccccccccccccccccsccccccccc"
             id="path3479"
             d="M 510.28973,-214.97887 C 492.25977,-214.97887 433.96448,-214.43589 403.68823,-214.97887 C 401.33077,-230.78257 380.48452,-243.95829 370.21836,-242.23076 C 376.21655,-251.13074 388.16558,-251.59757 399.29237,-251.11676 C 399.33383,-250.61114 399.36764,-245.29471 399.43525,-245.25663 C 412.48841,-241.29264 423.2452,-246.79299 439.45058,-251.21979 C 439.49266,-248.59306 439.53474,-246.31498 439.51371,-243.61849 C 441.19688,-243.6185 447.88994,-243.54876 449.95183,-243.54876 C 450.07806,-245.36191 450.01495,-248.56981 449.95183,-252.05664 C 461.94515,-255.80866 468.25645,-268.95824 463.20677,-287.41318 C 457.25891,-281.79475 449.82435,-277.45185 445.71838,-276.78473 C 445.94981,-274.50666 445.99637,-269.3281 445.78598,-267.81715 C 444.01865,-266.49214 439.66328,-265.4527 437.51724,-265.4527 C 436.75989,-266.49531 435.49752,-268.94298 434.80331,-270.60662 C 419.90033,-260.64672 387.24141,-259.67991 371.97713,-261.93882 C 371.88276,-263.98718 371.74375,-266.87382 371.82791,-270.50014 C 370.26084,-270.56072 371.14931,-270.62133 368.28792,-270.68192 C 368.2624,-265.46926 368.6833,-261.35363 368.56852,-256.68339 C 364.5823,-256.68339 357.06923,-256.68339 355.04731,-256.84825 C 354.94783,-258.41202 354.9376,-260.06226 354.88276,-262.06984 C 346.94088,-261.83135 344.04435,-261.87008 333.24555,-261.7063 C 332.9887,-283.44539 347.05708,-311.06047 368.34635,-329.44982 C 381.47682,-341.56744 396.45747,-347.95881 405.07436,-351.01313 C 406.11335,-364.21728 421.02909,-363.43952 418.32931,-353.38418 C 429.16285,-354.47467 441.40665,-353.03481 447.61643,-351.98946 C 448.71296,-358.45737 461.13189,-367.37909 465.46961,-360.1789 C 467.58104,-356.67411 461.0219,-351.65341 455.94811,-349.75787 C 469.24514,-347.20085 482.16345,-337.67016 488.76989,-330.92895 C 492.04902,-332.53584 504.08166,-336.08217 507.65666,-328.74816 C 508.37898,-327.12215 511.04123,-321.34095 501.53088,-323.73204 C 498.33113,-324.81879 495.74229,-324.77203 494.92623,-324.08627 C 507.99141,-306.52735 508.11842,-294.96487 509.31437,-288.31253 C 515.92947,-289.49119 524.86013,-285.21291 522.16651,-276.31275 C 521.12476,-273.70582 513.34662,-276.83021 509.56188,-280.15859 C 511.14342,-259.6558 510.20483,-222.14481 510.28973,-214.97887 z"
             style="fill:#005a00;fill-opacity:1;fill-rule:evenodd;stroke:#000000;stroke-width:1.05085635px;stroke-linecap:butt;stroke-linejoin:miter;stroke-opacity:1" />
          <path
             inkscape:export-ydpi="20.351753"
             inkscape:export-xdpi="20.351753"
             inkscape:export-filename="/home/xtingray/tmp/ktoon.png"
             sodipodi:nodetypes="ccccccccccccccccccccccccc"
             id="path3481"
             d="M 508.15255,-217.69182 C 490.94932,-217.69182 430.88722,-217.36532 405.24024,-217.36532 C 405.39647,-227.66181 382.0738,-247.1297 373.13408,-243.34301 C 379.07369,-248.48281 386.32035,-249.59887 397.7856,-249.55405 C 397.82547,-248.27847 397.85802,-245.29826 397.92304,-243.92586 C 411.67533,-239.29921 426.91933,-245.55312 436.619,-248.73222 C 436.65947,-246.20605 436.82619,-245.13099 436.80595,-242.53774 C 438.42468,-242.53775 450.06413,-242.19174 452.04706,-242.19174 C 452.16847,-243.93546 451.85531,-246.88106 451.7946,-250.23439 C 464.4549,-253.81375 473.34111,-273.11365 464.03708,-291.90822 C 460.74564,-286.50491 447.00131,-277.47024 443.05255,-276.82867 C 443.27511,-274.63782 444.01412,-270.68957 443.81179,-269.23646 C 442.55407,-268.15159 440.67431,-267.91292 438.61044,-267.91292 C 437.5785,-269.09777 436.36447,-272.3501 435.33253,-274.07148 C 421.00017,-264.49292 388.2031,-261.88946 373.52326,-264.06187 C 373.43251,-266.0318 373.29883,-268.80792 373.37977,-272.29539 C 371.87269,-272.35366 369.7218,-272.41194 366.96996,-272.47021 C 366.94542,-267.45714 366.92087,-263.25027 366.81048,-258.75884 C 363.49209,-258.66943 360.47418,-259.00682 357.15579,-258.91739 C 357.06012,-260.42129 357.13615,-262.25716 357.08342,-264.18787 C 348.8552,-263.96536 345.0659,-264.03495 335.80066,-264.03549 C 337.47484,-298.78428 369.43481,-337.7348 406.15399,-348.90283 C 422.18649,-351.93614 435.50432,-351.89611 445.67485,-350.15456 C 482.09435,-341.63809 505.10826,-318.16439 507.11938,-280.31821 C 509.01003,-256.54579 507.81627,-226.77519 508.15255,-217.69182 z"
             style="fill:#99d420;fill-opacity:1;fill-rule:evenodd;stroke:none;stroke-width:2;stroke-linecap:butt;stroke-linejoin:miter;stroke-miterlimit:4;stroke-dasharray:none;stroke-opacity:0.63203466" />
          <path
             transform="matrix(1.0636311,0,0,1.0636311,44.81371,-562.15613)"
             d="M 316.55655,235.40131 A 16.414978,16.414978 0 1 1 283.72659,235.40131 A 16.414978,16.414978 0 1 1 316.55655,235.40131 z"
             sodipodi:ry="16.414978"
             sodipodi:rx="16.414978"
             sodipodi:cy="235.40131"
             sodipodi:cx="300.14157"
             id="path3485"
             style="fill:#000000;fill-opacity:1;stroke:none;stroke-width:2;stroke-linecap:round;stroke-linejoin:round;stroke-miterlimit:4;stroke-dasharray:none;stroke-opacity:1"
             sodipodi:type="arc" />
          <path
             transform="matrix(1.3449045,0,0,1.3449045,12.31431,-626.14376)"
             d="M 316.55655,235.40131 A 16.414978,16.414978 0 1 1 283.72659,235.40131 A 16.414978,16.414978 0 1 1 316.55655,235.40131 z"
             sodipodi:ry="16.414978"
             sodipodi:rx="16.414978"
             sodipodi:cy="235.40131"
             sodipodi:cx="300.14157"
             id="path3487"
             style="fill:#000000;fill-opacity:1;stroke:none;stroke-width:2;stroke-linecap:round;stroke-linejoin:round;stroke-miterlimit:4;stroke-dasharray:none;stroke-opacity:1"
             sodipodi:type="arc" />
          <path
             transform="matrix(0.5836317,0,0,0.5836317,186.15154,-451.90754)"
             d="M 316.55655,235.40131 A 16.414978,16.414978 0 1 1 283.72659,235.40131 A 16.414978,16.414978 0 1 1 316.55655,235.40131 z"
             sodipodi:ry="16.414978"
             sodipodi:rx="16.414978"
             sodipodi:cy="235.40131"
             sodipodi:cx="300.14157"
             id="path3489"
             style="fill:#ffffff;fill-opacity:1;stroke:none;stroke-width:2;stroke-linecap:round;stroke-linejoin:round;stroke-miterlimit:4;stroke-dasharray:none;stroke-opacity:1"
             sodipodi:type="arc" />
          <path
             transform="matrix(0.3054155,0,0,0.3054155,279.69296,-377.58237)"
             d="M 316.55655,235.40131 A 16.414978,16.414978 0 1 1 283.72659,235.40131 A 16.414978,16.414978 0 1 1 316.55655,235.40131 z"
             sodipodi:ry="16.414978"
             sodipodi:rx="16.414978"
             sodipodi:cy="235.40131"
             sodipodi:cx="300.14157"
             id="path3491"
             style="fill:#ffffff;fill-opacity:1;stroke:none;stroke-width:2;stroke-linecap:round;stroke-linejoin:round;stroke-miterlimit:4;stroke-dasharray:none;stroke-opacity:1"
             sodipodi:type="arc" />
          <path
             transform="matrix(0.7825221,0,0,0.7825221,176.59654,-498.96357)"
             d="M 316.55655,235.40131 A 16.414978,16.414978 0 1 1 283.72659,235.40131 A 16.414978,16.414978 0 1 1 316.55655,235.40131 z"
             sodipodi:ry="16.414978"
             sodipodi:rx="16.414978"
             sodipodi:cy="235.40131"
             sodipodi:cx="300.14157"
             id="path3493"
             style="fill:#ffffff;fill-opacity:1;stroke:none;stroke-width:2;stroke-linecap:round;stroke-linejoin:round;stroke-miterlimit:4;stroke-dasharray:none;stroke-opacity:1"
             sodipodi:type="arc" />
          <path
             transform="matrix(0.419331,0,0,0.419331,299.37414,-401.40241)"
             d="M 316.55655,235.40131 A 16.414978,16.414978 0 1 1 283.72659,235.40131 A 16.414978,16.414978 0 1 1 316.55655,235.40131 z"
             sodipodi:ry="16.414978"
             sodipodi:rx="16.414978"
             sodipodi:cy="235.40131"
             sodipodi:cx="300.14157"
             id="path3495"
             style="fill:#ffffff;fill-opacity:1;stroke:none;stroke-width:2;stroke-linecap:round;stroke-linejoin:round;stroke-miterlimit:4;stroke-dasharray:none;stroke-opacity:1"
             sodipodi:type="arc" />
          <path
             sodipodi:nodetypes="ccccc"
             id="path3497"
             d="M 380.51255,-314.46967 C 380.8515,-312.4244 380.91933,-310.4495 380.91404,-308.94923 C 382.84038,-308.35359 392.66765,-308.25384 394.0756,-308.82295 C 393.94177,-310.32853 394.20943,-313.03856 394.7782,-314.54414 C 391.70013,-315.07946 384.69471,-315.33956 380.51255,-314.46967 z"
             style="fill:#000000;fill-opacity:1;fill-rule:evenodd;stroke:#000000;stroke-width:1.12416303px;stroke-linecap:butt;stroke-linejoin:miter;stroke-opacity:1" />
          <path
             inkscape:export-ydpi="20.351753"
             inkscape:export-xdpi="20.351753"
             inkscape:export-filename="/home/xtingray/tmp/ktoon.png"
             sodipodi:nodetypes="ccczc"
             id="path3499"
             d="M 415.8147,-352.95872 C 413.94017,-352.87653 409.66965,-352.51642 406.54543,-351.79319 C 406.76859,-354.98199 407.91488,-356.96937 410.94984,-358.67884 C 413.64262,-359.79656 415.77007,-359.07333 416.21639,-357.59399 C 416.6627,-356.11464 416.90074,-354.17507 415.8147,-352.95872 z"
             style="fill:#fcc707;fill-opacity:1;fill-rule:evenodd;stroke:none;stroke-width:1px;stroke-linecap:butt;stroke-linejoin:miter;stroke-opacity:1" />
          <path
             inkscape:export-ydpi="20.351753"
             inkscape:export-xdpi="20.351753"
             inkscape:export-filename="/home/xtingray/tmp/ktoon.png"
             sodipodi:nodetypes="ccczc"
             id="path3501"
             d="M 453.96564,-350.59082 C 452.26963,-350.60725 450.35047,-351.06749 448.83298,-351.13324 C 449.77026,-356.59036 454.9029,-360.12435 457.75934,-360.84758 C 460.63064,-361.47219 463.91852,-361.63656 463.29367,-357.59303 C 462.65632,-353.4685 455.76579,-350.91956 453.96564,-350.59082 z"
             style="fill:#fcc707;fill-opacity:1;fill-rule:evenodd;stroke:none;stroke-width:1px;stroke-linecap:butt;stroke-linejoin:miter;stroke-opacity:1" />
          <path
             inkscape:export-ydpi="20.351753"
             inkscape:export-xdpi="20.351753"
             inkscape:export-filename="/home/xtingray/tmp/ktoon.png"
             sodipodi:nodetypes="ccccc"
             id="path3503"
             d="M 494.71885,-325.24693 C 493.17259,-326.01694 491.72095,-328.86843 490.35606,-329.60411 C 494.06304,-332.08 499.04896,-331.83746 501.81587,-331.17417 C 504.67159,-330.46769 508.36258,-327.00962 505.75742,-324.82529 C 503.63765,-323.68293 497.49621,-326.69911 494.71885,-325.24693 z"
             style="fill:#fcc707;fill-opacity:1;fill-rule:evenodd;stroke:none;stroke-width:1px;stroke-linecap:butt;stroke-linejoin:miter;stroke-opacity:1" />
          <path
             inkscape:export-ydpi="20.351753"
             inkscape:export-xdpi="20.351753"
             inkscape:export-filename="/home/xtingray/tmp/ktoon.png"
             sodipodi:nodetypes="cczcc"
             id="path3505"
             d="M 509.57907,-281.70484 C 509.38124,-282.82354 509.4317,-285.16469 509.27228,-286.45826 C 512.32762,-287.21856 516.14835,-285.81807 518.70986,-284.12307 C 521.27136,-282.42806 523.36006,-275.91377 518.68551,-277.07682 C 516.87895,-277.28164 511.07467,-279.80967 509.57907,-281.70484 z"
             style="fill:#fcc707;fill-opacity:1;fill-rule:evenodd;stroke:none;stroke-width:1px;stroke-linecap:butt;stroke-linejoin:miter;stroke-opacity:1" />
          <path
             inkscape:export-ydpi="20.351753"
             inkscape:export-xdpi="20.351753"
             inkscape:export-filename="/home/xtingray/tmp/ktoon.png"
             sodipodi:nodetypes="ccccczccc"
             id="path3507"
             d="M 462.73294,-289.5903 C 464.14259,-291.31046 467.63561,-296.04893 468.63499,-298.32699 C 469.83678,-301.091 467.09126,-302.36296 464.78474,-301.36054 C 465.83677,-302.65793 467.84948,-304.38602 470.25219,-303.74953 C 473.64219,-302.92727 473.97727,-299.17763 472.86396,-295.29344 C 472.26433,-296.47896 471.46649,-298.89342 469.83425,-296.75791 C 468.20492,-294.62623 466.70316,-292.41317 465.66044,-290.2856 C 467.13328,-283.80581 468.56155,-269.57284 460.58828,-259.9633 C 465.20845,-267.12344 466.38569,-276.16788 462.73294,-289.5903 z"
             style="fill:#000000;fill-opacity:1;fill-rule:evenodd;stroke:#000000;stroke-width:1.05085635px;stroke-linecap:butt;stroke-linejoin:miter;stroke-opacity:1" />
          <path
             inkscape:export-ydpi="20.351753"
             inkscape:export-xdpi="20.351753"
             inkscape:export-filename="/home/xtingray/tmp/ktoon.png"
             sodipodi:nodetypes="czcc"
             id="path3509"
             d="M 487.7439,-315.77105 C 485.76617,-313.58596 485.38747,-311.21492 487.49142,-309.21579 C 489.59538,-307.21667 486.86023,-303.42765 483.51494,-306.5658 C 480.04337,-311.10333 482.27358,-315.42243 487.7439,-315.77105 z"
             style="fill:#000000;fill-opacity:1;fill-rule:evenodd;stroke:none;stroke-width:1px;stroke-linecap:butt;stroke-linejoin:miter;stroke-opacity:1" />
          <path
             inkscape:export-ydpi="20.351753"
             inkscape:export-xdpi="20.351753"
             inkscape:export-filename="/home/xtingray/tmp/ktoon.png"
             sodipodi:nodetypes="cccccccc"
             id="path3511"
             d="M 488.75388,-307.68512 C 489.08118,-306.3044 488.91754,-304.43055 488.53072,-303.64158 C 487.39945,-301.47988 484.25474,-302.21729 482.90712,-305.41679 C 482.20788,-306.46876 481.1516,-305.30172 481.56816,-303.69089 C 482.16325,-302.01431 482.80297,-301.47189 483.88901,-300.33772 C 485.09407,-299.46655 487.01323,-298.89126 488.48609,-300.04185 C 489.49774,-301.06095 490.10771,-301.88281 490.31599,-303.04985 C 490.50791,-305.36266 490.23546,-307.44129 488.75388,-307.68512 z"
             style="fill:#ffffff;fill-opacity:1;fill-rule:evenodd;stroke:none;stroke-width:1px;stroke-linecap:butt;stroke-linejoin:miter;stroke-opacity:1" />
          <path
             inkscape:export-ydpi="20.351753"
             inkscape:export-xdpi="20.351753"
             inkscape:export-filename="/home/xtingray/tmp/ktoon.png"
             sodipodi:nodetypes="ccc"
             id="path3513"
             d="M 435.75009,-351.15262 C 492.65475,-332.06367 500.73594,-303.9753 506.88743,-276.35433 C 508.61112,-307.74039 485.8745,-348.15825 435.75009,-351.15262 z"
             style="fill:#ffffff;fill-opacity:1;fill-rule:evenodd;stroke:none;stroke-width:1px;stroke-linecap:butt;stroke-linejoin:miter;stroke-opacity:1" />
          <path
             inkscape:export-ydpi="20.351753"
             inkscape:export-xdpi="20.351753"
             inkscape:export-filename="/home/xtingray/tmp/ktoon.png"
             sodipodi:nodetypes="cccc"
             id="path3515"
             d="M 476.12889,-215.33604 C 498.72734,-218.74531 509.85569,-243.03627 509.85569,-243.03627 C 509.84847,-231.33701 509.69331,-224.78413 509.68609,-215.73651 C 500.43648,-215.60302 487.27253,-215.46953 476.12889,-215.33604 z"
             style="fill:#ffffff;fill-opacity:0.35680751;fill-rule:evenodd;stroke:none;stroke-width:1px;stroke-linecap:butt;stroke-linejoin:miter;stroke-opacity:1" />
        </g>
      </g>
    </g>
  </g>
</svg>
