<?xml version="1.0" encoding="UTF-8" standalone="no"?>
<!-- Created with Inkscape (http://www.inkscape.org/) -->
<svg
   xmlns:dc="http://purl.org/dc/elements/1.1/"
   xmlns:cc="http://creativecommons.org/ns#"
   xmlns:rdf="http://www.w3.org/1999/02/22-rdf-syntax-ns#"
   xmlns:svg="http://www.w3.org/2000/svg"
   xmlns="http://www.w3.org/2000/svg"
   xmlns:sodipodi="http://sodipodi.sourceforge.net/DTD/sodipodi-0.dtd"
   xmlns:inkscape="http://www.inkscape.org/namespaces/inkscape"
   width="1052.3622"
   height="744.09448"
   id="svg2494"
   sodipodi:version="0.32"
   inkscape:version="0.46"
   version="1.0"
   sodipodi:docname="icon.svg"
   inkscape:output_extension="org.inkscape.output.svg.inkscape">
  <defs
     id="defs2496">
    <inkscape:perspective
       sodipodi:type="inkscape:persp3d"
       inkscape:vp_x="0 : 526.18109 : 1"
       inkscape:vp_y="0 : 1000 : 0"
       inkscape:vp_z="744.09448 : 526.18109 : 1"
       inkscape:persp3d-origin="372.04724 : 350.78739 : 1"
       id="perspective2502" />
    <inkscape:perspective
       id="perspective3487"
       inkscape:persp3d-origin="372.04724 : 350.78739 : 1"
       inkscape:vp_z="744.09448 : 526.18109 : 1"
       inkscape:vp_y="0 : 1000 : 0"
       inkscape:vp_x="0 : 526.18109 : 1"
       sodipodi:type="inkscape:persp3d" />
  </defs>
  <sodipodi:namedview
     id="base"
     pagecolor="#ffffff"
     bordercolor="#666666"
     borderopacity="1.0"
     gridtolerance="10000"
     guidetolerance="10"
     objecttolerance="10"
     inkscape:pageopacity="0.0"
     inkscape:pageshadow="2"
     inkscape:zoom="0.35"
     inkscape:cx="599.62028"
     inkscape:cy="111.30548"
     inkscape:document-units="px"
     inkscape:current-layer="layer1"
     showgrid="false"
     inkscape:window-width="1440"
     inkscape:window-height="825"
     inkscape:window-x="0"
     inkscape:window-y="25"
     showguides="true"
     inkscape:guide-bbox="true" />
  <metadata
     id="metadata2499">
    <rdf:RDF>
      <cc:Work
         rdf:about="">
        <dc:format>image/svg+xml</dc:format>
        <dc:type
           rdf:resource="http://purl.org/dc/dcmitype/StillImage" />
      </cc:Work>
    </rdf:RDF>
  </metadata>
  <g
     inkscape:label="Layer 1"
     inkscape:groupmode="layer"
     id="layer1"
     style="display:inline">
    <rect
       style="fill:none;fill-opacity:1;stroke:none;stroke-width:1.97411048;stroke-linecap:round;stroke-linejoin:round;stroke-miterlimit:4;stroke-dasharray:none;stroke-opacity:1"
       id="rect3321"
       width="725.19958"
       height="721.36316"
       x="163.5813"
       y="11.365662"
       inkscape:export-filename="/home/xtingray/ktoon/sources/ktoon/launcher/icons/ktoon.png"
       inkscape:export-xdpi="5.9569807"
       inkscape:export-ydpi="5.9569807" />
    <g
       id="g3516"
       transform="matrix(0.9081993,0,0,0.9081993,1691.7987,140.31294)"
       inkscape:export-filename="/home/xtingray/ktoon/sources/ktoon/launcher/icons/ktoon.png"
       inkscape:export-xdpi="5.9569807"
       inkscape:export-ydpi="5.9569807">
      <path
         inkscape:export-ydpi="20.351753"
         inkscape:export-xdpi="20.351753"
         inkscape:export-filename="/home/xtingray/tmp/ktoon.png"
         sodipodi:nodetypes="ccccccccccccccccccccccccsccccccccc"
         id="path2487"
         d="M -1069.6615,566.95908 C -1125.6992,621.27443 -1326.1612,623.77941 -1410.9044,530.09201 C -1439.0991,457.18181 -1554.236,346.52441 -1598.5495,344.35829 C -1588.5821,316.68677 -1523.5131,332.78771 -1481.4529,354.34843 C -1482.123,356.15492 -1485.8321,362.01365 -1489.0035,372.04851 C -1473.9381,393.30892 -1390.3713,420.40325 -1358.9466,418.90404 C -1365.5496,428.01027 -1373.1178,439.88564 -1378.9383,449.13047 C -1361.7295,459.70404 -1330.1237,467.2642 -1318.61,463.35961 C -1318.5725,456.69585 -1318.9648,438.3011 -1317.8627,425.48715 C -1174.8333,487.29727 -1123.3248,326.61094 -1139.5136,251.54133 C -1147.5831,274.17053 -1215.0345,296.50884 -1230.2356,292.20419 C -1233.1011,300.41506 -1241.2653,318.30935 -1244.418,323.17035 C -1252.6293,324.88879 -1269.287,321.4644 -1276.6716,318.0147 C -1277.6016,313.20967 -1278.011,302.758 -1277.7255,295.91749 C -1345.0169,306.23352 -1460.563,272.33701 -1509.4563,240.02727 C -1506.4884,232.82715 -1501.6122,223.0279 -1495.4935,210.68499 C -1497.9311,208.31467 -1501.9193,206.32002 -1504.168,204.72622 C -1512.6351,222.62198 -1517.0882,234.60333 -1524.9904,250.48914 C -1536.9466,256.98934 -1572.3807,234.61646 -1575.5376,226.7584 C -1573.3663,221.21754 -1570.7487,215.52262 -1567.7104,208.52636 C -1585.4217,197.65214 -1633.2938,156.86496 -1639.361,127.52956 C -1572.3225,0.99403526 -1415.6166,-78.74464 -1250.5987,-61.639988 C -1219.4925,-122.47646 -1158.3491,-85.816207 -1192.0065,-55.050452 C -1152.9753,-41.388276 -1118.4621,-23.570731 -1098.7746,-9.9916603 C -1084.6045,-30.485138 -1025.5093,-35.1609 -1022.1572,-3.4122612 C -1020.5256,12.041791 -1046.1154,19.784604 -1066.6213,18.151221 C -1024.9766,48.32447 -1000.8956,100.87524 -988.99914,134.69141 C -975.13262,134.43318 -928.02763,141.57231 -927.51521,172.55538 C -927.64346,179.3116 -927.77573,203.48421 -956.6573,179.96888 C -965.92074,171.08588 -974.90412,167.0853 -978.81452,168.13322 C -962.08255,249.5554 -980.23181,289.54612 -986.80996,314.35931 C -962.15271,320.9371 -938.29945,350.01442 -961.87492,376.31002 C -969.65014,383.60589 -991.39242,360.35175 -999.06547,342.81493 C -1000.4143,405.45216 -1030.7497,525.56536 -1069.6615,566.95908 z"
         style="fill:#000000;fill-opacity:1;fill-rule:evenodd;stroke:#000000;stroke-width:3.99110603px;stroke-linecap:butt;stroke-linejoin:miter;stroke-opacity:1" />
      <path
         inkscape:export-ydpi="20.351753"
         inkscape:export-xdpi="20.351753"
         inkscape:export-filename="/home/xtingray/tmp/ktoon.png"
         sodipodi:nodetypes="cccccccccccccccccccccccc"
         id="path2489"
         d="M -1401.51,520.6785 C -1416.2733,476.3362 -1548.7831,343.02271 -1585.6317,341.68242 C -1556.9313,333.54407 -1533.0587,339.92389 -1493.6787,358.50813 C -1495.592,362.9615 -1498.2145,366.80429 -1500.1968,371.63124 C -1479.1586,402.31203 -1403.4769,424.55501 -1374.5864,424.15685 C -1380.6867,434.68969 -1386.4946,442.48837 -1392.2479,450.87414 C -1375.4436,467.0476 -1318.8389,480.48991 -1307.6074,468.45333 C -1308.759,458.9036 -1309.3006,448.4377 -1309.8335,436.80129 C -1156.0269,503.27227 -1103.016,321.44496 -1134.3294,234.91907 C -1149.6979,252.50672 -1208.7702,291.31589 -1235.8891,282.89032 C -1238.6451,290.78681 -1243.8774,308.41783 -1246.9094,313.09275 C -1252.9811,314.80405 -1259.8331,312.60366 -1266.9348,309.28606 C -1268.5811,303.55018 -1268.602,294.69309 -1269.3859,287.111 C -1335.8865,291.67494 -1435.4729,273.43756 -1497.9275,236.84498 C -1495.0731,229.92056 -1490.2337,218.3927 -1484.3493,206.5224 C -1489.4415,203.89932 -1498.7693,199.23114 -1508.1447,194.60714 C -1516.2875,211.8177 -1523.1344,226.25409 -1530.7341,241.53168 C -1541.2862,242.06098 -1558.1996,232.00823 -1563.7011,225.46652 C -1561.6128,220.1378 -1558.4001,213.94278 -1555.478,207.21443 C -1579.8633,195.82492 -1615.9627,156.15926 -1630.9773,132.11118 C -1517.8232,-44.869221 -1289.5428,-116.06776 -1106.3849,-0.73787772 C -994.75512,87.110488 -953.19944,203.87232 -1007.2135,338.33944 C -1017.1568,437.52087 -1048.713,514.74051 -1073.5564,551.4699 C -1144.8669,618.50389 -1342.6016,592.76478 -1401.51,520.6785 z"
         style="fill:#99d420;fill-opacity:1;fill-rule:evenodd;stroke:#006a36;stroke-width:4;stroke-linecap:butt;stroke-linejoin:miter;stroke-miterlimit:4;stroke-dasharray:none;stroke-opacity:1" />
      <g
         transform="translate(-32.324881,8.0812204)"
         id="g3502">
        <path
           sodipodi:type="arc"
           style="fill:#000000;fill-opacity:1;stroke:none;stroke-width:2;stroke-linecap:round;stroke-linejoin:round;stroke-miterlimit:4;stroke-dasharray:none;stroke-opacity:1"
           id="path2491"
           sodipodi:cx="300.14157"
           sodipodi:cy="235.40131"
           sodipodi:rx="16.414978"
           sodipodi:ry="16.414978"
           d="M 316.55655,235.40131 A 16.414978,16.414978 0 1 1 283.72659,235.40131 A 16.414978,16.414978 0 1 1 316.55655,235.40131 z"
           transform="matrix(4.3812416,1.445737,-1.445737,4.3812416,-2429.3025,-1445.1747)" />
        <path
           sodipodi:type="arc"
           style="fill:#000000;fill-opacity:1;stroke:none;stroke-width:2;stroke-linecap:round;stroke-linejoin:round;stroke-miterlimit:4;stroke-dasharray:none;stroke-opacity:1"
           id="path2493"
           sodipodi:cx="300.14157"
           sodipodi:cy="235.40131"
           sodipodi:rx="16.414978"
           sodipodi:ry="16.414978"
           d="M 316.55655,235.40131 A 16.414978,16.414978 0 1 1 283.72659,235.40131 A 16.414978,16.414978 0 1 1 316.55655,235.40131 z"
           transform="matrix(5.5398452,1.828057,-1.828057,5.5398452,-2476.1971,-1752.9233)" />
        <path
           sodipodi:type="arc"
           style="fill:#ffffff;fill-opacity:1;stroke:none;stroke-width:2;stroke-linecap:round;stroke-linejoin:round;stroke-miterlimit:4;stroke-dasharray:none;stroke-opacity:1"
           id="path2495"
           sodipodi:cx="300.14157"
           sodipodi:cy="235.40131"
           sodipodi:rx="16.414978"
           sodipodi:ry="16.414978"
           d="M 316.55655,235.40131 A 16.414978,16.414978 0 1 1 283.72659,235.40131 A 16.414978,16.414978 0 1 1 316.55655,235.40131 z"
           transform="matrix(2.4040587,0.7932994,-0.7932994,2.4040587,-1996.9678,-798.93272)" />
        <path
           sodipodi:type="arc"
           style="fill:#ffffff;fill-opacity:1;stroke:none;stroke-width:2;stroke-linecap:round;stroke-linejoin:round;stroke-miterlimit:4;stroke-dasharray:none;stroke-opacity:1"
           id="path2497"
           sodipodi:cx="300.14157"
           sodipodi:cy="235.40131"
           sodipodi:rx="16.414978"
           sodipodi:ry="16.414978"
           d="M 316.55655,235.40131 A 16.414978,16.414978 0 1 1 283.72659,235.40131 A 16.414978,16.414978 0 1 1 316.55655,235.40131 z"
           transform="matrix(1.2580481,0.415135,-0.415135,1.2580481,-1712.6842,-365.63136)" />
        <path
           sodipodi:type="arc"
           style="fill:#ffffff;fill-opacity:1;stroke:none;stroke-width:2;stroke-linecap:round;stroke-linejoin:round;stroke-miterlimit:4;stroke-dasharray:none;stroke-opacity:1"
           id="path2499"
           sodipodi:cx="300.14157"
           sodipodi:cy="235.40131"
           sodipodi:rx="16.414978"
           sodipodi:ry="16.414978"
           d="M 316.55655,235.40131 A 16.414978,16.414978 0 1 1 283.72659,235.40131 A 16.414978,16.414978 0 1 1 316.55655,235.40131 z"
           transform="matrix(3.2233153,1.0636406,-1.0636406,3.2233153,-1972.3653,-1005.7506)" />
        <path
           sodipodi:type="arc"
           style="fill:#ffffff;fill-opacity:1;stroke:none;stroke-width:2;stroke-linecap:round;stroke-linejoin:round;stroke-miterlimit:4;stroke-dasharray:none;stroke-opacity:1"
           id="path2501"
           sodipodi:cx="300.14157"
           sodipodi:cy="235.40131"
           sodipodi:rx="16.414978"
           sodipodi:ry="16.414978"
           d="M 316.55655,235.40131 A 16.414978,16.414978 0 1 1 283.72659,235.40131 A 16.414978,16.414978 0 1 1 316.55655,235.40131 z"
           transform="matrix(1.7272816,0.5699742,-0.5699742,1.7272816,-1599.2374,-436.99778)" />
        <path
           style="fill:#000000;fill-opacity:1;fill-rule:evenodd;stroke:#000000;stroke-width:4.87617779px;stroke-linecap:butt;stroke-linejoin:miter;stroke-opacity:1"
           d="M -1383.1803,31.377171 C -1384.564,40.262624 -1386.9691,48.489714 -1389.0301,54.662339 C -1381.9049,59.734234 -1341.5605,73.502798 -1334.9875,73.072312 C -1333.4922,66.688706 -1328.7061,55.88954 -1324.3168,50.46095 C -1336.2681,44.072032 -1364.7709,33.478561 -1383.1803,31.377171 z"
           id="path2503"
           sodipodi:nodetypes="ccccc" />
      </g>
      <g
         id="g3498">
        <path
           style="fill:#fcc707;fill-opacity:1;fill-rule:evenodd;stroke:none;stroke-width:1px;stroke-linecap:butt;stroke-linejoin:miter;stroke-opacity:1"
           d="M -1205.4376,-51.600495 C -1214.4154,-54.330925 -1230.5769,-58.188737 -1244.7626,-60.722173 C -1238.8689,-71.336133 -1231.0839,-86.164367 -1212.8856,-89.817838 C -1195.0975,-93.388976 -1186.6679,-79.409343 -1189.2778,-70.728747 C -1191.8158,-62.287667 -1198.5947,-56.1651 -1205.4376,-51.600495 z"
           id="path2505"
           sodipodi:nodetypes="cczzc"
           inkscape:export-filename="/home/xtingray/tmp/ktoon.png"
           inkscape:export-xdpi="20.351753"
           inkscape:export-ydpi="20.351753" />
        <path
           style="fill:#fcc707;fill-opacity:1;fill-rule:evenodd;stroke:none;stroke-width:1px;stroke-linecap:butt;stroke-linejoin:miter;stroke-opacity:1"
           d="M -1077.1549,11.088126 C -1082.9645,8.30531 -1088.8285,3.6366378 -1093.9446,0.97106928 C -1081.9472,-16.300261 -1058.605,-20.210189 -1047.6134,-18.1072 C -1036.7292,-15.640963 -1025.1513,-10.921401 -1033.8013,1.987984 C -1042.6245,15.155991 -1070.4322,12.850611 -1077.1549,11.088126 z"
           id="path2507"
           sodipodi:nodetypes="ccczc"
           inkscape:export-filename="/home/xtingray/tmp/ktoon.png"
           inkscape:export-xdpi="20.351753"
           inkscape:export-ydpi="20.351753" />
      </g>
      <path
         inkscape:export-ydpi="20.351753"
         inkscape:export-xdpi="20.351753"
         inkscape:export-filename="/home/xtingray/tmp/ktoon.png"
         sodipodi:nodetypes="ccccc"
         id="path2509"
         d="M -977.6624,163.80603 C -981.74532,158.67085 -982.15675,146.5254 -985.67076,141.79991 C -968.93512,139.2392 -952.16841,148.08848 -943.71368,154.81859 C -935.02277,161.84006 -927.88079,179.67245 -940.35639,183.00103 C -949.48684,183.52443 -965.77116,163.27358 -977.6624,163.80603 z"
         style="fill:#fcc707;fill-opacity:1;fill-rule:evenodd;stroke:none;stroke-width:1px;stroke-linecap:butt;stroke-linejoin:miter;stroke-opacity:1" />
      <path
         inkscape:export-ydpi="20.351753"
         inkscape:export-xdpi="20.351753"
         inkscape:export-filename="/home/xtingray/tmp/ktoon.png"
         sodipodi:nodetypes="cczcc"
         id="path2511"
         d="M -996.52077,337.52191 C -995.40323,333.35446 -991.46628,325.37965 -989.93547,320.67222 C -978.19987,322.96737 -967.30396,333.92816 -961.21444,343.87821 C -955.12498,353.82828 -958.40926,379.6015 -972.62484,368.08525 C -978.51198,364.47648 -994.42082,346.44733 -996.52077,337.52191 z"
         style="fill:#fcc707;fill-opacity:1;fill-rule:evenodd;stroke:none;stroke-width:1px;stroke-linecap:butt;stroke-linejoin:miter;stroke-opacity:1" />
      <path
         inkscape:export-ydpi="20.351753"
         inkscape:export-xdpi="20.351753"
         inkscape:export-filename="/home/xtingray/tmp/ktoon.png"
         sodipodi:nodetypes="ccccczcc"
         id="path2513"
         d="M -1140.7572,243.65583 C -1127.7843,232.85986 -1119.2194,218.95538 -1113.9043,209.50874 C -1106.7544,198.00104 -1117.7286,193.85375 -1127.2767,193.59542 C -1121.5711,190.82221 -1109.3675,187.39691 -1102.1229,193.44935 C -1091.7797,201.72807 -1090.9398,213.38352 -1101.0144,224.95943 C -1101.1721,219.91617 -1105.825,206.53328 -1108.7285,212.90716 C -1111.6902,219.4089 -1125.2926,245.0792 -1132.3006,250.72404 C -1135.2095,249.84458 -1140.0059,247.15902 -1140.7572,243.65583 z"
         style="fill:#000000;fill-opacity:1;fill-rule:evenodd;stroke:#000000;stroke-width:3.99110603px;stroke-linecap:butt;stroke-linejoin:miter;stroke-opacity:1" />
      <path
         inkscape:export-ydpi="20.351753"
         inkscape:export-xdpi="20.351753"
         inkscape:export-filename="/home/xtingray/tmp/ktoon.png"
         sodipodi:nodetypes="czcc"
         id="path2515"
         d="M -1016.8953,185.20058 C -1027.2132,189.54035 -1032.3277,197.09037 -1028.3016,207.35142 C -1024.2753,217.61244 -1039.7777,226.25381 -1046.2444,210.07798 C -1050.8962,188.88388 -1036.2792,177.60682 -1016.8953,185.20058 z"
         style="fill:#000000;fill-opacity:1;fill-rule:evenodd;stroke:none;stroke-width:1px;stroke-linecap:butt;stroke-linejoin:miter;stroke-opacity:1" />
      <path
         inkscape:export-ydpi="20.351753"
         inkscape:export-xdpi="20.351753"
         inkscape:export-filename="/home/xtingray/tmp/ktoon.png"
         sodipodi:nodetypes="cccccccc"
         id="path2517"
         d="M -1026.4179,214.64782 C -1027.5111,219.92501 -1031.0864,226.10989 -1033.6856,228.20294 C -1041.0532,233.82289 -1050.6888,226.23044 -1050.1829,213.05469 C -1050.898,208.31084 -1056.4086,210.6287 -1057.5646,216.84118 C -1058.2119,223.5669 -1056.8826,226.46169 -1054.9686,232.11015 C -1052.2224,237.04495 -1046.5433,242.10951 -1039.6256,240.51789 C -1034.5064,238.63736 -1031.0864,236.78984 -1028.4937,233.10885 C -1024.1155,225.45896 -1021.7118,217.86843 -1026.4179,214.64782 z"
         style="fill:#ffffff;fill-opacity:1;fill-rule:evenodd;stroke:none;stroke-width:1px;stroke-linecap:butt;stroke-linejoin:miter;stroke-opacity:1" />
      <path
         inkscape:export-ydpi="20.351753"
         inkscape:export-xdpi="20.351753"
         inkscape:export-filename="/home/xtingray/tmp/ktoon.png"
         sodipodi:nodetypes="ccc"
         id="path2519"
         d="M -1138.9316,-20.125925 C -973.8073,137.03161 -983.29386,233.81696 -1006.5264,338.74918 C -961.57164,236.37749 -971.26667,70.751047 -1138.9316,-20.125925 z"
         style="fill:#ffffff;fill-opacity:1;fill-rule:evenodd;stroke:none;stroke-width:1px;stroke-linecap:butt;stroke-linejoin:miter;stroke-opacity:1" />
      <path
         inkscape:export-ydpi="20.351753"
         inkscape:export-xdpi="20.351753"
         inkscape:export-filename="/home/xtingray/tmp/ktoon.png"
         sodipodi:nodetypes="cccc"
         id="path2521"
         d="M -1222.898,588.82619 C -1088.1673,584.53105 -1008.6124,339.13342 -1008.6124,339.13342 C -1008.3026,381.51946 -1040.0591,512.87237 -1073.6652,551.31985 C -1094.9329,575.37938 -1171.2114,598.42064 -1222.898,588.82619 z"
         style="fill:#ffffff;fill-opacity:0.54112555;fill-rule:evenodd;stroke:none;stroke-width:1px;stroke-linecap:butt;stroke-linejoin:miter;stroke-opacity:1" />
      <path
         sodipodi:nodetypes="cccc"
         id="path3514"
         d="M -1156.9695,400.40051 C -1128.9186,354.68622 -1121.1357,295.70163 -1129.6429,251.41592 C -1122.619,243.61829 -1109.881,220.10639 -1106.9643,213.73734 C -1103.0854,247.00443 -1100.3896,334.10043 -1156.9695,400.40051 z"
         style="fill:#ffffff;fill-opacity:0.54112555;fill-rule:evenodd;stroke:none;stroke-width:1px;stroke-linecap:butt;stroke-linejoin:miter;stroke-opacity:1" />
    </g>
  </g>
</svg>
