/* XPM */
const char *csquare_xpm[]={
"16 16 4 1",
"b c None",
"# c #010101",
"a c #171717",
". c #ffffff",
"................",
".#aaaaaaaaaaaa#.",
".a............a.",
".a.bbbbbbbbbb.a.",
".a.bbbbbbbbbb.a.",
".a.bbbbbbbbbb.a.",
".a.bbbbbbbbbb.a.",
".a.bbbbbbbbbb.a.",
".a.bbbbbbbbbb.a.",
".a.bbbbbbbbbb.a.",
".a.bbbbbbbbbb.a.",
".a.bbbbbbbbbb.a.",
".a.bbbbbbbbbb.a.",
".a............a.",
".#aaaaaaaaaaaa#.",
"................"};
