/* XPM */
const char *align_r_xpm[] = {
/* columns rows colors chars-per-pixel */
"33 33 256 2",
"   c #1D0700",
".  c #180B06",
"X  c #280900",
"o  c #231C16",
"O  c #370E00",
"+  c #4C1304",
"@  c #471304",
"#  c #541708",
"$  c #521C0C",
"%  c #5D1903",
"&  c #5B1C0A",
"*  c #521403",
"=  c #5C2712",
"-  c #671D00",
";  c #63230E",
":  c #6C220A",
">  c #652A14",
",  c #692E15",
"<  c #67351B",
"1  c #762607",
"2  c #712D11",
"3  c #793113",
"4  c #6D3A20",
"5  c #675128",
"6  c #764C28",
"7  c #645C55",
"8  c #6B605A",
"9  c #73655F",
"0  c #77694A",
"q  c #7C736D",
"w  c #862C07",
"e  c #8C3307",
"r  c #8B3913",
"t  c #95320D",
"y  c #9B360A",
"u  c #993B12",
"i  c #AA3A0E",
"p  c #A0350D",
"a  c #A53D10",
"s  c #BB3E0D",
"d  c #9B4015",
"f  c #845C2E",
"g  c #875C37",
"h  c #80632E",
"j  c #8B6537",
"k  c #936937",
"l  c #99753C",
"z  c #A0430B",
"x  c #A84414",
"c  c #BB400E",
"v  c #B74814",
"b  c #BE4811",
"n  c #AB541B",
"m  c #BA6A36",
"M  c #817A54",
"N  c #956D40",
"B  c #9B7549",
"V  c #83726C",
"C  c #877C75",
"Z  c #A27C44",
"A  c #C2440E",
"S  c #C94911",
"D  c #C64911",
"F  c #C95115",
"G  c #D35A19",
"H  c #D35416",
"J  c #D8651E",
"K  c #DA6A21",
"L  c #DC7224",
"P  c #DE782B",
"I  c #A6883F",
"U  c #A7893E",
"Y  c #88825D",
"T  c #9D8343",
"R  c #989253",
"E  c #9E9659",
"W  c #8B8461",
"Q  c #8E8868",
"!  c #938C69",
"~  c #958876",
"^  c #96906E",
"/  c #9F9567",
"(  c #959074",
")  c #9B9574",
"_  c #99947B",
"`  c #9E9877",
"'  c #9F9979",
"]  c #959178",
"[  c #A18543",
"{  c #A28845",
"}  c #AA8B42",
"|  c #A58749",
" . c #A48C50",
".. c #AA904C",
"X. c #B18C4A",
"o. c #B49442",
"O. c #BA9946",
"+. c #B8974A",
"@. c #B79856",
"#. c #AA9457",
"$. c #AF9B6E",
"%. c #AC9465",
"&. c #A69D7B",
"*. c #B89A66",
"=. c #B09D71",
"-. c #BEA055",
";. c #ADA179",
":. c #B5A57D",
">. c #B5A474",
",. c #BDA568",
"<. c #DF822F",
"1. c #E0832C",
"2. c #E38D34",
"3. c #E49637",
"4. c #E9A53C",
"5. c #C18355",
"6. c #C19F4A",
"7. c #C29C58",
"8. c #C2A14B",
"9. c #C7A84E",
"0. c #CDAC53",
"q. c #C9A75A",
"w. c #D0AF54",
"e. c #D5B55A",
"r. c #DABA5B",
"t. c #D2B357",
"y. c #C9A965",
"u. c #C7B47B",
"i. c #D2AD69",
"p. c #DEBE60",
"a. c #D4B768",
"s. c #D5B978",
"d. c #EBAA43",
"f. c #ECB144",
"g. c #DEC063",
"h. c #DAC175",
"j. c #E3C25F",
"k. c #F4CB4E",
"l. c #F5CD51",
"z. c #F7D454",
"x. c #E2C462",
"c. c #E6C966",
"v. c #E8C962",
"b. c #E9CC6A",
"n. c #E4C76A",
"m. c #E6CC74",
"M. c #EDD16D",
"N. c #EAD278",
"B. c #F3D76E",
"V. c #F2D974",
"C. c #F1D979",
"Z. c #F8E17D",
"A. c #F6E17C",
"S. c #9C9881",
"D. c #A58C84",
"F. c #A39B88",
"G. c #B3958D",
"H. c #BB9B92",
"J. c #A9A387",
"K. c #AAA692",
"L. c #AEAA98",
"P. c #A9A694",
"I. c #B4AB8A",
"U. c #B3AD91",
"Y. c #B1AD9B",
"T. c #BEB28A",
"R. c #B6B195",
"E. c #B9B49A",
"W. c #BCB599",
"Q. c #B1AFA1",
"!. c #B4B2A3",
"~. c #B8B5A4",
"^. c #B9B6A9",
"/. c #BCB8A4",
"(. c #BCB9AB",
"). c #B7B5A8",
"_. c #BFBDB1",
"`. c #C5A398",
"'. c #C3BB8B",
"]. c #CCBB84",
"[. c #C5B99D",
"{. c #D2BF91",
"}. c #CDABA0",
"|. c #C2BDA5",
" X c #C0BDAC",
".X c #C9BFA5",
"XX c #C1BEB1",
"oX c #D2B7AB",
"OX c #CBC08D",
"+X c #DAC58B",
"@X c #D4C996",
"#X c #D9D09D",
"$X c #C5C0A5",
"%X c #CAC6AE",
"&X c #C6C1AC",
"*X c #C3C0B2",
"=X c #C9C6BB",
"-X c #CBC8B4",
";X c #CECBBB",
":X c #C8C4B5",
">X c #D3C8A2",
",X c #D1CDBB",
"<X c #D2CDB4",
"1X c #DBD4A3",
"2X c #DED8AB",
"3X c #D9D3A9",
"4X c #DAD5BC",
"5X c #E1CB83",
"6X c #ECD989",
"7X c #EDDE90",
"8X c #E4D698",
"9X c #F1DC83",
"0X c #E3CA9B",
"qX c #E1DBAC",
"wX c #E6DCA4",
"eX c #EEE290",
"rX c #F5E48C",
"tX c #F6E88F",
"yX c #F8E787",
"uX c #F4E493",
"iX c #F4E59C",
"pX c #F6E993",
"aX c #F7EB9A",
"sX c #F9ED94",
"dX c #F8EE9A",
"fX c #F9F19C",
"gX c #FCF095",
"hX c #EAE3AC",
"jX c #E9E1A9",
"kX c #ECE6B1",
"lX c #EDE8B1",
"zX c #F8EDA1",
"xX c #F6EBA7",
"cX c #F3EDB6",
"vX c #F9F2A3",
"bX c #FAF3AB",
"nX c #F9F3B1",
"mX c #FAF5BA",
"MX c #F9F9BE",
"NX c #CCCAC3",
"BX c #C7C5C1",
"VX c #D0CEC6",
"CX c #D5D2C2",
"ZX c #D4D3CC",
"AX c #D8D3C3",
"SX c #DAD7CA",
"DX c #DFDBC7",
"FX c #D6D5D0",
"GX c #D8D7D0",
"HX c #D9D8D2",
"JX c #DFDFD9",
"KX c #E1DCCB",
"LX c #E0DBC0",
"PX c #E0DFD9",
"IX c #ECE9D8",
"UX c #ECE9D7",
/* pixels */
"IXIXIXIXIX<X&.Y 0 ) ^ R R R R R R R R R R R Q 0 &. XIXIXIXIXIXIXUX",
"IXIXIX%X&.^ /.4XDX2XjX2XqXqX2X2XjXqXqXqXjX2X2X>X$.' ! W.IXIXIXIXUX",
"IXUXR.W $X4X4XjXhXkXlXlXlXlXlXlXlXlXlXlXxXlXhX{.*.[.W.! I.UXIXIXUX",
"IXE.! <X4XqXlXMXmXmXmXmXmXmXMXmXmXmXmXmXmXnXUX0X5.[.$X/.( K.IXIXUX",
"%XW <X2XlXMXmXnXnXbXbXnXbXbXbXbXbXbXbXbXbXbXmX5Xm oX;X|.E.Q R.IXUX",
"&.'.2XhXmXnXbXbXvXvXvXvXvXzXvXvXfXfXvXvXvXvXbXs.n oXSX:X/.L.Y DXUX",
"E 2XwXmXbXbXfXfXfXfXfXfXfXfXfXfXvXfXfXfXfXfXvXa.z [.SX;X(.!._ R.UX",
"T.1XlXnXxXzXdXdXdXdXdXfXvXfXvXvXfXfXdXdXdXdXfXy.y `.SX,X*X).L.Y UX",
"3X1XcXbXzXdXpXdXdXfXdXpX7X7X7X7XpXfXdXdXaXsXdXi.e `.SX;X*X^.Q.Q ,X",
"1XwXnXvXdXpXpXpXgX6X@.g 4 4 4 6 B s.pXpXsXsXsXy.w `.AX;X*X(.!.! $X",
"3XwXxXzXpXpXpXgX7Xg & > 2 3 3 , > , *.gXpXtXsXy.w H.4X,X*X_.).] R.",
"1XhXxXaXpXtXtXpXB $ > r u x x x r 2 , y.sXtXsXq.1 H.AX;X*XXX^.S.U.",
"1XjXxXiXtXyXgX@.= > r x F G G F v d : 6 N.sXsX7.1 H.AX=X*X_.^.S.U.",
"#XwXzXuXrXyX6Xg # 3 x S K P <.P G v r & @.sXyX7.- G.AX=XXX*X(.S.U.",
"#XjXaXuXrXyXm.4 ; r b J 2.d.f.3.P S u : l 9XyX@.- G.CX-X_.*X(.S.U.",
"#XwXiXyX9XyXa.> : u S L d.l.z.f.1.G a 1 k 9XyX+.% D.CX-XXX_.^.S.U.",
"0XwXiXuX9XyXa.< - t S L 4.k.z.f.P H i : k C.yX+.* D.,X:X|. X).S.U.",
"@X8XuX9XC.Z.N.6 $ e s G <.4.d.2.L S t - | A.A.X.@ D.;XXX^. X!.S.U.",
"@X8X7X6XC.V.C.Z + 2 p D G L L K S i 1 , a.A.C.} @ ~ =X X!.^.!.S.U.",
"OX8X6XC.V.V.V.n.4 + 1 y s S S A i w % B V.M.V.T O ~ XX|.Y.^.Q.S.U.",
"{.+X6XN.M.b.M.V.y.4 + : w t t w : - k c.M.b.M.T O C (.E.Y.^.Q.S.U.",
"'.+X+Xm.n.c.b.b.B.e.6 $ + * + # = N b.M.c.c.g.l X V ~.Y.P.^.Q.S.U.",
"].OXh.s.p.p.j.j.x.c.p.X.f f f k q.v.x.g.r.p.p.l X 9 Y.K.L.^.)._ E.",
":.:.s.a.a.e.e.e.r.r.r.g.v.c.l.j.p.r.r.t.t.0.t.6 X 9 K.F.!.(.(.~ %X",
";.:.u.y.t.0.0.0.w.w.w.w.w.w.w.w.w.w.w.t.9.9.0.5 . 7 J.S._._.=X0 IX",
"/ ;.>.,.-.-.-.-.6.6.8.8.8.8.9.9.8.8.8.9.O.O.O.5 . 7 S.Q.BXBX(.) IX",
"Y ;.;.>.@.+.O.o.o.O.o.o.O.O.O.U U U U U U U } 5 . 7 P.NXVXZX( /.IX",
"I.] ' ;.>.E ....} } } } U U U U U U U U U U } 5 o C NXHXGX/.^ UXIX",
"DX` F.J.R.:.%. .| | [ | { T { { o.| T T T T T 0 q =XJXJX=XY $XIXIX",
"IX&X` P.E.$X$X[.'.:.=.=.$.$.=.=.,.$.=.>.I.T.>X=XVXHXJX*XW E.IXIXIX",
"IXIX%X&._ E.%X;X,XAXAXAXAXAXAXSXHXSXSXHXHXSXKXSXFXZXK.! E.IXIXIXIX",
"IXIXIXUXR.Y ] U.(.=XZXZXZXGXFXHXFXFXFXGXGXFX*X~.J.q K.DXIXIXIXIXUX",
"IXIXIXIXIXIX/.;.( Y 0 Y 0 Y M M M M M M M M ^ ` R.KXUXUXUXUXUXUXUX"
};
