/* XPM */
const char *copy_xpm[] = {
/* columns rows colors chars-per-pixel */
"33 33 257 2",
"   c #3F3603",
".  c #782F00",
"X  c #733804",
"o  c #7F4708",
"O  c #776F45",
"+  c #843800",
"@  c #9A3C00",
"#  c #903900",
"$  c #864B00",
"%  c #8E5A16",
"&  c #924000",
"*  c #974800",
"=  c #974503",
"-  c #934E12",
";  c #995900",
":  c #9C6305",
">  c #997211",
",  c #956A16",
"<  c #8E6E2A",
"1  c #9B7C33",
"2  c #8B663A",
"3  c #A34100",
"4  c #AC4400",
"5  c #AA4C00",
"6  c #AD5000",
"7  c #B44C00",
"8  c #BC4900",
"9  c #B55300",
"0  c #BC5E00",
"q  c #B75801",
"w  c #A46B03",
"e  c #AD6901",
"r  c #AD6202",
"t  c #AA7305",
"y  c #A3791D",
"u  c #BA6D02",
"i  c #B76700",
"p  c #BB7A01",
"a  c #B87B14",
"s  c #817A54",
"d  c #857E59",
"f  c #C75F00",
"g  c #C45500",
"h  c #C46C00",
"j  c #CA6500",
"k  c #CC6B00",
"l  c #C46400",
"z  c #C37201",
"x  c #C47D01",
"c  c #CC7200",
"v  c #CB7C00",
"b  c #C37509",
"n  c #D37A01",
"m  c #D07400",
"M  c #AF830C",
"N  c #BD8002",
"B  c #B68F00",
"V  c #B99406",
"C  c #B5851C",
"Z  c #AC8623",
"A  c #BF8929",
"S  c #B49420",
"D  c #89825E",
"F  c #87815C",
"G  c #9A905A",
"H  c #8B8462",
"J  c #928C6A",
"K  c #908967",
"L  c #928C71",
"P  c #96906D",
"I  c #98916E",
"U  c #9B9574",
"Y  c #98947D",
"T  c #9E9877",
"R  c #9E987B",
"E  c #979378",
"W  c #A98244",
"Q  c #A98D6B",
"!  c #A19169",
"~  c #A49C7B",
"^  c #B5A678",
"/  c #C48302",
"(  c #C48B00",
")  c #CC8301",
"_  c #C98B00",
"`  c #CE8309",
"'  c #CC9201",
"]  c #C69605",
"[  c #D58100",
"{  c #D38A02",
"}  c #DA8B01",
"|  c #D68708",
" . c #D59A00",
".. c #DC9200",
"X. c #DB9C01",
"o. c #DD9808",
"O. c #D5950A",
"+. c #DD9714",
"@. c #D59817",
"#. c #D49D2B",
"$. c #CEA200",
"%. c #D3A300",
"&. c #DBA402",
"*. c #DDAB00",
"=. c #D9A808",
"-. c #DEA213",
";. c #DDB100",
":. c #DDB019",
">. c #CBA423",
",. c #DFAC24",
"<. c #DFA520",
"1. c #DABE3B",
"2. c #C8A539",
"3. c #E0980C",
"4. c #E19C15",
"5. c #E19D1B",
"6. c #E09E24",
"7. c #E2AB01",
"8. c #E1A418",
"9. c #E4B302",
"0. c #E9BE00",
"q. c #E6B615",
"w. c #E1A126",
"e. c #E3A62B",
"r. c #E4AA33",
"t. c #E3AC3A",
"y. c #E5B23B",
"u. c #EBBF33",
"i. c #E9BB29",
"p. c #DE9D49",
"a. c #C89568",
"s. c #C1A25F",
"d. c #C5B667",
"f. c #E6B241",
"g. c #E9BB4C",
"h. c #E8B846",
"j. c #EABE5B",
"k. c #E6B852",
"l. c #E3AF78",
"z. c #E3C503",
"x. c #EAC500",
"c. c #EDCC00",
"v. c #EBC318",
"b. c #EAC525",
"n. c #EECA36",
"m. c #EECD3C",
"M. c #E9C335",
"N. c #D8C255",
"B. c #D8C672",
"V. c #EDCA49",
"C. c #ECC547",
"Z. c #EAC056",
"A. c #EFCE59",
"S. c #EBC558",
"D. c #EDD355",
"F. c #F0CF43",
"G. c #F0D14F",
"H. c #F2D856",
"J. c #EECA6A",
"K. c #EDC865",
"L. c #EDC974",
"P. c #EBC377",
"I. c #E6D069",
"U. c #E6D277",
"Y. c #F0CE71",
"T. c #F0D362",
"R. c #F1D371",
"E. c #F1D57B",
"W. c #F2D879",
"Q. c #9A9581",
"!. c #9C9983",
"~. c #A19D85",
"^. c #A29E89",
"/. c #A5A18D",
"(. c #A9A48E",
"). c #ACA78A",
"_. c #A5A291",
"`. c #AAA692",
"'. c #ADA995",
"]. c #ADAA9A",
"[. c #B2AA8C",
"{. c #B0AC96",
"}. c #B1AD9B",
"|. c #B6B195",
" X c #B4B09B",
".X c #B8B39B",
"XX c #BDB89E",
"oX c #B1AEA1",
"OX c #B5B2A2",
"+X c #B9B6A1",
"@X c #B9B7A9",
"#X c #BDBAA5",
"$X c #BCBAAC",
"%X c #B7B4A8",
"&X c #BDBAB0",
"*X c #C3A786",
"=X c #C8AE93",
"-X c #C2BA97",
";X c #C1BDA4",
":X c #C1BDAA",
">X c #C0BEB3",
",X c #DBCE85",
"<X c #D7C797",
"1X c #C5C1AD",
"2X c #C9C5AD",
"3X c #C5C0A3",
"4X c #C2C0B5",
"5X c #C6C4BB",
"6X c #CAC6B1",
"7X c #C9C7BD",
"8X c #CDC9B5",
"9X c #CBC9BE",
"0X c #D6CFA8",
"qX c #D2CEBA",
"wX c #D0CCB4",
"eX c #DDD4A2",
"rX c #D6D1B6",
"tX c #D6D2BD",
"yX c #DAD5BA",
"uX c #DDD8BD",
"iX c #EEC980",
"pX c #E8D180",
"aX c #EDDE92",
"sX c #F3DA84",
"dX c #F1D5A6",
"fX c #F3E38B",
"gX c #F9E99E",
"hX c #EEE4A6",
"jX c #F8E9B2",
"kX c #F6E5A8",
"lX c #C8C6C0",
"zX c #CBCAC1",
"xX c #D1CEC4",
"cX c #D1CFC8",
"vX c #D5D2C0",
"bX c #D4D3CB",
"nX c #D9D5C2",
"mX c #DEDAC4",
"MX c #DDDBC9",
"NX c #DCDAD3",
"BX c #DBDAD4",
"VX c #E1DCC3",
"CX c #E1DECB",
"ZX c #E0DED0",
"AX c #E0DFDA",
"SX c #E4E1CC",
"DX c #E6E3D2",
"FX c #E4E2DA",
"GX c #E8E5D2",
"HX c #EDEBDE",
"JX c #EAE8D6",
"KX c #EDEBE0",
"LX c #F0EEE1",
"PX c #F2F0E5",
"IX c #F3F2E8",
"UX c gray100",
"YX c None",
/* pixels */
"YXYXYXYXYXYX  ~ F s P P J J P J P P J J J J K K s U #XYXYXYXYXYXYX",
"YXYXYXYX  T I #XyXuXuXyXuXuXuXuXyXyXyXyXtXrXwX2X3X).I J XXYXYXYXYX",
"YXYXYX|.D 3XuXuXuXVXSXGXGXGXGXGXGXJXGXGXDXSXVXtX2XXX X(.K ).YXUXUX",
"YXYX|.J yXuXVXJXIXIXIXIXPXIXIXIXPXIXIXPXPXPXKXFXMXvX$X|.'.J ).UXUX",
"YX  D yXuXSXPXIXIXIXPXPXPXPXLXPXPXPXLXPXPXLXKXFXZXnX9X:X].].H &XUX",
"YX  3XuXSXIXPXPXLXLXLXLXLXLXkXdXLXLXLXLXLXKXHXDXZXyX9X:XOX]._.L IX",
"  O uXuXPXPXLXLXLXLXjXW.n.x.9.| ) l.PXLXdXfXD.x.0.] A [.OXoX].Q.$X",
"~ -XuXJXIXPXLXjXV.x.x.c.c.x.{ u x n v p.o.X.9.z.%.` p a Z ~ %X].L ",
"F uXmXPXIXLXjXv.9.%.;.c.c._ v v a u b o.X...{ [ ) x N t y 1 [.&XL ",
"O VXVXIXLXLXm.n.q...' ( ( x [ n k u +.8.r.r.-.X._ _ x t , < &X>XQ.",
"I uXSXIXLXH.V.m.<.#.#.O._ _ | z h b e.h.g.h.t.-.@._ / w % I >XlX!.",
"I yXGXPXgXF.V.g.f.k.t.@.@.{ | b b -.y.j.S.S.h.&. .' p : > ].>XlX^.",
"I yXGXLXH.Z.Z.K.j.f.t.e.6.| ` z v q.g.S.S.C.q.7.X./ p : ^ ].>XlX^.",
"I yXGXfXA.K.Y.W.J.j.t.6.+.| v z O.i.A.K.S.u.q.7. .) e Z .X].>XlX/.",
"I yXJXH.K.Y.W.sXL.j.r.e.4.} v u =.M.A.T.V.b.q.*. ./ e -X}.'.>XlX_.",
"I yXaXR.Y.E.sXW.J.g.e.4.o.[ h z &.v.m.G.n.v.v.*. .N S #X}.].>XlX/.",
"I yXU.sXL.W.W.K.j.g.e.4...[ h f q r :.b.b.v.x.*.) p |.#X X`.>X7X/.",
"I eXU.iXL.R.I.k.f.t.5.4...n k 9 5 & = e ] %.;.*.N B :X@X}.`.>X7X_.",
"I ,XpXl.K.J.j.y.r.6.4.4.+.| k l q 4 @ - qXfX$.] ( d.:X.X'._.>X7X/.",
"I B.U.J.h.k.f.f.r.6.5.o.| | k k 8 4 # a.GXDXMXk.B 1X:X}.`./.>X5X_.",
"G B.I.T.C.t.f.r.4.8.8.} n n j g 8 3 - CXGXCXVXvX8X1X+X]._.!.4XlX/.",
"J 0XU.D.M.,.-.+...} 3.} n v f 7 4 # *XZXCXVXnXqX6X#X X`.^.^.5XzX_.",
"P 2XtXhX1.>.@.-.X...[ m c k q 7 @ - vXVXmXvXqX6X:X.X'./.!._.5XcX^.",
"O 3X6XMXvXB.V M / / v z k i 6 3 + =XnXqXqX8X>X;X.X]._.^.!.oXzXcXQ.",
"K .X#XtXvXqXqX2.e : e e e 6 5 + - 8X8X8X2X1X#X.X}.(.!.!.!.5XcXbXH ",
")./..X2X8X8X6X6X<XC : ; ; * # . [.2X2X3X#XXX X'./.^.Q.Q.oXbXBX4XR ",
"  s |..X:X$X$X#X:X:Xs.; $ X . % XXXXXX.X X'.(./.^.R Q._.cXAXBX!.9X",
"YX).Y '. X.X.X X}.}..X}.1 - o Q {.{.'.`.(././.!.Y Y `.cXAXAX:X!.UX",
"YX  T !.].].].`.'.`._.'._.^.2 ^._.^.^.^.!.!.!.Y ^.$XbXAXAXzXH xXUX",
"YXYX  U !.].%X@X$X%X}.}.}.}.}.{.}.].}.}.].OX$X5XcXBXAXAX5XH |.UXUX",
"YXYXYX  R L ].@X>X>X5X9XlXzXlXzXlX9XzXlX9XzXzXcXbXBXbX(.K XXYXUXUX",
"YXYXYXYX  |.H L ^.}.:X5X5X9X7X7X9X7X9X9X9XzXzX$X@X^.d ).  YXYXYXYX",
"YXYXYXYXYXYXYX#X~ J D s s s s s s s s O F s d J T .X  YXYXYXYXYXYX"
};
