/* XPM */
const char *fill_xpm[] = {
/* columns rows colors chars-per-pixel */
"33 33 257 2",
"   c #1B0C00",
".  c #3A1803",
"X  c #2D1908",
"o  c #372815",
"O  c #3F3603",
"+  c #342D25",
"@  c #0B7938",
"#  c #187F3A",
"$  c #386D1C",
"%  c #217A3C",
"&  c #057B48",
"*  c #027A58",
"=  c #16795C",
"-  c #046A6B",
";  c #087867",
":  c #1C6F74",
">  c #187178",
",  c #036879",
"<  c #2D7951",
"1  c #2C766E",
"2  c #491A00",
"3  c #5C1D01",
"4  c #482508",
"5  c #433703",
"6  c #51321C",
"7  c #4E2E14",
"8  c #672804",
"9  c #65360A",
"0  c #7C3A08",
"q  c #663A10",
"w  c #623D20",
"e  c #504434",
"r  c #547619",
"t  c #4F7921",
"y  c #557F3C",
"u  c #794513",
"i  c #7D5003",
"p  c #7B572B",
"a  c #724926",
"s  c #766F3D",
"d  c #717620",
"f  c #68762F",
"g  c #59574D",
"h  c #567A46",
"j  c #497866",
"k  c #605F57",
"l  c #715E50",
"z  c #6C5A4A",
"x  c #656259",
"c  c #746744",
"v  c #707058",
"b  c #757265",
"n  c #009615",
"m  c #0B8739",
"M  c #009720",
"N  c #089734",
"B  c #188721",
"V  c #11A332",
"C  c #3D8C3B",
"Z  c #048A5C",
"A  c #0F944D",
"S  c #1E8774",
"D  c #0E816B",
"F  c #1AA863",
"G  c #2D9870",
"H  c #2BA770",
"J  c #47905D",
"K  c #438E7E",
"L  c #5B8667",
"P  c #54BE75",
"I  c #2E8880",
"U  c #31838F",
"Y  c #72B781",
"T  c #873707",
"R  c #88450C",
"E  c #94480C",
"W  c #98540A",
"Q  c #995915",
"!  c #8D4D15",
"~  c #854E21",
"^  c #8F5E27",
"/  c #986200",
"(  c #976A19",
")  c #8A6A37",
"_  c #956326",
"`  c #9E7139",
"'  c #A95A14",
"]  c #B25F14",
"[  c #AA5B04",
"{  c #A86717",
"}  c #AF731D",
"|  c #B76B17",
" . c #B8761C",
".. c #B9660D",
"X. c #A36625",
"o. c #AB7F3F",
"O. c #B87926",
"+. c #B17430",
"@. c #8A754D",
"#. c #817A54",
"$. c #877B58",
"%. c #9E6A41",
"&. c #9D7F5D",
"*. c #94714C",
"=. c #847562",
"-. c #827F73",
";. c #927D6D",
":. c #A4774A",
">. c #BD7E4A",
",. c #C46706",
"<. c #C17000",
"1. c #C87919",
"2. c #D17B03",
"3. c #C16E21",
"4. c #C77A37",
"5. c #C47126",
"6. c #8D8A2E",
"7. c #BE881E",
"8. c #AD9031",
"9. c #AE8C2B",
"0. c #87815C",
"q. c #9B8C4E",
"w. c #8B8462",
"e. c #8F8A6E",
"r. c #938D6A",
"t. c #938567",
"y. c #988974",
"u. c #96906E",
"i. c #98916E",
"p. c #989378",
"a. c #AA885A",
"s. c #B6895B",
"d. c #A68A67",
"f. c #AD8D71",
"g. c #AB926A",
"h. c #A69A79",
"j. c #B28F66",
"k. c #B99669",
"l. c #B99F75",
"z. c #BAA277",
"x. c #C8841F",
"c. c #D6851B",
"v. c #DF960E",
"b. c #C98926",
"n. c #C98A37",
"m. c #CA922A",
"M. c #CA9138",
"N. c #D48825",
"B. c #D89528",
"V. c #D99839",
"C. c #D28B34",
"Z. c #D2A23E",
"A. c #E19B17",
"S. c #EBAC20",
"D. c #E6A937",
"F. c #EAB22E",
"G. c #C88945",
"H. c #C88B52",
"J. c #D59450",
"K. c #C59867",
"L. c #D39C67",
"P. c #CEA75C",
"I. c #DFA94F",
"U. c #D7A45A",
"Y. c #C6A44C",
"T. c #C5A576",
"R. c #CDB065",
"E. c #D4B87B",
"W. c #D4B26D",
"Q. c #E09F4E",
"!. c #E19D53",
"~. c #E1A747",
"^. c #EDBC58",
"/. c #E8B34C",
"(. c #EAB866",
"). c #EEC054",
"_. c #F3CC77",
"`. c #EFC967",
"'. c #9D9983",
"]. c #9A9681",
"[. c #92A684",
"{. c #A19C86",
"}. c #A29E89",
"|. c #A5A18D",
" X c #A9A58D",
".X c #AEA98C",
"XX c #A9A693",
"oX c #ADA994",
"OX c #ADAA9A",
"+X c #A6A393",
"@X c #B0AA8D",
"#X c #B1AC94",
"$X c #B2AC9C",
"%X c #B8AD9F",
"&X c #B4B09B",
"*X c #B8B39C",
"=X c #B9B499",
"-X c #B4AEA1",
";X c #B5B2A2",
":X c #B9B5A2",
">X c #BDBBAB",
",X c #BAB7A7",
"<X c #BDBBB2",
"1X c #A1DAB3",
"2X c #CBB588",
"3X c #C0BB9E",
"4X c #D7AD80",
"5X c #D7B78B",
"6X c #D1BE95",
"7X c #C1BDAB",
"8X c #C2BDA3",
"9X c #C1BEB2",
"0X c #ECBE87",
"qX c #D7C59B",
"wX c #C6C2AC",
"eX c #C3C0B5",
"rX c #C5C3B9",
"tX c #C9C5B2",
"yX c #C9C7BE",
"uX c #CCC9BB",
"iX c #CCC9B5",
"pX c #DAC9AA",
"aX c #D1CDB9",
"sX c #DAD5BA",
"dX c #DDD8BD",
"fX c #D4D1BB",
"gX c #F1CE9C",
"hX c #F0D496",
"jX c #E9CCA7",
"kX c #EBDABB",
"lX c #F3D7A9",
"zX c #FAE5BD",
"xX c #CCCAC1",
"cX c #D0CEC5",
"vX c #D6D3C3",
"bX c #D4D3CB",
"nX c #D8D5C5",
"mX c #DDDAC9",
"MX c #DCD9C4",
"NX c #DBDAD3",
"BX c #E2DDCD",
"VX c #E3DDC4",
"CX c #E0DED5",
"ZX c #E6E1CD",
"AX c #E6E2D3",
"SX c #EAE6D3",
"DX c #EEEBDD",
"FX c #E5E3D9",
"GX c #F7E7C9",
"HX c #F0EADB",
"JX c #FCF0CE",
"KX c #EDEBE0",
"LX c #F0EDE0",
"PX c #F2F0E5",
"IX c #F4F2E8",
"UX c gray100",
"YX c None",
/* pixels */
"YXYXYXYXYXYXO h.0.#.r.r.r.r.r.r.r.r.r.r.r.r.t.r.@.p.8XYXYXYXYXYXYX",
"YXYXYXYXO i.i.:XsXdXdXdXdXsXsXsXdXdXdXsXsXfXiXwXwX.Xy.;.=XYXYXYXYX",
"YXYXYX=X0.wXZXdXdXZXZXSXSXZXjXqXkXSXSXSXCXBXBXsXwX=X&X+Xw.@XYXYXYX",
"YXYX=Xr.qXdXdXSXPXIXIXIXPXPXGX_.(.gXPXPXIXLXHXFXVXfX1X2XoXe..XYXYX",
"YXO 0.2XpXZXPXPXPXPXPXPXPXPXPXDXgX~.!.GXIXLXKXFXCXnX9X7X$XXXw.&XYX",
"YXO T.6XZXPXPXPXPXPXDXPXPXDXDXPXDXkXV.B.0XHXHXCXBXnXcX7X;XOX+X0.O ",
"5 c qXqXGXJXJXDXHXLXDXDXDXDXDXPXLXLXBX!.1.!.HXHXBXnXuX1X;X-XOXp.#X",
"h.l.T.R.^.).).`.hXSXHXHXPXDXDXDXDXLXLXHXlX1.c.SXBXbXxX<X;X-X,X+Xw.",
"0.E.k.P.J.U./.I././._.zXHXHXDXDXDXDXDXDXHXjXc.1.mXnXvX9X3XOX9X%Xw.",
"v qXj.a.>.n.M.V.V.D.F.F._.JXDXDXDXLXDXDXHXHX0X1.4XvX9X9X3XOX9X9Xu.",
"r.2Xd.:.^ X. .O.b.m.B.B.A.S.hXDXDXDXDXDXHXHX4X3.pXnX9X7X%XOX9X9Xp.",
"i.E.f.$.s p ^ Q { } O.7.1.v.v.D.GXDXDXHXHXBX] 5.vXnXaX7X-XOX<XrX|.",
"i.E.R.[.U > : 1 j v ` ( ' ] ,.2.A.lXHXHXHXG.' K.VXvXuX7X-XOX9XrXp.",
"r.E.R.Y.q.> , - - S I I L s Q [ ,.2.hXHXlXE Q 7XvXvXuX7X-XOX9XrX|.",
"u.T.P.V.m.9.y - - - S ; S S G J d [ <.lX..0 f.BXBXcX9X7X-X+XrXrX'.",
"u.T.s.n.m.m.9.6.A = ; * Z Z Z H H G f / T ~ uXCXVXfX9X7X-XOX9XrX{.",
"y.T.>.` +.N.m.n.8.6.= = * & @ # A A H $ 4 e.AXBXmXuXtX,X&XXX1X9X{.",
"y.T.j.%.~ ! | b.M.M.8.6.y % @ @ @ @ m F J mXAXmXnXfXeX:XOXXX9X9X{.",
"y.z.j.>.X.T T ' +.M.M.m.b.7.6.d t t $ B N P ZXMXvXuXwX*X%X+X9XyX{.",
"u.l.K.H.>.' ' E R Q O.b.b.b.b. .{ / W i C N 1XMXfXtX>X&X|.XX9X9X{.",
"r.l.K.J.H.4.3.| ' R 0 Q | O. .} { W 9 o g M P fXiX7X:X$X|.}.9X9X|.",
"r.z.K.L.J.C.1.N. .] ! 0 9 9 q 9 4 2 o + x P V aX9X8X%XXX}.}.9XyX|.",
"e.l.T.L.J.C.b.x.x.| | E T 8 8 2 . 4 g b #XfXn tX8X:XOX}.}.+XxXxXh.",
"v z.l.K.H.n.b. .| } | Q T T 8 3 2 e e.uXfXiXV wX%X$X|.}.].-XxXcXi.",
"t.z.k.k.H.n.O.| { } { W R 8 3 2 X k :XiX9X7XP *X#X X'.'.].9XbXbXv ",
"|.q.g.j.s.o.O.X.{ { ' W R 8 2 . + p.7X7X8X3X3XoX X}.].].-XbXNX9Xu.",
"O $.h.g.a.8.+._ { Q Q R 9 4 2 X g %X3X%X%X#X+X|.{.'.].+XbXNXNXy.=X",
"YX.X*.g.d.:.o._ _ ~ u 9 7 4 X + {.#X#XoX X}.}.'.p.p.OXcXNXFX<Xu.YX",
"YXO p.t.t.&.*.) ~ w w 6 7 7 o b }.}.}.}.'.'.'.].'.<XbXNXKXcXw.O YX",
"YXYX5 p.$.y.f.;.;.=.=.l l z k +X$X$X$X$XOXOX<XrXbXNXFXFX<Xw.&XYXYX",
"YXYXYXO ) @.}.OX-X-X-X-X-X-X<XxXxXyXxXxXxXxXcXcXbXNXbXXXr.=XYXYXYX",
"YXYXYX    oX$.y.}.OX9XrXyXxXyXyXyXyXyXyXxXxXxX<X,X'.#..XO YXYXYXYX",
"YXYXYXYXYXYXYX8Xh.r.0.#.#.#.#.#.#.#.v $.#.#.#.i.h.#X5 YXYXYXYXYXYX"
};
