/* XPM */
const char *fit_xpm[] = {
/* columns rows colors chars-per-pixel */
"33 33 257 2",
"   c black",
".  c #17110C",
"X  c #191917",
"o  c #271901",
"O  c #231D17",
"+  c #340E00",
"@  c #361B04",
"#  c #2A241C",
"$  c #3B2817",
"%  c #3F3603",
"&  c #372E03",
"*  c #2B2822",
"=  c #2A2A29",
"-  c #30302A",
";  c #393834",
":  c #167C78",
">  c #2A7D70",
",  c #327664",
"<  c #4B0E00",
"1  c #451800",
"2  c #471801",
"3  c #4F2000",
"4  c #4D2C0E",
"5  c #5C2A00",
"6  c #552500",
"7  c #512D15",
"8  c #46372A",
"9  c #731E01",
"0  c #612B12",
"q  c #752702",
"w  c #783301",
"e  c #763819",
"r  c #67370E",
"t  c #43413B",
"y  c #7D451A",
"u  c #77543D",
"i  c #746F37",
"p  c #534C42",
"a  c #545450",
"s  c #55514A",
"d  c #5E7E49",
"f  c #4C7F58",
"g  c #635B4F",
"h  c #68655A",
"j  c #746C44",
"k  c #746D49",
"l  c #767145",
"z  c #787046",
"x  c #7A7349",
"c  c #7C775B",
"v  c #6D6641",
"b  c #6C6A63",
"n  c #787569",
"m  c #7E7B70",
"M  c #198969",
"N  c #168371",
"B  c #288478",
"V  c #299768",
"C  c #349574",
"Z  c #2F8A67",
"A  c #3CA163",
"S  c #3DA574",
"D  c #2EAE6D",
"F  c #438B78",
"G  c #44A77C",
"H  c #46B277",
"J  c #5CAC66",
"K  c #4BB26B",
"L  c #7E9243",
"P  c #6C9543",
"I  c #679F7E",
"U  c #658D6C",
"Y  c #6EB15E",
"T  c #61A457",
"R  c #67B876",
"E  c #6CB569",
"W  c #2E8A80",
"Q  c #3C9583",
"!  c #489986",
"~  c #49A483",
"^  c #4AA981",
"/  c #54A88B",
"(  c #59AA91",
")  c #55B685",
"_  c #4AA591",
"`  c #69B798",
"'  c #72BE80",
"]  c #72BF9E",
"[  c #65B687",
"{  c #68C28E",
"}  c #6BC691",
"|  c #74C999",
" . c #7BD099",
".. c #72C485",
"X. c #7BC7A0",
"o. c #8A2100",
"O. c #963A07",
"+. c #884917",
"@. c #964805",
"#. c #9D5705",
"$. c #8F4B0E",
"%. c #8D4F22",
"&. c #84562B",
"*. c #955B26",
"=. c #937031",
"-. c #A55A08",
";. c #A05F15",
":. c #AA4F04",
">. c #AB6107",
",. c #A46F1D",
"<. c #B7670A",
"1. c #BD6A16",
"2. c #B37015",
"3. c #BC720B",
"4. c #A46C31",
"5. c #A77529",
"6. c #AE7127",
"7. c #847B59",
"8. c #94754A",
"9. c #8B7D65",
"0. c #C06B0B",
"q. c #C76D14",
"w. c #C97415",
"e. c #D06F16",
"r. c #D37C01",
"t. c #CC750C",
"y. c #B7871E",
"u. c #BE8223",
"i. c #AB8728",
"p. c #ADA637",
"a. c #899A41",
"s. c #9D8F5D",
"d. c #9B9151",
"f. c #8D876B",
"g. c #898573",
"h. c #8D8A7A",
"j. c #8D8977",
"k. c #918D77",
"l. c #96927B",
"z. c #98937C",
"x. c #85B55B",
"c. c #8BA76D",
"v. c #89B16E",
"b. c #8FAF69",
"n. c #A38344",
"m. c #A09E5D",
"M. c #BD964E",
"N. c #AA9562",
"B. c #A3926B",
"V. c #A4AF4D",
"C. c #B0AB4F",
"Z. c #A0B449",
"A. c #B9A36A",
"S. c #D9870E",
"D. c #D48716",
"F. c #DE910F",
"G. c #D79417",
"H. c #C98617",
"J. c #C38822",
"K. c #CF9227",
"L. c #C59639",
"P. c #D39A2D",
"I. c #C6AD35",
"U. c #DAAB29",
"Y. c #D6AA39",
"T. c #DEB02B",
"R. c #E19B22",
"E. c #ECA814",
"W. c #F0AC03",
"Q. c #F0AF1A",
"!. c #F1B00B",
"~. c #F1B713",
"^. c #E7A823",
"/. c #EEB524",
"(. c #EBB236",
"). c #F2BC2F",
"_. c #DFAE54",
"`. c #C9A452",
"'. c #C9A475",
"]. c #EFBE4B",
"[. c #EABE5D",
"{. c #E5AB4A",
"}. c #F0C146",
"|. c #F1C450",
" X c #F4D079",
".X c #9D9A85",
"XX c #9B9785",
"oX c #8E8C86",
"OX c #A09C86",
"+X c #A19D8A",
"@X c #A5A18C",
"#X c #A8A48D",
"$X c #A5A292",
"%X c #A9A693",
"&X c #AAA798",
"*X c #ADA995",
"=X c #ADAA9A",
"-X c #B1AD99",
";X c #B6AC92",
":X c #B8B49A",
">X c #AEADA3",
",X c #B2AEA1",
"<X c #B4B1A2",
"1X c #B8B6A9",
"2X c #BDBAAD",
"3X c #BDBAA4",
"4X c #BEBCB1",
"5X c #82D69F",
"6X c #83CAA6",
"7X c #8ECBB0",
"8X c #8AD3A6",
"9X c #92D8AD",
"0X c #99D6B4",
"qX c #A1DCB9",
"wX c #C3BE9E",
"eX c #D5B281",
"rX c #C1BEA9",
"tX c #C0BEB3",
"yX c #D8C28E",
"uX c #C9C5A8",
"iX c #C2C0B5",
"pX c #C8C6B9",
"aX c #D2CEB1",
"sX c #D5D0B6",
"dX c #D8D3B6",
"fX c #DAD5BA",
"gX c #DDD9BE",
"hX c #D5D2B9",
"jX c #EAC29E",
"kX c #F2CD84",
"lX c #F5D385",
"zX c #F4D692",
"xX c #E6D5B1",
"cX c #F1D5A0",
"vX c #EAD8AC",
"bX c #F8E5BA",
"nX c #CCCBC2",
"mX c #D0CEC6",
"MX c #D8D6C8",
"NX c #DAD9D4",
"BX c #E0DCC7",
"VX c #E0DFD6",
"CX c #E4E1CC",
"ZX c #E6E3D1",
"AX c #E3E2DA",
"SX c #E8E5D3",
"DX c #EAE8D6",
"FX c #EDEBDC",
"GX c #E8E6DB",
"HX c #F6E7C9",
"JX c #F0EDDF",
"KX c #EDEBE0",
"LX c #F0EEE1",
"PX c #F2F0E5",
"IX c #F5F3E8",
"UX c gray100",
"YX c None",
/* pixels */
"YXYXYXYXYXYX% % % % l x l l l l l l l l z z j j % % % YXYXYXYXYXYX",
"YXYXYXYX% % 7.:XfXgXgXgXgXgXMXxXxXBXgXgXMXxXfXsXuX;Xf.% % YXYXYXYX",
"YXYXYX% % uXxXBXgXBXCXSXSXSXSXDXSXSXSXSXSXVXBXMXsXuXuX:Xl % YXYXYX",
"YXYX% l dXgXMXDXIXIXIXPXIXIXIXIXbXzXlXlXkXzXzXHXGXNXuX3X<Xn % YXYX",
"YX% % sXgXCXLXPXPXPXPXPXPXHX X)./.^.U.^.T.^.^.R._.xXMXpX2X;Xk 3 YX",
"YX% wXgXCXPXPXPXPXPXPXLXzX~.~.Y.C.b.v.v.c.c.N.p.K.G.eXnXqXwX&X% % ",
"% c gXgXPXPXPXr LX5 PX5 W.5 Z.5 E 5 [ 5 [ 5 ( I d.H.H.'.tX1X>Xg.% ",
"4 :XgXDXPXLXLXFXFXLX}.W.I.x.E R }  . .6XX.] ` ( _ i.w.6.;X1X1X&X% ",
"% dXgXPXPXFXFX5 FX|.!.I.E E '  .7X0X7X0X7X3 ` ( Q I 6.4.=.<X4X1Xv ",
"% fXgXPXPXPXFXLXlX~.T.x.R ' 5XqXqXqXqX0X7X7X` ( Q C 5.4.&.9.4X4X7.",
"x fXCXIXPXFXFX6 /.E.Z.J ' 9XqXqX0X7X6X] ` 6 ( / Q > 4.4.%.g 4X4Xf.",
"x fXCXPXKXKXFXzX!.U.Y R 5X0XqX9X6X| ` ( / / / ! W > 6.4.&.p ,XqXk.",
"x fXSXLXLXFXFX3 E.p.J ..9XqX0X .} [ ) ~ _ 3 ~ ! W , q.*.%.s >XtXz.",
"x fXSXLXLXFXGX}.E.a.J  .9X9X6X} ) ^ ^ ~ ~ ! ! ! : i q.%.%.g 1XtXz.",
"x fXCXLXFXFXFX3 E.L K  .5X5X{ ) H G ^ ~ _ 1 Q W , 2.1.%.+.s tXtXz.",
"x dXSXLXFXFXDX).^.a.H  .| { H H G G G ! Q Q > : =.e.;.e 7 h tXtXz.",
"x sXZXLXJXDXDX2 /.3 K 3 ) 3 H 1 G 2 G 1 C 1 : l w.<.+.7 8 h.4XtXz.",
"z sXZXJXFXDXDX(.E.y.T D H S S S S C C Z N > x t.0.$.q 2 h +XtXtXz.",
"x aXCXFXDXDXDX{.R.J.i.A D D V V M M N N Z 2.e.3.@.q 3 p oX+XtXtXz.",
"x uXBXFXDXDXSXjXD.K.H.y.P A V V V Z P =.q.q.>.@.q < # b +X%XtXtXk.",
"j uXMXSXSXSXZXzXF.S.S.S.S.H.y.u.u.2.w.e.<.-.@.o.2 . t +X%X@XtXtXl.",
"j rXhXBXBXVX[.F.S.r.<.-.>.#.>.>.>.-.@.@.w q 9 $ . ; $X*X$X@XtXtXl.",
"j :XaXMXxXY.F.D.t.:.O.w q q w w w w q q q 4 # X t +X+X#X+X%XpXpXk.",
"% :X2XeXY.P.K.3.@.9 $ O . + + 2 2 2 @ # X = p m $X.X+X+XXX>XnXnX7.",
"% #XA.`.`.P.2.@.9 O X ; t - = ; ; - t a b oX=X*X#X$X+XXXXXiXnXmX% ",
"% s.m.A.M.6.$.9 * * g.3X3X:X+Xl.oXoXXX#X-X-X*X#X@XOXXXz.-XMXMX4X% ",
"% % B.m.8.*.e * - g.-X-X-X-X-X-X-X*X*X#X#X#X@X+XXXz.z.$XmXNXNX7.% ",
"YX% 8.B.8.g t 8 l.#X#X#X#X#X#X#X#X#X@X@X+X+X.Xz.z.z.&XmXAXNX2X% YX",
"YX% % 7.9.9.h oX.X+X.X.X+X.X.X.X.XXX.XXXXXz.z.z.+X4XNXAXAXnX% % YX",
"YXvX% % 9.XX,X1X1X<X>X=X=X%X&X*X*X%X%X*X=X>X1XpXmXNXNXNXpX% % YXYX",
"YXYX  o & c &XtXiXpXpXnXnXnXnXnXnXnXnXnXnXmXmXMXNXNXNX+X% % YXYXYX",
"YXYXYXYX% % 3 7.XX>X4XpXnXpXpXnXnXnXnXnXnXmXmX4X<Xz.% % % YXYXYXYX",
"YXYXYXYXYXYXYX% % % % % % % % % % % % % % % % % % % % YXYXYXYXYXYX"
};
