/* XPM */
const char *front_back_grid_xpm[] = {
"33 33 256 2",
"   c #4A0400",
".  c #550A00",
"X  c #5B0800",
"o  c #531B06",
"O  c #581706",
"+  c #562612",
"@  c #582E24",
"#  c #620501",
"$  c #611703",
"%  c #761A00",
"&  c #602F1D",
"*  c #673717",
"=  c #772F0F",
"-  c #773613",
";  c #64270B",
":  c #7E3921",
">  c #78451B",
",  c #684324",
"<  c #794C25",
"1  c #784632",
"2  c #7B5329",
"3  c #795430",
"4  c #8A380B",
"5  c #803622",
"6  c #82461C",
"7  c #94400F",
"8  c #924A1B",
"9  c #884E21",
"0  c #854E33",
"q  c #845222",
"w  c #8B5224",
"e  c #8C5826",
"r  c #8C5C2A",
"t  c #865A28",
"y  c #865739",
"u  c #9E4C23",
"i  c #945D28",
"p  c #955826",
"a  c #806A2D",
"s  c #99642A",
"d  c #936430",
"f  c #9D6D34",
"g  c #956C36",
"h  c #9A7038",
"j  c #A26D2E",
"k  c #A36C32",
"l  c #AC732E",
"z  c #A37032",
"x  c #AB7432",
"c  c #AB7C3B",
"v  c #A87639",
"b  c #B37C39",
"n  c #B47B33",
"m  c #8F5D44",
"M  c #836855",
"N  c #87714A",
"B  c #857B58",
"V  c #9C6F40",
"C  c #9A7645",
"Z  c #977A5C",
"A  c #896B4C",
"S  c #866B60",
"D  c #897F62",
"F  c #A0694E",
"G  c #A27C44",
"H  c #A37654",
"J  c #B27A42",
"K  c #BB8136",
"L  c #BA833B",
"P  c #B9853C",
"I  c #8B835E",
"U  c #988F4E",
"Y  c #878262",
"T  c #8A8461",
"R  c #8F8B6D",
"E  c #978969",
"W  c #948E72",
"Q  c #9C8A78",
"!  c #97916F",
"~  c #969073",
"^  c #9A9373",
"/  c #99947B",
"(  c #9E9877",
")  c #9A9578",
"_  c #AC824B",
"`  c #A2815C",
"'  c #A8865A",
"]  c #B68343",
"[  c #B98748",
"{  c #BB925B",
"}  c #A08261",
"|  c #A68B69",
" . c #A38D74",
".. c #AA916A",
"X. c #A49778",
"o. c #B98263",
"O. c #B69875",
"+. c #B48F6B",
"@. c #C48B3C",
"#. c #C4893B",
"$. c #CA913E",
"%. c #C48D40",
"&. c #CD9542",
"*. c #C8964B",
"=. c #C79A55",
"-. c #D29944",
";. c #D09E4F",
":. c #C1907D",
">. c #C59D68",
",. c #CCA15C",
"<. c #D7A14C",
"1. c #D4A556",
"2. c #DEB35B",
"3. c #CCA464",
"4. c #C8A56B",
"5. c #C4A478",
"6. c #D2A964",
"7. c #D4AE71",
"8. c #D4B16C",
"9. c #DFB966",
"0. c #D8B97C",
"q. c #E8B65A",
"w. c #EBBA5C",
"e. c #E5B559",
"r. c #EBBD61",
"t. c #E3BC69",
"y. c #E6BF75",
"u. c #DFC37B",
"i. c #EDC266",
"p. c #EBC16F",
"a. c #E8C777",
"s. c #EFD07B",
"d. c #F4C663",
"f. c #F3CB6A",
"g. c #F3CF7B",
"h. c #F1D37B",
"j. c #F6D477",
"k. c #9C9880",
"l. c #A69E89",
"z. c #A79D86",
"x. c #AEA68F",
"c. c #AEA98C",
"v. c #ACA896",
"b. c #B4A484",
"n. c #B5A78A",
"m. c #B3AD91",
"M. c #B9AD9D",
"N. c #B5A996",
"B. c #BDB187",
"V. c #B6B195",
"C. c #B6B09D",
"Z. c #B9B499",
"A. c #BDB99E",
"S. c #BAB194",
"D. c #B1AFA1",
"F. c #B4B1A4",
"G. c #BEB5A5",
"H. c #B9B6AA",
"J. c #BBB9AC",
"K. c #BAB6A7",
"L. c #C7A988",
"P. c #CAB58B",
"I. c #C5B39A",
"U. c #D5BB89",
"Y. c #D4BA9B",
"T. c #D3B792",
"R. c #C0B6A2",
"E. c #C2BCA4",
"W. c #CABBA3",
"Q. c #C2BDB3",
"!. c #D3BBA7",
"~. c #D1C19C",
"^. c #D6C293",
"/. c #DED19D",
"(. c #C5C0A4",
"). c #CAC2A4",
"_. c #CCC4AB",
"`. c #C9C5AB",
"'. c #C5C2B8",
"]. c #CAC5BD",
"[. c #CBC5B4",
"{. c #D2C6AE",
"}. c #D4CBAC",
"|. c #DAC5AC",
" X c #D7C9A6",
".X c #D4CDB2",
"XX c #D4CAB9",
"oX c #DCCCB1",
"OX c #DCC7B5",
"+X c #DED5A3",
"@X c #D9D3AB",
"#X c #D5D1B5",
"$X c #DAD2B6",
"%X c #D9D5BA",
"&X c #E1C783",
"*X c #E4CE95",
"=X c #E4D59F",
"-X c #F4DA84",
";X c #F3D787",
":X c #F4DC93",
">X c #E2CCAE",
",X c #E0CCB4",
"<X c #E1CEB9",
"1X c #E1DAAA",
"2X c #E9D6A4",
"3X c #E3D4B4",
"4X c #E3D3BB",
"5X c #E9D6B3",
"6X c #ECDDBA",
"7X c #E5D9B9",
"8X c #F7E18B",
"9X c #FAE48C",
"0X c #F9EA99",
"qX c #F7E297",
"wX c #EAE1AA",
"eX c #EDE0BE",
"rX c #F7EAA1",
"tX c #F8ECA7",
"yX c #F8EEB5",
"uX c #F3EAB9",
"iX c #FAF1B5",
"pX c #CCC6C0",
"aX c #CDC8C1",
"sX c #D1CBC4",
"dX c #D3D1CB",
"fX c #DCD5C7",
"gX c #D6D5D1",
"hX c #D8D6D1",
"jX c #DDDCD6",
"kX c #E7D5C0",
"lX c #E1DBCB",
"zX c #E8D6C1",
"xX c #EADBC3",
"cX c #E5DCC4",
"vX c #E0DAD1",
"bX c #EAE5CA",
"nX c #ECE6C7",
"mX c #EDEAD3",
"MX c #ECE9D8",
"NX c #EFE4D2",
"BX c #F3E5C3",
"VX c #F1E4C9",
"CX c #F4EACB",
"ZX c #F8EAC6",
"AX c #F9EDCA",
"SX c #F3E9C5",
"DX c #F5EDD3",
"FX c #F0E4D3",
"GX c #FBF1CD",
"HX c #FAF3D3",
"JX c #FAF5DB",
"KX c #FEF9D6",
"LX c #FDFADB",
"PX c #F6F3DD",
"IX c #FDFBE2",
"UX c #FFFFE9",
/* pixels */
"MXMXMXMXMXsXl.D B E Q A , B ) ! ~ ) ~ ~ ~ ~ ~ D X.E.bXmXmXMXMXMXMX",
"MXMXMX`.( N b. XY.!.Y.5.I.4X$X.XoX$X4X$X$X.X.X.XS.^ I A.MXMXMXMXMX",
"MXMXV.I P.1X1X/.T.*XL.o.3XDXbX4XbXmXbXnXbXkX7X$X}.`.Z.! c.MXMXMXMX",
"MXZ.U @X1X1XuXyX2X*Xo.L.JXUXPXNXLXIXIXIXLXvXIXPXbX#X).A.^ c.MXMXMX",
"@X2 @X+XwXyXiXtX*X4.u L.IXIXPXxXJXLXJXLXJXxXDXJXPXbX#X(.A.I V.MXMX",
"T B.+XwXiXyXtXrX&XJ 4 Y.IXLXDXxXJXKXJXKXJXlXDXHXmXbXfX`.G.m.I fXMX",
"R /.=XiXtXrXrX0X8.p 4 Y.IXKXCXzXDXKXKXKXHXkXCXJXCXnXcX#X`.C.) V.MX",
"V.~.wXiXrX0X0X0X8.p 4 Y.IXKXDXzXDXKXHXKXHXkXCXHXGXbXcX%X`.C.v.I MX",
").P.=X*X&Xu.u.u.{ 8 4 L.HXDXxX<XVXCXCXCXVX<XxXVXnX%XoX.XE.M.C.T #X",
").L.&X0.6.3.3.3.[ p 4 H VXxX4XOXzXxXxXxX4XOXkX4X4X$X}._.R.F.F.W (.",
"[.^.qX0X8X8X9X8X7.v # H HXKXVX4XAXHXHXHXHX4XCXGXSXnX%X#X_.G.F./ V.",
"_.^.qX:X-X-X-Xh.6.[ 5 5 5XKXZX<XAXGXAXGXAX<XVXAXSXeX7X@X_.K.H.k.m.",
"{.U.:X:Xh.h.-Xh.,.1.p # :.KXVX<XZXDXAXGXZX<XxXAXnXeX4X@X).E.J.k.m.",
"[.U.:X;Xh.h.j.h.=.y.] # : 5XHX,XZXGXAXGXZX,XBXAXBXeX3X}.).R.J.k.m.",
"{.U.;X;Xh.a.j.a.*.t.t.= X F eXkXZXZXZXAXBX>XeXSXeX6XoX XW.R.H.k.m.",
"E.O.>.=.[ ] ] b p v [ 6 X $ F !.5X,X,X,X,X!.|.>X|.).W.I.N.F.H.k.m.",
"W.>.7.6.=.*.=.*.k ] 1.1.9 . X y >XBX6X4X4X!.,X5X>X|.W.I.I.G.K./ m.",
"!.L.;Xg.f.f.f.d.[ <.j.f.e.w . X 0 T.AXGXZX>X6XZX6X5X>X}.(.x.K.k.m.",
"E.L.a.a.r.r.d.w.L ;.f.r.d.t.l O   $ m P.5X!.5X6X5X XY.X.M S F.k.c.",
"E.5.a.y.r.r.r.q.b ;.d.q.q.d.1.w 9 $   O & 1 y y y 1 & + @ M F./ m.",
"I.5.a.t.w.q.w.q.b &.d.q.w.w.<.k 2.;.x 6 ; O o o o o + < C  .F./ m.",
"m...{ [ ] b b b e j #.b b L k 6 b %.] L z - 9 s t t d g C Q F.k.m.",
"x.E H V d i i i - 9 i p i s q - w i p i e * 9 r q 2 2 3 A Q F./ Z.",
"x...4.,.*.&.-.-.s b <.-.-.-.K q %.-.-.-.@.> x @.K K c c O.l.J.~ `.",
"z.| 4.=.[ %.&.@.p l -.$.$.$.n > K $.#.$.K > j K v v v G S.N.Q.B MX",
"~ E +.{ [ P P K w s #.K K K s > l K K K j , s x j f h ..W.'.K.R MX",
"B  ...+._ J c l < p n l l n i * j l l l s * e j s g U W.[.dX~ A.MX",
"c.) X.....G c f < r n z j x i * s l j j a * t f g ' ).fXhXG.! MXMX",
"fX( ^ b.n.O.' h 3 y v k k k a , s f g f d , y H b.XXfXfX].I (.MXMX",
"MX_.^ ^ N.G.I.S. . .| Z E Z Z M ` ` ` |  .Q Z.XXlXjXjX'.I Z.MXMXMX",
"MXMX[.X.W M.Q.Q.Q.Q.].].].].sX].].sX].sXsXsXdXhXjXgXx.R A.MXMXMXMX",
"MXMXMXMXV.D / D.Q.pXhXhXhXhXhXhXdXhXhXhXjXdX'.K.z.B c.fXMXMXMXMXMX",
"MXMXMXMXMXMXE.X.k.R I Y Y Y Y Y Y Y Y Y Y T k.( Z.lXMXMXMXMXMXMXMX"
};
