/* XPM */
const char *line_xpm[] = {
/* columns rows colors chars-per-pixel */
"33 33 141 2",
"   c #3F3603",
".  c #1A7B7D",
"X  c #776F45",
"o  c #0B7584",
"O  c #0B7991",
"+  c #0C7C9E",
"@  c #107D85",
"#  c #117F92",
"$  c #168994",
"%  c #16899C",
"&  c #1082A3",
"*  c #1588A5",
"=  c #1D92A0",
"-  c #20979F",
";  c #239B9A",
":  c #22A68F",
">  c #3AAE96",
",  c #2EA0A1",
"<  c #57938E",
"1  c #45BD88",
"2  c #52B89A",
"3  c #40ABA4",
"4  c #58C492",
"5  c #66C79A",
"6  c #64C2A0",
"7  c #817A54",
"8  c #857E59",
"9  c #87815C",
"0  c #89825D",
"q  c #8B8462",
"w  c #908967",
"e  c #938D6A",
"r  c #928D71",
"t  c #96906E",
"y  c #98916E",
"u  c #969175",
"i  c #97947E",
"p  c #9B9574",
"a  c #99947D",
"s  c #9E9877",
"d  c #9F9979",
"f  c #A29C7D",
"g  c #9A9681",
"h  c #9C9983",
"j  c #A19C86",
"k  c #A19E89",
"l  c #A5A18D",
"z  c #A9A58D",
"x  c #AEA98C",
"c  c #A5A291",
"v  c #A9A592",
"b  c #A9A798",
"n  c #ADA994",
"m  c #ADAA9A",
"M  c #B0AA8D",
"N  c #B1AD95",
"B  c #B1AD9A",
"V  c #B6B195",
"C  c #B4B09B",
"Z  c #B8B39B",
"A  c #BDB89E",
"S  c #A5BBAC",
"D  c #ADB5A2",
"F  c #B1AEA0",
"G  c #B5B2A2",
"H  c #B7B4A9",
"J  c #B9B5A2",
"K  c #B9B7A9",
"L  c #BEBAA5",
"P  c #BDBBAB",
"I  c #BDBBB1",
"U  c #93C3BD",
"Y  c #9CC4BA",
"T  c #99CEB5",
"R  c #90D4B7",
"E  c #95D3BD",
"W  c #A6C3B7",
"Q  c #ABC5BF",
"!  c #A2D2B5",
"~  c #A5D1BC",
"^  c #ACD3BD",
"/  c #ACD9B7",
"(  c #ACD1C1",
")  c #B4D2C4",
"_  c #BDD4C3",
"`  c #BADBC3",
"'  c #C1BC9E",
"]  c #C1BCA3",
"[  c #C1BDAB",
"{  c #C1BEB2",
"}  c #C5C0A3",
"|  c #C4C1AC",
" . c #CAC5AC",
".. c #C3C0B5",
"X. c #C5C3B9",
"o. c #C0C8BA",
"O. c #CAC6B1",
"+. c #C9C7BD",
"@. c #CCC9B5",
"#. c #CCC9BC",
"$. c #D0CCAF",
"%. c #D1CDB3",
"&. c #D2CEB9",
"*. c #D6D2B6",
"=. c #D4D0BC",
"-. c #D9D5B7",
";. c #DAD5BA",
":. c #DDD8BD",
">. c #CBCAC1",
",. c #C3D9C9",
"<. c #D0CEC4",
"1. c #D1CFC8",
"2. c #D6D3C2",
"3. c #D4D3CB",
"4. c #D8D5C3",
"5. c #DCD9C3",
"6. c #DEDBCA",
"7. c #D1DFD1",
"8. c #D9D7D1",
"9. c #DCDAD3",
"0. c #DEDDD8",
"q. c #E1DCC3",
"w. c #E1DDCB",
"e. c #E0DDD0",
"r. c #E0DFDA",
"t. c #E4E1CD",
"y. c #E6E3D2",
"u. c #E4E2DA",
"i. c #E2E8D6",
"p. c #E7EAD9",
"a. c #E9E5D3",
"s. c #EAE7D8",
"d. c #EAE8D6",
"f. c #EDEBDB",
"g. c #F0EDDF",
"h. c #EEECE0",
"j. c #F0EEE0",
"k. c #F2F0E5",
"l. c #F4F2E8",
"z. c gray100",
"x. c None",
/* pixels */
"x.x.x.x.x.x.  f 9 7 e e e e e e e e e e e e w w 7 s ] x.x.x.x.x.x.",
"x.x.x.x.  d y ' -.q.:.:.:.:.:.:.:.:.:.-.-.*.%. .} z u e A x.x.x.x.",
"x.x.x.V 0 } q.:.:.q.t.a.a.a.a.a.a.a.a.a.y.w.6.=. .A V z q x x.x.x.",
"x.x.Z e -.:.q.d.l.l.l.l.l.l.l.l.l.k.l.l.k.k.f.u.6.<.[ B n e x x.x.",
"x.  q -.:.t.k.k.k.k.k.k.k.k.k.k.k.j.k.j.k.f.f.u.e.3.#.P m b q V x.",
"x.  } :.t.k.k.k.k.k.f.k.f.k.f.k.k.j.k.j.j.j.f.a.e.4.#.P G m c q   ",
"  X :.:.k.k.k.k.f.k.g.f.f.k.f.k.f.k.f.j.j.j.h.u.e.4.#...H F m u N ",
"f ' :.a.k.k.k.f.f.k.f.k.f.f.f.k.f.f.j.j.f.f.f.u.9.4.#.I G F H b q ",
"8 ;.:.k.j.g.g.f.R E g.g.k.f.k.f.g.f.g.g.g.h.f.a.w.4.#.| G m I K q ",
"7 :.q.l.g.g.g.g./ 4 5 a.f.f.f.f.g.g.f.f.g.f.d.u.9.4.#.[ G m I I r ",
"y :.t.k.g.g.g.g.p./ 1 6 p.f.f.f.f.g.g.g.f.f.d.y.w.4.#.P G m ....a ",
"y :.a.k.g.g.g.d.f.f.` > 2 p.f.f.f.f.f.f.f.f.s.y.6.4.#.[ G b ..X.j ",
"y ;.a.j.g.g.g.g.f.f.f.~ : 3 7.f.f.f.f.g.g.d.d.y.6.2.#.P G n I +.j ",
"y ;.a.k.g.g.d.g.f.f.f.f.T ; , ,.d.f.f.d.d.g.s.y.6.2.@.[ G b { X.j ",
"y ;.a.g.g.g.d.d.f.f.d.f.d.! ; - ) f.f.d.d.d.s.y.6.2.@.[ B b X.X.j ",
"y ;.a.g.g.d.d.f.f.d.f.d.d.d.^ ; = ) d.f.g.s.s.e.q.<.@.[ B b { X.j ",
"y ;.a.k.g.d.d.g.f.f.f.f.f.f.a.^ % * U f.p.f.a.e.6.=.O.K C b { X.j ",
"y ;.t.g.g.d.s.d.a.a.a.d.a.a.f.d.) * & U a.a.y.6.5.#.O.G m b { ..j ",
"y -.a.g.d.d.d.d.a.f.d.d.a.d.d.d.d.,.% & Y a.t.6.=.#.| J n c { X.j ",
"t *.t.f.d.d.a.d.a.a.a.d.a.a.a.a.a.d._ $ + Y w.6.2.O.L C b l I ..j ",
"e *.q.d.s.s.a.a.a.a.a.a.a.a.a.d.a.a.a._ # O W =.#.| J m l k ..X.j ",
"e $.:.d.a.y.t.t.t.a.t.t.a.t.t.t.t.t.t.t.Q @ o S  .L B n k k X.X.j ",
"e  .;.u.w.w.w.w.w.w.w.w.w.w.w.w.w.w.6.6.4.o.. < [ Z n l h b +.+.h ",
"7 }  .6.5.5.5.5.5.5.5.5.5.5.5.5.5.5.;.=.&.@.| D Z m v h h G >.>.u ",
"0 Z ] =.2.&.=.=.&.=.=.=.=.=.=.=.&.&.&.%.O.| L Z m z k g h X.3.3.7 ",
"x j Z  .O.O.O.O.O.O.O.O.O.O. . .O. .| P L J V n z l g i m 3.9.I w ",
"  8 N Z [ P [ P [ ] L ] L L ] ] J J A V V n b l h h a v 1.0.9.u ' ",
"x.x s m B G G V V B Z B V B B m N m n v v l k h a a b <.0.u.P u x.",
"x.  p k n m B b n b v b v v v v z l l k k h h i l P 3.0.u.>.q   x.",
"x.x.  p g m G K K G B B N m N m B m m N m G K O.1.8.0.u.X.q Z x.x.",
"x.x.x.  f e b K I X.X.+.+.+.>.+.#.>.>.+.>.>.>.1.3.9.3.v w A x.x.x.",
"x.x.x.x.  N q r l F I X.+.+.+.+.+.+.+.+.+.>.>.I G k 8 x   x.x.x.x.",
"x.x.x.x.x.x.x.L f y 9 7 7 7 7 7 7 7 7 7 7 7 7 e f V   x.x.x.x.x.x."
};
