/* XPM */
const char *next_xpm[] = {
/* columns rows colors chars-per-pixel */
"33 33 256 2",
"   c #030100",
".  c #0B0200",
"X  c #1B0300",
"o  c #250900",
"O  c #2D0A00",
"+  c #281205",
"@  c #390700",
"#  c #450C00",
"$  c #420400",
"%  c #491D08",
"&  c #49210B",
"*  c #6C2C0C",
"=  c #6F3A16",
"-  c #742407",
";  c #773610",
":  c #6F532A",
">  c #7D603B",
",  c #BA390B",
"<  c #984B19",
"1  c #9E5E28",
"2  c #B1420E",
"3  c #B85B1C",
"4  c #B65C27",
"5  c #B9611F",
"6  c #AE6328",
"7  c #A86839",
"8  c #AA763A",
"9  c #B66926",
"0  c #B87F37",
"q  c #BB643B",
"w  c #88555C",
"e  c #925E62",
"r  c #826642",
"t  c #826843",
"y  c #886542",
"u  c #817A54",
"i  c #887451",
"p  c #946264",
"a  c #9A6B6A",
"s  c #9D706E",
"d  c #9C7071",
"f  c #BD7249",
"g  c #A77D45",
"h  c #A1746F",
"j  c #A37571",
"k  c #A47873",
"l  c #A97D77",
"z  c #BA7E61",
"x  c #C43607",
"c  c #C74F10",
"v  c #C45C1B",
"b  c #C75618",
"n  c #C6470E",
"m  c #C5631F",
"M  c #D8651B",
"N  c #C36122",
"B  c #C26F26",
"V  c #C87027",
"C  c #CA7833",
"Z  c #D46822",
"A  c #D87327",
"S  c #D8782C",
"D  c #D67F35",
"F  c #E45F1A",
"G  c #E07B29",
"H  c #ED7831",
"J  c #C27A40",
"K  c #BA8A3F",
"L  c #89825D",
"P  c #8C8461",
"I  c #8E8867",
"U  c #938D6A",
"Y  c #9A8966",
"T  c #998C68",
"R  c #96906E",
"E  c #9B916E",
"W  c #959075",
"Q  c #9B9474",
"!  c #9A957A",
"~  c #9F9979",
"^  c #9B9676",
"/  c #AC8B47",
"(  c #AE954B",
")  c #A79250",
"_  c #B28A51",
"`  c #B89548",
"'  c #A98A52",
"]  c #A99A64",
"[  c #AF9C7D",
"{  c #A59B7C",
"}  c #B28A68",
"|  c #B3936E",
" . c #B59778",
".. c #B48779",
"X. c #B8A767",
"o. c #B9A97D",
"O. c #BFB57A",
"+. c #C38337",
"@. c #CB873A",
"#. c #DB8E3B",
"$. c #D78537",
"%. c #DA923E",
"&. c #E08D3A",
"*. c #CE8D55",
"=. c #CE9743",
"-. c #C69846",
";. c #D78940",
":. c #D39744",
">. c #D89055",
",. c #C38860",
"<. c #CDA34C",
"1. c #C3A04C",
"2. c #CBA453",
"3. c #D8A54A",
"4. c #D5A752",
"5. c #C5AE69",
"6. c #C4A27B",
"7. c #CEB165",
"8. c #DBA060",
"9. c #DEAC78",
"0. c #D0B063",
"q. c #D0BD78",
"w. c #C8B779",
"e. c #E59C4A",
"r. c #F38E40",
"t. c #E3A34A",
"y. c #E6AE53",
"u. c #EFB65A",
"i. c #F6A149",
"p. c #F3B858",
"a. c #E6A864",
"s. c #EAB667",
"d. c #DAC377",
"f. c #E3CA7D",
"g. c #F5C866",
"h. c #F3D07C",
"j. c #9A9681",
"k. c #9E9A85",
"l. c #A09C86",
"z. c #A19D89",
"x. c #BB9481",
"c. c #A5A28C",
"v. c #A8A38D",
"b. c #AEA98C",
"n. c #A9A592",
"m. c #ADA994",
"M. c #AEAA9A",
"N. c #A7A492",
"B. c #B3AB8D",
"V. c #BCAB8B",
"C. c #B5A487",
"Z. c #B3AC92",
"A. c #B1AD99",
"S. c #BAAE92",
"D. c #B6B195",
"F. c #B3B099",
"G. c #BBB395",
"H. c #BAB399",
"J. c #BDB89D",
"K. c #B1AFA1",
"L. c #BAB5A3",
"P. c #BDB9A4",
"I. c #BBB9AB",
"U. c #B5B3A4",
"Y. c #C29C81",
"T. c #CE9C87",
"R. c #C0AE86",
"E. c #C9AA8A",
"W. c #CAA992",
"Q. c #C8B488",
"!. c #C2B594",
"~. c #CBB294",
"^. c #C7BA98",
"/. c #D3A085",
"(. c #D3AA8C",
"). c #D9AD8B",
"_. c #D5A887",
"`. c #D6A791",
"'. c #D5A990",
"]. c #D8AC94",
"[. c #D3B389",
"{. c #DBB38C",
"}. c #DABA8D",
"|. c #D6B784",
" X c #D2B49C",
".X c #D3B99E",
"XX c #DBB293",
"oX c #DBB49C",
"OX c #DEBC91",
"+X c #D2B390",
"@X c #C1BDA3",
"#X c #C0BDA8",
"$X c #D2BDA0",
"%X c #DEBCA9",
"&X c #DBB6A2",
"*X c #E3A782",
"=X c #E2B789",
"-X c #E0B495",
";X c #E1BC92",
":X c #E1B798",
">X c #CDC090",
",X c #DCC389",
"<X c #DEC193",
"1X c #C5C0A5",
"2X c #C9C5AD",
"3X c #C9C3AB",
"4X c #C4C2B5",
"5X c #C8C6BC",
"6X c #CDC9B5",
"7X c #C8C6B9",
"8X c #D1C1A2",
"9X c #D2CDB3",
"0X c #D6CAB5",
"qX c #D5D1B6",
"wX c #DED9BD",
"eX c #D9D4BC",
"rX c #E0C48C",
"tX c #E2CA8B",
"yX c #E5C985",
"uX c #E3C393",
"iX c #E6C39A",
"pX c #E9CC94",
"aX c #E7CA97",
"sX c #F2D085",
"dX c #F0D493",
"fX c #E4D399",
"gX c #E6C9AB",
"hX c #E6CAB5",
"jX c #E8D6B2",
"kX c #F2D7A0",
"lX c #E5D3AA",
"zX c #FDE59B",
"xX c #CCCAC1",
"cX c #D0CEC6",
"vX c #D5D3CC",
"bX c #DED9C5",
"nX c #D8D6C5",
"mX c #D7D6D0",
"MX c #D8D7D0",
"NX c #DAD9D2",
"BX c #DFDFD9",
"VX c #E0DBC3",
"CX c #E1DECB",
"ZX c #E9D8C3",
"AX c #E0DFD9",
"SX c #E4E1CB",
"DX c #E6E3D1",
"FX c #EBE5D4",
"GX c #EBE8D6",
"HX c #ECE9D9",
"JX c #E2E1DC",
"KX c #F0EDDF",
"LX c #EFEDE0",
"PX c #F0EEE1",
"IX c #F2F1E5",
"UX c #F4F3E8",
/* pixels */
"HXHXHXHXHX6X{ L u U U R R U I i > > t t t i r : y C.KXKXFXFXKXFXGX",
"HXGXHX2X~ E >XeXVXwXjXbXwXeX0X X.X.X8X>X8X>X$X3XC.Y u J.KXFXGXHXHX",
"HXHXD.P 1XwXnXbXZXDXCXFXFXVX XW. X$X&X$X X X X~.~.!.Z.P B.GXHXHXGX",
"GXD.U qXwXbXGXUXUXUXUXUXLX0XT.&X X&X&X&X%X%X%X%X$X~.S.S.U b.HXGXGX",
"6XL 9XwXSXUXUXIXIXIXIXPXhXT.T.`.`.`.].oX:X&X&XoX&X XW.V.A.I Z.HXHX",
"~ J.wXSXUXIXIXPXPXPXPXZXT./.`.`.`.].XXXXXXXXXXXXoX X~.S.S.m.u CXHX",
"R wXwXIXIXPXPXPXPXPXFX`./.oX-X-X-X-X).`.].XXXXXX{.+X~.E.C.Z.! S.HX",
"J.qXGXIXIXPXLXLXPXFXoX/.-XoX`.`.`.`.{.=X=X{.=X{.[.[.E.E.V.Z.n.P HX",
"qXwXIXIXKXKXKXKXFXgX`.-XXX6.j j j j ..(.;X;X}.}.}.[.Q.Q.V.B.M.P qX",
"qXwXIXPXKXKXKXFXgX).{.].l p e e p e e k ).aXuXuX<X}.[.Q.V.S.A.U P.",
"qXSXIXPXKXKXHXhX_.).;X/.w p p p p p p p  .iXaXuX<X}.[.Q.R.G.A.W G.",
"qXDXPXPXKXKXjX).).OXOX(.e e a a a h d d Y.pXpXpX,X,X|.Q.R.!.S.! D.",
"qXFXKXKXHXHXjX}.9.<XrXuX6.j d d j k l x.,XpXpXtX,X,X|.Q.R.!.H.~ b.",
"9XFXIXKXIXHXHXZXlXrX=X=XuX).Y.x.x.Y.E.<XtXdXtXtX,X,Xd.w.6.!.G.^ D.",
"qXGXLXHXHXHXHXHXFXjXjXgXyXrXfXrXtX,XyXyXf.yXf.f.d.d.q.w.O.G.G.^ B.",
"9XDXSXFXHXHXHXHXKXFXHX>.3 Z H r.i.i.p.y.4.4.4.4.4.2.1.-./ o.C.E B.",
"0XDX9.;XFXHXHXHXHXHX9., x , % % & & = c F b b v v 3 5 6 7 }  .Y B.",
"9XDX9.8.iXFXGXHXHX*Xc c 2 O         . + < F M v b 3 3 6 7 } ..Y B.",
"9XVXyXs.u.dXFXFX=XZ m M ;   . . .       + 3 M m 5 5 5 9 7 } { Y B.",
"2XbXdXsXg.g.zXa.S A S D < X O O o o X . + 5 $.V B 9 9 8 8 | [ T b.",
"1XnXjXsXs.p.p.p.&.&.D &.C * $ # # # @ @ = %.%.@.+.C K 8 g  .[ E B.",
"@X9XbXlXs.t.t.e.e.;.$.#.%.$.< ; - - ; 1 %.3.:.=.@.K K / ' C.C.E Z.",
"J.4XnXeX<X8.;.D D D $.#.:.t.t.#.@.@.:.y.3.<.<.-.` ` ` ) ) V.B.E H.",
"F.P.6X6X6X6X].*.C N N m +.=.:.3.3.3.4.3.<.2.<.1.1.` ( ) O.J.J.U 1X",
"n.F.4X3X#X4X3X2XQ.,.f q 4 J 2.0.7.7.7.7.7.X.X.X.X.] ] E @X#X4Xu GX",
"! n.U.L.L.P.L.P.P.P.J.W.z z 6.^.>X>X>XQ.D.F.F.n.c.l.k.K.7X7XI.U HX",
"L N.m.U.M.M.M.F.A.A.A.F.A.A.A.Z.M.M.b.m.b.v.c.z.k.j.N.xXcXcXR @XGX",
"b.W N.M.F.N.v.v.v.v.v.v.N.v.v.v.c.c.c.c.c.l.k.j.! m.xXNXMXI.R GXHX",
"bX^ z.U.I.K.N.k.k.l.l.l.l.k.l.k.l.l.k.k.k.j.j.z.I.MXBXBX5XP 1XHXGX",
"HX2X^ k.I.7X5X5XI.U.K.M.M.M.M.M.m.M.M.K.U.I.5XNXBXJXBX4XP D.HXHXHX",
"HXHX6X~ W I.xXcXvXMXmXMXNXMXMXMXMXMXMXNXNXNXBXBXJXMXv.I J.HXHXGXGX",
"GXHXGXGXF.P W M.I.5XvXmXMXMXMXMXMXmXmXMXMXMX4X#Xl.u b.nXHXGXHXHXHX",
"HXHXGXHXHXGXP.{ R L u u u u u u u u u u u u R ^ D.SXHXGXHXHXGXHXGX"
};
