/* XPM */
const char *outline_pic_xpm[]={
"16 18 5 1",
"# c None",
". c None",
"a c #b15306",
"b c #d99119",
"c c #ecc16c",
".#####..........",
"................",
"................",
"..aaaaaaaaaaaa..",
"..abbbbbbbbbba..",
"..abccccccccba..",
"..abc......cba..",
"..abc......cba..",
"..abc......cba..",
"..abc......cba..",
"..abc......cba..",
"..abc......cba..",
"..abccccccccba..",
"..abbbbbbbbbba..",
"..aaaaaaaaaaaa..",
"................",
"................",
"................"};
