/* XPM */
const char *align_cv_xpm[] = {
/* columns rows colors chars-per-pixel */
"33 33 256 2",
"   c #4E1508",
".  c #541D0D",
"X  c #5B1D0A",
"o  c #511506",
"O  c #5B230E",
"+  c #5D280D",
"@  c #572010",
"#  c #5E2511",
"$  c #5A2B14",
"%  c #5E341C",
"&  c #602A0E",
"*  c #6C270E",
"=  c #68230C",
"-  c #642510",
";  c #6A2A11",
":  c #642913",
">  c #683618",
",  c #752409",
"<  c #7A2006",
"1  c #742F13",
"2  c #723C1C",
"3  c #6C4626",
"4  c #754529",
"5  c #784B23",
"6  c #764725",
"7  c #7C502A",
"8  c #795436",
"9  c #7D6D50",
"0  c #8A2B0A",
"q  c #82280A",
"w  c #8B3411",
"e  c #873814",
"r  c #95320D",
"t  c #9B3C12",
"y  c #A3350C",
"u  c #B23B0D",
"i  c #815128",
"p  c #885F39",
"a  c #875D31",
"s  c #A94112",
"d  c #B94813",
"f  c #A1733C",
"g  c #865D43",
"h  c #817A54",
"j  c #837555",
"k  c #9B7746",
"l  c #977554",
"z  c #887261",
"x  c #967C65",
"c  c #A07740",
"v  c #C0420E",
"b  c #C84A11",
"n  c #CD5216",
"m  c #D25818",
"M  c #D25616",
"N  c #D8611D",
"B  c #DB6D20",
"V  c #DE7B29",
"C  c #DC7424",
"Z  c #E07D29",
"A  c #8D843D",
"S  c #A2853E",
"D  c #A6893E",
"F  c #AA8B3E",
"G  c #B0903F",
"H  c #8E864B",
"J  c #88825D",
"K  c #9D8242",
"L  c #938B55",
"P  c #8B8460",
"I  c #948D6A",
"U  c #958B74",
"Y  c #96906E",
"T  c #9C946A",
"R  c #9F986D",
"E  c #9A9365",
"W  c #959074",
"Q  c #9B9574",
"!  c #9E9877",
"~  c #9F9979",
"^  c #98947B",
"/  c #A18643",
"(  c #A48945",
")  c #AA8C41",
"_  c #A58B4C",
"`  c #A68C55",
"'  c #A7904F",
"]  c #AE944B",
"[  c #AC9554",
"{  c #B59442",
"}  c #B5994D",
"|  c #B99946",
" . c #BC9D4A",
".. c #B9964C",
"X. c #B39A59",
"o. c #A68C6C",
"O. c #A0986D",
"+. c #AE9B6C",
"@. c #AB9761",
"#. c #A69C7A",
"$. c #B09C6E",
"%. c #B09D70",
"&. c #B09F7C",
"*. c #BEA251",
"=. c #BCA35A",
"-. c #ACA27C",
";. c #B4A262",
":. c #BCAA6A",
">. c #B3A174",
",. c #B5A57B",
"<. c #B9A672",
"1. c #DE802A",
"2. c #E0802D",
"3. c #E38B31",
"4. c #E8A53C",
"5. c #C19F49",
"6. c #C2A14A",
"7. c #C8A64F",
"8. c #C6AB55",
"9. c #CDAB52",
"0. c #C5A657",
"q. c #CEB25A",
"w. c #D0AD53",
"e. c #D4B45A",
"r. c #DBBA5B",
"t. c #C4AB63",
"y. c #C4A969",
"u. c #C8B566",
"i. c #CABB7B",
"p. c #C4B47C",
"a. c #DBBD62",
"s. c #D2B866",
"d. c #ECAE43",
"f. c #EEB846",
"g. c #F0BD47",
"h. c #DEC163",
"j. c #DCC46C",
"k. c #D4C67B",
"l. c #DAC87B",
"z. c #DED17E",
"x. c #F1C24B",
"c. c #F8DB56",
"v. c #E1C161",
"b. c #E6C967",
"n. c #E8C963",
"m. c #E9CC6A",
"M. c #E5C96A",
"N. c #E4CC73",
"B. c #EDD16D",
"V. c #E3D37C",
"C. c #EBD47D",
"Z. c #EAD375",
"A. c #F1D46D",
"S. c #F0D572",
"D. c #F2DB7A",
"F. c #F8DF77",
"G. c #F3D873",
"H. c #F7E27E",
"J. c #9B9880",
"K. c #A19D88",
"L. c #ADA88C",
"P. c #A3A08C",
"I. c #AAA693",
"U. c #B3AC8C",
"Y. c #BCAF8A",
"T. c #B8AC84",
"R. c #B3AD91",
"E. c #BDB38B",
"W. c #BCB084",
"Q. c #B6B194",
"!. c #BAB493",
"~. c #BAB49A",
"^. c #BDB89E",
"/. c #BFBA94",
"(. c #BBB7A6",
"). c #C3BB8A",
"_. c #C9BD84",
"`. c #C5B988",
"'. c #C3BD92",
"]. c #C2B89A",
"[. c #C2BDA4",
"{. c #C9BFA5",
"}. c #C9C08B",
"|. c #C9C495",
" X c #D6CA88",
".X c #D4CB98",
"XX c #DED385",
"oX c #D9D09E",
"OX c #D5D098",
"+X c #C5C0A5",
"@X c #CAC4AC",
"#X c #C8C0A7",
"$X c #C9C5B6",
"%X c #D0CBB4",
"&X c #D4CDBB",
"*X c #D6D0A5",
"=X c #DBD4A3",
"-X c #DCD7A8",
";X c #D7D0BF",
":X c #DAD5BC",
">X c #DED9BE",
",X c #D6D2B7",
"<X c #E1CB83",
"1X c #E7D984",
"2X c #EDDD85",
"3X c #EADB8B",
"4X c #E4D48A",
"5X c #E4D99A",
"6X c #E0D592",
"7X c #F1DD84",
"8X c #F1DF95",
"9X c #E2DCAA",
"0X c #E3DCA5",
"qX c #E1DDB2",
"wX c #EEE28C",
"eX c #E9E197",
"rX c #F4E48A",
"tX c #F9E88A",
"yX c #F4E488",
"uX c #F2E593",
"iX c #F6EA93",
"pX c #F5EB9A",
"aX c #FAED94",
"sX c #F8EE99",
"dX c #FEF38E",
"fX c #F9F19C",
"gX c #FFF490",
"hX c #E6E1AC",
"jX c #EBE2A5",
"kX c #E9E2AA",
"lX c #EAE5B0",
"zX c #ECE8B1",
"xX c #F4EBA3",
"cX c #F4EDAC",
"vX c #F8EDA2",
"bX c #F8EFAD",
"nX c #F3EDB6",
"mX c #F8F2A3",
"MX c #F9F3AB",
"NX c #F5F0AE",
"BX c #F9F3B2",
"VX c #FAF6BA",
"CX c #FBF8BB",
"ZX c #F4F0B9",
"AX c #D6D1C2",
"SX c #D8D3C4",
"DX c #DAD6C8",
"FX c #DED9CE",
"GX c #D8D5C7",
"HX c #D8D7D0",
"JX c #E0DCCC",
"KX c #E0DBC0",
"LX c #E1DDD3",
"PX c #ECE9D8",
"IX c #ECE9D7",
"UX c #FAF7C0",
/* pixels */
"PXPXPXPXPX%X#.J h Y Y Y I I Y Y I I I Y I I I 9 ~ +XPXPXPXPXPXPXPX",
"PXPXPX@X~ W ^.:XqXDX>X>X>X>X>X>X>X>X>X>X>X:X:X,X^.~ P ^.PXPXPXPXPX",
"PXIXQ.P +XqX9X9XhXlXzXzXkXzXzXzXzXzXzXzXlXlXhX-X%X@X^.I L.PXPXPXPX",
"PX~.I -X9XhXzXUXCXCXCXCXCXCXCXCXCXVXVXBXCXCXVXZXhXOX|./.W L.PXPXPX",
"@XP *X9XhXUXVXBXBXMXMXMXMXMXMXMXMXMXMXMXMXBXNXNXNXhXOX/./.H Q.PXPX",
"#.'.-XhXCXBXMXMXMXvXmXmXmXmXmXvXmXmXmXmXmXmXmXmXpXjX=X|./.R.A JXPX",
"W -X9XVXBXmXmXfXfXfXfXfXmXfXmXfXfXfXfXfXfXfXfXpXeXeXeXOX'.Q.E Q.PX",
"E.-XkXBXMXvXfXfXsXfXsXsXfXfXaXfXfXfXsXsXfXsXpXpXpXeX6XOX'.!.L.P PX",
"*X=XBXbXvXpXsXsXsXsXsXsXaXaXfXfXfXaXaXfXsXsXsXuXeXeXXXOX)./.R.H ,X",
"=X0XBXvXpXiXaXiXiXiXiXiXfXfX3X3X3XaXfXaXiXiXiXiXwX1XXX X).).Q.L [.",
"*XkXbXvXpXiXiXiXiXiXaXaXy.p 4 4 6 8 [ wXaXiXiXuXwX1XXX X}.'.!.E ~.",
"oXkXbXpXiXtXiXtXtXiXaX` O O : ; ; = . p yXaXrXrXwX1XXXz._./.!.R R.",
"oXkXxXiX8XtXtXyXtXaXy.- # ; e t s t 1 : k tXrXwXwXV.z.k.i.'./.R R.",
"oXjXxXiXtX7XyXyXtXC.6 . ; t b m m n d w > u.tXyXwXz.z.k.i.'.!.R R.",
"oXjXpXiXiXtXtXtXgXt.. - e d m 2.3.V m s , c dXH.D.V.z.k.).|./.R R.",
"#.x g 4 ; : & & - O @ : t n 2.d.g.4.C b e + $ + + $ $ % 3 9 I 9 R.",
"&.o.l p 7 6 6 6 5 > . * y M 3.x.c.f.V b r > 5 6 6 2 3 3 8 P ^ 9 R.",
".X5X8X7XD.D.G.D.H.0.@ X t b 1.4.g.4.B v < f H.Z.z.j.j.:.:.W.R.R R.",
"'.8X8X7XD.D.D.F.H.Z.6   q u M C Z B n y 1 s.D.Z.M.j.j.j.:.E.E.T R.",
"'.6X3X1XS.S.S.S.A.H.*.@ X 0 u v b u y < f G.B.M.h.h.:.=.;.W.U.E R.",
"_.6X4XC.B.m.B.B.B.B.A...: o , q 0 < , f m.m.b.h.h.q.=.=.;.W.L.^ R.",
"`._.<XN.M.M.M.m.m.m.m.A.e.a > 2 2 i ..A.M.v.h.s.q.q.*.=.;.W.Q.J.R.",
"Y._.<Xa.a.v.v.r.v.v.v.v.n.n.e.e.e.v.n.a.a.r.e.q.*.*.} [ +.E.Q.^ ~.",
",.`._.y.e.e.r.r.r.r.r.r.r.r.r.a.r.r.r.e.e.w.9.7.*.} ] ' ,.!.^.Y +X",
"&.<.p.y.0.0.9.9.w.w.w.w.w.w.w.w.w.9.9.9.7.6.6.| { ] ' ' /.^.$X9 PX",
"~ &.<.y.0.5.5.5.5.5.5.7.5.5.6.5.5.5.5. .| | { ) D S K <.#X@X(.Y PX",
"z I.%.<.X.} ....{ | { { | { { { G G G { ) G F D S S @.@X$XGXW ^.PX",
"U.U #.&.%.[ _ ) ) ) ) ) ) ) ) ) F G D D D S / K H @.@XGXGX(.W PXPX",
"FX^ J.U.!.T.@._ c _ / / ( / / / ( / / / k / K ` Y.&XFXHX$XP +XPXPX",
"IX@X~ P.^.{.{.].`.T.&.%.$.$.$.$.$.$.%.%.T.Y.#X;XFXIXFX$XP ~.PXPXPX",
"IXIX$X~ W (.{.AX&X;X;X;X;X;XSX;XSXSXSXSXGXDXGXIXFXHXL.I (.PXPXPXPX",
"PXPXPXPXR.x U I.^.$XAXSXSXDXGXSXSXGXSXSXGXGX[.(.P.h L.GXPXPXPXPXPX",
"PXPXPXPXPXPX+X#.Y J 9 h h h h h h h h h h h Y ~ Q.JXPXPXPXPXPXPXPX"
};
