/* XPM */
const char *bring_to_front_xpm[] = {
/* columns rows colors chars-per-pixel */
"33 33 256 2",
"   c #1E0000",
".  c #280101",
"X  c #340505",
"o  c #300B0B",
"O  c #3D1413",
"+  c #450807",
"@  c #461716",
"#  c #581614",
"$  c #4B2321",
"%  c #5A2E2C",
"&  c #5B312E",
"*  c #641A19",
"=  c #603835",
"-  c #6D2724",
";  c #7E5953",
":  c #764642",
">  c #953527",
",  c #9A3B2B",
"<  c #A73D25",
"1  c #8D5416",
"2  c #9D4B26",
"3  c #9E4F3B",
"4  c #9F5126",
"5  c #9A572B",
"6  c #995B33",
"7  c #8E6C24",
"8  c #9A7A39",
"9  c #A54627",
"0  c #AC4D33",
"q  c #A04F30",
"w  c #A35728",
"e  c #A45832",
"r  c #B1472C",
"t  c #BC5F37",
"y  c #A7622F",
"u  c #A76436",
"i  c #AD7A3C",
"p  c #B26333",
"a  c #B66835",
"s  c #8F5954",
"d  c #915A55",
"f  c #817A54",
"g  c #9F6846",
"h  c #9E645F",
"j  c #9F6661",
"k  c #93756D",
"l  c #A76643",
"z  c #A2734A",
"x  c #B77546",
"c  c #B27D55",
"v  c #A47553",
"b  c #AF7C68",
"n  c #D15714",
"m  c #CB5B38",
"M  c #D7611A",
"N  c #C36E36",
"B  c #C86B38",
"V  c #C97037",
"C  c #DA7427",
"Z  c #D77632",
"A  c #EA7C1B",
"S  c #C56A41",
"D  c #C77844",
"F  c #928330",
"G  c #AB833F",
"H  c #A2833A",
"J  c #B98D3B",
"K  c #88825D",
"L  c #9B8543",
"P  c #948857",
"I  c #8B8562",
"U  c #948D6A",
"Y  c #988B68",
"T  c #928D71",
"R  c #98916E",
"E  c #9B9573",
"W  c #9E9877",
"Q  c #999478",
"!  c #A88644",
"~  c #A78A58",
"^  c #A99147",
"/  c #A9925E",
"(  c #B48D42",
")  c #B98C4C",
"_  c #B08651",
"`  c #B68B53",
"'  c #B59545",
"]  c #B79555",
"[  c #AF8D62",
"{  c #A98468",
"}  c #AD8870",
"|  c #AA9669",
" . c #A49A7A",
".. c #B18C62",
"X. c #B19269",
"o. c #B99877",
"O. c #B9A65A",
"+. c #ACA276",
"@. c #B9A479",
"#. c #BFB47D",
"$. c #D6873B",
"%. c #DB9737",
"&. c #E49829",
"*. c #F49431",
"=. c #E79033",
"-. c #E6A23D",
";. c #F1A62B",
":. c #F3AA39",
">. c #F0B22F",
",. c #F2BB31",
"<. c #EDA428",
"1. c #CB8953",
"2. c #C59756",
"3. c #D68948",
"4. c #D78E51",
"5. c #D89A47",
"6. c #D59659",
"7. c #D78F77",
"8. c #DC9D65",
"9. c #C99E69",
"0. c #C4A94A",
"q. c #C8A657",
"w. c #C9B356",
"e. c #DCAD41",
"r. c #D7A859",
"t. c #DBB845",
"y. c #D8B954",
"u. c #D3B756",
"i. c #CCAA68",
"p. c #C6A679",
"a. c #C0B264",
"s. c #D5A569",
"d. c #D9A679",
"f. c #DCBA7F",
"g. c #CCB96C",
"h. c #E18E54",
"j. c #E09F7A",
"k. c #EBA545",
"l. c #E4A75B",
"z. c #E6BC49",
"x. c #F3A242",
"c. c #F3AB43",
"v. c #F9AE52",
"b. c #F7B24A",
"n. c #F5B657",
"m. c #E5A865",
"M. c #E5A776",
"N. c #EAB67C",
"B. c #F8AD64",
"V. c #F9AF71",
"C. c #FAB462",
"Z. c #F4B177",
"A. c #F3C337",
"S. c #DBC255",
"D. c #D0C177",
"F. c #DCC464",
"G. c #E5CB5B",
"H. c #EDD35D",
"J. c #E8D359",
"K. c #F4CD44",
"L. c #F3D54F",
"P. c #F6D15D",
"I. c #F8C857",
"U. c #E8CC69",
"Y. c #EFCF70",
"T. c #ECD263",
"R. c #EED26C",
"E. c #EDD775",
"W. c #F5C878",
"Q. c #F6D768",
"!. c #F3DC71",
"~. c #9D9982",
"^. c #A08880",
"/. c #A29A88",
"(. c #AF9B90",
"). c #B49A82",
"_. c #A6A28D",
"`. c #ACA78C",
"'. c #A9A593",
"]. c #AEAB98",
"[. c #AAA694",
"{. c #B6AC83",
"}. c #BBA686",
"|. c #B6AB89",
" X c #B3AD92",
".X c #B1AD99",
"XX c #BBAD92",
"oX c #B8A79A",
"OX c #B9B28C",
"+X c #B6B195",
"@X c #BAB499",
"#X c #B8B398",
"$X c #B1AFA1",
"%X c #B4B1A3",
"&X c #B9B6AA",
"*X c #BDB9A4",
"=X c #BBB9AC",
"-X c #B9B5A4",
";X c #C4AD80",
":X c #C6A39D",
">X c #C2B584",
",X c #C3B898",
"<X c #C1BDA4",
"1X c #C5B7A6",
"2X c #E3B69A",
"3X c #F2B985",
"4X c #D5C89A",
"5X c #CAC4AC",
"6X c #C6C2A9",
"7X c #CBC5B1",
"8X c #CDCAB5",
"9X c #C5C3B7",
"0X c #D9CAA8",
"qX c #D2CCB4",
"wX c #D5C8B9",
"eX c #D5D1B6",
"rX c #DAD5BB",
"tX c #DDD9BD",
"yX c #D5D1B9",
"uX c #E2CB97",
"iX c #EEDA83",
"pX c #F9CE99",
"aX c #F7DB81",
"sX c #EFD0A9",
"dX c #F3CFA6",
"fX c #F5D9AD",
"gX c #E9CFB0",
"hX c #F6E289",
"jX c #F8EE99",
"kX c #ECE2B9",
"lX c #F4E3B1",
"zX c #F6EAA7",
"xX c #CBC9C0",
"cX c #D6CDC0",
"vX c #D5D4CA",
"bX c #D9D4C2",
"nX c #D8D5CA",
"mX c #DDD9C5",
"MX c #D9D6C5",
"NX c #E1DBC2",
"BX c #E2DDCB",
"VX c #E7DACA",
"CX c #E1DDD2",
"ZX c #E4E1CC",
"AX c #EBE4C8",
"SX c #E6E3D1",
"DX c #E8E5D3",
"FX c #EBE8D6",
"GX c #ECE9D9",
"HX c #EBE7D9",
"JX c #F6E7C7",
"KX c #F1EAD9",
"LX c #EFEDE0",
"PX c #F0EEE1",
"IX c #F2F0E5",
"UX c #F4F2E8",
/* pixels */
"GXGXGXFXGX8X+.K f U U U U U U U U U U U U U U f W <XGXGXFXGXFXGXGX",
"GXFXGX7X .R *XrXNXmXtXtXtXtXtXtXtXtXtXtXrXrXrXyX@X| 8 @XGXFXFXGXFX",
"FXGX+XK 6XmXtXtXVXAXDXDXDXDXDXDXDXDXDXDXDXAXVXrX0X,X;Xk `.GXGXFXGX",
"GX+XU eXtXmXFXIXUXUXPXUXIXUXIXUXIXUXUXUXUXUXPXdX3Xp.p.>XY `.FXGXFX",
"5XI eXtXZXIXUXUXPXPXPXUXIXIXIXIXIXIXIXIXIXJX3XV.Z.Z.j.;XXXI  XGXGX",
"W ,XtXZXIXIXPXPXKXLXPXPXKXIXKXIXIXKXIXIXpXv.B.B.B.M.d.p.,X].K BXFX",
"E rXtXIXIXPXPXPX2Xj.GXIXIXGXIXPXIXKXfXC.v.n.C.C.B.m.m.s.p.XXQ  XGX",
"@XrXFXUXPXPXLXPXDXm h.dXGXIXKXKXzXW.v.b.v.v.n.B.B.B.m.s.p.}.[.I FX",
"eXtXPXIXPXPXPXPXKX7.m =.Z.zXlXaXI.b.:.:.c.c.x.:.k.k.5.6.s.@.$XI yX",
"eXNXIXIXIXUXLXKXLXVXS Z -.z.!.!.!.K.,.;.;.;.:.c.k.k.5.5.2.p.%XT <X",
"yXZXIXLXPX1XHXPXPXKX2X3.5.z.H.S.I.Q.Q.L.K.A.>.;.&.&.%.5.i.;X&XQ +X",
"eXZXIXLXwX* bXGXPXKXKXuXs.t.e.-.&.A *.c.n.P.H.H.J.t.t.0.2.@.&X~. X",
"eXDXPXPX: . = GXGXPXGXPXDX4X6.3.C C n n M C $.5.r.r.g.D.g.>X=X~. X",
"eXDXPX/.O . X (.GXGXGXGXKXKXAXgXj.S r r r < 9 9 9 2 q l c o.=X~. X",
"eXDXyX$ o .   o ^.GXGXGXGXGXGXAXj.S 0 0 0 t , > > > > , 3 b =X~.OX",
"qX7X; $ % X O & + k GXGXGXFXdXm.4.4.4.8.6.6.6.1.1.1.x x x o.#X~.`.",
"eXnX1XHXd o @ FXbXoXGXFXlXaXU.Y.Y.Y.T.H.H.H.H.T.S.S.u.w.O.OXOX . X",
"qXCXLXFXd X @ FXDXFXGXJXjXzXaXE.iXiXE.R.H.H.J.J.G.S.u.w.O.p.{.R  X",
"qXBXGXHXd X + FXDXGXHXAXDXgX8.D S S B a S m t a p p e 6 u } -XW  X",
"5XMXSXFXh X @ FXFXDXHXHXkXm.3.3.4.4.3.3.D D D N a p u l g  ..XW OX",
"6XbXZXSXh + # ZXSXDXZXAXW.Q.T.H.T.T.R.U.T.U.F.F.u.w.0.O.O.{. XE `.",
"@XyXmXmXh + # BXBXBXBXBXtXN.l.l.l.m.l.l.l.r.r.5.2.2.) _ { |.%XQ +X",
"@X9XvXyX:X* - MXmXbXmXgXd.Z V V V V V B N N N a p y y 6 v ).%XQ #X",
"+X=X8X8X8X5X8XyXyXeXeXf.u.y.y.y.y.y.u.u.u.q.q.0.' J ^ ^ @.OX*XP <X",
"[..X6X6X6X6X9X7X7X5X4X4X4Xi.i.i.i.i.i.i.q.q.] ] ] ^ ~ ~ @X-X1Xf GX",
"W [.%X-X&X-X*X*X*X*X6X,X` y a a a a p a u p y 6 6 6 6 { 1X1X=XT GX",
"K '.[.$X].].].].+X.X{.) ) J J ( J ' J ( ' ] ~ ! ! ! / 1X8XcXP a.iX",
"`.Q '.$X.X[._._._._.+.+.X._ i i G G ! ! ! F i 8 F | 6XbXvX@XL kXkX",
"mXW _.$X=X%X'.~././.~.~.z w 9 w 4 w 4 4 4 2 5 l }.1XVXnX1X1 6XKXFX",
"FX6XE _.=X8XxX9X=X%X Xo.[ [ / [ / [ X.X.o.;X1XyXVXCXnX6X7 J FXGXGX",
"FXGX8XW T &XxXvXvXnXnXnXrXrXrXbXbXrXrXbXnXnXCXCXCXnX+.F 0.hXGXFXGX",
"GXFXFXFX.XI Q [.=XxXvXvXnXnXvXnXvXnXvXnXnXvX1X1X .f `.bXFXGXFXGXFX",
"FXGXFXGXGXHX*X+.T I ; K f f f f f f f f f f R W +XZXFXFXFXFXGXFXGX"
};
