/* XPM */
const char *brushes_xpm[] = {
/* columns rows colors chars-per-pixel */
"33 33 256 2",
"   c #380A06",
".  c #36120D",
"X  c #3A1916",
"o  c #3C201C",
"O  c #440B02",
"+  c #4C0C01",
"@  c #490803",
"#  c #451005",
"$  c #491206",
"%  c #471A14",
"&  c #541302",
"*  c #591507",
"=  c #5B2A1F",
"-  c #4B2521",
";  c #462D28",
":  c #53332C",
">  c #5A342D",
",  c #573C38",
"<  c #631A00",
"1  c #651C07",
"2  c #701D00",
"3  c #711E08",
"4  c #69260A",
"5  c #682B16",
"6  c #732202",
"7  c #7C2907",
"8  c #7E300B",
"9  c #75381A",
"0  c #612C20",
"q  c #6F3728",
"w  c #693E36",
"e  c #773721",
"r  c #60433B",
"t  c #764536",
"y  c #624A43",
"u  c #785346",
"i  c #7D5D52",
"p  c #7E6757",
"a  c #7C665D",
"s  c #812C08",
"d  c #8D2C03",
"f  c #88340B",
"g  c #873D10",
"h  c #863617",
"j  c #902D05",
"k  c #943502",
"l  c #97380F",
"z  c #973A09",
"x  c #93381A",
"c  c #823D23",
"v  c #903F21",
"b  c #994808",
"n  c #974008",
"m  c #9B451A",
"M  c #9C521B",
"N  c #824123",
"B  c #874826",
"V  c #83523A",
"C  c #974F2C",
"Z  c #9C5428",
"A  c #985933",
"S  c #AA4D03",
"D  c #A84906",
"F  c #A24A13",
"G  c #AF4B11",
"H  c #AE5113",
"J  c #B14E10",
"K  c #B95203",
"L  c #BB5C02",
"P  c #B35914",
"I  c #B85D1B",
"U  c #A2542C",
"Y  c #AC552C",
"T  c #A55E37",
"R  c #B24B2A",
"E  c #B55729",
"W  c #BD6313",
"Q  c #BF6119",
"!  c #A76030",
"~  c #AF6237",
"^  c #BC6725",
"/  c #B4673E",
"(  c #865446",
")  c #945849",
"_  c #8E6154",
"`  c #817A54",
"'  c #9B6445",
"]  c #9D6B59",
"[  c #847464",
"{  c #967266",
"}  c #AC6A53",
"|  c #B56A42",
" . c #B46F48",
".. c #B27C4B",
"X. c #B6785A",
"o. c #C46406",
"O. c #C56917",
"+. c #CD700B",
"@. c #CE7118",
"#. c #D06508",
"$. c #D26C15",
"%. c #D47508",
"&. c #D37714",
"*. c #C76239",
"=. c #C37523",
"-. c #D67D26",
";. c #EF770C",
":. c #E27025",
">. c #CB6D43",
",. c #CA7A4B",
"<. c #CD7F54",
"1. c #89825D",
"2. c #87815C",
"3. c #8B8461",
"4. c #8E8868",
"5. c #948D6A",
"6. c #968777",
"7. c #96906E",
"8. c #99926F",
"9. c #959074",
"0. c #9B9574",
"q. c #99957C",
"w. c #9E9877",
"e. c #9F9979",
"r. c #959178",
"t. c #BF814A",
"y. c #A78A77",
"u. c #A29D7D",
"i. c #B79678",
"p. c #DA801E",
"a. c #E8860A",
"s. c #E38A11",
"d. c #EE9C1E",
"f. c #F2841D",
"g. c #EF9D28",
"h. c #F6952F",
"j. c #F0963C",
"k. c #CE865A",
"l. c #D28241",
"z. c #C78263",
"x. c #C99A71",
"c. c #CCA277",
"v. c #EF9958",
"b. c #E09457",
"n. c #F09946",
"m. c #E29F79",
"M. c #F8A540",
"N. c #E0A461",
"B. c #9A9581",
"V. c #9D9982",
"C. c #A09C86",
"Z. c #A19D89",
"A. c #A29684",
"S. c #B08F84",
"D. c #A79B95",
"F. c #A4A08B",
"G. c #A9A48E",
"H. c #AEA98C",
"J. c #A9A693",
"K. c #ACA995",
"L. c #AEAA99",
"P. c #ABA398",
"I. c #B0AA8D",
"U. c #B4A38F",
"Y. c #B2AC92",
"T. c #B1AD9B",
"R. c #B7A696",
"E. c #B6B195",
"W. c #B4B099",
"Q. c #BAB599",
"!. c #BDB89E",
"~. c #B2AEA2",
"^. c #B5B2A3",
"/. c #B9B5A2",
"(. c #B9B6AA",
"). c #BDB9A4",
"_. c #BBB9AB",
"`. c #B7B5A8",
"'. c #BFBDB1",
"]. c #C2A99D",
"[. c #C2BD9E",
"{. c #CCB39D",
"}. c #D0AC8A",
"|. c #D2AB92",
" X c #D6B78E",
".X c #D3BB9C",
"XX c #D5B399",
"oX c #C5AFA0",
"OX c #C1BCA4",
"+X c #C2BDAB",
"@X c #CCBBA9",
"#X c #C2BEB2",
"$X c #E2A582",
"%X c #E6AA86",
"&X c #E5B39A",
"*X c #E2BAA0",
"=X c #C5C0A5",
"-X c #C4C1AD",
";X c #C9C5AD",
":X c #CFCBAF",
">X c #C3C0B2",
",X c #CAC5B2",
"<X c #C8C6BC",
"1X c #CCC9B5",
"2X c #CECBBB",
"3X c #C5C3B9",
"4X c #D7C1A7",
"5X c #DCC3A9",
"6X c #DBC3A2",
"7X c #D2CDB3",
"8X c #D2CDBB",
"9X c #DBC8B2",
"0X c #D6C8B6",
"qX c #D5D1B6",
"wX c #D5D1BD",
"eX c #DAD5BB",
"rX c #DDD9BD",
"tX c #E5CBAD",
"yX c #E1CCB5",
"uX c #E3D2BB",
"iX c #EAD8BE",
"pX c #F2D4AC",
"aX c #CCCAC1",
"sX c #D0CEC6",
"dX c #D5D2C1",
"fX c #D5D3CC",
"gX c #D9D5C4",
"hX c #D9D7C9",
"jX c #DDD9C5",
"kX c #DDDACA",
"lX c #D7D6D0",
"zX c #D8D7D0",
"xX c #DAD9D2",
"cX c #DFDFD9",
"vX c #E0DBC3",
"bX c #E1DDCB",
"nX c #EADCC5",
"mX c #EADEC9",
"MX c #E3D5C4",
"NX c #E2DED1",
"BX c #E0DFD9",
"VX c #F0DDC1",
"CX c #E4E1CC",
"ZX c #EDE0CB",
"AX c #E6E3D2",
"SX c #E8E5D3",
"DX c #EBE6D8",
"FX c #EBE8D6",
"GX c #EDEADA",
"HX c #E2E1DC",
"JX c #F1E2C7",
"KX c #F1ECDE",
"LX c #EEECE0",
"PX c #F0EEE1",
"IX c #F2F0E5",
"UX c #F4F2E8",
/* pixels */
"FXFXFXFXFX1Xu.2.p 8.5.5.5.5.5.5.5.5.5.5.5.5.5.p w.=XFXFXGXGXFXGXGX",
"FXFXFX;Xu.0.[.eXrXiXrXrXrXrXrXrXrXrXrXrXrXrXeXqX[.w.4.!.FXFXFXFXFX",
"FXFXQ.3.=XiXrXrXCXCXZXSXFXFXCXFXCXFXFXCXSXCXvXqX:X;XQ.5.I.FXGXFXGX",
"GXQ.5.qXrXvXFXUXUXUXUXUXUXUXUXUXUXUXUXUXUXUXIXLXCX7X=X!.9.H.GXFXFX",
":X1.qXrXCXIXUXIXUXUXPXKX$Xm.%X%Xm.m.&XIXIXIXIXLXFXcX2XOX!.4.E.FXFX",
"w.[.eXCXIXIXIXIXPXPXPXFXX.k.k.,.k.l.z.PXPXLXLXLXFXAXhX,X).L.2.kXGX",
"8.eXrXIXIXIXPXLXLXLXLXDX(  .| / / !  .LXKXPXGXGXHXAXzX2X+X^.q.E.FX",
"Q.eXFXIXIXLXLXLXLXLXLXLXi T ! U A N ) GXPXLXLXGXAXNXhX2X-X`.L.2.FX",
"qXeXIXIXIXGXGXDXGXLXLXKX6.5 N B C < { KXGXKXLXDXAXcXhX2X>X`.^.3.qX",
"qXjXIXIXIXGXFXS.bXGXGXKXwXO 5 9 4 $ AXLXLXLXGXGXAXkXhX2X>X'.^.9.=X",
"qXCXIXKXKXKXGXt _ bXIXGXGX> * * & u KXGXKXGXGXGXAXNXdX2X>X'.`.r.!.",
"qXCXIXKXKXGX].1 4 0XLXGXGX}.' M M iXGXKXLXGXKXGXAXNXdX2X>X>X(.q.I.",
"qXSXPXPXGX@Xe s 2 ] SXKXiXv.h.M.f.iXKXGX*XR *.>.Y kXgX<X>X>X`.V.E.",
"qXSXPXPXGX( s m k C SXGXVX:.g.g.a.JXGXGXXXv E Y B kXgX2X'.>X(.V.I.",
"qXAXPXGXGX3 H ^ P m DXGXnX-.-.$.#.nXGXGX{.c U U c jXwX<X'.>X(.V.Y.",
"qXAXGXPXGX1 d l d x DXGXmXO.J J D tXGXGX/.5 8 6 0 jXwX1X'.>X`.V.Y.",
"qXAXGXLXGX( @ @ @ ) FXFXuXo.I I K yXFXGX@X% & + w jXwX,X_._._.V.Y.",
"1XAXGXGXGX|.G z U iXFXFXtX%.$.@.+.yXDXDXgXq + O y.gX2X>X`._.^.V.Y.",
":XCXGXDXDXpXn.;.n.VXFXFX5XL O.Q L yXFXFXSXN.&.-. XwX1X+X^._.^.V.I.",
";XjXAXDXSXtXp.%.b.mXFXFX9XS P P D 9XSXSXvXn.a.s.6X2X-X).W.(.^.q.Y.",
"=XdXAXCXCXXXQ S E eXAXAXMXz F z j 9XCXCXuXl.o.K c.,X).^.L.^.^.V.Y.",
"!.8XkXkXkXx.^ F E 4XmXmX0Xh j f d 5XCXbX6X~ k k X.=X/.L.K.`.^.V.I.",
"Q.,XdXwXdXc.=.W ^ .XgXjXdX3 s 7 6 0XjXgX.Xt.P b t.^.T.J.L.(.^.q.Q.",
"W.).<X1X2Xx.b k M {.wXwX@X* * 1 1 1XqX2X@X! b n A L.J.Z.~._.(.9.@X",
"J.W.>X-X-Xi.s 6 h U.1X,X+X# @ + * -X,X-XOXc 6 1 t K.Z.V.'.'.3Xp FX",
"q.K./.`./.8.1 & e U.OXOX/.%   O   !././.E.t $ O u F.V.~.aX<X`.7.GX",
"` J.K.^.L.6.% # = A.T.T.Y.-     . Y.L.L.H.t     p V.J.aXsXsX9.OXFX",
"I.r.J.T.T.B.- % > A.G.F.F.>     % G.F.F.V.u . X ` L.aXxXzX_.7.FXGX",
"bX0.Z.~.(.~.y ; , V.Z.Z.V., X X : V.V.V.q.a o , `.fXcXcX<X1.=XGXFX",
"DX;Xw.Z._.#X~.D.L.^.~.L.L.6.a a { ~.~.`.^.(.L.'.xXcXcX3X3.Q.GXFXFX",
"DXFX:Xu.r.(.aXsXfXfXlXlXxXxXxXxXxXlXlXlXxXcXcXcXHXzXG.5.!.FXFXGXGX",
"FXFXGXDXE.3.r.P.(.aXfXlXlXlXlXlXlXlXlXlXfXfX3X).C.2.H.jXFXGXFXFXFX",
"FXFXGXFXGXFXOXu.8.2.` ` ` ` ` ` ` ` ` ` ` ` 5.u.Y.bXGXFXFXGXFXGXFX"
};
