/* XPM */
const char *camera_preview_xpm[] = {
/* columns rows colors chars-per-pixel */
"33 33 256 2",
"   c #3A0802",
".  c #3E1205",
"X  c #4B0703",
"o  c #4B0A02",
"O  c #450902",
"+  c #441205",
"@  c #4A1505",
"#  c #4C1807",
"$  c #481A0B",
"%  c #401F14",
"&  c #560C03",
"*  c #551B0A",
"=  c #5A1C0A",
"-  c #571604",
";  c #4D2213",
":  c #5C200C",
">  c #55210E",
",  c #532311",
"<  c #5C2A15",
"1  c #572920",
"2  c #600D02",
"3  c #631E09",
"4  c #6B1E06",
"5  c #751900",
"6  c #63220C",
"7  c #6A230B",
"8  c #6C280F",
"9  c #682007",
"0  c #6B2B10",
"q  c #622D13",
"w  c #683419",
"e  c #72240A",
"r  c #75290C",
"t  c #7B2609",
"y  c #7B2A0C",
"u  c #7A2207",
"i  c #732D11",
"p  c #792B12",
"a  c #7D3311",
"s  c #75351B",
"d  c #653627",
"f  c #623F31",
"g  c #763D25",
"h  c #6F4121",
"j  c #6A4536",
"k  c #6E503D",
"l  c #774127",
"z  c #76493A",
"x  c #7D503D",
"c  c #74584C",
"v  c #891700",
"b  c #832B0B",
"n  c #872909",
"m  c #812F18",
"M  c #843412",
"N  c #893615",
"B  c #9A2808",
"V  c #962705",
"C  c #923C14",
"Z  c #9C3D15",
"A  c #A62F0B",
"S  c #A63908",
"D  c #A93D12",
"F  c #8F411A",
"G  c #994319",
"H  c #844626",
"J  c #8D532B",
"K  c #8B543F",
"L  c #994C21",
"P  c #93532B",
"I  c #905931",
"U  c #915836",
"Y  c #9B6933",
"T  c #8F6E38",
"R  c #A14500",
"E  c #A1490D",
"W  c #A2491C",
"Q  c #A64717",
"!  c #AD561D",
"~  c #B2450B",
"^  c #B24817",
"/  c #BA521C",
"(  c #BB5A18",
")  c #A85625",
"_  c #B15B29",
"`  c #BC5B23",
"'  c #B75422",
"]  c #AC622A",
"[  c #AF6733",
"{  c #B8652B",
"}  c #B66B35",
"|  c #BF752B",
" . c #BD713C",
".. c #835645",
"X. c #866240",
"o. c #886A59",
"O. c #817A54",
"+. c #96624A",
"@. c #927056",
"#. c #8A7564",
"$. c #AE7544",
"%. c #BC6947",
"&. c #B26F53",
"*. c #C25B1F",
"=. c #C15D23",
"-. c #C7692B",
";. c #C56C32",
":. c #CA6E34",
">. c #CD7728",
",. c #CB7235",
"<. c #CB7438",
"1. c #C77938",
"2. c #C77944",
"3. c #D87E41",
"4. c #CB7A53",
"5. c #88825D",
"6. c #8B8461",
"7. c #8E8868",
"8. c #948D6A",
"9. c #9E826D",
"0. c #9C8D77",
"q. c #958C73",
"w. c #96906E",
"e. c #99926F",
"r. c #959074",
"t. c #9B9574",
"y. c #99947B",
"u. c #9E9877",
"i. c #9F9979",
"p. c #959178",
"a. c #A48543",
"s. c #AB9255",
"d. c #BD8853",
"f. c #A5977B",
"g. c #B3926C",
"h. c #B0926A",
"j. c #BBA355",
"k. c #BEA17C",
"l. c #CB833D",
"z. c #D48432",
"x. c #D6913F",
"c. c #CB8344",
"v. c #CB864A",
"b. c #D38449",
"n. c #D3894A",
"m. c #D98B43",
"M. c #D88747",
"N. c #D78F54",
"B. c #D99548",
"V. c #DA9454",
"C. c #DC9C5C",
"Z. c #D89757",
"A. c #D69779",
"S. c #D59169",
"D. c #DDA25C",
"F. c #CEAB79",
"G. c #DCA364",
"H. c #DEA277",
"J. c #DEA37B",
"K. c #D3A47E",
"L. c #EA8E4F",
"P. c #E38E52",
"I. c #E19D59",
"U. c #E59658",
"Y. c #EA9C64",
"T. c #E2AA65",
"R. c #E2AA7B",
"E. c #EDB96B",
"W. c #9A9681",
"Q. c #9D9982",
"!. c #A19681",
"~. c #A19B85",
"^. c #A19D89",
"/. c #AB9D85",
"(. c #A4A18B",
"). c #ABA68C",
"_. c #AAA592",
"`. c #ACA894",
"'. c #AEAA9A",
"]. c #A7A492",
"[. c #B4A78C",
"{. c #B3AD91",
"}. c #B1AD9D",
"|. c #B6B195",
" X c #B4B19A",
".X c #BAB59A",
"XX c #BDB89E",
"oX c #B1AFA1",
"OX c #B4B1A3",
"+X c #B8B4A4",
"@X c #B9B6A9",
"#X c #BDB9A4",
"$X c #BBB9AC",
"%X c #B7B5A8",
"&X c #BFBDB1",
"*X c #C89D82",
"=X c #C8AB8D",
"-X c #C2B89C",
";X c #D7AB86",
":X c #D5B895",
">X c #C1BDA4",
",X c #C1BCAA",
"<X c #C1BEB1",
"1X c #E0AB86",
"2X c #E7BB8B",
"3X c #E6B684",
"4X c #F1BC97",
"5X c #C5C0A5",
"6X c #CAC6AD",
"7X c #C8C5AF",
"8X c #C3C0B2",
"9X c #C8C6BC",
"0X c #CDC8B5",
"qX c #CDCBBD",
"wX c #C6C4B6",
"eX c #D2CDB3",
"rX c #D2CEBB",
"tX c #DAC2B0",
"yX c #D5D1B6",
"uX c #DAD5BB",
"iX c #DDD9BD",
"pX c #E6C191",
"aX c #E6CCB6",
"sX c #EDD0A7",
"dX c #E8D2B2",
"fX c #EBC5A5",
"gX c #ECE889",
"hX c #CCCAC1",
"jX c #D0CEC6",
"kX c #D5D3CC",
"lX c #D9D6C5",
"zX c #D9D7CA",
"xX c #DEDAC4",
"cX c #D9D6C5",
"vX c #D7D6D0",
"bX c #D8D7D0",
"nX c #DAD9D2",
"mX c #DFDFD9",
"MX c #E0DBC3",
"NX c #E1DECD",
"BX c #EBDECF",
"VX c #E1DFD1",
"CX c #E0DFD9",
"ZX c #F1DBC6",
"AX c #E5E1CD",
"SX c #E5E3D2",
"DX c #E8E5D2",
"FX c #ECE9D9",
"GX c #E6E4D9",
"HX c #F0E1CC",
"JX c #F0EADA",
"KX c #FAFAC1",
"LX c #EDECE0",
"PX c #F0EEE1",
"IX c #F2F0E5",
"UX c #F4F2E8",
/* pixels */
"FXFXFXFXFX0Xi.5.O.w.w.w.w.w.w.w.8.8.8.8.8.8.8.c i.6XFXFXFXFXFXFXFX",
"FXFXFX6Xf.e.>XiXMXaXiXiXiXuXiXiXiXiXiXiXiXiXyXyX>Xi.7.XXFXFXFXFXFX",
"FXFX|.5.5XiXiXiXMXAXDXDXSXDXDXDXDXDXSXSXSXAXxXyXeX6X.X8.).FXFXFXDX",
"FX|.8.yXiXiXFXIXUXUXUXUXIXIXUXUXIXUXUXUXUXUXUXLXAXeX5XXXe.).FXDXFX",
"6X5.yX:XF.1XR.A.A.R.R.R.R.1X2X2XpXHXUXUXPXUXIXLXLXVXqX>XXX7.|.FXFX",
"i.>XuX;XZ.N.b.3.b.b.n.N.Z.C.T.G.C.pXJXPXPXJXIXLXGXVXcX7X#X'.5.MXFX",
"e.uXaXA.<.:.:.:.:.:.<.M.V.D.I.V.M.Y.ZXJXPXPXFXFXGXVXzXqX&XOXy.|.FX",
".XuXDXS.=.=.=.' ' ` b.C.T.I.M.M.U.L.4XJXJXPXPXFXGXVXcXqX7X%X`.5.FX",
"yXuXPX4./ ^ ^ / <.C.G.D.n.1.1.M.L.U.U.aXPXFXLXFXDXVXlXjX8X@X}.6.yX",
"yXAXIX%.^ / ` n.T.G.l.| ( ` -.m.I.V.:.A.BXPXFXFXSXNXlXqX8X$XOXq.5X",
"yXAXIX+.F _ ,.D.T.| R R Q ;.B.D.v.` ~ S.DXPXLXFXyXtXrXhX8X&X%Xp.|.",
"yXDXIX..w a G  .Z.l.E ! m.T.Z.} W D S A.JXFXdX1X2.%.*X0X8X8X@XQ.{.",
"yXDXPX..i i y N  .I.B.D.G.$.F n V S ~ A.sX2XN.{ S V _ =X8X8X@XQ.{.",
"yXDXJX..8 s a b G v.E.d.l 7 r G ) _ ,.n.b.m.{ M b n Q &.>X&X@XQ.{.",
"yXDXFXK 0 i a M n ) V.I - e F 1.2.>.1.` ( >.[ T 8 & b [ -X&X@XQ.{.",
"yXSXPXc 6 8 p M n ! c.I 9 r G / ^ ^ ^ B *.] a.gXY X & L F.8X@XQ.{.",
"eXSXFXx 6 8 p b n W c.I = p E A V A B v -.P s.KXj.O & F g.<X%XW.{.",
"eXSXFXx : 8 r y n W 1.J - 3 ) -.D ^ B B z.x T gXa.o & m g.<X%XW.{.",
"0XNXFXz : 8 r y b Q ,.H - - 8 ! -.:.A D B.h d a.h & o p g.$XOXW.{.",
"6XxXGXz = 7 e y b G } l * @ O - { B.` *.B.h x s.s & X s [.$XoXW.{.",
"5XcXAXj : 6 7 r t Z _ s # + + & N B.m.>.x.h T 9.H & X H _.%XoXW.{.",
"-XrXzXj * : 6 e u C ! w + + + - u G | >.z.I < g 0 O X U _.%XoX!.{.",
".X7XcXj > > 9 9 u N L w + + @ = t n V _ 1.] , @ .   3 f.'.$X%Xy..X",
" X#XwXj ; : = 9 9 M G q + + # 9 t n v &.F.[ a < X & +.~.oX$X$Xq.5X",
").}.8Xc ; # * = 9 y F < + + - 9 5 5 N [.>Xk.L t e ..!.~.<X<X<XO.FX",
"y.`..X}.#.f # - - e M > . @ - - 7 +.g.XX.X X/.f.0.!.Q.oX9X9X@Xq.DX",
"5.].`.OX'.!.o.q * 9 p $   . # x #.}.`.`._.).(.^.!.Q.].hXjXjXq.>XFX",
").r.].oXoX_.(.0.o.g s $ % j #.~._.[.(.(.^.Q.^.W.W.`.hXnXbX$X8.FXFX",
"xXt.^.oX$XoX_.^.^.0.@.k #.0.~.~.~.~.Q.Q.Q.W.W.^.$XkXCXmX9X6.>XFXFX",
"FX7Xt.(.@X9X9XwX$XoXoX'.'.'.'.'.'.'.oXoXoX$X9XbXCXCXCX<X6..XFXFXFX",
"FXFX0Xi.q.@XhXjXkXvXvXvXvXvXnXvXvXnXvXvXnXmXCXCXGXbX).8.XXFXFXDXDX",
"FXFXFXFX X6.p.'.@XhXkXvXvXvXvXvXvXvXvXvXnXbX<X@X^.O.).xXFXFXFXFXFX",
"FXFXFXFXFXFXXXf.w.5.O.O.O.O.c 5.5.O.O.O.O.O.w.u.|.AXFXFXDXFXFXFXFX"
};
