/* XPM */
const char *contour_xpm[] = {
/* columns rows colors chars-per-pixel */
"33 33 256 2",
"   c #301C0A",
".  c #35261A",
"X  c #2E2E2A",
"o  c #312F2A",
"O  c #3A3A36",
"+  c #3A352B",
"@  c #197575",
"#  c #432F1E",
"$  c #4E3116",
"%  c #592808",
"&  c #582E13",
"*  c #502F10",
"=  c #553C23",
"-  c #68300C",
";  c #67340E",
":  c #673515",
">  c #722C01",
",  c #763C0D",
"<  c #753E18",
"1  c #692506",
"2  c #4B463E",
"3  c #43423C",
"4  c #694017",
"5  c #61472D",
"6  c #654B31",
"7  c #6F5739",
"8  c #725629",
"9  c #794B26",
"0  c #494842",
"q  c #525147",
"w  c #5F5D56",
"e  c #5F7E4A",
"r  c #776144",
"t  c #746F66",
"y  c #75736A",
"u  c #20816B",
"i  c #2E8C76",
"p  c #35897C",
"a  c #329677",
"s  c #598246",
"d  c #778B5F",
"f  c #4A8C8F",
"g  c #469E87",
"h  c #4F9296",
"j  c #599F87",
"k  c #5D988D",
"l  c #579697",
"z  c #4DA687",
"x  c #52A884",
"c  c #66AC8A",
"v  c #68B189",
"b  c #68B391",
"n  c #7AB08C",
"m  c #803109",
"M  c #863B06",
"N  c #883000",
"B  c #8C3B06",
"V  c #942E00",
"C  c #9B3E00",
"Z  c #A03C03",
"A  c #B33800",
"S  c #874209",
"D  c #8D4B17",
"F  c #97510F",
"G  c #945A1F",
"H  c #844C26",
"J  c #875D34",
"K  c #90552A",
"L  c #905530",
"P  c #935832",
"I  c #8A592B",
"U  c #9E6036",
"Y  c #AB4201",
"T  c #AB5808",
"R  c #B24D01",
"E  c #BA5A00",
"W  c #B05303",
"Q  c #B55F37",
"!  c #BF7209",
"~  c #A76836",
"^  c #B56B24",
"/  c #BF7620",
"(  c #817A54",
")  c #857E59",
"_  c #96754E",
"`  c #927A59",
"'  c #807F76",
"]  c #957F6E",
"[  c #A76F42",
"{  c #B57D49",
"}  c #B67E60",
"|  c #C15809",
" . c #C35A00",
".. c #C96D05",
"X. c #C16402",
"o. c #CE6E19",
"O. c #CA720B",
"+. c #D07C18",
"@. c #D27C3F",
"#. c #C07B4C",
"$. c #89825D",
"%. c #87815C",
"&. c #8B8461",
"*. c #8B897E",
"=. c #908967",
"-. c #938D6A",
";. c #9D836E",
":. c #968C76",
">. c #96906E",
",. c #98906D",
"<. c #959176",
"1. c #9B9473",
"2. c #98947E",
"3. c #9E9877",
"4. c #9F9979",
"5. c #97947E",
"6. c #95A17E",
"7. c #AE885B",
"8. c #B78657",
"9. c #A78760",
"0. c #A78D67",
"q. c #A29C7D",
"w. c #A79673",
"e. c #D88717",
"r. c #DE971B",
"t. c #DD8E24",
"y. c #DA892C",
"u. c #D78836",
"i. c #D8962A",
"p. c #DF9237",
"a. c #DC9637",
"s. c #E08E10",
"d. c #E3961A",
"f. c #E09A28",
"g. c #E19623",
"h. c #E09534",
"j. c #E6A53A",
"k. c #C88245",
"l. c #C6855D",
"z. c #DB8C4A",
"x. c #D18758",
"c. c #C58A6B",
"v. c #D6A054",
"b. c #E0974C",
"n. c #E3A34E",
"m. c #E8B458",
"M. c #E4A865",
"N. c #E7B37B",
"B. c #E8B367",
"V. c #949283",
"C. c #9A9682",
"Z. c #9C9983",
"A. c #9A988A",
"S. c #87AD88",
"D. c #8CA581",
"F. c #83BB97",
"G. c #94AB84",
"H. c #94B68E",
"J. c #8BB688",
"K. c #8FBBA8",
"L. c #95BCB8",
"P. c #A19C85",
"I. c #A19E89",
"U. c #A19283",
"Y. c #A19D90",
"T. c #A5A18D",
"R. c #A9A48D",
"E. c #AEA98C",
"W. c #A4A391",
"Q. c #A7A598",
"!. c #A9A694",
"~. c #A9A798",
"^. c #ADA995",
"/. c #ADAA9A",
"(. c #B1AA8C",
"). c #BAAB88",
"_. c #B1AD95",
"`. c #B1AD9C",
"'. c #B6B195",
"]. c #B4B09B",
"[. c #B8B39B",
"{. c #BDB89E",
"}. c #A7B5A0",
"|. c #B1AEA0",
" X c #B4B1A2",
".X c #B7B4A9",
"XX c #B9B5A2",
"oX c #B9B7A9",
"OX c #BDBAA4",
"+X c #BDBAAC",
"@X c #BDBBB1",
"#X c #93C7AB",
"$X c #ACC2B8",
"%X c #BACABD",
"&X c #9FC2C5",
"*X c #AFCCCE",
"=X c #B4D5CB",
"-X c #C5A985",
";X c #CCB48F",
":X c #C1BC9E",
">X c #C4B29D",
",X c #D4BB97",
"<X c #C1BDA3",
"1X c #C1BDAB",
"2X c #C1BEB2",
"3X c #C5C0A3",
"4X c #C4C1AC",
"5X c #C9C5AD",
"6X c #C3C1B4",
"7X c #C5C3B9",
"8X c #C9C5B2",
"9X c #C9C7BD",
"0X c #CCC9B4",
"qX c #CCC9BC",
"wX c #C7D0BA",
"eX c #D0CCAF",
"rX c #D1CCB4",
"tX c #D1CDBA",
"yX c #D6D2B6",
"uX c #D5D1BE",
"iX c #DBD3B6",
"pX c #DAD5BA",
"aX c #DDD8BD",
"sX c #EAC69D",
"dX c #F0CB88",
"fX c #EBD5B4",
"gX c #F6DDB1",
"hX c #CBCAC1",
"jX c #CDDEDD",
"kX c #D0CEC6",
"lX c #D1CFC8",
"zX c #D6D3C1",
"xX c #D4D3CB",
"cX c #D9D5C2",
"vX c #DEDAC4",
"bX c #DEDBCA",
"nX c #DBDAD4",
"mX c #DBDAD4",
"MX c #C7E0D6",
"NX c #CEE1E3",
"BX c #D7E8E3",
"VX c #E1DCC3",
"CX c #E1DECB",
"ZX c #E0DFDA",
"AX c #E4E1CD",
"SX c #E5E2D1",
"DX c #E8E5D3",
"FX c #EBE8D6",
"GX c #EDEADA",
"HX c #E4E2DA",
"JX c #F5E1C2",
"KX c #F0EDDF",
"LX c #EEECE0",
"PX c #F0EEE0",
"IX c #F2F0E5",
"UX c #F4F2E8",
/* pixels */
"FXFXFXFXGXFXrXP.%.( -.-.-.>.-.-.-.-.-.-.-.-.=.=.t w.:XFXFXFXGXFXFX",
"FXFXFXFXeX4.,.:XpXaXaXaXaXaXaXaXaXaXpXpXpXtX0X5X:X6.d s J.FXFXGXFX",
"FXGXFX'.&.3XfXvXvXVXAXDXAXFXDXFXFXFXDXAXSXCXbXwXJ.6.H.6.s E.FXGXFX",
"GXFX[.>.yXaXvXFXUXUXUXUXUXUXIXUXIXUXUXUXIXIXGX#XF.F.J.6.W.-.E.FXFX",
"FXeX$.yXaXAXIXUXIXIXIXUXIXUXIXUXIXIXIXIXIXGXMXb v v n }.}.~.&.'.FX",
"FX4.3XaXAXUXIXIXIXPXIXGXGXIXGXIXIXLXKXIXIXGX=Xz x c %X%XXX/.W.$.CX",
"0X1.aXvXIXIXIXKXIXPXIXGXGXUXIXGXGXGXIXIXGXGXBXg a K.qX4X.X|./.<._.",
"6.:XaXFXIXIXKXKXGXPXGXGXKXKXGXGXLXIXGXGXIXGXGXL.i j qX+X.X|..X~.&.",
") aXaXIXIXKXKXGXKXGXKXKXKXGXKXKXGXPXGXPXGXGXGXNXp @ @X%X`./.+X.X&.",
"( fXbXUXIXKXKXKXKXKXGXKXGXKXKXGXPXGXPXGXPXGXjXl @ k qX1X X/.@X@X:.",
",.aXAXIXKXKXKXGXKXGXKXGXKXKXKXKXGXGXLXGX&Xl @ f L.aX0X2X|./.7X2X4.",
">.aXDXIXKXKXGXGXGXKXGXGXGXGXGXGXPXGXLXL.h *XGXSXAXpX0X1X|./.2X7XZ.",
",.aXDXIXGXGXGXGXGXKXGXGXGXGXKXGXGXLXGXNXGXGXFXSXCXcXtX+XXX~.2X7XP.",
">.pXDXIXKXKXGXGXGXGXGXGXGXGXGXGXGXM.y.ZXFXFXFXSXCXkX0X+X X/.2X7XP.",
",.pXDXKXKXGXGXGXGXGXGXGXGXGXGXKXN.@.U >XsXFXFXSXbXkX0X+X`.^.7X7XP.",
",.pXDXKXGXGXGXGXFXGXFXGXGXFXsXh.#.P :.} K /.FXCXCXtX0X1X`.~.2X7XP.",
">.pXFXKXGXGXGXGXGXFXGXGXJXn.z.#.U ;.c.P O ' FXCXbXkX8XOX`.!.@X9XI.",
">.pXDXKXGXFXFXFXFXFXFXB.t.b.x.H U.} B 2 V.SXSXCXcXqX6XXX`.W.2X7XP.",
">.pXAXKXGXFXFXFXFXdXt.h.B.#.- :.l.Z : w CXFXCXCXcX0X4XXX/.T.2X7XP.",
">.yXAXGXGXFXFXgXb.s.p.z.Q - ] -X| > 3 +XDXAXCXvXuX8X+X].W.I.2X7XP.",
"-.eXAXFXGXFXm.s.d.t.^ <   t ,Xo.A $ y AXAXCXVXuX0X5XXX_.R.I.@X7XZ.",
"-.eXVXFXdXr.s.d.t.{ X O *.qXy. .N 3 8XCXCXCXkXtX8X+X].W.I.I.7X9XG.",
"-.3XiXm.f.r.f.i.e._ O oXCXfX .V = 0 cXVXcXcXtX8X<XXX^.T.A.!.9XhX4.",
"( $X;Xu.i.f.i.e.+.O.8 0.v...C > + A.aXkXtX0X5X<XXX_.R.P.Z.|.hXhX>.",
"$.{.;X{ ~ ^ o.+.O.O.E E E W m # 0 5XrX0X5X4X<X[.^.R.P.Z.C.7XxXxX%.",
"E.q.).8.[ K D F T T W R Y B % o V.5X4X1X<XXX`.^.R.I.C.2.`.xXnX2X>.",
"pX) ).7.7.~ H 4 ; S S B M 1 . 3 [.XX[.[.`._.E.T.Z.C.2.W.xXmXmX<.:X",
"FX(.,.w.0._ J 9 : & ; , - * X *._._._.!.R.T.I.Z.C.2.~.kXZXZX+X,.FX",
"FXbX1.w.w.0.` r 7 6 6 5 = o q R.R.R.T.I.I.A.Z.C.I.+XxXZXZXkX$.<XGX",
"GXFX4X1.Z.~.|. X/.Q.Y.Y.A.V.I./././././.`.|.oX2XlXnXZXZX9X$.[.GXFX",
"FXFXGX8X2.-./..X@X7X9X9X9X9X9XhXhXhXqX9XhXhXkXlXxXmXxX!.=.:XFXFXFX",
"FXGXGXGXFX'.&.:.T.`.+X7X7X9X9X9X9X9X9X9X9X9XhX+XXXP.) E.aXFXFXGXGX",
"FXGXFXFXGXFXGX3Xq.>.%.t %.( ( ( ( ( ( ( ( ( ( -.w.'.AXDXDXFXFXFXFX"
};
