/* XPM */
const char *disable_xpm[]={
"16 16 5 1",
"# c None",
". c None",
"c c #b15306",
"b c #d99119",
"a c #ecc16c",
"....#######.....",
"...a........a...",
"..aba......aba..",
".abcba....abcba.",
"..abcba..abcba..",
"...abcbaabcba...",
"....abcbbcba....",
".....abccba.....",
".....abccba.....",
"....abcbbcba....",
"...abcbaabcba...",
"..abcba..abcaa..",
".abcba....abcba.",
"..aba......aba..",
"...a........aa..",
"................"};
