/* XPM */
const char *drawing_area_xpm[] = {
/* columns rows colors chars-per-pixel */
"33 33 256 2",
"   c #4C1A10",
".  c #5B1C10",
"X  c #5C150C",
"o  c #5E2310",
"O  c #69190E",
"+  c #6C200E",
"@  c #762B15",
"#  c #7E341D",
"$  c #882716",
"%  c #85341D",
"&  c #9C3319",
"*  c #9B2E1A",
"=  c #873A25",
"-  c #993927",
";  c #A13E21",
":  c #974624",
">  c #954635",
",  c #8A4730",
"<  c #AC561C",
"1  c #B1560C",
"2  c #BD5719",
"3  c #B24917",
"4  c #A74927",
"5  c #AB5528",
"6  c #AD5935",
"7  c #B54C22",
"8  c #B75828",
"9  c #B65D35",
"0  c #BC610E",
"q  c #B7641A",
"w  c #AE612A",
"e  c #AF7B3F",
"r  c #B2622F",
"t  c #B96737",
"y  c #9F5946",
"u  c #817A54",
"i  c #AD654F",
"p  c #AB7541",
"a  c #B17853",
"s  c #A56859",
"d  c #A67A63",
"f  c #DA5C1D",
"g  c #C05F29",
"h  c #DF6B1E",
"j  c #C86E17",
"k  c #C66625",
"l  c #C86935",
"z  c #C7782A",
"x  c #C97838",
"c  c #DB7426",
"v  c #D57A37",
"b  c #D76F28",
"n  c #E66B1F",
"m  c #EC6C20",
"M  c #E77B2E",
"N  c #ED7523",
"B  c #E77627",
"V  c #EC7E3A",
"C  c #F47B28",
"Z  c #F67D35",
"A  c #C27944",
"S  c #D07F41",
"D  c #BD801C",
"F  c #B6983A",
"G  c #89825D",
"H  c #8B8562",
"J  c #948D6A",
"K  c #928D71",
"L  c #96906E",
"P  c #9C966B",
"I  c #959074",
"U  c #99947B",
"Y  c #9D9876",
"T  c #9F9979",
"R  c #999475",
"E  c #BE815C",
"W  c #AD8F7C",
"Q  c #A39C7D",
"!  c #A49777",
"~  c #B88668",
"^  c #B09A7D",
"/  c #B79A68",
"(  c #B0AA7F",
")  c #BCB871",
"_  c #CE8B1E",
"`  c #C7863D",
"'  c #CA973A",
"]  c #D48A23",
"[  c #D68439",
"{  c #D59C2D",
"}  c #D99635",
"|  c #DBA33A",
" . c #E9802F",
".. c #EB843B",
"X. c #F2832B",
"o. c #F18A28",
"O. c #F58235",
"+. c #F48539",
"@. c #F48A3C",
"#. c #F78A37",
"$. c #F59638",
"%. c #E49A36",
"&. c #E0AB34",
"*. c #EAB32F",
"=. c #E5B53D",
"-. c #F7AD39",
";. c #C78E41",
":. c #D89949",
">. c #DA9E50",
",. c #D28D4C",
"<. c #C29A71",
"1. c #C99564",
"2. c #CBB154",
"3. c #D7A943",
"4. c #D7AE53",
"5. c #D8B64A",
"6. c #C0A957",
"7. c #C4BF6B",
"8. c #D1B376",
"9. c #E58845",
"0. c #E69250",
"q. c #F58A42",
"w. c #F88A42",
"e. c #F58647",
"r. c #F49244",
"t. c #F69348",
"y. c #F59C4B",
"u. c #F89744",
"i. c #F7965A",
"p. c #F79659",
"a. c #E9924A",
"s. c #F69F6B",
"d. c #E3A547",
"f. c #E4B74A",
"g. c #E7B854",
"h. c #F4A34D",
"j. c #F8A848",
"k. c #FAA95B",
"l. c #F6A756",
"z. c #F5B548",
"x. c #F9B755",
"c. c #E2AB54",
"v. c #EDA56E",
"b. c #ECA471",
"n. c #E7AB77",
"m. c #E6B37D",
"M. c #FAAC61",
"N. c #F1AB74",
"B. c #FBBA7A",
"V. c #D7C653",
"C. c #CAC069",
"Z. c #C9C371",
"A. c #D5CC6C",
"S. c #EAC447",
"D. c #EAC854",
"F. c #E8D54A",
"G. c #EDD65A",
"H. c #F2C54A",
"J. c #F6C353",
"K. c #F3CC54",
"L. c #FBC45A",
"P. c #F8C556",
"I. c #F4D056",
"U. c #FBD45C",
"Y. c #ECCE64",
"T. c #EBD766",
"R. c #F6C868",
"E. c #F3D764",
"W. c #F6CA75",
"Q. c #F0E255",
"!. c #F0EB66",
"~. c #9A9681",
"^. c #9D9983",
"/. c #A09C86",
"(. c #A19D89",
"). c #AC9982",
"_. c #B19D8A",
"`. c #A5A18C",
"'. c #A9A38D",
"]. c #AEA98C",
"[. c #AAA593",
"{. c #ADA994",
"}. c #AEAA9A",
"|. c #A7A492",
" X c #B6A98B",
".X c #B2AD91",
"XX c #B1AD9C",
"oX c #B9B687",
"OX c #B6B195",
"+X c #B9B49A",
"@X c #B9B59A",
"#X c #B1AFA1",
"$X c #B4B1A3",
"%X c #B9B5A2",
"&X c #B9B6A9",
"*X c #BDBAA4",
"=X c #BBB9AC",
"-X c #B7B5A8",
";X c #BFBDB2",
":X c #C2AC90",
">X c #C6BA96",
",X c #D5BC95",
"<X c #DDB787",
"1X c #C1BDA5",
"2X c #C0BDAC",
"3X c #C1BEB1",
"4X c #E1BF80",
"5X c #C5C288",
"6X c #D9C29A",
"7X c #C7C593",
"8X c #C5C0A5",
"9X c #CAC6AD",
"0X c #C3C0AD",
"qX c #C3C1B3",
"wX c #C8C6BC",
"eX c #CECBBD",
"rX c #C7C5B6",
"tX c #D6C9A4",
"yX c #D1CEBB",
"uX c #D1CCB4",
"iX c #DED9BE",
"pX c #D8D4BA",
"aX c #E0D681",
"sX c #F9CA98",
"dX c #F5D19A",
"fX c #EBCD99",
"gX c #E3D1A1",
"hX c #F4DFA1",
"jX c #F5E39C",
"kX c #EFE1B0",
"lX c #CCCAC1",
"zX c #D0CEC6",
"xX c #D5D3CC",
"cX c #D8D5C4",
"vX c #D9D7CA",
"bX c #DFDBC7",
"nX c #D7D6D0",
"mX c #D8D7D0",
"MX c #DAD9D2",
"NX c #DFDFD9",
"BX c #E0DCC2",
"VX c #E0DDCD",
"CX c #E1DFD1",
"ZX c #E0DFD9",
"AX c #E5E2CC",
"SX c #E6E3D3",
"DX c #E8E5D2",
"FX c #EBE8D7",
"GX c #ECE9D9",
"HX c #E3E2DB",
"JX c #F3E5CA",
"KX c #F2EAD4",
"LX c #EDECE0",
"PX c #F0EEE0",
"IX c #F2F0E4",
"UX c #F4F2E8",
/* pixels */
"GXGXGXGXFXuX`.G u J J J J L J J J L J J J J J u R 1XFXFXFXGXFXGXGX",
"GXFXGX9X! L >XpXiXiXiXiXiXiXiXiXiXiXiXiXiXiXpXpX@XT J *XGXFXGXFXFX",
"FXGXOXG 8XiXiXiXAXAXAXDXDXDXDXDXDXDXDXDXAXAXBXpXuX9X@XJ  XFXFXGXFX",
"GXOXJ pXiXbXFXIXUXUXUXUXUXUXUXUXUXUXUXUXUXUXUXLXVXuX8X@XI ].GXFXFX",
"rXd tXfXfXsXW.B.sXJXKXPXIXIXIXUXPXPXPXUXPXUXIXLXGXMXyX1X@XH OXGXFX",
"Y >X,X<XN.k.w.+.@.r.l.dXDXLXIXLXPXPXPXUXPXPXPXLXFXSXvXrX=X}.G VXFX",
"L tX4Xd > 4 B V ..O.X.o.h.W.LXLXPXPXGXPXPXPXPXLXSXSXvXeX=X%XU OXFX",
"OX4Xb.i.l = V Z O.@.@.#.$.u.x.dXKXKXPXGXGXPXGXGXFXMXvXyX0X-X[.G FX",
"tXn.s.e.Z V V q.9.9.r.q.r.h.x.x.x.R.kXKXLXLXGXFXSXMXcXyXqX&X$XH pX",
"6Xn.s.e...q.w.q.6 O # v p.l.k.x.z.-.z.Y.hXGXLXFXDXVXcXeXqX=X$XK 1X",
"tXb.i.e.@.r.t.@.+.q.9 S x.l.M.M.k.h.z.z.J.E.jXFXDXVXcXeXqX;X-XU @X",
",Xb.i.e.q.w.w.Z +.t.t.x.h.: = t a.y.j.P.z.H.H.E.kXiXcXeXqX;X&XU .X",
",Xn.i.e.Z Z O.#.r.u.h.r.u.z.v : 6 z.x.P.K.H.H.S.D.T.A.tX0XqX=X^..X",
",Xb.i.w.+.#.u.h.y.r.q.y.l.x.L.L.L.x.d.r :.K.H.H.S.F.F.A.5X8X&X^..X",
",Xb.i.w.w.u.u.u.#.r.l.l.a.y.x.x.x.L.x.t % % ` H.D.f.5.V.Z.7X@XT .X",
",Xs.p.w.w.#.#.O.M b l g 7 M l.z.z.J.E.U.K.` 4.G.D.D.V.2.C.7XoX! .X",
",Xv.p.q.Z C f 2 7 8 7 7 7  .$.-.z.x.P.K.I.I.I.K.` % F 7.7.:XoXP .X",
",Xn.l.@.m j 2 8 l x x l k M $.$.-.x.J.J.K.I.K.F.5.O , 2.6.7.) Y .X",
",Xm.M.| { { | d.c.c.d.} b N X.o.-.z.J.J.U.I.;.S.f.5.| F F ) $X^..X",
",XA.T.F.F.G.!.T.Y.Y.Y.g.M n N o.$.x.U.K.x + @ { =.{ D F ].&X$XU .X",
">X<X8.4.D.Y.T.K.F.G.!.G.O.n N o.-.=.:.S.=.| =.| _ 1 p @X{.-X$XU .X",
" X<.1.,.,.>.>.} %.&.z.f.c n o.$.< O + ] *.&.] 0 w / %XXX{.&X$XT .X",
" X~ E A A A A x v ,.0.} N h c 5 . @ c | { j 1 :X*X%XXX|.}.-X-XU @X",
").d i 6 7 6 9 t t l l l @ < c M v 3.| { q g 9X*X%X{.|.(.#X;X;XK 1X",
"Q d s > - * * & & 4 4 :   o j [ :.v 2 9 OX*X%XOX{.]./.^.;X;XwXu FX",
"U '._.W y - $ $ $ $ $ $ 4 k r z t 3 ~ -X+XOX{.[.`./.^.#XlXwX-XJ GX",
"u |.{.$X{.'._.).W > = # % : < q a ^ .X.X{.'.|.(.^.^.|.lXzXzXK *XFX",
" XU |.XXXX|.|._.|.'.|.'.'.'.`.`.'.'.(.(.(./.^.^.~.[.lXMXMX&XI FXGX",
"bXR ^.#X=X#X|.(.`.^.^.^.^.(.^.^.^.^.^.^.^.U ~.^.=XxXNXNXwXG 8XFXFX",
"GX9XU '.=XwXwX3X=X$X$X}.}.}.}.}.{.}.}.$X%X=XwXmXNXZXNXqXG @XGXGXGX",
"GXFXuX! I &XlXxXxXxXmXmXMXMXmXmXmXmXmXMXMXNXNXZXHXmX[.J @XGXFXGXFX",
"FXGXFXFXXXH I {.=XlXxXxXmXmXmXmXmXmXmXmXmXxXqX&X`.u ].bXGXGXFXGXGX",
"GXFXGXFXGXFX1XQ L G u u u u u u u u u u u u J Y OXVXFXGXFXGXFXGXFX"
};
