/* XPM */
const char *eraser_xpm[] = {
/* columns rows colors chars-per-pixel */
"33 33 257 2",
"   c #3F3603",
".  c #676039",
"X  c #5D5C54",
"o  c #706043",
"O  c #7A755E",
"+  c #8B2B01",
"@  c #8F3308",
"#  c #943401",
"$  c #913808",
"%  c #983400",
"&  c #9A3A05",
"*  c #8B3C17",
"=  c #A13500",
"-  c #A73903",
";  c #8E4017",
":  c #994408",
">  c #9B4D0F",
",  c #974D16",
"<  c #995A26",
"1  c #9E6235",
"2  c #9F7A37",
"3  c #A14200",
"4  c #A34803",
"5  c #AD4C00",
"6  c #AA4600",
"7  c #A85001",
"8  c #A5530B",
"9  c #A75917",
"0  c #B14A00",
"q  c #B45100",
"w  c #BC5400",
"e  c #B65807",
"r  c #A26F16",
"t  c #BB640D",
"y  c #BC6A17",
"u  c #BC7F15",
"i  c #A3662C",
"p  c #AF6721",
"a  c #AB7A28",
"s  c #AD7934",
"d  c #B9792B",
"f  c #B27433",
"g  c #817A54",
"h  c #837C5C",
"j  c #967B47",
"k  c #A57449",
"l  c #A67A50",
"z  c #C24400",
"x  c #C54800",
"c  c #C84B00",
"v  c #C35401",
"b  c #C45900",
"n  c #CA5D00",
"m  c #C2581A",
"M  c #D05F00",
"N  c #C46104",
"B  c #C46D0E",
"V  c #CB6302",
"C  c #CE6903",
"Z  c #CC6A0B",
"A  c #C5670C",
"S  c #CB7211",
"D  c #CA7A19",
"F  c #D16E01",
"G  c #D06908",
"H  c #D37203",
"J  c #D87C00",
"K  c #D47809",
"L  c #D37C14",
"P  c #C57B2B",
"I  c #D27A24",
"U  c #D27B36",
"Y  c #BB872E",
"T  c #B7883A",
"R  c #8A835E",
"E  c #87815C",
"W  c #9C8453",
"Q  c #9C875D",
"!  c #8B8561",
"~  c #8E896B",
"^  c #84817C",
"/  c #938D6A",
"(  c #9B8D62",
")  c #948C71",
"_  c #96906D",
"`  c #969174",
"'  c #96927A",
"]  c #9A9473",
"[  c #9E9877",
"{  c #9F9979",
"}  c #AC8C5C",
"|  c #A78254",
" . c #BF9958",
".. c #BD975D",
"X. c #B5854C",
"o. c #A98964",
"O. c #A9936C",
"+. c #A29B7C",
"@. c #AA9A76",
"#. c #B69B69",
"$. c #B29A7C",
"%. c #B99C7D",
"&. c #B79B74",
"*. c #B5A378",
"=. c #DB8201",
"-. c #DE8902",
";. c #DE8B0C",
":. c #DA8410",
">. c #DE8F13",
",. c #DA8A1D",
"<. c #D6851B",
"1. c #DE901D",
"2. c #DB9710",
"3. c #C68728",
"4. c #CC8939",
"5. c #CD9633",
"6. c #D98720",
"7. c #DB8C21",
"8. c #D78A24",
"9. c #D58636",
"0. c #D4893A",
"q. c #DE9123",
"w. c #DA922B",
"e. c #D99637",
"r. c #E08A00",
"t. c #E29209",
"y. c #E0931C",
"u. c #E3981A",
"i. c #E19927",
"p. c #E09C36",
"a. c #E6A539",
"s. c #E5A639",
"d. c #C08B46",
"f. c #CF954E",
"g. c #CB9C59",
"h. c #D49C46",
"j. c #DF9E58",
"k. c #DC9B51",
"l. c #C68456",
"z. c #C19B79",
"x. c #DB9C66",
"c. c #DBAD5B",
"v. c #D8A659",
"b. c #CBA767",
"n. c #CBAE71",
"m. c #C7A978",
"M. c #C6B078",
"N. c #D2B97A",
"B. c #E3A74C",
"V. c #E5AB45",
"C. c #E2A240",
"Z. c #E2A054",
"A. c #EAB55D",
"S. c #E0AC66",
"D. c #E7B968",
"F. c #E4BC7A",
"G. c #E9B879",
"H. c #EDC17B",
"J. c #F2C97B",
"K. c #808080",
"L. c #9D9983",
"P. c #989489",
"I. c #A19D86",
"U. c #A29D89",
"Y. c #A5A18D",
"T. c #A9A58D",
"R. c #AEA98C",
"E. c #A9A691",
"W. c #ADA994",
"Q. c #ADAA9B",
"!. c #A7A497",
"~. c #B4A68D",
"^. c #B0AA8D",
"/. c #B1AD95",
"(. c #B0AD9C",
"). c #B6B295",
"_. c #B4B19C",
"`. c #B9B39B",
"'. c #BDB89E",
"]. c #A7A7A7",
"[. c #AFADA4",
"{. c #B2AEA0",
"}. c #B4B1A2",
"|. c #B9B5A2",
" X c #BEBAA5",
".X c #BDBBAC",
"XX c #B4B2A8",
"oX c #BDBBB2",
"OX c #C3B596",
"+X c #DAB483",
"@X c #D7B995",
"#X c #C5AB8A",
"$X c #C1BDA3",
"%X c #C1BCA8",
"&X c #C0BEB2",
"*X c #E7B780",
"=X c #E4BA84",
"-X c #E8BE93",
";X c #C4C0AC",
":X c #C9C4AD",
">X c #C6C1A3",
",X c #C3C1B5",
"<X c #C5C3B9",
"1X c #C8C5BC",
"2X c #CDC9B5",
"3X c #CBC9BD",
"4X c #C9C5B1",
"5X c #D4C3A6",
"6X c #D2CDB7",
"7X c #D6D1B6",
"8X c #D8D3B6",
"9X c #DAD5BA",
"0X c #DDD8BD",
"qX c #D4D0BD",
"wX c #E9C487",
"eX c #E7C596",
"rX c #F2CC83",
"tX c #F2D39B",
"yX c #ECD4AB",
"uX c #EAD4B2",
"iX c #EBD5B8",
"pX c #F1D2AE",
"aX c #F7E2BC",
"sX c #CCCBC3",
"dX c #C4C4C1",
"fX c #D0CDC4",
"gX c #D3D2CA",
"hX c #D9D5C2",
"jX c #DBD4C9",
"kX c #DFDAC1",
"lX c #D6D4C7",
"zX c #D6D6D2",
"xX c #DADAD4",
"cX c #E0DCC3",
"vX c #EADDC7",
"bX c #E0DFDA",
"nX c #F0DCC7",
"mX c #E5E1CC",
"MX c #EDE0CC",
"NX c #E6E2D0",
"BX c #E1E1DC",
"VX c #E8E5D3",
"CX c #EAE8D6",
"ZX c #EEEBDC",
"AX c #F4E2C8",
"SX c #F7ECD7",
"DX c #E5E4E1",
"FX c #EEEDEB",
"GX c #EFEDE0",
"HX c #F0EEE1",
"JX c #F2F0E5",
"KX c #F4F2E8",
"LX c #FBFBED",
"PX c #F5F4F3",
"IX c #FEFEFE",
"UX c #FAF9F7",
"YX c None",
/* pixels */
"YXYXYXYXYXYX2X+.E g / / / / / / _ / / / / ~ _ / O [ $XLXYXYXYXYXYX",
"YXYXYXYX:X+.] OX9X0X0X0X0X0X0X0X0X0X0X9X0XqX7X2X>XO.`     YXYXYXYX",
"YXYXYX).! >XkX0X0XmXmXVXVXVXVXVXVXVXVXVXCXNXmX`.M.#X>X_..   YXYXYX",
"YXYX`./ 9X0X0XZXKXKXKXKXKXJXKXKXKXKXKXKXKXFXQ.H.uXBX6X%X|.) T.YXYX",
"YX:X! 8X0XmXJXKXJXJXJXJXKXHXKXHXJXJXHXKXDXP.D.yXFXFXbXsX.X[.~ ).YX",
"YX{ >X0XmXKXJXJXJXJXHXHXHXHXHXHXHXHXHXdXO D.tXUXPXFXBXzX<X.XQ.R   ",
"2X_ 0X0XJXKXHXHXZXHXZXHXHXHXHXHXGXGX].) A.tXIXUXPXFXDXzXsXoXXX' ).",
"+.OX9XVXKXJXGXGXHXZXHXZXHXZXZXHXGXP.#.D.nXIXIXUXPXFXDXxXsX&XoXQ.! ",
"E 8X0XJXHXHXZXHXZXHXZXHXZXZXZXZX^ 5.D.SXIXIXIXUXPXFXDXbXsX&XdXoX_ ",
"O 9XkXKXKXHXZXZXZXZXZXZXZXZXZXZXzX2.h.MXIXIXIXUXUXFXDXxXsXoXdXoX' ",
"_ 9XmXKXHXZXZXZXZXZXZXZXZXZXZXZXGXCX#.3.c.SXIXIXPXFXDXxXsXoXsX<XO ",
"_ 8XmXKXZXZXZXZXZXCXJ.s.a.i.B.AXZXZXZXlX| 5.wXUXPXFXDXbXsXoXsX[.O ",
"_ 8XVXHXHXSXZXZXZXA.-.wXnXw.J =.G.ZXZXZXZXQ.Y n.UXFXDXxXsX.X!.[.Q ",
"_ 8XVXHXGXZXZXSXs.-.-.-.F.HXS.G G :.pXZXCXZXhXY T jXDXxXdXX R.).[ ",
"_ 8XVXHXGXZXaXu.-.-.=.J J C.iXuXI c n Z.ZXZXCXNX .3.@.1Xo 2 #X<XY.",
"_ 8XVXHXZXtXt.r.-.-.=.J J J :.eXnXw.x c H eXCXNXmX@Xa r s *.<X<XI.",
"/ 8XmXHXrXt.r.r.;.;.:.=.J H H F G.vXk.v z z 0.nXbXjXqX`.`.(.<X<XI.",
"/ 7XZXJ.u.t.-.;.>.i.,.:.K H H C V j.HXv.v x z n @XhXqX,X X(.,X<XI.",
"_ 8XH.s.i.t.>.y.q.q.,.<.:.H C V n n U pX+X=X-XiX@XhX2X;X|.Q.,X<X{ ",
"( N.c.V.i.u.1.q.q.7.,.L K K C V n v c 9.=Xx.l.m @XqX4X%X(.W.,X,XY.",
"/ n.c.V.w.i.1.q.7.7.L K F Z V n v v I eXk.e & - 5X2X;X|.(.E.,X&XL.",
"/ n.c.B.C.w.7.,.8.L K G Z C n b v I yX9.w 6 - % :X4X.X}.W.T.<X<XY.",
"~ M.b.v.e.8.<.6.D L S Z A b v w 0.=X4.v 0 = & z.:X.X`.W.E.W.1X1XL.",
"O *.g.v.0.8.D D S B B b w w q 0.eXP w 0 - % #X&X%X`.W.E.U.}.sXsX_ ",
"R #.#.g.5.3.D A A e e q w q f.+XB 0 0 = % OX;X X`.W.T.U.L.<XgXfXO ",
"R.W #...X.Y y t e 0 q 5 7 P M.e 6 6 = # #X X'._.W.E.Y.L.}.gXzXoX_ ",
"9XE @.} X.f p 9 8 4 4 7 d m.9 3 - & + %.(.(.W.E.Y.L.L.!.gXxXxX` OX",
"YX^.2 O.} k i , , > 8 s &.9 : : $ @ %.W.W.R.Y.Y.L.L.W.gXbXbX&X_ YX",
"YX  [ Q o.o.k 1 < i | o.< , , * * I.T.T.U.L.L.L.Y..XjXBXBXfX! >XYX",
"YXYX:X] l +.$.%.&.`.&.| l l k k ~.Q.Q.(.}.|..X1XgXxXBXBX<XR ).YXYX",
"YXYXYX7XI.) Q.&X<X3X3XsXsXsXfXfXfXfXfXfXgXsXgXgXzXxXzXE./ '.YXYXYX",
"YXYXYXYX  ).h ) Y.}.,XsXsXsXsX3XsXsX3XfXsXsXsX.X|.Y.g R.hXYXYXYXYX",
"YXYXYXYXYXYXYX$X+._ R g g g g g g g g g O g g _ [ ).  YXYXYXYXYXYX"
};
