/* XPM */
const char *fillcolor_xpm[]={
"16 16 7 1",
"# c None",
". c None",
"a c #953803",
"b c #c56e01",
"e c #dc9c25",
"d c #ecc16c",
"c c #ffffc0",
".######.........",
"........aaa.....",
".......a###a....",
".......aa##a....",
"......aaba#a....",
"...bbacadbaa....",
"..bbaccacdba....",
".bbaeebabcdba#..",
".babdbcdaccdba..",
".baaaceabdccdba.",
".baa.acbeddccda.",
".bab..acbeddea..",
".bab...acbeea...",
".bab....acea....",
"..ab.....aa.....",
"................"};
