/* XPM */
const char *frameminus_xpm[]={
"15 12 7 1",
". c None",
"d c #953803",
"a c #c56e01",
"e c #d99119",
"# c #dc9c25",
"b c #ecc16c",
"c c #ffffc0",
".######.######.",
".#aaaaa#aaaaa#.",
"#abccbbdbbccba#",
"#accccbdbcccca#",
"#accccbdbcccca#",
"#aedddbdbdddea#",
"#aedddbdbdddea#",
"#accccbdbcccca#",
"#accccbdbcccca#",
"#abccbbdbbccba#",
".#aaaa##aaaaa#.",
".######.######."};
