/* XPM */
const char *grid16_xpm[] = {
/* columns rows colors chars-per-pixel */
"33 33 256 2",
"   c #691E0E",
".  c #631F11",
"X  c #761F0D",
"o  c #6A2A19",
"O  c #6F3A1B",
"+  c #7B2612",
"@  c #7D2A15",
"#  c #732715",
"$  c #733928",
"%  c #7B4A3E",
"&  c #75492D",
"*  c #8E260E",
"=  c #832C16",
"-  c #912700",
";  c #942900",
":  c #992D00",
">  c #92260D",
",  c #952B12",
"<  c #9D3300",
"1  c #973719",
"2  c #87361D",
"3  c #873821",
"4  c #A23A00",
"5  c #A23A20",
"6  c #95421A",
"7  c #875729",
"8  c #895531",
"9  c #924829",
"0  c #925C21",
"q  c #95522B",
"w  c #925E3B",
"e  c #8E721E",
"r  c #996115",
"t  c #8F6331",
"y  c #956428",
"u  c #9A6124",
"i  c #9B6629",
"p  c #99682A",
"a  c #926631",
"s  c #926932",
"d  c #956A36",
"f  c #997639",
"g  c #A94617",
"h  c #AA561A",
"j  c #B05C1C",
"k  c #B75716",
"l  c #A94624",
"z  c #AC4B31",
"x  c #A45725",
"c  c #B15A29",
"v  c #B45E31",
"b  c #B35638",
"n  c #BD651D",
"m  c #AE6332",
"M  c #A87329",
"N  c #A97D3C",
"B  c #BA6724",
"V  c #B46032",
"C  c #BB6533",
"Z  c #BF762E",
"A  c #B57837",
"S  c #9C5D44",
"D  c #835747",
"F  c #817A54",
"G  c #936E43",
"H  c #967448",
"J  c #92675A",
"K  c #B85D40",
"L  c #BA6543",
"P  c #B67044",
"I  c #BD7D50",
"U  c #A4735A",
"Y  c #CF6E33",
"T  c #C3732A",
"R  c #C67828",
"E  c #CA783B",
"W  c #DA7937",
"Q  c #C7672E",
"!  c #C36A45",
"~  c #CF7546",
"^  c #D87C41",
"/  c #AC813F",
"(  c #B5843B",
")  c #89825D",
"_  c #9F854F",
"`  c #8C8563",
"'  c #918B69",
"]  c #928D71",
"[  c #96906E",
"{  c #959074",
"}  c #99957C",
"|  c #9E9877",
" . c #9B9577",
".. c #AA8648",
"X. c #AF8D57",
"o. c #BA8944",
"O. c #BB8C56",
"+. c #BE9249",
"@. c #B29355",
"#. c #A68863",
"$. c #A68569",
"%. c #A78B78",
"&. c #AB9167",
"*. c #A89878",
"=. c #B68865",
"-. c #B79868",
";. c #B69A78",
":. c #BBA377",
">. c #C9812E",
",. c #CB812A",
"<. c #CD8631",
"1. c #CA8738",
"2. c #D48936",
"3. c #D99438",
"4. c #D2872D",
"5. c #E38037",
"6. c #CA8647",
"7. c #C88957",
"8. c #C09049",
"9. c #C79657",
"0. c #DA8B46",
"q. c #D4994A",
"w. c #D89557",
"e. c #CA9662",
"r. c #D49B61",
"t. c #D39967",
"y. c #CEA657",
"u. c #DDA148",
"i. c #D4A557",
"p. c #C9A46B",
"a. c #C2AB7B",
"s. c #C8A87A",
"d. c #CEB37A",
"f. c #D8A967",
"g. c #D3AB76",
"h. c #D6A976",
"j. c #D9B469",
"k. c #D9B679",
"l. c #E18C4A",
"z. c #E18D44",
"x. c #E39145",
"c. c #E6934A",
"v. c #E39C5A",
"b. c #F09B53",
"n. c #E59E66",
"m. c #E5A848",
"M. c #E4A859",
"N. c #EBB54F",
"B. c #E8B657",
"V. c #F2A85C",
"C. c #F0B449",
"Z. c #F2BD54",
"A. c #E3A664",
"S. c #E1AB7C",
"D. c #E6B869",
"F. c #E5B975",
"G. c #F3B568",
"H. c #F6BE78",
"J. c #EFC25F",
"K. c #F6C45D",
"L. c #EEC161",
"P. c #ECC37D",
"I. c #ECC575",
"U. c #F3C768",
"Y. c #F1CD7C",
"T. c #F6CB76",
"R. c #F8D47B",
"E. c #9C9880",
"W. c #AB9383",
"Q. c #A69C88",
"!. c #B49A84",
"~. c #B29E90",
"^. c #ABA58C",
"/. c #A9A592",
"(. c #ADAA97",
"). c #B8A68A",
"_. c #B3A292",
"`. c #B3AD91",
"'. c #BBA598",
"]. c #B6B195",
"[. c #B9B499",
"{. c #BBB599",
"}. c #B1AFA1",
"|. c #BBB8AB",
" X c #BAB6A3",
".X c #C9AE83",
"XX c #C7B686",
"oX c #D6AF81",
"OX c #DCBB8A",
"+X c #D5B785",
"@X c #D9BE90",
"#X c #D5BF90",
"$X c #C3B898",
"%X c #C1BDA4",
"&X c #C5B7A5",
"*X c #CDBDB7",
"=X c #E9BC80",
"-X c #CCC08F",
";X c #DEC38C",
":X c #D9C388",
">X c #D5C393",
",X c #D9C294",
"<X c #D7C79B",
"1X c #DED099",
"2X c #CAC6AD",
"3X c #C4C0A6",
"4X c #C9C4B7",
"5X c #D7C8A0",
"6X c #D5CCBC",
"7X c #D0CCB5",
"8X c #DFD1A1",
"9X c #E2C184",
"0X c #E5C889",
"qX c #EDC580",
"wX c #ECCA82",
"eX c #ECCB8B",
"rX c #E4C58A",
"tX c #E0CA95",
"yX c #EBCF91",
"uX c #E3C99A",
"iX c #E7D294",
"pX c #E8D59B",
"aX c #F2CB86",
"sX c #F4D284",
"dX c #F5D58B",
"fX c #F8DB8C",
"gX c #F7D688",
"hX c #F2D59D",
"jX c #F9D994",
"kX c #F6D694",
"lX c #E8D089",
"zX c #E4CAA4",
"xX c #EEDFA9",
"cX c #ECD9A4",
"vX c #F2DAA4",
"bX c #F1DCAB",
"nX c #F0DEBC",
"mX c #EED9B7",
"MX c #FBE28F",
"NX c #FCE496",
"BX c #FBE39B",
"VX c #FBE99F",
"CX c #EDE0AA",
"ZX c #FBE5A6",
"AX c #FBE8B1",
"SX c #F7E7BE",
"DX c #D4CEC4",
"FX c #D6D1C8",
"GX c #DAD3C7",
"HX c #D8D7D0",
"JX c #DCDBD6",
"KX c #E1DDCB",
"LX c #E0DFD9",
"PX c #ECE9D8",
"IX c #E5E4DA",
"UX c #F8EBC6",
/* pixels */
"PXPXPXPXPX7X| t 7 G G G G G G G G G H H H H H F  .|.PXPXPXPXPXPXPX",
"PXPXPX2Xr f -.>X,X,X#X@X,X@X,X:X,X,X,X,X,X,X>X>X{.*.' {.PXPXPXPXPX",
"PXPX].e XXzX+X=XpXpXpXvXcXcXCXCXxXCXCXCXxXcXuXh.-X2X{.[ ^.PXPXPXPX",
"PX[.f <X1XOXS.yXAXBXZXZXAXAXAXAXAXAXAXAXAXZXhXF.iX>X3X{.{ `.PXPXPX",
"2Xe <XuXlXkXw.=XZXjXNXBXZXvXZXZXZXZXZXZXBXBXeXn.yXpX<X%X[.' ].PXPX",
"M XXuXyXVXdXc.H.ZXfXMXNXNXNXNXNXBXVXBXBXBXNXaXc.sXpX1X-X{.(.) GXPX",
"_ <XyXhXgXT.b.V.dXaXgXkXjXjXjXjXjXkXkXkXdXkXaXM.qXuXzX5X{.].| ].PX",
":.+XS.n.l.W W c.l.z.z.z.x.x.x.x.x.x.x.x.x.3.z.b.v.r.t.s.;.;.^.) PX",
"<X>XhXeXY.D.2.G.aXP.qXP.P.P.P.P.P.P.I.wXF.H.f.c.=XOXk.XXXX).~.` 7X",
"<X1XBXfXR.Y.W H.R.Y.vXnXUXjXgXfXNXCXmXnXbXdXD.l.P.lX:X>XXX`.^.] 3X",
"#XiXjXfXR.Y.W G.U.w.4 4 SXZXgXfXhXzX1 4 6 sXA.0.F.0XP.+X$X.X_.} ].",
"#XiXdXgXsXI.W V.m.q.T 4 xXNXR.sXzX4 6.3.m.D.r.~ F.0Xd.d.a.).~.} `.",
"+XtXaXsXsXI.E M.N.N.3.< vXBXgXrX< 9.T.T.U.T.r.! A.9Xd.d.a.).~.E.`.",
"+XrXeXwXwXF.! v.Z.K.2.< xXBXR.f.< NXuXUXSXfXe.! f.:Xk.a.a.).~.E.`.",
"oX0XeXwXwXP.P v.L.Z.<.< bXjXU.q.< g.: < zXbXe.! f.OXg.p.:.!.~.E.`.",
".X9X0XP.Y.F.L v.L.Z.4.< xXBXK.1.< : E : ; vXe.b r.OXp.9.-.;.W.E.`.",
"a.P.F.F.F.D.L w.N.C.,.; vXkXN.B ; 0.3.h : eX7.K 7.#Xp.+.@.%.W.*.`.",
".XOXF.D.D.A.b w.N.C.R ; yXgXm.B ; I.K.A ; eX~ z 7.+Xe.o...$.%.E.`.",
"s.k.F.D.D.i.b w.m.F.h.; 7.zXaXR - OXzXzX; rXP l 6.k.9.N ..U %.E.`.",
".Xk.F.D.B.i.z l.2.6.; ; ; S.P.3.k - - - i.F.m 5 E g.+.A ..' %.E.`.",
".Xk.F.i.M.q.l ^ R B k j n <.u.1.k k k h q.q.c 1 T y.( A A $.%.} `.",
";.d.A.i.u.1.5 Y Z B j j B R <.<.R n h h Z >.l > B 9.Z M N %.W.E.`.",
":.d.g.f.q.( 1 Q 1.<.>.>.<.<.<.2.2.>.T R >.>.x > B +.O.N X.*.W.} [.",
"`.a.d.p.y.o.1 Z y.y.j.j.j.j.j.j.j.F.j.i.y.y.0 > j o.@...:.!.'.] 3X",
"/.&.O.L m b l 5 c v V V V V v V V v c c x l 1 * 1 1 9 9 !.~.4XF PX",
"} (.U S 9 3 2 1 2 2 = = = @ + = = + + + X X   X # o o J '.*X X[ PX",
"F /.&.&.P d O q H p i i u i u u 0 u 0 0 0 0 O . 7 s H &XDXDX{ &XPX",
"`.{ /.*.&.H $ q ..N p p p p i i i i y y y y O o 7 &.&XHXHX|.[ PXPX",
"GX .E.}.`.*.D w ..H s s a a a p p a a t w y & % !.FXLXJX4X` |.PXPX",
"PX2X ./.|.&X'.'.).*.&.#.#.#.$.#.#.#.$.&.*.).'.*XLXIXJX4X` [.PXPXPX",
"PXPX7X| { |.&X*X6X6X6X6X6X6X6X6X6XDX6X6XGXGXGXHXLXHX^.' {.PXPXPXPX",
"PXPXPXPX`.` { `.|.*XDXDXFXFXFXGXGXFXFXFXFXFX%X|.E.) `.GXPXPXPXPXPX",
"PXPXPXPXPXPX%X*.{ ) F F F F F F F F F F F F [ | ].KXPXPXPXPXPXPXPX"
};
