/* XPM */
const char *group_xpm[] = {
/* columns rows colors chars-per-pixel */
"33 33 256 2",
"   c #4F0301",
".  c #520600",
"X  c #5C0D04",
"o  c #5C160A",
"O  c #661B04",
"+  c #6B1B01",
"@  c #671300",
"#  c #721700",
"$  c #711B02",
"%  c #781C02",
"&  c #6B2003",
"*  c #69250D",
"=  c #6C2C10",
"-  c #692411",
";  c #6F3D1D",
":  c #752402",
">  c #7B2203",
",  c #7C2A03",
"<  c #772A0B",
"1  c #7A2B12",
"2  c #7A330C",
"3  c #792F28",
"4  c #773526",
"5  c #6E4225",
"6  c #774626",
"7  c #7C563B",
"8  c #812302",
"9  c #842902",
"0  c #8D2D05",
"q  c #8D3302",
"w  c #883707",
"e  c #8B371D",
"r  c #933B01",
"t  c #973904",
"y  c #9A3E11",
"u  c #833B2E",
"i  c #8B420D",
"p  c #8A461C",
"a  c #9A4405",
"s  c #944618",
"d  c #9C5409",
"f  c #985910",
"g  c #8E4823",
"h  c #85483E",
"j  c #8D5D2D",
"k  c #815C3B",
"l  c #964824",
"z  c #9A5428",
"x  c #8D673F",
"c  c #91612F",
"v  c #9F6730",
"b  c #A44B02",
"n  c #A64803",
"m  c #A65002",
"M  c #AB5104",
"N  c #AC5A01",
"B  c #AA5318",
"V  c #BD4F17",
"C  c #B65905",
"Z  c #A64A19",
"A  c #A04F2B",
"S  c #A05929",
"D  c #A45225",
"F  c #AA5930",
"G  c #B45823",
"H  c #AF6600",
"J  c #AA660F",
"K  c #B36100",
"L  c #BB6200",
"P  c #BB6B01",
"I  c #BB692E",
"U  c #B96E31",
"Y  c #8E5745",
"T  c #8B5A54",
"R  c #817A54",
"E  c #996F5A",
"W  c #997E6A",
"Q  c #AC6C52",
"!  c #A17C5E",
"~  c #BC7B4C",
"^  c #A27871",
"/  c #C26C02",
"(  c #C37200",
")  c #C97401",
"_  c #C47903",
"`  c #C9791D",
"'  c #C1672A",
"]  c #C87733",
"[  c #DF7324",
"{  c #DC7F37",
"}  c #EC7D29",
"|  c #E97723",
" . c #F07C27",
".. c #89825D",
"X. c #87815C",
"o. c #8B8461",
"O. c #8E8868",
"+. c #948D6A",
"@. c #9F8A6E",
"#. c #928D71",
"$. c #96906E",
"%. c #99926F",
"&. c #959074",
"*. c #9B9574",
"=. c #9A947B",
"-. c #9E9877",
";. c #9F9979",
":. c #959178",
">. c #AA8A6F",
",. c #A3967B",
"<. c #B68672",
"1. c #B7836B",
"2. c #CE8301",
"3. c #D18832",
"4. c #DA913C",
"5. c #EB812E",
"6. c #EC8634",
"7. c #E98834",
"8. c #EB8C3B",
"9. c #E48737",
"0. c #E7903C",
"q. c #F48B36",
"w. c #F1923D",
"e. c #F9852C",
"r. c #CA8845",
"t. c #CA8651",
"y. c #CB9050",
"u. c #DF9B44",
"i. c #DC9B4B",
"p. c #D59959",
"a. c #D39558",
"s. c #D69E61",
"d. c #DCA65E",
"f. c #DDA862",
"g. c #E49442",
"h. c #E29D4B",
"j. c #EA9443",
"k. c #EB9846",
"l. c #E99C4B",
"z. c #E39945",
"x. c #E69955",
"c. c #F19645",
"v. c #E1A14C",
"b. c #E2A451",
"n. c #E5A955",
"m. c #E4AC5B",
"M. c #ECA65B",
"N. c #EBAD5B",
"B. c #EAA354",
"V. c #E7B25E",
"C. c #E7B366",
"Z. c #E8B66B",
"A. c #EAB667",
"S. c #EABD74",
"D. c #EBBD7B",
"F. c #E4B673",
"G. c #F2A866",
"H. c #F3A765",
"J. c #F2B876",
"K. c #E8A86A",
"L. c #EEC175",
"P. c #ECC27D",
"I. c #F4CA7F",
"U. c #F0C377",
"Y. c #9A9681",
"T. c #9D9983",
"R. c #AC8E81",
"E. c #A19B85",
"W. c #A19D89",
"Q. c #A09781",
"!. c #B79B91",
"~. c #A5A18C",
"^. c #A9A48D",
"/. c #AEA98C",
"(. c #A9A592",
"). c #ACA893",
"_. c #AEAA99",
"`. c #A7A492",
"'. c #B0AA8D",
"]. c #B2AC91",
"[. c #B1AD9B",
"{. c #B6B195",
"}. c #B3B099",
"|. c #B9B49A",
" X c #BDB89E",
".X c #B1AFA1",
"XX c #B4B2A3",
"oX c #B8B5A4",
"OX c #B9B6A9",
"+X c #BCB8A4",
"@X c #BBB9AC",
"#X c #B7B5A8",
"$X c #BFBDB1",
"%X c #CA9A83",
"&X c #C2BD9E",
"*X c #D0A68C",
"=X c #C5AEA8",
"-X c #C1BDA4",
";X c #C0BDAC",
":X c #C1BEB1",
">X c #D7BBA8",
",X c #F4B780",
"<X c #C5C0A5",
"1X c #C4C1AD",
"2X c #C9C5AD",
"3X c #CFCBAF",
"4X c #C3C0B2",
"5X c #C8C5B3",
"6X c #C8C6BC",
"7X c #CCC9B5",
"8X c #CDCABB",
"9X c #C5C4BA",
"0X c #D2CDB3",
"qX c #D1CDBB",
"wX c #DAC8BA",
"eX c #D5D1B6",
"rX c #DAD5BB",
"tX c #DDD9BD",
"yX c #F8C08A",
"uX c #F2C89D",
"iX c #EFD2AF",
"pX c #EEDCBF",
"aX c #F1CDA9",
"sX c #F2D2AA",
"dX c #F7D8B5",
"fX c #F1DABC",
"gX c #CCCAC1",
"hX c #D0CEC6",
"jX c #D5D3C1",
"kX c #D5D3CC",
"lX c #D9D5C3",
"zX c #D9D7CA",
"xX c #DEDAC4",
"cX c #DDD9C8",
"vX c #D7D6D0",
"bX c #D8D7D0",
"nX c #DAD9D2",
"mX c #DFDFD9",
"MX c #E0DBC3",
"NX c #E0DDCC",
"BX c #E9D1C4",
"VX c #E1DFD1",
"CX c #E0DFD9",
"ZX c #E4E1CC",
"AX c #EEE1CC",
"SX c #E5E2D2",
"DX c #E8E5D3",
"FX c #EBE9D7",
"GX c #ECE9D8",
"HX c #E3E2DB",
"JX c #F4E3CC",
"KX c #F2E9D9",
"LX c #EDECE0",
"PX c #F0EEE2",
"IX c #F2F1E5",
"UX c #F4F2E8",
/* pixels */
"GXGXGXGXGX7X,...R +.+.+.+.+.$.$.+.+.+.$.+.+.+.R -.+XFXGXGXGXGXFXFX",
"GXGXGX3X;.%.&XtXxXpXtXtXtXpXtXxXtXtXtXtXtXtXrXeX X;.O. XFXGXGXGXGX",
"GXGX{.o.<XtXtXtXNXNXDXKXSXDXDXDXDXZXZXDXDXZXxXrX0X2X X+.'.FXGXFXGX",
"FX{.+.eXtXxXFXUXUXUXUXUXIXIXIXIXUXUXUXUXUXUXPXLXNX7X<X X&.'.GXGXGX",
"3X..eXtXZXIXUXIXUXIXPXdX,XH.H.G.G.G.G.J.dXJXPXLXGXVXqX+X XO.{.FXFX",
";. XrXZXIXIXIXIXVXBX,Xx.c.6.q.8.c.j.c.l.H.J.AXGXHXSXcX5X+X_...cXFX",
"%.rXxXUXUXKXKXfXt.Z } }  .} 6.6.8.j.k.l.B.l.B.iXFXVXzX8X;XXX=.].FX",
"|.rXDXUXPXKXyX9.w V e.} 6.6.8.j.g.j.k.l.l.M.b.F.HXVXzX8X1X#X_...FX",
"eXtXPXIXKXJ. .[ 1 y e.q.8.c.c.k.k.j.l.l.l.h.N.p.wXVXzX8X:X@XXXo.0X",
"eXxXUXKXaX . .q.G * D 9.x.d.K.J.J.B.h.b.B.m.Z.p.<.NXlXgX:X@XXX#.<X",
"eXZXUXAXx.| 7.8.w.I e l F z s s ~ D.N.b.m.f.S.p.u =XlX8X:X:X#X:.|.",
"eXZXPXsX8.7.0.g.j.k.u.{ ] ] U S = z S.m.m.m.S.y.X ^ lX8X:X:XOXT.].",
"eXDXPXiX0.g.0.z.z.h.v.v.n.n.n.N.r.* y.V.n.C.P.A   T qX8X:X4X@XT.].",
"eXDXPXsX8.g.g.z.h.h.v.v.v.b.v.d.yXg z n.m.U.a.% . o !.8X1X:XOXT.].",
"eXDXLXuX0.z.z.i.h.i.v.v.d.b.b.C.I.6 z V.L.d.y # X   R.8X@X:XOXT.].",
"eXDXLXpXh.u.v.v.z.v.v.v.v.b.b.L.p.* 4.U.d.B 9 % @   Y 7X;X:XOXT.].",
"0XSXPXDXa.4.v.h.u.v.b.v.v.v.A.m.p D v.3.M n 0 8 # . 3 7X;X$X#XY.].",
"0XVXGXGX*XD i.x.v.n.V.V.A.S.a.l s ` / C M n t 8 # . 3 :XoX;X#XY.].",
"3XNXGXFX>Xu 0 I p.F.F.F.Z.r.1 0 C L / L C M r 9 % . h ;X#X@XXXY.].",
"2XMXDXDXAXQ # 8 0 a V J C a 1 m ) ) ) / C M r 9 + X W +X[.+XXX=.].",
"-XlXZXSXNX%X8 % 8 0 t M C C a w ) 2.) ( L M r , @ - ,.oX[.#X.XY.].",
"-XqXzXMXMXlXl % > 9 q n M C M O b 2._ P L b r : $ E |.[.(.#XXXT.].",
" X5XjXjXjXlX1.+ $ > 9 t b m N , : P _ P K d r , Y [.[.(._.OX#X:.|.",
"[.+X5X8X7XqX0X1 @ $ > 9 r a d a O a _ H N d p @.E.[.(.W..X@X@X&.-X",
").[.:X1X1X-X2X<.< O + : , q r a + + H J f j >.,./.^.W.W.$X:X9XR GX",
"=.'.oXOX+X+X+X+X>.4 = < 2 2 i i s 6 v j x ,.W.).~.E.T..X6X6X#X+.GX",
"R (.).XX_._.[.[.[.^.O.7 5 5 ; 6 6 x ,.).).^.W.W.Q.T.`.gXhXhX&.+XGX",
"].:.`._.}.`.^.^.^.^.`.`.,.;.E.^.~.~.~.~.E.E.T.T.Y.(.gXnXnX@X+.GXFX",
"xX=.T..X@XXX`.W.T.~.T.T.~.T.T.T.T.T.T.T.Y.Y.Y.W.@XkXmXmX6Xo.-XGXGX",
"FX2X;.~.@X9X9X9X@XXX.X_._._._._._._._..XXX$X6XnXCXCXmX5Xo.{.GXGXGX",
"FXFX7X,.&.@X6XkXkXvXvXvXnXnXvXvXvXnXnXnXnXnXmXCXHXnX(.O.&XGXGXGXGX",
"FXFXFXFX{...&._.@X6XkXvXvXvXvXvXvXvXvXnXnXkX9X+XW.R '.lXGXGXGXGXFX",
"FXGXGXFXGXGX+X~.$.X.R R R R R R R R R R R R +.-.{.ZXFXFXFXFXFXFXGX"
};
