/* XPM */
const char *layerminus_xpm[]={
"14 12 5 1",
". c None",
"# c #953803",
"a c #dc9c25",
"c c #ecc16c",
"b c #ffffc0",
".....###......",
"....#aba#.....",
"..#########...",
".#cccbbbccc#..",
".###########..",
"..#aacbcaa#...",
"..#a#c#c#a#...",
"..#a#c#c#a#...",
"..#a#c#c#a#...",
"..#a#c#c#a#...",
"..#aacbcaa#...",
"...#######...."};
