/* XPM */
const char *no_previous_xpm[] = {
/* columns rows colors chars-per-pixel */
"33 33 256 2",
"   c #030101",
".  c #090100",
"X  c #1B0300",
"o  c #1E0800",
"O  c #1D1309",
"+  c #2B0A00",
"@  c #360E00",
"#  c #420D01",
"$  c #4C0B00",
"%  c #420500",
"&  c #401200",
"*  c #530D00",
"=  c #482810",
"-  c #502F14",
";  c #4E2D12",
":  c #611500",
">  c #7B541D",
",  c #774E24",
"<  c #76542A",
"1  c #8F3E17",
"2  c #8C431A",
"3  c #8F4C17",
"4  c #8E4D21",
"5  c #885728",
"6  c #8E5936",
"7  c #965A36",
"8  c #945C29",
"9  c #8F6937",
"0  c #8D6B39",
"q  c #8A6834",
"w  c #956A36",
"e  c #8E6B33",
"r  c #B24828",
"t  c #BE5428",
"y  c #B35B3F",
"u  c #B86E2E",
"i  c #B56F32",
"p  c #B67A3C",
"a  c #A7663E",
"s  c #915F40",
"d  c #8F6747",
"f  c #817A54",
"g  c #90674A",
"h  c #947543",
"j  c #937B51",
"k  c #8A7845",
"l  c #AD6B45",
"z  c #A16340",
"x  c #AF6D50",
"c  c #A67C4B",
"v  c #A07B51",
"b  c #B2664A",
"n  c #B16E49",
"m  c #B66D50",
"M  c #B3734E",
"N  c #BA7A55",
"B  c #B57658",
"V  c #C6440C",
"C  c #C74C14",
"Z  c #C65622",
"A  c #D56918",
"S  c #D46C22",
"D  c #D56E28",
"F  c #D86721",
"G  c #D6732B",
"H  c #D9762B",
"J  c #D67532",
"K  c #DA7B34",
"L  c #D97D3B",
"P  c #D67935",
"I  c #88825D",
"U  c #978259",
"Y  c #8B8460",
"T  c #948D6A",
"R  c #988A60",
"E  c #958E70",
"W  c #96906E",
"Q  c #9B926E",
"!  c #959075",
"~  c #9C9574",
"^  c #9A947A",
"/  c #9E9876",
"(  c #9E997B",
")  c #959178",
"_  c #A28A5A",
"`  c #AA8A55",
"'  c #AB9359",
"]  c #B98A58",
"[  c #B3955C",
"{  c #A28973",
"}  c #A59064",
"|  c #A49A7A",
" . c #BC9C63",
".. c #BA9867",
"X. c #B89E75",
"o. c #BAA666",
"O. c #B8A279",
"+. c #DC833A",
"@. c #DD8A3C",
"#. c #D7873B",
"$. c #E38539",
"%. c #E38638",
"&. c #C18C5C",
"*. c #C0825D",
"=. c #CA9957",
"-. c #DB8343",
";. c #DC8A42",
":. c #DA8A4B",
">. c #D88649",
",. c #DD8D56",
"<. c #DE9044",
"1. c #DB9449",
"2. c #DA994B",
"3. c #DB935A",
"4. c #DA9D50",
"5. c #D39657",
"6. c #C28461",
"7. c #C79165",
"8. c #C49C6C",
"9. c #C99A69",
"0. c #C89B76",
"q. c #D99C65",
"w. c #D59D6A",
"e. c #CAA55D",
"r. c #DCA14D",
"t. c #D8A654",
"y. c #D9B55D",
"u. c #C2A265",
"i. c #C6A96B",
"p. c #CAA46B",
"a. c #C4AA65",
"s. c #CDA472",
"d. c #C8AB75",
"f. c #C8B267",
"g. c #C2B975",
"h. c #DAA16D",
"j. c #DCA167",
"k. c #D1A375",
"l. c #D7B967",
"z. c #D8B27E",
"x. c #E28F43",
"c. c #E39242",
"v. c #E79745",
"b. c #E19458",
"n. c #E19963",
"m. c #E09E7D",
"M. c #EAA74D",
"N. c #E2AB54",
"B. c #EAA654",
"V. c #E7A956",
"C. c #E6B45C",
"Z. c #E7BB66",
"A. c #E3BE71",
"S. c #E4A374",
"D. c #CEC272",
"F. c #DFC06E",
"G. c #D8C971",
"H. c #E8C46A",
"J. c #E8CD70",
"K. c #ECD374",
"L. c #E4D073",
"P. c #F3C66A",
"I. c #F3D16B",
"U. c #F2D371",
"Y. c #F9D47E",
"T. c #F7C976",
"R. c #9A9681",
"E. c #9E9A85",
"W. c #A09C86",
"Q. c #A19D89",
"!. c #A79981",
"~. c #B09F86",
"^. c #A5A28C",
"/. c #A8A38D",
"(. c #AEA586",
"). c #AAA592",
"_. c #ADA994",
"`. c #AEAA9A",
"'. c #A7A492",
"]. c #B2A483",
"[. c #B6A987",
"{. c #B2AC91",
"}. c #B1AD9A",
"|. c #BAB38E",
" X c #B6B195",
".X c #B4B09A",
"XX c #BAB495",
"oX c #B9B499",
"OX c #BDB89E",
"+X c #B1AFA1",
"@X c #B9B5A2",
"#X c #BDB9A4",
"$X c #BBB9AB",
"%X c #B5B3A4",
"&X c #C3AD81",
"*X c #C5B688",
"=X c #C3BB9D",
"-X c #D7B583",
";X c #D8B481",
":X c #D5B98C",
">X c #D4BB95",
",X c #C0BBA4",
"<X c #CABEA2",
"1X c #DABDA6",
"2X c #EBBB97",
"3X c #F0BC8D",
"4X c #E7BC89",
"5X c #C5C0A5",
"6X c #C9C5AD",
"7X c #C7C3AD",
"8X c #C4C2B5",
"9X c #C8C6BC",
"0X c #CDCAB5",
"qX c #C8C6B9",
"wX c #D3CDB3",
"eX c #D0CDB9",
"rX c #D5D1B6",
"tX c #DAD5BB",
"yX c #DED9BD",
"uX c #E8C29C",
"iX c #F4C58F",
"pX c #FBDB86",
"aX c #F3D392",
"sX c #EAC5A6",
"dX c #EFCFB5",
"fX c #E7D1B6",
"gX c #F1D9B5",
"hX c #F3D7A8",
"jX c #F9E1B0",
"kX c #CCCAC1",
"lX c #D0CEC6",
"zX c #D5D2C1",
"xX c #D5D3CC",
"cX c #DAD5C2",
"vX c #DEDAC4",
"bX c #DBD9CA",
"nX c #D7D6D0",
"mX c #D8D7D0",
"MX c #DAD9D2",
"NX c #DFDFD9",
"BX c #E0DBC2",
"VX c #E1DDCA",
"CX c #EADAC3",
"ZX c #E0DFD9",
"AX c #E4E1CC",
"SX c #E5E2D1",
"DX c #E9E5D3",
"FX c #EBE8D6",
"GX c #ECE9D9",
"HX c #E2E1DC",
"JX c #F3E6CC",
"KX c #F2E7D6",
"LX c #EFEDE0",
"PX c #F0EEE1",
"IX c #F2F1E5",
"UX c #F4F3E8",
/* pixels */
"GXGXGXGXGX0X| I f T T W W j 9 9 9 9 9 9 0 0 0 > e p 3.sXFXGXFXGXFX",
"GXFXGX6X/ Q =XyXBXBXfXyXyX>Xz.;Xz.;X;X-X-X:X:X>XO.w 3 p CXFXGXFXGX",
"GXGX XY 5XyXyXyXAXAXSXDXCXj.q.q.q.q.q.w.h.h.k.s.d.&XO.9 c FXGXFXFX",
"FX XT rXyXyXGXUXUXUXPXUX2X-.:.:.x.,.,.b.3.n.n.j.h.8.d.].0 } FXGXFX",
"6XY wXyXAXUXUXIXPXPXPXKX3.D J J P L L -.-.>.:.3.3.w.9.X.[.0 (.GXFX",
"( =XtXAXUXIXIXPXPXPXPXdXD F D G J J K L L +.;.:.:.3.9.X.O.].q yXFX",
"Q tXvXIXIXIXPXPXPXLXKXS.A D G G J J J K L @.;.;.1.5.=.p.O.(.U O.FX",
"oXtXDXIXIXDXPXGXLXPXdXL S J H J J L K x.@.;.;.1.1.5.=.=. .O.W.0 FX",
"rXyXIXIXKX4XKXPXGXJXn.S H +.%.%.@.v.@.1.<.@.<.<.1.1.=.=. .O.(.k wX",
"rXBXIXIXhXS.gXGXPXuX+.$.+.u 8 5 > < #.v.v.1.r.M.2.=.=.=. .O.].U =X",
"rXAXIXGXhXZ.aXJXdX@.H %.8 O .       O < r.V.N.t.t.r.t.e.a.O.].U XX",
"rXAXIXIXjXY.pXaXb.H +.+.= . . .       . w V.N.N.t.t.t.e.u.|.[.Q {.",
"rXDXLXPXJXpXpXpXC.@.@.@.- @ @ + + o X   - r.C.M.N.t.y.e.a.&X|.~ {.",
"rXSXIXLXGXT.P.T.P.M.@.c.4 $ $ & @ @ + X - N.C.C.y.y.y.e.o.*X|.~ {.",
"rXDXLXPXKXiXM.B.B.B.c.v.#.2 : * $ $ % # w C.H.Z.Z.y.y.f.o.*X|.~ {.",
"wXSXLXGXGXJX3Xc.$.%.$.K x.2.i 2 1 2 4 p C.H.I.J.J.H.F.D.f.*XXX| {.",
"0XSXLXGXGXGXDXuXn.J F F F H v.N.N.N.H.I.U.I.K.K.J.L.G.D.g.*XOX( {.",
"0XSXGXGXGXFXFXFXCX2X;XZ C V C G V.I.I.I.K.K.K.K.L.L.G.D.g.*XoX( {.",
"wXAXGXGXFXFXFXDXKXZX1Xb b y r r t >.C.Z.H.A.H.l.l.l.a.o.o.[.)./ {.",
"6XvXDXDXDXDXDXDXZXKX0.B B B B x b m N N N N x l z 7 7 d d { !.) {.",
"5XcXSXSXVXAXSXSXJX1X6.*.6.6.*.N M M n n p l a 7 7 7 6 6 d { !.^ {.",
"OXeXcXbXVXVXVXAXfX&X7.7.w.9.7.7.&.] &.&.&.&.] ] M c v v U ~._.^  X",
"OX6XzXzXcXcXcXvX>X9.m.w.s.p.s.s.k.p.p.s.p.p.8.8...' ' _ { {.}.^ oX",
"}.$X0X0X0XeX0X>X9.8.p.9.p.p.i.p.i.p.p.p.u.u. .[ [ ` ` _ O.XX@XE ,X",
")..X8X5X7X7X7X5X=X*X:X&Xd.s.d.i.i.i.a.a.u.o.o.[ ' ' _ R =X#X8Xf GX",
"^ _.@X@X%X@X@X#X#X#X,X,X,X,X#X=X#X#X@XOX.X.X_.).^.W.E.+XkX9X$XT FX",
"I '._.%X_.}.}.}.}.}.}.}..X}.}.}.}.{._._._./.^.Q.E.^ '.kXkXxX! #XGX",
"/.! '.+X.X'.^.^././././.'././././.^.^.^.W.E.E.R.^ `.lXnXxX$XW DXGX",
"vX~ Q.+X$X+X'.Q.W.W.W.W.W.E.W.W.E.E.E.E.E.^ R.Q.$XxXNXNX9XY 5XGXFX",
"GX7X/ Q.$X9XkX8X$X%X+X`.`.`.`.`.`.`.`.+X%X$XkXnXNXHXNX8XY oXGXGXGX",
"GXGX0X( ) $XkXlXxXxXmXmXmXmXmXmXmXmXmXmXMXMXNXHXHXnX/.T OXGXGXDXGX",
"GXGXGXDX XI ) `.$XkXxXxXmXmXmXmXmXmXmXmXnXnX8X#XQ.f {.cXDXGXGXGXGX",
"DXGXGXGXGXDX,X| ! I f f f f f f f f f f f f W /  XAXDXGXFXGXGXDXGX"
};
