/* XPM */
const char *one_backward_xpm[] = {
/* columns rows colors chars-per-pixel */
"33 33 256 2",
"   c #840A0A",
".  c #8B0C0C",
"X  c #881717",
"o  c #910D0D",
"O  c #961515",
"+  c #9F391B",
"@  c #8D3918",
"#  c #8D2222",
"$  c #932B2B",
"%  c #9B3939",
"&  c #AE3C1D",
"*  c #B13F1D",
"=  c #A13D3D",
"-  c #8C5318",
";  c #9E4B1E",
":  c #97521C",
">  c #9D413E",
",  c #9A611A",
"<  c #8A632D",
"1  c #A84A1D",
"2  c #A3581D",
"3  c #B5411B",
"4  c #B34015",
"5  c #B44B29",
"6  c #B7562A",
"7  c #B95936",
"8  c #A1711F",
"9  c #A57F22",
"0  c #B76728",
"q  c #BD6935",
"w  c #B97637",
"e  c #B77627",
"r  c #817A54",
"t  c #8B7F59",
"y  c #977753",
"u  c #AB5656",
"i  c #B15959",
"p  c #A64A49",
"a  c #AD7C44",
"s  c #B76E41",
"d  c #B37442",
"f  c #BC7558",
"g  c #B76F6E",
"h  c #B4776F",
"j  c #BB7272",
"k  c #C35C2A",
"l  c #C9632B",
"z  c #CE6331",
"x  c #C86A35",
"c  c #C47C2F",
"v  c #CA7835",
"b  c #D6662E",
"n  c #D36A35",
"m  c #D96C34",
"M  c #D76F39",
"N  c #D6703B",
"B  c #DA723A",
"V  c #DC7A3C",
"C  c #D47534",
"Z  c #E9743B",
"A  c #E5793D",
"S  c #D16D41",
"D  c #D77F47",
"F  c #DD7A43",
"G  c #D47F54",
"H  c #E97B41",
"J  c #E37943",
"K  c #A48629",
"L  c #A6913D",
"P  c #BA862C",
"I  c #B88638",
"U  c #B3903A",
"Y  c #89815D",
"T  c #8B8460",
"R  c #8E8868",
"E  c #938D6A",
"W  c #938E72",
"Q  c #96906E",
"!  c #99926F",
"~  c #959074",
"^  c #9A9473",
"/  c #9B957B",
"(  c #9E9877",
")  c #9E987B",
"_  c #959178",
"`  c #AE884C",
"'  c #A8924A",
"]  c #B08940",
"[  c #B1945D",
"{  c #A49B7D",
"}  c #BD8D6B",
"|  c #BB936E",
" . c #B79979",
".. c #B7A777",
"X. c #CF8038",
"o. c #CA8C33",
"O. c #C48937",
"+. c #C19035",
"@. c #D6863E",
"#. c #D38939",
"$. c #DC873E",
"%. c #DA8C3A",
"&. c #D48D36",
"*. c #EF8D3F",
"=. c #F49739",
"-. c #F5A438",
";. c #CA8841",
":. c #CC855A",
">. c #C8945B",
",. c #D68442",
"<. c #D58F50",
"1. c #D69757",
"2. c #C28B61",
"3. c #C79870",
"4. c #D28468",
"5. c #D79469",
"6. c #D7A857",
"7. c #DDA857",
"8. c #D8B248",
"9. c #C7AB58",
"0. c #CAA461",
"q. c #C2A577",
"w. c #C6B77A",
"e. c #E18B43",
"r. c #EA8040",
"t. c #E98748",
"y. c #E68C56",
"u. c #E59C47",
"i. c #F28E40",
"p. c #F2894D",
"a. c #F39041",
"s. c #F69F42",
"d. c #F39355",
"f. c #E59F76",
"g. c #E1AA54",
"h. c #E9B846",
"j. c #E3BF56",
"k. c #F5A345",
"l. c #F6A940",
"z. c #F7B349",
"x. c #F8BA52",
"c. c #F3B853",
"v. c #E1BB64",
"b. c #F0A470",
"n. c #F8B16D",
"m. c #F5C03E",
"M. c #D5C878",
"N. c #E7D05D",
"B. c #F4C345",
"V. c #F6CE55",
"C. c #E7C768",
"Z. c #E5CA61",
"A. c #E6D375",
"S. c #EFE67E",
"D. c #F0E07D",
"F. c #9A9681",
"G. c #9D9A84",
"H. c #A09C86",
"J. c #A19D89",
"K. c #AF9F81",
"L. c #BF8C83",
"P. c #B49E80",
"I. c #A5A28C",
"U. c #A8A38D",
"Y. c #AEA98C",
"T. c #A9A593",
"R. c #ACA994",
"E. c #AEAA9A",
"W. c #A7A492",
"Q. c #B1A98C",
"!. c #B9AC88",
"~. c #B5A485",
"^. c #B2AC92",
"/. c #B1AE99",
"(. c #B6B195",
"). c #BAB49A",
"_. c #BDB89E",
"`. c #B8B297",
"'. c #B1AFA1",
"]. c #B5B2A3",
"[. c #B9B5A2",
"{. c #B9B6AA",
"}. c #BDB9A3",
"|. c #BBB9AC",
" X c #C58685",
".X c #C48B87",
"XX c #CB9292",
"oX c #C89E95",
"OX c #C79A90",
"+X c #D29B9B",
"@X c #C8AC8E",
"#X c #C4BB99",
"$X c #D9B999",
"%X c #CFABA0",
"&X c #C0BCA4",
"*X c #C1BEAE",
"=X c #C2BFB2",
"-X c #D8BAA5",
";X c #D7A7A6",
":X c #E3AD86",
">X c #DEC598",
",X c #C5C0A5",
"<X c #C5C1AD",
"1X c #C9C5AD",
"2X c #CDCAAA",
"3X c #C4C1B4",
"4X c #CAC6B1",
"5X c #C8C6BC",
"6X c #CDCAB5",
"7X c #CBC9BA",
"8X c #C5C4BA",
"9X c #D2CDB3",
"0X c #D1CEB9",
"qX c #D5D1B6",
"wX c #DAD5BB",
"eX c #DDD9BD",
"rX c #D4D1BC",
"tX c #FDC887",
"yX c #F0C099",
"uX c #E9C7A8",
"iX c #F6CFAC",
"pX c #F5D1B1",
"aX c #F9D5B5",
"sX c #F8E884",
"dX c #F9E98C",
"fX c #F5E481",
"gX c #F9EB93",
"hX c #FCE8AB",
"jX c #CCCAC1",
"kX c #D7CDC3",
"lX c #D5D2C1",
"zX c #D5D3CC",
"xX c #D9D5C2",
"cX c #D8D7CF",
"vX c #DDD9C4",
"bX c #DDDAC9",
"nX c #D7D6D0",
"mX c #D8D7D0",
"MX c #DAD9D2",
"NX c #DFDFD9",
"BX c #E0DBC3",
"VX c #E2DECB",
"CX c #E0DFD9",
"ZX c #E4DED1",
"AX c #E4E1CC",
"SX c #E5E2D1",
"DX c #E8E5D3",
"FX c #ECE7D9",
"GX c #EBE8D6",
"HX c #ECE9D9",
"JX c #E2E1DC",
"KX c #F0EDDF",
"LX c #EDECE0",
"PX c #F0EEE0",
"IX c #F2F0E5",
"UX c #F4F2E8",
/* pixels */
"GXGXGXHXGX6X{ Y r Q E E Q E E E E E E E E E E r ( &XHXHXGXGXHXGXHX",
"GXGXGX1X{ ! ,XwXeXeXeXeXeXeXeXeXeXeXeXeXeXeXwXqX).( R _.HXGXGXHXGX",
"GXGX).T ,XeXeXeXAXAXAXDXDXDXDXDXDXDXDXDXSXAXbXrX9X1X).E Q.GXHXGXGX",
"HX).E qXeXeXGXIXUXUXUXUXIXUXIXUXIXUXUXUXUXUXIXLXAX9X,X[.~ Y.HXGXHX",
"1XT 9XeXAXIXUXIXUXIXIXIXIXIXIXIXIXIXPXPXPXPXIXLXLXNX0X&X_.R (.GXGX",
"{ #XeXAXUXIXIXHXPXPXPXPXKXKXKXIXKXd.p.p.p.p.p.p.y.y.5.3. .~.< bXHX",
"! wXvXIXIX;XO p HXPXHXIXKXKXIXKXb.Z Z Z H H H J F F G 2.}  .y Q.GX",
"_.qXDXIXIX+XO > GXHXIXHXIXHXHXKXt.*.Z *.H r.H H J F ,.:.:.| { Y GX",
"9XeXIXIXPXXXo = KXKXKXGXHXIXHXn.i.i.a.*.a.a.a.a.*.e.%.<.>.| ~.Y qX",
"qXBXIXIXKXXXo = FXKXKXKXKXKXtX=.s.-.k.k.k.k.k.k.k.u.u.1.>.q...E ,X",
"qXAXIXKXKX.X  % DXKXKXKXKXhXl.-.l.z.z.x.x.V.c.c.c.j.g.6.0.q.Q.^ `.",
"qXAXIXKXHX X  % ZXHXKXGXhXV.B.B.B.-.m.m.m.z.B.B.h.-.8.8.9.w.!./ ^.",
"qXDXPXPXKX X  % DXHXHXHXgXgXgXgXgXdXsXsXsXsXsXfXfXA.A.M.w.,X!.{ ^.",
"qXDXkXg  Xi . $ j oX.XHXHXHXHXKXKXHXKXKXHXHXHXGXSXbXkX7X=X=X|.) ^.",
"qXDXoX> X X X X X X .XHXHXHXHXHXHXHXHXHXFXHXFXDXSXbX0X7X*X=X|.G.^.",
"9XSXPX%X# X X   $ h GXGXHXHXHXHXHXHXHXaXiXpXpXpXuXuX$X$X@X&X).) ^.",
"9XSXHXFXOXX   $ -XGXHXGXHXHXFXFXHXHXpXV B V F B M n x q q }  ./ Y.",
"6XDXHXHXDXu   XXFXGXFX-XGXGXGXFXGXGXe.B N N m b b z l q d }  ._ ^.",
"2XAXFXFXGXVXi GXFXGX>X#.1.HXFXFX$XV m m C B B B C C x q d }  .F.^.",
"1XbXDXDXDXDXDXDXDXGXN.N.v.:Xf.S m m B V V V V B C C x w d | P.F.^.",
",XxXSXAXVXSXSXSXSXAX#.Z.S.C.z 5 k M $.e.e.e.$.@.X.v w w a  ...F.^.",
"}.0XbXbXVXVXVXVXAXVXl l g.A.g.6 5 6 C %.*.%.%.&.O.X.O.] ` ~./.F.(.",
"_.4XlXlXkXxXxXBXvXBX:X* k @.7.;.6 1 6 v #.%.&.&.o.+.I ] [ !.]./ ).",
"/.}.8X6X0X0X0X0X0XrXrX4.& 3 l v q 1 1 0 c O.o.o.+.U U ] ..`.|.W ,X",
"T./.3X*X<X1X1X1X4X4X4X4X4X7 3 4 1 ; : 2 e e P P U U L ' #X}.8Xr GX",
") R.[.{.[.[.[.}.}.}.,X}.,X|.&Xf 5 & @ - - : 8 K K K L ..2X4X{.E HX",
"Y W.R.].E.E././././././././././.E./.R.R.U.U.I.G.H.F.W.jXjXlX~ _.GX",
"Y.W W.E./.W.U.U.U.U.U.W.U.U.U.U.I.I.I.I.I.G.G.G./ R.jXMXMX|.Q GXHX",
"vX( J.E.|.].W.G.G.G.I.G.G.G.G.G.G.G.G.G.G.G./ G.|.zXNXNX5XT ,XHXGX",
"GX<X) I.|.5X5X8X|.[./.'.E.E.E.E.E.E.E./.[.|.jXzXNXJXNX8XR (.HXGXHX",
"HXGX4X{ _ {.jXzXzXzXnXnXMXMXMXcXnXMXMXMXMXMXNXNXJXcXU.R _.GXHXGXGX",
"GXHXHXFX(.T W R.|.jXzXzXnXMXMXnXnXnXnXMXcXzX8X}.G.Y Y.xXHXHXGXHXGX",
"HXGXHXGXGXHX&X{ Q Y r r r r r r r r r r r r E ( (.AXGXGXHXGXHXGXHX"
};
