/* XPM */
const char *one_forward_xpm[] = {
/* columns rows colors chars-per-pixel */
"33 33 256 2",
"   c #6F0C0C",
".  c #791313",
"X  c #8A1B1B",
"o  c #841717",
"O  c #8C2222",
"+  c #8D3333",
"@  c #932C2B",
"#  c #963534",
"$  c #944420",
"%  c #9F562F",
"&  c #8B5133",
"*  c #98613D",
"=  c #A74920",
"-  c #AC4926",
";  c #A9552A",
":  c #A55C38",
">  c #BB4D29",
",  c #B34A29",
"<  c #B94E32",
"1  c #BC552B",
"2  c #BD5A2C",
"3  c #B35426",
"4  c #B95636",
"5  c #AB6835",
"6  c #AC7A35",
"7  c #B6652A",
"8  c #BF6636",
"9  c #BB762C",
"0  c #BD7035",
"q  c #9D4343",
"w  c #9F5453",
"e  c #817A54",
"r  c #8C7D57",
"t  c #9F7E68",
"y  c #A04646",
"u  c #A2514E",
"i  c #A65150",
"p  c #A77044",
"a  c #BC6444",
"s  c #BA664A",
"d  c #BB714A",
"f  c #B9765A",
"g  c #AC6560",
"h  c #B47A67",
"j  c #C14D2A",
"k  c #C15A2D",
"l  c #C45E33",
"z  c #C15C3B",
"x  c #C66B2C",
"c  c #C26230",
"v  c #CA6736",
"b  c #C87E2C",
"n  c #CB773E",
"m  c #D26F39",
"M  c #D36A35",
"N  c #D57B39",
"B  c #C36242",
"V  c #C56B46",
"C  c #C56A4A",
"Z  c #CA6C46",
"A  c #CA6D4C",
"S  c #C77346",
"D  c #CD7642",
"F  c #CC704A",
"G  c #C57A4B",
"H  c #CD7951",
"J  c #C57351",
"K  c #D27744",
"L  c #AF8E2F",
"P  c #A88A39",
"I  c #B5822E",
"U  c #B99731",
"Y  c #88825D",
"T  c #8B8461",
"R  c #938D6A",
"E  c #938E72",
"W  c #96906E",
"Q  c #99926F",
"!  c #959074",
"~  c #9A9474",
"^  c #9B957C",
"/  c #9E9877",
"(  c #9E997A",
")  c #959178",
"_  c #B58657",
"`  c #BF975F",
"'  c #A8856D",
"]  c #AC8D73",
"[  c #A29C7C",
"{  c #AF957A",
"}  c #B2876A",
"|  c #BB9765",
" . c #B59775",
".. c #A7A07E",
"X. c #BEA47B",
"o. c #C38C2F",
"O. c #CB9331",
"+. c #D68438",
"@. c #D99738",
"#. c #C9A235",
"$. c #D3AA39",
"%. c #DCA13C",
"&. c #D2A837",
"*. c #E2933D",
"=. c #CA8657",
"-. c #CC9553",
";. c #C99058",
":. c #D68340",
">. c #D88643",
",. c #D9874D",
"<. c #D78D55",
"1. c #D98555",
"2. c #DB8655",
"3. c #DB9749",
"4. c #DB9C5B",
"5. c #D99657",
"6. c #DE8B61",
"7. c #D7A844",
"8. c #D7A358",
"9. c #D7BC59",
"0. c #C7A663",
"q. c #CABA67",
"w. c #C5B372",
"e. c #D9A766",
"r. c #D9B363",
"t. c #E18F4F",
"y. c #E59945",
"u. c #EA9D54",
"i. c #E68A55",
"p. c #E8A24D",
"a. c #E4A35E",
"s. c #EBA459",
"d. c #E4AB59",
"f. c #EAB44C",
"g. c #E5BA51",
"h. c #E5AA65",
"j. c #E5B968",
"k. c #E7B872",
"l. c #CFC35F",
"z. c #D8C757",
"x. c #E6C858",
"c. c #E8C263",
"v. c #EBC071",
"b. c #EDD26E",
"n. c #EFD378",
"m. c #F3D373",
"M. c #9A9580",
"N. c #9D9A84",
"B. c #A69582",
"V. c #A19C85",
"C. c #A19D89",
"Z. c #AA9A83",
"A. c #AD9E89",
"S. c #A5A28C",
"D. c #A8A38C",
"F. c #AEA88A",
"G. c #A9A483",
"H. c #A9A593",
"J. c #ABA895",
"K. c #AEAA9A",
"L. c #A7A493",
"P. c #B2AB8C",
"I. c #B7A686",
"U. c #B3AD91",
"Y. c #B1AD9A",
"T. c #B9AF90",
"R. c #B9B48D",
"E. c #BBBA8D",
"W. c #B6B194",
"Q. c #B3B099",
"!. c #BAB599",
"~. c #BEB896",
"^. c #BDB89E",
"/. c #BBB492",
"(. c #B1AFA1",
"). c #B5B2A4",
"_. c #B9B5A4",
"`. c #B9B6A9",
"'. c #BDB9A3",
"]. c #BBB9AB",
"[. c #BFBDB0",
"{. c #C38484",
"}. c #C89E95",
"|. c #CCA59D",
" X c #C3B785",
".X c #C1BC9B",
"XX c #C1B997",
"oX c #DAAB8B",
"OX c #DBAC9A",
"+X c #C8A687",
"@X c #C1BDA4",
"#X c #C0BCA8",
"$X c #C2BFB2",
"%X c #D1B2A9",
"&X c #E4AB87",
"*X c #EAB38C",
"=X c #ECBC9C",
"-X c #C4C280",
";X c #DACB90",
":X c #C5C0A5",
">X c #C5C1AD",
",X c #C9C5AD",
"<X c #CFCBAF",
"1X c #C4C2B4",
"2X c #CAC6B1",
"3X c #C8C6BB",
"4X c #CDCAB5",
"5X c #CCCABD",
"6X c #C5C3B9",
"7X c #D2CDB3",
"8X c #D1CEBA",
"9X c #DBC3B8",
"0X c #DFD1AB",
"qX c #D5D1B6",
"wX c #D4D1BC",
"eX c #DAD5BB",
"rX c #DDD9BD",
"tX c #E6C29A",
"yX c #ECCEB3",
"uX c #EAD9BC",
"iX c #F2C9B3",
"pX c #CCCAC1",
"aX c #D0CEC4",
"sX c #D5D2C1",
"dX c #D5D3CC",
"fX c #D9D5C3",
"gX c #D8D7CF",
"hX c #DDD8C4",
"jX c #DDDAC9",
"kX c #D7D6D0",
"lX c #D8D7D0",
"zX c #DAD9D2",
"xX c #DFDFD9",
"cX c #E1C8C2",
"vX c #E0DCC3",
"bX c #E2DECB",
"nX c #E2D3C5",
"mX c #E7DFD0",
"MX c #E0DFD9",
"NX c #E8DED0",
"BX c #E4E1CC",
"VX c #EAE3CD",
"CX c #E6E3D1",
"ZX c #E9E5D3",
"AX c #ECE5D8",
"SX c #EBE8D6",
"DX c #ECE9D9",
"FX c #E2E1DC",
"GX c #F2E7C7",
"HX c #F0ECDF",
"JX c #F2EDD7",
"KX c #F5F1DF",
"LX c #EEECE0",
"PX c #F0EEE1",
"IX c #F2F0E5",
"UX c #F4F2E8",
/* pixels */
"DXDXDXDXSX4X[ Y e W R R R R R R R R R R R R R e / '.SXSXSXDXSXDXDX",
"DXSXDX,X[ Q .XeXrXrXrXrXrXrXrXrXrXrXrXrXrXrXeXqX!.( R ^.DXSXDXSXDX",
"SXDXW.T :XrXrXrXBXBXBXVXZXZXZXZXVXZXZXZXCXBXnXsX4X,X!.R F.DXSXDXSX",
"DXW.R qXrXvXSXUXUXUXUXKXUXUXIXUXUXUXUXUXUXUXUXLXBX7X:X'.! F.DXSXDX",
",XT qXrXBXUXUXIXUXIXDXGXPXIXIXIXKXKXIXIX*X*X&X&XoXoX+XI.P.r W.DXSX",
"[ .XeXBXUXIXKXKXLXPXJX8.OXAXPXPXPXPXPXF v B A A f J h } { Z.e bXDX",
"Q eXhXUXUXLXLXLXPXPXe.8.: cXLXLXPX=XB < 4 z A C a s f h } Z.R U.SX",
"~.eXDXUXLXLXLXKXPXKXc.d.5 %XAXLX5.z 4 a B A Z B B s d f } ] Z.Y SX",
"4XrXLXIXPXLXcXPXLXDXm.m.c.d 4 j , < a C A A F A Z S G =._ } D.T 8X",
"qXvXIXIXLX{.# NXPXHXk.k.n.c.2 , 1 1 V F H H 1.<.<.,.-.;.`  .F.R :X",
"qXCXIXKXPX# X i AXLXyXu.h.k.d.l - k K H 1.5.5.4.4.3.-.-.;. .I.) !.",
"qXZXLXLX{.X O @ }.DXDX1.K a.h.s.v , v N ,.4.4.4.4.-.8.0.w. XT.^ U.",
"qXZXPX|.@ X O O y AXDXLX2.m t.h.u.N > k *.p.f.d.h.r.q.q.w.-X!.( U.",
"8XCXAXq @ O O O @ u DXDXHXiX6.m t.u.y.2 3 *.f.g.g.z.9.l.q.X.E.( U.",
"qXZX9Xh nXu X CXg @ VXDXDXDXDXDX&Xi.s.j.n 0 g.x.x.x.z.l.q.w./.( U.",
"7XZXHXDXDXi X AXAXAXDXDXDXDXDXDXDXJXSXJXSXVXVXVXjXrXqX<X[.$X].N.U.",
"4XCXLXDXDXq o SXDXSXSXSXDXDXDXDXDXSXDXDXDXDXZXCXzXhX8X2X].[.`.N.P.",
"4XCXLXDXDXq o SXSXSXSXSXAXDXAXDXAXSXSXSXDXDXZXCXjXfX5X>X`.].).^ U.",
"<XBXDXSXSXq . SXSXSXSXSXSXSXVXtX2.,.,.D G H =.=.G c ; % * ] A.^ U.",
",XhXZXSXCXq . SXZXSXSXZXSXZXNXoXM M v l l 2 2 3 - = $ & & t B.^ U.",
":XrXCXCXBX+   CXVXCXBXZXZXVXuXh.K :.K D D n v c 2 3 = % * R B.M.U.",
"^.8XgXhXjXw + BXBXbXBXBXbXbXtX4.>.>.>.+.+.N N x 9 7 7 5 p ] A.M.U.",
"!.2XsXsXfXfXfXfXhXhXhXhXjX0Xk.3.3.y.@.*.@.@.+.O.b x 9 6 f I.Y.[ !.",
"Q.'.3X4X7X5X8XwXwXwXwXwX;Xr.7.$.@.%.%.%.@.@.@.O.o.I 6 P | +X`.E :X",
"H.Q.>X>X>X>X,X,X4X2X2X;X9.7.$.$.&.&.&.&.#.#.#.U U L P P  X!.6Xe SX",
"^ H._._._._.^.`.'.^.'.:X.X~..X.X~.~.~./.R.R.F.G.../ ( Q.3X3X`.R DX",
"Y L.J.).K.K.Q.K.Y.Y.Y.Q.W.W.P.P.P.P.P.F.F.G.G.N.( ^ D.pXpXdX! ^.DX",
"F.) L.(.Q.L.D.D.D.D.D.L.S.S.D.D.D.D.S.S.V.V.N.M.^ J.pXzXgX`.Q DXSX",
"hX/ N.(.].).L.N.N.N.S.N.C.N.N.N.N.N.N.N.^ N.M.S.].gXMXzX3XT :XDXDX",
"DX,X( S.].3X3X6X]._.(.K.K.K.K.K.K.K.K.)._.].3XkXMXFXMX6XT !.DXSXSX",
"DXDX<X( ) ].pXaXdXdXdXzXzXzXzXgXzXzXkXzXzXzXxXMXFXkXL.R ^.DXSXDXDX",
"DXSXSXSXQ.T ) K.].pXdXdXdXgXkXkXkXkXkXkXgXdX6X`.S.e F.rXSXSXDXSXSX",
"SXDXSXDXSXDX^...W Y e e e e e e e e e e e e W / Q.jXDXSXDXSXDXSXDX"
};
