/* XPM */
const char *open_xpm[] = {
/* columns rows colors chars-per-pixel */
"33 33 257 2",
"   c #260A00",
".  c #380A00",
"X  c #351100",
"o  c #3B1500",
"O  c #3F3603",
"+  c #4A0D00",
"@  c #4C1400",
"#  c #591400",
"$  c #422107",
"%  c #522300",
"&  c #512109",
"*  c #562F16",
"=  c #563219",
"-  c #593217",
";  c #543821",
":  c #6B1A00",
">  c #641906",
",  c #701C05",
"<  c #6B2109",
"1  c #652701",
"2  c #6A360F",
"3  c #663719",
"4  c #762000",
"5  c #7D2B00",
"6  c #722507",
"7  c #793603",
"8  c #632D15",
"9  c #6F4700",
"0  c #674728",
"q  c #7B4C29",
"w  c #75573B",
"e  c #796B49",
"r  c #737061",
"t  c #852801",
"y  c #883703",
"u  c #942B00",
"i  c #942700",
"p  c #923100",
"a  c #953702",
"s  c #A43900",
"d  c #A23500",
"f  c #8E440F",
"g  c #84411A",
"h  c #8D5100",
"j  c #9B4A00",
"k  c #964603",
"l  c #9D5901",
"z  c #99551F",
"x  c #8C582E",
"c  c #9B5D20",
"v  c #986801",
"b  c #9B7F11",
"n  c #996615",
"m  c #8E6821",
"M  c #9D7120",
"N  c #9A6839",
"B  c #AA4401",
"V  c #A94A00",
"C  c #A54807",
"Z  c #A15A01",
"A  c #A65401",
"S  c #B44B01",
"D  c #B34700",
"F  c #B75301",
"G  c #B35B02",
"H  c #BB5904",
"J  c #A66804",
"K  c #AC7807",
"L  c #B96507",
"P  c #BB6417",
"I  c #B47600",
"U  c #B5702E",
"Y  c #B67E36",
"T  c #8B6340",
"R  c #817A54",
"E  c #857E59",
"W  c #906E4F",
"Q  c #9D7147",
"!  c #9C7954",
"~  c #A27944",
"^  c #C95100",
"/  c #C46202",
"(  c #C86904",
")  c #C87607",
"_  c #CA7518",
"`  c #D17B08",
"'  c #D47B11",
"]  c #C37A25",
"[  c #BB8700",
"{  c #BC9A04",
"}  c #B49F10",
"|  c #BEA605",
" . c #88825D",
".. c #8B8462",
"X. c #898673",
"o. c #8C8976",
"O. c #8E8A78",
"+. c #938D6A",
"@. c #97896B",
"#. c #918D76",
"$. c #96906E",
"%. c #98916E",
"&. c #969175",
"*. c #9B9373",
"=. c #9E9877",
"-. c #99957D",
";. c #A7815A",
":. c #B8814D",
">. c #A58D70",
",. c #A39979",
"<. c #A58C6C",
"1. c #C98504",
"2. c #CC8617",
"3. c #CE9308",
"4. c #D78705",
"5. c #D58618",
"6. c #D69615",
"7. c #D79909",
"8. c #C98E27",
"9. c #C78A35",
"0. c #D78925",
"q. c #DA9525",
"w. c #D89638",
"e. c #C5A905",
"r. c #CDB207",
"t. c #CDB312",
"y. c #D6A404",
"u. c #D7A518",
"i. c #D8B708",
"p. c #D6B710",
"a. c #DCA528",
"s. c #D8BE25",
"d. c #DCA438",
"f. c #E28E05",
"g. c #E49B00",
"h. c #E79805",
"j. c #E0941F",
"k. c #E29A2A",
"l. c #E29C36",
"z. c #E7A706",
"x. c #EBA71C",
"c. c #E6B909",
"v. c #EEB11E",
"b. c #F0B206",
"n. c #F0B11C",
"m. c #E8A727",
"M. c #E6A638",
"N. c #E4BA27",
"B. c #ECB139",
"V. c #F0B525",
"C. c #F1BB3A",
"Z. c #C78843",
"A. c #CCA470",
"S. c #EBB447",
"D. c #DFC506",
"F. c #DCC02E",
"G. c #DAC232",
"H. c #E8CA0D",
"J. c #E8C71A",
"K. c #F0D306",
"L. c #F2D613",
"P. c #ECC72A",
"I. c #E4CA37",
"U. c #ECD33D",
"Y. c #F2D826",
"T. c #F1D732",
"R. c #F5C332",
"E. c #ECCC40",
"W. c #E2CB42",
"Q. c #EBD247",
"!. c #F2D746",
"~. c #F3DB54",
"^. c #F4DD5A",
"/. c #F4C753",
"(. c #F1C563",
"). c #F6D372",
"_. c #F5E065",
"`. c #F6E475",
"'. c #928F81",
"]. c #949282",
"[. c #999684",
"{. c #9D9984",
"}. c #9D9A8A",
"|. c #989588",
" X c #A19C85",
".X c #A19D8A",
"XX c #A5A18D",
"oX c #ADA88B",
"OX c #A5A292",
"+X c #A9A692",
"@X c #ACA99B",
"#X c #ABA896",
"$X c #B6A888",
"%X c #B1AD9C",
"&X c #B4AF93",
"*X c #B6B195",
"=X c #BDB89E",
"-X c #B7B298",
";X c #B1AEA0",
":X c #B4B2A3",
">X c #BDBAAD",
",X c #B7B5A8",
"<X c #BDBBB1",
"1X c #C0AF93",
"2X c #C1BC9E",
"3X c #DFB588",
"4X c #D0B88F",
"5X c #C1BDAC",
"6X c #C1BDA3",
"7X c #C0BEB2",
"8X c #DFC598",
"9X c #C7C3A7",
"0X c #C2C0B5",
"qX c #C5C3B9",
"wX c #C8C6BD",
"eX c #CBC8BD",
"rX c #D0CBAE",
"tX c #D2CDB2",
"yX c #D6D2B6",
"uX c #DAD5BA",
"iX c #DDD8BD",
"pX c #D6D2B9",
"aX c #E7C69B",
"sX c #EBD083",
"dX c #F7D78B",
"fX c #ECDDB9",
"gX c #E8CEAB",
"hX c #F8E88A",
"jX c #EEE2BB",
"kX c #F7E5B8",
"lX c #F9E3AA",
"zX c #CCCAC1",
"xX c #D0CEC4",
"cX c #D4D3CA",
"vX c #DBD7C4",
"bX c #DCDBD3",
"nX c #D9D7D1",
"mX c #E1DCC4",
"MX c #E0DDD0",
"NX c #E0DFDA",
"BX c #E4E1CB",
"VX c #E8E4CF",
"CX c #E6E3D4",
"ZX c #E3E2DA",
"AX c #E8E5D3",
"SX c #ECE8D6",
"DX c #EDEADC",
"FX c #E8E6D8",
"GX c #F1E8CB",
"HX c #F0EDDE",
"JX c #F1EAD4",
"KX c #EDEBE0",
"LX c #F0EEE1",
"PX c #F2F0E5",
"IX c #F4F2E8",
"UX c gray100",
"YX c None",
/* pixels */
"YXYXYXYXYXYXO ,. .e *.$.$.+.$.+.+.+.+.+.+.+.+.+.e ,.>XYXYXYXYXYXYX",
"YXYXYXYXO =.%.>XuXvXiXiXiXiXiXiXiXuXiXuXpXyXrX9X9XoX&.+.=XYXYXYXYX",
"YXYXYX*X .9XfXiXfXvXVXAXVXFXAXAXAXFXVXVXMXCXvXpX9X=X-X+X..oXYXYXYX",
"YXYX-X+.uXiXiXFXIXIXIXIXIXPXIXIXIXPXIXIXIXLXKXFXbXxX>X*X#X+.oXYXYX",
"YXO  .uXiXBXPXIXIXLXkXPXPXPXPXPXPXPXIXaXfXHXDXZXMXvXeX>X%X#X..*XYX",
"YXO 9XiXBXIXPXPXPXLXb.).LXHXPXKXLXLX!.y.` 3XDXFXMXvXeX7X:X@XOX .O ",
"O e iXiXPXPXPXHXLXDXg.g.R.HXKXKXHXhXK.K.y.Z w.MXMXcXeX5X:X;X@X#.*X",
"=.2XiXFXPXPXLXHXDXJXg.( f.b.lXKXHXL.L.Y.L.i.l G rXvXeX7X:X;X,X@X .",
" .uXiXPXPXLXHXHXHXGXz.4.^ f.g.KX`.L.T.~.!.Y.H.J V A.qX<X:X@X>X,X..",
"R iXmXIXLXHXHXHXHXGXz.z.h.4.4.).L.L.^._.^.~.U.H.[ k 9.0X:X@X<X<X&.",
"$.iXBXIXLXHXHXDXHXJXz.m.j.f.1.i.L.T.^.~.`._.Q.U.J.{ h v $X#X0X0X-.",
"$.iXVXPXHXHXHXHXDXHXy.B.m.q.) y.H.T.^._._._.^.U.G.D.| v n ,.0XqX{.",
"$.uXjXdXHXHXDXDXDXSXu.d.a.q.5.2.c.P.!.^.^.~.~.Q.I.s.t.| b m 1XqX X",
"$.uXjXC./.JXDXDXDXSX8.w.a.6.6.1.4.H.P.E.~.~.Q.Q.W.s.t.e.} M $XqX X",
"%.uXjXC.n.V.kXDXSXSX9.8.q.6.6.1.1.` c.P.E.Q.Q.Q.W.G.t.e.K c 5X7X.X",
"%.uXjXC.v.b.z.dXDXSX9._ 2.6.2.` ` ) ) z.J.R.E.Q.W.s.r.} C ~ 7XwX X",
"@.uXkXB.x.V.n.h.(.SXY ) I _ ` L ) ( ( ) z.J.E.G.W.t.r.l f OX0XqX X",
"*.uXfXB.m.m.B.m.h.S._ G G G G F H H / F H 7.P.N.G.p.1.t ! OX0XqX X",
"@.uXfXM.k.M.M.S.m.6.4.L A j C C V D B V A 7.s.u.p.r.a 7 OXOX<XqX,.",
"@.yXgXM.k.M.l.M.M.q.5.1.Z k p p u p u a a 7.a.u.y.J : @.+XXX<XqXXX",
"%.yXaXw.k.l.k.l.l.k.j.4.) Z a t : 4 4 t 5 1.u.3.I 4 q #XXX}.0X0X{.",
"@.rXaXZ.0.k.0.0.q.0.5.f.` / Z 7 : # # : 6 [ 3.1.y @ #X+XXX}.qXwXXX",
"+.9X8Xw.] ' 0.0.0.' ' ' ` / H k 7 1 + + > [ 1.v o w #XXX}.OXwXeX{.",
"R 2X4X:.] _ ] ] _ ( _ _ L ^ ^ S y 6 # . + I [ 1 $ }.oX}.{.:XzXxX-.",
" .-X$X:.U P P P _ P S S S F S D B 7 % X   v v o r XX.X{.[.qXcXcXe ",
"oXXX$X:.N z A V C s d s d d d s s s y % X 9 % = #. X[.-.@XcXnX7X+.",
"$  .,.;.W x g y a u u i i i i i u u u 6 % 1 2 X. X[.-.OXcXbXbX&.=X",
"YXoX,.<.! T q 0 8 < 6 , > < > < : 6 6 6 & & 0 [.-.-.+XxXbXZX>X&.YX",
"YXO =.=.>.! W w 0 ; ; = * - - * - * * - 3 3 - e }.<XnXZXZXzX..O YX",
"YXYXO =.[.@X,X>X:X@X}.|.].'.'.'.|.|.}..X}.OX:X<XzXnXbXbXwX..-XYXYX",
"YXYXYXO ,.@.@X,X7X7XwXwXwXzXwXzXzXzXwXwXzXzXzXxXnXbXcX+X+.=XYXYXYX",
"YXYXYXYX$ -XE o..X%X<X7XwXwXwXwXwXwXwXwXwXzXzX>X,X XE oXO YXYXYXYX",
"YXYXYXYXYXYXYX6X,.$. .R R R R R R e  .R R R R $.=.-XO YXYXYXYXYXYX"
};
