/* XPM */
const char *perspective_xpm[] = {
/* columns rows colors chars-per-pixel */
"33 33 256 2",
"   c #2E0F09",
".  c #360A02",
"X  c #3B1208",
"o  c #391C15",
"O  c #3A241D",
"+  c #450F02",
"@  c #471304",
"#  c #421E13",
"$  c #5D1B04",
"%  c #551704",
"&  c #4E2317",
"*  c #552414",
"=  c #54271B",
"-  c #48332B",
";  c #543429",
":  c #681F06",
">  c #6A2006",
",  c #692208",
"<  c #682E19",
"1  c #622917",
"2  c #6E301A",
"3  c #722609",
"4  c #762808",
"5  c #782909",
"6  c #782508",
"7  c #712C13",
"8  c #7F300D",
"9  c #7A351B",
"0  c #73331B",
"q  c #653323",
"w  c #783B24",
"e  c #54413A",
"r  c #724A3D",
"t  c #7E5435",
"y  c #684B40",
"u  c #735B50",
"i  c #685C56",
"p  c #7C6B5B",
"a  c #7D7068",
"s  c #872C06",
"d  c #82320B",
"f  c #8A330A",
"g  c #8D390C",
"h  c #8B3912",
"j  c #93350B",
"k  c #933D0E",
"l  c #983710",
"z  c #AB3E0E",
"x  c #99400F",
"c  c #954112",
"v  c #9C4312",
"b  c #9B4615",
"n  c #834F2A",
"m  c #8B5024",
"M  c #86533F",
"N  c #975323",
"B  c #A6470E",
"V  c #A34413",
"C  c #A34B13",
"Z  c #AC4A15",
"A  c #AB5214",
"S  c #A65015",
"D  c #B34813",
"F  c #B65415",
"G  c #A35424",
"H  c #A55728",
"J  c #A9652D",
"K  c #B6642A",
"L  c #B96C36",
"P  c #B87438",
"I  c #817A54",
"U  c #936F5B",
"Y  c #846A5A",
"T  c #8D7666",
"R  c #827871",
"E  c #9A7F6A",
"W  c #BB7947",
"Q  c #BF7956",
"!  c #C34710",
"~  c #C25517",
"^  c #D15D18",
"/  c #CC6E28",
"(  c #C27C3A",
")  c #C27437",
"_  c #D86E28",
"`  c #D27734",
"'  c #C77C49",
"]  c #89825D",
"[  c #87815C",
"{  c #8B8461",
"}  c #8B846B",
"|  c #8C8379",
" . c #948D6A",
".. c #938C73",
"X. c #9A8C7A",
"o. c #908572",
"O. c #96906E",
"+. c #99926F",
"@. c #959074",
"#. c #9B9574",
"$. c #9A947C",
"%. c #9E9877",
"&. c #9F9979",
"*. c #959178",
"=. c #BA875E",
"-. c #A29D7D",
";. c #B79D66",
":. c #BA8D6D",
">. c #BCA36C",
",. c #CE883F",
"<. c #C8833D",
"1. c #D18B3F",
"2. c #CF884E",
"3. c #C98546",
"4. c #C48551",
"5. c #CC8D56",
"6. c #CD925D",
"7. c #D38D47",
"8. c #D3914E",
"9. c #D0945C",
"0. c #D29C5D",
"q. c #D59756",
"w. c #C2866E",
"e. c #D39A62",
"r. c #C79476",
"t. c #D5A05B",
"y. c #C8A968",
"u. c #CEB377",
"i. c #D9A463",
"p. c #D8A66C",
"a. c #DAA86B",
"s. c #DBAB77",
"d. c #DAB46B",
"f. c #D7B368",
"g. c #D7B671",
"h. c #DBB875",
"j. c #E49662",
"k. c #E1B46F",
"l. c #E5BD6B",
"z. c #E0B373",
"x. c #E2BC74",
"c. c #E4BD79",
"v. c #E3B778",
"b. c #E7C16F",
"n. c #EDC574",
"m. c #E9C57D",
"M. c #EEC876",
"N. c #EEC97A",
"B. c #E2C276",
"V. c #F0C876",
"C. c #F0C97A",
"Z. c #9A9581",
"A. c #9D9983",
"S. c #9B948B",
"D. c #A39A85",
"F. c #A29D89",
"G. c #AB9B86",
"H. c #A89A86",
"J. c #A49F91",
"K. c #A5A28C",
"L. c #A8A38D",
"P. c #AEA98C",
"I. c #A9A593",
"U. c #ADA994",
"Y. c #AEAA9A",
"T. c #A7A492",
"R. c #BFAF88",
"E. c #B6AA88",
"W. c #B2AD91",
"Q. c #B2AE99",
"!. c #B6B195",
"~. c #BAB599",
"^. c #BDB89E",
"/. c #B3B098",
"(. c #B1AFA1",
"). c #B5B2A3",
"_. c #B8B4A4",
"`. c #BAB6AB",
"'. c #BDB9A3",
"]. c #BBB9AC",
"[. c #B7B5A8",
"{. c #C3AF83",
"}. c #C1BB9E",
"|. c #CCB19D",
" X c #D9AA87",
".X c #DCB98B",
"XX c #D5B49C",
"oX c #DCB69A",
"OX c #CBA997",
"+X c #C1BDA4",
"@X c #C1BEAE",
"#X c #C2BEB1",
"$X c #DABCAA",
"%X c #E0BB8D",
"&X c #E2B799",
"*X c #D9C69D",
"=X c #C5C0A5",
"-X c #CAC6AD",
";X c #CAC5AC",
":X c #C3C0B3",
">X c #C8C6BC",
",X c #CECBBC",
"<X c #C9C6B5",
"1X c #D2CDB3",
"2X c #D1CEBB",
"3X c #D5D1B6",
"4X c #DAD5BB",
"5X c #DDD9BD",
"6X c #EECB82",
"7X c #EDCD8E",
"8X c #E2C39F",
"9X c #E2CC98",
"0X c #E6D19E",
"qX c #EED193",
"wX c #E8D39F",
"eX c #F0CE85",
"rX c #F3D184",
"tX c #F1D08B",
"yX c #F1D596",
"uX c #F2D799",
"iX c #E4C6AE",
"pX c #E9CBA7",
"aX c #E4C9B1",
"sX c #EBD7AC",
"dX c #EAD5B9",
"fX c #F2DAA4",
"gX c #CCCAC1",
"hX c #D0CEC6",
"jX c #D5D3CC",
"kX c #D8D5C5",
"lX c #D9D7CA",
"zX c #DED9C3",
"xX c #D7D3C2",
"cX c #D7D6D0",
"vX c #D8D7D0",
"bX c #DAD9D2",
"nX c #DFDFD9",
"mX c #E0DBC3",
"MX c #E0DDCD",
"NX c #E9DBC8",
"BX c #E1DFD1",
"VX c #E0DFD9",
"CX c #E4E1CC",
"ZX c #ECE5CE",
"AX c #EFE1C5",
"SX c #E6E3D2",
"DX c #E8E4D2",
"FX c #EAE7D8",
"GX c #ECE8D7",
"HX c #ECE9D9",
"JX c #E2E1DC",
"KX c #F1E9D5",
"LX c #EDECE0",
"PX c #F0EEE2",
"IX c #F2F0E5",
"UX c #F4F2E8",
/* pixels */
"GXGXGXHXGX1XD.[ I  . . . . .O.O. . .O. . . . .p %.=XFXFXGXGXHXGXGX",
"GXGXGX-X&.#.^.4X5XzX5X5XdX5X5X5X5X5X5X4X5X5X4X3X~.%. .^.GXHXGXHXGX",
"GXHX!.{ =X5X5X5XmXZXSXSXSXSXSXGXDXDXDXDXSXCXzX4X1X-X~. .P.HXHXFXGX",
"GX~. .3X5XzXGXUXUXUXUXUXUXUXUXUXIXUXIXIXUXUXUXLXCX1X=X^.@.P.GXGXGX",
"1X] 1X5XCXUXUXIXIXIXIXPXPXPXPXPXIXIXIXIXIXIXPXLXFXBX2X+X^.} !.GXGX",
"%.^.5XCXUXIXIXPXNXaXaXiXaXiXiXiXaXaXiXiXaXdXPXHXFXBXlX<X'.Y.[ MXGX",
"+.4X5XIXUXUXPXGXs.5.9.5.e.6.9.6.6.6.0.6.5.e.NXHXFXBXlX,X@X).#./.GX",
"~.4XGXIXIXHXKX.X9.e.4.W ' ' 3.8.2.3.' 4.6.6. XGXFXBXlX2X@X[.U.] GX",
"3X5XPXIXPXKX8Xt.a.0.G d k V F ^ F Z j z 9.p.6.pXSXbXkX,X:X`.).{ 3X",
"3XmXIXPXPXpXa.a.k.' g h c V D ! z l 5 s ` a.a.a.4XMXkX,X:X].)...=X",
"3XCXIXPXdXz.z.v.e.K =.|.$XoX&X&X&XXXOXw._ q.v.a.h.zXkX,X:X#X[.*.~.",
"3XCXIXAXc.z.c.c.) L SXHXPXHXPXHXLXLXHXKXj./ z.c.d..XxX,X:X#X[.A.W.",
"3XDXKXtXm.m.6Xi.D  XHXHXPXHXHXPXHXLXHXHXdX~ 8.c.B.g.*X1X:X:X`.A.W.",
"1XZXfXtX6XrX6XK G NXHXHXHXPXHXHXHXHXHXHXHX' F v.N.h.h.;X].:X`.A.W.",
"3XsXyXtX6XrXq.j r.HXHXHXHXHXHXHXHXHXHXHXHXaXV P N.B.g.u.'.#X`.A.W.",
"1XpXyXtXrXx.b h $XHXHXHXHXHXHXHXHXHXHXHXHXSX' g 0.B.h.y.{.:X`.&.W.",
"3XwXqXtXC.0.G W dXZXZXZXZXZXZXZXKXKXDXZXZXDX9XG =.l.f.y.>.=X].A.W.",
"1XpXqXeXC.n.l.M.C.M.N.N.N.N.N.M.C.C.C.C.M.N.n.l.t.f.f.y.>.>./.A.W.",
"-X9XqX6XC.N.M.M.M.M.V.V.M.M.M.M.n.V.V.n.M.n.n.B.l.f.f.y.>.R./.A.W.",
"-X9XtXC.N.C.M.N.C.M.M.M.M.M.M.M.n.n.V.V.M.b.b.l.f.f.y.;.;.E./.A.W.",
"=X>.=.W P P P P ( ( <.<.,.,.,.1.7.,.,.( P K K J J N m n t E H.$.W.",
"}.U u w < 3 3 8 f g c c C C A F A A v k g d 4 > $ @ @ o - a X.&.W.",
"~.p r < , , , 3 5 f g g c C S C B c k f d 5 > $ @ X X o ; R S.$.~.",
"W.p r ; * % % % , 4 5 5 d f f j s s 6 3 > $ % + . .   O i | T...=X",
"T.p u ; ; = = = = < < < 2 0 9 9 9 0 2 < 1 * & # o o O - S.S.[.p GX",
"&.X.X.T F.H.D.D.D.D.H.H.G.G.G.G.G.G.G.-.D.$.X...o.o.} J.[.`.[. .HX",
"I I.I.).Q.Q.Y.Y.Q.Q.Q./.Q.!.Q.Q.W.W.U.U.I.L.K.F.A.A.T.gXhXhX..+XGX",
"W.*.I.(.Q.T.J.L.L.L.L.L.T.L.L.L.L.J.K.K.D.F.A.A.Z.I.gXbXbX`.O.GXHX",
"lX%.S.).`.).T.F.F.F.A.A.F.A.A.A.D.D.A.A.A.$.Z.F.].jXVXnX>X] =XGXGX",
"HX-X&.A.].>X>X:X].).).Y.Y.Y.Y.Y.Y.Y.Y.(.).].>XbXVXJXnX:X] ~.GXHXHX",
"HXHX1X&...`.gXhXjXcXcXbXbXbXbXvXvXbXvXbXbXnXnXVXJXbXL. .'.HXGXHXGX",
"GXGXHXHX!.{ *.Y.].>XjXjXcXcXvXvXcXcXcXcXvXvX:X`.F.I P.kXGXGXHXGXGX",
"HXGXHXGXGXHX=X&.O.] p [ I I I I I I I I p I  .%.!.CXKXGXGXGXGXGXGX"
};
