/* XPM */
const char *plussign_xpm[]={
"12 12 7 1",
"# c None",
". c None",
"e c #953803",
"c c #c56e01",
"d c #dc9c25",
"b c #ecc16c",
"a c #ffffc0",
"..#######...",
"###abccba###",
"#aaadeedaaa#",
"aaaadeedaaaa",
"abdddeedddba",
"aceeeeeeeeca",
"aceeeeeeeeca",
"abdddeedddba",
"aaaadeedaaaa",
"#aaadeedaaa#",
"###abccba###",
"...#######.."};
