/* XPM */
const char *previous3_xpm[] = {
/* columns rows colors chars-per-pixel */
"33 33 256 2",
"   c black",
".  c #0B0603",
"X  c #1A0500",
"o  c #230100",
"O  c #290700",
"+  c #25180B",
"@  c #2B1E10",
"#  c #370800",
"$  c #3D1D0B",
"%  c #2E2111",
"&  c #4E1504",
"*  c #5E3D1B",
"=  c #483417",
"-  c #582826",
";  c #6D2E0D",
":  c #663D1B",
">  c #763B17",
",  c #642C2C",
"<  c #6D3B2B",
"1  c #67363C",
"2  c #7C4836",
"3  c #794846",
"4  c #7E4C50",
"5  c #7C5642",
"6  c #824927",
"7  c #804939",
"8  c #855929",
"9  c #895926",
"0  c #895134",
"q  c #945639",
"w  c #886538",
"e  c #9B6139",
"r  c #AD5823",
"t  c #AC6A36",
"y  c #AE733B",
"u  c #B77639",
"i  c #B56B2D",
"p  c #835352",
"a  c #925440",
"s  c #876E41",
"d  c #867248",
"f  c #817A54",
"g  c #8F7C55",
"h  c #966447",
"j  c #97724D",
"k  c #9D7E55",
"l  c #8C6762",
"z  c #9D7961",
"x  c #A66B48",
"c  c #AC744C",
"v  c #A37A45",
"b  c #A57759",
"n  c #AB7856",
"m  c #B1744C",
"M  c #B47D5A",
"N  c #B37951",
"B  c #A27861",
"V  c #C9672B",
"C  c #C86D36",
"Z  c #CC7236",
"A  c #D06C2B",
"S  c #D06D33",
"D  c #D37239",
"F  c #D47836",
"G  c #E07836",
"H  c #CA7B4D",
"J  c #CC7740",
"K  c #CC7D51",
"L  c #D06E41",
"P  c #D07C44",
"I  c #D07E4C",
"U  c #D47742",
"Y  c #D17F51",
"T  c #B8813E",
"R  c #89825D",
"E  c #9F8858",
"W  c #8B8461",
"Q  c #928B69",
"!  c #928763",
"~  c #958971",
"^  c #96906E",
"/  c #99926F",
"(  c #959075",
")  c #99957C",
"_  c #9E9877",
"`  c #9E9878",
"'  c #999475",
"]  c #A78757",
"[  c #B68355",
"{  c #B7885A",
"}  c #B7965B",
"|  c #AA9758",
" . c #AD8C63",
".. c #A68765",
"X. c #A39562",
"o. c #A6987A",
"O. c #B88866",
"+. c #BC9562",
"@. c #BB926D",
"#. c #B89768",
"$. c #B69C78",
"%. c #A68D7A",
"&. c #BBA35B",
"*. c #BFA16E",
"=. c #B9A979",
"-. c #CA943F",
";. c #D68338",
":. c #D3943E",
">. c #E28E3D",
",. c #E49639",
"<. c #F0A03A",
"1. c #C18F5B",
"2. c #CB8A57",
"3. c #C89040",
"4. c #CA935D",
"5. c #CB9B5C",
"6. c #C2965A",
"7. c #D28449",
"8. c #D68A43",
"9. c #D38B4A",
"0. c #D68742",
"q. c #D48552",
"w. c #D49A40",
"e. c #D9914A",
"r. c #DC994A",
"t. c #D49456",
"y. c #C58962",
"u. c #C49C63",
"i. c #CB9265",
"p. c #CC9569",
"a. c #CC9C63",
"s. c #CA9B69",
"d. c #C39669",
"f. c #D19769",
"g. c #D29D6D",
"h. c #D69762",
"j. c #CAA152",
"k. c #DDA44B",
"l. c #D3A149",
"z. c #D3A25C",
"x. c #DAA759",
"c. c #DEB15D",
"v. c #C2A265",
"b. c #CAA365",
"n. c #C9A868",
"m. c #CCB166",
"M. c #CBBB7B",
"N. c #C4B375",
"B. c #D3A262",
"V. c #D2A26E",
"C. c #DAAB65",
"Z. c #D2AB6A",
"A. c #D3AC73",
"S. c #D7AA73",
"D. c #D8B265",
"F. c #DBB976",
"G. c #DEBC7B",
"H. c #D8B275",
"J. c #E68D42",
"K. c #E49944",
"L. c #E19955",
"P. c #E4AA4C",
"I. c #E4A348",
"U. c #E0A553",
"Y. c #E1B45E",
"T. c #F2AC4D",
"R. c #F3B04E",
"E. c #E3A576",
"W. c #E1B666",
"Q. c #E1BE7C",
"!. c #EEBA7D",
"~. c #E5A364",
"^. c #ECC262",
"/. c #E2C27C",
"(. c #9A9681",
"). c #9D9983",
"_. c #A09C86",
"`. c #A19D89",
"'. c #AD9C86",
"]. c #B19E85",
"[. c #BF9681",
"{. c #A5A28C",
"}. c #A8A38D",
"|. c #ADA688",
" X c #AAA592",
".X c #ACA994",
"XX c #AEAA9A",
"oX c #A7A492",
"OX c #B4A382",
"+X c #B2AA8D",
"@X c #B4A489",
"#X c #B2AD91",
"$X c #B2AD99",
"%X c #B6AB97",
"&X c #B6B195",
"*X c #BCB393",
"=X c #B9B499",
"-X c #B8B49B",
";X c #B1AFA1",
":X c #B5B1A3",
">X c #BBB9AB",
",X c #BAB6A4",
"<X c #C1A180",
"1X c #CBBA87",
"2X c #C2B99A",
"3X c #D1AE83",
"4X c #D5B387",
"5X c #D2BB99",
"6X c #C1BCA4",
"7X c #E7B89D",
"8X c #CEC18D",
"9X c #D6C09B",
"0X c #C5C0A5",
"qX c #CAC6AD",
"wX c #C7C3AD",
"eX c #C4C2B5",
"rX c #C8C6BB",
"tX c #CDCAB5",
"yX c #C8C6B9",
"uX c #D8C9A6",
"iX c #D2CDB3",
"pX c #D1CEB9",
"aX c #D5D0B6",
"sX c #DBD6BB",
"dX c #E0C185",
"fX c #E8C397",
"gX c #ECD09B",
"hX c #F8D99F",
"jX c #F2CB9A",
"kX c #E3C9AD",
"lX c #E6D5A8",
"zX c #EAD7B7",
"xX c #ECE0BB",
"cX c #CCCAC1",
"vX c #D0CEC6",
"bX c #D5D3CC",
"nX c #D9D5C2",
"mX c #DAD7C6",
"MX c #D7D6D0",
"NX c #D8D7D0",
"BX c #DAD9D2",
"VX c #DFDFD9",
"CX c #E0DBC2",
"ZX c #E1DDCA",
"AX c #EBD5C5",
"SX c #E0DFD9",
"DX c #E7E2CE",
"FX c #E5E2D1",
"GX c #E9E5D2",
"HX c #EBE8D6",
"JX c #ECE9D8",
"KX c #E2E1DC",
"LX c #F0E6CB",
"PX c #F1E6D6",
"IX c #F0EEE1",
"UX c #F2F0E5",
/* pixels */
"JXJXJXJXJXtXo.R d w 9 9 9 9 9 8 8 0 w d d g ~ f o.6XHXJXHXHXJXHXJX",
"HXJXJXtX` / 2XsXuX4X4X4X3X4X3X3X3X3X4X4X3X4X5X6X&Xo.! 6XJXJXJXJXHX",
"JXHX&XR 0XCXCXuXV.g.g.p.f.f.f.f.i.i.i.i.p.p.d.d.N.2X%X! +XJXHXJXJX",
"HX=X! uXsXzXkXS.h.q.Y Y I 7.Y K H H H H K K 2.2.y.O.$.%X! '.HXJXHX",
"qX! uXlXzXzXh.0.P L D S D D D D C C C C Z 7.7.2.t.p.d.$.].w $.JXHX",
"` -XlXlXhXE.P Z V V * @ @ % = 8 S S A F Z 7.7.7.2.t.p.#.$.'.s BXHX",
"/ sXgXjX!.~.7.F F > .         . * F F F ;.8.0.0.9.2.4.+.#.OXQ &XHX",
"=XsXAX7XL.q.L.r.J.8 # O O X X   + i >.;.9.8.8.e.e.t.5.s.$.OX XR HX",
"aXsXUXLXE.L A 0.L.7.6 & & # O X $ i >.8.8.e.r.r.t.z.z.n.*.OX$XW aX",
"aXmXUXUXPX7XL V J.K.;.r > ; ; > t K.r.r.I.U.x.U.x.x.j.} +.=.$X( 0X",
"aXDXUXUXIXJXAXY r ;.,.<.<.K.K.T.R.I.I.P.P.P.P.P.k.k.l.l.6.=.-X' &X",
"aXGXUXJXIXIXIX[.q t u y m u w.:.:.:.w.w.w.w.w.:.-.-.T E j %.$X).#X",
"aXGXIXIXJXJXuX[ m m q , - - - - < q e e q e e q 0 6 2 2 5 z ;X).#X",
"aXGXIXIXJXHXg.4.2.2.m 2 , , , , , 7 m m m c c x x h h h j %.;X).#X",
"aXHXJXJXPXG.z.C.z.z.B.1.x a a a a N z.B.a.a.a.i.1.1.{  ...OX:X(.#X",
"tXGXIXIXgXW.W.c.c.W.W.W.W.z.5.5.a.C.C.C.C.C.C.Z.B.a.6.} #.[.:X(.#X",
"pXFXIXJXLXxXzXlXW.W.Y.^.^.^.^.^.^.W.Y.c.Y.c.c.x.z.6.{ {  .$..X).#X",
"tXFXJXJXJXJXJXAXp.1.5.N c [ 6.{ 5.x.C.x.B.5.i.1.1.[ n b b o.'.(.#X",
"iXZXJXJXHXHXDX4Xp.i.M 3 1 2 3 3 p b i.y.y.y.O.O.M N b b B %.}._.#X",
"qXmXGXGXGXLXfXH.H.S.V. .p 4 p p 4 b V.V.g.s.p.+.+.O.{ ] ..'.'.) #X",
"0XsXFXFXZXzX4XdXG./././.H.d.@.@.@.S.H.H.H.S.A.n.v.}  .] ..].}.(.#X",
"6XpXmXmXZXZXzXxXlX4XQ././.4XdX/./.Q.G.G.F.H.Z.Z.v.#.{ E ..'.%X) #X",
"-XeXvXsXnXnXmXmX5Xn.a.a...B .. .#.#.n.Z.Z.b.6.} { ] ] k %.@X%X' &X",
"&X6XyXtXpXpXpX1Xv.5.b.a. .l l l l z u.n.v.v.*.} | | E E $.&X,X~ wX",
".X$XeXwXwXwX8Xm.m.m.m.m.m.*.X.X.#.&.m.m.m.m.*.&.} | | / 2X6XeXf JX",
") .X,X,X:X-X*X*X*X1X8XM.M.M.M.M.M.M.M.=.&.=.=.=.o.o.` $XtXrX>XQ HX",
"f oXXX:X$X$X$X$X&XXX$X$X$X$X&X$X&X.X.X.X.X}.{.).` ).oXcXvXvX( -XJX",
"#X( oXXX$XoX{.{.{..X{.{.{.{.{.{.{.{.{.{.{._.).(.) .XcXBXBX>X/ JXJX",
"ZX' `.;X>X;XoX`._._._._._.)._._._._.).).).).) {.>XbXVXVXrXR 0XJXHX",
"HXqX' {.>XyXrXeX>X:X;XXXXXXXXXXXXXXXXX;X:X>XrXbXKXKXVXeXW =XJXJXJX",
"HXHXtX` ( >XcXvXbXMXMXNXBXNXNXNXNXNXBXBXBXVXVXKXKXbX}.Q -XHXJXJXJX",
"JXJXJXHX$XW ( XX>XrXbXMXMXNXNXNXNXMXNXNXBXbXeX,X).R +XmXJXJXJXHXHX",
"HXJXJXHXJXJX6X` / R f f f f f f f 5 R R f f ^ _ &XFXHXHXHXHXJXHXJX"
};
