/* XPM */
const char *properties_xpm[] = {
/* columns rows colors chars-per-pixel */
"33 33 256 2",
"   c #480201",
".  c #5A0500",
"X  c #530200",
"o  c #670C02",
"O  c #691506",
"+  c #700B01",
"@  c #731503",
"#  c #7B2209",
"$  c #7B2713",
"%  c #6B2923",
"&  c #811600",
"*  c #831C03",
"=  c #822102",
"-  c #8B2B0A",
";  c #85260A",
":  c #932606",
">  c #983707",
",  c #933713",
"<  c #8B3714",
"1  c #833126",
"2  c #A13709",
"3  c #A83914",
"4  c #B03E09",
"5  c #8F411C",
"6  c #974623",
"7  c #9F5026",
"8  c #9A5532",
"9  c #A74809",
"0  c #A64E19",
"q  c #AC4518",
"w  c #AA4816",
"e  c #AD5406",
"r  c #AE5313",
"t  c #B84C0F",
"y  c #B54C15",
"u  c #B94915",
"i  c #B15504",
"p  c #B4531A",
"a  c #B95519",
"s  c #A44F3D",
"d  c #A7572A",
"f  c #B75E2B",
"g  c #BD681C",
"h  c #BE621F",
"j  c #B3731E",
"k  c #B46523",
"l  c #BC6124",
"z  c #B76933",
"x  c #BC743B",
"c  c #BC7834",
"v  c #834B40",
"b  c #955B44",
"n  c #817A54",
"m  c #A55D4A",
"M  c #A56355",
"N  c #AE7047",
"B  c #AF7A58",
"V  c #AF7B56",
"C  c #B87E55",
"Z  c #B37B62",
"A  c #C24B18",
"S  c #C45919",
"D  c #C15522",
"F  c #CA631D",
"G  c #C6691B",
"H  c #CC6B22",
"J  c #C66927",
"K  c #C77325",
"L  c #C77735",
"P  c #D16C23",
"I  c #D6672A",
"U  c #D17323",
"Y  c #D37C2A",
"T  c #D57926",
"R  c #D67D3C",
"E  c #D77837",
"W  c #C57C49",
"Q  c #D77A4F",
"!  c #BD841D",
"~  c #88825D",
"^  c #8B8461",
"/  c #8E8868",
"(  c #948D6A",
")  c #928D71",
"_  c #96906E",
"`  c #99926F",
"'  c #959074",
"]  c #9B9574",
"[  c #99957C",
"{  c #9E9877",
"}  c #9F9979",
"|  c #959178",
" . c #B8845A",
".. c #AA8061",
"X. c #A59A7B",
"o. c #B9877F",
"O. c #B09177",
"+. c #BFA07C",
"@. c #CA8638",
"#. c #C79439",
"$. c #D6812E",
"%. c #DB8C34",
"&. c #D5873B",
"*. c #DA963D",
"=. c #E0963F",
"-. c #C78B45",
";. c #DA8B45",
":. c #DD9A4E",
">. c #D89A53",
",. c #C59356",
"<. c #C29868",
"1. c #C3997F",
"2. c #D69561",
"3. c #D9AC59",
"4. c #DEB15B",
"5. c #D6A845",
"6. c #DFA07A",
"7. c #DFBE62",
"8. c #D4B778",
"9. c #CBA77C",
"0. c #E19543",
"q. c #E39F51",
"w. c #E89F75",
"e. c #E3AA4B",
"r. c #E3A146",
"t. c #E5A754",
"y. c #E5B04B",
"u. c #E5B154",
"i. c #E3B25A",
"p. c #E8B759",
"a. c #EBBB5C",
"s. c #E9BA55",
"d. c #F1AD48",
"f. c #F4BC52",
"g. c #E4AB61",
"h. c #E3AD68",
"j. c #E4AF75",
"k. c #E8B362",
"l. c #E5BA69",
"z. c #E4BE72",
"x. c #ECC156",
"c. c #F6C958",
"v. c #F7D05C",
"b. c #EAC56A",
"n. c #EBC563",
"m. c #E8C97D",
"M. c #EDD271",
"N. c #F4CB6A",
"B. c #F2D26E",
"V. c #F4D87A",
"C. c #9A9681",
"Z. c #9D9983",
"A. c #A09C86",
"S. c #A19D89",
"D. c #B19282",
"F. c #A5A18C",
"G. c #A8A38D",
"H. c #ADA68A",
"J. c #A9A593",
"K. c #ABA894",
"L. c #AEAA99",
"P. c #A7A492",
"I. c #B1A78C",
"U. c #B3AC91",
"Y. c #B1AD9A",
"T. c #B0A690",
"R. c #B6B195",
"E. c #B4B19A",
"W. c #BAB49A",
"Q. c #BDB89E",
"!. c #B1AFA1",
"~. c #B4B2A3",
"^. c #B8B5A4",
"/. c #B9B6A9",
"(. c #BDB9A4",
"). c #BCB9AB",
"_. c #B7B5A8",
"`. c #BFBDB1",
"'. c #C5A484",
"]. c #C5AC91",
"[. c #CAB188",
"{. c #C5B99B",
"}. c #D4A781",
"|. c #D7BD9B",
" X c #C1BCA4",
".X c #C0BDAD",
"XX c #C1BEB1",
"oX c #D9BFB3",
"OX c #EDB991",
"+X c #DBC28B",
"@X c #D8C09A",
"#X c #C5C0A5",
"$X c #C4C1AD",
"%X c #C9C5AD",
"&X c #CFCBAF",
"*X c #C3C0B3",
"=X c #C9C6B1",
"-X c #C8C6BC",
";X c #CDCAB5",
":X c #CDCABB",
">X c #C5C4BA",
",X c #DBC3AC",
"<X c #D5C5A7",
"1X c #D2CDB3",
"2X c #D1CEBA",
"3X c #DDC9BE",
"4X c #D5D1B6",
"5X c #DAD5BB",
"6X c #DDD9BD",
"7X c #D3D0BB",
"8X c #EAC38C",
"9X c #E0C790",
"0X c #ECD68A",
"qX c #F4DC85",
"wX c #F3D99B",
"eX c #EDC4A5",
"rX c #E2D0BB",
"tX c #F2DEA6",
"yX c #F3DDB6",
"uX c #F7E589",
"iX c #F8EC9C",
"pX c #FEEFBE",
"aX c #FAF0A2",
"sX c #CCCAC1",
"dX c #D0CEC6",
"fX c #D5D2C1",
"gX c #D5D3CC",
"hX c #D9D5C3",
"jX c #D9D7CA",
"kX c #DED9C4",
"lX c #DDD9C8",
"zX c #D7D6D0",
"xX c #D8D7D0",
"cX c #DAD9D2",
"vX c #DFDFD9",
"bX c #E0DBC3",
"nX c #E1DDCB",
"mX c #E9DCCD",
"MX c #E1DFD1",
"NX c #E0DFD9",
"BX c #E8DED0",
"VX c #E4E1CC",
"CX c #EDE2CF",
"ZX c #E5E2D2",
"AX c #E8E5D3",
"SX c #EBE6D9",
"DX c #EBE9D6",
"FX c #ECE9D8",
"GX c #E2E1DC",
"HX c #F7E8C4",
"JX c #F3EBDC",
"KX c #FCF0CA",
"LX c #EDECE0",
"PX c #F0EEE1",
"IX c #F2F1E5",
"UX c #F4F2E8",
/* pixels */
"FXFXFXFXFX;XX.~ ~ _ ( ( ( _ _ _ ( _ ( ( ( ( ( n {  XDXDXFXDXDXFXFX",
"FXDXFX%XX.`  X5XrX6X6X6X6X6X6X6X6X6X6X6X6X6X5X4XW.} ( Q.DXFXFXDXFX",
"FXFXR.^ #X6X6X6XbXCXCXAXVXAXAXAXAXAXVXAXZXVXbX7X&X%XW.( H.FXDXFXDX",
"DXR.( 4X6X6XDXIXUXUXJXHXpXKXpXLXUXIXUXIXUXUXUXLXVX2X XQ.' H.FXDXFX",
"&X~ 4X5XVXIXUXUXUXUXoX2.N.V.V.wXHXIXPXPXIXIXPXLXDXvX2X X^./ R.FXDX",
"} #X5XVXUXIXLXpXyXJX3Xm J f.v.c.V.8.oXSXPXPXPXLXSXZXjX=X(.L.~ lXFX",
"` 5X6XUXIXJXyX0Xl.8XCXo.* J d.c.c.a.-.}.mXPXPXSXAXvXjX:X.X~.[ R.DX",
"W.5XAXIXJXeXh.z.n.u.j.s @ > G a.V.uXV.5.C rXPXSXAXcXjX:X$X/.K.~ DX",
"4X5XIXIXJXOX;.:.g.l.p.J : : e 7.aXaXiXqXk d @XFXAXZXjX:X*X/.~.^ 2X",
"4X6XIXPXLXmXw.E ;.t.b.N.W : i 5.uXV.V.4.9 > -.0X+XkXhX:X*X).~.) #X",
"4XVXIXPXLXJXNXQ I ;.l.qXm.z 9 ! M.M.n.c # r b.tXm.+X5X:X*XXX_.| R.",
"4XZXIXLX2.M M 1 3 ;.0X8XV.4.j #.x.x.s.#.0 @.wX7.3.8.<X:X*X*X/.C.U.",
"4XAXPXPX&.z $ + @ s 3.n.b.n.u.a.s.y.y.s.y.l.z.4.4.3.8.:XXX*X/.C.U.",
"4XAXIXFXI ;.L < * o # @.a.a.p.p.l.a.s.e.u.k.i.*.L ,.%X:X.X*X).C.U.",
"4XAXPXPXQ A R I q : @ > e.y.e.p.l.l.i.4.e.y.*.0 @ O O.;X.X*X/.Z.U.",
"1XZXPXFXeXS A E :.&.K K *.:.t.>.5 $ , ;.e.5.%.r - $ z [..X*X).C.U.",
"1XBXPXFXJX}.A D t.h.t.k.t.0.q.6   . + 3 =.%.$.Y &.@.-.<..XXX/.Z.U.",
";XBXFXJXSX}.3 D L Y T %.%.%.:.=   + & 2 U $.T K G g j +.(.).~.Z.U.",
"&XVXSXFXBX]., q &.T P U T $.t.d X + : t U Y G H K g c '.~.).~.Z.U.",
"&XlXBXSXSXSX'., p p - @ J T ;.&., : t F H F H |.,X9.+.).Y./.!.[ U.",
"#XhXVXVXVXZXVXB @ o X . p P P I P P G P F S L ,X2X=X(.~.Y._.!.Z.U.",
"(.2XlXjXbXlXVX4X8 O @ q ;.U H J S S A S S S a f ,. X^.L.K./.~.[ R.",
"Q.=XfXfXkXhXkXjX,Xd y &.L u q p H u t q , k a > 3 U.Y.K.L./._.[ E.",
"Y.(.:X=X;X;X2X2XfX|.W l 4 ; o # L a y Z % < g 0 N K.K.S.!.).).) #X",
"J.E.$X$X$X$X%X&X=X=X].N a ;   # L p r ].W.b 7 V H.J.S.S.`.`.>Xn DX",
"[ K.^.^.^.(.^.(. X X X].].D.8 , r 9 9 C E.T.I.H.F.A.Z.L.-X-X/.( FX",
"~ J.K.!.L.L.L.Y.Y.Y.Y.Y.Y.Y.Y.Z V V B O.T.J.F.S.Z.C.P.dXdXdX| (.DX",
"H.' P.!.E.J.G.F.F.P.H.S.F.F.F.G.F.F.H.S.S.A.Z.Z.C.K.dXzXzX).( SXFX",
"kX{ S.!./.~.P.S.A.A.A.A.A.Z.Z.A.A.Z.Z.Z.C.C.C.S./.jXNXvX-X^  XFXDX",
"AX%X{ S.).>X>X>X)._.!.L.L.L.L.Y.Y.L.L.!.~.).-XxXGXGXNX>X^ W.DXFXFX",
"FXFX;XX.| ).sXdXgXgXzXzXcXcXcXzXzXcXcXcXcXvXvXGXGXgXG./ Q.FXFXFXDX",
"FXFXDXDXR.~ | L.).sXgXgXzXzXzXzXzXzXzXzXxXgX*X(.F.n I.kXFXDXFXDXFX",
"FXDXFXFXDXFX(.X.` ~ n n n n n n n n n n n n _ { R.nXDXDXFXDXFXDXFX"
};
