/* XPM */
const char *redo_xpm[] = {
/* columns rows colors chars-per-pixel */
"33 33 257 2",
"   c #240500",
".  c #250800",
"X  c #280700",
"o  c #2C0B01",
"O  c #2C1109",
"+  c #3A0E01",
"@  c #3F1301",
"#  c #371607",
"$  c #301C15",
"%  c #3F3603",
"&  c #441400",
"*  c #4B1500",
"=  c #4B1B08",
"-  c #471B03",
";  c #551900",
":  c #591C00",
">  c #5B1600",
",  c #4C2202",
"<  c #46251A",
"1  c #492416",
"2  c #4D3216",
"3  c #532300",
"4  c #572008",
"5  c #5B2300",
"6  c #5F2F17",
"7  c #542816",
"8  c #5F3117",
"9  c #631E00",
"0  c #6B1C00",
"q  c #642300",
"w  c #6B2300",
"e  c #6D2A08",
"r  c #6B3203",
"t  c #732400",
"y  c #732900",
"u  c #7A2300",
"i  c #7B2B00",
"p  c #732F08",
"a  c #7D3501",
"s  c #783703",
"d  c #723B18",
"f  c #6C3617",
"g  c #584038",
"h  c #6A5A4C",
"j  c #776F45",
"k  c #756958",
"l  c #79705F",
"z  c #802E00",
"x  c #823201",
"c  c #823B02",
"v  c #893902",
"b  c #8D3400",
"n  c #913A01",
"m  c #993900",
"M  c #844301",
"N  c #8C4501",
"B  c #8B4804",
"V  c #83491A",
"C  c #8B5306",
"Z  c #944203",
"A  c #924802",
"S  c #9C4804",
"D  c #965204",
"F  c #9A5708",
"G  c #955511",
"H  c #9D7639",
"J  c #A34901",
"K  c #A55204",
"L  c #AA5B04",
"P  c #AD5C08",
"I  c #AA5103",
"U  c #B55D04",
"Y  c #AE6208",
"T  c #AE6404",
"R  c #A47102",
"E  c #B3660C",
"W  c #BA6406",
"Q  c #B86707",
"!  c #BC730E",
"~  c #BC7710",
"^  c #AF6518",
"/  c #A96322",
"(  c #A87A2C",
")  c #817A54",
"_  c #857E59",
"`  c #997751",
"'  c #817865",
"]  c #877E77",
"[  c #C66708",
"{  c #C8670A",
"}  c #C26A13",
"|  c #C4770E",
" . c #C57E19",
".. c #CC7213",
"X. c #C67716",
"o. c #D17B15",
"O. c #D17517",
"+. c #D67F28",
"@. c #C87727",
"#. c #89825D",
"$. c #87815C",
"%. c #8B8462",
"&. c #89806D",
"*. c #898276",
"=. c #8B8579",
"-. c #868075",
";. c #938D6A",
":. c #908967",
">. c #928C73",
",. c #908A7E",
"<. c #918372",
"1. c #96906E",
"2. c #98916E",
"3. c #969175",
"4. c #9B9574",
"5. c #99947D",
"6. c #9E9877",
"7. c #9F9979",
"8. c #B2864A",
"9. c #A29C7D",
"0. c #BF9E66",
"q. c #CD8919",
"w. c #C88518",
"e. c #D28C1C",
"r. c #D5831D",
"t. c #CE8329",
"y. c #CD8D23",
"u. c #CF8521",
"i. c #CC962B",
"p. c #D48323",
"a. c #D78A2B",
"s. c #D08737",
"d. c #D98D39",
"f. c #D78735",
"g. c #D2942B",
"h. c #D49623",
"j. c #D59532",
"k. c #D59C38",
"l. c #D99231",
"z. c #DA9936",
"x. c #DA9D3A",
"c. c #D89838",
"v. c #DAA23D",
"b. c #E5AB3E",
"n. c #C18554",
"m. c #CE985A",
"M. c #DA8E45",
"N. c #DB9441",
"B. c #DB9B43",
"V. c #DE9B4B",
"C. c #DF9C54",
"Z. c #C6A54C",
"A. c #DCA444",
"S. c #DEA34B",
"D. c #DFA947",
"F. c #DFA84C",
"G. c #DFA950",
"H. c #DEA354",
"J. c #C0A273",
"K. c #DAB878",
"L. c #E1A242",
"P. c #E1A44B",
"I. c #E1AA47",
"U. c #E2AC52",
"Y. c #E4AC5C",
"T. c #E1A35B",
"R. c #E6B050",
"E. c #E5B259",
"W. c #E0A264",
"Q. c #E8B562",
"!. c #E8BB66",
"~. c #E8B57B",
"^. c #9B9684",
"/. c #9D9983",
"(. c #999588",
"). c #A19C85",
"_. c #A29D8B",
"`. c #A5A18D",
"'. c #ACA48B",
"]. c #AEA98C",
"[. c #A6A292",
"{. c #AAA693",
"}. c #ACA996",
"|. c #ACA99A",
" X c #A9A798",
".X c #B0AA8D",
"XX c #B1AD9B",
"oX c #B5AD93",
"OX c #B6B195",
"+X c #B4B09B",
"@X c #B8B398",
"#X c #BDB89E",
"$X c #ADA9A2",
"%X c #B1AEA0",
"&X c #B5B2A2",
"*X c #B7B4A9",
"=X c #B9B7AA",
"-X c #BEBAA6",
";X c #BDBAAB",
":X c #B8B5A4",
">X c #BDBBB1",
",X c #C1BC9E",
"<X c #DFB889",
"1X c #C2BCA3",
"2X c #C1BDAC",
"3X c #C0BEB3",
"4X c #E4BA8B",
"5X c #E8B98A",
"6X c #E2BE85",
"7X c #C5C0A3",
"8X c #C6C1AE",
"9X c #CAC5AC",
"0X c #C2C0B5",
"qX c #C5C3B9",
"wX c #CAC6B1",
"eX c #C9C7BD",
"rX c #CBC8B6",
"tX c #CBC9BC",
"yX c #D0CCAF",
"uX c #D3CCB4",
"iX c #D6D2B6",
"pX c #D5D1BB",
"aX c #DAD5BA",
"sX c #DDD8BD",
"dX c #D9D5B7",
"fX c #E2C48D",
"gX c #E6C88F",
"hX c #E2C183",
"jX c #E3C699",
"kX c #E5CCA4",
"lX c #EDCAA5",
"zX c #E1D4B2",
"xX c #CBCAC1",
"cX c #D0CEC4",
"vX c #D6D2C2",
"bX c #D3D2CB",
"nX c #DCD9C3",
"mX c #DEDBCC",
"MX c #DBD7C7",
"NX c #DBD9D3",
"BX c #E1DBC4",
"VX c #E1DECC",
"CX c #E0DFDA",
"ZX c #F3DBC3",
"AX c #E5E1CC",
"SX c #E5E2D1",
"DX c #E8E5D3",
"FX c #EBE8D6",
"GX c #EDEADA",
"HX c #E4E2DA",
"JX c #F7E8D6",
"KX c #F0EDDF",
"LX c #F0EEE1",
"PX c #F2F1E5",
"IX c #F4F3E9",
"UX c gray100",
"YX c None",
/* pixels */
"YXYXYXYXYXYX% 9.#.) ;.;.;.;.;.;.;.;.;.;.;.:.;.:.) 6.1XYXYXYXYXYXYX",
"YXYXYXYX% 7.4.,XnXzXnXsXsXsXsXsXsXsXaXsXaXuXyX9X7X'.1.:.#XYXYXYXYX",
"YXYXYXOX%.9XsXsXzXVXVXDXkX4X4XfXgXfX<X6X6XfXdXsX9X#X@X{.:.].YXYXYX",
"YXYX@X;.dXzXnXFXIXIXJX~.T.Y.Q.Q.Q.Q.Y.I.b.b.b.!.jXcX2X+X X:.].YXYX",
"YX% %.aXsXAXPXPXLXZXV.C.U.E.U.U.U.Y.H.c.l.r.h.h.i.Z.tX=X|. X%.OXYX",
"YX% 7XsXAXPXPXPXlXa.B.P.R.U.U.A.A.B.s.@.^ E E G G w.tX3X&X|.[.#.% ",
"% j sXsXPXPXLXZXr.c.L.I.U.G.A.k.j.@.} P K A M c C Z.tX8X&X%X$X3.OX",
"7.,XsXDXPXPXLXC.f.L.L.P.F.G.A.z.p.| L D B c A R OX9XtX3X&X%X*X X#.",
"$.dXzXIXLXLXZXp.N.L.C.P.I.v.v.t.~ T A c v F J.9XpXvXtX2X&X|.>X=X%.",
"l sXAXIXLXLX5X+.B.P.T.I.v.v.h. .P N a v ( 1XpXAXmXvXtX8X&X|.3X>X>.",
"2.sXAXPXLXKXW.d.V.P.P.I.v.j.q.E S a v 0.sXSXHXDXmXMXtX2X&X|.0X3X5.",
"2.sXAXPXLXKXN.d.B.P.A.D.v.y.! L a a 8.BXGXGXGXSXmXvXtX2X&X X0XqX).",
"2.sXDXLXLXKXp.d.B.P.A.A.k.q.T A r C uXGXGXGXFXDXmXvXrX2X&X X0XqX/.",
"2.dXDXLXKXKXO.f.B.V.B.k.i.w.T M 5 ` DXGXGXGXHXSXmXvXrX2X+X|.0XqX).",
"2.sXAXPXKXKX..a.x.B.v.g.y.| W M 3 ] GXGXGXFXFXSXmXvXrX;X+X}.0XqX).",
"2.dXFXLXKXFXo.p.x.v.k.g.q.~ W M ; h MXGXGXGXDXAXkXK.rX;X|.}.0XqX).",
"1.sXDXKXGXJXM...l.z.k.y.q.~ W N 3 2 @XAXGXFXHX4XL N &X-XXX{.3XqX).",
"1.aXSXKXGXFX5X{ p.j.j.y.q.| Y F r # k 0XFXVXm.J 5 & /.:XXX[.3XqX).",
"1.dXAXKXGXGXFXO...p.a.y.w. .Q K M , # h './ m n > o `.&X}.[.3XqX).",
"1.iXAXGXGXFXFX5X{ o.r.q. .! [ T D r - - q w a y > . _.+X{.`.3X3X).",
"1.yXAXFXGXSXDXSXf.{ o.o.X.Q W W J M s , 5 i y 5 *   /.|.[./.0XqX).",
";.yXsXFXSXSXSXDXSXO.{ ..} E L U I Z x a a i w 3 &   5.}._._.qXeX).",
";.9XsXSXmXVXVXVXVXVX..[ } I K I S n b z t t 0 : * o >.`./.[.eXeX6.",
"l 7XwXMXMXnXnXnXnXMXjX{ { U K Z v x z z u 0 q : * . &._./.&XxXxX1.",
"#.@X1XpXvXiXrXpXpXpXpXuXU I n v v z t u t 0 9 ; @ o l /./.qXbXbX$.",
"].9.@X8XrXwX9XwXwXrXwXn.S n v x u y 0 t 9 ; > * + o l ^.%XbXbX0X:.",
"2 $..X@X2X2X-X-X1X1X/ n v x p e q w 9 9 ; ; & @ # O k [.bXNXNX4.@X",
"YX].4.}.+X&X+X@XXX^ G B c p e e 4 = = = = = = # O $ (.xXCXCX2X3.YX",
"YX% 7./. X|.|. X{.H V d d f 6 6 7 7 7 1 1 < 1 < g ] eXCXCXcX%.% YX",
"YXYX% 4./.|.&X-X=X&X X{.(.(.,.*.=.] =.*.=.,.(.$X>XeXNXCXqX%.@XYXYX",
"YXYXYX% 7.;. X=X>XqXqXeXxXxXxXxXeXxXxXxXxXxXxXbXbXNXbX{.:.#XYXYXYX",
"YXYXYXYX% @X#.>.`.+X;XqXeXeXeXeXeXeXxXqXeXxXxX;X*X_._ ].% YXYXYXYX",
"YXYXYXYXYXYXYX1X9.1.$.) ) ) ) ) l ) ) ) ) ) ) 2.6.OX2 YXYXYXYXYXYX"
};
