/* XPM */
const char *render_xpm[] = {
/* columns rows colors chars-per-pixel */
"33 33 256 2",
"   c #390300",
".  c #370A01",
"X  c #3F1206",
"o  c #420D02",
"O  c #410300",
"+  c #4B1305",
"@  c #4A190D",
"#  c #481406",
"$  c #4A1D11",
"%  c #500F04",
"&  c #521403",
"*  c #531A0C",
"=  c #5A1704",
"-  c #4D2015",
";  c #532519",
":  c #562910",
">  c #5B2516",
",  c #5A2716",
"<  c #58280B",
"1  c #502B21",
"2  c #680D01",
"3  c #641C02",
"4  c #691B06",
"5  c #69210A",
"6  c #632B1C",
"7  c #6A2D1A",
"8  c #662812",
"9  c #6A3616",
"0  c #7C2305",
"q  c #76260C",
"w  c #7B2D13",
"e  c #742916",
"r  c #7E300F",
"t  c #7C3017",
"y  c #76351C",
"u  c #682D25",
"i  c #6A3626",
"p  c #743925",
"a  c #6E4333",
"s  c #7B422D",
"d  c #7C4734",
"f  c #7B5544",
"g  c #795C52",
"h  c #7F6253",
"j  c #842807",
"k  c #842B09",
"l  c #862906",
"z  c #88320E",
"x  c #833516",
"c  c #863B12",
"v  c #962F14",
"b  c #8E401E",
"n  c #80561E",
"m  c #8E4320",
"M  c #89422D",
"N  c #864A35",
"B  c #8B5B20",
"V  c #875C3F",
"C  c #964B29",
"Z  c #944E35",
"A  c #9F5027",
"S  c #9B6C23",
"D  c #9A702A",
"F  c #B05934",
"G  c #BE612F",
"H  c #B9673B",
"J  c #BB713E",
"K  c #AA7C27",
"L  c #8A5B41",
"P  c #985B43",
"I  c #8D6246",
"U  c #8D695C",
"Y  c #84655B",
"T  c #817A54",
"R  c #86795D",
"E  c #93634C",
"W  c #916A5B",
"Q  c #956653",
"!  c #95735E",
"~  c #8C7A6E",
"^  c #857B6A",
"/  c #997A68",
"(  c #917C70",
")  c #A36F5A",
"_  c #BE6E42",
"`  c #BA7749",
"'  c #A87662",
"]  c #A67F73",
"[  c #CB753E",
"{  c #C16B40",
"}  c #C57A47",
"|  c #C67B54",
" . c #D17A44",
".. c #AC892E",
"X. c #AB8D32",
"o. c #AD943A",
"O. c #B78A2B",
"+. c #BD9132",
"@. c #BCA735",
"#. c #88815D",
"$. c #8B8461",
"%. c #8C836B",
"&. c #948D6A",
"*. c #9C816E",
"=. c #978776",
"-. c #96906E",
";. c #99926F",
":. c #959074",
">. c #9E9877",
",. c #9F9979",
"<. c #999477",
"1. c #AB9640",
"2. c #AC9C51",
"3. c #BF8248",
"4. c #BF964C",
"5. c #A6856D",
"6. c #A68B75",
"7. c #A39A7A",
"8. c #B58468",
"9. c #B9AC49",
"0. c #BFB344",
"q. c #AFA46B",
"w. c #B3A367",
"e. c #BCB06B",
"r. c #C59A32",
"t. c #D7873A",
"y. c #C7B424",
"u. c #C8B43D",
"i. c #CFB93C",
"p. c #D7A737",
"a. c #D7B93B",
"s. c #E2B938",
"d. c #C98A4B",
"f. c #C8815E",
"g. c #C79B49",
"h. c #C99E54",
"j. c #C89552",
"k. c #D28E4D",
"l. c #D38C51",
"z. c #D7954D",
"x. c #D49656",
"c. c #C09E7D",
"v. c #DA9E66",
"b. c #D59A76",
"n. c #C98969",
"m. c #C9A545",
"M. c #C6A653",
"N. c #CAB74B",
"B. c #C5B356",
"V. c #D7A848",
"C. c #D7A956",
"Z. c #D1BC43",
"A. c #D6BD48",
"S. c #DCB659",
"D. c #C0AC6F",
"F. c #C7AF7C",
"G. c #C0B161",
"H. c #D8A366",
"J. c #D1A37D",
"K. c #D1BD60",
"L. c #E4BB6A",
"P. c #D1C02A",
"I. c #D6C33C",
"U. c #D7C14D",
"Y. c #DBC043",
"T. c #D7C146",
"R. c #DBC258",
"E. c #D7C062",
"W. c #E4C455",
"Q. c #E3D25D",
"!. c #E6C668",
"~. c #E6D765",
"^. c #9B8A80",
"/. c #9A9681",
"(. c #9E9A84",
"). c #A09C86",
"_. c #A29D89",
"`. c #A59484",
"'. c #A79D94",
"]. c #B19A8C",
"[. c #B59F90",
"{. c #A5A18B",
"}. c #A8A38D",
"|. c #AEA98C",
" X c #AAA594",
".X c #AEAA9A",
"XX c #AAA693",
"oX c #B6A98A",
"OX c #B3AC92",
"+X c #B2AD9A",
"@X c #B9AA92",
"#X c #BFB18D",
"$X c #B6B195",
"%X c #B9B499",
"&X c #BDB598",
"*X c #B1ADA1",
"=X c #B4B1A3",
"-X c #BDB9A3",
";X c #BBB9AB",
":X c #B8B3A4",
">X c #CAA886",
",X c #CCAC98",
"<X c #CEB682",
"1X c #C7BA97",
"2X c #D3AA80",
"3X c #D5B186",
"4X c #D7B988",
"5X c #D1BE98",
"6X c #D4B793",
"7X c #C3B5A4",
"8X c #C1BCA4",
"9X c #C8BAA8",
"0X c #CCBEB0",
"qX c #D3BCB0",
"wX c #CEC19C",
"eX c #D1C19B",
"rX c #C5C0A5",
"tX c #CAC4AE",
"yX c #CBC5B1",
"uX c #C9C6BB",
"iX c #C8C5B7",
"pX c #D3C7A7",
"aX c #D2C3B3",
"sX c #D2CCB7",
"dX c #DAD1A2",
"fX c #D6D2B7",
"gX c #D4D1BC",
"hX c #D9D4BC",
"jX c #DED9BE",
"kX c #E4CFB4",
"lX c #E7D1B7",
"zX c #CCCAC1",
"xX c #D2CEC3",
"cX c #D5D3CC",
"vX c #DBD5C3",
"bX c #DCD6CA",
"nX c #DDD9C6",
"mX c #DBD6C7",
"MX c #D7D6D0",
"NX c #D8D7D0",
"BX c #DAD9D2",
"VX c #DFDFD9",
"CX c #E0DBC3",
"ZX c #E2DDCC",
"AX c #E0DFD9",
"SX c #E4DED0",
"DX c #E5E1CC",
"FX c #E6E3D2",
"GX c #E8E5D2",
"HX c #EBE8D6",
"JX c #EDEADA",
"KX c #E6E3DB",
"LX c #EDECE0",
"PX c #F0EEE0",
"IX c #F2F0E4",
"UX c #F4F2E8",
/* pixels */
"HXHXHXHXJXsX7.#.T -.-.&.&.&.&.&.&.&.&.&.&.&.&.h ,.rXHXHXHXHXHXJXHX",
"HXHXHXtX7.:.1XhXjXjXjXjXjXjXjXjXjXjXjXjXjXjXhXfX%X,.&.%XHXHXJXHXJX",
"JXHX%X$.rXjXnXjXZXDXGXGXGXGXGXGXGXGXGXGXFXDXCXgXfXtX%X&.OXHXHXHXHX",
"HX%X&.fXjXjXHXUXUXUXUXUXUXUXIXUXUXUXUXUXUXUXUXIXDXsXrX-X:.|.HXJXHX",
"yX$.pX6XJ.b.| } qXJXUXIXIXIXIXIXPXIXPXHXW Q ' ' 8.8.5.5.7.R $XHXHX",
",.#X5X>Xn.` H G ,XBXLXPXPXPXPXPXPXPXPXGXd w m A A F P Q *.>.#.nXHX",
":.pX>Xb.| { [ t.l.7XPXPXPXPXJXLXPXPXPXFXp 2 c x c v C E ! *.R $XHX",
"#X4X2Xf._ [ z.!.W.>XSXPXPXPXPXPXPXPXPXJXKXCXZ P 7XqXP L / *XXX#.HX",
"pX<Xb.| J H  .L.~.dXsXPXPXPXJXPXLXJXJXPXLXJXM P aXZX) N *.:X=X$.fX",
"pX2Xv.l.d.J F x.!.!.@XHXPXLXPXJXPXPXPXJXJXSXM P qXCXZ M W :X=X&.rX",
"eX3Xv.l.d.g.} } x.V.1XbXJXLXJXPXJXPXPXGXs 5 r x b C k p N U ( %.%X",
"eX3Xv.k.z.h.h.j.} } 6XxXLXSXaXJXJXJXJXGXy 3 w x j l k M d U ( %.$X",
"eXJ.v.z.C.C.h.h.4.` d.lXJXsXU bXJXJXJXSXy 3 w x z l z p d U %.%.|.",
"eXF.L.C.C.C.C.V.h.M.j.kXJXbX> / ZXJXJXZXu 3 q w k l k t d U ( %.OX",
"eX4X!.V.V.V.V.m.g.M.g.6XZX0X+ > ].GXJXvX7 3 q w j j k t d U ( %.OX",
"eX4XL.p.p.p.B : < : 9 p p 6 # o 6 qXJXvXu = q q j j k x p U ( %.OX",
"eX4XS.p.s.p.9     . < @ o o o # O 6.JXCX7 = 4 q 0 j j t p U ( ~ OX",
"eX4XS.a.s.a.D n 9 < 8 8 , 6 +   * qXHXaX7 = 4 q 0 0 0 e p U ~ %.OX",
"eX4XS.A.a.I.Y.Y.y.y.r.Z @X( o > 9XHXHXaX7 & 4 q q 0 4 e i ^ ~ %.OX",
"5X4XR.U.Y.s.W.I.P.P.r.8.KXCX; `.GXHXHXqX* O * 4 2 2 4 7 i h %.h OX",
"1X<XE.U.i.A.R.I.I.I.+.e.FXnXg DXGXGXFXvX] f 8 5 Q Q 8 > a =.^.%.OX",
">XF.E.U.i.Z.T.T.T.I.r.oXDXnXtXDXZXZXDXnXbXgXu 7 7X;Xp > g '.=X/.$X",
"#XD.e.N.N.Z.U.T.Z.i.K >XnXnXnXnXnXvXvXmXhXsXu 6 @X-Xi ; h  X=X/.%X",
"oXw.e.0.N.N.N.u.u.m.K @XgXgXgXgXfXgXsXtXi $ # * 7 p $ ; Y ^.'.=.rX",
"|.q.e.9.9.0.0.@.@.@.S #XyXyXyXyXiXtXiX8X@ . X # % % $ 1 ^.^.;Xh HX",
"<.q.q.2.o.o.......X.B @X;XrX-X-X-X-X-X$X$ . X # & @ $ g '.*X=X:.HX",
"h }.:.=.W I I V I I f XX+X+X$X+XOXOXOXXX}.}.{._.(.(. XzXzXcX:.8XJX",
"$X<.}.XX.X{._.(.}.}.}.}.}.}.}.}.}.{.{.{._.).(.(./. XzXBXNX;X-.HXHX",
"nX<.).=X;X=X}.(.(._.(.(.(.(.(.(.(.(.(.(.(././._.;XcXVXBXuX$.rXHXJX",
"HXtX<.{.;XiXuXiX;X=X=X.X*X.X.X.X.X.X.X*X=X;XuXNXVXKXVXiX$.%XHXHXHX",
"JXHXyX,.:.;XzXcXcXcXcXBXBXBXBXcXBXBXBXBXBXVXVXAXAXBX}.&.-XHXHXHXJX",
"JXHXHXHX+X$.:. X;XzXcXcXcXBXBXBXcXcXBXcXcXcXiX;X_.T |.mXHXJXHXJXHX",
"HXHXJXHXHXJX8X7.:.#.T T T T T T h #.T T T T -.>.$XDXHXHXHXHXHXJXHX"
};
