/* XPM */
const char *side_camera_xpm[] = {
/* columns rows colors chars-per-pixel */
"33 33 256 2",
"   c #020000",
".  c #080000",
"X  c #140101",
"o  c #1B0200",
"O  c #161210",
"+  c #240401",
"@  c #2B0401",
"#  c #2D0B05",
"$  c #260A06",
"%  c #2F1711",
"&  c #330200",
"*  c #340C01",
"=  c #360909",
"-  c #3A0200",
";  c #3D0A03",
":  c #391103",
">  c #3A1610",
",  c #331616",
"<  c #400500",
"1  c #450C00",
"2  c #480200",
"3  c #4B0B00",
"4  c #4C0A0A",
"5  c #441708",
"6  c #4E170E",
"7  c #421A10",
"8  c #441412",
"9  c #530900",
"0  c #570501",
"q  c #591D09",
"w  c #5B2209",
"e  c #562117",
"r  c #58291B",
"t  c #482220",
"y  c #452423",
"u  c #47302B",
"i  c #562F21",
"p  c #5A2928",
"a  c #563225",
"s  c #670000",
"d  c #660C03",
"f  c #6B0000",
"g  c #6A0C00",
"h  c #671B00",
"j  c #710D00",
"k  c #751F00",
"l  c #7A1200",
"z  c #672609",
"x  c #6B2007",
"c  c #6A260B",
"v  c #6C2E0D",
"b  c #652C19",
"n  c #762B08",
"m  c #792400",
"M  c #722213",
"N  c #7C330A",
"B  c #783411",
"V  c #7D3811",
"C  c #7F3F1B",
"Z  c #6A2B28",
"A  c #622A24",
"S  c #67332F",
"D  c #653A30",
"F  c #643336",
"G  c #64483F",
"H  c #6B473F",
"J  c #674439",
"K  c #704D3F",
"L  c #794335",
"P  c #5F4942",
"I  c #5F5048",
"U  c #614640",
"Y  c #71574E",
"T  c #79504F",
"R  c #774C49",
"E  c #7B6055",
"W  c #811200",
"Q  c #891111",
"!  c #881C12",
"~  c #8D2807",
"^  c #832206",
"/  c #80300B",
"(  c #8D390A",
")  c #813F19",
"_  c #982608",
"`  c #912614",
"'  c #943B00",
"]  c #903B08",
"[  c #993E00",
"{  c #943C10",
"}  c #A53200",
"|  c #AA3A00",
" . c #AD380F",
".. c #A33907",
"X. c #AE3B11",
"o. c #B33400",
"O. c #89481E",
"+. c #834216",
"@. c #9A4500",
"#. c #974112",
"$. c #97411F",
"%. c #944A1E",
"&. c #844924",
"*. c #874B38",
"=. c #A2420C",
"-. c #A2520D",
";. c #B74C07",
":. c #BB4B09",
">. c #A35929",
",. c #BD6523",
"<. c #BE7331",
"1. c #A86737",
"2. c #8E5747",
"3. c #83574C",
"4. c #9D5648",
"5. c #935B45",
"6. c #806055",
"7. c #896359",
"8. c #817A54",
"9. c #89736B",
"0. c #90776D",
"q. c #997568",
"w. c #A16A59",
"e. c #BF7761",
"r. c #C04608",
"t. c #C0550B",
"y. c #C8570A",
"u. c #CA5C0A",
"i. c #CB5407",
"p. c #C05012",
"a. c #C05910",
"s. c #C8600F",
"d. c #C26B1D",
"f. c #D8690A",
"g. c #D56409",
"h. c #D87816",
"j. c #CF7E2D",
"k. c #CD7824",
"l. c #C57D37",
"z. c #C0745C",
"x. c #89825D",
"c. c #87815C",
"v. c #8B8461",
"b. c #8E8868",
"n. c #8C897E",
"m. c #948D6A",
"M. c #968972",
"N. c #96906E",
"B. c #99926F",
"V. c #959074",
"C. c #959178",
"Z. c #9B9574",
"A. c #99957C",
"S. c #9E9877",
"D. c #9F9979",
"F. c #A9877B",
"G. c #A29D7D",
"H. c #B08B7E",
"J. c #DF8618",
"K. c #D78019",
"L. c #D18024",
"P. c #D1812C",
"I. c #DA8B35",
"U. c #8F8C80",
"Y. c #938C80",
"T. c #9A9582",
"R. c #9D9983",
"E. c #A58D80",
"W. c #A09C86",
"Q. c #A19D89",
"!. c #AE9F8C",
"~. c #A59186",
"^. c #B08E82",
"/. c #B2968B",
"(. c #B39E92",
"). c #A5A18C",
"_. c #A8A38D",
"`. c #AEA98C",
"'. c #A7A492",
"]. c #A9A592",
"[. c #ADA994",
"{. c #AEAA99",
"}. c #B0AA8D",
"|. c #B2AD91",
" X c #B1AD9A",
".X c #BEA596",
"XX c #B6B195",
"oX c #B4B09A",
"OX c #BAB599",
"+X c #BDB89E",
"@X c #B1AFA1",
"#X c #BFADA0",
"$X c #B4B2A3",
"%X c #B7B5A8",
"&X c #B9B5A3",
"*X c #B9B6A9",
"=X c #BDB9A4",
"-X c #BCB9AB",
";X c #BFBDB1",
":X c #C1AB9D",
">X c #C2BD9E",
",X c #C5AEA0",
"<X c #C2B0A7",
"1X c #C0BCA5",
"2X c #C1BDAC",
"3X c #C8BDAA",
"4X c #C1BEB1",
"5X c #C8BDB0",
"6X c #C5C0A5",
"7X c #C4C1AD",
"8X c #C9C5AD",
"9X c #CFCBAF",
"0X c #C3C0B2",
"qX c #CBC5B2",
"wX c #C8C6BC",
"eX c #CCC9B5",
"rX c #CDCABB",
"tX c #C5C4BA",
"yX c #D2CDB3",
"uX c #D2CDBA",
"iX c #D2C5B8",
"pX c #D5D1B6",
"aX c #D7D3BF",
"sX c #DAD5BB",
"dX c #DDD9BD",
"fX c #E4C7B8",
"gX c #E8C2B0",
"hX c #CCCAC1",
"jX c #D3CEC4",
"kX c #DBCEC0",
"lX c #D5D2C1",
"zX c #D5D3CC",
"xX c #D9D5C4",
"cX c #DAD7CA",
"vX c #DDD9C4",
"bX c #DDD9C8",
"nX c #D7D6D0",
"mX c #D8D7D0",
"MX c #DAD9D2",
"NX c #DFDFD9",
"BX c #E0D7C9",
"VX c #E0DBC3",
"CX c #E1DDCC",
"ZX c #E2DED1",
"AX c #E0DFD9",
"SX c #E4E1CC",
"DX c #E5E2D2",
"FX c #E2E1DC",
"GX c #E8E4D3",
"HX c #E9E7D8",
"JX c #EBE9D7",
"KX c #ECE9D9",
"LX c #EDECE0",
"PX c #F0EDE0",
"IX c #F2F0E5",
"UX c #F4F2E8",
/* pixels */
"JXJXJXJXJXeXG.8.8.N.m.m.m.m.m.m.m.m.m.m.N.N.m.8.S.6XKXKXJXJXKXJXJX",
"JXJXJX9XG.B.>XvXdXdXdXdXdXdXdXdXdXdXdXdXdXdXpXpXOXS.b.+XKXJXJXKXJX",
"JXJXOXx.6XdXdXdXSXSXSXGXGXGXGXGXGXJXJXGXSXSXvXsXeX8XOXb.`.KXJXKXJX",
"JXOXm.uXdXVXJXUXUXUXUXUXUXUXUXIXIXUXIXIXUXUXUXLXSXpX6X+XV.`.JXJXJX",
"9Xx.yXdXSXIXUXUXIXIXIXIXIXIXIXIXIXIXIXIXIXIXIXKXHXZXuX=X+Xb.XXJXPX",
"G.>XdXSXUXIXIXIXPXPXPXPXPXPXPXPXPXPXPXPXPXPXIXKXHXDXcXeX=X{.x.bXJX",
"N.sXvXPXIXIXPXPXPXPXPXPXPXPXPXPXPXPXPXPXPXPXPXKXHXNXcXrX-X$XA.XXJX",
"OXsXJXIXuXa r b L BXPXJX:X*.*.5.H.JXKXPXKXPXKXJXDXZXcXrX7X%X[.x.JX",
"yXdXPXZXP q ( ( z 0.ZXkX*.m -.@.C (.KXPXKXPXKXHXDXZXcXrX7X-X@Xv.uX",
"yXVXUX*X% n d.k.@.b ,X:Xx [ P.k.{ K iXKXPXPXKXKXFXCXcXhX0X-X@XV.1X",
"pXZXPX<X> N j.I.[ i #X:Xz ' L.L.$.U wXKXPXKXKXKXGXCXxXrX0X;X%XC.OX",
"pXGXPXZXH c >.$.0 G ZXkXD h ' ' A 9.DXKXPXKXKXJXCXxXlXrX0X4X*XR.|.",
"pXJXPXPX5XS 1 * $ 7.fXgX2.: 1 = U jXLXLXKXPXKXHX/.M.xXwX0X0X*XR.|.",
"yXGXPXPXKXY # + # e M ` ! ; o . u -XHXKXKXJXBXE.r D xXwX;X0X*XR.|.",
"uXGXPXKXJX7.5 : * 1 9 g j 9 @ + - R kXKXKXuXE 7 1 J aXeX;X;X*XR.|.",
"yXGXPXPXJXq.v w q / =.:.r.} ! d 0 Z iXKXBXE @ 1 c 3.aXeX2X0X%XR.|.",
"yXDXPXKXJXF.) ) #.l.j.J.h.u.:._ l Z ~.5X(.u & m #.w.uXeX-X;X%XR.`.",
"eXDXKXKXGXH.V C >.l.L.J.f.y.t. .Q 4 t F p 8 g | :.e.rX7X*X-X%XA.|.",
"9XCXJXJXDXH.B &.1.l.P.h.f.y.t.X.! 2 - f s 0 W o.a.e.qX-X&X-X$XR.|.",
"8XBXGXGXDXH.&.&.&.>.,.u.i.:...~ j 4 p T p & 2 l _ 4.0X=X X*X$XA.|.",
"6XxXSXDXCX/.v 1 $ o $ ; < @ o X o , E.uXE.$ X - 9 S =X&X{.$X$XR.|.",
">XuXcXbXvXF.6 X         .         O Q.CXcX0.X X @ t &X{.[.%X@XR.|.",
"+X8XrXlXuX3X_.~.Y.Y.Y.n.C.Y.U.U.U.T.tXlXlXyX0., X , {.[.{.*X$XA.OX",
"oX=XeXrXeXuXuXuXuXpXuXuXuXuXaXuXjXuXuXuXeXqX1X&XG y '.).@X-X-XV.3X",
"[.oX0X7X7X8X8X8XqXqXqXqXqXqX9X8X8X8X8X7X7X1X=XoX]._.Q.Q.4X;XtX8.JX",
"A.[.$X=X&X&X=X=X=X1X1X1X=X6X1X=X-X=X=X+XoXoX[.[.Q.W.R.@XwXwX%Xm.HX",
"8.].{.$X{.[.{.{.XX{. X{.oXoX X X X X[.`.[._.Q.Q.W.T.].hXjXjXV.=XKX",
"`.C.'.{. X]._._._._._.]._._.)._._.Q.).).).R.R.R.T.].hXMXnX-XN.JXJX",
"vXZ.).{.-X$X'.Q.Q.Q.R.R.W.W.R.R.W.W.R.R.R.T.T.Q.-XcXAXMXwXv.1XJXJX",
"KX8XZ.).-XwXwXtX-X$X@X X{.{.{.{.{.{.{. X$X-XwXcXAXFXAXtXv.OXJXJXKX",
"JXJXeXG.C.*XhXjXzXnXnXmXmXmXmXMXMXmXMXMXMXNXMXAXFXmX].b.&XJXKXJXJX",
"JXJXJXJX Xx.C.{.-XwXzXnXmXmXmXmXnXnXnXmXMXcXtX-XQ.8.}.vXJXJXKXJXKX",
"JXJXKXJXJXKX1XG.N.8.8.8.8.8.8.8.8.8.8.8.8.8.N.D.OXSXJXJXJXJXKXJXJX"
};
