/* XPM */
const char *sound_widget_xpm[]={
"48 48 30 1",
"# c None",
". c None",
"a c #000000",
"B c #000101",
"b c #0a0809",
"d c #0a0906",
"y c #101009",
"c c #121313",
"v c #13140f",
"s c #161312",
"g c #191816",
"i c #1a1b15",
"r c #1e1f1b",
"e c #1f1f1a",
"n c #25231d",
"A c #27251f",
"l c #272621",
"x c #30312a",
"w c #363732",
"o c #3e3e35",
"h c #413f37",
"z c #46453c",
"t c #484842",
"u c #4d4c41",
"j c #615e53",
"q c #752702",
"m c #c97415",
"f c #f0af1a",
"k c #f4cf79",
"p c #ffffc0",
"................................................",
"................................................",
"................................................",
"................................................",
"................................................",
"................................................",
"............##.......###........................",
"...........############.........................",
"................................................",
"................................................",
".....................#...............#..........",
".....................a#.............#aa.........",
"....................aa........###...aaaa........",
"...................aaa........#a##...aaaa.......",
"..................abcaa.......aaa##...aaa.......",
".................deffaa........aaa#...aaaa......",
".......aaaaa....ghfffaa....##...aaa....aaa......",
"......aaaaaaa..ijfkkfaa...#a##..aaa##..aaaa.....",
"......aalfffmanofkkkfaa...aaa##..aaa....aaa.....",
"......aafkppmaqfkkppfaa....aaa#..aaa#...aaa.....",
"......aafkppmaqkppppfaaa...aaaa..#aaa...aaa.....",
"......aafkpkmaqkppppfaaaa...aaa..#aaa...aaa.....",
"......aafkkkmaqkkkppfaaaa...aaa...aaa...aaa.....",
"......aaffffmaqffkkkfaaaa...aaa...aaa...aaa.....",
"......aamfffmaqmffkkfaaaa...aaa...aaa...aaa.....",
"......aammffmaqmmmfffaaaa...aaa...aaa...aaa.....",
"......aaqqmmmaqmmmmmmaaaa...aaa...aaa...aaa.....",
"......aaqqqqqaqqqmmmmaaa...aaaa..#aaa...aaa.....",
"......aarqqqqastqqmmmaa....aaa...aaa....aaa.....",
"......aaaaaaa..auqqmmaa...aaa...#aaa....aaa.....",
".......aaaaa....vwqqmaa....a....aaa....aaaa.....",
".................axqqaa........#aaa...#aaa......",
"..................yzAaa........aaa....aaaa......",
"...................Baaa.......aaa.....aaa.......",
"...................aaa#........a.....aaaa.......",
"....................aa##............aaaa........",
".....................a...............aa.........",
"................................................",
"................................................",
"................................................",
"................................................",
"................................................",
"................................................",
"................................................",
"................................................",
"................................................",
"................................................",
"................................................"};
