/* XPM */
const char *top_camera_xpm[] = {
/* columns rows colors chars-per-pixel */
"33 33 250 2",
"   c #0C0000",
".  c #120100",
"X  c #1A0000",
"o  c #1C0D0A",
"O  c #240100",
"+  c #230C0B",
"@  c #2C0000",
"#  c #2A0F0D",
"$  c #20120F",
"%  c #2C1410",
"&  c #2F1914",
"*  c #320201",
"=  c #330C01",
"-  c #3B0200",
";  c #3B0F0C",
":  c #34120D",
">  c #311A14",
",  c #3C1614",
"<  c #391D1A",
"1  c #33241E",
"2  c #39201D",
"3  c #3C2724",
"4  c #3F2B27",
"5  c #3A2B2A",
"6  c #460400",
"7  c #410B04",
"8  c #470A0A",
"9  c #4B0200",
"0  c #4C0A01",
"q  c #4F0A0A",
"w  c #41110C",
"e  c #451B0A",
"r  c #4B1906",
"t  c #4D1A0A",
"y  c #411516",
"u  c #540100",
"i  c #5D0000",
"p  c #580B04",
"a  c #511A00",
"s  c #561C08",
"d  c #5E1702",
"f  c #4F200C",
"g  c #43251D",
"h  c #55200B",
"j  c #5A2610",
"k  c #442422",
"l  c #422D2B",
"z  c #4D2B21",
"x  c #46312F",
"c  c #4C3936",
"v  c #582E2C",
"b  c #56312C",
"n  c #5A3935",
"m  c #640100",
"M  c #650C00",
"N  c #6D0000",
"B  c #6B0A01",
"V  c #710700",
"C  c #750A00",
"Z  c #7F0000",
"A  c #721000",
"S  c #731818",
"D  c #60240C",
"F  c #6D2700",
"G  c #6C2109",
"H  c #612411",
"J  c #632B15",
"K  c #6C3319",
"L  c #75280B",
"P  c #7A2600",
"I  c #712416",
"U  c #66362E",
"Y  c #6B3120",
"T  c #6D372C",
"R  c #6D3E29",
"E  c #58453F",
"W  c #654137",
"Q  c #5F4743",
"!  c #645850",
"~  c #756A63",
"^  c #796E67",
"/  c #821F00",
"(  c #9C0000",
")  c #842804",
"_  c #882300",
"`  c #882E10",
"'  c #843109",
"]  c #813C00",
"[  c #8F3606",
"{  c #8D3E01",
"}  c #8E3C0A",
"|  c #883710",
" . c #8E3E15",
".. c #963200",
"X. c #93340A",
"o. c #943A00",
"O. c #973A0E",
"+. c #9F3D00",
"@. c #95321D",
"#. c #8F4700",
"$. c #95410F",
"%. c #904310",
"&. c #954C15",
"*. c #99491B",
"=. c #8D4128",
"-. c #934928",
";. c #984F37",
":. c #9B5830",
">. c #A44615",
",. c #A74C16",
"<. c #A94813",
"1. c #A15B00",
"2. c #B45B00",
"3. c #B85F0A",
"4. c #B75E17",
"5. c #B95B1F",
"6. c #A24D2B",
"7. c #AB5627",
"8. c #A55C32",
"9. c #B55B25",
"0. c #AF6200",
"q. c #A1601E",
"w. c #BC7200",
"e. c #AC7439",
"r. c #BD6A34",
"t. c #B17931",
"y. c #817A54",
"u. c #9B664D",
"i. c #806862",
"p. c #8B6E65",
"a. c #BC6643",
"s. c #C05B06",
"d. c #CD680F",
"f. c #C37500",
"g. c #C4682A",
"h. c #C06F3F",
"j. c #C77A3C",
"k. c #C07D44",
"l. c #C57D4A",
"z. c #87815C",
"x. c #89825D",
"c. c #8B8461",
"v. c #8E8868",
"b. c #948D6A",
"n. c #94857D",
"m. c #928C73",
"M. c #96906E",
"N. c #99926F",
"B. c #959074",
"V. c #959178",
"C. c #9B9574",
"Z. c #99957C",
"A. c #9E9877",
"S. c #9F9979",
"D. c #BA8444",
"F. c #BA8651",
"G. c #AB8875",
"H. c #A29D7D",
"J. c #D98900",
"K. c #CB843F",
"L. c #D08337",
"P. c #C2804D",
"I. c #CC835A",
"U. c #D28B47",
"Y. c #D0894D",
"T. c #D78250",
"R. c #D99B5F",
"E. c #CD8667",
"W. c #DB9569",
"Q. c #9A9681",
"!. c #9D9983",
"~. c #A68B80",
"^. c #A09C86",
"/. c #A19D89",
"(. c #A5A18C",
"). c #A8A38D",
"_. c #AEA98C",
"`. c #A7A492",
"'. c #AAA592",
"]. c #AEA499",
"[. c #ACA995",
"{. c #AEAA99",
"}. c #B0AA8D",
"|. c #B2AD91",
" X c #B1AD9A",
".X c #BAA393",
"XX c #BDAE9E",
"oX c #B6B195",
"OX c #B4B09A",
"+X c #B9B49A",
"@X c #BDB89E",
"#X c #B1AFA1",
"$X c #B4B2A3",
"%X c #B7B5A8",
"&X c #B9B5A3",
"*X c #B9B6A9",
"=X c #BDB9A4",
"-X c #BCB9AB",
";X c #BFBDB1",
":X c #CDAC9C",
">X c #C2BD9E",
",X c #C4B6AA",
"<X c #C1BDA4",
"1X c #C1BCAB",
"2X c #C1BEB1",
"3X c #C5C0A5",
"4X c #C4C1AD",
"5X c #C9C5AD",
"6X c #CFCBAF",
"7X c #C3C0B2",
"8X c #C5C4BA",
"9X c #C9C5B1",
"0X c #C9C6BB",
"qX c #CCC9B6",
"wX c #CDCABB",
"eX c #D2CDB3",
"rX c #D1CEBB",
"tX c #DCCCBB",
"yX c #D5D1B6",
"uX c #D4D0BC",
"iX c #DAD5BB",
"pX c #DDD9BD",
"aX c #CCCAC1",
"sX c #D0CEC6",
"dX c #D5D2C1",
"fX c #D5D3CC",
"gX c #D8D4C3",
"hX c #D9D7CA",
"jX c #DDD9C5",
"kX c #DEDBC9",
"lX c #D7D6D0",
"zX c #D8D7D0",
"xX c #DAD9D2",
"cX c #DFDFD9",
"vX c #E0DBC3",
"bX c #E1DDCC",
"nX c #E1DFD1",
"mX c #E0DFD9",
"MX c #E4E0CC",
"NX c #E5E2D2",
"BX c #E2E1DC",
"VX c #E8E5D3",
"CX c #E9E7D8",
"ZX c #EBE8D6",
"AX c #EDEADA",
"SX c #F0EDDF",
"DX c #EEECE0",
"FX c #F0EEE1",
"GX c #F2F0E5",
"HX c #F4F2E8",
/* pixels */
"ZXZXZXZXZXeXH.y.y.b.b.M.b.b.b.b.b.b.b.b.b.b.b.y.S.<XZXZXZXZXAXZXZX",
"ZXZXZX9XH.C.<XpXpXpXpXpXpXpXpXpXpXpXpXpXpXpXiXeX@XS.v.@XAXZXAXZXAX",
"ZXZXoXx.3XpXpXpXMXMXNXNXVXVXVXVXVXVXVXVXNXMXvXgX6X5X+Xb.}.ZXZXZXZX",
"AX+Xb.iXpXvXZXHXHXHXHXHXHXHXGXHXGXHXHXHXHXHXGXDXMXrX3X@XB._.AXZXAX",
"5Xc.eXpXMXHXHXGXGXGXGXGXFXHXFXHXGXGXFXFXFXHXDXDXAXnXwX1X&Xv.oXZXZX",
"H.>XpXMXHXGXGXFXGXFXFXAXFXFXFXFXSXSXFXFXFXFXAXDXCXNXhX9X=X Xx.kXZX",
"M.iXpXGXHXFXSXSXSXAXAXJ D -.9.T.R.k.@.S R BXSXAXCXxXhXwX1X$XZ.|.ZX",
"+XiXZXHXFXFXSXSXSXSXSXj r P 3.J.J.2.Z 8 s AXSXAXVXnXhXwX4X*X[.x.ZX",
"eXpXSXHXFXAXFXSXAXFXAXdXt 7 [ d.s._ - e wXDXAXAXVXnXhXwX7X*XOXv.iX",
"yXvXHXSXFXSXAXFXFXAXSXSX,X* 6 A B 7 ; dXSXAXAXAXCXkXhXwX7X-X#Xm.<X",
"eXMXHXSXSXAXSXSXSXSXSXSXSXVX~   . n.AXSXFXAXAXZXCXkXhXwX7X;X%XZ.+X",
"yXNXGXSXFXAXAXAXAXAXAXAXAXSX^ . X n.SXAXSXAXAXCXNXkXdXwX7X7X*XQ.|.",
"yXVXSXSXAXAXAXSXAXAXAXhXQ c % @ O < c c ].AXAXCXVXxXdXwX7X7X*X!.|.",
"eXVXSXSXSXAXAXAXAXZX,X+ @ - u B C V m 9 * i.AXCXNXkXdXwX-X7X*X!.|.",
"iXVXSXSXAXZXtX:Xp.k X X u O.r.U.L.U.l.%.; g ZXVXNXkXdXqX-X7X*X!.|.",
"eXNXSXSXAXZXU p @ O O @ ` r.l.4.>.,.P.e.h g AXVXbXkXuXqX1X7X*X!.|.",
"qXNXSXAXAX~.; ..G @ * 6 6.I.( u u m *.F.D g ZXVXbXhXrX9X-X2X*XQ.}.",
"eXNXAXZXAXW K h.b 5 y 6 8.E.m u Z i  .D.K g VXNXkXgXrX7X*X-X$X!.|.",
"6XMXCXCXCXz ] o.! CXn @ :.f.m >.Y.N ' t.J g CXNXjXuXqX1X&X-X$X!.|.",
"5XjXCXVXVX: T ; E VXx O ;.w.M g.W.m L q.j < bXkXgXqX4X=X X*X#XZ.|.",
"3XgXMXMXMXXXXX.X,XNXx X =.0.u 5.j.u d #.s > kXiXwX9X=X$X{.%XOXQ.|.",
"<XrXkXkXkXvXMXMXMXbXl X I +.6 <.7.* 0 ] t & iXwX9X3X&X{.[.*X#XQ.|.",
"&X9XuXuXgXgXpXjXjXjXk . q / * X.$.@ - F = % qX9X3X$X X'.{.*X%XZ.+X",
" X=XqXwXyXwXwXwXuXuX3 . * 6 O ) #.@ O a X $ 5X=X+X X'.(.#X-X;Xm.4X",
").+X7X4X4X5X5X5X9X9X<   X @ X ' &.* X O   o &XOX[.).(.!.;X-X8X^ ZX",
"Z.'.&X*X&X&X=X*X<X<X'.X . X X } 1.* . . 1 m.[.'.(./.!.OXaXaX&Xb.ZX",
"z.[.[.$X X[.[. X X|. Xn # # , u.G.v $ > /.).(./.!.Q.`.aXsXsXB.@XAX",
"_.m.`.{.OX'.).).).).(.(.`.).(.).(.(.(.(./.^.!.Q.Q.[.aXxXxX=XN.AXZX",
"kXS.!.OX*X#X`.(././.^.^./.!.!.^.^.^.!.!.Q.Q.Q.(.-XfXcXcX0Xc.=XAXZX",
"CX4XS./.-X0X8X8X-X$X#X{.{.{.{.{.{.{.{.#X$X;X0XzXcXBXcX7Xc.+XAXZXAX",
"AXZXqXH.V.*X0XfXfXfXfXxXxXxXxXfXxXxXxXxXxXxXcXBXBXzX).b.@XAXZXZXZX",
"ZXAXAXCXoXx.V.[.*XaXfXlXfXlXlXxXlXfXfXxXzXzX7X=X!.z._.jXZXZXZXAXZX",
"ZXAXZXZXAXZX<XH.M.x.y.y.y.y.y.y.y.y.y.y.y.y.b.A.oXMXZXZXZXZXZXZXAX"
};
