/* XPM */
const char *zoomin_xpm[] = {
/* columns rows colors chars-per-pixel */
"33 33 257 2",
"   c black",
".  c #17110C",
"X  c #191917",
"o  c #271901",
"O  c #231D17",
"+  c #340E00",
"@  c #361B04",
"#  c #2A241C",
"$  c #3B2817",
"%  c #3F3603",
"&  c #372E03",
"*  c #2B2822",
"=  c #2A2A29",
"-  c #30302A",
";  c #393834",
":  c #167C78",
">  c #2A7D70",
",  c #327664",
"<  c #4B0E00",
"1  c #471A00",
"2  c #4C1D00",
"3  c #471701",
"4  c #4F2000",
"5  c #4D2C0E",
"6  c #532300",
"7  c #512D15",
"8  c #46372A",
"9  c #731E01",
"0  c #612B12",
"q  c #752702",
"w  c #783301",
"e  c #763819",
"r  c #43413B",
"t  c #7D451A",
"y  c #77543D",
"u  c #746F37",
"i  c #534C42",
"p  c #545450",
"a  c #55514A",
"s  c #4D7757",
"d  c #5E7E49",
"f  c #486C4E",
"g  c #635D48",
"h  c #6B6443",
"j  c #68655A",
"k  c #746C44",
"l  c #746D49",
"z  c #767145",
"x  c #787046",
"c  c #7A7349",
"v  c #78795B",
"b  c #6C6A63",
"n  c #767864",
"m  c #7E7B70",
"M  c #198969",
"N  c #168371",
"B  c #278477",
"V  c #299768",
"C  c #349574",
"Z  c #2F8A67",
"A  c #3DA574",
"S  c #32AA6B",
"D  c #409B7E",
"F  c #438B78",
"G  c #45B375",
"H  c #5CAC66",
"J  c #53B978",
"K  c #45AE6D",
"L  c #7E9243",
"P  c #6C9543",
"I  c #679F7E",
"U  c #658D6C",
"Y  c #6EB15E",
"T  c #61A457",
"R  c #64A569",
"E  c #67B976",
"W  c #7AB765",
"Q  c #67AC70",
"!  c #55C27E",
"~  c #2E8A80",
"^  c #3C9583",
"/  c #479784",
"(  c #519E85",
")  c #47A182",
"_  c #58A88C",
"`  c #59AA91",
"'  c #57B784",
"]  c #4AA591",
"[  c #68B698",
"{  c #72BE80",
"}  c #72BF9E",
"|  c #64B68A",
" . c #6AC38D",
".. c #6BC890",
"X. c #77CA96",
"o. c #7BD099",
"O. c #72C485",
"+. c #7CC5A2",
"@. c #8A2100",
"#. c #963A07",
"$. c #884917",
"%. c #964805",
"&. c #9D5705",
"*. c #8F4B0E",
"=. c #8D4F22",
"-. c #84562B",
";. c #955B26",
":. c #937031",
">. c #A55A08",
",. c #A05F15",
"<. c #AA4F04",
"1. c #AB6107",
"2. c #A46F1D",
"3. c #B7670A",
"4. c #BD6A16",
"5. c #B37015",
"6. c #BC720B",
"7. c #A46C31",
"8. c #A77529",
"9. c #AE7127",
"0. c #847B59",
"q. c #94754A",
"w. c #8B7D65",
"e. c #C06B0B",
"r. c #C76D14",
"t. c #C97415",
"y. c #D06F16",
"u. c #D37C01",
"i. c #CC750C",
"p. c #9F9131",
"a. c #B7871E",
"s. c #BE8223",
"d. c #AB8728",
"f. c #ADA637",
"g. c #899A41",
"h. c #9D8F5D",
"j. c #9B9151",
"k. c #8D876B",
"l. c #898573",
"z. c #8D8A7A",
"x. c #8D8977",
"c. c #918D77",
"v. c #96927B",
"b. c #98937C",
"n. c #85B55B",
"m. c #8BA76D",
"M. c #8DB06B",
"N. c #A38344",
"B. c #A09E5D",
"V. c #BD964E",
"C. c #AA9562",
"Z. c #A3926B",
"A. c #A4AF4D",
"S. c #B0AB4F",
"D. c #A0B449",
"F. c #B9A36A",
"G. c #D9870E",
"H. c #D48716",
"J. c #DE910F",
"K. c #D79417",
"L. c #C98617",
"P. c #C38822",
"I. c #CF9227",
"U. c #C59639",
"Y. c #D39A2D",
"T. c #C6AD35",
"R. c #DAAB27",
"E. c #D6AA39",
"W. c #DEB02B",
"Q. c #E19B22",
"!. c #ECA814",
"~. c #F0AC03",
"^. c #F0AF1A",
"/. c #F1B00B",
"(. c #F1B713",
"). c #E7A823",
"_. c #EEB524",
"`. c #EBB234",
"'. c #F2BC2F",
"]. c #DFAE54",
"[. c #C9A452",
"{. c #C9A475",
"}. c #EEBB46",
"|. c #E7B453",
" X c #F0C146",
".X c #F1C559",
"XX c #F4D079",
"oX c #9D9A85",
"OX c #9B9785",
"+X c #8E8C86",
"@X c #A09C86",
"#X c #A19D8A",
"$X c #A5A18C",
"%X c #A8A48D",
"&X c #A5A292",
"*X c #A9A693",
"=X c #AAA798",
"-X c #ADA995",
";X c #ADAA9A",
":X c #B1AD99",
">X c #B6AC92",
",X c #B8B49A",
"<X c #AEADA3",
"1X c #B2AEA1",
"2X c #B4B1A2",
"3X c #B8B6A9",
"4X c #BDBAA9",
"5X c #BEBCB1",
"6X c #8ECBB0",
"7X c #8ED3A5",
"8X c #84D2A2",
"9X c #98D4B5",
"0X c #83C7A7",
"qX c #A1DDB9",
"wX c #C3BE9E",
"eX c #D5B281",
"rX c #C1BEA9",
"tX c #C0BEB3",
"yX c #D8C28E",
"uX c #C9C5A8",
"iX c #C2C0B5",
"pX c #C8C6B9",
"aX c #D2CEB1",
"sX c #D5D0B6",
"dX c #D8D3B6",
"fX c #DAD5BA",
"gX c #DDD9BE",
"hX c #D5D2B9",
"jX c #F2CD84",
"kX c #F5D385",
"lX c #F4D692",
"zX c #EAC29E",
"xX c #E6D5B1",
"cX c #F1D5A0",
"vX c #EAD8AC",
"bX c #F8E5BA",
"nX c #CCCBC2",
"mX c #D0CEC6",
"MX c #D8D6C8",
"NX c #DAD9D4",
"BX c #E0DCC7",
"VX c #E0DFD6",
"CX c #E4E1CC",
"ZX c #E6E3D1",
"AX c #E3E2DA",
"SX c #E8E5D3",
"DX c #EAE8D6",
"FX c #EDEBDC",
"GX c #E8E6DB",
"HX c #F6E7C9",
"JX c #F0EDDF",
"KX c #EDEBE0",
"LX c #F0EEE1",
"PX c #F2F0E5",
"IX c #F5F3E8",
"UX c gray100",
"YX c None",
/* pixels */
"YXYXYXYXYXYX% % % % z z z z c z z c z z x x l k % % % YXYXYXYXYXYX",
"YXYXYXYX% % 0.,XgXgXgXgXgXgXMXxXxXMXgXgXgXxXfXsXuX>Xk.% % YXYXYXYX",
"YXYXYX% % uXxXBXgXCXCXSXSXSXSXDXDXDXSXSXDXVXBXBXhXuXrX>Xl % YXYXYX",
"YXYX% z dXgXMXDXPXIXPXPXIXPXIXIXbXlXkXXXjXjXcXHXGXNXaX4X2Xn % YXYX",
"YX% % hXgXCXLXPXPXPXPXPXPXHXXX'._.).W.E.).).).Q.].xXMXpX4X,Xl % YX",
"YX% wXgXCXPXPXPXPXPXJXPXlX(.~.E.S.M.M.m.m.m.B.f.H.K.eXpXiX2X=X% % ",
"% v gXgXPXPXPXJXJXJXPX.X/.R.A.W T I Q | | ` _ I j.L.L.{.5X3X<Xk.% ",
"5 ,XgXDXPXLXJXJXJXJX X~.T.n.E E O.X.o.0X+.X.[ ` ] N.P.9.>X3X3X;X% ",
"% dXgXPXPXLXJXFXJX X(.T.W E E 8Xv n n 9X6X0X[ ` ] U 9.7.:.3X5X3Xh ",
"% fXgXPXLXJXFXJXkX(.W.n.W E 7XqX6 6 2 9X6X0X[ ` ^ C 8.7.-.w.5X5Xk.",
"c dXCXIXLXJXJXKX_.!.D.H E 7XqX9X6 6 6 +.[ [ ` _ ^ > 7.7.-.p 3XiXk.",
"c dXSXPXJXJXJXlX/.R.Y E 8XU 6 6 4 6 6 2 3 j ( ( C > 2.7.-.i <XiXv.",
"c dXSXJXJXFXKX.X!.f.H O.7Xh 4 4 4 4 4 4 2 s / / B , 6.;.=.i <XtXb.",
"c fXSXPXJXFXKX X!.g.H o.8Xg 2 2 4 4 4 4 2 s / / N u r.;.=.j 3XtXb.",
"c dXSXPXFXFXFX`.!.L J o.8Xo. .' 2 1 1 ) / / / N > 4.4.=.#.p 3XtXv.",
"c dXSXLXFXFXFX'.).g.J ..X. .' G 1 1 1 ) / ^ B : :.t.,.e 8 b tXtXv.",
"c dXZXLXJXFXDX`.^.p.K ! ' ' G G f f f C C B : c i.3.$.0 8 z.5XqXv.",
"x sXCXJXFXDXDX).).P.T S S G K S A C V Z N N c i.e.*.q 3 b OXtXtXb.",
"x aXBXJXDXDXDX|.Q.P.d.K S S V V M M N N s 8.y.6.%.q 2 i z.#XtXtXb.",
"x aXBXFXDXDXSXzXH.H.G.a.P S V V V Z P :.6.y.1.%.q < # b #X%XtXtXb.",
"k uXgXZXZXZXCXlXJ.G.G.G.G.L.s.s.s.t.t.r.3.>.%.q < . 8 #X=X$XtXtXb.",
"k rXhXBXVXBX|.Q.G.u.3.>.1.&.1.1.1.&.%.%.#.q 9 $ . ; =X>X&X&XtXtXb.",
"k ,XpXMXvXW.J.K.i.<.#.w q q w w w w q q 9 5 O X r &X#X%X#X*XtXnXk.",
"5 >XrXyX[.Y.I.e.%.9 $ O . o + 3 3 3 @ # X = a m &XOX#X#XOX1XnXnXv ",
"% %XF.[.[.U.5.%.9 O X ; r - = ; ; ; r a b +X-X-X&X&X@X@XOXtXmXmX% ",
"% j.C.F.V.8.%.9 # * x.4X4X,X$Xv.z.z.OX*X:X:X-X%X#X@XOXv.:XmXMXtX% ",
"% % Z.B.q.;.e * - x.:X:X:X>X:X:X;X-X>X-X*X%X@X@X@XOXv.&XmXNXNXw.% ",
"YX% q.Z.q.g i 8 v.%X#X*X#X%X%X%X$X%X#X#X#X@X@XOXb.v.*XmXVXVX3X% YX",
"YX% 5 0.w.n b v.oXoXoX#XoXoXoXoXoXoXoXoXOXb.OXb.#X5XNXVXVXnX% % YX",
"YXvX% % w.+X1X3X3X2X<X;X=X-X=X-X=X=X*X=X=X<X3XiXmXNXNXNXpX% % YXYX",
"YXYX  o & v =X3XiXpXpXnXnXnXnXnXnXnXnXnXmXmXmXMXNXNXNX@X% % YXYXYX",
"YXYXYXYX% % 5 0.oX<X5XpXpXnXnXnXpXnXnXnXnXnXmXtX2Xb.% % % YXYXYXYX",
"YXYXYXYXYXYXYX% % % % % % % % % % % % % % % % % % % % YXYXYXYXYXYX"
};
