/* XPM */
const char *cunpaint_xpm[]={
"16 15 3 1",
". c None",
"# c #000000",
"a c #ffffff",
".............##.",
".......######a#.",
".....##a###a##..",
"...##a######a#..",
"..########aa##..",
".#######aaa##a#.",
"###aaaa#aaa##a#.",
"#aaaaaaa#aaa#a#.",
"#a######a#aaaa#.",
"#a######a#aaaaa#",
"#a######a#aaaaa#",
".#aaaaaa#aaaaaa#",
"..######aaaaa##.",
".....#aaaaaa#...",
".....#######...."};
