/* XPM */
static char *arrow_selection[]={
"32 32 3 1",
"# c None",
". c None",
"a c #0000c0",
"................................",
"................................",
"........#############...........",
"........#############...........",
"........#######a######..........",
"........######aaa#####..........",
"........#####aaaaa####..........",
"........####aaaaaaa###..........",
"........###aaaaaaaaa##..........",
"........##aaaaaaaaaaa#..........",
"........#aaaaaaaaaaaaa..........",
"........#####aaaaa####..........",
"........#####aaaaa####..........",
"........#####aaaaa####..........",
"........#####aaaaa####..........",
"........#####aaaaa####..........",
"........#####aaaaa####..........",
"........#####aaaaa####..........",
"........#####aaaaa####..........",
"........#####aaaaa####..........",
"........#####aaaaa####..........",
"........#aaaaaaaaaaaaa..........",
"........##aaaaaaaaaaa#..........",
"........###aaaaaaaaa##..........",
"........####aaaaaaa###..........",
"........#####aaaaa####..........",
".........#####aaa#####..........",
".........######a######..........",
"................................",
"................................",
"................................",
"................................"};
