/* XPM */
const char *cmagnifying_xpm[]={
"16 15 6 1",
"d c None",
". c None",
"a c #000000",
"c c #303030",
"b c #333333",
"# c #ffffff",
"..#aaaaaa#......",
".#a#abab#a#.....",
"#a#a####baa#....",
"a#c######b#a#...",
"aa########ba#...",
"aa########aa#...",
"aa########ba#...",
"ab########aa#...",
"a#b#######ba#...",
"#aab#####baa#...",
".#a#bababaaaa#..",
"..#aaaaaa##aaa#.",
"...######..#aaa#",
"............#aa#",
".............##d"};
