/* XPM */
const char *cselect_xpm[]={
"16 22 4 1",
"# c None",
"a c #000000",
"b c #303030",
". c #ffffff",
"..##############",
".a.#############",
".aa.############",
".aaa.###########",
".aaaa.##########",
".aaaaa.#########",
".aaaaaa.########",
".aaaaaab.#######",
".aaaaaaaa.######",
".aaaaaaaaa.#####",
".aaaaaaaaaa.####",
".aaaaaaaaaaa.###",
".aaaabb.....####",
".aaabbb.########",
".aa..bbb.#######",
".a.#.bbb.#######",
"..###.bbb.######",
"#####.bbb.######",
"######...#######",
"################",
"################",
"################"};
