/* XPM */
const char *addfolder_xpm[]={
"12 12 9 1",
". c None",
"g c #000000",
"# c #303030",
"a c #a64a03",
"b c #cb6d03",
"c c #d99119",
"e c #e1aa52",
"d c #ecc16c",
"f c #ffffc0",
"............",
".####.......",
".#aaa######.",
".#bbbaaaaa#.",
".#cccbbbba#.",
".#deccccba#.",
".#fdeeecba#.",
".#fdeeecba#.",
".#fdddecba#.",
".#ffffdcba#.",
".g#########.",
"............"};
