/* XPM */
const char *align_t_xpm[] = {
/* columns rows colors chars-per-pixel */
"33 33 256 2",
"   c #480F05",
".  c #491508",
"X  c #54190A",
"o  c #5A1B0A",
"O  c #551807",
"+  c #5D200E",
"@  c #592914",
"#  c #631C07",
"$  c #63210C",
"%  c #6B250C",
"&  c #662913",
"*  c #69371C",
"=  c #72240A",
"-  c #762A0E",
";  c #742E12",
":  c #7C3012",
">  c #6F4522",
",  c #744624",
"<  c #7F552B",
"1  c #862B0B",
"2  c #873512",
"3  c #922E0B",
"4  c #95310C",
"5  c #9A3C13",
"6  c #933C14",
"7  c #A2340C",
"8  c #A9390D",
"9  c #A03E13",
"0  c #B83C0D",
"q  c #9F5019",
"w  c #82572C",
"e  c #825635",
"r  c #9F5622",
"t  c #8C6239",
"y  c #926A3F",
"u  c #9B733D",
"i  c #A14B10",
"p  c #AC4212",
"a  c #A45219",
"s  c #BC410E",
"d  c #B74411",
"f  c #BD4914",
"g  c #AC5F29",
"h  c #A06131",
"j  c #B5713F",
"k  c #817A54",
"l  c #936A42",
"z  c #997243",
"x  c #846A46",
"c  c #A06E46",
"v  c #A37D47",
"b  c #A17C59",
"n  c #C4440F",
"m  c #C94911",
"M  c #C34B12",
"N  c #CD5015",
"B  c #D35717",
"V  c #D8661E",
"C  c #D7631B",
"Z  c #DB6D22",
"A  c #DB7424",
"S  c #A2853E",
"D  c #A7883E",
"F  c #AA8B3E",
"G  c #88825D",
"H  c #9C8142",
"J  c #8B8461",
"K  c #8E8868",
"L  c #948D6A",
"P  c #928D71",
"I  c #96906E",
"U  c #9B936A",
"Y  c #959074",
"T  c #9B9574",
"R  c #9A967D",
"E  c #9E9877",
"W  c #9F9979",
"Q  c #959178",
"!  c #A18443",
"~  c #A58A43",
"^  c #A48B4C",
"/  c #AA8C42",
"(  c #AA8747",
")  c #A38C55",
"_  c #AD9349",
"`  c #AC9657",
"'  c #B49342",
"]  c #B3964B",
"[  c #BA9A46",
"{  c #BA9C4B",
"}  c #B69956",
"|  c #A58F71",
" . c #AE9A6C",
".. c #A99562",
"X. c #A59D7A",
"o. c #BE8370",
"O. c #BC8A78",
"+. c #B89B66",
"@. c #B19D72",
"#. c #B4917E",
"$. c #BDA04E",
"%. c #BCA256",
"&. c #ACA17C",
"*. c #BBA767",
"=. c #B3A173",
"-. c #B4A57B",
";. c #B9A774",
":. c #DF812B",
">. c #E0852C",
",. c #E38C32",
"<. c #E69C39",
"1. c #E69E37",
"2. c #E7A139",
"3. c #C1895D",
"4. c #C09F49",
"5. c #C18876",
"6. c #C5907E",
"7. c #C2A149",
"8. c #C8A54E",
"9. c #CCAB52",
"0. c #C7A958",
"q. c #CDB25C",
"w. c #D1AE52",
"e. c #D3B053",
"r. c #D5B45A",
"t. c #D8B659",
"y. c #DDBC5E",
"u. c #C4AB66",
"i. c #CCB469",
"p. c #C9B66A",
"a. c #C5B578",
"s. c #D4BA62",
"d. c #D7BB68",
"f. c #D0BF73",
"g. c #EBAD41",
"h. c #EDB542",
"j. c #E1BF60",
"k. c #DEC267",
"l. c #DAC46C",
"z. c #D4C27A",
"x. c #D9C876",
"c. c #F2C64C",
"v. c #F7D351",
"b. c #E4C464",
"n. c #EBCD6C",
"m. c #E5C869",
"M. c #E2CD72",
"N. c #E2C773",
"B. c #E5D37C",
"V. c #EAD37B",
"C. c #EBD475",
"Z. c #F2D46F",
"A. c #F0D473",
"S. c #F1DA7A",
"D. c #F3D877",
"F. c #FCE37C",
"G. c #9C9881",
"H. c #A69C86",
"J. c #AAA58A",
"K. c #A8A592",
"L. c #AEAA98",
"P. c #B4AC8B",
"I. c #BCAE8B",
"U. c #B9AD83",
"Y. c #B3AD91",
"T. c #BDB28A",
"R. c #BDB185",
"E. c #B5B194",
"W. c #BAB393",
"Q. c #BAB49A",
"!. c #BDB89E",
"~. c #BEBA90",
"^. c #B1AFA1",
"/. c #BBB8AB",
"(. c #BAB6A0",
"). c #CB9A88",
"_. c #CCAC94",
"`. c #C1B586",
"'. c #C3B98D",
"]. c #C9BD84",
"[. c #C8B886",
"{. c #C4BA97",
"}. c #D1A897",
"|. c #C1BDA4",
" X c #C9BEA5",
".X c #CCC08B",
"XX c #D5C683",
"oX c #DDCD83",
"OX c #D6C887",
"+X c #D6CC9B",
"@X c #D8CE9E",
"#X c #D2C895",
"$X c #DFD184",
"%X c #D8D08F",
"&X c #C5C0A5",
"*X c #CAC5AC",
"=X c #C7C0AA",
"-X c #C7C5B7",
";X c #D1CCB4",
":X c #D2CEBB",
">X c #D6D0A4",
",X c #D8D0A2",
"<X c #D6D2B7",
"1X c #D9D4BC",
"2X c #DED9BE",
"3X c #D7D0BE",
"4X c #E0C981",
"5X c #E5D381",
"6X c #E5D288",
"7X c #EBD983",
"8X c #EAD88A",
"9X c #E8D88C",
"0X c #E9D897",
"qX c #F2DD83",
"wX c #F1DF94",
"eX c #EBDEA3",
"rX c #E5DBA5",
"tX c #EFE08B",
"yX c #ECE392",
"uX c #F4E084",
"iX c #F4E38B",
"pX c #FCE783",
"aX c #F8E689",
"sX c #FBE888",
"dX c #F5E591",
"fX c #F6E892",
"gX c #F6EA99",
"hX c #FAED94",
"jX c #F5E59C",
"kX c #FCF097",
"lX c #FAF19B",
"zX c #EAE0A7",
"xX c #F2E4A4",
"cX c #F7EBA6",
"vX c #F8EFB1",
"bX c #FBF4A8",
"nX c #F9F3B9",
"mX c #C8C7C0",
"MX c #CCCAC1",
"NX c #DBD4C2",
"BX c #DBD8CC",
"VX c #D8D7D0",
"CX c #DDDCD6",
"ZX c #E0DBC2",
"AX c #E0DCCD",
"SX c #E1DFD2",
"DX c #E5E1CB",
"FX c #E7E4D0",
"GX c #E8E5D1",
"HX c #EBE9D7",
"JX c #EBE8D8",
"KX c #E2E1DC",
"LX c #EDECE0",
"PX c #F0EFE3",
"IX c #F2F0E4",
"UX c #F4F2E8",
/* pixels */
"JXJXJXJXJX;XX.G k U L L L U U L L U L L L L L k X.!.JXJXJXJXJXJXJX",
"JXJXJX*XX.Y !.1X2X2X2X2X2X2X2X2X2X2X1XZX2X2X1X<XW.X.K !.JXJXJXJXJX",
"JXHXE.G &X2X2X2XZXFXGXSXSXGXGXGXGXGXSXGXFXDXNX<X;X*XQ.L J.JXJXJXJX",
"JXQ.L <X2XNXHXUXUXUXUXIXUXUXUXUXUXUXUXUXUXUXUXLXAX;X&X!.Y P.JXJXJX",
">XG <X2XDXUXUXUXIXIXIXIXIXIXIXIXIXIXUXUXUXUXPXLXJXSX:X&X(.K E.HXJX",
"E &X{._.}.).6.5.5.5.o.o.o.o.o.o.o.o.b 5.o.o.5.5.O.O.#.#.H.H.G AXJX",
"I [.5.3.j g a a i i i i i i i i p i i i p i i i q r h c b | x E.JX",
"Q.@XrXzXjXyX8X8X8X8X8X8X8X6X8X8X8X8X8X8X8X8X8X6X6XoXXX.XR.R.J.G JX",
">XrXnXvXbXlXlXlXlXlXlXlXlXlXlXlXlXlXlXlXlXlXlXgXjXyX%X%X.X~.E.J :X",
",XrXvXcXgXfXfXfXfXfXfXhXgXgXkXkXlXhXlXhXfXfXdXdXtX9X$XOX.X~.E.P |.",
">XrXcXlXfXfXfXfXaXhXhXwXu.l e e e z u.iXkXfXdXiXtX9X$XXX.X~.~.L E.",
",XeXcXjXfXiXiXiXiXhXV.e & + + & $ $ @ t B.hXiXiX7X5XB.XXz.~.~.U Y.",
",XzXxXfXiXaXaXaXsX7Xt X & 2 6 6 5 2 ; + y qXsXqXtXB.x.z.a.~.!.G.Y.",
"@XzXxXdXiXqXuXuXaXv X & 6 9 f M M d i : o ` aXqXS.B.x.z.a.~.~.G.Y.",
"+XxXxXdXaXqXqXsXd.* o 2 0 N Z Z A B M 5 = , B.S.B.B.x.x.a..X~.G.Y.",
"+X0XjXiXqXqXS.sX^ X % 5 M Z ,.<.<.>.B 0 2 @ p.F.B.B.x.x.;.~.Q.G.Y.",
"#XeXwXqXuXS.S.pXu . - 8 B >.2.v.h.<.Z n 4 $ %.S.C.x.z.p.*.~.~.R Y.",
"#XeXwXqXS.D.S.F.u   - 8 B >.c.v.v.g.Z n 4 $ } S.n.l.l.p.*.~.W.R Y.",
"{.0XwXqXD.D.D.F.D . = 4 m A 1.2.g.>.Z 0 1 + q.C.M.l.s.p.*.R.P.R Y.",
"{.6X8XV.C.Z.A.D.q.+ O 3 0 B Z >.A Z m 8 = * k.n.k.y.q.%.*.R.P.R Y.",
"[.%X6XV.n.n.n.n.A.t   # 4 0 m N N n 8 1 O u m.b.s.q.%.%.` R.P.G.Y.",
"[.OX4Xd.m.b.b.b.n.y., X $ 1 4 7 7 4 = O < y.k.t.e.0.%.%.` T.P.G.Y.",
").[.4Xd.d.j.j.j.j.b.t.w . . o + # o . w r.y.e.q.0.$.] `  .T.E.R Q.",
"U.`.a.d.r.t.e.t.t.t.y.t.F > @ @ @ > ( r.r.9.9.$.$.] _ ^ -.W.!.P  X",
"&.;.a.u.0.9.9.w.w.w.w.w.e.e.e.q.e.e.e.w.8.7.4.[ F F _ ^ ~.!.=Xk JX",
"R &.;.*.%.{ 4.4.4.4.4.4.8.8.$.$.4.4.4.4.[ [ ' F F F H =.&X*XQ.P JX",
"k K.@.=.} ] ] ' ' ' ' ' F [ F ,.F F F F / D D D ~ H ..*X;X:XY (.JX",
"P.Q K.&.=.` ^ ( / / / ( F F F F F F D D D D ! H H ..*XBXVX/.I JXJX",
"ZXR H.^.W.U...^ v ! ! ! ( ! ! ! / ! ! ! z H H ) T.3XBXBX-XG =XJXJX",
"JX*XR H./.-X|.{.I.U.@.@. . . . .+.@.@.@.U.I.&X1XBXKXKX-XG Q.JXJXJX",
"JXJX-XX.R |.mXMXNX3XNXZX1XNXNXNXNXNXNXNXVXCXCXCXKXVXK.K !.JXJXJXJX",
"JXJXJXJXE.k Q L.|.mXmXMXMXMXVXVXmXmXmXVXVXVX-X/.J.k P.NXJXJXJXJXJX",
"JXJXJXJXJXJX|.X.P k k k k k k k k k k k k k I X.Y.SXJXJXJXJXJXJXJX"
};
