/* XPM */
const char *align_ch_xpm[] = {
/* columns rows colors chars-per-pixel */
"33 33 256 2",
"   c #0C0200",
".  c #090404",
"X  c #160300",
"o  c #191815",
"O  c #391107",
"+  c #3E3119",
"@  c #581807",
"#  c #5A1B0A",
"$  c #511909",
"%  c #4F2812",
"&  c #59210F",
"*  c #5A2813",
"=  c #513C1D",
"-  c #47351A",
";  c #433A24",
":  c #641D08",
">  c #63230D",
",  c #6A220C",
"<  c #6B2D13",
"1  c #642B15",
"2  c #673A1D",
"3  c #613118",
"4  c #77280C",
"5  c #763215",
"6  c #6E3D24",
"7  c #743F21",
"8  c #5D4522",
"9  c #6C4223",
"0  c #744824",
"q  c #555550",
"w  c #6F6A5A",
"e  c #8B2D00",
"r  c #862B07",
"t  c #883813",
"y  c #9B330C",
"u  c #93340B",
"i  c #953A12",
"p  c #A9390D",
"a  c #B33D0E",
"s  c #984015",
"d  c #855A35",
"f  c #886436",
"g  c #867738",
"h  c #916937",
"j  c #937836",
"k  c #A74615",
"l  c #B54814",
"z  c #B9693A",
"x  c #817A54",
"c  c #9C7848",
"v  c #A27C42",
"b  c #C2430F",
"n  c #CB4C12",
"m  c #C54B13",
"M  c #CE5315",
"N  c #D15516",
"B  c #D45C1B",
"V  c #D6631D",
"C  c #DC6A22",
"Z  c #DD7728",
"A  c #A2853E",
"S  c #A7893E",
"D  c #AC8D3E",
"F  c #88825D",
"G  c #9D8242",
"H  c #94874B",
"J  c #968C54",
"K  c #989152",
"L  c #9A955A",
"P  c #8B8461",
"I  c #8E8868",
"U  c #928C69",
"Y  c #9C8D67",
"T  c #928D71",
"R  c #96906E",
"E  c #9C926A",
"W  c #969174",
"Q  c #99947B",
"!  c #9E9877",
"~  c #9F9979",
"^  c #999475",
"/  c #A18544",
"(  c #A48A4A",
")  c #AA8C42",
"_  c #A68848",
"`  c #A68A53",
"'  c #AC9349",
"]  c #AC9554",
"[  c #B8854E",
"{  c #BA8650",
"}  c #B39342",
"|  c #BC9C4B",
" . c #B69849",
".. c #B79855",
"X. c #AA9964",
"o. c #A79D79",
"O. c #B19D6E",
"+. c #B19D71",
"@. c #BEA251",
"#. c #BCA35A",
"$. c #B9A54B",
"%. c #ACA27C",
"&. c #B9A666",
"*. c #B3A274",
"=. c #B5A57C",
"-. c #B9A974",
";. c #DF822E",
":. c #E1862D",
">. c #E28A34",
",. c #E69A39",
"<. c #E8A53D",
"1. c #C08958",
"2. c #C29E53",
"3. c #C99A69",
"4. c #C2A14B",
"5. c #CAA74D",
"6. c #CCAB53",
"7. c #C7A957",
"8. c #C4B04D",
"9. c #CEB25A",
"0. c #D0AD54",
"q. c #D3B45A",
"w. c #D8B759",
"e. c #D9B95C",
"r. c #D5B156",
"t. c #C5AC67",
"y. c #C9B465",
"u. c #C6BA7B",
"i. c #C6B577",
"p. c #DCBE62",
"a. c #D1B966",
"s. c #D0BF73",
"d. c #CFA67A",
"f. c #E7A541",
"g. c #EEB548",
"h. c #EDB646",
"j. c #F0BF4D",
"k. c #D3C057",
"l. c #DBC26A",
"z. c #DCC466",
"x. c #D7C677",
"c. c #DDD07D",
"v. c #F1C34B",
"b. c #F5CD52",
"n. c #F8DA5A",
"m. c #E2C161",
"M. c #ECCC67",
"N. c #EACC69",
"B. c #E4C86A",
"V. c #E4CC73",
"C. c #EED16C",
"Z. c #EBD272",
"A. c #EAD47A",
"S. c #E7D379",
"D. c #F0D16C",
"F. c #F1D472",
"G. c #F2D875",
"H. c #F3DC7C",
"J. c #F8DD74",
"K. c #E9E16C",
"L. c #F8E577",
"P. c #9C9881",
"I. c #A19D88",
"U. c #AAA489",
"Y. c #ACA896",
"T. c #B3AB8B",
"R. c #BCAE8A",
"E. c #B8AC84",
"W. c #B3AD91",
"Q. c #BBB28D",
"!. c #BEB88A",
"~. c #BCB085",
"^. c #B6B194",
"/. c #BAB493",
"(. c #BAB49B",
"). c #BEB899",
"_. c #B8B5A5",
"`. c #BCBCB8",
"'. c #C4BC8C",
"]. c #C9BD83",
"[. c #C3B888",
"{. c #C3BD92",
"}. c #C2B89A",
"|. c #D3BE94",
" X c #D3B389",
".X c #C2BDA4",
"XX c #C9BFA5",
"oX c #C9C08E",
"OX c #C9C496",
"+X c #D6C988",
"@X c #D5CD9B",
"#X c #D3CB96",
"$X c #DED284",
"%X c #CAC4AC",
"&X c #C6C0A8",
"*X c #C8C4B5",
"=X c #D5CFA5",
"-X c #D2CCB5",
";X c #D3CDBC",
":X c #DBD3A3",
">X c #DBD5AC",
",X c #DCD6A6",
"<X c #D7D1BC",
"1X c #E1CC82",
"2X c #E9D48A",
"3X c #E8DB8B",
"4X c #E8D885",
"5X c #E6D895",
"6X c #F3DE83",
"7X c #E1DCAB",
"8X c #E6DCA4",
"9X c #E1DDB1",
"0X c #EEE18B",
"qX c #ECE499",
"wX c #E9E093",
"eX c #F5E183",
"rX c #F4E48B",
"tX c #F6E88F",
"yX c #FBE886",
"uX c #F3E493",
"iX c #F4E59C",
"pX c #F6E993",
"aX c #F6EB9A",
"sX c #F8EC95",
"dX c #F8EE9B",
"fX c #FDF294",
"gX c #FBF29A",
"hX c #E6E1AB",
"jX c #E9E2AC",
"kX c #EBE2A6",
"lX c #ECE6B0",
"zX c #EDE8B1",
"xX c #F4EBA2",
"cX c #F4EDAC",
"vX c #F8EDA1",
"bX c #F4E8AB",
"nX c #F3EDB6",
"mX c #F1EEB9",
"MX c #F8F1A3",
"NX c #F9F3AC",
"BX c #FFFFAC",
"VX c #FBF7A3",
"CX c #FAF5BA",
"ZX c #FFFFB4",
"AX c #FAF5B4",
"SX c #CAC8C1",
"DX c #D6D1C4",
"FX c #D9D4C3",
"GX c #D9D5C8",
"HX c #DEDACB",
"JX c #D8D7D0",
"KX c #E0DCCC",
"LX c #E1DDD2",
"PX c #ECE9D8",
"IX c #E7E5D9",
"UX c #FFFFC6",
/* pixels */
"PXPXPXPXPX-X%.F H J K K K K H 0 g L K K K K K H R ).PXPXPXPXPXPXPX",
"PXPXPX%Xo.R !.>XhX>X,X7X7X7X,Xd.|.9X7X7X>X>X>X>X{.L I ).PXPXPXPXPX",
"PXPX^.F OX9X>XhXhXlXlXlXzXzXhX{  XmXlXlXlXlXhX,X@X@X/.I W.PXPXPXPX",
"PX(.U <X>X,XmXCXCXCXCXCXCXCXkXz d.UXCXCXAXCXCXmXhX@XOX).T W.PXPXPX",
"%XF -X,XlXCXCXAXAXNXNXNXNXAXqXk 3.ZXNXNXNXNXcXcXcXhX@X{.^.I ^.PXPX",
"o.&X,XhXCXAXNXMXMXMXMXMXMXVX5Xy 1.ZXxXMXMXMXMXxXxXqX,XOX{.Y.F KXPX",
"R >X8XCXNXMXdXdXdXdXdXdXgXgX2Xe { BXdXdXdXdXdXaXqXqX:X#X{._.Q W.PX",
"!.,XlXAXcXMXdXdXdXdXdXdXdXgX1Xe { BXdXdXdXdXdXpXqXwX3X#X'./.Y.F PX",
"=X:XnXNXvXsXsXsXsXsXdXaXdXBX6Xr { ZXsXaXdXsXsXpX0XwX$X#XoX!.^.I ;X",
":X8XNXvXdXsXsXsXpXpXsXsX1X` d < 7 c x.aXsXsXpXuX0X3X$X+X].!.W.T .X",
":X8XcXvXsXtXpXpXpXsXgX..3 1 5 5 5 1 1 c pXfXtXrX0X0X$Xc.'.{.^.Q (.",
"=XkXcXaXtXtXtXtXtXgXt.1 < t k k k i 5 1 G fXpXrX0Xc.c.+Xu.{.).Q W.",
"@XkXbXpX6XtXtXrXpX6X6 > i l B B B m k 5 1 y.sXrX3XK.c.x.u.{.).Q W.",
"@XkXvXiXtX6XtX6XtX[ # t l B Z >.>.C m i > f yXeX3Xc.c.x.u.OX).P.T.",
"@XkXiXsX6XyX6XyXyXf * i m Z f.v.g.>.B p , 0 S.eXK.c.x.x.u.{./.P.W.",
"@X8XiX6X6X6X6X6XyXd > y n :.g.n.b.,.C a 4 9 c.yXS.c.x.s.u.{./.P.W.",
"@X8XiXrX6X6XH.6XyXd # u b Z <.v.g.>.N p , 0 V.eXA.V.x.l.-.!./.~ W.",
"#X5XiX6XH.G.H.H.L.] # 4 a N Z :.Z V b u # d L.A.Z.B.l.i.&.!.^.P.W.",
"|.5X2X6XG.G.G.G.H.Z.2 @ r a b N n b y : & 7.L.Z.z.z.a.y.&.~.T.~ W.",
"|.2X2X2XF.F.F.D.G.L.2.* @ 4 u p p r : & c G.Z.B.l.a.y.7.&.!.T.E W.",
"[.+X2XA.N.C.C.C.D.F.J.2.2 $ @ , # $ 3 v F.C.m.z.z.9.&.#.X.~.T.E W.",
"[.|.1XV.B.N.N.B.N.N.N.J.9.h 9 O % h 5.F.C.m.z.e.9.9.$...#.E.T.E W.",
"~.].s.l.p.p.p.m.m.j.p.p.D.M.| X 8 L.M.k.e.e.q.9.8.@. .] O.Q.^.Q (.",
"E.d.s.d.a.r.w.w.p.w.w.w.e.m.| X 8 Z.r.r.q.9.6.4.$. .' ' =./.).T XX",
"U.*.i.t.7.7.7.0.0.0.0.0.0.r.)   8 k.5.6.5.4.| | ' ) ( ` {.}..Xx PX",
"Q %.-.&.2.4.4.4.4.4.4.4.4.5.A   - w.4.4.|  .} ) ) / G *.&X%X(.T PX",
"x U.+.*...]  .} } } } } D 4.j . + 8.D D D D S S A G X.%X-X;XJ _.PX",
"T.W o.%.+.] ' _ ) ) ) ) D D h . + $.A S A A / G G X.%XGXGX(.^ PXPX",
"KX^ I.W./.=.X.( _ G G / / / w o ;  .G G c G G ` R.DXHXJX*XF .XPXPX",
"PX%XQ I._.XXXX}.R.E.=.+.O.&.` q w -.O.*.E.R.XX<XHXLXLX*XP (.PXPXPX",
"PXPX*Xo.Q .XXXDX;X<X<XDX<XFXDX`.*XGXFXFXFXGXKXLXLXJXU.U ).PXPXPXPX",
"PXPXPXIX^.x W Y.(.*XDXFXFXFXDXSXSXDXGXDXGXDX*X`.I.x T.GXPXPXPXPXPX",
"PXPXPXPXPXPX.Xo.U x x x x x x x x x x x x x W o.W.LXPXPXPXPXPXPXPX"
};
