/* XPM */
const char *align_b_xpm[] = {
/* columns rows colors chars-per-pixel */
"33 33 256 2",
"   c #1E0900",
".  c #210A00",
"X  c #28140A",
"o  c #2E1D13",
"O  c #3B271C",
"+  c #4E1509",
"@  c #4C1507",
"#  c #541707",
"$  c #5A1C0B",
"%  c #5A200C",
"&  c #5E2712",
"*  c #641E08",
"=  c #611A07",
"-  c #64220C",
";  c #6A2209",
":  c #622B14",
">  c #68341B",
",  c #75250B",
"<  c #732C10",
"1  c #7B3313",
"2  c #723519",
"3  c #534236",
"4  c #5E5132",
"5  c #7B4E2A",
"6  c #744526",
"7  c #7C542B",
"8  c #7D6432",
"9  c #564943",
"0  c #5A4B46",
"q  c #5C4D48",
"w  c #5E504B",
"e  c #66584E",
"r  c #685C54",
"t  c #72665E",
"y  c #74694C",
"u  c #766D66",
"i  c #802F0F",
"p  c #8F2F0C",
"a  c #8B300E",
"s  c #863512",
"d  c #9B350D",
"f  c #A2340C",
"g  c #B33F0F",
"h  c #944017",
"j  c #9C4014",
"k  c #825536",
"l  c #886734",
"z  c #946D3C",
"x  c #957539",
"c  c #917237",
"v  c #A24416",
"b  c #BC400F",
"n  c #BD4510",
"m  c #B84913",
"M  c #806B41",
"N  c #817A54",
"B  c #926B43",
"V  c #997643",
"C  c #827863",
"Z  c #887E76",
"A  c #C2450F",
"S  c #C74C13",
"D  c #CB5518",
"F  c #D45B19",
"G  c #D25315",
"H  c #D7611D",
"J  c #D9651E",
"K  c #DA6720",
"L  c #DE762A",
"P  c #DC7826",
"I  c #E07F2D",
"U  c #88825D",
"Y  c #9C8453",
"T  c #8B8461",
"R  c #8E8868",
"E  c #948D6A",
"W  c #928D71",
"Q  c #96906E",
"!  c #9F986C",
"~  c #99926F",
"^  c #959074",
"/  c #9B9574",
"(  c #99947B",
")  c #9E9877",
"_  c #9F9979",
"`  c #959178",
"'  c #8A8376",
"]  c #AC8949",
"[  c #A48251",
"{  c #AE9954",
"}  c #B18E4C",
"|  c #B59E50",
" . c #AB9967",
".. c #A29C7C",
"X. c #A29470",
"o. c #B99D64",
"O. c #BCA44F",
"+. c #BAA556",
"@. c #B7A668",
"#. c #BAAD7E",
"$. c #DF812C",
"%. c #E0822B",
"&. c #E59537",
"*. c #E9A73E",
"=. c #C5AA57",
"-. c #CBB25A",
";. c #D9BD5D",
":. c #D2B75C",
">. c #C2AD66",
",. c #C3B36C",
"<. c #CDB861",
"1. c #CAB66D",
"2. c #C7BC7B",
"3. c #C3B775",
"4. c #D4BE66",
"5. c #E79E40",
"6. c #EAA643",
"7. c #EEB646",
"8. c #F0BE4E",
"9. c #DCC05F",
"0. c #CFC072",
"q. c #DDC263",
"w. c #D9C56A",
"e. c #D4C273",
"r. c #D4C47C",
"t. c #D9C371",
"y. c #D9C979",
"u. c #DDD07B",
"i. c #F3C54E",
"p. c #F8D758",
"a. c #E2C562",
"s. c #E5C864",
"d. c #E5CB6B",
"f. c #E8CC66",
"g. c #E9CE6A",
"h. c #E2CD72",
"j. c #ECD26C",
"k. c #ECD472",
"l. c #EBD97B",
"z. c #E5D37A",
"x. c #F2DA74",
"c. c #F2DC7B",
"v. c #F4E07D",
"b. c #F9E27B",
"n. c #9A9580",
"m. c #9D9983",
"M. c #A09C86",
"N. c #A19D89",
"B. c #A49D96",
"V. c #A5A28C",
"C. c #A8A38D",
"Z. c #AEA98C",
"A. c #A9A594",
"S. c #AEAA9A",
"D. c #A7A493",
"F. c #B3AC8C",
"G. c #B7AE84",
"H. c #B3AD91",
"J. c #B1AE9E",
"K. c #BBB18B",
"L. c #BBB285",
"P. c #B5B194",
"I. c #BAB693",
"U. c #B9B498",
"Y. c #BEBA93",
"T. c #BDB89E",
"R. c #AFAAA1",
"E. c #B1AFA1",
"W. c #BBB9AB",
"Q. c #B7B4A5",
"!. c #C2B98B",
"~. c #CABE82",
"^. c #C4B987",
"/. c #C3BE92",
"(. c #C1BB9B",
"). c #C2BDA4",
"_. c #C1BDB7",
"`. c #C8C187",
"'. c #C6C193",
"]. c #CDC697",
"[. c #D5CE8C",
"{. c #D4C985",
"}. c #D5CD9B",
"|. c #D4CB94",
" X c #DED384",
".X c #DFD789",
"XX c #D5D09E",
"oX c #D8D09E",
"OX c #D6D095",
"+X c #C5C0A5",
"@X c #CAC6AE",
"#X c #C4C2B6",
"$X c #C8C6BC",
"%X c #C9C7B9",
"&X c #D1CDB7",
"*X c #D6D0A5",
"=X c #DAD4A3",
"-X c #DED9A2",
";X c #DCD6AB",
":X c #DAD6BC",
">X c #DDD9BE",
",X c #D6D2B7",
"<X c #E1CD85",
"1X c #E7D983",
"2X c #EDDE83",
"3X c #E9DD8B",
"4X c #E3D58A",
"5X c #E4D997",
"6X c #F1DC84",
"7X c #E1DCAC",
"8X c #E5DDA4",
"9X c #E1DDB1",
"0X c #EEE38C",
"qX c #EEE086",
"wX c #ECE392",
"eX c #EAE39B",
"rX c #F4E383",
"tX c #F3E38A",
"yX c #F5E88D",
"uX c #F9EB8B",
"iX c #FAE984",
"pX c #F2E493",
"aX c #F6EB94",
"sX c #F5EC9B",
"dX c #F8EE9B",
"fX c #F5E898",
"gX c #F9F29D",
"hX c #FCF295",
"jX c #E6E2AC",
"kX c #EBE2A5",
"lX c #EAE3AB",
"zX c #EAE6B0",
"xX c #EDE9B2",
"cX c #F5ECA5",
"vX c #F0EDB3",
"bX c #F9F3A3",
"nX c #FAF5AD",
"mX c #FEF9A3",
"MX c #F6F1A6",
"NX c #FAF5B2",
"BX c #F9F5BC",
"VX c #FBF8BB",
"CX c #F6F3B6",
"ZX c #CBC9C1",
"AX c #D5D4CD",
"SX c #D8D7CF",
"DX c #DDD9C5",
"FX c #D7D6D0",
"GX c #D8D7D0",
"HX c #DAD9D2",
"JX c #DFDFD9",
"KX c #E1DCC7",
"LX c #E0DFD9",
"PX c #ECE9D8",
"IX c #E4E3DA",
"UX c #FBF8C0",
/* pixels */
"PXPXPXPXPX&X..U N E E E E E E E E Q E E E E E y ..+XPXPXPXPXPXPXPX",
"PXPXPX@X_ ~ T.:XKX9X7X7X7X7X7X7XjX>X>X>X>X:X:X,XT...E T.PXPXPXPXPX",
"PXPXP.T +X9X7X7XlXzXxXxXxXxXxXxXxXxXxXxXxXzX7X-XXX].I.W Z.PXPXPXPX",
"PXU.E ;X7XjXxXVXUXVXVXVXVXVXVXVXVXVXVXVXVXVXVXCXjXXX'.Y.^ Z.PXPXPX",
"@XT =X7XzXBXVXVXNXNXNXNXNXNXnXNXnXNXNXNXnXnXnXvXMXjXXX'.U.R P.PXPX",
"..(.7X9XBXCXnXnXbXMXbXbXbXbXbXbXbXbXbXbXbXbXMXMXMXjX-X].Y.J.U KXPX",
"~ 7X8XBXNXMXbXgXdXbXgXgXgXmXMXnXmXmXgXgXbXgXgXMXeXeX-X[./.I.( H.PX",
"!.=XxXNXMXbXbXgXbXdXgXmXmX3X4X4X4XdXmXgXgXgXgXsXeXeX5XOX'.I.A.T PX",
"*X8XvXvXcXdXdXdXdXgXgXr.V B k k k B @.fXgXdXdXaXaXwX.X[.'.Y.P.U &X",
"*X8XNXcXdXhXhXaXdXhXo.2 * : < < < * : V 0XgXaXpXwX.Xu.[.`.'.P.W ).",
";XlXNXcXdXaXaXaXgX3.> - 1 h v v v d 1 - [ aXaXaXyX3X.X[.`.Y.I.` U.",
"oX8XcXdXaXaXaXhX<X6 % s v m D D D m v 1 : >.hXyX0X3Xu.[.`.'.Y.( H.",
"oX8XcXfXfXuXaXhX] $ 2 d m K L I I K n j ; c tXyX0X.X[.u.`.'.I.m.H.",
"=XlXcXfXyXiXuX6Xk # i m F %.5.6.6.I F m 1 6 u.uXqXl.u.r.2.'.I.m.H.",
"oXkXcXfXyXtXuXz.k $ s A K &.8.p.8.&.K m s 2 y.uXl.l.u.0.2./.I.! H.",
"oXkXfXpX6XiXuXz.5 $ s A K &.i.p.i.&.K n s 2 e.uXl.u.u.0.3.'.I.! H.",
"|.8XcXpXrXrXiXc.l @ 1 m G %.*.*.6.$.F b , k d.c.l.h.y.0.#.L.Y._ H.",
"|.8XpX6Xc.c.c.iX] @ ; d A H P I P F n d = z c.l.k.h.w.1.,.`.K.m.H.",
"|.5XpX6X6Xc.c.c.d.6 @ , f b S G G g d , & =.v.k.h.w.4.1.@.L.F.m.H.",
"/.5X3Xc.c.x.c.c.c.=.: @ , p d f f p ; % V c.k.j.w.w.<.@.@.L.F.( H.",
"~.5X4X6Xk.k.j.j.j.x.:.k @ # - ; = # : } k.j.g.w.w.<.<.+.@.L.F.( H.",
"^.~.<Xh.d.d.g.g.g.g.x.a.] 7 5 5 5 z -.j.g.f.q.;.:.=.+.{ @.L.P.( H.",
"L.~.<Xt.q.a.a.a.s.s.a.f.j.a.9.q.9.f.f.a.9.;.;.-.=.O.+.{ @.I.P.( T.",
"G.^.~.4.a.9.a.a.a.a.a.a.s.f.f.f.f.a.a.a.9.;.:.-.=.O.| { #.Y.T.W +X",
"X.X. .V V V V x x x x x x x x x x x x c c c l l 8 8 8 y C.J.W.N PX",
"M C r 3 O o X . .   . . . . . . . .             . X o r B.R.Q.E PX",
"4 n.Z Z t r e q q q q q w q q q 0 q 0 0 9 9 9 9 4 w u W._.$X^ (.PX",
"A.( B.R.J.A.C.N.C.C.C.D.C.C.C.V.C.C.V.V.N.m.m.n.n.A.ZXHXGXW.^ PXPX",
"DX) N.E.).Q.B.N.m.m.m.m.V.m.m.m.m.m.m.m.n.n.n.V.W.AXJXJX$XT +XPXPX",
"PX@XX.N._._.%X_.W.Q.Q.R.S.S.S.S.S.S.S.E.Q.W.$XGXJXIXJX#XT U.PXPXPX",
"PXPX@X..^ _.ZXAXAXFXFXGXHXGXGXGXGXGXGXHXHXJXJXIXIXFXC.R T.PXPXPXPX",
"PXPXPXPXP.N ^ S.W.$XAXFXGXGXGXGXGXGXGXGXAXAX#XW.N.N Z.DXPXPXPXPXPX",
"PXPXPXPXPXPX).M.Q U N N N N N N N N N N N N E X.U.KXPXPXPXPXPXPXPX"
};
