/* XPM */
const char *color_palette_xpm[] = {
/* columns rows colors chars-per-pixel */
"33 33 256 2",
"   c #48190D",
".  c #49130C",
"X  c #491510",
"o  c #4E1F18",
"O  c #56190E",
"+  c #5B2914",
"@  c #542A25",
"#  c #5D3829",
"$  c #651F0B",
"%  c #741407",
"&  c #6D2307",
"*  c #632C18",
"=  c #713A26",
"-  c #6A4234",
";  c #784024",
":  c #6C4C46",
">  c #811D02",
",  c #862100",
"<  c #842A03",
"1  c #8C2800",
"2  c #83240A",
"3  c #822C15",
"4  c #87381F",
"5  c #8A3817",
"6  c #903000",
"7  c #943B02",
"8  c #9E3D05",
"9  c #993F10",
"0  c #943D17",
"q  c #944513",
"w  c #9D4A20",
"e  c #974F31",
"r  c #99562D",
"t  c #A24500",
"y  c #A34A02",
"u  c #A3450F",
"i  c #A44A12",
"p  c #AE5600",
"a  c #AD540C",
"s  c #AB5710",
"d  c #A65C19",
"f  c #B25E00",
"g  c #BB520D",
"h  c #A65024",
"j  c #A25A35",
"k  c #B15C2C",
"l  c #B06A12",
"z  c #BC7011",
"x  c #AC6A26",
"c  c #BB6B2A",
"v  c #B16429",
"b  c #B46634",
"n  c #9E5942",
"m  c #817A54",
"M  c #876E62",
"N  c #907367",
"B  c #9F7462",
"V  c #AA6841",
"C  c #A96D57",
"Z  c #A5725F",
"A  c #B67141",
"S  c #AE7A62",
"D  c #AC7866",
"F  c #C36C00",
"G  c #CF621D",
"H  c #C37628",
"J  c #C47A3D",
"K  c #EB7A2A",
"L  c #E97D31",
"P  c #E47E35",
"I  c #89825D",
"U  c #87815C",
"Y  c #8B8461",
"T  c #8E8868",
"R  c #948D6A",
"E  c #928D71",
"W  c #96906E",
"Q  c #99926F",
"!  c #959074",
"~  c #9B9574",
"^  c #99957C",
"/  c #9E9877",
"(  c #9F9979",
")  c #959178",
"_  c #A68775",
"`  c #A29D7D",
"'  c #B68D78",
"]  c #B9916A",
"[  c #B2957C",
"{  c #CB8823",
"}  c #C98738",
"|  c #C68638",
" . c #D58036",
".. c #DC963A",
"X. c #E78939",
"o. c #ED8334",
"O. c #EE873A",
"+. c #EE8934",
"@. c #ED8C3A",
"#. c #E5863B",
"$. c #EF913E",
"%. c #F08F3D",
"&. c #F08A36",
"*. c #F1903C",
"=. c #CB8946",
"-. c #CA8A4C",
";. c #C4835F",
":. c #CD9146",
">. c #D79D4F",
",. c #DC9645",
"<. c #D8974A",
"1. c #DD9B53",
"2. c #DC9E5A",
"3. c #D39F71",
"4. c #DDA459",
"5. c #DEA758",
"6. c #EF8D42",
"7. c #E49142",
"8. c #E1914E",
"9. c #E29846",
"0. c #E39C4B",
"q. c #ED9543",
"w. c #EA9847",
"e. c #ED9C4A",
"r. c #E09F57",
"t. c #EB9653",
"y. c #F19646",
"u. c #F39949",
"i. c #F39D59",
"p. c #EAA04E",
"a. c #E2A553",
"s. c #E0A55B",
"d. c #E3A855",
"f. c #E4AC5A",
"g. c #EAA351",
"h. c #EAAB57",
"j. c #EAAD5C",
"k. c #E5B05D",
"l. c #E9B25E",
"z. c #F4A25F",
"x. c #EAA966",
"c. c #E4B262",
"v. c #E9B463",
"b. c #E8B469",
"n. c #ECBB6B",
"m. c #E6B768",
"M. c #E9BB71",
"N. c #EFB97C",
"B. c #F3A767",
"V. c #F4AD65",
"C. c #F0B76A",
"Z. c #F0BA6C",
"A. c #9A9681",
"S. c #9D9983",
"D. c #A79181",
"F. c #A09C86",
"G. c #A19D89",
"H. c #AB9A89",
"J. c #BC9B87",
"K. c #A5A18C",
"L. c #A8A38D",
"P. c #AEA98C",
"I. c #A7A492",
"U. c #AAA593",
"Y. c #ACA994",
"T. c #AEAA99",
"R. c #B0AA8D",
"E. c #BFA386",
"W. c #B2AC92",
"Q. c #B1AD9A",
"!. c #BEA799",
"~. c #BEA898",
"^. c #B0A693",
"/. c #B6B195",
"(. c #B4B09A",
"). c #BAB599",
"_. c #BDB89E",
"`. c #B1AFA1",
"'. c #B4B2A3",
"]. c #B7B5A8",
"[. c #BAB5A3",
"{. c #B9B6A9",
"}. c #BDB9A4",
"|. c #BBB9AC",
" X c #BFBDB1",
".X c #C09D8F",
"XX c #C1AC9B",
"oX c #C2BD9E",
"OX c #CEB399",
"+X c #D9B28B",
"@X c #C0BCA4",
"#X c #C2BDAC",
"$X c #C1BEB1",
"%X c #F3BD8A",
"&X c #C5C0A5",
"*X c #C3C0AD",
"=X c #CAC5AD",
"-X c #CFCBAF",
";X c #C3C0B3",
":X c #CAC6B3",
">X c #C8C6BC",
",X c #CDC9B5",
"<X c #CDCABB",
"1X c #C5C4BA",
"2X c #DDC0AC",
"3X c #D2CDB3",
"4X c #D1CDB9",
"5X c #DCCEBF",
"6X c #D5D1B6",
"7X c #DAD5BB",
"8X c #DDD9BD",
"9X c #D5D2BD",
"0X c #EECB9A",
"qX c #F4C28D",
"wX c #F3C696",
"eX c #EACEAD",
"rX c #E6CEB5",
"tX c #EDD1A8",
"yX c #F4CCA3",
"uX c #F3D5AB",
"iX c #F4DAB6",
"pX c #F3DBBB",
"aX c #CCCAC1",
"sX c #D0CEC6",
"dX c #D7D4C3",
"fX c #D5D3CC",
"gX c #D9D5C1",
"hX c #D8D7CF",
"jX c #DEDAC4",
"kX c #DDDAC8",
"lX c #D7D6D0",
"zX c #D8D7D0",
"xX c #DAD9D2",
"cX c #DFDFD9",
"vX c #E0CDC1",
"bX c #E7D7C1",
"nX c #E0DBC3",
"mX c #E3DECC",
"MX c #EBDDC7",
"NX c #E0DFD9",
"BX c #E3DED3",
"VX c #F3DEC4",
"CX c #E4E0CC",
"ZX c #E6E3D1",
"AX c #E2E1DC",
"SX c #E8E5D2",
"DX c #EBE9D7",
"FX c #ECE9D8",
"GX c #EAE6DB",
"HX c #F6E3CB",
"JX c #F1EBDC",
"KX c #FCF0DC",
"LX c #EDECE0",
"PX c #F1EEE1",
"IX c #F2F0E5",
"UX c #F4F2E8",
/* pixels */
"DXDXDXDXDX,X` I m R R R R R R R R R R R W R R : ` -XDXDXDXDXDXDXFX",
"DXDXDX-X` Q oX7XnX8X8X8X8X8X8X8X8X8X8X8X8X8X7X6XoX` T _.DXDXLXDXDX",
"DXDX).I @XnX8X8XMXCXZXDXSXSXSXSXSXSXSXSXZXCXjX9X-X=X).R P.DXDXDXFX",
"DX).R 4X8XnXDXUXUXUXUXUXUXUXUXUXUXUXUXUXUXUXUXFXCX-X&XoX! P.DXDXDX",
"-XI 3X8XMXUXUXUXPXUXPXPXPXPXPXPXPXPXIXIXIXIXIXGXAXZX,X@X[.T /.DXFX",
"` oX8XmXUXJX0XV.u.y.&.6.B.%XHXDXPXPXIXIXLXLXLX[ N E : }.}.Q.U kXFX",
"W 7XnXPXPXqXy.+.O.L o.K K o.i.qXHXPXJXIXJXJXJXB * = - {. X'.^ /.FX",
").7XDXPXyX&.o.o.L +.+.&.*.&.+.+.z.yXJXJXLXLXPX~..   # :X*X].Y.I FX",
"3X8XPXJXt.K o.@.@.@.+.@.*.*.$.*.o.q.%XFXLXJXJXgX= + @XaX$X{.`.Y 3X",
"6XnXPXwXL L @.q.q.q.q.q.y.u.q.q.q.@.q.wXJXPXFXHX7.G dX<X$X#X`.E @X",
"4XBXPXB.P @.q.e.e.e.e.q.u.e.p.e.w.q.X.q.uXLXFXCX .g OX<X$X$X{.^ ).",
"6XSXPXt.#.w.e.p.e.g.e.g.g.g.g.g.p.e.q.X.N.FXFXbXH 8 _ 4X$X$X{.A./.",
"6XDXJX8.7.e.p.g.h.g.g.g.p.g.g.p.p.p.e.7.t.iXFXmXb < _ <X$X$X|.F.R.",
"3XZXiX8.0.g.g.l.Z.Z.C.v.h.j.h.g.g.0.g.9.0.0XFXZXj % E <X$X$X{.S./.",
"6XSXuX1.a.j.l.x.<.X.0.b.Z.b.v.j.h.g.a.9.,.0XGXZXn & _ >X#X$X{.S.R.",
"3XSXuXs.j.b.b.c t F p x M.n.v.v.k.k.f.,.<.0XDXZXD & _ :X#X$X{.S.W.",
"3XZXtXs.k.n.f.k ;.tX3.w 5.m.k.f.f.d.d.a.a.yXDXSX_ O _ >X|.$X{.S.W.",
"3XZXeXs.5.k.k.4.uXKXpX:.d.k.d.a.d.d.d.h.a.0XSXCXJ.O H.$X}.|.].^ W.",
"-XmXrX4.f.k.k.k.f.f.l.h.d.a.a.d.f.d.f.f.r.+XZXmXXX. H.#X'.|.'.S.W.",
"=XkX2X-.f.f.k.5.d.f.d.d.k.h.d.5.f.k.l.m.=.' mXkXXX. ^.@XQ.{.`.^ W.",
"&XdXgXb k.5.5.5.v.<.h 0 J k.m.k.k.c.n.5.h S kXgX#XX ^.'.T.].'.^ W.",
"_.4XkXV =.m.c.c.>.u % % , c 5.m.c.5.} i 2 D gX4X#Xo ^.T.Y.{.'.S.W.",
").:X4XC 0 J :.} a 9 S S 5 < d { { z y % & .X4X=X_.@ Y.U.T.{.'.^ ).",
"Q.@X>XXX4 < t t u ] 9X7XJ.w 6 y f y 7 5 ' #X=X@X^.@ I.S.'.|. XE &X",
"U.Q.*X*X[ e q x ] -X=X:X,XE.b d l x r [ @X@X'.(.L.: G.G.$X X$Xm DX",
"^ ^.].].[.[.[.@X}.}.@X@X}.}.}.}.}.}.}._.(.(.W.U.K.F.S.`.>X>X{.R FX",
"m U.Y.'.T.T.T.Q.Q.Q.T.(./.(.Q.Q./.Y.^.Y.Y.L.K.G.F.S.I.aXsXsX) }.GX",
"R.^ I.T.(.U.L.L.L.L.L.U.L.L.L.L.L.L.K.K.F.F.S.A.^ U.aXxXxX{.W GXFX",
"kX/ G.`.|.'.I.G.S.G.S.S.G.S.S.S.S.S.S.S.S.A.A.G.|.hXNXNX>XI &XFXDX",
"DX*X/ G.|.1X>X$X|.].'.T.T.T.T.T.T.T.T.'.'. X>XxXNXNXNX;XI ).DXFXDX",
"DXDX-X` ) {.aXsXfXlXzXzXxXxXzXxXxXzXxXzXxXxXBXNXNXxXL.R }.DXFXDXDX",
"DXDXDXDX/.Y ) T.|.>XfXfXlXzXzXzXlXlXzXzXxXxX$X|.G.m R.gXDXFXDXFXDX",
"DXDXJXDXDXDX@X` W I m m m m m m m m m m m m R / ).mXGXDXDXDXDXDXDX"
};
