/* XPM */
const char *cut_xpm[] = {
/* columns rows colors chars-per-pixel */
"33 33 257 2",
"   c #3F3603",
".  c #5A2B17",
"X  c #543324",
"o  c #6B1E00",
"O  c #701D01",
"+  c #6A2E17",
"@  c #67341D",
"#  c #792300",
"$  c #712708",
"%  c #783200",
"&  c #753312",
"*  c #77391B",
"=  c #6C3924",
"-  c #753A22",
";  c #78452D",
":  c #714C39",
">  c #7B5441",
",  c #776F45",
"<  c #786155",
"1  c #7B6559",
"2  c #822901",
"3  c #842908",
"4  c #8B2400",
"5  c #84320A",
"6  c #8A3A0E",
"7  c #893602",
"8  c #813413",
"9  c #8E3A15",
"0  c #952700",
"q  c #932C00",
"w  c #9E2F00",
"e  c #973608",
"r  c #9A3B16",
"t  c #923C16",
"y  c #A22F00",
"u  c #AB2E00",
"i  c #A63600",
"p  c #A93100",
"a  c #AB3B00",
"s  c #AE3808",
"d  c #A33E16",
"f  c #BB3400",
"g  c #BD3800",
"h  c #B33B00",
"j  c #8C400F",
"k  c #86401F",
"l  c #94420C",
"z  c #9C4A0E",
"x  c #9A4B12",
"c  c #944417",
"v  c #9C521B",
"b  c #9D5112",
"n  c #81442A",
"m  c #8A4925",
"M  c #884F33",
"N  c #974D27",
"B  c #945020",
"V  c #905337",
"C  c #965835",
"Z  c #925639",
"A  c #A94000",
"S  c #A44C1D",
"D  c #A95600",
"F  c #AC510D",
"G  c #A65115",
"H  c #AF591A",
"J  c #A6581A",
"K  c #B44300",
"L  c #BB4400",
"P  c #BA4D00",
"I  c #B9521B",
"U  c #A0582A",
"Y  c #BC6415",
"T  c #B76218",
"R  c #AA632D",
"E  c #A6653B",
"W  c #BF6C21",
"Q  c #B96928",
"!  c #BF653A",
"~  c #8D5942",
"^  c #885E49",
"/  c #815947",
"(  c #835D54",
")  c #945D40",
"_  c #8F6048",
"`  c #85604E",
"'  c #896757",
"]  c #817A54",
"[  c #857E59",
"{  c #97664E",
"}  c #9D6345",
"|  c #996349",
" . c #9D6C56",
".. c #9E6F59",
"X. c #906451",
"o. c #89796E",
"O. c #947264",
"+. c #997466",
"@. c #B96C40",
"#. c #A87E6C",
"$. c #A27C6C",
"%. c #C44401",
"&. c #C64A00",
"*. c #C64C08",
"=. c #CF4E00",
"-. c #CA4200",
";. c #D44B00",
":. c #D94900",
">. c #D25008",
",. c #D25F1B",
"<. c #C17327",
"1. c #CA713D",
"2. c #D06F3A",
"3. c #D67924",
"4. c #E44C00",
"5. c #E84C00",
"6. c #E45700",
"7. c #EA5300",
"8. c #EE5E00",
"9. c #EA5509",
"0. c #F05200",
"q. c #F25E00",
"w. c #E8671B",
"e. c #FF6E00",
"r. c #F06A1C",
"t. c #89825D",
"y. c #87815C",
"u. c #8B8462",
"i. c #8A8674",
"p. c #8C8976",
"a. c #8E8A78",
"s. c #908967",
"d. c #938D6A",
"f. c #918D7A",
"g. c #928D71",
"h. c #96906E",
"j. c #98916E",
"k. c #969175",
"l. c #97947F",
"z. c #9B9574",
"x. c #99947D",
"c. c #9E9877",
"v. c #9F9979",
"b. c #A88578",
"n. c #A4857A",
"m. c #A29C7D",
"M. c #E3862C",
"N. c #E6882E",
"B. c #EA8B2D",
"V. c #EC8426",
"C. c #EB9337",
"Z. c #FF9F39",
"A. c #F69835",
"S. c #FDA33A",
"D. c #FFAC3D",
"F. c #C39476",
"G. c #FBA743",
"H. c #FFB24A",
"J. c #979482",
"K. c #999683",
"L. c #9D918A",
"P. c #9D9984",
"I. c #9C998A",
"U. c #AB8D81",
"Y. c #A78B84",
"T. c #A19C86",
"R. c #A19D8A",
"E. c #AD9285",
"W. c #A49994",
"Q. c #B49486",
"!. c #B59689",
"~. c #BA9E93",
"^. c #A5A18D",
"/. c #AAA58C",
"(. c #AEA98C",
"). c #A5A292",
"_. c #AAA593",
"`. c #A9A798",
"'. c #ADA995",
"]. c #ADAA9A",
"[. c #B0AA8D",
"{. c #B5A69F",
"}. c #B1AD95",
"|. c #B1AE9B",
" X c #BDA49B",
".X c #B6B195",
"XX c #B4B09C",
"oX c #B8B39B",
"OX c #BDB89E",
"+X c #B1AEA0",
"@X c #B9A6A0",
"#X c #B8A9A2",
"$X c #B5B2A2",
"%X c #B7B4A9",
"&X c #B9B5A2",
"*X c #B9B7A9",
"=X c #BEBAA5",
"-X c #BDBAAB",
";X c #BEBAB1",
":X c #C3A99C",
">X c #C1BC9E",
",X c #C2ACA5",
"<X c #C3B1AA",
"1X c #C1BDA3",
"2X c #C0BDAB",
"3X c #C8B4AA",
"4X c #CFBEAD",
"5X c #C1BEB2",
"6X c #CEBCB5",
"7X c #C5C0A3",
"8X c #C5C1AD",
"9X c #CAC5AC",
"0X c #C3C0B5",
"qX c #C5C3B9",
"wX c #CAC5B1",
"eX c #C9C7BD",
"rX c #CCC9B5",
"tX c #CBC9BC",
"yX c #D0CBAE",
"uX c #D1CCB3",
"iX c #D1CEBA",
"pX c #D6D2B6",
"aX c #D4D0BC",
"sX c #DAD5BA",
"dX c #DDD8BD",
"fX c #D9D4B7",
"gX c #CCCAC1",
"hX c #D5C6C1",
"jX c #D0CEC3",
"kX c #DBCECA",
"lX c #D5D3C3",
"zX c #D4D3CA",
"xX c #D9D5C3",
"cX c #DCD9C3",
"vX c #DDDAC9",
"bX c #DED2CA",
"nX c #D9D7D1",
"mX c #DCDBD3",
"MX c #E1DCC4",
"NX c #E1DDCB",
"BX c #E0DDD0",
"VX c #E0DFDA",
"CX c #E4E1CC",
"ZX c #E8E4CF",
"AX c #E6E3D2",
"SX c #E3E2DA",
"DX c #E8E5D3",
"FX c #E8E6D8",
"GX c #EAE8D6",
"HX c #EDEBDC",
"JX c #F0EDDF",
"KX c #EDEBE0",
"LX c #F0EEE1",
"PX c #F2F0E4",
"IX c #F4F2E8",
"UX c gray100",
"YX c None",
/* pixels */
"YXYXYXYXYXYX  m.y., z.h.h.d.h.d.h.h.d.d.d.d.s.s., m.=XYXYXYXYXYXYX",
"YXYXYXYX  c.z.OXfXdXcXdXdXsXdXdXsXsXsXsXfXpXrX9X7X(.k.d.OXYXYXYXYX",
"YXYXYX.Xt.7XcXdXdXCXZXZXDXDXDXDXAXDXDXZXZXNXvXfX9X=X.X/.u.(.YXYXYX",
"YXYX.Xd.sXdXdXGXPXIXIXPXPXIXIXIXIXIXIXIXPXbX6XSXmXaX-XXX'.g./.YXYX",
"YX  t.fXdXCXPXIXPXPXPXPXIXLXLXLXPXPXPXPXLX_ :XSXmXzXtX=X].`.u..XYX",
"YX. 7XdXCXIXPXPXPXPXJXPXLXLXLXJXLXLXJXHX .m HXSXCXxXtX5X$X].).u.. ",
"  , dXdXPXPXPXLXPXHXJXJXLXLXJXJXJXLXLXb.D  .GXDXmXxXtX8X$X+X].f.}.",
"m.>XdXGXIXPXJXJXJXJXJXJXJXJXJXJXJXHXE.T <. XGXDXmXxXtX5X$X+X%X`.u.",
"y.sXdXPXPXJXJXJXHXJXJXHXJXJXJXJXJX%Xv G.U HXFXAXNXxXtX2X$X].;X%Xu.",
"] sXMXIXPXJXHXJXJXHXHXJXHXHXJXHXkXB S.C._ JXFXFXmXlXtX2X`.`.5X;Xg.",
"h.dXCXIXPXJXJXJXHXJXHXHXHXJXHXHXQ.3.H.W Q.HXFXFXNXlX#X> : `.0X0Xv.",
"h.dXZXPXJXHXHX<XY.n.n. XJXHXHXHX..C.D.b HXHXFXAX{.| % ; $X`.0XqXT.",
"h.dXZXPXLXHXZ A %.&.&.a V hXHXHXC Z.M.| HXHX XZ b Y E 2X&X].0XqXT.",
"h.sXZXPXLXE ;.K x c P e.=.~ HXHXR S.Y n. XZ v M.B.R {.-XXX`.0XqXT.",
"h.sXZXPX! >.5 $.GXGX+.K e.e 3XtXQ A.x & J M.S.A.R {.rX-X|.`.0XqXI.",
"h.sXZXF.w.J &XHXHXHXHX& 8.%.b.Q.3.B.6 M.D.B.Y v <XaXwX2X|.`.0XqXT.",
"j.sXBX1.,.!.GXHXHXGXhX6 e.a + * G H G 3.l m $.AXvXiXwX-X|._.0XqXT.",
"j.fX4X2.I ~.GXFXGXDXO.h :.5 Y z 3.6 n $.GXDXDXvXxXiX0X&X].).5X0XT.",
"j.fXyX1.w.M FXFX<X .L 7.# 7 e J V.n DXDXDXDXAXvXlXtX8X$X'.).5XqXT.",
"j.pXNX} r.*.c U a :.%.O = b.< F G 8 6 5 - U.NXcXiXwX-X.X).^.0X0XT.",
"d.uXNX3XN 9.5.5.5.i ~ 6XAXDXb.o L 4.5.4.:.4 O.aXrX8X&X}.^.I.0XqXT.",
"d.yXMXGX3Xn t 9 n E.AXAXAXAX^ p *.9 ; & a 0.2 tXwX1X|.'.^.I.qXeXT.",
"d.9XaXBXvXNXNXvXCXvXvXCXvXCX3 f  .vXvXvX= -.0 W.2XoX'.^.I.).tXtXx.",
"] 1X9XNXvXcXcXcXcXcXcXcXcXX.p 6 lXxXxXaXO.q 4 L.oX|./.I.P.$XgXgXk.",
"u..X7XaXaXaXaXaXaXaXaXaXaX& f { iXiXrXrX' q $ oX].^.R.T.x.qXzXzX] ",
"[.T.XX8XrXrXwXwXwXwX9XwX9X2 u ' 9X9X8X8X- q @ '.^.R.x.J.|.zXnX5Xd.",
". ] .XXX-X-X=X-X-X1X=X=X=X$ f = =X&X&X: w o , ).T.P.x.).zXmXmXf.=X",
"YX(.x.}.XX$XXXXX|..X}.|.XX. s w . X . 3 3 X R.P.x.x.`.jXVXVX2Xj.YX",
"YX  z.R.}.|.|.`.'._._.`._.o.. r d r r 8 X P.K.l.R.-XzXVXVXgXu.. YX",
"YXYX  z.K.`.$X*X*X%X|.|.].].L.< ` ^ / 1 +X+X*X0XjXmXVXVXeXu..XYXYX",
"YXYXYX  m.g.`.*X;X0XeXeXtXtXgXgXtX;X0XtXgXgXgXzXzXmXnX/.d.OXYXYXYX",
"YXYXYXYX  .Xt.g.^.+X*XqXeXgXqXgXgXeXgXtXeXgXeX-X*XR.] (.  YXYXYXYX",
"YXYXYXYXYXYXYX1Xm.h.y., y.y., y., y.y., y.y., z.v.oX  YXYXYXYXYXYX"
};
