/* XPM */
const char *ellipse_xpm[] = {
/* columns rows colors chars-per-pixel */
"33 33 196 2",
"   c #3F3603",
".  c #776F45",
"X  c #6C8F3E",
"o  c #5D904B",
"O  c #4F9167",
"+  c #499172",
"@  c #4D9379",
"#  c #50957F",
"$  c #639D72",
"%  c #5A9D86",
"&  c #589D8C",
"*  c #57A58B",
"=  c #5AA885",
"-  c #64A38C",
";  c #6EAB88",
":  c #63A897",
">  c #6DB993",
",  c #73BB93",
"<  c #74BD9F",
"1  c #73BFAE",
"2  c #7EC1A0",
"3  c #7AC1B4",
"4  c #817A54",
"5  c #857E59",
"6  c #8F942F",
"7  c #8D9531",
"8  c #9E9C30",
"9  c #B79922",
"0  c #B5A12B",
"q  c #87815C",
"w  c #89825D",
"e  c #8B8462",
"r  c #908967",
"t  c #938D6A",
"y  c #928D71",
"u  c #96906E",
"i  c #98916E",
"p  c #969175",
"a  c #9B9574",
"s  c #99957C",
"d  c #9E9877",
"f  c #9F9979",
"g  c #8AA24E",
"h  c #87A75B",
"j  c #89B056",
"k  c #94A54C",
"l  c #85AF6A",
"z  c #A29C7D",
"x  c #D5A21E",
"c  c #DBA51E",
"v  c #D8A621",
"b  c #DDAB22",
"n  c #DEB027",
"m  c #E3AD21",
"M  c #E4B124",
"N  c #E3B528",
"B  c #E4B92E",
"V  c #EAB424",
"C  c #EDB926",
"Z  c #ECBC29",
"A  c #E3BB33",
"S  c #EBBE31",
"D  c #F1BC28",
"F  c #DEC03E",
"G  c #EEC02D",
"H  c #E2C43C",
"J  c #EEC232",
"K  c #EDC53A",
"L  c #F2C12C",
"P  c #F2C533",
"I  c #F0C539",
"U  c #F2C83C",
"Y  c #C8C24D",
"T  c #D9C74B",
"R  c #E6C845",
"E  c #E4CA4B",
"W  c #EBCA44",
"Q  c #F4CB41",
"!  c #9A9681",
"~  c #9D9983",
"^  c #83BF92",
"/  c #87B2AB",
"(  c #82B9AB",
")  c #95BAB5",
"_  c #A19C85",
"`  c #A19E8A",
"'  c #A5A18D",
"]  c #AAA68C",
"[  c #AEA98C",
"{  c #A4A192",
"}  c #A7A599",
"|  c #A9A592",
" . c #A9A798",
".. c #ACA996",
"X. c #ADAA9A",
"o. c #B0AA8D",
"O. c #B4AF93",
"+. c #B1AD9B",
"@. c #B6B195",
"#. c #B4B09B",
"$. c #B8B398",
"%. c #BDB89E",
"&. c #ADABA0",
"*. c #A3BDBC",
"=. c #B1AEA2",
"-. c #B4B1A2",
";. c #B6B4A9",
":. c #B8B5A4",
">. c #B9B7AA",
",. c #BCB8A7",
"<. c #BDBAAC",
"1. c #BDBBB2",
"2. c #84C9BE",
"3. c #88C6BA",
"4. c #90CDB7",
"5. c #92CEB8",
"6. c #9EC3BF",
"7. c #ADC1BD",
"8. c #97CAC2",
"9. c #95CFC8",
"0. c #96D0C2",
"q. c #9AD3C8",
"w. c #A9DAD5",
"e. c #B3C5C1",
"r. c #B7C8C4",
"t. c #B8C6C1",
"y. c #B9C9C7",
"u. c #BECECA",
"i. c #B3DFDB",
"p. c #B7E0DC",
"a. c #B8E1DE",
"s. c #C1BC9E",
"d. c #C1BCA3",
"f. c #C1BDAC",
"g. c #C0BEB3",
"h. c #C1BFB8",
"j. c #C5C0A3",
"k. c #C6C2AF",
"l. c #CAC6AC",
"z. c #C2C0B5",
"x. c #C4C3B9",
"c. c #C9C7BD",
"v. c #CBC8B6",
"b. c #CAC8BE",
"n. c #D0CCAF",
"m. c #D2CDB2",
"M. c #D6D2B6",
"N. c #D6D2BC",
"B. c #D9D5B7",
"V. c #DAD5BA",
"C. c #DDD8BD",
"Z. c #C2CBC7",
"A. c #C8C6C0",
"S. c #CBCAC2",
"D. c #CDCEC9",
"F. c #C6D9D6",
"G. c #D0CEC4",
"H. c #D1CFC8",
"J. c #D4D1C0",
"K. c #D4D3CC",
"L. c #D8D5C7",
"P. c #DEDAC3",
"I. c #DDDBC9",
"U. c #D2D6D3",
"Y. c #D9D7D1",
"T. c #DBDAD4",
"R. c #DEDDD9",
"E. c #CBE1DF",
"W. c #C4E7E7",
"Q. c #D7E2E0",
"!. c #D0EAEC",
"~. c #E1DCC3",
"^. c #E2DFCC",
"/. c #E0DED0",
"(. c #E0DFDA",
"). c #E5E1CC",
"_. c #E5E3D3",
"`. c #E2E1DB",
"'. c #E8E5D2",
"]. c #EAE8D6",
"[. c #EDEBDC",
"{. c #F0EEDF",
"}. c #E5E4E1",
"|. c #EAEAE5",
" X c #EEEDEB",
".X c #E2EFF0",
"XX c #EDF8F9",
"oX c #F0EEE1",
"OX c #F2F0E4",
"+X c #F4F2E8",
"@X c #F3F3F2",
"#X c #F5FBFC",
"$X c #F8F7F3",
"%X c #FAF9F7",
"&X c #FEFEFE",
"*X c None",
/* pixels */
"*X*X*X*X*X*X  z q . a t u t t t t t t t t r r r . z s.*X*X*X*X*X*X",
"*X*X*X*X  f a s.V.C.C.C.C.C.C.C.C.V.C.V.V.M.m.l.j...p t %.*X*X*X*X",
"*X*X*X$.w j.C.C.C.).).'.'.].'.].'.'.'.'._.^.I.N.l.,.@.] r [ *X*X*X",
"*X*X$.t V.C.~.].+X+X+X+X+XOX+XOX+X+X+X+X+XOX[.`.I.J.f.+. .t [ *X*X",
"*X  e V.C.).OXOXOXOXOXOXOXOXOXOXOXOXOXOXOX[.|._.I.L.b.<.X. .e @.*X",
"*X  j.C.).OXOXOXOXoXoXoXoXoXoXoXoX{.oXoXoXoX[.]._.L.b.1.-.X.{ w   ",
"  . C.C.oX&X&X&X&X&X&X&X&X&X&X&X&X&X&X&X&X&X%X@X X}.T.f.-.=.&.y O.",
"z s.C.].OX&X&X&X&X&X&X&X#XW.q.5.5.4.0.a.XX&X#X$X X}.T.f.:.-.;. .e ",
"5 V.C.OXoX&X&X&X&X&X&Xa.3.H U Q Q Q Q W ^ w.#X@X X}.T.f.:.X.1.;.e ",
"4 C.~.+XoX%X&X&X&X&X0.T U U U U Q Q Q Q Q R 3.@X X}.R.f.-.X.1.1.p ",
"i C.).OXoX&X&X&X&Xq.R U U U U U K U U U U U K 2. X}.R.f.-.X.z.z.s ",
"i C.'.OX[.&X&X&Xp.Y U U U I K K K K K I I U W A 8.}.T.<.-. .z.x.~ ",
"i V.'.oX{.&X&XXX, U P U P I K K K K P K K P K K l F.T.f.#...h.x._ ",
"i V.].oX{.%X&Xi.H P P P P P P J P P J J P J J S A ( T.f.-...h.x.~ ",
"i V.'.oX{.%X&X2.P P P P P J J J J J J P J J J S B ; U.f.+...z.x._ ",
"i V.'.{.{.%X#X< P P P P J J G J Z J J J J J Z B B h Z.f.+.| z.x._ ",
"i V.'.oX[.%X#X> L L L L L J Z D Z G G G Z J Z Z B k y.,.#.| z.x._ ",
"i B.'.{.[.%X#X> L L L L Z Z Z Z Z G G Z Z Z Z B n g r.,.X.| 1.x._ ",
"i B.).{.[.%X&X1 L L L L G G D Z Z Z Z Z Z Z Z N n $ u.#...{ z.z._ ",
"t M.).[.[.%X&X9.D D D D Z Z C D Z Z Z Z C Z V N b - D.#.| ' f.x._ ",
"u m.).].].%X&X!.j D D D D D C C C C C C V V M b 0 ) S...{ ` z.x._ ",
"t n.~.].'.$X&X&X3 Z C C C D C C C C C V V M b v % D.x...' ~ x.x.' ",
"t l.N._.^. X%X$X.X= V V V V V V V V m V m b v O e.S.1.{ ~ { b.S.~ ",
". d.l.I.I.|.@X@X$XF.= m m m m m m m m c b x + 7.S.x.1.~ ~ #.S.D.y ",
"r %.s.N.N.`.|.|.|.|.(.: 8 m c c c x x x 9 % r.S.x.1.&.~ ~ x.K.K.4 ",
"[ ' $.z.v.T.R.R.(.(.(.(.6.& o 6 6 6 X @ < D.A.h.1.=.&.! &.U.Y.f.t ",
"  4 @.#.f.D.U.H.K.Y.K.K.K.K.y.*.*.*.7.A.A.h.1.;.&.&.} { J.R.T.y s.",
"*Xo.s O.+.1.h.h.h.h.h.h.h.h.h.h.g.h.g.1.;.=.&.X.} } &.D.R.(.1.a *X",
"*X  f ~ ..+.+.| | | ' | | | ' ] { ' ' ` ~ ~ _ ! ` 1.K.(.`.D.e   *X",
"*X*X  a ! X.-.;.;.d.-.=.X.X.+.X.X.X.X.X.+.+.>.x.D.I.R.(.x.e $.*X*X",
"*X*X*X  z t X.;.g.h.b.h.h.G.G.G.G.G.A.h.S.S.S.K.K.T.K...r %.*X*X*X",
"*X*X*X*X  $.w y ] #.g.h.G.h.h.G.h.h.A.G.c.b.S.<.:._ 5 [   *X*X*X*X",
"*X*X*X*X*X*X*Xd.z u w 4 4 4 4 4 4 . 5 5 4 4 4 p d $.  *X*X*X*X*X*X"
};
