/* XPM */
const char *enable_xpm[]={
"16 16 6 1",
"# c None",
". c None",
"d c #953803",
"c c #d99119",
"b c #ecc16c",
"a c #ffffc0",
".....#######....",
"................",
"......aaa##.....",
".....abbba#.....",
"....abcccba##...",
"...abcdddcba#...",
"..abcdddddcba#..",
".abcdddddddcba..",
".abcdddddddcba..",
"..abcdddddcba...",
"...abcdddcba#...",
"....abcccba.....",
".....abbba......",
"......aaa.......",
"................",
"................"};
