/* XPM */
const char *exposure_sheet_xpm[] = {
/* columns rows colors chars-per-pixel */
"33 33 256 2",
"   c #0E0302",
".  c #1A0402",
"X  c #250402",
"o  c #290904",
"O  c #2A140A",
"+  c #2B1916",
"@  c #330904",
"#  c #380A05",
"$  c #3F0F13",
"%  c #3C1109",
"&  c #351409",
"*  c #371B16",
"=  c #37221D",
"-  c #410D05",
";  c #460B03",
":  c #421205",
">  c #4C1306",
",  c #481509",
"<  c #471912",
"1  c #551706",
"2  c #4D210B",
"3  c #4C221B",
"4  c #58240D",
"5  c #582617",
"6  c #5C3514",
"7  c #4C3F3A",
"8  c #582D22",
"9  c #5B342A",
"0  c #4B2D29",
"q  c #661705",
"w  c #741702",
"e  c #67260A",
"r  c #6C3819",
"t  c #762706",
"y  c #7E360E",
"u  c #753114",
"i  c #653524",
"p  c #763A2B",
"a  c #5A433D",
"s  c #67453C",
"d  c #605633",
"f  c #7D4F32",
"g  c #74472B",
"h  c #695B54",
"j  c #755955",
"k  c #734946",
"l  c #6F6455",
"z  c #756858",
"x  c #7F7852",
"c  c #766B45",
"v  c #7A6D68",
"b  c #882A06",
"n  c #8A3708",
"m  c #863419",
"M  c #96310A",
"N  c #9A3B16",
"B  c #962A04",
"V  c #A73408",
"C  c #A93C11",
"Z  c #AF3303",
"A  c #8E4F14",
"S  c #9D4F0F",
"D  c #9A4719",
"F  c #9E540E",
"G  c #895718",
"H  c #845428",
"J  c #875138",
"K  c #995125",
"L  c #8E472D",
"P  c #9E632D",
"I  c #9A7436",
"U  c #8E6424",
"Y  c #A64816",
"T  c #BC4709",
"R  c #B94513",
"E  c #B2510B",
"W  c #B2541E",
"Q  c #A9490C",
"!  c #A95426",
"~  c #A95B30",
"^  c #BA5D24",
"/  c #BD6425",
"(  c #B46635",
")  c #8A5F54",
"_  c #845749",
"`  c #88685B",
"'  c #87744A",
"]  c #817A54",
"[  c #996C48",
"{  c #98745D",
"}  c #916754",
"|  c #86766B",
" . c #807771",
".. c #956E61",
"X. c #987161",
"o. c #967B73",
"O. c #846F68",
"+. c #A36F45",
"@. c #A67340",
"#. c #A0715D",
"$. c #BB7040",
"%. c #BA7C58",
"&. c #AB7761",
"*. c #C14B0D",
"=. c #C54914",
"-. c #C65618",
";. c #D65A18",
":. c #CD540A",
">. c #C75E20",
",. c #C4631C",
"<. c #D66008",
"1. c #DA6418",
"2. c #C9662A",
"3. c #C86931",
"4. c #CD7B34",
"5. c #D66324",
"6. c #D86526",
"7. c #D96A34",
"8. c #D87528",
"9. c #D87D39",
"0. c #E55509",
"q. c #E46A1E",
"w. c #E17618",
"e. c #F2750B",
"r. c #E56D21",
"t. c #EA7625",
"y. c #E37C35",
"u. c #C26F41",
"i. c #C07C46",
"p. c #D67A43",
"a. c #918037",
"s. c #A0803A",
"d. c #B98130",
"f. c #88825D",
"g. c #8C8564",
"h. c #898176",
"j. c #948D6B",
"k. c #918860",
"l. c #98847A",
"z. c #97916E",
"x. c #9A9275",
"c. c #9B947A",
"v. c #9F9979",
"b. c #989376",
"n. c #AD895A",
"m. c #A68A77",
"M. c #AE9163",
"N. c #A7987B",
"B. c #B78964",
"V. c #B3936C",
"C. c #B3987E",
"Z. c #AC8968",
"A. c #B3A17C",
"S. c #EC8D19",
"D. c #FF8517",
"F. c #F7971A",
"G. c #E88336",
"H. c #E58135",
"J. c #FFA42A",
"K. c #C48753",
"L. c #D08351",
"P. c #DC9C7A",
"I. c #DCA348",
"U. c #DCAE69",
"Y. c #E19947",
"T. c #E19A78",
"R. c #EFAA55",
"E. c #E5B658",
"W. c #FBAD4D",
"Q. c #F9BC5B",
"!. c #E3A34B",
"~. c #E0AF60",
"^. c #F7B762",
"/. c #EABB62",
"(. c #FFC757",
"). c #EECB6A",
"_. c #EFCA71",
"`. c #FAC464",
"'. c #F9D573",
"]. c #FFE377",
"[. c #9F9B86",
"{. c #958D82",
"}. c #A09C86",
"|. c #A59B88",
" X c #B59D84",
".X c #AB9D94",
"XX c #A6A28D",
"oX c #A9A48D",
"OX c #ACA78A",
"+X c #AEAB99",
"@X c #A9A593",
"#X c #B2AA8C",
"$X c #B7A587",
"%X c #B2AD99",
"&X c #B4AB94",
"*X c #BAB599",
"=X c #B7B298",
"-X c #B4ACA1",
";X c #BAB3A3",
":X c #BDB9A3",
">X c #B9B6A8",
",X c #C2A79C",
"<X c #C3B89D",
"1X c #D5A684",
"2X c #CDAB89",
"3X c #C1BCA4",
"4X c #C7B8A8",
"5X c #CDBCB1",
"6X c #E6B091",
"7X c #E5A786",
"8X c #E6BAA0",
"9X c #CAC5AC",
"0X c #C6C2A9",
"qX c #CAC6B1",
"wX c #CDCAB5",
"eX c #C6C2B9",
"rX c #D2CDB3",
"tX c #D2CDB9",
"yX c #D8CBBD",
"uX c #D5D1B6",
"iX c #DAD5BB",
"pX c #DDD9BD",
"aX c #D3D0BB",
"sX c #D3C5A8",
"dX c #FED58C",
"fX c #E4C0A8",
"gX c #E5C6B0",
"hX c #EBD0BC",
"jX c #FEEC83",
"kX c #FCEB9C",
"lX c #F2E2BB",
"zX c #CBC8C1",
"xX c #D5CCC0",
"cX c #D5D4CD",
"vX c #DAD4C2",
"bX c #DDD9C4",
"nX c #D9D5C6",
"mX c #D8D7D0",
"MX c #DAD9D1",
"NX c #E0DBC3",
"BX c #E1DDCB",
"VX c #E6D7C6",
"CX c #E2DDD2",
"ZX c #E1DFD9",
"AX c #E4E1CC",
"SX c #ECE0C9",
"DX c #E5E2D1",
"FX c #E9E5D3",
"GX c #EBE8D6",
"HX c #ECE9D8",
"JX c #EBE5D9",
"KX c #F1E9D8",
"LX c #EEECE0",
"PX c #F0EEE2",
"IX c #F2F0E5",
"UX c #F4F2E8",
/* pixels */
"HXHXHXHXHXwXN.f.] z.j.j.j.j.j.j.j.j.j.j.j.j.j.] v.3XHXHXHXHXHXHXHX",
"HXHXHX9XN.z.3XpXhXbXpXpXpXpXpXpXpXpXpXpXpXpXiXuX*Xv.j.*XHXHXHXGXHX",
"GXHX=Xf.0XpXpXpXNXAXDXFXGXFXFXFXFXFXFXFXFXAXVXyXrX9X*Xj.#XHXHXHXHX",
"HX=Xj.uXpXpXGXIXUXUXUXUXUXUXIXUXIXUXUXIXUXUXPXLXAXwX0X*Xz.OXHXHXGX",
"qXk.uXpXAXIXUXIXKXCXPXUXPXPXUXUXIXIXUXIXIXPXLXJXZXVXtX3X;Xg.=XHXGX",
"v.<XiXAXIXKX2X@.f 9 8 ` nXPXKXVXhXgX8X8X6X7XT.T.P.1X1X$X#XOX' iXGX",
"z.iXbXPXHX@.r g 9 2 - ; J p.p.7.8.7.6.5.5.5.6.2.2.3.$.%.Z.C.{ V.GX",
"*XiXFXKXV.6 a k U.`.( > 5 ^ 8.8.y.y.y.y.y.y.y.y.9.9.H.K.B.m.N.' SX",
"uXiXIX1Xi s O.lX(.S.E t , y y ! G.G.G.G.G.G.G.H.y.9.4.L.B.V.OX' sX",
"uXbXUXI 3 j KXKXU.A > # # % 2 4 S t.t.t.t.y.t.r.r.r.8.4.4.B.C.g.3X",
"uXAXPXf < ;XgX1Xr 4 4 T -.b X : u w.t.t.r.r.r.r.6.6.2.3.$.B.C.b.*X",
"uXDXJXJ < aXfXm 2 a.).J.D.D.t X e ,.t.q.q.r.r.r.;.>.-.3.( B.$Xv.#X",
"uXDXHX} * l.<X1 A ].kX'.S.Q t # : 1 u Y ;.r.r.;.;.-.>.^ ( B.$Xc.#X",
"uXDXPX5X< % 5 3 ~ I.jX~.S t : @ @ @ # > b ;.;.=.-.=.>.^ ( B. Xc.A.",
"uXDXPXPXl.% @ < %.3.8.e 4 4 1 n B B : X > N =.=.R R W W ~ B. Xc.A.",
"uXDXPXHXDXo.< # k ! b % % K W.F.e.0.:.1 @ t =.R R R C Y K &.C.m.OX",
"tXDXPXHXJXJX_ : ,XVX, o n ^.dX`.D.T B t 1 # q B C Z C N L &.m.m.#X",
"wXDXHXHXHXHXX.% < J % , 1.^.]./.Y t q > @ X X @ t V N N L &.m.N.#X",
"rXBXHXGXHXHXuXi # @ @ < *.w.!.n n 4 . . # # X . @ q b m L ..m.c.=X",
"9XbXJXFXFXFXFX4Xs $ @ $ C *.B q &   O F <.V w X . @ > u p ..m.c.#X",
"0XaXDXDXAXDXDXAXCX9 @ j 4X( b > . g '.Q.w.<.Z w X @ # 5 i ..m.c.#X",
"3XrXMXbXBXbXBXBXBXo.# 0 hX&.q X r /.'.'.E.<.T b ; X o * 0 ` l.b.#X",
"*XqXaXvXvXvXnXbXbXnXp X k p 1 : -.R.).).).I.n q ; @ . + 7  .{.h.=X",
"%X>XwXwXwXtXtXtXaXyX4X0 X # * < Z 8.E.E.E.H e ; X . o * j h..Xx 0X",
"@X%X0X>X0X0XqXqXqXqXqX0X9 o o o 1 V d.I.P 1 > o X q q 5 l..X;Xd GX",
"v.@X>X>X>X>X:X:X:X3X3X3X:Xh . = ) C Z / u ; & O U D m ) .X-X.Xj.HX",
"f.@X@X>X+X%X+X%X%X%X+X+X%Xh.. + oXZ.B w > o O G a.I #.,X4XeXl.<XHX",
"OXb.@X+X%XXXXXXXXXXX@X@XXXXX+ O z |.[ 1 @ O 6 I I V.sXyXxX&Xz.HXHX",
"BXb.XX+X>X>X@X[.[.[.[.[.[.[.l = + a ` i = = f n.$XyXBXnX5Xf.3XHXGX",
"HX0Xb.XX>XwXzXeX>X>X-X+X+X+X+Xv h h h z v v *XcXCXCXCXeXg.=XHXHXHX",
"HXHXwXv.b.>XzXzXcXcXmXmXmXmXmXmXzXzXzX5XzXzXcXDXDXmXXXk.*XHXHXHXHX",
"HXHXHXHX%Xf.b.+X>XzXcXmXmXmXmXmXcXcXmXcXzXzX5X>X|.] #XbXHXHXHXHXGX",
"HXHXHXHXHXHX3Xv.z.f.] ] ] ] ] ] ] ] ] x x c j.v.=XBXGXGXHXGXHXHXHX"
};
