/* XPM */
const char *hand_xpm[] = {
/* columns rows colors chars-per-pixel */
"33 33 257 2",
"   c #3F3603",
".  c #4F2A0B",
"X  c #553100",
"o  c #691C00",
"O  c #6B2C00",
"+  c #643100",
"@  c #633B00",
"#  c #683300",
"$  c #7C2B00",
"%  c #753300",
"&  c #783B03",
"*  c #6D4503",
"=  c #6E4900",
"-  c #6F5413",
";  c #7B4D00",
":  c #764300",
">  c #734C15",
",  c #7E5200",
"<  c #624B26",
"1  c #6C5B37",
"2  c #725E38",
"3  c #73592B",
"4  c #8C2500",
"5  c #8B3A00",
"6  c #982C00",
"7  c #903901",
"8  c #9C3400",
"9  c #9E3C00",
"0  c #AD2F00",
"q  c #A43E00",
"w  c #AB3D00",
"e  c #874901",
"r  c #885602",
"t  c #8A5615",
"y  c #934600",
"u  c #994605",
"i  c #935200",
"p  c #915B01",
"a  c #935113",
"s  c #8F6818",
"d  c #9B6B00",
"f  c #976500",
"g  c #9C7102",
"h  c #997508",
"j  c #9A7411",
"k  c #8D6C2A",
"l  c #876834",
"z  c #8A733F",
"x  c #936F32",
"c  c #997425",
"v  c #977737",
"b  c #A54B00",
"n  c #AC4E01",
"m  c #A54401",
"M  c #A65607",
"N  c #B24400",
"B  c #BC4E00",
"V  c #B24B00",
"C  c #B65000",
"Z  c #B25C00",
"A  c #BB5C01",
"S  c #BC5700",
"D  c #A16100",
"F  c #AE6100",
"G  c #AA6E1D",
"H  c #A47900",
"J  c #A27D0B",
"K  c #AB7800",
"L  c #A27616",
"P  c #B06C00",
"I  c #B76707",
"U  c #B66D10",
"Y  c #B37400",
"T  c #B57E00",
"R  c #BB7416",
"E  c #A26E21",
"W  c #A37B2F",
"Q  c #B47E2B",
"!  c #8B764E",
"~  c #817A54",
"^  c #867B5A",
"/  c #927944",
"(  c #997E45",
")  c #927F53",
"_  c #C24B00",
"`  c #CE4F00",
"'  c #C45300",
"]  c #C35E00",
"[  c #C46400",
"{  c #C26901",
"}  c #CA6A00",
"|  c #CB7302",
" . c #C57606",
".. c #D46F00",
"X. c #D37300",
"o. c #D37C00",
"O. c #DA7D00",
"+. c #E17D00",
"@. c #9E823D",
"#. c #A78102",
"$. c #B68801",
"%. c #B8881C",
"&. c #B18F30",
"*. c #B39231",
"=. c #A98533",
"-. c #8A825D",
";. c #87815C",
":. c #95804E",
">. c #968253",
",. c #8B8461",
"<. c #8C846C",
"1. c #8F8A6E",
"2. c #898573",
"3. c #8D8977",
"4. c #8F8B79",
"5. c #948D6C",
"6. c #958868",
"7. c #938C71",
"8. c #908C7A",
"9. c #96906E",
"0. c #9E936F",
"q. c #959076",
"w. c #96927D",
"e. c #999372",
"r. c #9A957D",
"t. c #9E9877",
"y. c #9E997A",
"u. c #A18542",
"i. c #AA8A48",
"p. c #A68F5D",
"a. c #AB9042",
"s. c #B49440",
"d. c #B3995A",
"f. c #A68F61",
"g. c #AA9664",
"h. c #AD9768",
"j. c #A19573",
"k. c #A39C7C",
"l. c #AE9B70",
"z. c #B19C6E",
"x. c #B2A179",
"c. c #C88304",
"v. c #C98917",
"b. c #CE9908",
"n. c #D58300",
"m. c #D78800",
"M. c #D98500",
"N. c #DA8C01",
"B. c #D18109",
"V. c #D68A13",
"C. c #D08C19",
"Z. c #D88F17",
"A. c #D49200",
"S. c #DE9200",
"D. c #DD9A02",
"F. c #D8941A",
"G. c #D99717",
"H. c #CC9225",
"J. c #C19B3C",
"K. c #D69C23",
"L. c #CEA000",
"P. c #DBA200",
"I. c #D9A905",
"U. c #DDA51E",
"Y. c #DBA52C",
"T. c #D0A63D",
"R. c #E38F00",
"E. c #E69C00",
"W. c #E29400",
"Q. c #E3A908",
"!. c #E2A717",
"~. c #EAB301",
"^. c #EDBB00",
"/. c #E4B505",
"(. c #E7B61A",
"). c #E0A82E",
"_. c #E1AB33",
"`. c #E2AE3E",
"'. c #E5B429",
"]. c #E5B43B",
"[. c #E7B735",
"{. c #E6B644",
"}. c #9A9681",
"|. c #9D9A84",
" X c #9E9B8B",
".X c #A09C86",
"XX c #A19E8C",
"oX c #AB9F81",
"OX c #A5A18C",
"+X c #A8A48C",
"@X c #AEA98C",
"#X c #A5A292",
"$X c #A8A592",
"%X c #ADA994",
"&X c #ADAA9B",
"*X c #AAA799",
"=X c #B6A989",
"-X c #B1AC95",
";X c #B1AD9B",
":X c #BFB18B",
">X c #B6B195",
",X c #B5B19D",
"<X c #B8B39A",
"1X c #BEB091",
"2X c #B1AEA0",
"3X c #B5B2A3",
"4X c #B9B5A0",
"5X c #B8B6A9",
"6X c #BCB9A5",
"7X c #BCBAAC",
"8X c #BFBDB2",
"9X c #C2B798",
"0X c #C3BCA2",
"qX c #C1BDAB",
"wX c #CBBEA5",
"eX c #C1BDB1",
"rX c #C4C1AB",
"tX c #CAC0AA",
"yX c #C9C2A7",
"uX c #C3C0B2",
"iX c #C6C4BA",
"pX c #CAC6B1",
"aX c #C8C6BC",
"sX c #CCC9BD",
"dX c #CCC9B5",
"fX c #D3C6AF",
"gX c #D2CAB6",
"hX c #DAD5BC",
"jX c #D9D5BB",
"kX c #CCCAC1",
"lX c #D2CEC3",
"zX c #D3D2CB",
"xX c #DAD5C3",
"cX c #D9D6C9",
"vX c #DEDAC1",
"bX c #DDDBCD",
"nX c #DBDAD4",
"mX c #DFDED9",
"MX c #D8D7D0",
"NX c #E0DCC3",
"BX c #E1DECB",
"VX c #E1DED0",
"CX c #E0DFDA",
"ZX c #E6E2CE",
"AX c #E5E2D4",
"SX c #E4E3DA",
"DX c #E8E5D4",
"FX c #E8E6DB",
"GX c #EDEADC",
"HX c #EBE8D7",
"JX c #F0EDDF",
"KX c #EEECE2",
"LX c #F0EEE1",
"PX c #F2F0E4",
"IX c #F4F2E8",
"UX c gray100",
"YX c None",
/* pixels */
"YXYXYXYXYXYX  k.;.~ 9.e.9.9.0.9.9.9.9.9.9.5.9.5.~ t.  YXYXYXYXYXYX",
"YXYXYXYX  y.e.0XhXvXhXvXNXhXhXNXhXNXNXhXhXhXhXjXgX<Xy.5.  YXYXYXYX",
"YXYXYX>X-.yXvXvXZXZXHXGXGXGXGXGXGXGXGXGXGXHXDXBXhXgXrX<X1.@XYXYXYX",
"YXYX>X5.jXvXZXLXIXIXIXIXIXIXIXIXIXIXIXIXIXIXLXKXFXbXsXrX<Xq.%XYXYX",
"YX  -.jXNXHXIXIXIXIXPXPXIXLXLXLXLXPXIXPXPXPXLXKXSXAXcXdX6X;X1.>XYX",
"YXt.yXvXHXIXIXPXPXLXLXLXLXLXLXLXLXLXLXLXLXLXwXvXFXAXcXsX7X,X$X;.  ",
"  e.hXDXIXPXPXLXLXLX9Xi.g.LXLXLXLXJXJXLX:X=.T j AXVXcXsXuX3X*Xq.>X",
"y.yXBXLXPXLXLXJXLXtX#.P.$.yXLXGXJXJXfX@.$.A.E.L FXVXxXsXuX3X*XOX-.",
";.hXZXIXLXLXJXJXtXJ /.^.$.wXJXLXJXh.H m.E.A.%.fXyXk s ) eX4X;X#X-.",
"~ hXDXIXPXLXJX=XJ I.^.P.h LXGX1XL $.W.n.P W 9Xx.d  . .k qX5X2X#Xq.",
"e.vXHXPXLXJX:XH /.~.P.d sXNX:.K D.W.I p p.=X:.Y n.{ r oXeX4X2X#X7.",
"9.BXHXIXJXxXh /.~.o.$.gX9Xd A.E.| i c =Xl.L o.o.b ; k.gXeX5X2X#Xr.",
"9.NXGXPXJX:.b.~.| e -Xx.D A.W.N : / h.L P R.{ y v lX/ ;X;X4X5X#Xr.",
"e.BXHXLX9X$.^.S.Z = #.Y S.W.Z , / c Y M.X.y r 0X( / / r x 2X5X#Xr.",
"9.vXGXPX*.I./.D.m.A.m.M.S.N.Z f Y n.+.N O p.fX( / p Z b l 2X2X#Xr.",
"e.vXGXLX*.(.(./.D.D.N.D.D.N.n.M.o.X.4 ; =X9Xv E R A y t %X2X5X#X|.",
"5.vXGXLX*./.(.(.Q.!.!.!.D.S.M.M.O.b = ( v D { ] 5 # ! uX6X;X2X#Xr.",
"9.vXDXJXs.I.'.[.[.].{._.Y.G.N.n.X.F f P } [ 7 : >.0.! l ,.;X2X#Xr.",
"9.hXDXGXd.b.!.'.[.].{._.G.G.N.M.X.X.X.X.B % / j./ e y : ^ *X2XXXr.",
"7.jXAXGXu.b.I.'.{.].{.).G.G.M.B.X...} ` % - x i b b % ! ;X$X2X Xr.",
"5.gXbXz.%.I.U.'.).)._.K.Z.F.V.o.| } _ ' A Z V q 4 @ 6.<X-XOX;X Xr.",
"5.pX:XJ.U.K.Y.Y.K.K.F.V.F.B.| | } ] ' B _ 6 o * -.qX<X*X+X#X2X X|.",
"6.qXg.T.K.K.K.K.H.C.Z.C. .| [ A A B w 0 $ > e.pXqX<X;X+XXX&X2X#X|.",
"~ 0Xk.a.H.v.v.v. . . .[ I A C C V w w 5 ! pXqX0X<X;X+XXX|.5X2X2X7.",
"-.>X<X>.=.R U U M I Z n n n m w m q : 0.rX6X<X,X%X$X.X|.|.aX3XiX~ ",
"@X}.%X+Xx G M M M M m 8 q 8 8 8 % X t.<X<X,X-X$XOX.X|.w.5XsXuXuX5.",
"  ~ $X*Xw.3 t M u u 7 O + + O X 2 -X%X%X%X+XXX.X|.w.w.*XnXkXzXw.  ",
"YX@Xq.#X*X X2 > a & . 1 2.7.2.+X+XOXOXOX.X|.|.}.w.w.,XnXnXnXuXe.YX",
"YX  t.w.XX#X#X^ < < <.XX X|.|.|.|.|.|.|.|.}.}.}.#XiXCXCXCXzX,.  YX",
"YXYX  t.w. X#X2X5X5X2X2X;X&X;X&X;X&X&X&X3X5X8XkXnXCXCXSXkX,.<XYXYX",
"YXYXYX  k.5.#X2X7X8XeXaXkXkXkXaXkXkXkXkXsXkXkXlXzXCXCX-X5.  YXYXYX",
"YXYXYXYX  -X,.7.$X2X8XiXiXaXkXaXaXaXkXkXkXzXzXiXuX+X~ @X  YXYXYXYX",
"YXYXYXYXYXYXYX  k.5.;.~ ~ ~ ~ ~ ~ ~ ~ ~ ~ ~ ~ 5.t.>X  YXYXYXYXYXYX"
};
