/* XPM */
const char *illus_mode_xpm[] = {
/* columns rows colors chars-per-pixel */
"33 33 256 2",
"   c #510909",
".  c #67120C",
"X  c #621610",
"o  c #74140D",
"O  c #761A13",
"+  c #692617",
"@  c #712616",
"#  c #7D3F23",
"$  c #794529",
"%  c #714932",
"&  c #7A704B",
"*  c #81170E",
"=  c #851D12",
"-  c #852318",
";  c #87331B",
":  c #952918",
">  c #98361B",
",  c #8A2D23",
"<  c #963624",
"1  c #962A21",
"2  c #A02D15",
"3  c #A63824",
"4  c #9C4317",
"5  c #885935",
"6  c #954836",
"7  c #975639",
"8  c #8E5026",
"9  c #8C6E2C",
"0  c #866537",
"q  c #91612C",
"w  c #99623F",
"e  c #907C37",
"r  c #A34C18",
"t  c #AC531C",
"y  c #B2401B",
"u  c #AC4526",
"i  c #A75825",
"p  c #A15937",
"a  c #B64729",
"s  c #B94931",
"d  c #B75828",
"f  c #B75832",
"g  c #AF622E",
"h  c #A87339",
"j  c #BE6133",
"k  c #B97B39",
"l  c #8D7049",
"z  c #817A54",
"x  c #9E6A40",
"c  c #907245",
"v  c #957666",
"b  c #A56E44",
"n  c #A06B5C",
"m  c #AB7545",
"M  c #AC7559",
"N  c #B16F4B",
"B  c #B8764B",
"V  c #BA7454",
"C  c #A47766",
"Z  c #B87C68",
"A  c #C34C31",
"S  c #CA5C35",
"D  c #C06024",
"F  c #CB6E3C",
"G  c #CE702B",
"H  c #C67637",
"J  c #D96D3F",
"K  c #D1753C",
"L  c #CA6A41",
"P  c #C97746",
"I  c #D17645",
"U  c #E27B49",
"Y  c #A68C3A",
"T  c #A9903E",
"R  c #B18837",
"E  c #B5963F",
"W  c #ADA53F",
"Q  c #B8A43E",
"!  c #BBB03E",
"~  c #8A825C",
"^  c #9E8349",
"/  c #96865A",
"(  c #8D8562",
")  c #948D6A",
"_  c #9E8D64",
"`  c #9A8867",
"'  c #97906E",
"]  c #9C9574",
"[  c #9A9477",
"{  c #AD8D4B",
"}  c #A78945",
"|  c #AB8954",
" . c #A89543",
".. c #AB9756",
"X. c #B88246",
"o. c #BC895D",
"O. c #B89748",
"+. c #B79756",
"@. c #A08D66",
"#. c #A18D68",
"$. c #A28469",
"%. c #A48A73",
"&. c #A89867",
"*. c #A6987A",
"=. c #B9876D",
"-. c #B49967",
";. c #B79677",
":. c #ABA243",
">. c #B9A743",
",. c #BCB144",
"<. c #B9A756",
"1. c #B9A979",
"2. c #B7B278",
"3. c #D98537",
"4. c #DE942D",
"5. c #D19038",
"6. c #CA8D36",
"7. c #DEBD3C",
"8. c #EDB131",
"9. c #F0BF3E",
"0. c #EEA734",
"q. c #C78849",
"w. c #C68957",
"e. c #CD9748",
"r. c #C89756",
"t. c #D78345",
"y. c #D58652",
"u. c #D19446",
"i. c #D59B57",
"p. c #CA9761",
"a. c #CA9D7C",
"s. c #DB9964",
"d. c #CA8D6B",
"f. c #C5A749",
"g. c #CDAD54",
"h. c #C9A457",
"j. c #C9B449",
"k. c #D6A84C",
"l. c #D6A858",
"z. c #D4B84A",
"x. c #D8B657",
"c. c #C4B253",
"v. c #C7A468",
"b. c #C7A67E",
"n. c #D7A865",
"m. c #D7A775",
"M. c #DDB562",
"N. c #E4874C",
"B. c #E49655",
"V. c #F19759",
"C. c #EC8C57",
"Z. c #E3AA5D",
"A. c #E2BD57",
"S. c #F2A559",
"D. c #F2B140",
"F. c #E8A963",
"G. c #E4B866",
"H. c #E9B675",
"J. c #F4A765",
"K. c #F3B66A",
"L. c #F5B774",
"P. c #C8C248",
"I. c #D8C84B",
"U. c #D8C854",
"Y. c #DCD24A",
"T. c #DCD455",
"R. c #DFDD64",
"E. c #E4CB4E",
"W. c #E5C658",
"Q. c #E8D645",
"!. c #EBD25C",
"~. c #E3D857",
"^. c #F2D949",
"/. c #F6D857",
"(. c #F7CB4E",
"). c #EACC64",
"_. c #E8C464",
"`. c #EBD263",
"'. c #EDDA62",
"]. c #F3D765",
"[. c #F4D876",
"{. c #F6C27D",
"}. c #F8E756",
"|. c #F2E96A",
" X c #F8F265",
".X c #EFE26C",
"XX c #A19A85",
"oX c #AB9D90",
"OX c #BD9681",
"+X c #A9A48A",
"@X c #ABA794",
"#X c #B5A686",
"$X c #BCAB8C",
"%X c #B6AA88",
"&X c #B3AD91",
"*X c #B5AB97",
"=X c #B6B195",
"-X c #BAB49B",
";X c #BBB495",
":X c #BAB382",
">X c #B2AFA1",
",X c #BAB7A7",
"<X c #C29987",
"1X c #C4AA84",
"2X c #C2B38D",
"3X c #C4B699",
"4X c #D8B584",
"5X c #DAB497",
"6X c #C8A596",
"7X c #C1BDA4",
"8X c #C9B9A8",
"9X c #D9BBA6",
"0X c #EFBC86",
"qX c #CCC19C",
"wX c #D7C499",
"eX c #CAC4AC",
"rX c #C9C3A6",
"tX c #C9C6B5",
"yX c #D4CAAC",
"uX c #D3CDB3",
"iX c #D3CCBB",
"pX c #D8CABC",
"aX c #D5D1B6",
"sX c #DAD5BC",
"dX c #DED9BD",
"fX c #E7C695",
"gX c #F4C98A",
"hX c #F4D298",
"jX c #F3CE95",
"kX c #E0C7B0",
"lX c #E0D5B1",
"zX c #F2DBB3",
"xX c #CBC9C0",
"cX c #D4CEC3",
"vX c #D5D2C3",
"bX c #D6D4CA",
"nX c #DAD4C2",
"mX c #D8D5CB",
"MX c #DDD9C7",
"NX c #DBD9D1",
"BX c #E3D4C3",
"VX c #E0DBC3",
"CX c #E2DDCC",
"ZX c #E3D7C9",
"AX c #E2DED2",
"SX c #E8DFD2",
"DX c #E5E0CA",
"FX c #E5E2D2",
"GX c #E8E4D3",
"HX c #ECE9D5",
"JX c #ECE9D9",
"KX c #F4EAD7",
"LX c #F7F0DF",
"PX c #F0EEE1",
"IX c #F2F0E5",
"UX c #F4F2E8",
/* pixels */
"JXJXJXHXHXuXXX~ z ' ' ) ) ) ) ) ) ) ) ) / ~ ) z ] 7XJXHXJXJXHXJXJX",
"JXHXJXeX[ ] 3XsXlXVXMXdXMXlXdXdXdXdXdXlXwXyXyXlX;X] ) -XHXJXJXHXJX",
"HXJX=X( rXdXdXdXCXDXFXFXHXFXGXGXGXGXDXfXm.m.fXwXwXqX;X' &XJXHXHXHX",
"HX=X) aXdXMXHXUXUXUXUXUXUXUXUXUXUXUXKXB.s.H.gXzXfX4X2X-X) @XHXHXJX",
"tX( uXdXDXIXUXIXIXIXIXPXIXIXIXUXLXLX0XP y.H.hXhXgXH.m.2X-X( =XJXHX",
"] 3XdXDXUXIXPXFXJXPXPXPXJXPXPXJXIXzXP f y.K.gX{.H.H.m.1X%X@X~ CXHX",
"] sXnXIXUXPXVX;.8XPXPXPXPXPXLXLXJX5Xd S i.L.L.K.F.G.m.p.-.#X` #XHX",
";XsXJXUXPXFX<XN 1XPXJXPXJXPXJXGX5XB u F S.L.J.S.Z.s.r.w.o.;.XX0 HX",
"aXdXPXIXJX6X=.X.5XPXPXJXLXJXZX5Xi.a a I J.J.S.B.B.y.H B N M %.l aX",
"aXMXUXPXBXZ e.q.6XPXJXPXJX5Xm.H.K > a N.J.V.B.C.P j d s 7 n C l 7X",
"aXDXIXJXOXw.x.q.<XJXPXAXa.n.[.K.d 3 S C.V.N.N.I d a 3 < < M OX` =X",
"aXGXIXHXV i.x.q.<XJXcXo.G.[.[.t.< u I U U J S s u 2 - ; 6 =.$X` &X",
"aXGXPXBXV i.M.q.=.pXB k././.].D > s L S S A 3 3 : O = 3 P 1X1X$.&X",
"aXGXJX9Xw.n.M.e.M h A.].(.(./.4.G a A 3 3 3 1 = o * : K d.2X$X#.&X",
"aXGXJX9Xs.G.G.k.k z././.^./.0.9.^.3.3 1 , - o o = 3 3.i.m.1X$X#.&X",
"aXFXPX9Xp.G.A.k.q.z.!.Q.^./.0.(.}.`.P < O . . : D 4.n.n.v.2X$X#.&X",
"uXFXJXkXw.G.A.x.u.E T.Q.^.].8.^.|.`.u.i ; > 4 t H A.n.n.v.1X$X_ &X",
"uXGXJXBXB l.A.A.Z.O.P.Q.}./.5.A..XW.d 4 r r d e.G.A.M.n.v.b.$X_ &X",
"yXCXHXGXZ i.M.W.G.k.,.Q. X}.8 . @ i t r r 5.).].).G.x.v.v.1.%X_ &X",
"eXMXGXGX9Xq.i.)._.G.E Y. X^.;   + 4 t 6.`.[.].`.).x.l.h.+.1X%X_ %X",
"7XvXFXFXBX<Xq.W.)._.B P. X7.i g k 6.!.].].].)._.W.l.h.+.+.1.#X#.&X",
"7XiXMXMXBXa.p e.E._.5.j.R.Q.T.E.E./.].`.`.)._.U.x.g.h.+.-.$X%X#.&X",
"-XtXiXiX4Xp + 8 f.W.z.k Y.T.|.R.~.'.!.W.W.W.x.x.g.r.r.O.-.$X$X_ ;X",
"=X*X*Xv 5 7 b + q g.x.q.R T.R.T.~.I.I.W.U.z.x.g.f.O.O.| 1.$X3X/ 7X",
"+XXXoXC -.g.v.m ; h j.h.h Q U.T.I.I.z.x.z.j.f.f.O.O.{ { 3X3X8X0 HX",
"[ @X,X-Xm X.c.v.5 $ E c.O.q Q P.P.P.j.j.f.f.O.>.O.{ } 1.rXeX,X/ HX",
"z @X@X2.+.m } <...$ $ Y +.h q W ! ! ,.>.>.O.T  . .} &.eXiXvX' -XJX",
"@X[ oX@X1.{ w } ..^ $ 5 } { 0 9 W W :.:.:.T T Y ^ -.yXMXmX,X' JXHX",
"MX[ XX>X-X2.| b } ..l % 0 m ^ & Y :.:. .:. .^ ..;XvXAXNXtX~ rXHXHX",
"JXtX[ +X,XtX8X3X1X1.#X' v $.&.*.~ &.2.2.:X;XrXdXCXFXAXtX~ ;XHXHXHX",
"JXHXtX[ ' ,XiXiXcXpXvXvXiXiXxXvXvXsXvXbXmXMXCXNXFXmX+X/ ;XHXHXHXHX",
"JXJXJXJX*X( [ *X,XxXvXvXbXbXcXbXbXbXbXbXmXbXtX,XXX~ +XdXHXHXHXJXJX",
"HXJXHXHXHXHX,X*.' ( z z z z & & & z z z z z ' [ -XFXHXHXJXJXHXJXHX"
};
