/* XPM */
const char *layerplus_xpm[]={
"14 12 9 1",
". c None",
"# c #953803",
"f c #b15306",
"e c #c3c3c3",
"d c #c56e01",
"a c #d99119",
"g c #dc9c25",
"c c #ead8ac",
"b c #ecc16c",
"..#########...",
".#abbbbbbba#..",
".#bccbdbccb#e.",
".#bcbbfbbcb#e.",
".#bbdf#fdbb#e.",
".#bbbbfbbbb#e.",
".#bcbbdbbbb#e.",
".#bcbbbbggg#e.",
".#bccbbg####e.",
".#bbccbg#cb#e.",
".#abbbbg#baee.",
"..########ee.."};
