/* XPM */
const char *layer_pic_xpm[]={
"16 16 16 1",
"a c None",
". c None",
"i c #808080",
"h c #953803",
"n c #b15306",
"# c #c56e01",
"m c #dc9c25",
"g c #ecc16c",
"e c #eeeecd",
"d c #f6f6d8",
"k c #fcfcf6",
"l c #fcfcf7",
"c c #fdfdfa",
"j c #fefefc",
"f c #ffffc0",
"b c #ffffff",
"................",
".#############a.",
".#bbcbdddeefghi.",
".#jjkdddeeffghi.",
".#ccdddddfffghi.",
".#ldddggggggghi.",
".#ddddg####mghi.",
".#ddefg#ddfgmhi.",
".#deffg#dfggh#i.",
".#efffg#fgghni..",
".#ffffg#gmhnia..",
".#gggggmmhniaa..",
".#hhhhhhh#ia....",
"..iiiiiiiia.....",
"..........aaaaaa",
"..........aaaaaa"};
