/* XPM */
const char *lock_xpm[]={
"10 12 9 1",
". c None",
"e c #953803",
"c c #c56e01",
"# c #cccc99",
"d c #d99119",
"f c #e8e8e8",
"g c #ecc16c",
"b c #fffe9a",
"a c #ffffcc",
"..#abba#..",
".cadeeeac.",
".cae...ae.",
".cae.f.ae.",
".cae.f.ae.",
".caceeeae.",
"caaaaaaaae",
"caaeeeeaae",
"cbaaeeaabe",
"cbaaeeaabe",
"cbbaggabbe",
"ceeeeeeeee"};
