/* XPM */
const char *minussign_xpm[]={
"12 12 6 1",
". c None",
"d c #953803",
"c c #c56e01",
"b c #dc9c25",
"a c #ecc16c",
"# c #ffffc0",
"............",
"...######...",
".##########.",
"############",
"#abbbbbbbba#",
"#cddddddddc#",
"#cddddddddc#",
"#abbbbbbbba#",
"############",
".##########.",
"...######...",
"............"};
