/* XPM */
const char *next3_xpm[] = {
/* columns rows colors chars-per-pixel */
"33 33 256 2",
"   c #010100",
".  c #090000",
"X  c #120000",
"o  c #100903",
"O  c #2F1206",
"+  c #3F3319",
"@  c #4C1A1E",
"#  c #521B07",
"$  c #501A1F",
"%  c #4F1C20",
"&  c #49250E",
"*  c #46381A",
"=  c #5B280E",
"-  c #543012",
";  c #5C2820",
":  c #582124",
">  c #602A0D",
",  c #612A25",
"<  c #6C3528",
"1  c #584620",
"2  c #834B1C",
"3  c #9D571E",
"4  c #824B3C",
"5  c #8D5723",
"6  c #89503E",
"7  c #92572D",
"8  c #985B35",
"9  c #876027",
"0  c #9C652B",
"q  c #9D6A2D",
"w  c #9B6737",
"e  c #9F702F",
"r  c #9B7032",
"t  c #9B753C",
"y  c #A6551D",
"u  c #BB5F1B",
"i  c #A75E26",
"p  c #A36C2C",
"a  c #A76727",
"s  c #A3683A",
"d  c #A5712D",
"f  c #A87735",
"g  c #B36B28",
"h  c #B56926",
"j  c #B1702C",
"k  c #B57B38",
"l  c #8A5442",
"z  c #8A5859",
"x  c #8F5D61",
"c  c #817A54",
"v  c #976645",
"b  c #91615E",
"n  c #9C7B43",
"m  c #9D7956",
"M  c #8D6748",
"N  c #9A6C6B",
"B  c #976765",
"V  c #9F736F",
"C  c #9F7370",
"Z  c #A37C46",
"A  c #AA7A47",
"S  c #A77451",
"D  c #B77944",
"F  c #A07470",
"G  c #A57A6C",
"H  c #C36A24",
"J  c #CF7429",
"K  c #C17F36",
"L  c #BD853B",
"P  c #89825D",
"I  c #87815C",
"U  c #9F8255",
"Y  c #8C8460",
"T  c #948D6A",
"R  c #9F8369",
"E  c #998A71",
"W  c #96906E",
"Q  c #99926F",
"!  c #969075",
"~  c #9A9474",
"^  c #9B957D",
"/  c #9E9877",
"(  c #9E987A",
")  c #959178",
"_  c #A1814B",
"`  c #A98446",
"'  c #A38659",
"]  c #B78747",
"[  c #BC8753",
"{  c #BB9143",
"}  c #A68A61",
"|  c #A98874",
" . c #AE906A",
".. c #A4977A",
"X. c #B08460",
"o. c #BC9063",
"O. c #B89477",
"+. c #BDA574",
"@. c #C98E38",
"#. c #C48537",
"$. c #C8923D",
"%. c #D1983E",
"&. c #C18545",
"*. c #C1854D",
"=. c #C88C49",
"-. c #C28B56",
";. c #CA9441",
":. c #CA985A",
">. c #D19C46",
",. c #D09D5C",
"<. c #CE996A",
"1. c #C29978",
"2. c #D09D6C",
"3. c #D2A15E",
"4. c #C8A56D",
"5. c #C3AC73",
"6. c #CBB36E",
"7. c #C9B373",
"8. c #D2A76A",
"9. c #D5A672",
"0. c #D6AC73",
"q. c #D5B368",
"w. c #D9B774",
"e. c #E3A945",
"r. c #EDB448",
"t. c #E2BB7A",
"y. c #DFC77A",
"u. c #E5C57B",
"i. c #9D9880",
"p. c #AB8482",
"a. c #A49B86",
"s. c #B58D83",
"d. c #BA948A",
"f. c #B89787",
"g. c #BB9890",
"h. c #AAA48C",
"j. c #ABA591",
"k. c #ADA894",
"l. c #AEAA99",
"z. c #A7A493",
"x. c #B8A98A",
"c. c #B3AD92",
"v. c #B2AE9B",
"b. c #BCA994",
"n. c #BFB088",
"m. c #B6B195",
"M. c #B4B09A",
"N. c #BBB094",
"B. c #BAB49A",
"V. c #BDB89E",
"C. c #B1AFA1",
"Z. c #BAB5A3",
"A. c #BBB9AB",
"S. c #B8B4A4",
"D. c #C09A89",
"F. c #C8A588",
"G. c #C2A499",
"H. c #C7A999",
"J. c #C2B38C",
"K. c #CDB586",
"L. c #C3B598",
"P. c #C2BA9C",
"I. c #C9BB9B",
"U. c #C6BA97",
"Y. c #DBAF82",
"T. c #D3B386",
"R. c #D9B48B",
"E. c #D7B58C",
"W. c #DEBC9B",
"Q. c #D8B495",
"!. c #C9ADA0",
"~. c #C2BCA2",
"^. c #C9B8A4",
"/. c #D7BBA2",
"(. c #E1BB83",
"). c #E1BD8C",
"_. c #E1BE9C",
"`. c #E0BEA2",
"'. c #DAC187",
"]. c #D5C49D",
"[. c #C5C0A5",
"{. c #CBC4AB",
"}. c #CEC6A9",
"|. c #C4C1B5",
" X c #CAC6B6",
".X c #D3C2A3",
"XX c #DAC4A4",
"oX c #DBC9A6",
"OX c #D2CDB3",
"+X c #D2CEB9",
"@X c #DDCBB3",
"#X c #D5D1B6",
"$X c #DAD5BA",
"%X c #DDD9BD",
"&X c #D7D1B8",
"*X c #EACB83",
"=X c #EACC8C",
"-X c #E6C387",
";X c #E3C39B",
":X c #E9CC9D",
">X c #E6C793",
",X c #EDD28D",
"<X c #EFD485",
"1X c #EBD294",
"2X c #F4DB8D",
"3X c #F0D78B",
"4X c #F3D892",
"5X c #E3C3A2",
"6X c #E3C4AA",
"7X c #E4C9A4",
"8X c #E9CCA2",
"9X c #E6CFAE",
"0X c #E3CCB1",
"qX c #E8CDB4",
"wX c #E1D1A2",
"eX c #EBD1A5",
"rX c #ECD4A8",
"tX c #ECDAAC",
"yX c #E6D6A7",
"uX c #E1D4BD",
"iX c #E8D5B9",
"pX c #F0D7AA",
"aX c #F1D9A3",
"sX c #F2DCAB",
"dX c #F0D7A4",
"fX c #F1DDB2",
"gX c #FAE192",
"hX c #F5E2AE",
"jX c #F5E2B1",
"kX c #F8E6B1",
"lX c #FCEBB4",
"zX c #FFF0B8",
"xX c #CBC9C0",
"cX c #D1CCC0",
"vX c #D5D4CC",
"bX c #DEDAC3",
"nX c #D9D5C4",
"mX c #D7D6D0",
"MX c #D8D7D0",
"NX c #DAD9D1",
"BX c #E5D6C0",
"VX c #E3DBC4",
"CX c #E1DDCB",
"ZX c #EBDCC6",
"AX c #E5DED5",
"SX c #E4E0CC",
"DX c #EFE1C8",
"FX c #E5E2D1",
"GX c #E9E5D3",
"HX c #EBE8D6",
"JX c #ECE9D8",
"KX c #E2E1DB",
"LX c #F2EBD9",
"PX c #F2E4C9",
"IX c #F0EDE1",
"UX c #F3F1E5",
/* pixels */
"JXJXJXJXJXOXh.c c T T T T T T T T W T T W T T c ( ~.GXHXHXJXJXJXHX",
"JXJXJX{.( Q V.$XuX$X%X%X%XuX%X%X%X%X%X%X$X$X$X#XB.( T V.HXHXHXJXJX",
"JXJXm.Y [.bXoX.XXX@X@X0X0X@XuXiXuXBXVXVXZXZXbX&XOX{.B.T c.JXJXJXJX",
"HXm.T &X%XuXXX6X`.`.`.`.5X6X`.6X6XqXqXqXiXBXiXBX@X}.L.B.T h.JXJXJX",
"{.Y OXbXSXDX/.`._.`.`.`.;X5X`.5X5X5X`.5X8X5X5X7X6XXXU.L.c.Y c.JXJX",
"( P.%XZXUX6XQ._._._._.;X_._._.5X8X8X;X8X5X8X8X9X6XoX/.U.N.c.I CXHX",
"Q %XuXUXIXQ.)._._._._.Q.D.s.s.D.F.W.8X8X8XeXeX8X7XoX.XI.B.b.~ c.JX",
"V.&XGXUXDX)._._.;X8XQ.d.p.p.p.p.p.d./.pXrXrXrXeXyX:XXX].U.m.j.Y HX",
"#X%XUXUX;X>X:X8X8XeXQ.d.g.g.g.g.g.g.H.rXsXsXsXsXrXwXwX].[.N.m.P OX",
"OXVXUXHX>X:X8XpXeXpX`.G.G.G.G.G.b.g.Q.fXjXjXjXsXtXyXwX].[.N.m.W ~.",
"#XSXLXpX:XdXpXsXsXsXsX9X^.!.!.!.!./.fXkXkXkXkXjXtXyXwX].[.V.V.) m.",
"#XGXLXfXfXfXsXsXhXkXkXlXzXlXfXrXfXzXlXkXkXkXhXhXhXaXwX].U.[.Z.( c.",
"OXHXIXJXIX0XY.(.(.).).Q.F.R.E.E.;X:XaXaXaXaXaXdX:X>X'.K.7.U.m.i.c.",
"#XGXIXIXGXE.<.2.2.9.1.z z z x b B N 1.(.(.t.t.w.0.6.4.4.+.N.b.i.c.",
"#XGXIXJX9X9.9.9.0.(.O.B B N B B B x G =X-X-Xt.t.w.w.w.5.+.J.m.i.c.",
"OXGXIXDX(.w.(.(.-X>X(.G F F F F N N O.4X,X<Xu.u.y.y.w.7.5.J.N.i.c.",
"OXFXIXPXfX:X=X=X,X,X4X=XY.D.f.O.D.T.1X4X4X3X3X,Xu.y.y.7.+.n.m.( c.",
"OXFXJXJXJXGXGXVX2.9.0.t.u.*X=X,X2XgXgX2X2X2X2X<Xy.y.6.6.7.n.m.i.c.",
"{.FXJXHXGXJXZXR.*.-.*.v 6 6 4 l v [ ,.,.,.,.,.,.-.A A v M E a.^ c.",
"{.nXFXGXGXGXBX=.=.=.w , $ % @ $ % : 8 &.D D D s s w w v v | a.^ c.",
"[.nXCXGXCXuXq.K &.@.k < ; ; ; ; , < w =.*.*.] ] [ ` ` _ U ..h.( c.",
"A.#XMXbXVXoX>.@.@.$.=.#.p 7 7 7 8 D ;.@.L L L { ] ] ` _ ' f.c.i.c.",
"V.{.+XnXnX#XwX'.q.%.%.%.e.r.e.e.e.e.>.$.$.$.{ L { ` ` _ ' x.M.^ B.",
"l.A. XOX].+X+X+XR.H H J 5 + * * 1 9 #.#.#.#.k k L f f t O.x.A.! [.",
"k.m.|.V.:.4..X}.*.u H y o         o - h h g g a a 0 q w x.b.|.c JX",
"^ k.Z.Z.o.g &.[ h g h a & X X X X o O a j j a p 0 0 w  .^.~.Z.T JX",
"c z.k.C.j.X.i i y y a j g 2 = # # = < j d p e q q r ' ^. XcX! ~.JX",
"c.) z.C.v.z...S S s 8 q p f p p 0 e d d d r r r t } {.nXnXZ.W JXHX",
"bX^ a.C.A.C.z.z.a...V m m U ' Z n _ n n n n n ' N.+XCXNX XY ~.JXJX",
"JX{.^ a.A. XxX~.A.Z.v.l.l.l.l.l.l.k.c.c.M.A. XnXAXKXAX|.Y B.JXJXJX",
"JXJX X( i.A.xXvXvXvXMXMXvXMXMXMXMXMXMXNXNXNXNXAXKXMXj.T V.JXJXJXJX",
"JXJXHXHXv.c ) l.A.xXvXvXvXMXMXMXMXmXmXMXmXmX XA.a.c h.nXJXJXJXJXJX",
"JXJXJXJXJXJXZ...Q P c c c c c c c c c c c c W / m.SXJXHXJXJXJXJXHX"
};
