/* XPM */
const char *redhat_graphics_xpm[]={
"38 38 9 1",
". c None",
"f c #000080",
"g c #0000ff",
"b c #008000",
"c c #00c000",
"d c #800000",
"# c #c3c3c3",
"e c #ff0000",
"a c #ffffff",
"......................................",
"....##############################....",
"...#aaaaaaaaaaaaaaaaaaaaaaaaaaaaaa#...",
"..#aaaaaaaaaaaaaaaaaaaaaaaaaaaaaaaa#..",
".#aaaaaaaaaaaaaaaaaaaaaaaaaaaaaaaaaa#.",
".#aaaaaaaaaaaaaaaaaaaaaaaaaaaaaaaaaa#.",
".#aaaaaaaaaaaaaaaaaaaaaaaaaaaaaaaaaa#.",
".#aaaaaabbbbbbbbbbbbbbbbaaaaaaaaaaaa#.",
".#aaaaaabccccccccccccccbaaaaaaaaaaaa#.",
".#aaaaaabccccccccccccccbaaaaaaaaaaaa#.",
".#aaaaaabccccccccccccccbaaaaaaaaaaaa#.",
".#aaaaaabccccccccccccdddddaaaaaaaaaa#.",
".#aaaaaabccccccccccddeeeeeddaaaaaaaa#.",
".#aaaaaabcccccccccdeeeeeeeeedaaaaaaa#.",
".#aaaaaabccccccccdeeeeeeeeeeedaaaaaa#.",
".#aaaaaabccccccfdeeeeeeeeeeeeedaaaaa#.",
".#aaaaaabccccccffeeeeeeeeeeeeedaaaaa#.",
".#aaaaaabcccccfgfeeeeeeeeeeeeeedaaaa#.",
".#aaaaaabcccccfgfeeeeeeeeeeeeeedaaaa#.",
".#aaaaaabccccfgggfeeeeeeeeeeeeedaaaa#.",
".#aaaaaabccccfgggfeeeeeeeeeeeeedaaaa#.",
".#aaaaaabcccfgggggfeeeeeeeeeeeedaaaa#.",
".#aaaaaabbbbfgggggfeeeeeeeeeeedaaaaa#.",
".#aaaaaaaaafgggggggfeeeeeeeeeedaaaaa#.",
".#aaaaaaaaafgggggggfeeeeeeeeedaaaaaa#.",
".#aaaaaaaafgggggggggfeeeeeeedaaaaaaa#.",
".#aaaaaaaafgggggggggfeeeeeddaaaaaaaa#.",
".#aaaaaaafgggggggggggfddddaaaaaaaaaa#.",
".#aaaaaaafgggggggggggfaaaaaaaaaaaaaa#.",
".#aaaaaafgggggggggggggfaaaaaaaaaaaaa#.",
".#aaaaaafgggggggggggggfaaaaaaaaaaaaa#.",
".#aaaaafffffffffffffffffaaaaaaaaaaaa#.",
".#aaaaaaaaaaaaaaaaaaaaaaaaaaaaaaaaaa#.",
".#aaaaaaaaaaaaaaaaaaaaaaaaaaaaaaaaaa#.",
"..#aaaaaaaaaaaaaaaaaaaaaaaaaaaaaaaa#..",
"...#aaaaaaaaaaaaaaaaaaaaaaaaaaaaaa#...",
"....##############################....",
"......................................"};
