/* XPM */
const char *save_xpm[] = {
/* columns rows colors chars-per-pixel */
"33 33 257 2",
"   c #320F00",
".  c #3B1502",
"X  c #3F1900",
"o  c #3F3603",
"O  c #451A01",
"+  c #431500",
"@  c #531C01",
"#  c #4B2617",
"$  c #5D2108",
"%  c #5F2A04",
"&  c #562A17",
"*  c #5F3C18",
"=  c #5C3726",
"-  c #631F00",
";  c #642C01",
":  c #682400",
">  c #6B2608",
",  c #642505",
"<  c #6A2D11",
"1  c #673E08",
"2  c #6B3D00",
"3  c #62371A",
"4  c #752B02",
"5  c #773305",
"6  c #773914",
"7  c #673C25",
"8  c #684000",
"9  c #774B06",
"0  c #764618",
"q  c #704628",
"w  c #734832",
"e  c #7D5329",
"r  c #785439",
"t  c #6D5649",
"y  c #74594A",
"u  c #776F45",
"i  c #8A3E02",
"p  c #8D4C02",
"a  c #894606",
"s  c #894217",
"d  c #895606",
"f  c #8A5616",
"g  c #934C00",
"h  c #994501",
"j  c #9C4D00",
"k  c #904202",
"l  c #975705",
"z  c #925012",
"x  c #855122",
"c  c #845A35",
"v  c #955528",
"b  c #8F600D",
"n  c #9C6107",
"m  c #9A6215",
"M  c #976329",
"N  c #A84A01",
"B  c #AB5401",
"V  c #A85605",
"C  c #A45C1B",
"Z  c #B34400",
"A  c #B25300",
"S  c #B35B01",
"D  c #B95700",
"F  c #AD6A03",
"G  c #A86703",
"H  c #A26219",
"J  c #A97300",
"K  c #AB761A",
"L  c #B46C0A",
"P  c #BD6201",
"I  c #B86806",
"U  c #B56915",
"Y  c #B47C01",
"T  c #B97100",
"R  c #BD7801",
"E  c #B97309",
"W  c #B67119",
"Q  c #A2612B",
"!  c #AE742A",
"~  c #A9713E",
"^  c #B46D25",
"/  c #B5742E",
"(  c #B27D3F",
")  c #836754",
"_  c #8A7843",
"`  c #817A54",
"'  c #857E59",
"]  c #93734B",
"[  c #94725D",
"{  c #946A48",
"}  c #947964",
"|  c #A06342",
" . c #A67941",
".. c #B67A4A",
"X. c #C36906",
"o. c #C47C03",
"O. c #CE7B02",
"+. c #C47404",
"@. c #C47318",
"#. c #C16E20",
"$. c #C87F23",
"%. c #B88A03",
"&. c #BD8324",
"*. c #BA8338",
"=. c #88825D",
"-. c #9A885A",
";. c #8B8462",
":. c #938D6A",
">. c #97846B",
",. c #9C8E7B",
"<. c #958B71",
"1. c #96906E",
"2. c #98916E",
"3. c #969175",
"4. c #99947D",
"5. c #9E9877",
"6. c #9B9577",
"7. c #A68655",
"8. c #B88744",
"9. c #BB985D",
"0. c #B58A54",
"q. c #A18A6B",
"w. c #A48D73",
"e. c #A9946B",
"r. c #A49979",
"t. c #B19663",
"y. c #B09F75",
"u. c #CA8404",
"i. c #CC9903",
"p. c #C89611",
"a. c #D48C06",
"s. c #D89702",
"d. c #D69619",
"f. c #D18915",
"g. c #C88727",
"h. c #C68836",
"j. c #CE9024",
"k. c #CB953A",
"l. c #D18D23",
"z. c #D28F3B",
"x. c #D59738",
"c. c #CBA201",
"v. c #D8AB00",
"b. c #D8A717",
"n. c #DBB501",
"m. c #D6AB3A",
"M. c #D2B431",
"N. c #E0AD00",
"B. c #E3AF0F",
"V. c #E4B906",
"C. c #E2AF24",
"Z. c #CD984E",
"A. c #C89B5A",
"S. c #D29442",
"D. c #D19D59",
"F. c #D6BC57",
"G. c #D8AA5A",
"H. c #DDAF7C",
"J. c #E8C30D",
"K. c #EDCB11",
"L. c #EFD30E",
"P. c #EDCB2B",
"I. c #EBC534",
"U. c #F1D42B",
"Y. c #EFD144",
"T. c #F2D74A",
"R. c #F3D953",
"E. c #E8CB5C",
"W. c #E3D16D",
"Q. c #E3D074",
"!. c #F3DC73",
"~. c #F6E275",
"^. c #F5E264",
"/. c #9C9882",
"(. c #9B9682",
"). c #A09C86",
"_. c #A19D89",
"`. c #AA9C87",
"'. c #A5A18D",
"]. c #ABA48C",
"[. c #AEA98C",
"{. c #AAA693",
"}. c #ADA995",
"|. c #ADA99A",
" X c #A6A393",
".X c #B1A78D",
"XX c #B2AC94",
"oX c #B1AD9C",
"OX c #BAB08E",
"+X c #B6B195",
"@X c #B4B09B",
"#X c #B8B39C",
"$X c #BDB89E",
"%X c #BEB097",
"&X c #B5AEA0",
"*X c #B5B2A2",
"=X c #BBB3A2",
"-X c #BEBAA6",
";X c #BDBBAB",
":X c #B7B4A9",
">X c #BDBBB1",
",X c #C0B19D",
"<X c #C5BB98",
"1X c #D0BF94",
"2X c #DBBA85",
"3X c #C1B3A3",
"4X c #C1BDAB",
"5X c #C3BCA4",
"6X c #C1BEB2",
"7X c #C8BFB2",
"8X c #E7BF91",
"9X c #E8BC83",
"0X c #D5C497",
"qX c #DCD29B",
"wX c #C6C2AA",
"eX c #C3C0B4",
"rX c #C5C3B9",
"tX c #CAC4B2",
"yX c #C9C7BE",
"uX c #CCC9B6",
"iX c #CCC9BB",
"pX c #D1CAB7",
"aX c #DAD5BA",
"sX c #DDD8BD",
"dX c #D5D1B8",
"fX c #F0DD84",
"gX c #E5CEAE",
"hX c #E7DCBE",
"jX c #F5E185",
"kX c #EFE7BB",
"lX c #F6EEBC",
"zX c #CCCAC1",
"xX c #D0CEC3",
"cX c #D6D3C4",
"vX c #D4D2CA",
"bX c #DFDAC2",
"nX c #DAD6C8",
"mX c #DCDAD3",
"MX c #E0DDCE",
"NX c #E5DCC5",
"BX c #E0DDD0",
"VX c #E0DFDA",
"CX c #E4E1CC",
"ZX c #ECE6CE",
"AX c #E6E4D4",
"SX c #E4E2DA",
"DX c #E9E5D3",
"FX c #EEEBDC",
"GX c #EAE8D6",
"HX c #F0EDDD",
"JX c #F0ECD6",
"KX c #EEECE0",
"LX c #F0EEE0",
"PX c #F2F0E5",
"IX c #F4F2E8",
"UX c gray100",
"YX c None",
/* pixels */
"YXYXYXYXYXYXo r.=.u 3.1.1.1.:.:.1.:.:.1.:.:.:.:.u 5.5XYXYXYXYXYXYX",
"YXYXYXYXo 5.2.5XaXsXbXsXaXaXsXaXaXaXaXaXdXdXuXwXwX[.1.:.#XYXYXYXYX",
"YXYXYX#X=.wXsXsXsXNXCXDXDXGXGXGXGXDXAXDXAXCXMXdXwX$X+X{.;.].YXYXYX",
"YXYX+X:.aXsXbXJXIXIXIXIXPXIXPXIXPXIXIXIXPXLXKXSXCXxX4X@X}.:.[.YXYX",
"YXo =.aXsXCXPXPXPXIXPXPXPXPXPXPXPXPXLXLXPXFXKXSXBXvXyX-X|.|.;.+XYX",
"YXo wXsXCXPXPXPXLXPXFXPXLXLXFXPXLXKXHXLXLXLXJXSXBXcXiX6X*X|. X=.o ",
"o u sXbXPXPXPXLXPXLXLXLXLXFXFXFXLXLXJXLXLXKXFXAXBXcXiX6X:X*X|.3.XX",
"5.<XsXGXPXLXLXLXFXFXFXFXLXFXNXdXDXLXJXKXLXJXGXSXBXcXyX;X:X|.:X|.;.",
"=.sXbXPXPXFXFXFXFXFXLXFXFX2X%.i.V.K.U.fXZXFXGXGXCXdXtXeX#XoX;X:X;.",
"u NXNXIXPXLXFXLXLXFXLXFXgXK n.U.R.T.P.J.J.E.DXZXmXcXiXeX*X|.>X>X3.",
"1.sXCXIXLXLXFXFXHXHXLXNXJ c.U.~.jX!.P.f.+.s.b.F.bXcXiX;X&X|.eX6X6.",
"1.aXDXPXLXFXFXGXFXHXCX@.c.L.^.~.~.T.d.A N u.n.i.%.0.uX;X*X|.rXrX).",
"1.sXDXPXFXLXFXFXFXFX#.D s.B.T.R.R.I.@.Z D V.v.J m M `.;X*X|.>XrX).",
"1.aXZXPXLXFXFXFXFXH.N D S B a.d.P.Y.I.a.v.V.Y g Q y ,.;X@X|.rXrX).",
"2.aXZXLXFXFXGXFX8XA N D D A j j F d.C.I.B.%.p C { t *X5XoX|.>XrX).",
"2.aXDXLXFXJXGXGXX.A A P P F V j a g +.a.E p l ~ r ,.eX;XoX}.eXrX).",
"3.qXW.kXFXJXGXm.O.P P X.I U L l l a a l d m ..q ) -XeX-X@X{.eXrX).",
"1.qXF.F.Q.lX9Xs.N.+.X.I L U L L F l l a f ( i w ].uXtX=X|. X6XrX).",
"1.0XG.m.G.M.a.B ^ $.L I L L E +.T G n n *.v > >.7XiX4X*X{.'.>XrX).",
"1.0XD.z.j.m.k.g > v h.g.R +.o.o.R F G K ~ 4 w 3XuXtX5X@X{.'.6XrX).",
"1.0XA.z.@.+.k.m.l : 5 *.k.l.o.R o.+.E *.6 $ } tXiXwX=X}. X/.rXrX).",
"1.0XA.k.W I P l.m.Y , @ a h.x.u.T T &.M . = .XuXtX-X@X}.'./.rXyX'.",
":.<XA.z.@.U B j W u.u.8 @ : C k.L p.8.% . } tXtX-X#X}.'./. XzXzX/.",
"` <XA.Z.h.U V V h j S R n ; + < / *.z . = $XwX4X#XoX X/.(.*XzXzX6.",
"=.OX9.A.h.W S V k i k h P Y 9 O O 5 O . 6.-X-X#X}.]./././.yXvXvXu ",
"[.e.t.9.*.^ C V i i 5 > 4 h F F 8 X   0 `.#X@X}.]._.(.(.oXvXmX>X:.",
"o _ y.t.0./ C z k i 4 > - : 4 a ! b 8 d d 7.{.'.)./.4. XvXmXmX3.-X",
"YX[.4.e.7. .M x 0 1 < > > $ @ , < x M 0 8 8 f q.(.4.{.xXVXVX;X3.YX",
"YXo 5.-.e.} ] c x q 3 & & & & # # # q r e 3 3 0 ] >XmXSXVXzX;.o YX",
"YXYXo 6.-.2.w.e.>.[ ) ) y y t t t t t y [ q.>.`.=XiXnXSXrX;.@XYXYX",
"YXYXYXo r._ y.XX,X,X,X3X3X3X,X,X,X=X%X3X3X7X7X7XzXnXvXr.:.$XYXYXYX",
"YXYXYXYX# XX;.<._.&X4X7XyXiXyXyXyXyXyXyXyXyXyX>X=X).u [.o YXYXYXYX",
"YXYXYXYXYXYXYX5Xr.1.=.u =.u =.u ;.u ;.u ;.u ;.3.5.#Xo YXYXYXYXYXYX"
};
