/* XPM */
const char *scenes_xpm[] = {
/* columns rows colors chars-per-pixel */
"33 33 256 2",
"   c #1D0301",
".  c #1D0804",
"X  c #240400",
"o  c #240A04",
"O  c #280500",
"+  c #2A0D08",
"@  c #2C0C04",
"#  c #2E1610",
"$  c #330E04",
"%  c #3C0A03",
"&  c #310804",
"*  c #361005",
"=  c #31110B",
"-  c #3A1106",
";  c #420B02",
":  c #490D03",
">  c #481109",
",  c #4E190A",
"<  c #471406",
"1  c #411C12",
"2  c #5A1908",
"3  c #45241C",
"4  c #5E220F",
"5  c #5B2D0B",
"6  c #5A2415",
"7  c #472D23",
"8  c #4B3128",
"9  c #52362D",
"0  c #53392E",
"q  c #563A31",
"w  c #6A1A09",
"e  c #62260E",
"r  c #64270E",
"t  c #642913",
"y  c #693413",
"u  c #702710",
"i  c #732C12",
"p  c #793719",
"a  c #6B3D25",
"s  c #713B25",
"d  c #78481B",
"f  c #674028",
"g  c #75492B",
"h  c #744638",
"j  c #634E42",
"k  c #6A5144",
"l  c #931E07",
"z  c #822E19",
"x  c #853816",
"c  c #9C391B",
"v  c #A53F20",
"b  c #854A1E",
"n  c #8A501B",
"m  c #99511E",
"M  c #844828",
"N  c #864C32",
"B  c #8D5521",
"V  c #825135",
"C  c #954920",
"Z  c #944230",
"A  c #925928",
"S  c #925736",
"D  c #996935",
"F  c #99652B",
"G  c #AE4823",
"H  c #A94E32",
"J  c #AC542A",
"K  c #BB4820",
"L  c #B75D3C",
"P  c #A76735",
"I  c #B86F3F",
"U  c #BB783A",
"Y  c #AB793C",
"T  c #965240",
"R  c #817A54",
"E  c #936645",
"W  c #A95944",
"Q  c #A8694A",
"!  c #B96142",
"~  c #B56452",
"^  c #B2774A",
"/  c #B97353",
"(  c #BF7760",
")  c #C65C26",
"_  c #C66637",
"`  c #D36527",
"'  c #D2762A",
"]  c #D4782A",
"[  c #D47327",
"{  c #E37933",
"}  c #C16644",
"|  c #C27341",
" . c #DB7F48",
".. c #88825D",
"X. c #8B8461",
"o. c #8E8868",
"O. c #948D6A",
"+. c #968972",
"@. c #96906E",
"#. c #99926F",
"$. c #959074",
"%. c #9B9574",
"&. c #99957C",
"*. c #9E9877",
"=. c #9F9979",
"-. c #959178",
";. c #AE825C",
":. c #BF865B",
">. c #A29D7D",
",. c #B88477",
"<. c #EE8729",
"1. c #E08D3A",
"2. c #C68B43",
"3. c #CE975E",
"4. c #DB8A5C",
"5. c #D99E4B",
"6. c #D6945B",
"7. c #C6904F",
"8. c #C6886B",
"9. c #D89760",
"0. c #D39B77",
"q. c #CBA55A",
"w. c #DEAA46",
"e. c #C6A771",
"r. c #D3BE63",
"t. c #EB8A46",
"y. c #E08E52",
"u. c #E79254",
"i. c #F99E50",
"p. c #E7BD4D",
"a. c #F5A259",
"s. c #F2BA55",
"d. c #E8A646",
"f. c #ECB16B",
"g. c #EBB275",
"h. c #F8AF6B",
"j. c #FBBA66",
"k. c #F1B071",
"l. c #EDCD3E",
"z. c #DCC75B",
"x. c #EFC941",
"c. c #EECB55",
"v. c #F1CE49",
"b. c #F2D04C",
"n. c #F3D658",
"m. c #F3D455",
"M. c #F9C95D",
"N. c #FFCD60",
"B. c #FECD77",
"V. c #E7D06E",
"C. c #FDE548",
"Z. c #F7F241",
"A. c #FFFF58",
"S. c #F7F75A",
"D. c #F7E664",
"F. c #FAF069",
"G. c #F9F677",
"H. c #9A9681",
"J. c #9D9983",
"K. c #A09C86",
"L. c #A19D89",
"P. c #A5A18C",
"I. c #A8A38D",
"U. c #AEA98C",
"Y. c #AAA592",
"T. c #ABA895",
"R. c #AEAA99",
"E. c #A7A492",
"W. c #B0AA8D",
"Q. c #B2AD91",
"!. c #B1AD9B",
"~. c #B6B195",
"^. c #B4B09A",
"/. c #BAB49A",
"(. c #BDB89E",
"). c #B1AFA1",
"_. c #B4B2A3",
"`. c #B9B5A3",
"'. c #B9B6A9",
"]. c #BCB8A4",
"[. c #BCB9AB",
"{. c #B7B5A8",
"}. c #BFBDB1",
"|. c #C39E93",
" X c #CD9A85",
".X c #C2BD9E",
"XX c #CCAAA0",
"oX c #C1BDA4",
"OX c #C2BDAB",
"+X c #C1BEB1",
"@X c #CEBFB5",
"#X c #D1ADA3",
"$X c #EBAE9B",
"%X c #E0B995",
"&X c #C5C0A5",
"*X c #C4C1AD",
"=X c #C9C5AD",
"-X c #CFCBAF",
";X c #C3C0B2",
":X c #C8C5B2",
">X c #C8C6BC",
",X c #CCC9B5",
"<X c #CDCABB",
"1X c #C5C4BA",
"2X c #D8C3A6",
"3X c #D2CDB3",
"4X c #D1CEBA",
"5X c #D5C5B6",
"6X c #D5D1B6",
"7X c #DAD5BB",
"8X c #DDD9BD",
"9X c #D9D1B9",
"0X c #E5C197",
"qX c #F6C183",
"wX c #F1CD9C",
"eX c #FBD284",
"rX c #E7D485",
"tX c #E7C8AA",
"yX c #ECCAB6",
"uX c #F2CDBE",
"iX c #F8D3A5",
"pX c #F9F29F",
"aX c #EAE2BC",
"sX c #F7F5A7",
"dX c #CCCAC1",
"fX c #D7CEC6",
"gX c #D5D2C1",
"hX c #D5D3CC",
"jX c #D9D5C3",
"kX c #DAD6CA",
"lX c #DEDAC3",
"zX c #DDDACA",
"xX c #D7D6D0",
"cX c #D8D7D0",
"vX c #DAD9D2",
"bX c #DFDFD9",
"nX c #E0DBC3",
"mX c #E2DDCB",
"MX c #E0D7C1",
"NX c #E2DFD1",
"BX c #E0DFD9",
"VX c #E4E1CC",
"CX c #ECE2CB",
"ZX c #EAE1C4",
"AX c #E5E3D2",
"SX c #E9E5D3",
"DX c #E9E7D8",
"FX c #EBE8D6",
"GX c #ECE9D9",
"HX c #E2E1DC",
"JX c #F1ECC6",
"KX c #F1EED8",
"LX c #EEECE0",
"PX c #F0EDE1",
"IX c #F2F0E5",
"UX c #F4F3E8",
/* pixels */
"FXFXFXFXFX,X>...R O.O.@.O.O.O.O.O.O.O.O.O.O.O.k >.-XFXFXGXFXGXFXGX",
"FXFXFX=X>.%..X7XMX8X8X8X8X8XMXlX2X7X8XMX8X7X7X6X(.>.o.(.FXGXGXFXFX",
"FXFX/.X.&XnX8X8XmXCXNXBXSXNXmX|.0.2XSXSXSXVXlX7X-X=X/.O.W.FXFXGXFX",
"GX/.O.6X8XnXFXIXUXUXUXUXKX#X| 4.h.;.@XIXUXUXIXLXVX6X&X(.$.U.GXFXKX",
"=X..6X8XZXIXUXUXUXIXLXvX8.} u.j.6.6 h AXIXIXPXLXGXNX<XoX(.o.~.FXFX",
">..X8XVXUXIXIXPXUXIXXX~ } u.^ a.! - 4 wXKXLXPXLXDXNXkX=X].R...zXFX",
"#.7XnXIXUXLXPXLX5X( ! y.k.V g h.U ; b M.JXLXPXLXDXbXcX4XOX_.&.~.FX",
"/.9XFXUXLXLXLX|.W } i.B.7.e g j.A 2 I pXKXGXGXGXDXzXcX<X*X{.T...KX",
"6X7XLXUXGXfX,.H  .6.^ g.:.4 g C.m z 0XGXGXPXLXGXAXNXkX<X*X{.).X.3X",
"6XnXUXLX,.Z G t.9.s N qX^ , d Z.2. XGXPXPXLXGXGXAXzXkX4X}.}.).$.oX",
"9XVXIXPXL ) { i.Q , E eXD 2 Y eXKXGXPXGXGXGXGXGXDXNXhX<X;X}.{.&./.",
"6XVXIXPXiXQ e t.Q > E F.M S KXGXGXGXGXGXGXPXGXDXAXzXgX<X;X}.[.&.Q.",
"6XSXLXIXKX+.t t.S < D A.Q NXGXLXPXGXGXPXPXGXGXFXAXzXgX<X;X;X[.J.Q.",
"6XSXLXLXDXmX4.d.B i q.sXSXGXGXGXGXGXGXGXGXGXGXDXAXzXgX<X*X}.{.J.Q.",
"6XSXGXGXGXGXCXc.P 8.mXGXGXGXGXGXGXDXGXGXFXGXFXFXAXzXgX<X}.;X[.J.Q.",
"6XVXLXPXGXGXKXaX8.tXFXGX%X$XiXGXDXtXZXJXKXCXyX7XVXcX4X,XOX}.{.J.Q.",
"3XAXLXLXGXFXFXSXh a S.z.J c d.G.5.v _ F.D._ K 6.MXjX4X:X[.+X{.J.Q.",
"3XAXGXGXGXFXFXCXq 3.rXq.p U F.2.u z p.c.C r C V.nXjX4X;X'.[.{.&.Q.",
"=XmXGXDXFXFXFXCX/ e.r.y P M.2., e 5.s.p % 4 <.a.7X4X,XOX`.[._.J.Q.",
"=XzXSXSXSXSXSXmXN g 5 u ) ` r : x ` x $ X w l W 7X4X;X].!.'.).&.Q.",
"&XjXVXVXVXVXSXjX6 > 2 2 : % % : : ; & O       3 OX=XOX^.R.{.).&.Q.",
".X4XkXzXmXmXzX4Xt p P F B B B B b b d y 5 *   = ].OX`.!.T.'._.J.Q.",
"(.:XgX4X7XjXMX,X4 D D.n.m.n.m.b.b.v.v.x.l.d O 1 ]./.!.Y.R.{._.&./.",
"^.].,X<X,X4X4XoX% M 1.] ] [ [ [ [ ] ] ' ' y X 1 !.!.Y.L.).}.[.$.OX",
"Y.^.*X*X*X*X=X/.& < < - * * $ $ * * $ $ $ @   = U.E.L.L.+X+X+XR FX",
"&.Y.`.`.`.`.].T.= = = = + + + + + @ o o o . . # L.K.J.).>X>X'.+.GX",
"..E.T._.!.T.!.I.k q q 0 0 0 9 9 9 9 9 8 8 7 7 j K.J.E.dXdXfX$.].FX",
"U.$.E.).!.Y.I.I.I.I.I.I.I.I.I.I.I.P.P.P.L.K.J.J.&.T.dXcXcX[.@.FXGX",
"zX%.L.).[._.E.L.L.L.J.J.J.L.J.J.J.J.J.J.H.H.&.L.[.hXbXvX>XX.&XDXFX",
"FX=X%.P.[.1X>X1X[._.).!.R.R.R.R.R.R.!.)._.[.>XvXHXHXbX1XX./.DXGXFX",
"FXFX,X>.$.'.dXdXhXhXhXvXvXvXvXcXcXvXvXvXvXbXbXHXHXcXI.O.(.GXGXFXGX",
"FXFXFXFX~.X.-.R.[.dXhXhXxXxXcXxXxXxXxXxXcXhX;X'.P.R U.lXFXFXFXGXFX",
"FXGXFXGXFXKXoX>.@...R R R R R R R R R R R R O.=.~.mXFXFXGXFXGXFXGX"
};
