/* XPM */
const char *selection_xpm[] = {
/* columns rows colors chars-per-pixel */
"33 33 256 2",
"   c #1C0A01",
".  c #240F00",
"X  c #251100",
"o  c #2C1300",
"O  c #25150A",
"+  c #311800",
"@  c #3C1C00",
"#  c #311501",
"$  c #39250D",
"%  c #392A1B",
"&  c #362414",
"*  c #3A3129",
"=  c #401C00",
"-  c #4A1D01",
";  c #4D1500",
":  c #462705",
">  c #46321C",
",  c #512300",
"<  c #562E00",
"1  c #5F2C01",
"2  c #55330A",
"3  c #423C36",
"4  c #513720",
"5  c #463726",
"6  c #6D2E01",
"7  c #6C3102",
"8  c #623603",
"9  c #7B2701",
"0  c #752A03",
"q  c #742E11",
"w  c #713A02",
"e  c #773403",
"r  c #76371C",
"t  c #574634",
"y  c #4B443B",
"u  c #784505",
"i  c #774A15",
"p  c #655339",
"a  c #7F4831",
"s  c #7D573E",
"d  c #6F4429",
"f  c #554C41",
"g  c #6C5E4B",
"h  c #615C4E",
"j  c #775844",
"k  c #6F6551",
"l  c #70634F",
"z  c #7B6E53",
"x  c #7C725D",
"c  c #8A2C03",
"v  c #883A01",
"b  c #973A06",
"n  c #A63A03",
"m  c #8C4501",
"M  c #984906",
"N  c #965704",
"B  c #8D593B",
"V  c #9C6006",
"C  c #966024",
"Z  c #AA4A0A",
"A  c #AD4A11",
"S  c #A35206",
"D  c #BB4D08",
"F  c #B55509",
"G  c #BB570D",
"H  c #A26709",
"J  c #AE7208",
"K  c #AD7415",
"L  c #B16C0E",
"P  c #B86B10",
"I  c #B47C15",
"U  c #B97321",
"Y  c #886541",
"T  c #8B6C55",
"R  c #817A54",
"E  c #877A5B",
"W  c #837964",
"Q  c #887C65",
"!  c #867F73",
"~  c #A87A4F",
"^  c #A07859",
"/  c #C66713",
"(  c #C77617",
")  c #D47D1C",
"_  c #CB6722",
"`  c #CD7722",
"'  c #D57D21",
"]  c #BE891C",
"[  c #B6813D",
"{  c #89825E",
"}  c #87815C",
"|  c #8B8462",
" . c #8F8A6E",
".. c #948D6C",
"X. c #978668",
"o. c #938C75",
"O. c #96906E",
"+. c #959075",
"@. c #97937D",
"#. c #999372",
"$. c #9A957D",
"%. c #9E9877",
"&. c #9E9979",
"*. c #A8865B",
"=. c #A18367",
"-. c #A68D70",
";. c #A49C7D",
":. c #B89569",
">. c #C98619",
",. c #CA951D",
"<. c #D18B08",
"1. c #D4831D",
"2. c #D59309",
"3. c #D59518",
"4. c #C08323",
"5. c #C99626",
"6. c #C8903B",
"7. c #D78A27",
"8. c #D49522",
"9. c #D49B22",
"0. c #DC932C",
"q. c #DA9D23",
"w. c #DB9D2B",
"e. c #DC9732",
"r. c #DDA126",
"t. c #DEA32B",
"y. c #DFA336",
"u. c #E0832B",
"i. c #E1942C",
"p. c #E19B2A",
"a. c #E3993B",
"s. c #E0A31E",
"d. c #E2A32F",
"f. c #E1AA2D",
"g. c #E4A334",
"h. c #E2A33A",
"j. c #EAAB3C",
"k. c #E3A935",
"l. c #E4B03E",
"z. c #DE9C42",
"x. c #DA9B5E",
"c. c #D88B45",
"v. c #D09D66",
"b. c #DFAB56",
"n. c #CCB079",
"m. c #DFA963",
"M. c #E4AB44",
"N. c #EBAD43",
"B. c #E6A645",
"V. c #E7A856",
"C. c #E6B344",
"Z. c #ECB143",
"A. c #EBB44A",
"S. c #E6B74B",
"D. c #EEB855",
"F. c #EAB75A",
"G. c #F3A84D",
"H. c #F0B74E",
"J. c #F1BE5E",
"K. c #F1B855",
"L. c #ECBB62",
"P. c #E6B66B",
"I. c #ECBA74",
"U. c #E4BD74",
"Y. c #F4B863",
"T. c #EDC468",
"R. c #EFCA73",
"E. c #F0C363",
"W. c #F3C56B",
"Q. c #F3C86F",
"!. c #F3CB7B",
"~. c #F2C575",
"^. c #F2D07E",
"/. c #9A9680",
"(. c #9D9984",
"). c #9E9B8A",
"_. c #9C9789",
"`. c #A09B85",
"'. c #A29E8A",
"]. c #AC9B82",
"[. c #A5A18C",
"{. c #A9A38C",
"}. c #AEA98C",
"|. c #A5A292",
" X c #AAA591",
".X c #ADA994",
"XX c #AEAA9B",
"oX c #B3A88A",
"OX c #B2AC95",
"+X c #B1AD9C",
"@X c #B6B195",
"#X c #B5B19C",
"$X c #B9B49B",
"%X c #BDB89E",
"&X c #B1AEA0",
"*X c #B5B2A3",
"=X c #B9B6A2",
"-X c #B9B6A9",
";X c #BCB8A4",
":X c #BDBAAA",
">X c #C3B898",
",X c #C1BDA3",
"<X c #C3BCAB",
"1X c #C1BEB1",
"2X c #DEC28B",
"3X c #C5C2AC",
"4X c #CAC5AE",
"5X c #C6C1A3",
"6X c #C6C4B9",
"7X c #CAC5B1",
"8X c #C8C6BC",
"9X c #CDCAB3",
"0X c #C9C8BE",
"qX c #C3C1B5",
"wX c #D2C7AC",
"eX c #D1CDB5",
"rX c #D2CEB9",
"tX c #D2C7B2",
"yX c #DAD5BC",
"uX c #DDD8BE",
"iX c #D8D1B8",
"pX c #EACA97",
"aX c #F4CA81",
"sX c #F3CA8A",
"dX c #F3D083",
"fX c #F4D28C",
"gX c #F5DA99",
"hX c #EBD7AE",
"jX c #EFDEBD",
"kX c #F1DAB6",
"lX c #F3D6AC",
"zX c #CCCAC1",
"xX c #D0CEC6",
"cX c #D3D2CB",
"vX c #D9D5C1",
"bX c #DEDAC1",
"nX c #D7D4C7",
"mX c #DBDAD4",
"MX c #DEDDD8",
"NX c #E0DCC3",
"BX c #E1DDCB",
"VX c #E0DED9",
"CX c #E6E2CE",
"ZX c #ECE3CC",
"AX c #EDE1C5",
"SX c #EAE5D3",
"DX c #EBE8D7",
"FX c #ECE9D9",
"GX c #E5E2D7",
"HX c #F1E2C7",
"JX c #F1E9D3",
"KX c #F1ECDD",
"LX c #EFEDE1",
"PX c #F0EEE1",
"IX c #F2F0E4",
"UX c #F4F2E8",
/* pixels */
"DXDXDXDXFXDXeX;.} x O.O...O.O.O.O.O...O.X.......R %.,XDXDXDXDXDXDX",
"DXDXDXDX9X&.#.,XrXjXNXNXNXuXNXNXuXNXNXuXNXNXyXiXeX#X&.X.%XDXDXDXDX",
"DXFXDX@X| 5XjXbXBXGXFXFXFXFXFXFXFXFXFXFXKXDXJXBXvX9X3X#X..}.FXDXDX",
"DXDX$XO.iXbXCXLXUXUXUXUXUXUXUXUXUXUXUXUXUXUXIXIXFXBXwX>XoX..}.FXDX",
"FX4X{ yXbXFXUXUXIXIXIXIXIXIXIXIXUXPXUXIXPXKXIXkXsXx.x.v.:. X| @XDX",
"FX&.5XbXFXUXIXIXPXPXPXPXPXPXPXPXPXPXJXJXlXsXK.G.V.V.m.x.~ oX.XE BX",
"9X#.bXSXIXUXIXLXPXPXPXPXPXPXPXJXJXlXI.a.B.K.Y.I.I.I.P.6.B '.XXo.@X",
"&.5XbXLXUXPXLXLXPXFXKXKXSXjXpXI.F.A.V.Y.~.aXfX!.I.Y.x./ B {.XX|.| ",
"} uXCXUXIXLXFXFXPXJXHXpXP.z.z.Y.~.aXaX!.^.!.W.J.D.M.z.A j &XXX|.| ",
"z NXSXUXIXKXLXFXpXF.a.i.M.L.!.fXsXaXsX^.Q.E.K.H.Z.B.u.b T &X&X|. .",
"O.NXFXUXIXKXKXiXN S / 7.M.L.^.fXsXfXfX^.W.J.H.Z.N.B.' c X.*X&X|.+.",
"O.NXFXUXPXKXFXtX< , 7 S ` y.T.R.fXgXgX^.W.K.H.j.j.e./ 0 ].-X*X|.$.",
"#.NXFXUXFXLXFX3X@ + : 8 U B.Q.^.fXgXdXE.K.H.j.j.a.i.D r {.*X-X|.(.",
"#.NXFXPXPXFXFXbX: o : N M.R.dXdXdX!.E.H.Z.j.j.j.g.7.n B =X*X-X|.$.",
"#.bXFXPXFXFXFXFXqXX.V k.T.^.^.R.T.F.A.Z.j.j.g.p.p.' c ^ <X*X*X|.$.",
"O.bXFXUXPXFXFXFXAXU.r.S.T.T.F.F.S.A.N.g.i.p.p.p.7.( 9 -.;X#X-X|.$.",
"O.bXFXIXFXDXDXZXM.s.C.S.S.S.C.C.M.e.e.7./ / ) 1.1.G q oX-X+X&X|.$.",
"#.vXFXFXFXDXHXr.3.f.l.C.y.y.y.y.e.7.` G w e D / / b a oX*XOX&X|.$.",
"O.yXDXFXFXhX3.2.3.f.t.t.t.t.t.0.7.P A m 1 @ - e Z c s ;X+XXX&X'.$.",
"#.rXGXDXpX<.3.3.3.r.r.r.9.9.1.( G M 7 < : + o + - ; T =X+X|.&X'.$.",
"..eXuX2X>.3.3.3.r.r.9.9.3.>.( F v , @ # @ O + + o # X.#X.X'.&X).(.",
"..4Xn.6.5.,.5.9.r.,.8.>.>.P Z e - .   t `.l $ o o 4 ;..X{.|.&X).(.",
"..>X*.[ ] ,.5.5.5.5.>.I P S 0 = o   g vXvXrX Xp # p OX X).XX&X|.&.",
"z @XE Y C K ] 5.5.>.I P S 6 @ . O W rXeX7X7X3X<Xz o.{.'.(.-X*X&X#.",
"{ }.x l d i V J ] K H N e @ . & Q 4X4X3X3X;X=X#X.X{.'._._.8X=X1XR ",
"{.#.| g t % 2 u N N N 7 @   % @.;X;X;X$X$X#X.X X'.`././.=XzX1X1X..",
"yXx `.x f * % $ 2 u w $   5 $.OXOXXX.X.X X{.'.'.`./.@. XmXzXmX@.%X",
"FX}.+.(.x y * % % : : O t '.{.{.{.{.[.[.[.(.(./.@.@.&XmXmXMX1XO.FX",
"FXbX%./.|.@.h * * * % k (.).(.(.(.(.(.(.(./././.|.8XVXVXVXcX| ,XDX",
"FXFX3X%.@.'.|.).x  ._.&X+XXXXXXXXXXXXX#X*X:X:XxXmXMXMXGXzX| $XFXDX",
"FXDXDX7X&. .|.XX&X:X6X8X0XzXzXzXzXzXzXzXzXzXzXxXcXMXVX+X..%XDXDXFX",
"DXFXFXFXFX@X| o.|.&X1X8X8X8X8XzX8X8XzXzXzXxXcX6X1X{.R oXvXFXDXDXDX",
"FXDXDXFXDXFXDX;X;.O.} R R R R R R R R R R x R O.%.@XCXDXDXFXDXDXFX"
};
