/* XPM */
const char *send_to_back_xpm[] = {
/* columns rows colors chars-per-pixel */
"33 33 256 2",
"   c #4C0101",
".  c #540101",
"X  c #5A0808",
"o  c #5C1110",
"O  c #641313",
"+  c #710D0D",
"@  c #7C1B1B",
"#  c #650606",
"$  c #6E302D",
"%  c #6C2524",
"&  c #862317",
"*  c #943C13",
"=  c #86331E",
"-  c #B23D11",
";  c #B83A0B",
":  c #87401C",
">  c #975315",
",  c #974C18",
"<  c #8C4F20",
"1  c #965435",
"2  c #975422",
"3  c #98622A",
"4  c #9C7439",
"5  c #A74917",
"6  c #B3400A",
"7  c #B35B17",
"8  c #B15E20",
"9  c #A65B2D",
"0  c #A7651D",
"q  c #A66A22",
"w  c #AC7B22",
"e  c #AA7634",
"r  c #B86928",
"t  c #B96839",
"y  c #B47B28",
"u  c #BD7E36",
"i  c #874B49",
"p  c #8E514E",
"a  c #8C5250",
"s  c #965A58",
"d  c #9A4544",
"f  c #826F44",
"g  c #8B7B4D",
"h  c #817A54",
"j  c #917F55",
"k  c #986F53",
"l  c #AB5B5B",
"z  c #A34D4D",
"x  c #A27A5B",
"c  c #A76A43",
"v  c #B77A75",
"b  c #AB7068",
"n  c #C1430E",
"m  c #CC5A1C",
"M  c #D35917",
"N  c #CC4C13",
"B  c #CD5B26",
"V  c #DC681D",
"C  c #C46725",
"Z  c #C26A35",
"A  c #CA7629",
"S  c #C97834",
"D  c #DA6724",
"F  c #D86D31",
"G  c #D47D28",
"H  c #D87536",
"J  c #E55815",
"K  c #E26019",
"L  c #E16B26",
"P  c #E47323",
"I  c #E8732C",
"U  c #E97A32",
"Y  c #C47947",
"T  c #B5833B",
"R  c #A8852A",
"E  c #8A845B",
"W  c #9D8043",
"Q  c #94855D",
"!  c #948751",
"~  c #8B8460",
"^  c #948D6A",
"/  c #958863",
"(  c #928D71",
")  c #97906E",
"_  c #9A9577",
"`  c #B68A46",
"'  c #B79948",
"]  c #A99A58",
"[  c #A99768",
"{  c #A29D7D",
"}  c #B98867",
"|  c #B78E7B",
" . c #B8996A",
".. c #B79979",
"X. c #A7A955",
"o. c #AFB156",
"O. c #B4A957",
"+. c #B8B65A",
"@. c #AFAF75",
"#. c #B7A67D",
"$. c #BCBC77",
"%. c #B2B467",
"&. c #BFC15E",
"*. c #DE892E",
"=. c #D88A35",
"-. c #DF9138",
";. c #C49039",
":. c #D6A43C",
">. c #E48938",
",. c #E89639",
"<. c #F08D3E",
"1. c #EB892F",
"2. c #C88244",
"3. c #C79946",
"4. c #C69758",
"5. c #D79247",
"6. c #C59972",
"7. c #CFA350",
"8. c #DFA847",
"9. c #D9AB58",
"0. c #DCB059",
"q. c #CBB75A",
"w. c #C5A672",
"e. c #C1B07E",
"r. c #D1AF7E",
"t. c #D6B17A",
"y. c #C8BA64",
"u. c #ED8B43",
"i. c #E39944",
"p. c #EE9855",
"a. c #F08E42",
"s. c #F19B48",
"d. c #F19B55",
"f. c #EDA744",
"g. c #EEA750",
"h. c #E8B952",
"j. c #F2AA4A",
"k. c #F3A35C",
"l. c #F2A956",
"z. c #F0B94F",
"x. c #F2B45C",
"c. c #F3B95C",
"v. c #F2B355",
"b. c #E4B248",
"n. c #E6B77A",
"m. c #F5AC65",
"M. c #F6B76A",
"N. c #F6B877",
"B. c #E4B36B",
"V. c #C8C864",
"C. c #D8C66E",
"Z. c #D5C269",
"A. c #D5D77C",
"S. c #C8C879",
"D. c #F1C657",
"F. c #EFC57C",
"G. c #F4C366",
"H. c #F6CA7D",
"J. c #F4C675",
"K. c #F6D578",
"L. c #F7D36B",
"P. c #E3E17F",
"I. c #9D9982",
"U. c #AC8A80",
"Y. c #A39A87",
"T. c #B18F87",
"R. c #A6A28D",
"E. c #ABA78D",
"W. c #AEAB99",
"Q. c #A9A593",
"!. c #B5AA88",
"~. c #B3AC91",
"^. c #B1AD9A",
"/. c #BAAF9D",
"(. c #BBB78A",
"). c #B6B294",
"_. c #B4B199",
"`. c #B9B39A",
"'. c #BAB598",
"]. c #B1AFA1",
"[. c #BBB9AC",
"{. c #B9B5A3",
"}. c #CB9A98",
"|. c #C4AB80",
" X c #C7A69B",
".X c #C6B688",
"XX c #C2B898",
"oX c #DCB885",
"OX c #D7BB92",
"+X c #C3BCA2",
"@X c #DCBFB7",
"#X c #E7BB84",
"$X c #DDC38E",
"%X c #D8C796",
"&X c #DBDD88",
"*X c #C9C5AD",
"=X c #C7C3AA",
"-X c #C8C5B5",
";X c #D1C6AB",
":X c #D3CBB5",
">X c #D5D0B6",
",X c #DED9BD",
"<X c #D9D3BA",
"1X c #E5CA92",
"2X c #E0DF81",
"3X c #EFD191",
"4X c #F5CD84",
"5X c #F7CD90",
"6X c #F6D588",
"7X c #F8D59A",
"8X c #F8DC9C",
"9X c #F6D796",
"0X c #EBC38D",
"qX c #E0D1AF",
"wX c #F8DBA3",
"eX c #EBD9B4",
"rX c #EAE585",
"tX c #E6E09F",
"yX c #EEF28A",
"uX c #F8E697",
"iX c #F8E39B",
"pX c #F3F98E",
"aX c #F6FB93",
"sX c #F9F69B",
"dX c #F2E289",
"fX c #F7E5A4",
"gX c #F3E4B8",
"hX c #F9F3A9",
"jX c #F8F3B6",
"kX c #CBC9C0",
"lX c #D5D4CD",
"zX c #DAD3C4",
"xX c #DCD9C5",
"cX c #DBD9CA",
"vX c #D6D3C5",
"bX c #D7D6D0",
"nX c #D8D7D0",
"mX c #D9D9D0",
"MX c #E0DBC2",
"NX c #E2DDCA",
"BX c #E4D3CA",
"VX c #E7DBD2",
"CX c #E4E1CC",
"ZX c #EEEDCB",
"AX c #E6E3D1",
"SX c #E8E5D3",
"DX c #EBE8D5",
"FX c #ECE9D9",
"GX c #E8E2D9",
"HX c #F4EAC4",
"JX c #F3EBD8",
"KX c #FAFDC0",
"LX c #F7F6D8",
"PX c #F0EEE1",
"IX c #F2F0E5",
"UX c #F4F3E8",
/* pixels */
"FXFXFXFXFX>X{ E h ) ^ ^ ^ ^ ^ ^ / / / / / j / f _ +XFXDXFXFXFXDXFX",
"FXDXFX*X_ ) +X<X,X,X,X,X,X,X,XqX#X#XoXt.#XOXOXOX .k j `.FXDXFXFXFX",
"FXDX).~ =X,X,X,XNXCXSXSXSXSXeX0X#Xn.n.n.n.n.n.t.oX.X#.Q E.SXFXDXDX",
"DX`.^ >X,XxXFXIXUXUXIXUXUXjXwX9X4X4XH.4X6X5X3X3X1XoX.X(.! #.FXFXFX",
"*X~ >XMXCXIXPXIXPXUXPXIXjXhXhXhXhXhXhXhXhXhXsXfXiXtX%XXX).! ).DXFX",
"{ XX,XNXIXBX}.BXPXPXPXLXKXjXfX8XwXwXwX8X8X8X9X5X3X1X1X.X!.!.! MXDX",
") <XMXPXJXv @ p PXPXPXLXJXm.a.a.<.<.U U I I I L F F H Y } ..^ ~.FX",
"'.<XFXUXVXl + s PXJXPXHX8XM.c.c.x.M.v.v.v.l.j.g.f.,.5.4.4...Q.E ZX",
">X,XPXIXVXl + s FXFXPXhXjXhX7XwXiXfXfXfXwXfXwX7X1X1X#Xr.w.|.^.! &X",
">XMXUXPXVXd # a FXPXPXFXHX5Xk.k.m.k.k.l.d.p.u.U L F B 8 t } Q.( +X",
"<XCXPXPXVXl # i FXPXFXZX6XK.L.G.M.c.M.c.c.z.f.,.*.*.A ;.` 6./._ ).",
">XAXIXPXVXl # a FXFXFXHXgX7X4X7X9XiXiXiXiX8X8X5XN.n.B.t.w.XX{._ ~.",
">XSXIXPXVXz # i :XVXPXPXHXn.j.l.l.d.d.p.s.u.u.U D M B B Z 6./.Y.~.",
">XSXT.b d @ . O l O k gX4Xv.c.x.x.c.c.c.v.j.f.,.i.-.=.3.4.e.{._ ~.",
">XSXzXi X X . . . .  XDXgXfX7X7X9XuXuXuXuX7X4X4XF.n.0.9.4.|.{.Y.~.",
">XVXPXBX%       o BXFXFXFXwXM.m.k.m.N.m.m.d.p.u.>.U H S Y 6./._ ~.",
":XAXPXFXzXX   X | FXDXDXgXM.j.f.,.,.1.I P P K V M M C r r 6./._ ~.",
":XAXFXFXSX| X $ VXFXDXHX6XL.K.K.D.D.D.D.D.D.D.z.b.:.:.;.' e.^.I.~.",
"*XCXFXFXGXCX% | SXGXDXjXsXsXaXaXaXaXaXaXpXpXpXyXP.P.A.S.S.(.)._ ~.",
"*XcXGXVXDXDXSXDXSXSXDXDXSXZX9XM.J.H.K.K.dXdXrXrXP.P.A.S.$.XX`._ ~.",
"=X<XmXAXAXAXAXCXSXAXSXAXAXAXd.K J J J J K K K V C A S u ' #.).I.(.",
"+X>XcXcXcXcXCXCXNXCXCXNXAX#X<.P P P P L V V M N n ; - 5 9 | )._ %.",
"'.*X<XvXcXvX<X>X<XxXxXxXxXB.-.*.,.,.i.-.=.G A C C 7 0 9 c ..{._ `.",
"_.[.-X-X-X>XOXZ 2.2.*X<X%Xb.8.b.0.8.9.9.9.9.7.4.3.` ` e  .~.[.( +X",
"Q._.-X[.=X*X*Xw.; 7 8 C 0.Z.C.C.C.C.C.V.Z.y.y.+.O.O.] ] '.'.-Xh DX",
"{ Q.{.{.{.{.{.'.u 5 q R y r ;.q.V.V.V.V.&.y.+.+.o.X.X.@.;X*X[.^ FX",
"h Q.Q.].W.^.).^.!.R > 0 0 w w 0 w e T T o.o.o.o.X.X.@.>X>XvX( {.FX",
"E._ Q.].^.Q.R.R.E.E./ 2 * > 0 q q > * * , 2 3 4 W [ :XxXvX`.Q FXDX",
"cX_ I.].[.].Q.Y.Y.Y.I.I.j 3 = < 3 3 * & @ @ : 1 | @XcXcX-Xg XXFXFX",
"FX*X_ R.[.-X-X-X[.{.].W.^.^.E.%.x x j b } |  X@XvXVXVX=X~ `.DXFXFX",
"DXFX-X{ ( [.kXlXlXlXbXbXmXmXmXmXmXmXBXcXmXcXmXGXmXmXE.^ `.FXFXFXFX",
"DXFXFXFXW.~ ( W.[.kXlXbXbXnXbXbXlXbXbXmXbXbX-X[.Y.h E.zXFXFXDXFXDX",
"FXFXDXFXFXFX+X{ ) E h h h h h h h h h h h h ^ _ ).NXFXFXFXFXDXFXFX"
};
