/* XPM */
const char *square_xpm[] = {
/* columns rows colors chars-per-pixel */
"33 33 142 2",
"   c #3F3603",
".  c #007A3C",
"X  c #00736F",
"o  c #007875",
"O  c #007D7A",
"+  c #776F45",
"@  c #008442",
"#  c #008C49",
"$  c #008F5F",
"%  c #00914D",
"&  c #009752",
"*  c #009A56",
"=  c #009D5B",
"-  c #00817F",
";  c #009563",
":  c #009B6B",
">  c #009F70",
",  c #00A05E",
"<  c #00A374",
"1  c #00A578",
"2  c #00AA7D",
"3  c #008583",
"4  c #008887",
"5  c #008988",
"6  c #00AE93",
"7  c #00A4A3",
"8  c #00AEAE",
"9  c #817A54",
"0  c #857E59",
"q  c #87815C",
"w  c #89825D",
"e  c #8B8462",
"r  c #908967",
"t  c #938D6A",
"y  c #928D71",
"u  c #96906E",
"i  c #98916E",
"p  c #969175",
"a  c #97947E",
"s  c #9B9574",
"d  c #99947D",
"f  c #9E9877",
"g  c #9F9979",
"h  c #A29C7D",
"j  c #C3961D",
"k  c #CB9C1E",
"l  c #CB9D20",
"z  c #D0A01F",
"x  c #D4A421",
"c  c #D6A923",
"v  c #D9A721",
"b  c #DCAA22",
"n  c #DDB026",
"m  c #DEB32B",
"M  c #E0AD24",
"N  c #E2B225",
"B  c #E3B528",
"V  c #E5B92B",
"C  c #E0B731",
"Z  c #E5BB31",
"A  c #E2BD3A",
"S  c #E8BE34",
"D  c #E8BF38",
"F  c #E6C43E",
"G  c #E9C23A",
"H  c #EAC740",
"J  c #9A9681",
"K  c #9C9983",
"L  c #A19C86",
"P  c #A19E89",
"I  c #A5A18D",
"U  c #A9A58D",
"Y  c #AEA98C",
"T  c #A5A291",
"R  c #A9A592",
"E  c #A9A798",
"W  c #ADA994",
"Q  c #ADAA9A",
"!  c #B0AA8D",
"~  c #B1AD95",
"^  c #B1AD9A",
"/  c #B6B195",
"(  c #B4B09B",
")  c #B8B39A",
"_  c #BDB89E",
"`  c #B1AEA0",
"'  c #B5B2A2",
"]  c #B7B4A9",
"[  c #B9B5A2",
"{  c #B9B7A9",
"}  c #BEBAA5",
"|  c #BDBAAB",
" . c #BDBBB1",
".. c #C1BC9E",
"X. c #C1BCA3",
"o. c #C1BDAB",
"O. c #C1BEB2",
"+. c #C5C0A3",
"@. c #C5C1AC",
"#. c #CAC5AC",
"$. c #C3C0B5",
"%. c #C5C3B9",
"&. c #CAC6B1",
"*. c #C9C7BD",
"=. c #CBC8B5",
"-. c #CCC9BC",
";. c #D0CCAF",
":. c #D1CDB3",
">. c #D2CEB9",
",. c #D6D2B6",
"<. c #D4D0BC",
"1. c #D9D5B7",
"2. c #DAD5BA",
"3. c #DDD8BD",
"4. c #CBCAC1",
"5. c #D0CEC4",
"6. c #D1CFC8",
"7. c #D6D3C2",
"8. c #D4D3CB",
"9. c #D8D4C6",
"0. c #DCD9C3",
"q. c #DDDBC9",
"w. c #D9D7D1",
"e. c #DCDAD3",
"r. c #DEDDD8",
"t. c #E1DCC3",
"y. c #E1DECC",
"u. c #E0DDD0",
"i. c #E0DFDA",
"p. c #E5E1CC",
"a. c #E6E3D2",
"s. c #E4E2DA",
"d. c #E8E5D3",
"f. c #EBE8D6",
"g. c #EDEBDC",
"h. c #F0EDDF",
"j. c #EEECE0",
"k. c #F0EEE0",
"l. c #F2F0E5",
"z. c #F4F2E8",
"x. c gray100",
"c. c None",
/* pixels */
"c.c.c.c.c.c.  h q 9 t t t t t t t t t t t t r r 9 f X.c.c.c.c.c.c.",
"c.c.c.c.  g i ..2.3.3.3.3.3.3.3.3.2.3.2.<.,.:.#.X.Y p r _ c.c.c.c.",
"c.c.c./ w +.t.3.3.y.p.d.d.f.d.f.d.d.d.d.a.a.t.<.#._ ( U r Y c.c.c.",
"c.c.) t 1.3.t.f.z.z.z.z.l.z.z.l.z.z.z.z.k.l.j.s.q.7.} ( E t Y c.c.",
"c.  e ,.3.p.l.l.z.z.l.z.k.k.l.l.l.l.k.z.k.k.g.s.e.9.*.} Q E e / c.",
"c.  +.3.p.l.l.l.k.k.h.k.k.h.h.l.h.h.k.k.k.k.g.s.e.9.-.O.' Q T q   ",
"  + 3.t.l.l.l.l.h.h.h.h.k.l.h.h.h.h.h.h.k.h.g.a.p.9.-.O.' ` ` p ~ ",
"h ..3.f.l.h.l.g.h.h.h.h.h.h.h.l.h.h.h.h.j.j.f.s.y.9.-.| ] ` ] E e ",
"0 2.3.l.k.h.h.h.8 8 8 8 8 8 8 8 8 8 8 8 8 8 8 7 7 9.-.o.[ Q | ] e ",
"9 3.t.l.h.h.h.h.6 H H H G G H H H H H H H H H A 1 9.-.o.[ Q  . .y ",
"i 3.p.z.h.h.h.h.2 G G G G G G G G G D G D D A A , 7.-.o.' Q %.O.d ",
"i 3.d.l.h.h.f.h.2 D D D G S S S D D D D D D A A , 7.-.o.' E %.%.L ",
"i 2.d.l.h.h.h.f.2 D S S D S S S S S S D S D Z C = 9.=.o.' E O.%.K ",
"i 2.d.l.h.h.h.f.1 S S S V S S S S S S S S Z Z C = 9.=.| ^ Q %.%.L ",
"i 2.d.h.h.f.h.h.1 V S S S S V S S V Z Z Z V C C * 5.=.o.^ W O.%.L ",
"i 2.d.h.h.f.f.f.1 V V V V V S V V V V Z Z V V B * <.=.o.^ E O.%.L ",
"t 3.d.h.h.h.f.f.> V V V V V V V V V V V V B B m & <.=.} Q E $.%.L ",
"i 2.d.h.f.f.f.f.> N V V V B V V V V B V V B m n % -.$.[ Q R O.$.L ",
"i 2.p.h.h.f.f.f.: V V N N N B B B B B B B B m c % =.@.[ E I O.%.L ",
"t ,.y.h.f.f.d.f.: N N V N N N N N B N B N n b c # =.} ( R I  .%.L ",
"t ,.t.h.f.f.d.f.; N N N N N N N N N N N M b b x # o.[ W U K %.%.L ",
"t ;.3.f.f.u.d.y.= N M M M N M M M M M M M z z k @ } ( E I K %.*.L ",
"t #.2.u.y.y.y.y.$ M b b b z b b v b v z z z z k . ) W U K T *.4.K ",
"9 X.&.y.0.0.0.0.4 4 4 4 5 5 5 5 3 4 4 3 - - O o X Q E K K ' 4.4.y ",
"w ) } 7.<.<.>.<.>.<.<.<.<.<.<.>.,.>.=.=.;.o.} ) ~ U P J J %.8.8.9 ",
"Y L ) @.=.&.&.&.&.;.&.&.&.&.&.#.&.#.#.o.} [ ( W U P J a ^ 8.e. .t ",
"  0 ~ ) o.o.o.o.} X.} o.} } X.X.} [ ) ) ( W U I K K d T 6.r.e.p X.",
"c.Y f ~ ^ ' ) ^ ^ ^ ^ ^ ( ^ ~ ^ ~ ~ W W U I P K J d E 6.i.s. .i c.",
"c.  f L Q Q Q W W R R W R R R R U I I P P K K J P  .8.r.s.4.e   c.",
"c.c.  s J E ' | { ] ^ ^ Q Q Q Q Q Q Q Q Q ^ { %.6.e.r.s.%.e ) c.c.",
"c.c.c.  h t E { O.O.%.-.*.-.-.4.-.4.4.*.4.4.4.6.8.e.8.U r _ c.c.c.",
"c.c.c.c.  ~ e y T ^ O.%.*.%.*.*.*.*.4.%.4.4.4.| ] P 0 Y   c.c.c.c.",
"c.c.c.c.c.c.c.} h u w 9 9 9 9 9 9 9 9 9 9 9 9 t f /   c.c.c.c.c.c."
};
