/* XPM */
const char *subgrid_xpm[] = {
/* columns rows colors chars-per-pixel */
"33 33 256 2",
"   c #68311C",
".  c #70301B",
"X  c #6B3824",
"o  c #773924",
"O  c #6C422F",
"+  c #79432B",
"@  c #7B503B",
"#  c #843A1E",
"$  c #8A3C1F",
"%  c #983619",
"&  c #862A17",
"*  c #853D21",
"=  c #813620",
"-  c #903E22",
";  c #A43F1D",
":  c #A23F20",
">  c #8B4223",
",  c #8B4328",
"<  c #9C4425",
"1  c #9A4E30",
"2  c #965735",
"3  c #925734",
"4  c #8D643D",
"5  c #95603C",
"6  c #9F712E",
"7  c #9C7333",
"8  c #9A763B",
"9  c #A6421F",
"0  c #A24421",
"q  c #A34B24",
"w  c #A54926",
"e  c #A9542B",
"r  c #A85833",
"t  c #B6572A",
"y  c #B45C32",
"u  c #A7673A",
"i  c #A0722E",
"p  c #A47933",
"a  c #A37835",
"s  c #B0652D",
"d  c #B76638",
"f  c #B26D34",
"g  c #8A5946",
"h  c #8D7241",
"j  c #817A54",
"k  c #926849",
"l  c #9A7D54",
"z  c #977763",
"x  c #A66944",
"c  c #A87846",
"v  c #B46A42",
"b  c #B87848",
"n  c #B57E51",
"m  c #AE7B61",
"M  c #CD5A1F",
"N  c #C85B27",
"B  c #D7611A",
"V  c #C96729",
"C  c #C76834",
"Z  c #CA7237",
"A  c #D36A28",
"S  c #DA762D",
"D  c #D67A37",
"F  c #EF6B08",
"G  c #E76813",
"H  c #E3761A",
"J  c #F36D00",
"K  c #F27100",
"L  c #E1742B",
"P  c #E07B37",
"I  c #C57943",
"U  c #A4823C",
"Y  c #88825D",
"T  c #9D8049",
"R  c #9B8254",
"E  c #998159",
"W  c #8B8562",
"Q  c #928C69",
"!  c #9B8667",
"~  c #988A74",
"^  c #96906E",
"/  c #959074",
"(  c #99957C",
")  c #9F9979",
"_  c #9B9575",
"`  c #AC8947",
"'  c #A88B52",
"]  c #AC9255",
"[  c #B18C45",
"{  c #B58A51",
"}  c #B89247",
"|  c #B99851",
" . c #A7866A",
".. c #A38871",
"X. c #AC9467",
"o. c #A5997A",
"O. c #BA8967",
"+. c #B39568",
"@. c #B59F77",
"#. c #B7A57B",
"$. c #C99A3D",
"%. c #DD833C",
"&. c #DD8534",
"*. c #DA903F",
"=. c #D18633",
"-. c #CEA038",
";. c #DBB33C",
":. c #FB8706",
">. c #F88B1A",
",. c #FE981C",
"<. c #EE8B2B",
"1. c #E2843A",
"2. c #E88635",
"3. c #E19D3B",
"4. c #F28822",
"5. c #F08D35",
"6. c #FA9629",
"7. c #F4983C",
"8. c #F59532",
"9. c #E0AE3E",
"0. c #EAB93C",
"q. c #FFA629",
"w. c #F7A43C",
"e. c #F9B437",
"r. c #CE824B",
"t. c #C68547",
"y. c #C68D55",
"u. c #C39B4A",
"i. c #CA9455",
"p. c #D78845",
"a. c #D39044",
"s. c #D49C53",
"d. c #DB9553",
"f. c #C69966",
"g. c #D39E62",
"h. c #CCA948",
"j. c #C9A251",
"k. c #D6A845",
"l. c #D9A858",
"z. c #DBB549",
"x. c #D7B459",
"c. c #CDB74C",
"v. c #C7A764",
"b. c #C6AE79",
"n. c #CEB661",
"m. c #CEB67E",
"M. c #D8AE64",
"N. c #DAB464",
"B. c #D8B677",
"V. c #E38C41",
"C. c #E89746",
"Z. c #EB9E53",
"A. c #F09540",
"S. c #E8A948",
"D. c #E6A752",
"F. c #E7BA46",
"G. c #E5B55C",
"H. c #EDB45A",
"J. c #E6BC5C",
"K. c #F3A844",
"L. c #F1AB59",
"P. c #FBBB4B",
"I. c #FFB650",
"U. c #F4B557",
"Y. c #E4BC66",
"T. c #E3BB74",
"R. c #F2B470",
"E. c #F6B561",
"W. c #DACA5F",
"Q. c #DEC464",
"!. c #DBC273",
"~. c #EEC74C",
"^. c #E9C259",
"/. c #F9C54C",
"(. c #F6C85A",
"). c #FCD959",
"_. c #E9C765",
"`. c #E1C27D",
"'. c #EAC772",
"]. c #EDD46C",
"[. c #E6D67D",
"{. c #F5CB63",
"}. c #FECA66",
"|. c #F8C874",
" X c #FBD462",
".X c #FFD16C",
"XX c #FED964",
"oX c #F6D96B",
"OX c #FCD372",
"+X c #FAD678",
"@X c #EFE276",
"#X c #FDE66A",
"$X c #FBE878",
"%X c #FEF872",
"&X c #9C9880",
"*X c #A08D80",
"=X c #A69A89",
"-X c #ABA58A",
";X c #A9A593",
":X c #AEAA98",
">X c #B8A988",
",X c #B3AD91",
"<X c #BAA598",
"1X c #B6B195",
"2X c #B9B499",
"3X c #BDB89E",
"4X c #BAB289",
"5X c #B1AFA1",
"6X c #B4B1A4",
"7X c #B9B6AA",
"8X c #BBB8AB",
"9X c #BCB4A4",
"0X c #C7B885",
"qX c #D4BC84",
"wX c #C2BDA4",
"eX c #C9BEAA",
"rX c #F4BE83",
"tX c #CEC493",
"yX c #D9C389",
"uX c #D8C895",
"iX c #CAC6AE",
"pX c #C6C0A8",
"aX c #C8C4B6",
"sX c #D8CDBD",
"dX c #D3C9B9",
"fX c #D6D2B7",
"gX c #E1C281",
"hX c #E5CC86",
"jX c #E3CA90",
"kX c #ECD487",
"lX c #EBD995",
"zX c #ECDB9C",
"xX c #E2D39A",
"cX c #F9D784",
"vX c #F0DD95",
"bX c #F0DD9A",
"nX c #FDDA99",
"mX c #FEE382",
"MX c #FEE38B",
"NX c #FEE98B",
"BX c #FEE895",
"VX c #FFE89B",
"CX c #F8E393",
"ZX c #FEEDA1",
"AX c #FEF0A2",
"SX c #CBC9C0",
"DX c #D9CEC0",
"FX c #D6D4CE",
"GX c #DBD5C7",
"HX c #D7D6D0",
"JX c #D8D7D0",
"KX c #DFDFD9",
"LX c #E1DCCB",
"PX c #E3DFD3",
"IX c #ECE9D8",
"UX c #E7E5D9",
/* pixels */
"IXIXIXIXIXfXo.Y j Q l l l l R R l l l E l Q Q j _ wXIXIXIXIXIXIXIX",
"IXIXIXiXo./ @.uXjXgX`.`.`.`.`.`.gXgXgXgXgXgXyXfX2X) Q 3XIXIXIXIXIX",
"IXIX1XY eXxXT.hXzXlXlXlXlXvXvXvXlXbXlXlXbXzXR.B.uXtX2XQ ,XIXIXIXIX",
"IX2XQ fXxXhXH.nXAXVXVXVXVXVXBXVXVXVXZXVXZXZXR.cXzXuX0X9X/ -XIXIXIX",
"iXY uXxXlXcXw.+XNXcXBXMXMXMXcXMXMXBXMXMXBXBXE.R.bXlXyX0X4XQ 1XIXIX",
"o.0XxXlXAX.X6.|.NXmXmXmX$XMXNX$XmX$XNXcXMXNXL.L.CXlXyXtX#.#.Y LXIX",
"U uXjXnXcX.X6.P.OX.X}..XOXOXXX.X.X.XOX+X|.+XL.C.'.'.!.B.b.>X( ,XIX",
"f.B.L.w.,.:.:.,.:.:.6.6.:.6.,.>.>.6.4.4.7.8.4.8.8.H H =.=.+.:XY IX",
"uXB.+X(./.q.:.I./.>.6. X<.7.{.D.H U.H.1.L._.H 5.U.9.a.S.$.{ 6XW fX",
"uXlXMX+X#Xe.K P.#Xw.8.%Xw.C.#XXXS {.#Xp.D.#XD 2.(.~.F.W.h.y.6X/ pX",
"yXkX$X.X#Xe.K 7.P.8.8.(.7.7.U.H.1.L.H.V.Z.H.D 2.(.~.0.z.h.y.7X( 2X",
"yXvX+XXX).e.J 6.<.H 5.C.A %.Z.D A C.D A 1.p.M 1.~.~.9.z.k.y.7X( ,X",
"yXcX+XXX).e.F P.).&.C.$X*.%.oXJ.V H._.Z C.].V L /.0.9.k.$.y.8X&X,X",
"yXkX+XXX).K.G K.XXa.V.oXS.1.(.{.A U.(.&.C. XS L /.0.0.;.-.O.8X&X,X",
"yXkXoX).).F.G 5.S A 2.&.V 1.1.A A 1.Z A p.D N 1.~.F.S.;.u.O.8X&X,X",
"yX+XOX X).S.B C.H.Z p._.V D G.a.t l.s.s r.M.t Z ^.z.z.h.| O.8X&X,X",
"qXkXOX.XoXl.N Z.oXr.I $Xa.Z ]._.t G.].d i.@Xs C J.F.h.h.|  .7X=X,X",
"qXhX|._.].s.N d.N.i.r.Y.i.r.N.l.Z Z.l.I p.Y.Z Z x.l.-.j.]  .6X( ,X",
"qX[.|._.'.s.y I b r b b e I I r t I y t Z d q C x.h.j.j.' ..6X&X,X",
"0XB.'.Y._.y.r g.`.x b kXv v '.j.w l.M.e I Q.< y x.i.u.| ' ..6X( ,X",
"0XB.T.M.Y.| 1 f.[.{ v kX{ d '.N.r s.^.u f ].e y j.u.} ] l ~ 6X&X,X",
"b.m.B.M.N.{ 1 v x r v c r d d y t C y t N f w y u.} ` ' E ~ 6X&X,X",
"@.b.m.v.n.c , v k , r b $ e f q % C e % t s . q } [ c T ! *X6X( 2X",
"@.b.b.v.n.{ , n x.7 r W.f r z.u.- =.h.9 s c.> % [ ` l R o.=X8X~ pX",
".. .m x 2 1 < < < < < < q : 9 q ; ; q ; ; - - # + o O @ =X<XeXj IX",
"&X! z k 3 , o , > > > > # > > * $ $ # * # .   o + X O z <XwX7X~ IX",
"j ;X..+.] 4 o 1 c 8 a a a a a p p p 6 i i 7 . X h h E pXaXaX/ 7XIX",
",X( ;Xo.X.k o 3 a a 8 i 7 7 7 6 i i 6 6 7 7 o o 8 X.pXFXGX7X^ UXIX",
"GX_ &X-X1X..g 5 8 8 8 8 7 7 i i i a 7 6 6 7 + g >XdXGXJXiXW wXIXIX",
"IXiX) ;X8X9X<X0X>X@.+.X. .X.X.X.X.] X.+.@.4X<XeXLXUXKXaXW 1XIXIXIX",
"IXIXaX) *X8XSXeXsXsXsXsXDXDXsXsXDXDXDXDXDXGXGXJXUXFX-XQ 9XIXIXIXIX",
"IXIXIXIX:Xj *X5X8XaXFXFXHXHXHXHXHXHXHXHXFXFXaX8X=Xj -XGXIXIXIXIXIX",
"IXIXIXIXIXIXpXo.^ Y j j j j j j j j j j j j ^ _ 1XLXIXIXIXIXIXIXIX"
};
