/* XPM */
const char *zoomout_xpm[] = {
/* columns rows colors chars-per-pixel */
"33 33 257 2",
"   c black",
".  c #17110C",
"X  c #191917",
"o  c #271901",
"O  c #231D17",
"+  c #340E00",
"@  c #361B04",
"#  c #2A241C",
"$  c #3B2817",
"%  c #3F3603",
"&  c #372E03",
"*  c #2B2822",
"=  c #2A2A29",
"-  c #30302A",
";  c #393834",
":  c #167C78",
">  c #2A7D70",
",  c #327664",
"<  c #4B0E00",
"1  c #4D1E00",
"2  c #471701",
"3  c #4F2000",
"4  c #4D2C0E",
"5  c #522200",
"6  c #512D15",
"7  c #46372A",
"8  c #731E01",
"9  c #612B12",
"0  c #752702",
"q  c #783301",
"w  c #763819",
"e  c #43413B",
"r  c #4C4D34",
"t  c #7D451A",
"y  c #77543D",
"u  c #746F37",
"i  c #534C42",
"p  c #545450",
"a  c #525447",
"s  c #5E7E49",
"d  c #4F7150",
"f  c #635B4F",
"g  c #68655A",
"h  c #746C44",
"j  c #746D49",
"k  c #767145",
"l  c #787046",
"z  c #7A7349",
"x  c #7C775B",
"c  c #6D6641",
"v  c #6C6A63",
"b  c #787569",
"n  c #7E7B70",
"m  c #198969",
"M  c #168371",
"N  c #278477",
"B  c #299768",
"V  c #349574",
"C  c #2F8A67",
"Z  c #3DA574",
"A  c #32AA6B",
"S  c #409B7E",
"D  c #438B78",
"F  c #44A77C",
"G  c #46B277",
"H  c #5CAC66",
"J  c #53B978",
"K  c #46AF68",
"L  c #7E9243",
"P  c #6C9543",
"I  c #679F7E",
"U  c #658D6C",
"Y  c #6EB15E",
"T  c #61A457",
"R  c #67B877",
"E  c #7AB765",
"W  c #66B06B",
"Q  c #55C27E",
"!  c #2E8A80",
"~  c #3C9583",
"^  c #479986",
"/  c #47A281",
"(  c #56A78C",
")  c #59AA91",
"_  c #57B784",
"`  c #4AA591",
"'  c #64B687",
"]  c #68B698",
"[  c #72BE80",
"{  c #72BF9E",
"}  c #6AC38D",
"|  c #6BC890",
" . c #73CA97",
".. c #7BD099",
"X. c #72C485",
"o. c #7CC5A2",
"O. c #8A2100",
"+. c #963A07",
"@. c #884917",
"#. c #964805",
"$. c #9D5705",
"%. c #8F4B0E",
"&. c #8D4F22",
"*. c #84562B",
"=. c #955B26",
"-. c #937031",
";. c #A55A08",
":. c #A05F15",
">. c #AA4F04",
",. c #AB6107",
"<. c #A46F1D",
"1. c #B7670A",
"2. c #BD6A16",
"3. c #B37015",
"4. c #BC720B",
"5. c #A46C31",
"6. c #A77529",
"7. c #AE7127",
"8. c #847B59",
"9. c #94754A",
"0. c #8B7D65",
"q. c #C06B0B",
"w. c #C76D14",
"e. c #C97415",
"r. c #D06F16",
"t. c #D37C01",
"y. c #CC750C",
"u. c #9F9131",
"i. c #B7871E",
"p. c #BE8223",
"a. c #AB8728",
"s. c #ADA637",
"d. c #899A41",
"f. c #9D8F5D",
"g. c #9B9151",
"h. c #8D876B",
"j. c #898573",
"k. c #8D8A7A",
"l. c #8D8977",
"z. c #918D77",
"x. c #96927B",
"c. c #98937C",
"v. c #85B55B",
"b. c #8BA76D",
"n. c #8DB06B",
"m. c #A38344",
"M. c #A09E5D",
"N. c #BD964E",
"B. c #AA9562",
"V. c #A3926B",
"C. c #A4AF4D",
"Z. c #B0AB4F",
"A. c #A0B449",
"S. c #B9A36A",
"D. c #D9870E",
"F. c #D48716",
"G. c #DE910F",
"H. c #D79417",
"J. c #C98617",
"K. c #C38822",
"L. c #CF9227",
"P. c #C59639",
"I. c #D39A2D",
"U. c #C6AD35",
"Y. c #DAAB27",
"T. c #D6AA39",
"R. c #DEB02B",
"E. c #E19B22",
"W. c #ECA814",
"Q. c #F0AC03",
"!. c #F0AF1A",
"~. c #F1B00B",
"^. c #F1B713",
"/. c #E7A823",
"(. c #EEB524",
"). c #EBB234",
"_. c #F2BC2F",
"`. c #DFAE54",
"'. c #C9A452",
"]. c #C9A475",
"[. c #EEBB46",
"{. c #E7B453",
"}. c #F0C146",
"|. c #F1C559",
" X c #F4D079",
".X c #9D9A85",
"XX c #9B9785",
"oX c #8E8C86",
"OX c #8BB691",
"+X c #A09C86",
"@X c #A19D8A",
"#X c #A5A18C",
"$X c #A8A48D",
"%X c #A5A292",
"&X c #A9A693",
"*X c #AAA798",
"=X c #ADA995",
"-X c #ADAA9A",
";X c #B1AD99",
":X c #B6AC92",
">X c #B8B49A",
",X c #AEADA3",
"<X c #B2AEA1",
"1X c #B4B1A2",
"2X c #B8B6A9",
"3X c #BDBAA9",
"4X c #BEBCB1",
"5X c #82D69F",
"6X c #8BC29B",
"7X c #84C8A8",
"8X c #8ECBB0",
"9X c #8AD3A6",
"0X c #91D8AC",
"qX c #99D5B5",
"wX c #A1DCBA",
"eX c #C3BE9E",
"rX c #D5B281",
"tX c #C1BEA9",
"yX c #C0BEB3",
"uX c #D8C28E",
"iX c #C9C5A8",
"pX c #C2C0B5",
"aX c #C8C6B9",
"sX c #D2CEB1",
"dX c #D5D0B6",
"fX c #D8D3B6",
"gX c #DAD5BA",
"hX c #DDD9BE",
"jX c #D5D2B9",
"kX c #F2CD84",
"lX c #F4D692",
"zX c #F1CD8D",
"xX c #E6D5B1",
"cX c #F1D5A0",
"vX c #EAD8AC",
"bX c #F8E5BA",
"nX c #CCCBC2",
"mX c #D0CEC6",
"MX c #D8D6C8",
"NX c #DAD9D4",
"BX c #E0DCC7",
"VX c #E0DFD6",
"CX c #E4E1CC",
"ZX c #E6E3D1",
"AX c #E3E2DA",
"SX c #E8E5D3",
"DX c #EAE8D6",
"FX c #EDEBDC",
"GX c #E8E6DB",
"HX c #F6E7C9",
"JX c #F0EDDF",
"KX c #EDEBE0",
"LX c #F0EEE1",
"PX c #F2F0E5",
"IX c #F5F3E8",
"UX c gray100",
"YX c None",
/* pixels */
"YXYXYXYXYXYX% % % % k k k k z k k k k k j h h h 4 % % YXYXYXYXYXYX",
"YXYXYXYX% % 8.>XhXhXhXhXhXhXhXhXhXhXhXhXhXxXgXjXsX=Xh.3 % YXYXYXYX",
"YXYXYX% % iXxXBXhXBXCXSXSXDXSXDXDXDXSXSXVXSXBXMXsXiXwX:Xj % YXYXYX",
"YXYX% k fXhXMXDXPXIXIXPXPXIXPXIXbXlXkX X XzXcXHXDXMXsXeX1Xx % YXYX",
"YX% % jXhXCXLXPXPXPXPXPXPXHX X_.(./.R.R.Y./././.`.xXMXaX3X1Xj % YX",
"YX% eXhXCXPXPXPXPXLXPXLXlX^.~.T.Z.n.n.b.b.b.B.s.L.H.rXaX4X1X*X% % ",
"% x hXhXPXPXPXJXLXJXLX|.~.R.C.v.W ' ' ' ' ) ' I g.J.J.].pX2X1Xh.% ",
"% >XhXDXPXLXJXJXJXJX}.Q.U.v.W Q X...5X7Xo.{ ] ( ` u.K.7.:X2X2X%X% ",
"% fXgXPXPXJXJXJXJX}.^.U.E W R ..qXqXqX8X8Xo.] ( ^ U 7.5.-.,X4X2Xc ",
"% hXMXIXPXJXFXJXkX~.(.v.R X.0XwXqXqXqXqX8X8X] ( ! ^ 6.5.*.0.4X4Xh.",
"8.fXCXIXPXJXFXJX(.!.A.H X.9XwXqXqX0X7Xo.] ] ) ( ~ > 5.5.&.f 4X4Xh.",
"k fXCXPXJXJXFXlXW.Y.Y R ..OX5 3 5 5 5 5 3 p ( ( ~ > <.5.*.i <XwXx.",
"z fXSXPXJXFXFX|.W.s.H X.0XOX3 3 3 3 3 3 3 a ` ^ ! , q.=.&.i ,XaXc.",
"z fXSXPXJXFXFX|.W.u.H ..0X6X3 3 1 1 1 1 3 r ^ V : u r.&.&.f 2XyXc.",
"z fXSXJXFXJXDX).Y.P J ..9X..| _ _ F / / ^ ^ ^ : , 2.2.&.@.p 2XyXc.",
"z fXSXJXJXDXDX_./.u.Q | | | _ G Z / / / ^ ~ N : -.e.&.@.6 g yXpXc.",
"z fXSXLXJXDXDX)./.u.K Q _ _ G G F F Z ~ V M : k y.4.%.9 7 k.4XpXc.",
"z fXBXLXFXDXDX)./.K.T A A K G A Z V V C M : k y.q.%.9 3 g XXyXpXz.",
"l sXBXLXDXDXGX`.E.K.a.K A A B B B m M M U <.r.4.#.0 < i k.@XyXpXx.",
"j sXBXDXDXDXVXzXF.F.D.i.P A B B m C P -.q.w.,.%.0 < # v .X%XyXyXx.",
"j iXhXZXZXZXZXlXG.G.D.D.D.J.p.p.p.e.2.e.1.;.#.O.2 . e @X-X#XpX4Xx.",
"h tXjXBXBXBX{.E.D.t.1.;.,.$.,.,.,.$.$.#.+.0 8 $ . ; #X;X%X%XpXpXx.",
"c eXaXMXvX).G.F.y.>.+.q 0 0 q q q q 0 0 8 4 O X e %X@X%X@X&XaXaXz.",
"4 >XtXrX'.I.L.4.#.8 $ O . o + 2 2 2 @ # X = a b @XXX@X@XXX,XaXnXx ",
"% $XS.'.'.P.3.#.8 O X ; e - * ; ; ; e p v k.*X&X%X$X+X.X.XaXnXmX% ",
"% g.B.S.N.6.#.8 * * j.3X3X>X#Xx.k.k.XX*X;X>X=X$X#X+X.Xc.;XmXMX4X% ",
"% % V.M.9.=.w * - j.;X;X;X;X;X=X;X=X$X$X&X%X+X#X.XXXx.%XmXNXNX8.% ",
"YX% 9.V.9.f i 7 x.$X$X%X$X$X$X$X#X#X#X#X#X+X.XXXc.c.%XmXNXNX4X% YX",
"YX% 4 8.0.v g XX.X.X@X@X.X+X.X+X.X.X.X.XXXXXc.c.XX4XNXAXKXnX% % YX",
"YXvX% % 0.XX<X2X2X1X-X-X*X*X*X*X*X*X&X*X*X1X2XpXmXNXNXAXpX% % YXYX",
"YXYX  o & x *XtXpXaXaXnXaXnXnXnXnXnXaXnXmXmXmXMXNXNXNXXX% % YXYXYX",
"YXYXYXYX% 4 & 8.@X-X4XnXnXaXnXmXaXnXnXnXnXnXmX4X1Xc.% % % YXYXYXYX",
"YXYXYXYXYXYXYX% % % % % % % % % % % % % % % % % % % % YXYXYXYXYXYX"
};
