/* XPM */
const char *align_l_xpm[] = {
/* columns rows colors chars-per-pixel */
"33 33 256 2",
"   c #2C1A14",
".  c #3D190F",
"X  c #331710",
"o  c #3E2B17",
"O  c #302620",
"+  c #4A1608",
"@  c #481D10",
"#  c #581B0A",
"$  c #482D13",
"%  c #5C210E",
"&  c #5D2411",
"*  c #532112",
"=  c #593516",
"-  c #413831",
";  c #443724",
":  c #65220C",
">  c #6B2A13",
",  c #622712",
"<  c #64341A",
"1  c #75280D",
"2  c #7C290C",
"3  c #71240B",
"4  c #712D12",
"5  c #793317",
"6  c #6D3D22",
"7  c #703D23",
"8  c #6C411B",
"9  c #75451C",
"0  c #6C4221",
"q  c #7A4D28",
"w  c #764625",
"e  c #5E5544",
"r  c #746F67",
"t  c #8B2E0C",
"y  c #8B310E",
"u  c #873816",
"i  c #93310C",
"p  c #953D14",
"a  c #A6380D",
"s  c #A73E10",
"d  c #B73D0D",
"f  c #944117",
"g  c #9E4317",
"h  c #864F22",
"j  c #85592C",
"k  c #885C39",
"l  c #835534",
"z  c #964524",
"x  c #975A2A",
"c  c #8B6338",
"v  c #98733D",
"b  c #A94615",
"n  c #B8410F",
"m  c #B94712",
"M  c #A4522F",
"N  c #AE5D3B",
"B  c #A1632F",
"V  c #AA6834",
"C  c #B26F3A",
"Z  c #817A54",
"A  c #BC7451",
"S  c #B97843",
"D  c #C3420E",
"F  c #C34D14",
"G  c #CB4911",
"H  c #C75017",
"J  c #CE5215",
"K  c #D55C19",
"L  c #D15517",
"P  c #D6621D",
"I  c #D8621E",
"U  c #DA6D22",
"Y  c #D96721",
"T  c #DD7326",
"R  c #DE7A29",
"E  c #A1853E",
"W  c #A6883F",
"Q  c #AA8B3E",
"!  c #88825D",
"~  c #9D8343",
"^  c #989152",
"/  c #8B8461",
"(  c #8E8868",
")  c #938D6A",
"_  c #928D71",
"`  c #96906E",
"'  c #9D956C",
"]  c #9F986C",
"[  c #959074",
"{  c #99957C",
"}  c #9E9877",
"|  c #9F9979",
" . c #999475",
".. c #A18644",
"X. c #A28844",
"o. c #AA8C40",
"O. c #A5884A",
"+. c #A68D55",
"@. c #AC914A",
"#. c #AE9752",
"$. c #B49442",
"%. c #BB9C49",
"&. c #B79949",
"*. c #B59757",
"=. c #AE9B6C",
"-. c #A89962",
";. c #A49D7C",
":. c #B19D67",
">. c #B09D71",
",. c #BFA04C",
"<. c #BCA355",
"1. c #BAAA68",
"2. c #B4A175",
"3. c #B6A67D",
"4. c #DE812D",
"5. c #E1862E",
"6. c #E18A32",
"7. c #E69C3B",
"8. c #E59738",
"9. c #E7A03B",
"0. c #C19F49",
"q. c #C48754",
"w. c #C98C6D",
"e. c #CF9A6C",
"r. c #C79B77",
"t. c #C3A14A",
"y. c #C8A64D",
"u. c #CDAC52",
"i. c #C4A653",
"p. c #CEB25A",
"a. c #D0AF54",
"s. c #DBBA5B",
"d. c #D5B558",
"f. c #C1AA63",
"g. c #C8B565",
"h. c #C7B775",
"j. c #D2A87E",
"k. c #DBBE62",
"l. c #D1B963",
"z. c #D1BE74",
"x. c #EBAB42",
"c. c #ECB042",
"v. c #F0BC4B",
"b. c #D8C168",
"n. c #D8C776",
"m. c #F2C54D",
"M. c #F7D757",
"N. c #E3C361",
"B. c #E8CA68",
"V. c #E3C766",
"C. c #E2CC73",
"Z. c #EDD06D",
"A. c #EBD77A",
"S. c #F0D46D",
"D. c #F1D572",
"F. c #F3DC78",
"G. c #F3DA75",
"H. c #F6E07D",
"J. c #FAE37E",
"K. c #9B9880",
"L. c #A19D88",
"P. c #ABA68B",
"I. c #A9A593",
"U. c #AEAB98",
"Y. c #A9A598",
"T. c #B3AC8C",
"R. c #BCAF8A",
"E. c #BBAF85",
"W. c #B3AD91",
"Q. c #B1AE9D",
"!. c #BDB38D",
"~. c #BDB387",
"^. c #B6B194",
"/. c #BAB493",
"(. c #B9B499",
"). c #BAB599",
"_. c #B0AEA1",
"`. c #BAB5A2",
"'. c #BBB8AB",
"]. c #B8B5A7",
"[. c #C4BB8D",
"{. c #C8BE83",
"}. c #C3BB95",
"|. c #D0B58C",
" X c #D3B994",
".X c #C1BDA3",
"XX c #CAC497",
"oX c #D5CA85",
"OX c #D3CD99",
"+X c #DED183",
"@X c #DED89F",
"#X c #C5C0A5",
"$X c #CAC4AC",
"%X c #C7C2AC",
"&X c #CDCAB5",
"*X c #C6C4B5",
"=X c #D2CDB4",
"-X c #D2CDBB",
";X c #DAD5AC",
":X c #DDD7A6",
">X c #D5D1B6",
",X c #D7D0BD",
"<X c #DAD4BC",
"1X c #DDD9BD",
"2X c #E0CF82",
"3X c #EBDB83",
"4X c #EADC8A",
"5X c #E4D485",
"6X c #ECDE90",
"7X c #E0D795",
"8X c #E1DBAB",
"9X c #E1DCB1",
"0X c #EFE28D",
"qX c #ECE399",
"wX c #EFE390",
"eX c #F6E385",
"rX c #F4E48B",
"tX c #F8E584",
"yX c #F9E98D",
"uX c #F6EA94",
"iX c #F6EB9A",
"pX c #FAED94",
"aX c #F8ED9A",
"sX c #F1E493",
"dX c #FAF09B",
"fX c #E5E0AA",
"gX c #E9E3AB",
"hX c #ECE6B0",
"jX c #F4EBA2",
"kX c #F2ECAD",
"lX c #F3EEB7",
"zX c #F8F1A1",
"xX c #F9F2AA",
"cX c #F7F0AC",
"vX c #FBF5B6",
"bX c #FAF4B9",
"nX c #CBC9C0",
"mX c #D6D4CE",
"MX c #D9D3C2",
"NX c #DEDAC4",
"BX c #DDD9CA",
"VX c #D7D4C4",
"CX c #D7D6D0",
"ZX c #D8D7D0",
"AX c #E0DCCC",
"SX c #E0DCC6",
"DX c #E1DDD3",
"FX c #E4E0CC",
"GX c #E5E2D1",
"HX c #E8E5D4",
"JX c #ECE9D8",
"KX c #EBE8D6",
"LX c #F0EDDF",
"PX c #FBF7C0",
"IX c #F0EEE1",
"UX c #F2F1E5",
/* pixels */
"JXJXJXJXJX=X;.! Z ) ` ) ) ) ^ ^ ^ ^ ^ ) ) ) ) Z } .XJXJXJXJXJXJXJX",
"KXJXJX$X|  .2.;X9X8X8X8X8X8X8X8X8X8X8X8X8X;X;X;X!.-.) ).JXJXJXKXJX",
"JXJX^./ .X|.|.8X8XhXhXhXhXhXhXhXhXhXhXhXhXgX8X:XOXXX/.) T.JXJXKXKX",
"JX^.) >X9Xr.|.bXbXbXbXbXbXbXbXvXvXvXbXbXvXbXbXlXfXOXXX).[ P.JXJXJX",
"$X/ ,X9XDXw.e.vXcXvXcXcXxXxXxXxXxXxXxXxXxXxXcXkXhX:XOXXX/.( ^.JXJX",
";..X1XAXUXA q.xXzXzXzXzXzXzXzXzXzXzXzXzXzXzXzXjXjXqX@XXX/.U.! NXKX",
"` <XSXIXUXV S zXaXaXaXaXaXaXaXaXaXaXaXaXaXaXaXiXqXqX@XoXXX/.{ ^.JX",
").<XJXUXUXM C dXaXiXaXaXaXaXzXiX6X6XsXaXzXaXaXuXqXqX@XoX[./.P.! KX",
"=X1XIXIXIXz V dXuXuXuXiXaX5X+.k l l l k *.wXdXuX0X4X+XOXXX^.W./ -X",
">XSXUXIXIXz V dXuXuXuXdXh.w > , > 4 4 , , k n.pX0X4X+XoXn.^.^._ .X",
">XDXUXIXIXu M pXyXuXpXn.0 , 5 u f b g p 5 , c 2X0X5XA.oXn.}.^. .).",
">XHXIXIXIXu B uXrXyX5X0 & 5 f b m H L m b u : c 0X5XoXn.~.}./.] W.",
">XKXIXIXLXu x yXrXyXS * < p m L U T T I G b u % <.0XoXn.{.[.).] W.",
"=XHXLXLXJX4 x yXeXrX7 & 5 b L U 6.7.8.R P F p : c 0Xn.n.h.}./.] W.",
">XHXLXLXJX> j eXeXC.< & y n K 5.x.m.v.7.R J g 3 0 0Xn.n.h.[./.] W.",
"=XKXLXJXLX> h eXeXn.> % y m Y 6.v.M.S.x.R L s 4 0 A.n.n.1.[./.] W.",
"=XHXJXLXKX, 9 H.F.A.< # y n K 5.c.m.m.9.T J a 3 q A.n.b.1.[.^.] W.",
"&XGXJXJXKX& 9 H.F.J.q # 2 a G U 6.7.8.4.K D i : v B.b.g.1./.W.] W.",
"=XSXJXJXKX& 9 H.A.F.*.+ : i d G P U P P D a 2 & p.b.b.g.1.~.T.{ W.",
"$XNXHXHXHX@ 8 H.D.D.D.q + 3 i a D G D d a 2 # v b.b.p.1.1.~.T.{ W.",
"#X<XGXGXFX@ < G.B.D.D.k.w + : 2 t i i t 3 # c k.b.p.p.<.-.3.~.| W.",
".X-XVXBXBX. = Z.B.B.B.S.V.j + + # : # # + v b.k.p.<.<.#.-.~.W.K.^.",
").&XVX-XMXX = B.N.N.N.N.N.N.i.j 8 8 8 j i.s.d.p.u.<.<.#.:.!.^.{ Q.",
"Q.'.&X&X=XX * s.d.d.s.s.s.s.s.s.s.s.s.s.d.u.u.i.,.&.@.+.3./.)._ #X",
"P.Q.*X#X%X  o d.a.a.a.a.a.a.a.a.a.u.a.a.i.y.,.,.@.@.@.+./.).%XZ KX",
"| I.`.].].  o y.0.0.y.0.0.y.0.y.t.,.,.y.%.$.$.o.Q E ~ 2.$X$X].) JX",
"! I.Y._.U.O o ,.&.$.$.$.$.$.$.$.Q Q Q Q Q Q W W E ~ -.$X=XnX[ .XKX",
"P. .Y.U.Q.- o @.o.o.o.o.o.o.o.o.Q Q Q W W W E ~ ~ -.$XNXVX'.` KXJX",
"NX{ L._.'.r e #.O.....O.........o.......S ~ ~ +.R.,XDXDX&X/ .XJXJX",
"JX$X{ L.'.Y.Y.#XR.E.>.>.=.=.=.=.1.>.>.>.T.R.'.,XDXDXDX.X( Q.JXJXKX",
"JXJX&X| _ _.].&X-X,X,XMXMXMXMXMXMXMXMXMXBXBXDXDXDXVX;.) }.HXJXJXJX",
"JXJXKXKX^./ { Y.'.nXmXCXZXZXZXZXCXZXZXZXCXCX.X'.L.Z W.VXJXJXJXJXKX",
"JXJXJXJXJXJX#X| ` ! r ! Z Z Z Z Z Z Z Z r ~ ^  .^.FXKXKXKXJXJXKXJX"
};
