/* XPM */
const char *ani_mode_xpm[] = {
/* columns rows colors chars-per-pixel */
"33 33 256 2",
"   c #2D0701",
".  c #340300",
"X  c #3D0200",
"o  c #3E0901",
"O  c #3A0C05",
"+  c #440400",
"@  c #440A02",
"#  c #4E0B01",
"$  c #490201",
"%  c #4C1305",
"&  c #461409",
"*  c #4C1B14",
"=  c #550B00",
"-  c #590C01",
";  c #551103",
":  c #5B1304",
">  c #57190A",
",  c #531912",
"<  c #4C2119",
"1  c #562618",
"2  c #5A2A22",
"3  c #5A342E",
"4  c #620C00",
"5  c #631000",
"6  c #6A1100",
"7  c #631709",
"8  c #641B18",
"9  c #741C06",
"0  c #751608",
"q  c #731312",
"w  c #672A1A",
"e  c #772A0B",
"r  c #792813",
"t  c #7B320D",
"y  c #6F2E10",
"u  c #632926",
"i  c #653427",
"p  c #673B32",
"a  c #732723",
"s  c #723924",
"d  c #74493B",
"f  c #6E462F",
"g  c #795C53",
"h  c #7D6251",
"j  c #812309",
"k  c #882D09",
"l  c #832A18",
"z  c #87340F",
"x  c #8B3918",
"c  c #832C21",
"v  c #883822",
"b  c #AB3B0C",
"n  c #A83E15",
"m  c #88401B",
"M  c #984318",
"N  c #864329",
"B  c #854A3A",
"V  c #93412A",
"C  c #964835",
"Z  c #975127",
"A  c #9D5139",
"S  c #AE410A",
"D  c #A84B1C",
"F  c #B64609",
"G  c #AA4C23",
"H  c #A55729",
"J  c #A75837",
"K  c #B75C2B",
"L  c #A46738",
"P  c #BB642B",
"I  c #B66735",
"U  c #BC743B",
"Y  c #975842",
"T  c #875A4D",
"R  c #806645",
"E  c #856657",
"W  c #817A54",
"Q  c #867555",
"!  c #9A664D",
"~  c #8A736A",
"^  c #9B6E61",
"/  c #997763",
"(  c #937C76",
")  c #A35C49",
"_  c #A65C45",
"`  c #A76347",
"'  c #A46554",
"]  c #AB7446",
"[  c #A7715C",
"{  c #B76F46",
"}  c #B87946",
"|  c #B9795D",
" . c #A76D61",
".. c #A4786A",
"X. c #A37E71",
"o. c #B27E6E",
"O. c #C46829",
"+. c #CB6833",
"@. c #C9702F",
"#. c #C97135",
"$. c #D26C23",
"%. c #D86F23",
"&. c #DC7B2D",
"*. c #D67327",
"=. c #C37946",
"-. c #C57E62",
";. c #88825D",
":. c #8B8461",
">. c #948D6A",
",. c #9F816E",
"<. c #958873",
"1. c #96906E",
"2. c #99926F",
"3. c #99957C",
"4. c #9E9877",
"5. c #9F9979",
"6. c #979275",
"7. c #B88955",
"8. c #A3896F",
"9. c #A78679",
"0. c #A59B7C",
"q. c #B98B78",
"w. c #B29379",
"e. c #DE8C32",
"r. c #D68629",
"t. c #E48533",
"y. c #EA923A",
"u. c #F29939",
"i. c #FB982B",
"p. c #FBA13A",
"a. c #C7874B",
"s. c #C88957",
"d. c #D78748",
"f. c #DC9858",
"g. c #D08656",
"h. c #CC856B",
"j. c #C28E7B",
"k. c #C6917B",
"l. c #D88C6C",
"z. c #D28D70",
"x. c #D79575",
"c. c #CFA265",
"v. c #C6A172",
"b. c #DBAB6C",
"n. c #D4A96A",
"m. c #D3A071",
"M. c #E89D40",
"N. c #F29C44",
"B. c #FBA749",
"V. c #EEAC60",
"C. c #E4B26D",
"Z. c #E8BC79",
"A. c #F9B061",
"S. c #F5B976",
"D. c #E9C17B",
"F. c #FFC268",
"G. c #FAC777",
"H. c #FAD57C",
"J. c #9B9581",
"K. c #9D9982",
"L. c #9D8983",
"P. c #A08F80",
"I. c #A09D86",
"U. c #A19C89",
"Y. c #A99684",
"T. c #BB8980",
"R. c #B49688",
"E. c #BB9F94",
"W. c #A5A28D",
"Q. c #AAA58D",
"!. c #A7A291",
"~. c #AAA593",
"^. c #ACA895",
"/. c #AEAB99",
"(. c #AFA09C",
"). c #B0A689",
"_. c #B2AD91",
"`. c #B1AD9A",
"'. c #BAAA99",
"]. c #B6B195",
"[. c #B9B49A",
"{. c #B8B49B",
"}. c #B2AFA1",
"|. c #B4B1A3",
" X c #B9B5A3",
".X c #B9B6AA",
"XX c #BDB9A4",
"oX c #BBB9AB",
"OX c #B7B5A8",
"+X c #BFBDB1",
"@X c #C59784",
"#X c #D69880",
"$X c #C8A999",
"%X c #C4B69E",
"&X c #D5AC95",
"*X c #D9B99B",
"=X c #C9ADA3",
"-X c #C1BDA3",
";X c #C2BDAB",
":X c #C8B1A7",
">X c #C1BEB1",
",X c #D3BBAC",
"<X c #D8B8AA",
"1X c #D8BFB2",
"2X c #E5BF89",
"3X c #DAC39E",
"4X c #C5C0A5",
"5X c #C5C1AD",
"6X c #C9C5AD",
"7X c #CFCBAF",
"8X c #C3C0B2",
"9X c #C8C6BC",
"0X c #CCC9B6",
"qX c #CECBBA",
"wX c #C7C5B5",
"eX c #D2CDB3",
"rX c #D1CEBA",
"tX c #DAC5B6",
"yX c #D5D1B6",
"uX c #D9D5BB",
"iX c #DDD9BD",
"pX c #D6D2BF",
"aX c #D4C8A9",
"sX c #F7C688",
"dX c #FDCD93",
"fX c #FBD886",
"gX c #EDDAB0",
"hX c #FBDFB2",
"jX c #ECD3A9",
"kX c #FBE894",
"lX c #FCE58C",
"zX c #FCE7B4",
"xX c #FDF6BC",
"cX c #CCC9C1",
"vX c #D0CEC6",
"bX c #D5D2C1",
"nX c #D5D3CC",
"mX c #D9D5C4",
"MX c #DDDBCA",
"NX c #DED7C5",
"BX c #D7D6D0",
"VX c #D8D7D0",
"CX c #DAD9D2",
"ZX c #DFDFD9",
"AX c #E0DBC3",
"SX c #E1DDCC",
"DX c #E5D8C9",
"FX c #E5DED5",
"GX c #E4E1CD",
"HX c #E6E3D2",
"JX c #E8E5D2",
"KX c #EAE7D8",
"LX c #ECE9D9",
"PX c #E4E3DA",
"IX c #F0EEE1",
"UX c #F2F0E4",
/* pixels */
"LXLXLXLXLX0X0.;.h 2.1.1.1.>.2.>.>.2.>.>.>.>.>.W 4.-XJXLXKXLXLXLXLX",
"LXLXLX7X4.2.4XuXNXgXiXiXiXiXiXiXiXiXiXiXiXiXuXyX[.0.>.[.LXLXLXKXLX",
"LXLX].;.4XiXiXiXAXGXJXJXJXGXJXJXJXJXJXJXFXGXDXbX7XaX[.>.).LXJXLXLX",
"KX].>.aX3XjXjXhXhXzXxXxXgX3X&Xk.k.k.@Xk.j.q.@X@XR.w.w.).R 8.LXLXLX",
"7X;.eX*Xm.dXsXG.H.fXlXkXZ.s.{ H H H J UXUXA ) 1X,X[ ..0.).Q _.LXJX",
"0.%XuX&Xg.S.S.F.G.H.lXkXb.=.{ k.&X` J IXIX_ C IXKXJ 9.;XXX^.;.SXLX",
"2.uXDX&XP d.A.F.G.fXlXD.s.I x.SXIX| n bX<Xv l { ' r ' '.'.|.3._.LX",
"[.yXKX#XG K d.V.G.fXD.] N Z x.FX1Xx k ) _ v A v v V Y ' / ^.^.;.JX",
"yXiXUXh.n K #.f.S.G.b.f = H s.@X_ A o.@X&X<XbX1X,X,X=X).R.}.}.:.yX",
"yXAXUXh.b P =.f.7.n.b.s y I I q.1XFXKXIXIXIXLXLXKXMXMXqX8X+X|.<.4X",
"yXGXUXh.F @.d.7.1 7.C.L { J e ' tXIXIXLXFXIXLXKXHXZXmXqX8X+XOX3.].",
"yXGXUXz.F @.d.L @ 7.G.a.` q.X.0 l ' &XKXIXIXIXKXHXMXbXqX8X+X.XJ._.",
"yXJXIXz.S Z U L f c.a.e y %X=Xr c l l v T.=XFXFXPXMXmXqX8X8XoXK._.",
"yXJXIXl.k 1 I a.a.L y ; - d B v 1X@Xq j q q a $XHXMXbX0XoX8X.XK._.",
"yXJXIXl.j * U d.Z > % > e z k x =X@Xc  .cXa 8 ..NXMXbX0X+X+XoXK._.",
"eXJXIXx.j t P m > % > M *.&.u.@.k l 0 ' =Xa 9.HXSXMXbX0XoX8X.XK._.",
"yXGXIXl.b I z : % @ y $.*.&.y.N.D 0 6 6 8 $ u :XSXNXrXwXoX>XOXJ._.",
"eXFXLXh.+.@Xu $ @ % M %.$.&.t.B.#.0 4 - $ - k | DXmXrX>XXXoXOXJ._.",
"7XSXKX-.H X.g w & % M $.$.&.&.B.+.6 4 - ; O.i.sXAXrX0X;X XoX|.J._.",
"6XNXFX$X7 > T R.* o y $.$.*.y.B.D 6 4 = M p.y.2XbXrX5XXX`..X|.J._.",
"4XuXHXpXB X f R.i 2 % M $.t.y.O.0 6 - - P u.y.b.rXwXoX{./.OX|.3._.",
"%XrXMXmX=X1 O 1 i '.f @ e M x 9 6 6 = - P u.y.b.6X;X{./.^.OX|.K._.",
"[.wXqXmXpXY.< . < qX'.& w = = - 6 5 = # M M.e.c.;X{.`.~./..X|.3.[.",
"].XX0XqXqX0X8.1 . * p d %X^ : = 5 - = + ; I r.v.{.`.!.W.}.oX+X<.4X",
"^.`.5X5X5X5XwX3.<     3 ;X'.w s s ; # + + ; t ! ^.Q.U.U.+X+X9Xh LX",
"3.^.|.OX{.XXXXXXY.f O O i E 1 ,.oXs # u , X   p K.K.K./.cX9X.X1.LX",
";.!.^.|./.`._.`.`.`.E < @ O @ w / i # ^.E + < h J.J.!.vXvXvX6.XXLX",
").6.!.}.`.~.W.W.Q.W.W.<.d 1 * O * % * ~ h < g J.J.^.vXBXCX.X1.LXLX",
"MX4.K.}.oX}.!.U.U.I.K.K.J.<.h p 2 1 * < < * 3 ~ .XBXZXZX9X;.4XLXLX",
"KX6X3.W.oX9XcX8XoXOX}.`./././.!.Y.P.<.( ( L.(.cXZXZXZXwX;.[.LXLXLX",
"LXLX0X5.6.OXcXvXnXnXBXBXBXBXCXCXCXBXBXCXCXZXZXZXZXCXQ.>.[.LXLXLXLX",
"LXLXLXKX_.:.6./.oXcXnXnXBXBXBXBXBXBXBXBXVXBX8X XI.;.).mXLXLXLXLXJX",
"LXKXLXLXLXJX4X0.1.;.h ;.W W W W W W W W W W >.4.].GXLXLXLXLXLXLXJX"
};
