/* XPM */
const char *bezier_xpm[] = {
/* columns rows colors chars-per-pixel */
"33 33 256 2",
"   c #20150E",
".  c #391501",
"X  c #311C0F",
"o  c #26241F",
"O  c #39261C",
"+  c #2D2F2D",
"@  c #362A22",
"#  c #3B3B3A",
"$  c #5C2204",
"%  c #54260B",
"&  c #483B35",
"*  c #5A3121",
"=  c #741E00",
"-  c #682802",
";  c #61350E",
":  c #792D00",
">  c #742803",
",  c #793B0D",
"<  c #703D1C",
"1  c #44423C",
"2  c #5D402F",
"3  c #7F4214",
"4  c #784A25",
"5  c #4B4A46",
"6  c #5A524E",
"7  c #5C5D58",
"8  c #605247",
"9  c #715744",
"0  c #63625C",
"q  c #79614A",
"w  c #696866",
"e  c #72726F",
"r  c #787979",
"t  c #852C04",
"y  c #863B04",
"u  c #813D0A",
"i  c #942800",
"p  c #963704",
"a  c #93391B",
"s  c #A23200",
"d  c #A83901",
"f  c #BA3D02",
"g  c #B13801",
"h  c #81440E",
"j  c #80471D",
"k  c #8B5100",
"l  c #8C5018",
"z  c #944709",
"x  c #9A5607",
"c  c #955514",
"v  c #835C28",
"b  c #8A5F36",
"n  c #9A4127",
"m  c #955329",
"M  c #935821",
"N  c #826309",
"B  c #89653E",
"V  c #9E6C31",
"C  c #927A2C",
"Z  c #A54501",
"A  c #A34A04",
"S  c #AA4904",
"D  c #A3540A",
"F  c #AE5B0B",
"G  c #AB5606",
"H  c #BB4501",
"J  c #B64C03",
"K  c #B45D0D",
"L  c #B95B01",
"P  c #B85707",
"I  c #B35713",
"U  c #B85710",
"Y  c #AF6A04",
"T  c #A96514",
"R  c #B8670C",
"E  c #B76512",
"W  c #BA7A1D",
"Q  c #BF6322",
"!  c #B67E38",
"~  c #A76C24",
"^  c #817A54",
"/  c #857E59",
"(  c #9B734E",
")  c #9F7759",
"_  c #967C62",
"`  c #A67D44",
"'  c #C24903",
"]  c #C45202",
"[  c #C85701",
"{  c #CD5D03",
"}  c #C65A0B",
"|  c #CF5C1C",
" . c #C36903",
".. c #C46909",
"X. c #C4700E",
"o. c #C67B0B",
"O. c #CC7609",
"+. c #C37C10",
"@. c #C67716",
"#. c #D3690A",
"$. c #D47708",
"%. c #D36C17",
"&. c #CF7C2A",
"*. c #D57724",
"=. c #BD812B",
"-. c #88825D",
";. c #97895A",
":. c #8B8562",
">. c #8F8969",
",. c #938D6A",
"<. c #938D71",
"1. c #96906D",
"2. c #9A9473",
"3. c #9E9877",
"4. c #9F9979",
"5. c #979278",
"6. c #A68B57",
"7. c #B98A4B",
"8. c #A88863",
"9. c #A49B7A",
"0. c #B79566",
"q. c #B39E7A",
"w. c #B59A71",
"e. c #B9A374",
"r. c #CE830A",
"t. c #C98217",
"y. c #D88807",
"u. c #D68718",
"i. c #DB9600",
"p. c #D99118",
"a. c #D58428",
"s. c #D98734",
"d. c #DB9624",
"f. c #DE963D",
"g. c #C48427",
"h. c #E49A06",
"j. c #E19A26",
"k. c #E59936",
"l. c #EBA300",
"z. c #EDAB0A",
"x. c #EAA60B",
"c. c #EBA711",
"v. c #EFB31A",
"b. c #F1B51F",
"n. c #E6A424",
"m. c #EAA527",
"M. c #E7A837",
"N. c #EFB936",
"B. c #F0B83A",
"V. c #CB9144",
"C. c #CF9C5B",
"Z. c #D88E44",
"A. c #DC914D",
"S. c #D7985B",
"D. c #C89963",
"F. c #D8A75C",
"G. c #C4AB71",
"H. c #E6AA47",
"J. c #E4A850",
"K. c #ECB446",
"L. c #E8B159",
"P. c #EFBF6C",
"I. c #EDBF79",
"U. c #F4C55A",
"Y. c #F5CE74",
"T. c #93938D",
"R. c #9C9983",
"E. c #9F9C88",
"W. c #969793",
"Q. c #888986",
"!. c #A09C86",
"~. c #A29D89",
"^. c #A5A18D",
"/. c #A9A58D",
"(. c #AEA98C",
"). c #A9A590",
"_. c #ADA994",
"`. c #ACAA9A",
"'. c #A5A397",
"]. c #B0AA8D",
"[. c #B1AD95",
"{. c #B1AD9B",
"}. c #B6B195",
"|. c #B4B19B",
" X c #B8B39C",
".X c #BDB89E",
"XX c #B2AFA1",
"oX c #B5B2A3",
"OX c #B9B6A3",
"+X c #B9B6AA",
"@X c #BDB9A3",
"#X c #BDBAAC",
"$X c #B2B1AD",
"%X c #BEBCB1",
"&X c #B2B4B0",
"*X c #CCB781",
"=X c #C0B69C",
"-X c #C2BDA3",
";X c #C1BDAB",
":X c #C1BEB1",
">X c #C5C1AB",
",X c #C9C5AD",
"<X c #C6C1A3",
"1X c #C3C0B4",
"2X c #C5C3B9",
"3X c #C9C5B2",
"4X c #C9C6BC",
"5X c #CDC9B4",
"6X c #CDCABB",
"7X c #D4C5A6",
"8X c #D0CDB4",
"9X c #D1CDBA",
"0X c #D5D0B5",
"qX c #D5D1BE",
"wX c #D8D3B6",
"eX c #DAD5BA",
"rX c #DDD8BD",
"tX c #EBC18F",
"yX c #E1C890",
"uX c #F4CE80",
"iX c #F4D695",
"pX c #F7DA89",
"aX c #EFD3A7",
"sX c #E5D2B7",
"dX c #F9E5BD",
"fX c #CDCBC3",
"gX c #D0CEC3",
"hX c #D5D2C2",
"jX c #D4D2CA",
"kX c #D9D5C2",
"lX c #DEDAC4",
"zX c #DDDACA",
"xX c #DAD7C9",
"cX c #D7D7D0",
"vX c #DBDAD4",
"bX c #E1DCC3",
"nX c #E1DECC",
"mX c #E1DFD1",
"MX c #E0DFDA",
"NX c #E5E1CC",
"BX c #E6E2D1",
"VX c #E2E1DB",
"CX c #E8E5D3",
"ZX c #EBE8D6",
"AX c #EDEADA",
"SX c #F4E4C5",
"DX c #F6E9CA",
"FX c #F2EDDB",
"GX c #F1EBD6",
"HX c #FBF2DB",
"JX c #EFEDE0",
"KX c #F0EEE1",
"LX c #F2F0E4",
"PX c #F4F2E8",
"IX c #F9F5EA",
"UX c #F6F4F0",
/* pixels */
"ZXZXAXZXAXZX8X!.-.q 2.,.,.,.,.,.,.,.,.,.,.,.,.,.^ 9.-XZXZXZXZXZXZX",
"ZXZXZXAX,X9.2.=XeXrXbXrXrXrXrXrXrXrXeXrXeXeX9X8X,X].2.>.@XZXZXAXAX",
"AXZXZX}.:.<XrXrXlXbXNXNXCXCXCXCXCXCXCXCXCXBXnXqX8X;X=X}.>.].AXZXZX",
"ZXAX X,.eXrXrXZXPXPXPXPXPXPXPXPXPXPXPXPXPXHXLXUXCXxX5X@X|.<.].AXZX",
"AX,X-.0XrXNXFXIXLXLXLXLXLXLXJXLXLXLXLXLXUXDXaXaXAXBXjX3X+X|.>.[.AX",
"ZX4.<XrXNXPXLXLXLXLXLXJXLXKXKXLXKXJXLXJXNXY.h.u.-XsXvXfX;XoX`.-.zX",
"5X2.rXlXLXPXLXLXKXJXJXJXFXJXJXJXKXJXKXSXM.h.$.A E 7.gXfX:X+XXX5.[.",
"9.=XrXZXLXAXLXAXAXJXJXJXFXJXJXFXJXdXiXc.i. .n l  .l W.fX:X+X+X`.-.",
"-.rXrXLXLXAXAXAXLXLXAXLXJXJXLXAXSXK.h.y...a m %.I B &XfX;X+X:X+X>.",
"q rXrXPXLXLXLXAXAXAXAXAXJXHXHXuXx.l.p.P a m t.P q e gX6X;X+X:X%X<.",
"1.eXNXPXLXAXAXFXAXFXLXLXFXiXB.h.c.p.K t u @.$.h w $XxX9X:XoX2X:X4.",
"1.rXNXLXLXAXAXFXAXAXZXHXY.z.c.m.d.T t > Y y.S 9 r mXhX6X;X+X2X2X!.",
"1.wXZXLXKXFXAXAXAXIXiXN.l.c.M.&.I t $ x $.#., w fXzXhX6X;X X2X2X!.",
"1.wXNXLXKXAXAXAXDXU.z.z.M.f.| y - ; k $.O.d 2 r nXnXhX6X:X+X2X2X!.",
"1.wXNXLXJXAXIXpXb.z.v.B.B.*.j 8 T.=Xu.O.} : 6 `.BXzXhX5X#X X2X2X!.",
"1.wXCXFXAXFXyXy.i.z.N.K.k.d.v =XSXH.O.X.p * 7 xXmXzXgX5X#XXX2X2X!.",
"1.wXmXKXFXIXs.{ L o.n.B.M.j.t.r.y.$.X.P > & T.CXBXlXqX3X#X|.1X2X!.",
"1.sXmXKXAXaX#.' p p F s.f.p.p.y.$...F t * 0 qXNXzXhX6X3X+X|.1X2X!.",
"1.0XmXLXFXJ.] f g s i p Y t.u.r.X.F z - & W.CXNXzXhX5X>X+X`.1X1X!.",
"1.7XbXKXY.$.P f ' f g s p A X.X.R D y % 5 +XNXzXzXqX3X#X|.`.1X1X!.",
",.8XyXL.a.#.{ } | } ] [ ] g Z G L S : O r 3XNXlXhX5X;X+X`.).1X1X!.",
";.*XF.f.*.%.%.*.*.#...} [ ] J Z z p % # '.zXlXkXqX3X-X|._./.2X2X!.",
"C G.C.A.s.*.a.u.r.o...U P ] H g g t O Q.6XkXqX6X,X@XoX_.^.'.4X4X!.",
"N e.C.S.Z.&.@.t.+.X.P R J d i = % O 1 ;XqXqX5X,X;X X|.^.~.oXfXfX3.",
":.w.0.C.V.g.g.W E F G D p > . @ 5 e '.5X5X3X>X@X X[./.~.E.2XfXjXq ",
"/.6.0.0.V.=.W Y D x z y - X + Q.6X,X3X,X>X-XOX|._./.!.E.oXjXcX%X1.",
"eX/ q.0.7.! ~ c c z u > . o T.@X@X@X@X X|.}._./.^.E.R.'.jXvXvX5.-X",
"ZX].5.9.6.` V M l , , %   w +X{.`.`._._._./.^.!.E.R._.gXVXvX%X1.ZX",
"ZXzX2.~.`.8.( b 4 4 < O 1 '.).).].).^.^.E.E.E.E.^.%XcXVXVXfX:.<XAX",
"ZXZX,X2.R.`.+Xq.w.8.) _ '.{.{.{.{.{.`.{.XX+X#X2XjXvXvXVX2X:. XZXZX",
"ZXAXAX5X4.<.`.%X:XfXfX5XfXfXfXfXfXfXgXfXgXgXjXjXvXvXxX).>.@XZXZXAX",
"ZXZXZXZXZX}.:.<.).XX%X4XfXfXfXfXfXfXfXfXfXfXfX:XoX~./ ].kXAXZXZXZX",
"AXZXAXZXAXZXZX;X9.1.-.^ ^ ^ ^ ^ ^ ^ q -./ ^ ^ 1.3.}.NXZXAXZXZXAXZX"
};
