/* XPM */
const char *close_xpm[] = {
/* columns rows colors chars-per-pixel */
"33 33 235 2",
"   c #3F3603",
".  c #776F45",
"X  c #AB5D14",
"o  c #B25405",
"O  c #B25B08",
"+  c #BA6104",
"@  c #BA6C0E",
"#  c #B76E26",
"$  c #817A54",
"%  c #857E59",
"&  c #C15A00",
"*  c #C8721F",
"=  c #D46600",
"-  c #D36902",
";  c #DF7006",
":  c #D47119",
">  c #D97E21",
",  c #E06501",
"<  c #E56F00",
"1  c #EB6F00",
"2  c #E37400",
"3  c #E17818",
"4  c #F27500",
"5  c #F07C02",
"6  c #FB7D00",
"7  c #87815C",
"8  c #89825D",
"9  c #8B8462",
"0  c #8A8674",
"q  c #8C8976",
"w  c #8E8A78",
"e  c #908967",
"r  c #938D6A",
"t  c #928D71",
"y  c #918D7A",
"u  c #96906E",
"i  c #98916E",
"p  c #969175",
"a  c #97947F",
"s  c #9B9574",
"d  c #99957C",
"f  c #9E9877",
"g  c #9F9979",
"h  c #A7885F",
"j  c #B9874B",
"k  c #A29C7D",
"l  c #CB8B1F",
"z  c #DB8D16",
"x  c #D4822F",
"c  c #D38131",
"v  c #DD9C25",
"b  c #DA9734",
"n  c #DF913F",
"m  c #C2A438",
"M  c #CBA134",
"N  c #DCAE39",
"B  c #E58B02",
"V  c #EF8D00",
"C  c #E08211",
"Z  c #EB801A",
"A  c #E69C18",
"S  c #EA9015",
"D  c #FD8300",
"F  c #FE8D01",
"G  c #FF8D08",
"H  c #F3881C",
"J  c #F69000",
"K  c #F59D0A",
"L  c #FE9301",
"P  c #FF950C",
"I  c #FF9B01",
"U  c #FF9C0A",
"Y  c #FF9610",
"T  c #FF9810",
"R  c #E88A2A",
"E  c #E69D3C",
"W  c #F98C21",
"Q  c #F4922D",
"!  c #FC9322",
"~  c #FF9C21",
"^  c #FF9A28",
"/  c #FB9A31",
"(  c #EFA017",
")  c #FEA104",
"_  c #FDA108",
"`  c #EBAA2C",
"'  c #E4A03E",
"]  c #EEA232",
"[  c #EFA23A",
"{  c #ECBC3F",
"}  c #F6A43A",
"|  c #FDA535",
" . c #FEA13A",
".. c #FFAE3A",
"X. c #F3B12F",
"o. c #FFB72D",
"O. c #F7B330",
"+. c #F3B835",
"@. c #F9B734",
"#. c #FEBC34",
"$. c #FFBF39",
"%. c #CA9453",
"&. c #DB9F4D",
"*. c #DBA15B",
"=. c #EFBD49",
"-. c #FFAC45",
";. c #F8AE5A",
":. c #FFB04B",
">. c #FFB453",
",. c #FCB15B",
"<. c #FFBB5F",
"1. c #EBAC64",
"2. c #F5B76B",
"3. c #FFB662",
"4. c #FFBB60",
"5. c #FDBD6C",
"6. c #F1B772",
"7. c #FCC33C",
"8. c #D5C04C",
"9. c #E5D055",
"0. c #EAD958",
"q. c #F7C644",
"w. c #F6C248",
"e. c #FFC643",
"r. c #FCC548",
"t. c #FECA44",
"y. c #FFCB4C",
"u. c #FFCD52",
"i. c #FFD14C",
"p. c #F6D15E",
"a. c #F3DF5E",
"s. c #FFD353",
"d. c #FDD55A",
"f. c #EFD76D",
"g. c #FFC26F",
"h. c #F5C37C",
"j. c #FFC576",
"k. c #FFC57A",
"l. c #FFDE65",
"z. c #FFDF6A",
"x. c #F3E05D",
"c. c #FFE05E",
"v. c #FDE463",
"b. c #FDE966",
"n. c #FFEA6B",
"m. c #F6E97D",
"M. c #FFED74",
"N. c #FEEE7B",
"B. c #FFF07C",
"V. c #979482",
"C. c #999683",
"Z. c #9D9984",
"A. c #9C998A",
"S. c #A19C85",
"D. c #A19D8A",
"F. c #A5A18D",
"G. c #AAA58C",
"H. c #AEA98C",
"J. c #A5A292",
"K. c #A9A592",
"L. c #A9A798",
"P. c #ADA994",
"I. c #ADAA9A",
"U. c #B0AA8D",
"Y. c #B1AD95",
"T. c #B1AD9A",
"R. c #B6B195",
"E. c #B4B09B",
"W. c #B8B398",
"Q. c #BDB89E",
"!. c #B1AEA0",
"~. c #B5B2A2",
"^. c #B7B4A9",
"/. c #B9B5A2",
"(. c #B9B7A9",
"). c #BDBAA4",
"_. c #BDBAAB",
"`. c #BDBBB1",
"'. c #C1BC9E",
"]. c #D2B795",
"[. c #D9BC94",
"{. c #C1BDA3",
"}. c #C1BDAC",
"|. c #C0BEB2",
" X c #C5C0A3",
".X c #C5C1AD",
"XX c #CAC5AC",
"oX c #C3C0B5",
"OX c #C5C3B9",
"+X c #C9C6B1",
"@X c #C9C7BD",
"#X c #CCC9B6",
"$X c #CBC9BC",
"%X c #D0CBAE",
"&X c #D1CCB3",
"*X c #D2CEBA",
"=X c #D6D2B6",
"-X c #D4D0BC",
";X c #D9D4B7",
":X c #DAD5BA",
">X c #DDD8BD",
",X c #FFC682",
"<X c #FFCB8B",
"1X c #FECE92",
"2X c #FED093",
"3X c #FFF082",
"4X c #FFE0BA",
"5X c #CCCAC1",
"6X c #D0CEC3",
"7X c #D5D2C2",
"8X c #D4D3CA",
"9X c #D9D6C3",
"0X c #DCD9C3",
"qX c #DEDBCA",
"wX c #D9D7D1",
"eX c #DCDBD3",
"rX c #E1DCC4",
"tX c #E1DDCB",
"yX c #E0DED0",
"uX c #E0DFDA",
"iX c #E5E1CC",
"pX c #E8E4CF",
"aX c #E5E2D1",
"sX c #E3E2DA",
"dX c #E8E5D3",
"fX c #E8E6D8",
"gX c #EBE8D6",
"hX c #EDEBDC",
"jX c #F0EDDF",
"kX c #ECEAE0",
"lX c #F0EEE1",
"zX c #F2F0E4",
"xX c #F4F2E8",
"cX c gray100",
"vX c None",
/* pixels */
"vXvXvXvXvXvX  k 7 . s p r r u r r u u r r r r e . k {.vXvXvXvXvXvX",
"vXvXvXvX  g i '.:X>X>X>X>X>X>X:X:X:X:X;X;X=X+XXX XH.p u Q.vXvXvXvX",
"vXvXvXR.8  XrX>X>XrXpXdXdXpXgXfXdXgXdXaXaXiXqX-X+X).T.G.9 H.vXvXvX",
"vXvXE.r ;X>XrXgXxXxXzXxXxXxXxXxXxXxXxXzXzXlXhXsXyX*X).T.P.t P.vXvX",
"vX  8 :X>XiXzXzXzXzXzXzXzXzXzXzXzXzXzXzXzXjXhXsXyX9X$X_.I.L.9 R.vX",
"vX   X>XiXxXzXzXzXzXzXhXlXlXlXlXzXkXjXzXzXhXhXsXyX9X$X|.~.I.J.7   ",
"  . >X>XzXzXzX<X<.j.lXlXjXjXlXlXjXjXhXkXhXhXhXh.] ' [.}.^.!.!.y Y.",
"k '.>XgXzXzXg.) o.I <.hXlXhXhXjXjXjXjXjXjXhX1XK ( B b |.~.I.^.L.9 ",
"7 >X>XxXzXjX..#.B.u.I 3.hXjXhXjXjXhXjXhXjX2XK p.f.( z .X~.I.`.^.9 ",
". rXrXxXlXjXg.I v.3Xu.I <.jXjXhXjXjXhXjX2XI d.m.=.B &._.~.I.`.`.t ",
"i :XpXzXzXjXjX:.) l.N.y.L k.hXhXhXjXjX2X_ d.N.w.B ' $X.X~.I.OXoXd ",
"i :XpXzXjXjXhXjX:.U z.N.y.L k.hXhXhX2XI d.B.w.J [ 7X#X}.~.L.oXOXZ.",
"i >XpXzXjXjXjXhXkX:.) l.B.t.L k.hX2XI s.B.r.L } qX7X#X}.~.L.|.OXS.",
"i :XpXzXjXjXgXhXhXjX:.I s.N.e.F -.U s.B.t.F | aXqX7X#X_.~.L.|.OXS.",
"i :XpXzXjXjXgXhXhXhXhX-.L s.M.e.P s.M.r.F | gXyXqX9X#X_.E.P.oXOXS.",
"i :XpXzXhXgXgXhXhXgXgXgX-.U s.n.c.n.7.L | gXgXyXqX7X#X_.T.L.|.OXS.",
"i :XpXzXhXhXhXgXhXgXhXgXgX~ U n.n.s.L Y gXfXdXqXqX6X+X(.T.L.|.OXS.",
"i ;XpXjXhXgXgXgXgXgXgXdX1XY t.b.c.b.$.G k.dXdXtX9X*X.X/.I.J.|.OXS.",
"i ;XiXjXhXgXgXgXgXgXgX<XF t.n.$.P i.n.#.D 5.aXqX7X#X}./.P.F.|.OXS.",
"r =XiXjXhXpXgXgXdXdXk.F t.n.$.D D L i.b.@.D 2.0X*X#X}.E.L.D.|.OXS.",
"r =XiXgXgXgXaXpXdX3.F e.b.$.D ^ 4X .D t.b.X.4 1.&X}./.Y.F.D.|.OXS.",
"r %X>XgXdXaXaXaX,.D 7.b.#.6 ! pXdXyX/ D q.x.` < *.}.T.K.D.D.OXOXS.",
"u XX-XaXaXqXiX;.5 $.c.@.6 W tXrXtXtXqXQ 5 { 9.v = %.P.D.D.J.@X5XZ.",
".  X+XqX0X9X6.4 +.x.X.4 H 0X0X0X0X>X9X-XR 2 N 8.l & j D.Z.!.5X6Xp ",
"e W.{.7X7X-XR S 0.` 1 Z *X-X-X-X*X=X#X#X+X> - M m O O Z.a OX8X8X$ ",
"H.F.W..X#X+X&.; C , 3 +XXX#X#XXXXX}.XX.X)./.* & * o X a T.8XwX|.e ",
"  7 R.W._._.].> : x ).{.{.{.)./.)././.W.E.P.G.# o X h J.8XeXeXd {.",
"vXH.p I.T.^.T.T.E.T.T.T.T.Y.T.T.T.Y.P.H.G.F.D.S.d d K.5XuXuX|.r vX",
"vX  s D.I.I.I.P.K.K.K.L.K.K.G.K.F.F.F.D.D.Z.Z.a D._.8XuXuX5X9   vX",
"vXvX  f C.I.~.(.(.^.T.T.I.I.I.I.T.I.I.I.I.~.(.oX8XeXeXsX#X9 E.vXvX",
"vXvXvX  k r I.(.|.OXOX5X$X5X5X5X5X5X$X$X5X5X5X8X8XeX8XK.e Q.vXvXvX",
"vXvXvXvX  Y.8 t F.T.|.OXOXOXOX5X$XOX5XOXOX5X5X_.^.A.% H.  vXvXvXvX",
"vXvXvXvXvXvXvX{.k r 8 $ $ $ $ $ $ $ $ $ $ $ $ r k Y.  vXvXvXvXvXvX"
};
