/* XPM */
const char *kilit_pic_xpm[]={
"16 18 19 1",
"# c None",
". c None",
"l c #5cac66",
"g c #808080",
"q c #92d8ad",
"f c #953803",
"i c #999933",
"m c #b15306",
"b c #c56e01",
"c c #cccc99",
"a c #d99119",
"h c #e8e8e8",
"k c #eaeb9c",
"p c #ecc16c",
"j c #ffae3a",
"o c #fffe9a",
"e c #ffff99",
"n c #ffffc8",
"d c #ffffcc",
"..........######",
"..........######",
".....abbbbb.....",
"....acddedca....",
"....bdafffdbg...",
"....bdfgggdfg...",
"....bdfghgdfg...",
"....bdfghgdfg...",
"...bbibfffiff...",
"...bddddddddfg..",
"...bjkalmmflfg..",
"...bdnoooppqfg..",
"...bjkalmmflfg..",
"...bddeeeppqfg..",
"...bfffffffffg..",
"....gggggggggg..",
"................",
"................"};
