/* XPM */
const char *magnifying_xpm[] = {
/* columns rows colors chars-per-pixel */
"33 33 256 2",
"   c #17110C",
".  c #191917",
"X  c #2A1300",
"o  c #231D17",
"O  c #340E00",
"+  c #361B04",
"@  c #2A231C",
"#  c #3B2817",
"$  c #2B2822",
"%  c #2A2A29",
"&  c #302F2A",
"*  c #30302B",
"=  c #393834",
"-  c #167C78",
";  c #2A7D70",
":  c #327664",
">  c #4B0E00",
",  c #471701",
"<  c #46372A",
"1  c #731E01",
"2  c #612B12",
"3  c #752702",
"4  c #793301",
"5  c #773819",
"6  c #4F2C11",
"7  c #43413B",
"8  c #7E451A",
"9  c #77543D",
"0  c #747037",
"q  c #534C42",
"w  c #545450",
"e  c #55514A",
"r  c #5E7E49",
"t  c #4C7F58",
"y  c #625A4E",
"u  c #68655A",
"i  c #78764B",
"p  c #6C6A63",
"a  c #7A776B",
"s  c #198969",
"d  c #168371",
"f  c #278477",
"g  c #299768",
"h  c #349574",
"j  c #2F8A67",
"k  c #3CA163",
"l  c #3DA574",
"z  c #2EAE6D",
"x  c #409B7E",
"c  c #438B78",
"v  c #44A77C",
"b  c #46B277",
"n  c #5CAC66",
"m  c #53B978",
"M  c #46AF68",
"N  c #7E9243",
"B  c #6C9543",
"V  c #679F7E",
"C  c #658C6B",
"Z  c #6EB15E",
"A  c #61A457",
"S  c #67B877",
"D  c #7AB765",
"F  c #66B06B",
"G  c #55C27E",
"H  c #2E8A80",
"J  c #3C9583",
"K  c #479A86",
"L  c #49A483",
"P  c #4BA783",
"I  c #54A88B",
"U  c #59AA91",
"Y  c #56B586",
"T  c #4AA490",
"R  c #64B687",
"E  c #68B797",
"W  c #72BE80",
"Q  c #72BF9E",
"!  c #68C28E",
"~  c #6BC691",
"^  c #74C999",
"/  c #7BD099",
"(  c #72C485",
")  c #7CC6A2",
"_  c #8A2100",
"`  c #963A07",
"'  c #884917",
"]  c #964805",
"[  c #9D5705",
"{  c #8F4B0E",
"}  c #8C4F21",
"|  c #84562A",
" . c #955A26",
".. c #937031",
"X. c #AA4F04",
"o. c #A55A08",
"O. c #A15F15",
"+. c #AB6207",
"@. c #A46F1D",
"#. c #B7670A",
"$. c #BD6A16",
"%. c #B37014",
"&. c #BC720B",
"*. c #A4682C",
"=. c #A16D32",
"-. c #A67528",
";. c #BC7E25",
":. c #817A54",
">. c #897A59",
",. c #94754A",
"<. c #8B7C64",
"1. c #C16B0B",
"2. c #C76D14",
"3. c #C97415",
"4. c #D06F16",
"5. c #D37C01",
"6. c #D07414",
"7. c #C87705",
"8. c #9F9131",
"9. c #B7871E",
"0. c #BF8223",
"q. c #AB8728",
"w. c #ADA637",
"e. c #88825D",
"r. c #899A41",
"t. c #9D8F5D",
"y. c #9B9151",
"u. c #8B8461",
"i. c #8F8A67",
"p. c #8C897A",
"a. c #938D6A",
"s. c #938E74",
"d. c #96906D",
"f. c #96927D",
"g. c #99957C",
"h. c #9B9576",
"j. c #85B55B",
"k. c #8BA66C",
"l. c #89B16E",
"z. c #8FAF69",
"x. c #A38344",
"c. c #A09E5D",
"v. c #BD964E",
"b. c #AA9562",
"n. c #A39C7A",
"m. c #A08C67",
"M. c #A4AF4D",
"N. c #B0AB4F",
"B. c #A0B449",
"V. c #B9A36A",
"C. c #D9870E",
"Z. c #D48717",
"A. c #DE910F",
"S. c #D79417",
"D. c #C98617",
"F. c #C48822",
"G. c #CF9227",
"H. c #C59639",
"J. c #D49B2C",
"K. c #C6AD35",
"L. c #D9AB27",
"P. c #D6AA38",
"I. c #DEB02B",
"U. c #E19B22",
"Y. c #EFAA10",
"T. c #EAA618",
"R. c #F0AC03",
"E. c #F0AF1A",
"W. c #F1B00B",
"Q. c #F1B713",
"!. c #E7A823",
"~. c #EEB524",
"^. c #EBB234",
"/. c #F2BC2F",
"(. c #CCA34E",
"). c #DFAE54",
"_. c #C7A556",
"`. c #C9A475",
"'. c #EEBB46",
"]. c #EABE5D",
"[. c #E5AB4A",
"{. c #F0C146",
"}. c #F1C559",
"|. c #F4CF79",
" X c #9D9984",
".X c #9A9684",
"XX c #8E8C86",
"oX c #A09C85",
"OX c #A19D89",
"+X c #A5A18C",
"@X c #A8A48D",
"#X c #AEA98C",
"$X c #A6A290",
"%X c #AAA694",
"&X c #ADA994",
"*X c #ACA899",
"=X c #B0AA8D",
"-X c #B1AE9A",
";X c #B6AC93",
":X c #B6B195",
">X c #B8B49C",
",X c #AEACA3",
"<X c #B1AEA1",
"1X c #B4B1A2",
"2X c #B8B6A9",
"3X c #BCB9A8",
"4X c #BEBBB0",
"5X c #82D69F",
"6X c #83CAA6",
"7X c #8ECBB0",
"8X c #8AD3A6",
"9X c #92D8AD",
"0X c #99D6B4",
"qX c #A1DCB9",
"wX c #C1BC9D",
"eX c #D5B281",
"rX c #C1BDA5",
"tX c #C0BEB2",
"yX c #D8C28E",
"uX c #CAC5AC",
"iX c #C7C2A5",
"pX c #C2C0B5",
"aX c #C9C6B9",
"sX c #D1CDB2",
"dX c #D5D0B6",
"fX c #D8D3B6",
"gX c #DAD5BA",
"hX c #DED9BE",
"jX c #D5D1BB",
"kX c #EAC29E",
"lX c #F3CD80",
"zX c #F4D287",
"xX c #F4D692",
"cX c #E6D5B1",
"vX c #F1D5A0",
"bX c #EAD8AC",
"nX c #F8E5BA",
"mX c #CCCBC2",
"MX c #D0CEC5",
"NX c #D8D6C7",
"BX c #DADAD3",
"VX c #E0DBC2",
"CX c #E1DDCB",
"ZX c #E0DFD9",
"AX c #E5E1CC",
"SX c #E6E3D1",
"DX c #E8E5D3",
"FX c #EBE8D6",
"GX c #ECE9D9",
"HX c #E3E2DB",
"JX c #F7E7C9",
"KX c #F0EDDF",
"LX c #EFEDE0",
"PX c #F0EEE1",
"IX c #F2F1E5",
"UX c #F5F3E8",
/* pixels */
"GXGXGXGXFXGXsXn.e.N a.d.a.d.d.d.d.d.a.a.d.a.a.a.i n.rXFXFXGXGXFXFX",
"GXFXGXGXuXn.d.rXgXhXNXhXhXhXNXcXhXhXhXhXcXgXgXjXsX;Xh.i.>XGXFXGXGX",
"FXGXFX:Xe.iXVXhXhXAXAXSXAXFXAXFXFXFXDXDXZXSXCXNXjXuXiX:Xa.=XGXFXFX",
"GXFX:Xa.fXhXVXFXIXUXUXUXUXUXUXUXnXxXzX|.lXxXxXJXHXBXsX3X1Xa.=XGXGX",
"GXuXu.fXhXCXUXUXIXIXIXIXUXJX|./.E.~.I.I.I.!.!.!.).cXNXaX3X>Xi.;XDX",
"GXh.iXhXCXUXIXIXIXPXPXPXxXQ.W.P.N.z.l.l.k.k.c.H.G.S.eXmXtX1X*Xe.CX",
"sXd.hXhXIXIXPXPXPXKXPX}.R.I.B.D F S R R R U U V y.D.D.`.pX1X,Xf.;X",
"n.wXgXFXIXIXIXGXKXPX{.R.K.j.F S ~ ^ / 6X) Q E I T 8.3.@.wX2X2X*Xu.",
">.fXhXIXIXPXKXKXGX{.Q.K.D S S / 7X0X0X0X7X6XE U J C F.=...2X4X2Xu.",
"i NXVXIXPXKXKXKXzXW.!.j.S ( 9XqXqXqX0X7X7X7XE U J K -.=.| a 4X4Xs.",
"d.gXAXUXKXKXKXKX~.E.B.F S 9XqXqX0X7X6X) E U U I J ; =.*.| u 2X4Xh.",
"d.gXAXIXKXKXKXxXW.L.Z m / qXqX9X6X^ E U I I I K H ; @.*.| e ,XpXoX",
"d.fXSXIXKXGXGX}.Y.w.n S qXqX0X) ~ Y Y I L T K K H : #. .} w ,XtXoX",
"d.gXSXIXKXKXKX}.T.r.n / 9X9X/ ! Y P P L L K K K d 0 2. .` w 2XtXoX",
"d.fXSXIXKXGXGX^.T.r.m / 5X/ ~ Y b L P L K K K d ; $.$.} 5 w 4XpXoX",
"d.fXSXKXGXKXGX^.!.r.b ~ ^ ! m b v v v v K J H - ..3.O.} 6 u 4XpXoX",
"a.dXSXPXKXGXFX^.E.8.m G ! m b b v v x x h d - i 6.#.{ 2 < p.4XpXoX",
"a.fXSXPXGXFXFX^.T.F.A z z z l l l h h j d - i 7.#.] 3 6 u  XqXpXoX",
"a.dXAXGXGXGXFX[.U.F.q.k z z g g s s d d C @.3.&.] 3 > 7 <.OXtXtXoX",
"a.uXCXGXDXDXDXkX6.S.C.9.B k g g g j B ..1.2.+.] 3 > $ p %X%XtXtXoX",
"a.iXhXDXSXSXSXxXA.Z.C.C.C.D.9.F.0.$.2.3.#.o.{ _ >   < OX*X$XtXtXoX",
"a.rXjXCXCXCX].A.A.5.+.+.+.[ +.+.+.o.] ] ` 3 3 #   = %X*X%X$XtXtXoX",
"i.>XaXNXcXP.S.Z.7.X.` 4 3 3 4 4 4 4 4 3 1 6 o . 7 $XOX$XOX%XtXmX.X",
":.;XrXyXP.J.G.$.X.3 # o   X O , , , + @ . % q a OXOX$XOX X,XaXmXd.",
"e.=XV._._.H.%.] 1 o . = < * % = = = 7 w p XX%X%X%X$XoX.X.XaXmXMX:.",
"#Xt.b.V.v.-.] 3 @ $ p.3X3X1X@XXXp.p..X$X-X-X;X#X$X X.X.X-XMXNXtXa.",
"gX:.n.b.,. .5 $ & p.-X-X-X-X-X;X-X&X&X&X%X$XOXoX.X.Xf.$XMXBXBXf.rX",
"GX=X..m.,.y q < f.@X@X@X@X@X@X@X@X+X+X+XOX X X.X.Xf.$XMXZXBX4Xa.GX",
"GXCXh.>.<.p u .XOX XOXoX X X XoX X X X X.X.X.X.X X4XNXZXHXmXu.rXFX",
"GXbXrXh.<..X,XrX2X<X,X*X*X%X*X$X*X%X%X*X*X,X1XpXNXBXZXHXaXu.:XGXGX",
"GXGXCX*Xa.a.*X2XtXaXaXmXmXmXmXmXmXmXmXmXmXMXMXNXBXBXNX%Xa.>XGXGXGX",
"GXFXGXGXFX;X<.s.$X<X4XaXmXmXmXmXmXmXmXmXmXMXMXtX2X X:.=XNXGXGXGXFX",
"GXFXGXFXGXFXGXrXn.d.>.>.:.:.:.:.:.:.:.:.:.:.:.a.h.;XCXGXGXFXGXFXGX"
};
