/* XPM */
const char *next2_xpm[] = {
/* columns rows colors chars-per-pixel */
"33 33 256 2",
"   c #020000",
".  c #0A0100",
"X  c #180000",
"o  c #120B04",
"O  c #2B0400",
"+  c #230400",
"@  c #3B1C09",
"#  c #5D1C05",
"$  c #641E05",
"%  c #703110",
"&  c #6C3614",
"*  c #79393D",
"=  c #7B3B40",
"-  c #6F5226",
";  c #7F403E",
":  c #74582A",
">  c #7E7147",
",  c #844116",
"<  c #92533C",
"1  c #86672C",
"2  c #A5551E",
"3  c #BC5216",
"4  c #AD7333",
"5  c #A8733A",
"6  c #A97C3A",
"7  c #B36A2B",
"8  c #BC6B25",
"9  c #BF6B39",
"0  c #B5742D",
"q  c #B6752C",
"w  c #BA7933",
"e  c #844541",
"r  c #854943",
"t  c #894C47",
"y  c #8E5248",
"u  c #985A40",
"i  c #8A7549",
"p  c #817A54",
"a  c #8E7C53",
"s  c #9E7073",
"d  c #A46D55",
"f  c #A77844",
"g  c #BF6F41",
"h  c #A27576",
"j  c #A67B79",
"k  c #C4571A",
"l  c #CD621F",
"z  c #C66824",
"x  c #C86924",
"c  c #C26732",
"v  c #C4742B",
"b  c #CC732A",
"n  c #CA7A2D",
"m  c #C47E33",
"M  c #D26823",
"N  c #D27B2D",
"B  c #D47E32",
"V  c #C27349",
"C  c #AB8339",
"Z  c #B9893A",
"A  c #8B825C",
"S  c #8E8053",
"D  c #91845C",
"F  c #8B8461",
"G  c #958C67",
"H  c #928D71",
"J  c #96906E",
"K  c #9A916C",
"L  c #959075",
"P  c #9B9574",
"I  c #99957C",
"U  c #9F9979",
"Y  c #999477",
"T  c #A28445",
"R  c #AB875A",
"E  c #B5815A",
"W  c #B88756",
"Q  c #BB924B",
"!  c #B89557",
"~  c #A98665",
"^  c #AA817C",
"/  c #AC9869",
"(  c #A79A78",
")  c #B28E67",
"_  c #B99360",
"`  c #BB9C61",
"'  c #B79767",
"]  c #B79872",
"[  c #B6A17B",
"{  c #B7A47B",
"}  c #C48D3E",
"|  c #CC8333",
" . c #CB8A3A",
".. c #C68338",
"X. c #C6903E",
"o. c #CA903E",
"O. c #D38534",
"+. c #D58A38",
"@. c #D8913C",
"#. c #EA9837",
"$. c #C28758",
"%. c #CA9241",
"&. c #C69544",
"*. c #C7985A",
"=. c #D19240",
"-. c #D59959",
";. c #C69262",
":. c #CD9A61",
">. c #CC9969",
",. c #CA9366",
"<. c #D09D69",
"1. c #CFA04A",
"2. c #C6A25D",
"3. c #D5A74E",
"4. c #DAAC5B",
"5. c #D6A75A",
"6. c #DBB053",
"7. c #CEA360",
"8. c #D5A363",
"9. c #D4A26A",
"0. c #DCAE66",
"q. c #D6A966",
"w. c #D2AB75",
"e. c #DDB165",
"r. c #DFB16E",
"t. c #DAB27F",
"y. c #E19D57",
"u. c #E0B45B",
"i. c #E2B959",
"p. c #E3B965",
"a. c #E3B661",
"s. c #ECC15E",
"d. c #EEC461",
"f. c #E9C074",
"g. c #F2C762",
"h. c #9A9681",
"j. c #9D9983",
"k. c #AD8581",
"l. c #A09C86",
"z. c #A19D89",
"x. c #B18A81",
"c. c #BA9885",
"v. c #A5A28C",
"b. c #A9A38D",
"n. c #AFA98C",
"m. c #A9A593",
"M. c #ACA994",
"N. c #AEAA9A",
"B. c #A7A492",
"V. c #B0A98E",
"C. c #B8AD8B",
"Z. c #BAA584",
"A. c #B2AC92",
"S. c #B2AD99",
"D. c #BCAD92",
"F. c #B3A692",
"G. c #B6B195",
"H. c #B5B09A",
"J. c #BAB499",
"K. c #BCB395",
"L. c #B1AFA1",
"P. c #BAB5A2",
"I. c #BDB9A4",
"U. c #BBB9AC",
"Y. c #B5B2A4",
"T. c #C19B8A",
"R. c #C6A58B",
"E. c #CCAA92",
"W. c #C0B594",
"Q. c #C4BA94",
"!. c #CCBE9A",
"~. c #C8BA96",
"^. c #D1AE95",
"/. c #DFBA85",
"(. c #D9B385",
"). c #DDBB94",
"_. c #D9BA99",
"`. c #C6B78C",
"'. c #C1BCA3",
"]. c #C7BEA8",
"[. c #DDBDA3",
"{. c #E2B983",
"}. c #E2BE9A",
"|. c #E0BB90",
" X c #D4C18F",
".X c #DDCC9A",
"XX c #D8C496",
"oX c #C5C0A5",
"OX c #CAC6AD",
"+X c #C7C4AD",
"@X c #C4C2B5",
"#X c #C8C6BC",
"$X c #CDCAB5",
"%X c #C7C5B8",
"&X c #D6C5A3",
"*X c #DBC4A5",
"=X c #D8C8A4",
"-X c #DCCAA9",
";X c #D4C9A8",
":X c #D3CDB3",
">X c #D2CEB9",
",X c #D5D1B6",
"<X c #DDD9BD",
"1X c #DAD5BB",
"2X c #E2C185",
"3X c #E5C78D",
"4X c #E4C294",
"5X c #E9CC93",
"6X c #E9CB99",
"7X c #E5C898",
"8X c #E6D39A",
"9X c #EBD395",
"0X c #ECD29C",
"qX c #EED99D",
"wX c #F2D99C",
"eX c #F0D699",
"rX c #E4C3A0",
"tX c #E2CAAA",
"yX c #EACEAE",
"uX c #E5C8A7",
"iX c #E0CBB3",
"pX c #ECD1A2",
"aX c #EAD3AB",
"sX c #E9D3A4",
"dX c #EBD2B2",
"fX c #E6D7BA",
"gX c #F2DCA0",
"hX c #F2D9B0",
"jX c #EDE2BF",
"kX c #F5E1A2",
"lX c #F8E5A4",
"zX c #FDE9A6",
"xX c #CCCAC1",
"cX c #D0CEC6",
"vX c #D5D2C1",
"bX c #D5D3CC",
"nX c #DEDAC4",
"mX c #DBD8C8",
"MX c #D7D6D0",
"NX c #D8D7D0",
"BX c #DAD9D2",
"VX c #DFDFD9",
"CX c #E1DECB",
"ZX c #E5DAC3",
"AX c #E0DFD9",
"SX c #F1DFC7",
"DX c #E8E1CA",
"FX c #E5E2D1",
"GX c #E9E5D3",
"HX c #EBE8D6",
"JX c #ECE9D8",
"KX c #E2E1DC",
"LX c #F0E9DA",
"PX c #F2E9D6",
"IX c #F0EDE1",
"UX c #F2F0E5",
/* pixels */
"JXJXJXJXJX:X( : - i i i i a a a a a a A A D D > K D.GXJXJXHXJXJXHX",
"JXHXJXOXU J J.&X&X&X&X].&X[.[.&X&X&X=X=X-X;X;X;XC.G 1 { GXJXJXHXJX",
"JXJXG.F oXnX;X^._.[.[.*X[.-X-X-X-XtX-XtXtXtX&XXX!.~.C.a / PXHXJXJX",
"JXG.G ,X<XfXiX*XuXtXyXyXdXyXyXyXdXdXdXdXdXdXfXdXtX!.Q.D.D ( GXJXHX",
"OXA :XZXDXJXtX).}.rXrX}.^.T.T.R.E.7XsXuXyXpXaXaXaX-XoXJ.K.S { JXJX",
"( '.1XCXUXJX).).}.}.}.c.h h h h h x.}.pXpXpXpXpXsX.X.XQ.K.V.1 DXHX",
"P 1XnXIXIXSX(.|.4X4XR.s h j j j j j c.6X6XpXpXpXsX.X;X XK.G.P G.HX",
"J.1XHXUXPX}.{.}.7X4XT.j j j ^ ^ j j c.pXgXqXwXqXqX8X.XXX XK.m.F HX",
":X<XIXIXGX{.4X4X6X6X|.^ ^ k.k.k.^ k._.kXgXgXkXgXsX8X.X X XK.G.F >X",
",XnXUXLX6X2X5X6X6X6X0X7XR.x.k.x.T.XXkXwXkXkXkXgXqX8X.X X`.J.H.H oX",
",XFXUXLXhXsX0X0XwXwXwXwXgXgXqXqXlXzXzXlXlXlXkXwXqX8X.X X`.D.M.Y J.",
",XFXUXIXLXLXPXfXw.t.{.5X5X3X4X6X5XwX9XqX9X9X5X2Xt.w.` / ~ ( n.I A.",
",XGXIXIXJXJXIX[.$.*.,.d u t t y y d <.<.<.>.>.;._ W d R ~ c.F.j.C.",
",XFXUXJXIXJXJX>.*.9.,.t = = * * * * E 9.:.<.:.:.:.:.;.' ) Z.F.j.A.",
",XGXJXLXJXJXSX5.q.r.,.e t r r e e r $.e.q.8.8.7.:.*.*.! ' Z.A.j.A.",
":XFXIXIXIXJX2X4.0.0.e.f u < < < u f e.e.e.e.e.e.q.7.2.` ' Z.S.j.A.",
",XKXJXJXLXSX6.u.u.u.u.u.5.5.&.*.0.p.p.p.p.p.p.a.e.5.2.2.` Z.H.I n.",
"$XGXJXJXJXaX2Xf.i.i.i.i.i.g.g.g.g.i.i.i.i.i.i.6.3.1.&.Q ! { H.I A.",
":XCXJXHXHXHXGXfXpX+.N O.| 1 : > 1 0 #.#.O.N N n v 8 7 7 5 ] H.I A.",
"OXnXGXGXGXGXGXPXrXl k k @           , M x x x z 8 8 7 4 f ] H.I A.",
"oXnXFXCXr.hXPXGXy.M M 2       . .   @ v N n b v v q 0 5 5 ] N.I A.",
"J.>XmXmXy.@.{.{.B B N x # X + + O O & ..+.| m n w q 4 5 f n.N.j.A.",
"J.OXvXvX^.x b B B +.B B v % # $ $ , m @.=. ...Z Z q 6 6 R Z.Y.I J.",
"H.U.$X$X>X,.c 3 k x n +.@.=. .m  .=.=.=.%.%.&.Z Z C C T / D.U.L '.",
"m.L.@X+X+XoXC.$.g g 9 c %.%.%.%.X.X.X.Z X.Z Z Z C C C T J.I.#X> JX",
"I M.P.Y.Y.P.'.J.J.D.Z.] ] ] ! *.! Q Q Q Q ! ! / / / K M.$X#XU.L GX",
"A B.M.Y.N.S.S.S.G.A.A.H.N.H.S.H.G.A.A.M.M.v.v.j.j.j.B.xXcXcXL I.JX",
"n.L B.N.S.m.m.z.B.v.B.B.z.b.b.z.B.v.v.v.l.l.j.j.I M.xXBXNXU.L GXJX",
"mXU j.L.U.L.B.z.j.j.v.j.j.j.l.j.j.l.j.j.j.h.h.z.U.bXVXVX$XF '.JXJX",
"JX+XI v.U.#X#X@XU.Y.L.L.L.N.N.N.N.N.N.L.Y.U.#XMXVXKXVX@XF J.JXJXJX",
"JXJXOX( L U.xXcXbXNXNXBXBXNXNXNXNXNXBXBXBXVXVXVXKXNXB.G J.HXJXJXJX",
"HXJXJXHXS.F L N.U.#XbXbXbXNXBXBXbXBXbXNXMXbX@XI.j.A n.mXJXJXJXHXJX",
"JXJXHXJXJXHX'.( L A > p p p p > F > p p p F H I G.CXJXJXJXJXJXJXJX"
};
