/* XPM */
const char *pencil_xpm[] = {
/* columns rows colors chars-per-pixel */
"33 33 257 2",
"   c #0B0402",
".  c #160801",
"X  c #1B0A03",
"o  c #160C0A",
"O  c #1B100C",
"+  c #1A1917",
"@  c #2A0E04",
"#  c #2B1203",
"$  c #241208",
"%  c #221710",
"&  c #3B1604",
"*  c #371608",
"=  c #321B11",
"-  c #29221D",
";  c #382319",
":  c #3F3603",
">  c #2E2825",
",  c #2C2824",
"<  c #332E29",
"1  c #39312A",
"2  c #3A3632",
"3  c #481C08",
"4  c #561F0B",
"5  c #41200A",
"6  c #492005",
"7  c #472717",
"8  c #423603",
"9  c #463805",
"0  c #522309",
"q  c #58230B",
"w  c #582A15",
"e  c #5B341B",
"r  c #473227",
"t  c #642B08",
"y  c #6E2D10",
"u  c #672F10",
"i  c #69330C",
"p  c #6A3614",
"a  c #722C13",
"s  c #75390A",
"d  c #7C3713",
"f  c #4A423B",
"g  c #5C4232",
"h  c #6F4B1F",
"j  c #79451B",
"k  c #694322",
"l  c #704B2E",
"z  c #76512D",
"x  c #7D5C39",
"c  c #5E574D",
"v  c #60574D",
"b  c #645C52",
"n  c #715441",
"m  c #67665E",
"M  c #7A6759",
"N  c #6D6A63",
"B  c #756E62",
"V  c #787468",
"C  c #7B7870",
"Z  c #823B14",
"A  c #9F3C21",
"S  c #8D4A02",
"D  c #8B4412",
"F  c #8C5308",
"G  c #895214",
"H  c #96481A",
"J  c #985713",
"K  c #964A05",
"L  c #814B21",
"P  c #865226",
"I  c #904B21",
"U  c #9A5F25",
"Y  c #9C6614",
"T  c #86603A",
"R  c #986225",
"E  c #A45D14",
"W  c #B25E16",
"Q  c #A45A24",
"!  c #B15D23",
"~  c #A56A07",
"^  c #AA6B15",
"/  c #B86209",
"(  c #BC6A07",
")  c #B36814",
"_  c #B67700",
"`  c #BA791B",
"'  c #A86624",
"]  c #AC772E",
"[  c #A17338",
"{  c #BC6D24",
"}  c #B46423",
"|  c #B67726",
" . c #B87639",
".. c #8F7C48",
"X. c #8A7E5C",
"o. c #9B7440",
"O. c #9A7851",
"+. c #897261",
"@. c #807D73",
"#. c #C77F29",
"$. c #B78227",
"%. c #BA8836",
"&. c #968757",
"*. c #8D8767",
"=. c #878174",
"-. c #938D6A",
";. c #988866",
":. c #958D75",
">. c #96906D",
",. c #989275",
"<. c #A6824B",
"1. c #B08440",
"2. c #BE8C59",
"3. c #B99658",
"4. c #A58C63",
"5. c #A79167",
"6. c #A99A78",
"7. c #B19B6A",
"8. c #B89C71",
"9. c #B8A476",
"0. c #C88909",
"q. c #DB891D",
"w. c #DD9619",
"e. c #C4882A",
"r. c #CA852A",
"t. c #C68727",
"y. c #C98A3B",
"u. c #CF912F",
"i. c #CF973A",
"p. c #DB8F34",
"a. c #D2962C",
"s. c #D49932",
"d. c #D89436",
"f. c #DA862D",
"g. c #D7A038",
"h. c #DAA43B",
"j. c #E59C07",
"k. c #E69F1B",
"l. c #E59E2C",
"z. c #E8A112",
"x. c #E7A012",
"c. c #E7A628",
"v. c #E9AB36",
"b. c #EEB33C",
"n. c #CA8641",
"m. c #C18B5E",
"M. c #C79748",
"N. c #D29B43",
"B. c #DB994A",
"V. c #C8965C",
"C. c #D2A44A",
"Z. c #DBA847",
"A. c #DDAC52",
"S. c #DAA85A",
"D. c #DEB158",
"F. c #C8A167",
"G. c #C1A973",
"H. c #D7AA68",
"J. c #D7B368",
"K. c #D0B579",
"L. c #DAA778",
"P. c #E2A744",
"I. c #E2AA52",
"U. c #ECB248",
"Y. c #E7B655",
"T. c #E5B964",
"R. c #ECBE6B",
"E. c #E8B963",
"W. c #EBBF70",
"Q. c #F2C259",
"!. c #EEC374",
"~. c #F3C771",
"^. c #9D9983",
"/. c #9E9A88",
"(. c #9A9282",
"). c #A19C85",
"_. c #A29D89",
"`. c #A99881",
"'. c #A5A18D",
"]. c #A8A48E",
"[. c #A9A691",
"{. c #ADA994",
"}. c #ADAA9A",
"|. c #A6A596",
" X c #B0A581",
".X c #B1AD95",
"XX c #B1AD9C",
"oX c #B5B19B",
"OX c #B8B49E",
"+X c #B3B097",
"@X c #B1AEA1",
"#X c #B5B2A3",
"$X c #B9B5A3",
"%X c #B9B6A9",
"&X c #BEBAA5",
"*X c #BDBAAC",
"=X c #BEBCB1",
"-X c #C6B187",
";X c #C0BB9D",
":X c #D5B58D",
">X c #C2BEA4",
",X c #C1BCAC",
"<X c #C1BDB1",
"1X c #C9C4AC",
"2X c #C4C0AA",
"3X c #C3C0B4",
"4X c #C5C3B9",
"5X c #C9C5B2",
"6X c #CDCAB5",
"7X c #CDCABB",
"8X c #C8C4BB",
"9X c #D1CDBA",
"0X c #D3CEB1",
"qX c #D6D0B5",
"wX c #D4D1BE",
"eX c #D8D3B6",
"rX c #DAD5BA",
"tX c #DDD8BD",
"yX c #F2D18B",
"uX c #F5D89C",
"iX c #F3D8AD",
"pX c #F7E7BE",
"aX c #CDCBC2",
"sX c #D0CEC6",
"dX c #D6D3C3",
"fX c #D3D2CB",
"gX c #D9D5C3",
"hX c #DDDAC4",
"jX c #DEDBCA",
"kX c #DBDAD4",
"lX c #D7D7D0",
"zX c #E0DCC3",
"xX c #E1DDCC",
"cX c #E9DFCF",
"vX c #E0DFDA",
"bX c #E1DFD0",
"nX c #F0DBC1",
"mX c #E4E1CC",
"MX c #E9E2CA",
"NX c #E5E2D0",
"BX c #E1E0DB",
"VX c #E8E5D3",
"CX c #ECE8D5",
"ZX c #EEECDD",
"AX c #F5E7C9",
"SX c #F1E6D7",
"DX c #F3EAD4",
"FX c #F1ECDC",
"GX c #F8ECD3",
"HX c #FDFBD9",
"JX c #EFEDE0",
"KX c #F0EEE1",
"LX c #F2F0E5",
"PX c #F4F2E8",
"IX c #FFFFE2",
"UX c gray100",
"YX c None",
/* pixels */
"YXYXYXA A A 8 : : : >.>.-.-.>.-.-.-.-.>.-.-.-.-.: : 8 YXYXYXYXYXYX",
"YXA A A 9 8 >.;XrXtXtXtXtXrXtXtXtXrXrXrXrXrXqX0X1X.X,.8 : YXYXYXYX",
"A A A 8 8 2XzXtXtXxXmXNXNXVXVXVXCXVXVXVXVXmXmXhX2X.XoX.X*.: YXYXYX",
"A A : -.eXtXzXCXPXPXPXPXPXPXPXPXPXPXPXPXPXLXKXSX,.b /.&X#X-.: YXYX",
"A : : eXtXMXKXPXLXLXLXLXLXLXKXLXLXLXLXLXLXFX:Xn < 2 |.5X$X}.*.: YX",
"YX: >XtXmXLXLXLXLXKXKXKXKXKXKXKXJXJXKXFXpXm.y o + - =X7X,X%X}.: : ",
": >.gXhXLXLXKXKXKXJXKXKXKXZXKXKXJXFXDXL.! s w $   2 dXaX3X%X#X:.: ",
"8 ;XrXCXLXLXKXJXZXKXZXZXZXKXZXZXCXiXN.( ) ) k $   C dX7X3X%X%X}.: ",
": eXtXLXLXKXZXZXZXZXZXKXZXZXZXGXR.k.w.d.p.d.' 7 o @XgX7X3X#X3X%X*.",
": rXhXPXKXZXZXKXZXZXZXZXKXZXuXv.k.v.Y.I.B.n.R 7 > lXdX7X3X#X3X=X:.",
">.rXMXPXZXZXZXZXZXZXZXCXDX!.x.x.U.E.T.A.M. .L 5 N jXdX7X=X%X4X3X,.",
">.rXmXLXZXZXZXZXZXFXZXyXv.x.v.Y.R.E.I.Z.n.U p % @XkXdX7X=X#X4X4X'.",
">.eXVXKXFXZXZXZXCXZX~.x.x.U.R.!.E.A.h.s.| I 0 = bXjXdX7X2XOX4X4X,.",
">.eXVXLXFXZXZXDXyXc.j.c.D.Q.!.D.Z.s.s.r.U u # m NXjXdX6X=XOX4X4X'.",
">.eXVXKXZXCXpXT.0.0.v.D.D.D.D.h.s.d.r.! d 3 o %XNXjXdX6X*X#X4X4X^.",
">.eXVXFXJXAXb._ ~ $.C.D.S.C.g.s.u.r.{ D 0 # 1 NXNXjXwX5X*X#X4X4X'.",
">.eXcXKXAXZ./ / ~ $.%.M.N.s.a.u.#.} I a & X C NXNXjXwX5X*X#X3X4X^.",
">.9XcXSXS./ / ) F Y ] e.e.t.t.{ ! H a 4 @ O *XNXjXdX7X5X$XoX3X4X'.",
">.0XnXH.W / q.f.R G ^ ` ^ ' Q H D a 4 3 o < *XNXjXdX6X2X$X}.3X4X^.",
">.0X:X .#.q.c.U.i.R G S K D Z Z a 4 3 @   B xXmXhXwX5X*XoX}.=X3X'.",
">.-X2.n.d.c.b.Q.Y.i.<.h t t t u 4 3 & . > *XxXhXrX6X2X$X}.[.=X4X_.",
";.8.V.B.h.P.Y.Q.P.s.$.[ z 5 6 6 & * X   V mXhXgX9X5X*XoX{.[.4X4X_.",
"-.9.F.S.A.Y.Y.h.u.t.$.Y P n = @ @ @   - }.gXdX9X5X*XOX{.].|.8X8X,.",
"8 9.F.H.J.S.N.t.t.t.` J p u g r $ .   c wXqX6X1X*XOX}.[._.#XaXaX:.",
"8 6.9.K.H.M.$.t.| ` E J s 0 & ; 1 , 1 (.6X1X1X&XOX.X]._._.4XsXsX: ",
"8 ).9.G.3.%.| ` ) E J J i 4 & X o , c &X2X&XOXoX{.]._.^.@XfXlX3X: ",
"8 :  X7.5.1.] ^ J G D d q 3 @ . , < :.$XoX+X{.[.'.'.^.[.sXkXkX,.: ",
"YX: &.6.4.<.[ R L j p e 6 = O , 2 V {.{.{.].'._.^.,.}.fXBXvX*X: YX",
"YX: : ;.5.5.O.T z k e 7 r = > f B ].'.'._././.^.].=XlXBXBXaX: : YX",
"YXYX: : &.6.`.`.`.+.+.M b v B =..XXX}.}.@X#X*X4XfXkXkXBX4X: : YXYX",
"HXYXYX: ..*.'.}.%X,X,X<X<X,X8XaXaXaXdXaXsXsXsXdXlXkXlX].: : YXYXYX",
"HXuXYXYX7.8 8 :.'.@X<X8XaXaXaXaXaXaXaXaXaXsXsX3X%X_.: : : YXYXYXYX",
"YXYXYXYXYXYXYX8 9 8 8 : : : : : : : : : : : : : : : : YXYXYXYXYXYX"
};
