/* XPM */
const char *ungroup_xpm[] = {
/* columns rows colors chars-per-pixel */
"33 33 256 2",
"   c #5D0F01",
".  c #680D04",
"X  c #651200",
"o  c #671803",
"O  c #750200",
"+  c #731D02",
"@  c #791601",
"#  c #79181D",
"$  c #6C211F",
"%  c #7D2501",
"&  c #7B2A00",
"*  c #772708",
"=  c #7E3400",
"-  c #7A3309",
";  c #752B1B",
":  c #811500",
">  c #822C01",
",  c #83221A",
"<  c #833301",
"1  c #8C3400",
"2  c #843707",
"3  c #863A17",
"4  c #912404",
"5  c #943903",
"6  c #983511",
"7  c #873E30",
"8  c #8A4105",
"9  c #924201",
"0  c #934B0A",
"q  c #9A4201",
"w  c #94461C",
"e  c #9E5200",
"r  c #8E4420",
"t  c #8E5C35",
"y  c #95462E",
"u  c #95572B",
"i  c #874338",
"p  c #936537",
"a  c #A34A02",
"s  c #A84305",
"d  c #AA4918",
"f  c #A55801",
"g  c #AB5601",
"h  c #A75601",
"j  c #A85216",
"k  c #B25D00",
"l  c #B5580B",
"z  c #B3541E",
"x  c #AB4822",
"c  c #AD532B",
"v  c #AD5C3A",
"b  c #B46100",
"n  c #BB6807",
"m  c #BC741B",
"M  c #A6643F",
"N  c #BC6B23",
"B  c #B96B2B",
"V  c #B56830",
"C  c #B87126",
"Z  c #BF783D",
"A  c #8E534E",
"S  c #8D5150",
"D  c #91584A",
"F  c #995955",
"G  c #8F6849",
"H  c #817A54",
"J  c #95706A",
"K  c #A0544C",
"L  c #A45D5D",
"P  c #A86641",
"I  c #A36D5E",
"U  c #B66C40",
"Y  c #B57841",
"T  c #BC7557",
"R  c #AE776C",
"E  c #A77E7A",
"W  c #C06904",
"Q  c #C57506",
"!  c #C47621",
"~  c #D96E24",
"^  c #D7752C",
"/  c #D97E38",
"(  c #C87D37",
")  c #E46818",
"_  c #E66C20",
"`  c #EC7A2C",
"'  c #E87D32",
"]  c #C37A59",
"[  c #88825D",
"{  c #8B8461",
"}  c #8E8868",
"|  c #948D6A",
" . c #928D71",
".. c #96906E",
"X. c #99926F",
"o. c #959074",
"O. c #99957C",
"+. c #9E9877",
"@. c #9F9979",
"#. c #999475",
"$. c #B7835B",
"%. c #A88F75",
"&. c #A29D7D",
"*. c #BC9B79",
"=. c #B58D6E",
"-. c #CE8100",
";. c #D08802",
":. c #CE8C38",
">. c #D58730",
",. c #EB802E",
"<. c #E3863A",
"1. c #E58D3B",
"2. c #EC8433",
"3. c #EB853A",
"4. c #E98939",
"5. c #E7923E",
"6. c #F28129",
"7. c #F1943F",
"8. c #C88649",
"9. c #CE9456",
"0. c #DE9944",
"q. c #DE9B4B",
"w. c #D49647",
"e. c #DD9D53",
"r. c #D59854",
"t. c #CE9A7B",
"y. c #D49D6C",
"u. c #DEAA48",
"i. c #DEA253",
"p. c #DBA45E",
"a. c #DCA961",
"s. c #D7A67F",
"d. c #E28C41",
"f. c #EC8F49",
"g. c #EA8D42",
"h. c #E29441",
"j. c #E29549",
"k. c #E29B45",
"l. c #E29E4A",
"z. c #EC974C",
"x. c #E29C51",
"c. c #E99856",
"v. c #F39448",
"b. c #E0A14C",
"n. c #E1A94E",
"m. c #E2A452",
"M. c #E4A955",
"N. c #E3A859",
"B. c #EBA45F",
"V. c #E6B05E",
"C. c #F3A15A",
"Z. c #E3AB62",
"A. c #E1AC75",
"S. c #E6B466",
"D. c #EBBC73",
"F. c #F2AC70",
"G. c #F4B47B",
"H. c #E7C077",
"J. c #9A9681",
"K. c #9D9983",
"L. c #A19C85",
"P. c #A19D89",
"I. c #B39A85",
"U. c #A5A18B",
"Y. c #A8A48D",
"T. c #AEA98C",
"R. c #A9A592",
"E. c #ADA994",
"W. c #AEAA99",
"Q. c #A7A492",
"!. c #B6A88C",
"~. c #B2AD92",
"^. c #B1AD9B",
"/. c #B9A893",
"(. c #B6B195",
"). c #B4B09A",
"_. c #B9B49A",
"`. c #BDB89E",
"'. c #B1AFA1",
"]. c #B4B2A3",
"[. c #B9B5A2",
"{. c #B9B6A9",
"}. c #BDB9A4",
"|. c #BCB9AB",
" X c #B7B5A8",
".X c #BFBDB1",
"XX c #C49A81",
"oX c #C6AA98",
"OX c #C2BD9E",
"+X c #D5AF9E",
"@X c #CCA889",
"#X c #C1BDA4",
"$X c #C1BDAB",
"%X c #C3B2A6",
"&X c #C1BEB1",
"*X c #D0AFAB",
"=X c #D7BBA6",
"-X c #F3B581",
";X c #C5C0A5",
":X c #C4C0AC",
">X c #C9C4AD",
",X c #CFCBAF",
"<X c #C3C0B3",
"1X c #CAC5B3",
"2X c #C8C6BC",
"3X c #CCC9B4",
"4X c #CDCABD",
"5X c #C5C4BA",
"6X c #DAC5A9",
"7X c #D2CDB3",
"8X c #D1CEBA",
"9X c #DECEBD",
"0X c #D7C4B9",
"qX c #D5D1B6",
"wX c #DAD5BB",
"eX c #DDD9BD",
"rX c #D3D0BB",
"tX c #E6C198",
"yX c #F3C297",
"uX c #E8C186",
"iX c #EFD4AA",
"pX c #F4CCA2",
"aX c #F5D2A9",
"sX c #F5D6B5",
"dX c #F4D9B7",
"fX c #E9CDB1",
"gX c #CCCAC1",
"hX c #D6CDC3",
"jX c #D5D2C1",
"kX c #D5D3CC",
"lX c #DBD6C3",
"zX c #D9D7CB",
"xX c #DDD9C4",
"cX c #DCD9C8",
"vX c #D7D6D0",
"bX c #D8D7D0",
"nX c #DAD9D2",
"mX c #DFDFD9",
"MX c #E1DBC2",
"NX c #E2DDCB",
"BX c #E8DAC9",
"VX c #E3DED2",
"CX c #E0DFD9",
"ZX c #F6DDC1",
"AX c #E6E1CC",
"SX c #E6E2D1",
"DX c #E9E5D3",
"FX c #EBE8D6",
"GX c #ECE9D9",
"HX c #E2E1DC",
"JX c #F1EBDB",
"KX c #F5E8D5",
"LX c #EDECE0",
"PX c #F1EEE1",
"IX c #F2F1E5",
"UX c #F4F2E8",
/* pixels */
"GXGXGXGXFX3X&.[ H X.....| | | | | | ..| | | | H +.#XGXFXGXGXFXGXFX",
"GXFXGX>X&.X.OXwXeXeXeXeXeXeXeXeXeXeXeXeXeXxXwXqX_.+.} `.FXGXGXFXGX",
"FXGX(.{ ;XeXeXeXBXVXVXVXDXDXDXDXSXSXBXsXBXDXeXwX3X>X`.| T.GXFXGXFX",
"GX(.| qXeXMXFXIXUXUXUXUXIXUXIXKXsXyXyXG.-XpXdXJXAX7X;X`.o.T.GXFXGX",
">X[ 7XxXAXIXUXIXUXUXIXIXIXPXaXc.v.f.f.z.c.c.c.=XGXVX8X#X_.} (.GXFX",
"&.OXeXAXIXIXIXIXPXPXJXPXPXsXg.` ' 3.<.d.g.<.j.j.tXNXzX1X}.W.[ cXFX",
"X.wXxXPXUXPXJXfXhXJXLXPXKXF.) ' ' <.3.<.<.<.q.q.a.6XzX4X$X].O.(.FX",
"_.wXFXUXPXGXpXd F BXPXPXKXG._ 3.3.<.<.<.d.q.e.e.a.@XjX4X<X XE.[ FX",
"7XeXPXIXPXpX4.4 # 0XGXGXLXBX/ z.B.c.j.h.q.i.i.i.a.P /.gX&X{.'.J qX",
"qXMXUXGXsX7.~ 6 O L BXPXPXBX] d j C 8.N.m.q.i.i.a.3 J 1X&X$X]. .;X",
"qXAXPXJXC.6.` 6 : , 0XLXJXGX=X+ o = 2 8.N.x.e.i.a.* $ [.<X.X XO._.",
"qXDXPXaX` 2.2.z : F BXGXGXJXBXy + 8 < 3 r.m.q.Z.9.* . E <X<X{.O.~.",
"qXDXJXC.` 4.7.>.4 =XGXGXJXGXGX@X* > 5 > ( m.N.S.m & . S <X<X XK.!.",
"7XDXGXg.4.7.4.5.^ A.aXaXGXGXGXGX=.3 < & V S.D.u.g & o A $X<X XK.~.",
"8XDXdXz.7.1.1.5.l.b.m.B.uXGXGXGXDXwX$.Y r.S.n.;.g < + A $X.X|.K.~.",
"qXDXaXz.1.1.5.0.k.k.l.b.S.dXGXGXKXGXFXBXS.:.-.-.b < * F |.<X{.K.~.",
"3XSXsXz.1.5.h.h.k.l.n.M.V.@XDXGXGXGXNXy.! W Q -.k 1 + I.|.&X XK.~.",
"7XSXDXx.0.0.0.0.l.n.n.M.N.v *XFXFXFXt.d s l Q Q k > 2 I. X|. XJ.~.",
",XNXDXA.h.q.0.u.l.l.n.S.r.6 R GXFXFX=Xc s l n n a < P [.[.|.'.J.~.",
">XxXDX6X( M.m.q.b.N.S.Z.B O 7 lXDXDXDX] s l n a 1 w (.}.^.{.].J.~.",
";XlXNXNXU ! e.m.S.H.S.C 5 + o R DXDXAX+Xd a g 1 0 =.}.].W. X'.J.~.",
"#X7XzXlXXX% j B :.>.Q b a > X I NXNXNXNXP 5 5 w t.$X[.~.E. X].J.~.",
"[.1XrXjX6Xr & 5 a h b Q g 1 X i =XlXlXlXXXw u !.#X`.^.R.W.|. XO._.",
").}.3X3X3X*.> 1 5 f b b k 5 X ; %X8X8X8X&X@X/.$X_.W.R.P.].|.|. .#X",
"E.).$X$X>X(.w % < q f f f 9 o G >X>X>X:X:X}.[.).E.Q.U.K..X.X5XH GX",
"O.E.[.{.{.`.%.* & = 9 e 9 8 - I.}.}.{.`._.).E.E.U.P.K.'.gX2X X .FX",
"H Q.E.].W.^.T.t - - 8 0 0 u %.(.~.W.E.E.E.Y.U.P.K.J.Q.gXgXjX .}.GX",
"T.O.Q.W.^.R.P.L.G p t p p U.U.Y.Y.Y.U.U.U.K.K.K.O.E.gXnXnX|...FXFX",
"xX#.P.'.$X XQ.P.K.K.P.K.U.K.K.K.K.K.K.K.K.K.J.K.|.kXmXmX2X{ $XFXGX",
"GX>X+.P.|.&XgX&X|.].].W.W.W.W.W.W.W.W.].].$X2XbXmXHXmX<X{ _.FXGXFX",
"GXGX1X&.O..XgXhXkXkXvXbXnXbXbXbXbXbXbXnXnXnXmXmXHXbXY.| `.GXGXFXGX",
"FXGXGXGX^.H o.W.|.gXkXvXbXbXbXbXbXvXbXbXbXbX<X{.K.[ T.xXFXGXFXGXGX",
"GXFXGXFXGXGX#X&.| [ H H H H H H H H H H H H | +.(.NXGXGXGXGXFXGXFX"
};
